<?xml version="1.0" standalone="no"?>
<!DOCTYPE svg PUBLIC "-//W3C//DTD SVG 1.1//EN" "http://www.w3.org/Graphics/SVG/1.1/DTD/svg11.dtd" >
<svg>
<metadata>
Created by FontForge 20110222 at Thu Sep 25 09:17:58 2014
 By deploy user
Copyright (c) 2006 Parachute :, www.parachute.gr.  All rights reserved.
</metadata>
<defs>
<font id="PFAgoraSerifPro-Medium" horiz-adv-x="1818" >
  <font-face 
    font-family="PF Agora Serif Pro Medium"
    font-weight="500"
    font-stretch="normal"
    units-per-em="1000"
    panose-1="2 0 5 0 0 0 0 2 0 4"
    ascent="750"
    descent="-250"
    x-height="491"
    cap-height="687"
    bbox="-414 -292 1760 950"
    underline-thickness="50"
    underline-position="-50"
    unicode-range="U+0020-FB05"
  />
<missing-glyph horiz-adv-x="443" 
d="M0 687h443v-687h-443v687zM343 631h-243l122 -221zM343 65l-121 221l-122 -221h243zM65 134l118 214l-118 214v-428zM378 134v428l-117 -214z" />
    <glyph glyph-name="fj" unicode="fj" horiz-adv-x="579" 
d="M513 63v-31t-1 -29q-2 -51 -18 -90.5t-42.5 -69.5t-62.5 -51.5t-79 -37.5l-20 43q59 38 88 86t29 117v432h-201v-367q20 -5 40 -11.5t40 -11.5q-1 -11 -1 -21v-21h-263l-2 41q20 7 39.5 13.5t39.5 14.5v363h-75v36l75 27v15q0 36 12.5 75.5t39.5 71.5t70 53t105 21
q45 0 75 -7.5t49 -19.5t27 -26.5t8 -28.5q0 -22 -16 -43t-35 -29q-44 23 -86 45t-86 44q-17 -5 -28 -16t-17 -25t-8.5 -30t-2.5 -31v-76h123q51 0 94 5.5t81 8.5l9 -4v-435z" />
    <glyph glyph-name="ffj" unicode="ffj" horiz-adv-x="886" 
d="M326 727q54 0 90.5 -14.5t53.5 -33.5q28 27 70 44t100 17q43 0 72 -8t47 -20t25.5 -26t7.5 -27q0 -23 -15.5 -44t-34.5 -28l-173 88q-17 -5 -27.5 -15.5t-17 -25t-9 -30.5t-2.5 -31v-85h94q60 0 110 5t95 9l8 -4q1 -110 1 -219v-220v-29.5t-2 -29.5q-1 -48 -16.5 -87
t-42.5 -69t-63.5 -52t-78.5 -38l-20 43q59 38 87.5 87t28.5 116v432h-201v-367l80 -23v-21t-1 -21h-263v20t-1 21l79 28v363h-201v-367q20 -5 40 -11.5t40 -11.5q-1 -11 -1 -21v-21h-263l-2 41q20 7 39.5 13.5t39.5 14.5v363h-75v36l75 27v11q0 39 12.5 78.5t40 71
t70.5 51.5t104 20zM407 488v37q0 34 10 67l-150 74q-17 -5 -28.5 -16.5t-19 -26.5t-10.5 -31.5t-3 -31.5v-72h201z" />
    <glyph glyph-name="ff" unicode="ff" horiz-adv-x="687" 
d="M206 432v-367l80 -23l-1 -42h-263l-2 41l79 28v363h-75v36l75 27v11q0 39 12.5 78.5t40 71t70.5 51.5t104 20q51 0 84.5 -12t51.5 -29q25 26 61 42.5t85 16.5q54 0 83.5 -18.5t29.5 -45.5q0 -23 -16 -39.5t-36 -24.5q-28 17 -55.5 33t-56.5 32q-26 -12 -35 -37.5
t-9 -65.5v-91h133v-56h-133v-367l80 -23l-1 -42h-263l-1 41l79 28v363h-201zM407 532q0 14 1.5 29.5t5.5 31.5l-147 73q-17 -5 -28.5 -16.5t-19 -26.5t-10.5 -31.5t-3 -31.5v-72h201v44z" />
    <glyph glyph-name="fi" unicode="fi" horiz-adv-x="619" 
d="M262 666q-17 -5 -27.5 -15.5t-17 -25t-9 -30.5t-2.5 -31v-76h123q50 0 93.5 5.5t82.5 9.5l9 -5v-433l77 -23l-1 -42h-259l-2 42l79 28v363l-202 -1v-366l80 -24l-1 -42h-263l-1 41l78 29l1 362h-75v36l75 27v15q0 39 12.5 79t39.5 71.5t70 51.5t104 20q43 0 73.5 -7.5
t49.5 -19.5t27.5 -26.5t8.5 -28.5q0 -23 -15.5 -44t-34.5 -28z" />
    <glyph glyph-name="fl" unicode="fl" horiz-adv-x="619" 
d="M515 66l77 -23l-1 -43h-260l-1 42l78 28v526l-146 65q-17 -5 -27.5 -15.5t-17 -25t-9 -30.5t-2.5 -31v-71h142v-55l-142 -1v-366l80 -24l-1 -42h-263l-1 41l78 29l1 362h-75v36l75 27v10q0 39 12.5 79t39.5 71.5t70 51.5t104 20q34 0 59.5 -5t44.5 -13l75 12l8 -5z" />
    <glyph glyph-name="ffi" unicode="ffi" horiz-adv-x="927" 
d="M514 432v-35v-66.5v-81.5v-81.5v-66.5v-35l80 -24l-1 -42h-263l-2 41l79 29v362h-201v-366l80 -24l-1 -42h-263l-1 41l78 29l1 362h-75v36l75 27v11q0 39 12.5 78.5t39.5 71t70 51.5t104 20q54 0 90.5 -14t53.5 -34q27 27 67 44.5t97 17.5q43 0 73.5 -7.5t49.5 -19
t27.5 -26t8.5 -29.5q0 -22 -16 -43t-35 -29l-172 89q-17 -5 -28 -16t-17 -25t-8.5 -30t-2.5 -31v-86h123q49 0 93 5.5t83 9.5l8 -5l1 -433l77 -23l-1 -42h-260l-1 42l78 28v363zM206 488l201 1v37q0 15 2.5 32t7.5 34l-150 74q-17 -5 -28.5 -16.5t-18.5 -26.5t-10.5 -31.5
t-3.5 -31.5v-72z" />
    <glyph glyph-name="ffl" unicode="ffl" horiz-adv-x="926" 
d="M625 740q34 0 63 -6t49 -14l74 11l9 -4q0 -166 0.5 -330.5t0.5 -330.5l80 -24l-3 -42h-260l-2 41l79 29v535l-146 70q-17 0 -27.5 -12t-17 -28.5t-9 -34.5t-2.5 -30v-82h141v-56h-141v-367l80 -23l-1 -42h-263l-1 41l79 28v363h-201v-367q20 -5 40 -11.5t40 -11.5l-1 -42
h-263l-2 41q20 7 39.5 13.5t39.5 14.5v363h-75v36l75 27v11q0 39 12.5 78.5t40 71t70.5 51.5t104 20q56 0 90 -14t51 -33q27 27 66 43.5t92 16.5zM407 488v37q0 34 10 67l-150 74q-17 -5 -28.5 -16.5t-19 -26.5t-10.5 -31.5t-3 -31.5v-72h201z" />
    <glyph glyph-name="ft" unicode="ft" horiz-adv-x="704" 
d="M522 137q0 -35 16 -53t55 -18q18 0 40.5 3.5t54.5 11.5q7 -26 16 -55q-78 -38 -157 -38q-63 0 -97.5 26.5t-34.5 89.5v328h-209v-367q20 -5 40 -11.5t40 -11.5q-1 -11 -1 -21v-21h-263l-2 41q20 7 39.5 13.5t39.5 14.5v363h-75v36l75 27v24q0 39 11.5 77t36 68.5t63 49
t91.5 18.5q52 0 82.5 -17.5t30.5 -46.5q0 -22 -16.5 -39t-35.5 -24q-29 16 -56.5 32t-55.5 32q-26 -11 -35 -37t-9 -66v-78h210l20 56t21 56q14 5 27.5 10t27.5 10q2 -2 4.5 -3.5t4.5 -3.5v-125h148v-56h-147v-295z" />
    <glyph glyph-name=".notdef" horiz-adv-x="443" 
d="M0 687h443v-687h-443v687zM343 631h-243l122 -221zM343 65l-121 221l-122 -221h243zM65 134l118 214l-118 214v-428zM378 134v428l-117 -214z" />
    <glyph glyph-name="exclam" unicode="!" horiz-adv-x="300" 
d="M129 192l-45 445q-1 11 1.5 24t10 23.5t20.5 17.5t33 7q21 0 34.5 -7t21 -18t9.5 -24t1 -26l-42 -442h-44zM220 57q0 -29 -20 -49t-50 -20q-33 0 -51.5 20t-18.5 49t20.5 49t49.5 20q30 0 50 -20t20 -49z" />
    <glyph glyph-name="quotedbl" unicode="&#x22;" horiz-adv-x="295" 
d="M61 435l-30 202q-2 15 9.5 31t38.5 16t40 -15.5t10 -34.5l-33 -199h-35zM196 435l-30 202q-2 15 9.5 31t38.5 16t40 -15.5t10 -34.5l-33 -199h-35z" />
    <glyph glyph-name="numbersign" unicode="#" horiz-adv-x="545" 
d="M57 247h77l33 154h-80l13 61h80l37 170h60l-36 -170h134l36 170h61l-37 -170h74l-13 -61h-74l-33 -154h77l-13 -60h-76l-40 -187h-61l40 187h-134l-40 -187h-61l40 187h-77zM195 247h134l33 154h-135z" />
    <glyph glyph-name="dollar" unicode="$" horiz-adv-x="581" 
d="M316 765h49v-93q33 -5 66 -17t64 -34l-9 -129l-44 -3l-24 86q-12 6 -25.5 10.5t-27.5 8.5v-205q36 -17 65.5 -36t50.5 -41.5t32.5 -50t11.5 -63.5q0 -66 -38 -117t-122 -69v-114h-49v867zM273 -102h-49v112q-38 5 -77.5 19.5t-76.5 40.5l7 138l45 3l24 -92
q14 -8 34 -16.5t44 -13.5v258q-31 15 -57.5 30.5t-46 34.5t-31 43t-11.5 56q0 59 36 103t110 58v93h49v-867zM427 179q0 33 -16 55.5t-46 42.5v-182q29 11 45.5 33.5t16.5 50.5zM180 520q0 -20 12 -35.5t32 -27.5v134q-44 -20 -44 -71z" />
    <glyph glyph-name="quotesingle" unicode="'" horiz-adv-x="200" 
d="M81 435l-30 202q-2 15 9.5 31t38.5 16t40 -15.5t10 -34.5l-33 -199h-35z" />
    <glyph glyph-name="parenleft" unicode="(" horiz-adv-x="338" 
d="M165 265q0 -137 34.5 -247t117.5 -203l-22 -25q-55 41 -98.5 93t-74 112.5t-46.5 127t-16 135.5q0 138 59.5 259t176.5 207l21 -24q-85 -97 -118.5 -206.5t-33.5 -228.5z" />
    <glyph glyph-name="parenright" unicode=")" horiz-adv-x="338" 
d="M173 265q0 119 -33.5 228.5t-118.5 206.5l21 24q117 -86 176.5 -207t59.5 -259q0 -69 -16 -135.5t-46.5 -127t-74 -112.5t-98.5 -93l-22 25q82 93 117 203t35 247z" />
    <glyph glyph-name="asterisk" unicode="*" horiz-adv-x="462" 
d="M215 541l-43 144q28 9 60 9q31 0 57 -9l-40 -144l128 84q35 -48 35 -112l-152 -11l121 -91q-18 -25 -42 -42t-52 -28l-56 142l-57 -142q-26 10 -51 28.5t-42 41.5l120 91l-151 11q1 29 9 57.5t27 54.5z" />
    <glyph glyph-name="plus" unicode="+" horiz-adv-x="581" 
d="M329 315h187v-73h-187v-189h-76v189h-188v73h188v188h76v-188z" />
    <glyph glyph-name="comma" unicode="," horiz-adv-x="255" 
d="M58 57q0 28 20 48t51 20q35 0 53.5 -24t18.5 -58q0 -26 -9.5 -53.5t-26.5 -53t-41 -47t-52 -36.5l-23 29q27 27 41.5 53t17.5 59q-23 5 -36.5 22.5t-13.5 40.5z" />
    <glyph glyph-name="hyphen" unicode="-" horiz-adv-x="364" 
d="M317 294v-77h-269v77h269z" />
    <glyph glyph-name="period" unicode="." horiz-adv-x="247" 
d="M193 57q0 -29 -19.5 -49t-50.5 -20q-32 0 -50.5 20t-18.5 49t20 49t49 20q31 0 50.5 -20t19.5 -49z" />
    <glyph glyph-name="slash" unicode="/" horiz-adv-x="333" 
d="M63 -42h-62l270 763h61z" />
    <glyph glyph-name="zero" unicode="0" horiz-adv-x="581" 
d="M547 347q0 -68 -10.5 -133t-39 -116t-78.5 -82.5t-128 -31.5t-128 32t-79 83.5t-40 116.5t-11 131q0 65 11 129t40 114.5t79 82t128 31.5t128 -32t78.5 -83t39 -115t10.5 -127zM287 631q-45 0 -72 -23.5t-42 -60.5t-19.5 -82.5t-4.5 -90.5q0 -55 3.5 -111t17.5 -101.5
t43 -74t80 -28.5q44 0 71.5 22.5t43 59.5t21 84t5.5 96q0 55 -4 110.5t-19 99.5t-44 72t-80 28z" />
    <glyph glyph-name="one" unicode="1" horiz-adv-x="581" 
d="M473 0q-42 1 -82 2t-97 1q-55 0 -98 -1t-87 -2l-1 47l130 33v514l-126 16v49l219 41l20 -23v-601l123 -26z" />
    <glyph glyph-name="two" unicode="2" horiz-adv-x="581" 
d="M280 703q49 0 90 -12t70.5 -37t46 -63.5t16.5 -91.5q0 -59 -25 -117.5t-68 -112.5t-102 -102t-126 -85v-4l262 9l60 114l40 -9l-25 -184l-10 -9q-49 0 -108.5 1.5t-125.5 1.5h-35h-39t-57.5 -0.5t-90.5 -1.5l-14 61q162 106 252.5 207.5t90.5 205.5q0 76 -35.5 107
t-99.5 31q-45 0 -90.5 -14t-83.5 -35l-31 55q50 38 109 61.5t129 23.5z" />
    <glyph glyph-name="three" unicode="3" horiz-adv-x="581" 
d="M276 425q0 -1 1 -2q51 0 96.5 -13.5t79.5 -39.5t54 -64.5t20 -88.5q0 -60 -21 -103.5t-56.5 -72.5t-83 -43t-101.5 -14q-65 0 -117 10.5t-99 31.5l22 63q56 -17 98.5 -22t72.5 -5q45 0 77.5 11.5t53 32t30 49t9.5 63.5q0 34 -12.5 58.5t-34.5 40.5t-52.5 23t-66.5 7
t-69 -6l-23 51l211 206v2q-52 -2 -103 -3.5t-102 -2.5q-12 -23 -25.5 -46t-25.5 -45q-11 2 -20.5 4.5t-20.5 4.5l31 178q55 -2 101 -3t94 -1h65.5h51t41 0.5t35.5 0.5l24 -68z" />
    <glyph glyph-name="four" unicode="4" horiz-adv-x="581" 
d="M440 69q7 -2 18 -5t22.5 -6.5t22 -7t18.5 -5.5l-1 -45h-271l-2 43l83 29v123h-310l-23 37l356 464l66 19l20 -12v-443h116v-65h-114zM330 259v313h-3q-21 -31 -50.5 -72t-60 -84t-60 -84.5t-50.5 -72.5h224z" />
    <glyph glyph-name="five" unicode="5" horiz-adv-x="581" 
d="M172 409q32 11 67 15t61 4q51 0 94 -13t74.5 -39.5t49.5 -65t18 -89.5q0 -60 -20.5 -105t-56 -74.5t-83 -44t-102.5 -14.5q-66 0 -119.5 11t-99.5 31l24 65q55 -17 99 -21.5t74 -4.5q88 0 128.5 39.5t40.5 117.5q0 36 -12.5 60.5t-34.5 40t-50.5 22.5t-59.5 7
q-29 0 -61.5 -4.5t-58.5 -13.5l-49 31l63 298q1 0 2 1q1 0 3 2l4 4l278 2l38 65l38 -7l-18 -144l-9 -8q-70 2 -135.5 4.5t-134.5 4.5z" />
    <glyph glyph-name="six" unicode="6" horiz-adv-x="581" 
d="M273 443q14 2 27 3t27 1q44 0 82.5 -13.5t67 -41t45 -68.5t16.5 -95q0 -44 -14 -87.5t-43.5 -79t-75.5 -57.5t-110 -22q-70 0 -117.5 23.5t-76 62t-41 88t-12.5 102.5q0 94 33.5 168.5t87 131t120.5 96t133 64.5l24 -55q-100 -53 -156.5 -108t-84.5 -108t-34.5 -102.5
t-6.5 -92.5q0 -94 31 -145.5t100 -51.5q35 0 60 13.5t41 36.5t23.5 54t7.5 66q0 49 -10.5 80.5t-31 50t-49 26.5t-64.5 11z" />
    <glyph glyph-name="seven" unicode="7" horiz-adv-x="581" 
d="M103 -4l343 598q0 1 -3 3l-288 -9l-57 -103l-39 9l26 187l10 8q72 -1 122 -1.5t96 -0.5q45 0 92 0.5t113 1.5l30 -42l-325 -657l-109 -10z" />
    <glyph glyph-name="eight" unicode="8" horiz-adv-x="581" 
d="M192 531q0 -27 12 -48.5t32 -39t46.5 -32t55.5 -28.5q44 35 59.5 73.5t15.5 69.5q0 21 -7 40.5t-21 34.5t-35.5 23.5t-50.5 8.5q-27 0 -47 -8.5t-33.5 -22.5t-20 -32.5t-6.5 -38.5zM294 61q57 0 94 33t37 90q0 27 -12.5 48t-35 39.5t-55 35.5t-71.5 34q-50 -37 -68 -79.5
t-18 -78.5q0 -60 35 -91t94 -31zM518 529q0 -18 -5 -40.5t-17.5 -46t-34 -47t-54.5 -43.5q56 -29 90.5 -69.5t34.5 -104.5q0 -42 -17 -77.5t-48.5 -61t-76 -40t-99.5 -14.5q-115 0 -177 51.5t-62 136.5q0 25 7 53t23 55t42 51t64 41q-45 28 -76 64t-31 86q0 40 16.5 73.5
t46 57.5t70 37.5t87.5 13.5q36 0 74.5 -9t70 -30t52 -54.5t20.5 -82.5z" />
    <glyph glyph-name="nine" unicode="9" horiz-adv-x="581" 
d="M315 245q-14 -3 -27 -4t-27 -1q-44 0 -82.5 14t-67 41t-45 68t-16.5 95q0 42 14 86t44 79.5t76 58t110 22.5q70 0 117 -23.5t75.5 -62.5t40 -88.5t11.5 -101.5q0 -95 -33 -169t-86.5 -130t-120 -95.5t-132.5 -64.5l-25 53q100 53 157 108.5t85 108.5t35 103t7 92
q0 94 -32 145.5t-101 51.5q-35 0 -59.5 -13.5t-40 -36.5t-22.5 -54t-7 -66q0 -50 10.5 -81t30 -49.5t48 -26t64.5 -10.5z" />
    <glyph glyph-name="colon" unicode=":" horiz-adv-x="247" 
d="M193 57q0 -29 -19.5 -49t-50.5 -20q-32 0 -50.5 20t-18.5 49t20 49t49 20q31 0 50.5 -20t19.5 -49zM193 360q0 -29 -19.5 -49t-50.5 -20q-32 0 -50.5 20t-18.5 49t20 49t49 20q31 0 50.5 -20t19.5 -49z" />
    <glyph glyph-name="semicolon" unicode=";" horiz-adv-x="247" 
d="M193 360q0 -29 -19.5 -49t-50.5 -20q-32 0 -50.5 20t-18.5 49t20 49t49 20q31 0 50.5 -20t19.5 -49zM50 57q0 28 20 48t51 20q35 0 54 -24t19 -58q0 -26 -9.5 -53.5t-27 -53t-41.5 -47t-52 -36.5l-23 29q27 27 42 53t18 59q-24 5 -37.5 22.5t-13.5 40.5z" />
    <glyph glyph-name="less" unicode="&#x3c;" horiz-adv-x="581" 
d="M183 274q8 -3 32 -14t55.5 -26t67.5 -32t67.5 -32t55.5 -26t32 -14v-79l-406 192v64l406 195v-79z" />
    <glyph glyph-name="equal" unicode="=" horiz-adv-x="581" 
d="M498 324h-415v74h415v-74zM498 166h-415v73h415v-73z" />
    <glyph glyph-name="greater" unicode="&#x3e;" horiz-adv-x="581" 
d="M87 130l311 144q-8 3 -32 14.5t-56 27t-68 33t-67.5 33t-55.5 27t-32 14.5v79l406 -195v-64l-406 -192v79z" />
    <glyph glyph-name="question" unicode="?" horiz-adv-x="465" 
d="M249 189q-54 19 -86.5 58t-32.5 84q0 23 14 44.5t34.5 42t45 40t45 39t34.5 39.5t14 42q0 28 -20.5 49.5t-71.5 29.5l-118 -96q-23 8 -40 26.5t-17 48.5q0 19 14.5 34t39.5 24.5t56.5 14.5t66.5 5q111 0 159.5 -36t48.5 -96q0 -31 -15 -56.5t-38 -48t-49.5 -42.5
t-49.5 -40.5t-38 -42.5t-15 -48q0 -8 4 -18.5t10 -21t14 -20.5t17 -17zM292 57q0 -29 -19.5 -49t-50.5 -20q-32 0 -51 20t-19 49t20.5 49t49.5 20q31 0 50.5 -20t19.5 -49z" />
    <glyph glyph-name="at" unicode="@" horiz-adv-x="1067" 
d="M696 219q0 -26 14.5 -46t55.5 -20q27 0 52 12.5t43.5 36.5t30 58t11.5 77q0 76 -25.5 137t-71 104t-109.5 66.5t-140 23.5q-85 0 -156.5 -28.5t-124 -78t-82 -116.5t-29.5 -144q0 -81 27.5 -149t76.5 -117.5t116 -77.5t145 -28q27 0 69.5 5.5t84.5 20.5l21 -63
q-49 -21 -94.5 -27.5t-84.5 -6.5q-94 0 -173.5 33.5t-138 93t-91.5 140t-33 173.5t35 173t97 139t148 92.5t187 33.5q93 0 170 -27t132.5 -77.5t86.5 -123t31 -163.5q0 -62 -17.5 -110t-48 -81.5t-72 -51t-89.5 -17.5q-43 0 -82 19t-55 63l-65 -58q-39 -11 -73 -11
q-30 0 -52.5 10t-37.5 26.5t-22.5 38.5t-7.5 46q0 9 1 20.5t5.5 24t13.5 24.5t24 21q10 6 26 12.5t39.5 12t57 9.5t80.5 6v38q0 38 -16.5 52.5t-57.5 14.5q-19 0 -53.5 -4.5t-76.5 -17.5l-17 56q40 21 84 33t89 12q68 0 105 -30t37 -106v-178zM503 174q21 0 48.5 9t50.5 25
v95q-52 -3 -81.5 -12t-44.5 -20t-18.5 -23t-3.5 -21q0 -24 12 -38.5t37 -14.5z" />
    <glyph glyph-name="A" unicode="A" horiz-adv-x="715" 
d="M460 216h-240l-48 -144l94 -21l-1 -51h-255l-2 50l76 22l192 500q11 29 21.5 57.5t19.5 59.5l86 16l6 -3l243 -631l58 -20l-3 -51h-276l-3 49l83 24zM284 405l-43 -126h197l-44 127l-53 153h-5z" />
    <glyph glyph-name="B" unicode="B" horiz-adv-x="679" 
d="M44 642l6 47q32 -1 60.5 -1.5t57.5 -0.5q49 0 106 1t104 1q65 0 105.5 -17t63 -41t30.5 -51t8 -47q0 -30 -11.5 -55t-29.5 -43t-39 -29t-40 -15v-4q75 -14 119.5 -62t44.5 -123q0 -45 -17 -82t-46.5 -63.5t-69.5 -41.5t-86 -15q-51 0 -105 1.5t-108 1.5h-77t-81 -2l-4 45
l90 28v544zM312 408q52 1 83.5 14t48.5 29.5t23 34t6 28.5q0 55 -40 79.5t-106 24.5q-6 0 -17 -0.5t-23.5 -1t-25.5 -2t-22 -2.5v-526q10 -3 24 -5.5t28.5 -4.5t28 -3t23.5 -1q87 0 129 37.5t42 97.5q0 30 -10 55.5t-33 44.5t-61.5 30.5t-96.5 12.5l-8 50z" />
    <glyph glyph-name="C" unicode="C" horiz-adv-x="625" 
d="M60 333q0 67 16 133.5t52.5 119.5t95 86t143.5 33q38 0 77.5 -7t86.5 -33l22 39h41l3 -208l-44 -5l-38 98q-29 20 -62.5 28t-75.5 8q-54 0 -91.5 -22.5t-61 -61t-33.5 -90t-10 -109.5q0 -53 8 -102t31 -87t65 -60.5t110 -22.5q41 0 89.5 5.5t100.5 22.5l19 -65
q-51 -26 -114 -37.5t-116 -11.5q-155 0 -234.5 86.5t-79.5 262.5z" />
    <glyph glyph-name="D" unicode="D" horiz-adv-x="741" 
d="M204 3h-44.5h-36t-37 -0.5t-46.5 -1.5l-5 44l88 27v545l-80 23l6 48q27 -1 43 -1.5t28.5 -1t25.5 -0.5h34q26 0 47 0.5t39.5 1.5t36.5 1.5t38 0.5q97 0 162.5 -29.5t105 -77.5t56 -108.5t16.5 -122.5q0 -30 -4.5 -68t-17.5 -77t-35.5 -76t-58.5 -66t-86.5 -46.5
t-119.5 -17.5q-6 0 -28.5 0.5t-48.5 1t-49 1t-29 0.5zM238 79q20 -5 48 -6.5t50 -1.5q64 0 107.5 23.5t69.5 62.5t37.5 90t11.5 106q0 79 -20 130t-54.5 80.5t-80.5 41t-98 11.5q-19 0 -38.5 -0.5t-32.5 -2.5v-534z" />
    <glyph glyph-name="E" unicode="E" horiz-adv-x="633" 
d="M598 199l-25 -189l-11 -10q-36 0 -65.5 0.5l-59 1t-61.5 1t-73 0.5h-59.5t-69 -0.5t-70.5 -1t-64 -1.5l-5 45l90 27v545l-81 24l6 47q25 -1 61 -1.5t73 -0.5h69.5h52.5q34 0 62 0.5t55 1t55 1t63 1.5l11 -6l4 -189l-45 -7l-42 125h-229v-224l248 8v-79l-248 8v-250h53.5
t74 0.5t74 1t53.5 0.5l65 131z" />
    <glyph glyph-name="F" unicode="F" horiz-adv-x="583" 
d="M44 641l5 47q25 -1 61 -1.5t73 -0.5h69.5h52.5q34 0 63 0.5t56.5 1t56 1t63.5 1.5l11 -6l3 -189l-45 -7l-41 125h-233v-235l248 8v-79l-248 8v-242l98 -23l-2 -50h-298l-2 45l89 27v545z" />
    <glyph glyph-name="G" unicode="G" horiz-adv-x="724" 
d="M568 488l-37 101q-29 20 -63.5 28.5t-77.5 8.5q-58 0 -98 -22.5t-65 -61t-36.5 -90.5t-11.5 -111q0 -57 9 -107t32.5 -87t64.5 -58t105 -21q9 0 23 1t31 3t36 5t37 8v199l-89 27l2 46h262l2 -53l-69 -17v-295l-37 -10l-41 36q-43 -17 -91.5 -25.5t-84.5 -8.5
q-81 0 -140 23.5t-97.5 68.5t-57 109.5t-18.5 146.5q0 68 17 134.5t54.5 119.5t98.5 86t149 33q37 0 79.5 -7t90.5 -33l21 39h42l3 -210z" />
    <glyph glyph-name="H" unicode="H" horiz-adv-x="807" 
d="M43 687h297l2 -50l-94 -23v-222h306v222l-87 27l2 46h296l2 -50l-95 -23v-540l95 -23l-1 -51h-298l-3 46l89 28v251h-306v-251l94 -23l-2 -51h-298l-2 46l90 28v540l-89 27z" />
    <glyph glyph-name="I" unicode="I" horiz-adv-x="423" 
d="M361 0h-299l-2 45l91 28v542l-91 27l2 45h299l2 -49l-97 -23v-542l97 -23z" />
    <glyph glyph-name="J" unicode="J" horiz-adv-x="407" 
d="M276 107q0 -77 -20 -132t-55 -92.5t-83.5 -61t-106.5 -36.5l-16 54q89 40 127.5 99.5t38.5 142.5v534l-94 28l2 44h302l1 -49l-96 -23v-508v0z" />
    <glyph glyph-name="K" unicode="K" horiz-adv-x="718" 
d="M336 0h-299l-2 45l91 28v542l-91 27l2 45h299l2 -49l-97 -23v-542l97 -23zM695 34l-10 -35l-101 -22l-313 369v19l209 254l-70 22l2 48h237v-52q-47 -20 -86 -49t-75 -68l-124 -138z" />
    <glyph glyph-name="L" unicode="L" horiz-adv-x="622" 
d="M612 205l-25 -195l-11 -10q-36 0 -66.5 0.5l-61 1t-63.5 1t-74 0.5h-60.5t-71 -0.5l-73 -1t-65.5 -1.5l-4 44l89 29v542l-91 27l2 45h299l1 -49l-96 -23v-539h55t78.5 0.5t78.5 1t55 0.5l68 136z" />
    <glyph glyph-name="M" unicode="M" horiz-adv-x="1030" 
d="M241 545l-4 -1l-21 -471l105 -22l-2 -51h-286l-2 49l102 26l42 539l-99 29l6 47q37 0 64.5 -0.5t53 -0.5h53t64.5 1q4 -17 8 -30.5t10 -27.5l106 -247l77 -186h7l83 203l123 288q43 -2 104.5 -1.5t121.5 1.5l2 -50l-100 -26l40 -540l96 -23l-2 -51h-306l-2 46l90 28
l-23 478h-5l-219 -522h-62z" />
    <glyph glyph-name="N" unicode="N" horiz-adv-x="831" 
d="M625 193q0 40 -1 96t-2 115.5t-2 115.5t-2 96l-96 25l2 46h276l2 -50l-101 -23q-1 -34 -2 -83t-1.5 -106t-1.5 -117.5t-2 -117.5t-2 -106.5t-1 -83.5l-60 -14l-264 351l-154 209l-3 -1l5 -473l102 -21l-2 -51h-285l-2 47l103 28l11 538l-102 29l7 47q73 -2 131 -1.5
t87 1.5q17 -35 37 -61l203 -275l117 -160h3z" />
    <glyph glyph-name="O" unicode="O" horiz-adv-x="746" 
d="M686 353q0 -75 -18 -142t-56 -117.5t-98.5 -80t-145.5 -29.5q-149 0 -228.5 92t-79.5 260q0 74 18 140.5t56 117t98.5 80.5t144.5 30q73 0 130.5 -25t97.5 -70.5t60.5 -110.5t20.5 -145zM371 631q-54 0 -90.5 -23t-58.5 -61.5t-31.5 -88t-9.5 -102.5q0 -66 10 -120.5
t32.5 -93t59.5 -60t91 -21.5t90.5 23t59.5 61t33 88.5t10 104.5q0 60 -10 113.5t-33 93.5t-60.5 63t-92.5 23z" />
    <glyph glyph-name="Q" unicode="Q" horiz-adv-x="746" 
d="M686 353q0 -65 -13.5 -124.5t-42 -107.5t-73 -81.5t-106.5 -46.5q39 -36 69 -58.5t55.5 -36.5t49.5 -22.5t50 -15.5l-4 -44q-31 -5 -63.5 -4t-66 9.5t-68 27t-70.5 50.5q-3 2 -14.5 13t-26.5 25t-29.5 28.5l-23.5 23.5q-60 9 -106.5 37t-78 73t-48 105t-16.5 132
q0 74 18 140.5t56 117t98.5 80.5t144.5 30q73 0 130.5 -25.5t97.5 -72t60.5 -111t20.5 -142.5zM371 631q-54 0 -90.5 -23t-58.5 -61.5t-31.5 -88t-9.5 -102.5q0 -57 10 -110.5t32.5 -94.5t59.5 -65.5t91 -24.5t90.5 23t59.5 61t33 88.5t10 104.5q0 55 -10 108t-33 94
t-60.5 66t-92.5 25z" />
    <glyph glyph-name="S" unicode="S" horiz-adv-x="598" 
d="M292 705q26 0 69.5 -5.5t93.5 -25.5l17 29h38l3 -214l-42 -5l-41 112q-30 16 -66.5 24.5t-71.5 8.5q-51 0 -81 -21t-30 -62q0 -38 50 -68.5t137 -68.5q40 -17 73.5 -36.5t58.5 -44.5t39 -57.5t14 -75.5q0 -42 -15.5 -80t-48 -67.5t-84 -46.5t-123.5 -17q-15 0 -36.5 1.5
t-44.5 5.5t-46 9.5t-41 14.5l-19 -30h-40l-6 235l43 5l39 -115q35 -27 77 -38t77 -11q77 0 112 30.5t35 75.5q0 27 -12 49t-34.5 40.5t-53.5 34.5t-68 31q-50 21 -87.5 41.5t-63.5 44t-39 52t-13 65.5q0 34 13.5 66.5t42 58t72 40.5t103.5 15z" />
    <glyph glyph-name="T" unicode="T" horiz-adv-x="633" 
d="M316 686q75 0 146 1t145 3l13 -7l3 -196l-45 -6l-46 139h-158v-547l97 -24l-2 -49h-299l-3 44l92 29v547h-158l-46 -139l-45 6l3 196l13 7q72 -2 141 -3t149 -1z" />
    <glyph glyph-name="U" unicode="U" horiz-adv-x="766" 
d="M565 614l-88 27l2 46h265l2 -50l-95 -23l-1 -393q0 -68 -23.5 -113.5t-62 -73t-88 -39.5t-102.5 -12q-50 0 -96 11.5t-81.5 38t-56.5 69t-21 104.5v407l-89 28l2 46h297l2 -50l-94 -23v-362q0 -39 5.5 -73.5t23 -60t50.5 -40t87 -14.5q52 0 83.5 16t49 43t23.5 63t6 75
v353z" />
    <glyph glyph-name="V" unicode="V" horiz-adv-x="717" 
d="M11 688h188q1 -26 7.5 -54t16.5 -55l88 -231l83 -229h4l74 235l84 257l-99 28l2 49h252l1 -50q-43 -20 -68 -60t-48 -101l-177 -481l-89 -13l-259 636l-66 21z" />
    <glyph glyph-name="W" unicode="W" horiz-adv-x="1052" 
d="M539 405l-70 -201l-72 -208l-89 -13l-236 636l-67 21l6 48h186q2 -26 9.5 -55t16.5 -57l67 -206l82 -251h5l73 233l47 148l-44 119l-68 21l6 48h195q2 -26 9.5 -55t17.5 -57l76 -230l70 -215h5l56 214l71 266l-99 28l1 49h253l3 -50q-47 -23 -71 -67t-42 -98l-148 -477
l-91 -13l-81 224l-71 198h-6z" />
    <glyph glyph-name="X" unicode="X" horiz-adv-x="672" 
d="M110 616l-75 23l6 48h37h57h57h37q2 -16 7.5 -33.5t12 -34t14.5 -31t14 -23.5l79 -126l109 181l-75 20l3 49h47.5h75.5h75.5h47.5l1 -51q-29 -9 -51.5 -23.5t-41 -32t-34.5 -37.5t-31 -41l-86 -124l187 -301l79 -27l-3 -52h-276l-3 50l67 20l-125 206l-122 -208l70 -19
l-3 -49h-49h-79h-78.5h-48.5l-2 51q31 8 55.5 20t44 28t36 36.5t33.5 44.5l103 156z" />
    <glyph glyph-name="Y" unicode="Y" horiz-adv-x="637" 
d="M348 369l126 244l-90 24l2 50l244 1l2 -51q-24 -10 -42 -22.5t-33 -28.5t-29.5 -37t-30.5 -49l-113 -195v-231l96 -23l-1 -51h-303l-2 46l91 28v206l-184 335l-76 24l3 49h190q2 -26 9 -50t21 -50l114 -219h6z" />
    <glyph glyph-name="Z" unicode="Z" horiz-adv-x="626" 
d="M565 0q-60 0 -126 0.5t-133.5 0.5t-133.5 -0.5t-127 -0.5l-15 50q5 7 24 33.5t46.5 65.5t60.5 86.5t67.5 96.5t68 96.5t60.5 86t45.5 65t23.5 33.5l-254 -2l-49 -130l-43 7l12 196l9 6q111 -2 234.5 -2t234.5 1l14 -52q-5 -7 -23.5 -33t-46 -64.5t-61 -86t-68 -96.5
t-68 -96.5t-61 -86.5t-46 -65.5t-23.5 -33.5q78 1 155 2t154 3l68 139l39 -9l-28 -202z" />
    <glyph glyph-name="bracketleft" unicode="[" horiz-adv-x="306" 
d="M70 694h196v-44h-97v-774h97v-43h-196v861z" />
    <glyph glyph-name="backslash" unicode="\" horiz-adv-x="333" 
d="M2 721h61l270 -763h-62z" />
    <glyph glyph-name="bracketright" unicode="]" horiz-adv-x="306" 
d="M236 -167h-196v48h97v763h-97v50h196v-861z" />
    <glyph glyph-name="asciicircum" unicode="^" horiz-adv-x="523" 
d="M258 612l-141 -270h-77l186 347h67l189 -347h-77z" />
    <glyph glyph-name="underscore" unicode="_" horiz-adv-x="500" 
d="M0 -142v64h500v-64h-500z" />
    <glyph glyph-name="grave" unicode="`" horiz-adv-x="507" 
d="M331 568l-47 -37l-158 159l78 63z" />
    <glyph glyph-name="b" unicode="b" horiz-adv-x="570" 
d="M72 635l-69 19v42l166 23l9 -7v-285l2 -1l68 63q21 6 45.5 8.5t38.5 2.5q58 0 96 -22t60.5 -57t32 -79t9.5 -89q0 -47 -10 -94t-35 -85.5t-68.5 -62.5t-110.5 -24q-32 0 -72 10t-75 36l-41 -48l-46 12v638zM417 240q0 33 -5 64.5t-18.5 56t-36 39t-56.5 14.5
q-31 0 -65 -12t-57 -26v-288q23 -11 52.5 -15.5t55.5 -4.5q62 0 96 44.5t34 127.5z" />
    <glyph glyph-name="c" unicode="c" horiz-adv-x="480" 
d="M40 237q0 57 17 105t49 83t78 54.5t105 19.5q33 0 62.5 -6t51 -17t34 -27t12.5 -36q0 -23 -15.5 -41t-37.5 -27l-120 90q-33 -5 -56 -22.5t-37.5 -42.5t-20.5 -55.5t-6 -62.5q0 -45 7 -78.5t24.5 -56.5t47 -34.5t74.5 -11.5q11 0 26.5 2t32.5 5t34.5 7t32.5 9l19 -56
q-18 -13 -40.5 -22.5t-46.5 -16t-48 -9.5t-45 -3q-120 0 -177 61.5t-57 188.5z" />
    <glyph glyph-name="d" unicode="d" horiz-adv-x="566" 
d="M490 712v-641l71 -18v-42l-147 -23l-9 5l-15 73l-3 1l-72 -68q-24 -6 -44.5 -9t-40.5 -3q-53 0 -90 18.5t-60 51t-34 77.5t-11 98q0 56 12.5 105t39.5 85.5t69.5 57.5t102.5 21q27 0 60.5 -6t65.5 -21v161l-70 19v42l166 23zM147 244q0 -33 6 -64t19.5 -54.5t36 -37.5
t55.5 -14t64.5 12t56.5 27v288q-23 10 -52 15t-55 5q-37 0 -62 -15.5t-40.5 -40.5t-22 -57t-6.5 -64z" />
    <glyph glyph-name="e" unicode="e" horiz-adv-x="524" 
d="M279 499q66 0 106.5 -20.5t63.5 -53t31 -71.5t9 -76l-9 -11l-325 -17q0 -45 8 -79t26.5 -57t48 -34.5t73.5 -11.5q23 0 60.5 6.5t78.5 23.5l19 -53q-38 -26 -89 -42t-105 -16q-63 0 -108 17t-73 49.5t-41 79t-13 105.5q0 48 11 94.5t38 83.5t73 60t117 23zM362 318
q0 20 -3.5 40.5t-13.5 37t-28 27t-48 10.5q-34 0 -55.5 -13.5t-34 -34t-17.5 -44t-5 -44.5z" />
    <glyph glyph-name="f" unicode="f" horiz-adv-x="379" 
d="M250 657q-24 -13 -34 -37.5t-10 -53.5v-78h133v-56h-133v-366l80 -24l-1 -42h-263l-1 41l78 29l1 362h-75v36l75 27v15q0 39 11.5 77.5t36 69t62.5 49t91 18.5q52 0 82.5 -18t30.5 -47q0 -22 -16 -40.5t-36 -26.5z" />
    <glyph glyph-name="i" unicode="i" horiz-adv-x="342" 
d="M223 498q0 -109 0.5 -216.5t1.5 -216.5l77 -24q0 -11 -0.5 -20.5t-0.5 -20.5h-259q-1 11 -1.5 20.5t-0.5 20.5l78 29v346q-17 5 -34.5 9.5t-34.5 9.5v42l165 25zM97 642q0 29 20.5 49t49.5 20q31 0 51 -20t20 -49t-20 -49.5t-51 -20.5q-32 0 -51 20.5t-19 49.5z" />
    <glyph glyph-name="j" unicode="j" horiz-adv-x="311" 
d="M222 32q0 -101 -49.5 -173.5t-152.5 -104.5l-22 48q42 27 65.5 55t35.5 58t14.5 63t2.5 69v369q-17 5 -34.5 9.5t-34.5 9.5v42l166 25l9 -4v-466zM95 642q0 29 20.5 49t49.5 20q31 0 51 -20t20 -49t-20 -49.5t-51 -20.5q-32 0 -51 20.5t-19 49.5z" />
    <glyph glyph-name="k" unicode="k" horiz-adv-x="556" 
d="M190 66l70 -23l-1 -43h-252l-2 42l79 28v27.5v63.5v88v100v100.5t-0.5 89t-0.5 65.5v31l-68 19v42l166 25l8 -4zM201 249v18l153 159l-57 22l1 40l215 7v-43q-86 -30 -157 -99l-69 -67l262 -256l-8 -30l-91 -24z" />
    <glyph glyph-name="l" unicode="l" horiz-adv-x="342" 
d="M225 66l77 -24q0 -11 -0.5 -21t-0.5 -21h-260l-1 41l78 29v565l-69 18v43l166 25q4 -2 8 -5z" />
    <glyph glyph-name="m" unicode="m" horiz-adv-x="922" 
d="M194 494l22 -73q1 0 1 -0.5t1 -0.5l68 68q24 6 47.5 9t40.5 3q51 0 88.5 -18.5t48.5 -67.5q19 18 37 36.5t37 37.5q24 6 48.5 9t41.5 3q67 0 104.5 -30.5t37.5 -106.5v-298l69 -21l-1 -44h-246l-2 43q18 7 36.5 13t36.5 12q1 62 0 124.5t-1 126.5q0 48 -16.5 70.5
t-61.5 22.5q-19 0 -50.5 -10t-63.5 -30q1 -5 1 -11v-12v-284l73 -22l-2 -43h-249q0 11 -0.5 21.5t-0.5 21.5q18 7 36 13l36 12v251q-1 48 -17 70.5t-61 22.5q-23 0 -54 -10t-62 -30v-139t1 -168q18 -5 36.5 -10.5t36.5 -10.5l-2 -44h-251l-2 42l76 27v346q-17 5 -34.5 9.5
t-34.5 9.5v43l145 21z" />
    <glyph glyph-name="n" unicode="n" horiz-adv-x="635" 
d="M193 494l23 -73q1 0 1 -0.5t1 -0.5l72 68q25 6 52.5 9t50.5 3q67 0 102 -32t35 -105v-298l70 -21l-2 -44h-246l-1 43l72 25v251q0 48 -17 70.5t-63 22.5q-28 0 -60 -10.5t-66 -29.5v-139t1 -168l72 -21l-1 -44h-251l-2 42l76 27v347l-69 18v42q35 6 70.5 11t70.5 11z" />
    <glyph glyph-name="o" unicode="o" horiz-adv-x="562" 
d="M522 246q0 -52 -14 -99t-44 -82.5t-76 -56.5t-110 -21q-66 0 -111.5 19.5t-73.5 53.5t-40.5 80.5t-12.5 99.5q0 54 16 101t47.5 82t77.5 55.5t106 20.5t104 -18.5t73 -52.5t43.5 -80.5t14.5 -101.5zM154 253q0 -36 4.5 -71.5t18 -63.5t38.5 -45.5t66 -17.5q38 0 63 15.5
t39.5 41t20.5 57.5t6 65q0 38 -6 73.5t-20.5 63.5t-39 44.5t-62.5 16.5t-63 -16.5t-39.5 -42.5t-20 -57.5t-5.5 -62.5z" />
    <glyph glyph-name="p" unicode="p" horiz-adv-x="576" 
d="M186 -152l83 -24l-2 -43h-262l-2 42l77 27l1 566l-71 18v42l147 23l9 -5l16 -73l2 -1l72 68q24 6 44.5 9t41.5 3q51 0 87.5 -19t60.5 -52t35 -78t11 -98q0 -56 -12 -104.5t-39 -84.5t-69.5 -57t-103.5 -21q-27 0 -60.5 5t-65.5 21v-164zM424 243q0 33 -6 64t-19.5 54.5
t-35.5 37.5t-55 14q-34 0 -65.5 -12t-56.5 -27v-288q21 -9 51 -14.5t57 -5.5q37 0 62 15.5t40 40.5t21.5 56.5t6.5 64.5z" />
    <glyph glyph-name="q" unicode="q" horiz-adv-x="577" 
d="M498 -153l77 -24l-1 -42h-261l-2 43l80 27q0 8 0.5 38t0.5 65.5v67v41.5h-2l-68 -65q-21 -6 -45.5 -8.5t-38.5 -2.5q-57 0 -95 21.5t-61 56t-32.5 78t-9.5 88.5q0 47 9.5 95t35 86.5t69 63t112.5 24.5q34 0 72 -10.5t74 -35.5l42 48l43 -12zM152 245q0 -33 5.5 -64
t18.5 -55t35.5 -38.5t57.5 -14.5q31 0 64.5 12t56.5 26l1 288q-24 11 -53 15.5t-55 4.5q-62 0 -96.5 -45.5t-34.5 -128.5z" />
    <glyph glyph-name="s" unicode="s" horiz-adv-x="469" 
d="M237 499q35 0 78.5 -7.5t81.5 -27.5q0 -33 -0.5 -65.5t-0.5 -65.5l-38 -4l-37 81q-23 14 -46.5 18.5t-37.5 4.5q-32 0 -52 -14t-20 -42q0 -14 6.5 -24.5t20.5 -19.5t35.5 -18t50.5 -21q36 -15 63.5 -29t47 -32t29.5 -41t10 -56q0 -32 -12.5 -59.5t-38.5 -47.5
t-66.5 -31.5t-95.5 -11.5q-48 0 -93 9.5t-74 26.5l-8 141q8 2 17.5 3.5t17.5 3.5l43 -89q21 -15 48.5 -21.5t47.5 -6.5q44 0 72.5 15.5t28.5 50.5q0 19 -8 32.5t-22.5 23.5t-33.5 18.5t-41 18.5q-29 13 -57 25.5t-50.5 29t-36 39t-13.5 55.5q0 27 10 52t31.5 44t56.5 30.5
t86 11.5z" />
    <glyph glyph-name="t" unicode="t" horiz-adv-x="380" 
d="M198 140q0 -36 15.5 -55t55.5 -19q21 0 42 4t53 11q4 -14 8 -27.5t8 -27.5q-78 -38 -157 -38q-39 0 -64.5 8.5t-40.5 26.5t-21 45.5t-6 66.5v297h-71v37q19 8 38 14.5t39 14.5l36 106l56 17q2 -2 4.5 -3.5t4.5 -3.5v-126h148v-56h-148v-292z" />
    <glyph glyph-name="u" unicode="u" horiz-adv-x="624" 
d="M436 -7l-23 73q-1 0 -2 1q-38 -36 -73 -67q-24 -6 -51.5 -9t-49.5 -3q-66 0 -102.5 30t-36.5 106v292q-17 5 -34 9.5t-34 9.5v42l165 22l9 -4q0 -82 0.5 -163.5t0.5 -164.5q0 -48 18 -71.5t62 -23.5q23 0 58 11t68 31v303l-69 18v43l166 22q3 -1 9 -5v-424q19 -5 38 -9
t39 -9v-43l-150 -20z" />
    <glyph glyph-name="w" unicode="w" horiz-adv-x="810" 
d="M395 334l-103 -337l-63 -12q-4 10 -17 43.5t-29.5 79t-36 96.5t-36 96.5t-29.5 79t-17 44.5l-52 17v45l170 8q1 -26 7 -59t14 -59l75 -233h4q2 7 9 33.5t17 63t21 77t20.5 77t17 63t9.5 33.5h84q3 -8 13 -35t23 -64t28 -79.5t28 -79.5t23 -64.5t13 -34.5h4q2 5 8 27
t14 52.5t17.5 65.5t17.5 65.5t14 52.5t8 27l-62 21v44q9 0 35 1t55 1.5t55 1.5t35 1l5 -44q-35 -27 -56 -64t-38 -89l-100 -299l-63 -12l-137 349h-5z" />
    <glyph glyph-name="y" unicode="y" horiz-adv-x="573" 
d="M315 95q29 83 57.5 164.5t57.5 163.5l-62 21q0 11 0.5 21.5t0.5 21.5l184 6q1 -11 2.5 -22t2.5 -22q-31 -23 -53.5 -61t-42.5 -86q-40 -97 -81 -193l-82 -192q-27 -66 -67.5 -106t-99.5 -40q-38 0 -65 16.5t-27 45.5q0 19 12 37t32 27l88 -50q16 3 28.5 12t21.5 21
t15.5 25t10.5 24l25 65l-36 4q-42 106 -83.5 212t-83.5 213l-52 18v45l169 7q2 -24 8 -54t17 -62q23 -72 49.5 -141.5t49.5 -140.5h4z" />
    <glyph glyph-name="r" unicode="r" horiz-adv-x="432" 
d="M224 425l2 -1q15 14 33.5 29t39.5 27t44.5 20t48.5 8q12 0 21 -8t9 -28q0 -24 -8.5 -50t-24.5 -46l-164 12v-323l78 -23l-1 -42h-260l-2 42l79 28v347l-69 18v42l148 23l9 -5z" />
    <glyph glyph-name="z" unicode="z" horiz-adv-x="490" 
d="M444 -1q-56 0 -104.5 0.5t-96 0.5h-97t-106.5 -1l-15 43l70.5 94t76 101t75.5 100.5t69 93.5l-168 -4l-48 -92l-39 8l10 143l6 5q52 -1 96.5 -1.5t86.5 -0.5t86 0.5t96 1.5l16 -42q-32 -43 -68 -91l-73.5 -98t-75 -101t-72.5 -100l205 4l54 100l37 -7l-16 -152z" />
    <glyph glyph-name="a" unicode="a" horiz-adv-x="529" 
d="M326 64l-68 -64q-23 -6 -44.5 -9.5t-42.5 -3.5q-35 0 -61.5 10.5t-44.5 29t-27 43.5t-9 54q0 10 1.5 24.5t7 29.5t16 29.5t28.5 25.5q12 7 31 15t48 14.5t69.5 11t96.5 6.5v50q0 48 -21 65.5t-70 17.5q-24 0 -65.5 -5t-90.5 -19l-17 58q45 25 97 38.5t106 13.5
q81 0 124.5 -34.5t43.5 -124.5v-263l79 -17v-42q-21 -14 -53 -22t-60 -8q-11 0 -22.5 1.5t-22 9t-18 22.5t-9.5 42zM205 66q27 0 60 12t62 31v120q-64 -4 -101 -15.5t-55.5 -25.5t-23.5 -28.5t-5 -25.5q0 -31 15.5 -49.5t47.5 -18.5z" />
    <glyph glyph-name="x" unicode="x" horiz-adv-x="548" 
d="M380 -8q-11 18 -25 41t-29.5 47t-30.5 47.5t-28 43.5q-19 -26 -40 -55t-34 -49l65 -21l-2 -46h-244l-2 47q31 9 55.5 22t43 27.5t33.5 30t28 29.5l63 72q-32 47 -64.5 94t-66.5 98l-76 23v44l183 8q5 -33 20.5 -63t28.5 -51l38 -61q9 12 19 26t20 27.5t19 26t16 22.5
l-62 21l1 44q30 1 55.5 1.5t50 1.5t49.5 2t54 3l6 -48q-35 -20 -69 -51t-60 -60l-66 -74q31 -49 68.5 -102t69.5 -97l71 -18l-3 -45z" />
    <glyph glyph-name="v" unicode="v" horiz-adv-x="565" 
d="M312 128h5q2 5 10 27.5t19 53.5t23.5 66.5t23.5 66.5t19 53t11 28l-62 20v45q9 0 35.5 1t56.5 2t56.5 2t35.5 1l5 -44q-32 -25 -54 -62.5t-43 -85.5l-131 -304l-63 -13q-5 10 -19.5 44t-33.5 79t-40.5 96.5t-40.5 96.5t-33.5 78.5t-19.5 44.5l-52 18v45l169 7
q2 -24 9.5 -54.5t18.5 -58.5z" />
    <glyph glyph-name="g" unicode="g" horiz-adv-x="599" 
d="M145 166q0 1 0.5 1t0.5 1q-48 22 -68 60t-20 80q0 39 14 74t41.5 60.5t68.5 40.5t94 15q55 0 96.5 -15t70.5 -42q25 25 59.5 46t68.5 21q9 0 18.5 -5.5t9.5 -21.5q0 -12 -4.5 -30t-18.5 -38l-106 -7v-3q11 -17 16 -38t5 -41q0 -34 -11.5 -66.5t-37 -58t-68 -41.5
t-103.5 -16q-23 0 -42.5 2.5t-38.5 6.5q-19 -12 -25.5 -21t-6.5 -17q0 -10 17 -16t39.5 -9.5t45 -5t34.5 -1.5q77 -3 127 -10t79.5 -21.5t41 -36t11.5 -52.5q0 -45 -28 -83t-77 -64.5t-114 -40t-140 -9.5q-48 3 -80.5 11.5t-52 22.5t-28 33t-8.5 43q0 21 9.5 39.5t26 34
t38 28.5t46.5 23v1q-60 8 -81.5 25.5t-21.5 45.5q0 9 3 21t10 20zM276 438q-33 0 -53.5 -11.5t-32 -29t-15.5 -38t-4 -39.5q0 -23 4 -44.5t15 -38t31 -26.5t53 -10t54 10.5t33 27t16.5 36.5t4.5 39q0 23 -3.5 45t-15 39.5t-32.5 28.5t-55 11zM131 -97q0 -15 4 -28.5t17 -24
t37 -16.5t64 -6q34 0 67.5 6t59 18t41.5 30t16 42q0 29 -20 41t-54 15.5t-77.5 3.5t-91.5 6q-37 -22 -50 -45.5t-13 -41.5z" />
    <glyph glyph-name="h" unicode="h" horiz-adv-x="611" 
d="M198 420l73 68q25 6 51 9t48 3q68 0 104.5 -30.5t36.5 -106.5v-298l69 -21v-22t-1 -22h-246q0 11 -0.5 21.5t-0.5 21.5q17 7 35.5 13t36.5 12v251q0 48 -17 70.5t-63 22.5q-28 0 -61 -10.5t-65 -29.5v-307q18 -5 36.5 -10.5t36.5 -10.5q0 -11 -0.5 -22t-0.5 -22h-251
l-2 42l76 27v130t-0.5 150t-0.5 152v136q-17 5 -34.5 9.5t-34.5 9.5v42l165 22l9 -4v-295z" />
    <glyph glyph-name="P" unicode="P" horiz-adv-x="633" 
d="M49 688q16 0 29.5 -0.5t27.5 -0.5t31.5 -0.5t41.5 -0.5q47 0 95 1.5t94 1.5q52 0 95.5 -11.5t74.5 -36t48 -62t17 -88.5q0 -44 -16 -83.5t-48.5 -69.5t-81 -47.5t-112.5 -17.5q-17 0 -45 1.5t-62 8.5v-210l97 -22l-1 -51h-297l-2 45l89 28v545l-82 24zM483 481
q0 74 -46 106t-124 32q-37 0 -75 -8v-260q19 -3 38.5 -4.5t29.5 -1.5q54 0 88.5 12t54 31.5t27 44t7.5 48.5z" />
    <glyph glyph-name="R" unicode="R" horiz-adv-x="688" 
d="M351 292h-15q-16 1 -41 2.5t-57 7.5v-229l96 -22l-2 -51h-295l-2 45l88 28v545l-81 24l6 46q17 0 30.5 -0.5t27.5 -0.5t31.5 -0.5t41.5 -0.5q47 0 95 1.5t94 1.5q50 0 93 -10t74.5 -32.5t49 -58t17.5 -85.5q0 -32 -8.5 -61.5t-27.5 -55t-48 -45.5t-71 -32l223 -281
l-10 -31l-97 -21zM483 494q0 36 -12 60t-34.5 38.5t-54 20.5t-69.5 6q-37 0 -75 -8v-240q19 -4 41 -5t32 -1q54 0 87.5 11.5t52 30.5t25.5 41.5t7 45.5z" />
    <glyph glyph-name="endash" unicode="&#x2013;" horiz-adv-x="500" 
d="M30 218v65h440v-65h-440z" />
    <glyph glyph-name="emdash" unicode="&#x2014;" horiz-adv-x="1000" 
d="M30 218v65h940v-65h-940z" />
    <glyph glyph-name="braceleft" unicode="{" horiz-adv-x="357" 
d="M123 126q0 23 -1.5 41.5t-8 33.5t-19 27.5t-34.5 23.5v37q40 15 51.5 48t11.5 80v146q0 36 10.5 61t28.5 40.5t42 22.5t51 7h62v-44h-35q-18 0 -30 -6.5t-18.5 -18t-9 -26.5t-2.5 -32v-161q0 -51 -16 -83.5t-57 -46.5v-4q45 -17 59 -48.5t14 -83.5v-181q0 -17 2.5 -31.5
t9 -26t18.5 -18t30 -6.5h35v-44h-62q-27 0 -51 7t-42 22t-28.5 40t-10.5 61v163z" />
    <glyph glyph-name="braceright" unicode="}" horiz-adv-x="515" 
d="M320 -37q0 -36 -10.5 -61t-28.5 -40t-42 -22t-51 -7h-62v44h35q18 0 30 6.5t18.5 18t9 26t2.5 31.5v179q0 53 14 84.5t59 48.5v4q-41 14 -57 46.5t-16 83.5v162q0 17 -2.5 32t-9 26.5t-18.5 18t-30 6.5h-35v44h62q27 0 51 -7t42 -22.5t28.5 -40.5t10.5 -61v-146
q0 -23 2 -43t9 -36.5t19.5 -29t32.5 -19.5v-37q-22 -11 -34.5 -23.5t-19 -27.5t-8 -33.5t-1.5 -41.5v-163z" />
    <glyph glyph-name="agrave" unicode="&#xe0;" horiz-adv-x="529" 
d="M326 64l-68 -64q-23 -6 -44.5 -9.5t-42.5 -3.5q-35 0 -61.5 10.5t-44.5 29t-27 43.5t-9 54q0 10 1.5 24.5t7 29.5t16 29.5t28.5 25.5q12 7 31 15t48 14.5t69.5 11t96.5 6.5v50q0 48 -21 65.5t-70 17.5q-24 0 -65.5 -5t-90.5 -19l-17 58q45 25 97 38.5t106 13.5
q81 0 124.5 -34.5t43.5 -124.5v-263l79 -17v-42q-21 -14 -53 -22t-60 -8q-11 0 -22.5 1.5t-22 9t-18 22.5t-9.5 42zM205 66q27 0 60 12t62 31v120q-64 -4 -101 -15.5t-55.5 -25.5t-23.5 -28.5t-5 -25.5q0 -31 15.5 -49.5t47.5 -18.5zM331 568l-47 -37l-158 159l78 63z" />
    <glyph glyph-name="multiply" unicode="&#xd7;" horiz-adv-x="581" 
d="M291 331l133 132l53 -52l-133 -133l131 -132l-52 -53l-132 132l-134 -133l-53 53l134 133l-133 133l53 52z" />
    <glyph glyph-name="bar" unicode="|" horiz-adv-x="282" 
d="M173 -189h-65v895h65v-895z" />
    <glyph glyph-name="logicalnot" unicode="&#xac;" horiz-adv-x="602" 
d="M526 315v-262h-76v189h-375v73h451z" />
    <glyph glyph-name="OE" unicode="&#x152;" horiz-adv-x="893" 
d="M858 199l-24 -189l-11 -10q-36 0 -63 0.5t-53.5 1t-56.5 1t-71 0.5q-67 0 -116 -4.5t-94 -4.5q-155 0 -231.5 90.5t-76.5 251.5q0 74 16.5 139t54 114t98.5 77t149 28q13 0 28.5 -1.5t38.5 -3t56 -2.5t80 -1q34 0 59.5 0.5t49.5 1t49.5 1t60.5 1.5l11 -6l4 -189l-45 -7
l-42 125h-213v-224l232 8v-79l-232 8v-250h51t68.5 0.5t68.5 1t51 0.5l65 131zM376 72h12.5t12.5 1v544q-7 1 -13.5 1.5t-14.5 0.5q-53 0 -89.5 -20t-59.5 -55.5t-33.5 -83.5t-10.5 -104q0 -61 9.5 -113t32.5 -90t60.5 -59.5t93.5 -21.5z" />
    <glyph glyph-name="fraction" unicode="&#x2044;" horiz-adv-x="146" 
d="M-79 -39h-56l355 759h55z" />
    <glyph glyph-name="fraction" unicode="&#x2215;" horiz-adv-x="146" 
d="M-79 -39h-56l355 759h55z" />
    <glyph glyph-name="zero.numerator" unicode="&#xe2d0;" horiz-adv-x="378" 
d="M361 487q0 -37 -7.5 -75.5t-26.5 -70t-52.5 -51.5t-84.5 -20q-52 0 -85.5 20t-53 51t-27.5 69.5t-8 76.5q0 37 8 75t27.5 69t53 50.5t85.5 19.5q51 0 84.5 -19.5t52.5 -50.5t26.5 -69t7.5 -75zM187 643q-26 0 -42 -12.5t-24.5 -33t-11.5 -45.5t-3 -49q0 -30 2 -61
t10.5 -56t25.5 -41t47 -16q25 0 41 12.5t25 32.5t12.5 45.5t3.5 52.5q0 30 -2.5 60.5t-11.5 55t-26 40t-46 15.5z" />
    <glyph glyph-name="one.numerator" unicode="&#xe2d1;" horiz-adv-x="378" 
d="M311 280q-33 1 -61 1.5t-60 0.5h-64.5t-58.5 -2l-1 40l83 19v286l-80 10v39l147 25l17 -18v-345q18 -4 39 -8t39 -7v-41z" />
    <glyph glyph-name="two.numerator" unicode="&#xe2d2;" horiz-adv-x="378" 
d="M339 287q-4 -6 -10 -10q-41 1 -72 1.5t-69 0.5h-44.5h-33.5t-34 -0.5t-46 -0.5l-12 43q14 8 26.5 15.5t23.5 15.5q81 51 125.5 101t44.5 106q0 41 -21.5 59t-58.5 18q-27 0 -57.5 -9t-56.5 -23q-6 11 -12 21t-11 21q36 24 75.5 39t84.5 15q65 0 106.5 -30.5t41.5 -95.5
q0 -33 -14.5 -65.5t-40.5 -63t-61 -57.5t-76 -49l151 5l39 67l30 -6l-18 -118v0z" />
    <glyph glyph-name="three.numerator" unicode="&#xe2d3;" horiz-adv-x="378" 
d="M194 537q33 0 61 -8t48.5 -24.5t32.5 -40t12 -53.5q0 -36 -15.5 -63t-40.5 -44.5t-56.5 -26t-63.5 -8.5q-43 0 -78.5 6.5t-67.5 20.5l18 48q40 -11 67.5 -14t45.5 -3q52 0 79 23t27 62q0 72 -102 72q-9 0 -21 -1t-27 -4l-20 33q32 28 64.5 56t64.5 57l-120 -3l-33 -54
l-31 6q4 28 8 55.5t9 55.5l9 7q47 -2 83.5 -2h78.5h93l17 -49z" />
    <glyph glyph-name="four.numerator" unicode="&#xe2d4;" horiz-adv-x="378" 
d="M293 330q1 0 8.5 -2.5t16.5 -5t17 -4.5t9 -3l-1 -36h-188l-2 35l53 16v61h-186l-19 29l228 270l47 14l16 -7v-252h74v-54h-73v-61zM206 444v160l-119 -160h119z" />
    <glyph glyph-name="five.numerator" unicode="&#xe2d5;" horiz-adv-x="378" 
d="M119 534q18 4 36.5 5t33.5 1q33 0 62.5 -8t51.5 -24t35 -40t13 -55q0 -38 -14.5 -65.5t-38.5 -45t-56 -25.5t-66 -8q-44 0 -80 6.5t-69 20.5l20 49q39 -11 67 -14.5t46 -3.5q52 0 79 22.5t27 63.5q0 8 -2 14.5t-4 11.5q-8 24 -32.5 36.5t-58.5 12.5q-18 0 -37 -2.5
t-38 -8.5l-36 21q11 44 22.5 87.5t23.5 87.5l9 6h92h42t41 1q8 12 14.5 24.5t13.5 24.5l16 -2t16 -3l-16 -107l-8 -7q-44 2 -89.5 3t-87.5 2z" />
    <glyph glyph-name="six.numerator" unicode="&#xe2d6;" horiz-adv-x="378" 
d="M171 547q19 4 39 4q30 0 55.5 -8.5t45 -25t30.5 -41t11 -57.5q0 -27 -9.5 -53.5t-29 -48t-50.5 -35t-73 -13.5q-47 0 -78.5 14.5t-50.5 38t-27 53.5t-8 61q0 57 22.5 101t58.5 77.5t80 57t87 39.5l20 -38q-65 -31 -101.5 -63.5t-54.5 -63.5t-22 -60t-4 -53q0 -52 19 -81
t59 -29t57.5 28t17.5 66q0 26 -7 43t-20 27.5t-31 15t-40 5.5z" />
    <glyph glyph-name="seven.numerator" unicode="&#xe2d7;" horiz-adv-x="378" 
d="M73 281l217 345l-189 -6l-37 -63l-31 9l19 119l13 8q38 -1 70.5 -1h63.5h68t74 1l22 -31l-214 -389l-66 -6z" />
    <glyph glyph-name="eight.numerator" unicode="&#xe2d8;" horiz-adv-x="378" 
d="M134 593q0 -14 7 -25.5t19 -21t27 -18t32 -15.5q26 18 34 39t8 37q0 23 -15.5 40.5t-50.5 17.5q-31 0 -46 -16.5t-15 -37.5zM192 324q34 0 55.5 17.5t21.5 49.5q0 27 -28.5 46t-75.5 39q-29 -20 -39 -43t-10 -43q0 -32 20.5 -49t55.5 -17zM339 592q0 -23 -13 -50.5
t-51 -52.5q33 -18 53 -41t20 -60q0 -52 -43 -85.5t-115 -33.5q-75 0 -116 32t-41 84q0 14 4 30t13.5 31.5t24.5 29.5t38 24q-27 17 -44 38t-17 51q0 24 11 44.5t30.5 35t46 22.5t57.5 8q24 0 49 -5.5t45.5 -18t34 -33t13.5 -50.5z" />
    <glyph glyph-name="nine.numerator" unicode="&#xe2d9;" horiz-adv-x="378" 
d="M207 422q-19 -4 -39 -4q-30 0 -55.5 8t-45 24.5t-30.5 41.5t-11 58q0 27 9.5 53.5t29 48t50.5 35t73 13.5q47 0 78.5 -14.5t50.5 -38t27 -53.5t8 -61q0 -57 -22.5 -101t-58.5 -77.5t-80 -57t-87 -39.5l-21 37q65 31 101.5 64t54.5 64t22.5 60t4.5 53q0 52 -19 81t-59 29
t-57.5 -28t-17.5 -66q0 -26 7 -43t20 -27.5t31 -15t40 -5.5z" />
    <glyph glyph-name="parenleft.numerator" unicode="&#xe2da;" horiz-adv-x="220" 
d="M116 440q0 -78 23 -141t77 -120l-26 -24q-75 50 -116.5 123.5t-41.5 157.5q0 81 40 153.5t119 126.5l26 -26q-57 -58 -79 -121t-22 -129z" />
    <glyph glyph-name="parenright.numerator" unicode="&#xe2db;" horiz-adv-x="220" 
d="M104 440q0 66 -22 129t-79 121l25 26q79 -54 119 -126.5t40 -153.5q0 -84 -41.5 -157.5t-116.5 -123.5l-26 24q55 57 78 120t23 141z" />
    <glyph glyph-name="comma.numerator" unicode="&#xe2dc;" horiz-adv-x="166" 
d="M30 321q0 19 15 33t39 14q26 0 40 -16.5t14 -39.5q0 -34 -25 -69t-67 -54l-20 27q18 15 28 31t13 30q-18 5 -27.5 17t-9.5 27z" />
    <glyph glyph-name="period.numerator" unicode="&#xe2dd;" horiz-adv-x="161" 
d="M133 321q0 -21 -14.5 -35t-38.5 -14q-26 0 -39 14.5t-13 34.5t14.5 34t37.5 14q24 0 38.5 -14t14.5 -34z" />
    <glyph glyph-name="zero.denominator" unicode="&#xe2f4;" horiz-adv-x="378" 
d="M361 208q0 -37 -7.5 -75.5t-26.5 -70t-52.5 -51.5t-84.5 -20q-52 0 -85.5 19.5t-53 51t-27.5 70t-8 76.5q0 37 8 75t27.5 68.5t53 50t85.5 19.5q51 0 84.5 -19.5t52.5 -50t26.5 -68.5t7.5 -75zM187 364q-26 0 -42 -13t-24.5 -33t-11.5 -45t-3 -49q0 -31 2 -62t10.5 -56
t25.5 -41t47 -16q25 0 41 12.5t25 33t12.5 46t3.5 52.5q0 30 -2.5 60.5t-11.5 55t-26 40t-46 15.5z" />
    <glyph glyph-name="one.denominator" unicode="&#xe2f5;" horiz-adv-x="378" 
d="M311 1q-33 1 -61 1.5t-60 0.5q-35 0 -64.5 -0.5t-58.5 -1.5l-1 39l83 19v287l-80 9v40l147 25l17 -19v-344q18 -4 39 -8t39 -7v-41z" />
    <glyph glyph-name="two.denominator" unicode="&#xe2f6;" horiz-adv-x="378" 
d="M329 -2q-41 1 -72 1.5t-69 0.5h-44.5h-33.5t-34 -0.5t-46 -0.5l-12 43q14 8 26.5 15t23.5 15q81 52 125.5 101.5t44.5 106.5q0 41 -21.5 59t-58.5 18q-27 0 -57.5 -9t-56.5 -23l-23 41q36 24 75.5 39t84.5 15q66 0 107 -30t41 -96q0 -33 -14.5 -65.5t-40.5 -62.5t-61 -57
t-76 -49q31 1 72 2t79 3l39 67q7 -2 14.5 -3.5t15.5 -3.5l-18 -118z" />
    <glyph glyph-name="three.denominator" unicode="&#xe2f7;" horiz-adv-x="378" 
d="M194 257q32 0 60 -8t49 -24.5t33 -39.5t12 -53q0 -37 -15.5 -63.5t-40.5 -44t-56.5 -26t-63.5 -8.5q-43 0 -78.5 7t-67.5 19l18 49q40 -11 67.5 -14.5t45.5 -3.5q52 0 79 23.5t27 61.5q0 73 -102 73q-9 0 -21 -1t-27 -4l-20 32l129 114q-24 -1 -55.5 -1.5t-64.5 -2.5
l-33 -53q-8 2 -15.5 3t-15.5 3q4 27 8 55t9 56q6 4 9 7q47 -2 83.5 -2h78.5h93l17 -49z" />
    <glyph glyph-name="four.denominator" unicode="&#xe2f8;" horiz-adv-x="378" 
d="M293 51l51 -15l-1 -37h-188l-2 36l53 16v61h-186l-19 29l228 270l47 14l16 -7v-252h74v-54h-73v-61zM206 165v160l-119 -160h119z" />
    <glyph glyph-name="five.denominator" unicode="&#xe2f9;" horiz-adv-x="378" 
d="M119 255q18 4 36.5 5t33.5 1q33 0 62.5 -8t51.5 -24t35 -40t13 -55q0 -38 -14.5 -65.5t-38.5 -45t-56 -25.5t-66 -8q-44 0 -80 7t-69 20l20 49q39 -11 67 -14.5t46 -3.5q52 0 79 22.5t27 63.5q0 37 -28 56t-69 19q-38 0 -75 -12q-9 5 -18 10.5t-18 10.5q11 45 22.5 88
t23.5 88l9 6h175l28 50q8 -2 16 -3l16 -2l-16 -107l-8 -7l-177 5z" />
    <glyph glyph-name="six.denominator" unicode="&#xe2fa;" horiz-adv-x="378" 
d="M171 268q19 4 39 4q30 0 55.5 -8.5t45 -25t30.5 -41.5t11 -58q0 -26 -9.5 -52.5t-29 -48t-50.5 -35t-73 -13.5q-47 0 -78.5 14.5t-50.5 38t-27 53.5t-8 61q0 56 22.5 100t58.5 78t80 57.5t87 39.5l20 -38q-65 -31 -101.5 -63.5t-54.5 -64t-22 -60.5t-4 -53
q0 -51 19 -80.5t59 -29.5q20 0 34 8t23 21t13.5 30t4.5 36q0 26 -7 43t-20 27.5t-31 15t-40 5.5z" />
    <glyph glyph-name="seven.denominator" unicode="&#xe2fb;" horiz-adv-x="378" 
d="M73 2l217 345l-189 -6l-37 -63l-31 9l19 119l13 8q38 -1 70.5 -1h63.5h68t74 1l22 -32l-214 -388l-66 -6z" />
    <glyph glyph-name="eight.denominator" unicode="&#xe2fc;" horiz-adv-x="378" 
d="M134 315q0 -14 7 -25.5t19 -21t27.5 -17.5t32.5 -15q25 18 33.5 39t8.5 37q0 23 -16 40t-51 17q-31 0 -46 -16.5t-15 -37.5zM193 47q34 0 55 17.5t21 49.5q0 27 -28.5 46t-74.5 39q-29 -20 -39.5 -43t-10.5 -43q0 -33 21 -49.5t56 -16.5zM340 314q0 -22 -13 -50t-51 -52
q33 -18 53 -41.5t20 -60.5q0 -51 -43 -84.5t-115 -33.5q-76 0 -116.5 31.5t-40.5 83.5q0 14 4 30t13 32t24.5 30t38.5 24q-28 17 -44.5 38t-16.5 50q0 25 11 45.5t30.5 35t45.5 22.5t57 8q24 0 49 -5.5t46 -18t34.5 -33.5t13.5 -51z" />
    <glyph glyph-name="nine.denominator" unicode="&#xe2fd;" horiz-adv-x="378" 
d="M207 142q-11 -2 -20.5 -2.5t-18.5 -0.5q-30 0 -55.5 8t-45 24.5t-30.5 41.5t-11 58q0 27 9.5 53.5t29 47.5t50.5 34.5t73 13.5q47 0 78.5 -14.5t50.5 -38t27 -53.5t8 -61q0 -56 -22.5 -100t-58.5 -78t-80 -57.5t-87 -39.5l-21 38q65 31 101.5 64t54.5 64t22.5 60t4.5 53
q0 52 -19 81t-59 29q-20 0 -34 -8t-23 -21t-13.5 -30t-4.5 -36q0 -26 7 -43t20 -27t31 -15t40 -6z" />
    <glyph glyph-name="parenleft.denominator" unicode="&#xe2fe;" horiz-adv-x="220" 
d="M116 160q0 -77 23 -140t77 -120l-26 -24q-75 49 -116.5 123t-41.5 157q0 81 40 154t119 126l26 -25q-57 -58 -79 -121.5t-22 -129.5z" />
    <glyph glyph-name="parenright.denominator" unicode="&#xe2ff;" horiz-adv-x="220" 
d="M104 160q0 66 -22 129.5t-79 121.5l25 25q79 -53 119 -126t40 -154q0 -83 -41.5 -157t-116.5 -123l-26 24q55 57 78 120t23 140z" />
    <glyph glyph-name="comma.denominator" unicode="&#xe300;" horiz-adv-x="166" 
d="M30 41q0 20 15 34t39 14q26 0 40 -16.5t14 -39.5q0 -34 -25 -69t-67 -54l-20 26q18 15 28 31.5t13 30.5q-18 5 -27.5 17t-9.5 26z" />
    <glyph glyph-name="period.denominator" unicode="&#xe301;" horiz-adv-x="161" 
d="M133 41q0 -20 -14.5 -34t-38.5 -14q-26 0 -39 14t-13 34t14.5 34.5t37.5 14.5q24 0 38.5 -14.5t14.5 -34.5z" />
    <glyph glyph-name="percent" unicode="%" horiz-adv-x="880" 
d="M389 487q0 -37 -7.5 -75.5t-26.5 -70t-52.5 -51.5t-84.5 -20q-52 0 -85.5 20t-53 51t-27.5 69.5t-8 76.5q0 37 8 75t27.5 69t53 50.5t85.5 19.5q51 0 84.5 -19.5t52.5 -50.5t26.5 -69t7.5 -75zM215 643q-26 0 -42 -12.5t-24.5 -33t-11.5 -45.5t-3 -49q0 -30 2 -61
t10.5 -56t25.5 -41t47 -16q25 0 41 12.5t25 32.5t12.5 45.5t3.5 52.5q0 30 -2.5 60.5t-11.5 55t-26 40t-46 15.5zM289 -39h-56l355 759h55zM835 208q0 -37 -7.5 -75.5t-26.5 -70t-52.5 -51.5t-84.5 -20q-52 0 -85.5 19.5t-53 51t-27.5 70t-8 76.5q0 37 8 75t27.5 68.5t53 50
t85.5 19.5q51 0 84.5 -19.5t52.5 -50t26.5 -68.5t7.5 -75zM661 364q-26 0 -42 -13t-24.5 -33t-11.5 -45t-3 -49q0 -31 2 -62t10.5 -56t25.5 -41t47 -16q25 0 41 12.5t25 33t12.5 46t3.5 52.5q0 30 -2.5 60.5t-11.5 55t-26 40t-46 15.5z" />
    <glyph glyph-name="perthousand" unicode="&#x2030;" horiz-adv-x="1262" 
d="M389 487q0 -37 -7.5 -75.5t-26.5 -70t-52.5 -51.5t-84.5 -20q-52 0 -85.5 20t-53 51t-27.5 69.5t-8 76.5q0 37 8 75t27.5 69t53 50.5t85.5 19.5q51 0 84.5 -19.5t52.5 -50.5t26.5 -69t7.5 -75zM215 643q-26 0 -42 -12.5t-24.5 -33t-11.5 -45.5t-3 -49q0 -30 2 -61
t10.5 -56t25.5 -41t47 -16q25 0 41 12.5t25 32.5t12.5 45.5t3.5 52.5q0 30 -2.5 60.5t-11.5 55t-26 40t-46 15.5zM290 -39h-56l355 759h55zM836 208q0 -37 -7.5 -75.5t-26.5 -70t-52.5 -51.5t-84.5 -20q-52 0 -85.5 19.5t-53 51t-27.5 70t-8 76.5q0 37 8 75t27.5 68.5t53 50
t85.5 19.5q51 0 84.5 -19.5t52.5 -50t26.5 -68.5t7.5 -75zM662 364q-26 0 -42 -13t-24.5 -33t-11.5 -45t-3 -49q0 -31 2 -62t10.5 -56t25.5 -41t47 -16q25 0 41 12.5t25 33t12.5 46t3.5 52.5q0 30 -2.5 60.5t-11.5 55t-26 40t-46 15.5zM1217 208q0 -37 -7.5 -75.5t-26.5 -70
t-52.5 -51.5t-84.5 -20q-52 0 -85.5 19.5t-53 51t-27.5 70t-8 76.5q0 37 8 75t27.5 68.5t53 50t85.5 19.5q51 0 84.5 -19.5t52.5 -50t26.5 -68.5t7.5 -75zM1043 364q-26 0 -42 -13t-24.5 -33t-11.5 -45t-3 -49q0 -31 2 -62t10.5 -56t25.5 -41t47 -16q25 0 41 12.5t25 33
t12.5 46t3.5 52.5q0 30 -2.5 60.5t-11.5 55t-26 40t-46 15.5z" />
    <glyph glyph-name="twosuperior" unicode="&#xb2;" horiz-adv-x="378" 
d="M339 376q-4 -6 -10 -10q-41 1 -72 1.5t-69 0.5h-44.5h-33.5t-34 -0.5t-46 -0.5l-12 43q14 8 26.5 15.5t23.5 15.5q81 51 125.5 101t44.5 106q0 41 -21.5 59t-58.5 18q-27 0 -57.5 -9t-56.5 -23q-6 11 -12 21t-11 21q36 24 75.5 39t84.5 15q65 0 106.5 -30.5t41.5 -95.5
q0 -33 -14.5 -65.5t-40.5 -63t-61 -57.5t-76 -49l151 5l39 67l30 -6l-18 -118v0z" />
    <glyph glyph-name="threesuperior" unicode="&#xb3;" horiz-adv-x="378" 
d="M194 626q33 0 61 -8t48.5 -24.5t32.5 -40t12 -53.5q0 -36 -15.5 -63t-40.5 -44.5t-56.5 -26t-63.5 -8.5q-43 0 -78.5 6.5t-67.5 20.5l18 48q40 -11 67.5 -14t45.5 -3q52 0 79 23t27 62q0 72 -102 72q-9 0 -21 -1t-27 -4l-20 33q32 28 64.5 56t64.5 57l-120 -3l-33 -54
l-31 6q4 28 8 55.5t9 55.5l9 7q47 -2 83.5 -2h78.5h93l17 -49z" />
    <glyph glyph-name="onesuperior" unicode="&#xb9;" horiz-adv-x="378" 
d="M311 369q-33 1 -61 1.5t-60 0.5h-64.5t-58.5 -2l-1 40l83 19v286l-80 10v39l147 25l17 -18v-345q18 -4 39 -8t39 -7v-41z" />
    <glyph glyph-name="onequarter" unicode="&#xbc;" horiz-adv-x="880" 
d="M724 51l51 -15l-1 -37h-188l-2 36l53 16v61h-186l-19 29l228 270l47 14l16 -7v-252h74v-54h-73v-61zM328 280q-33 1 -61 1.5t-60 0.5h-64.5t-58.5 -2l-1 40l83 19v286l-80 10v39l147 25l17 -18v-345q18 -4 39 -8t39 -7v-41zM285 -39h-56l355 759h55zM637 165v160
l-119 -160h119z" />
    <glyph glyph-name="onehalf" unicode="&#xbd;" horiz-adv-x="880" 
d="M790 -2q-41 1 -72 1.5t-69 0.5h-44.5h-33.5t-34 -0.5t-46 -0.5l-12 43q14 8 26.5 15t23.5 15q81 52 125.5 101.5t44.5 106.5q0 41 -21.5 59t-58.5 18q-27 0 -57.5 -9t-56.5 -23l-23 41q36 24 75.5 39t84.5 15q66 0 107 -30t41 -96q0 -33 -14.5 -65.5t-40.5 -62.5t-61 -57
t-76 -49q31 1 72 2t79 3l39 67q7 -2 14.5 -3.5t15.5 -3.5l-18 -118zM306 280q-33 1 -61 1.5t-60 0.5h-64.5t-58.5 -2l-1 40l83 19v286l-80 10v39l147 25l17 -18v-345q18 -4 39 -8t39 -7v-41zM256 -39h-56l355 759h55z" />
    <glyph glyph-name="threequarters" unicode="&#xbe;" horiz-adv-x="880" 
d="M752 51l51 -15l-1 -37h-188l-2 36l53 16v61h-186l-19 29l228 270l47 14l16 -7v-252h74v-54h-73v-61zM222 537q33 0 61 -8t48.5 -24.5t32.5 -40t12 -53.5q0 -36 -15.5 -63t-40.5 -44.5t-56.5 -26t-63.5 -8.5q-43 0 -78.5 6.5t-67.5 20.5l18 48q40 -11 67.5 -14t45.5 -3
q52 0 79 23t27 62q0 72 -102 72q-9 0 -21 -1t-27 -4l-20 33q32 28 64.5 56t64.5 57l-120 -3l-33 -54l-31 6q4 28 8 55.5t9 55.5l9 7q47 -2 83.5 -2h78.5h93l17 -49zM302 -39h-56l355 759h55zM665 165v160l-119 -160h119z" />
    <glyph glyph-name="quotesinglbase" unicode="&#x201a;" horiz-adv-x="255" 
d="M58 57q0 28 20 48t51 20q35 0 53.5 -24t18.5 -58q0 -26 -9.5 -53.5t-26.5 -53t-41 -47t-52 -36.5l-23 29q27 27 41.5 53t17.5 59q-23 5 -36.5 22.5t-13.5 40.5z" />
    <glyph glyph-name="quotedblbase" unicode="&#x201e;" horiz-adv-x="428" 
d="M58 57q0 28 20 48t51 20q35 0 53.5 -24t18.5 -58q0 -26 -9.5 -53.5t-26.5 -53t-41 -47t-52 -36.5l-23 29q27 27 41.5 53t17.5 59q-23 5 -36.5 22.5t-13.5 40.5zM231 57q0 28 20 48t50 20q35 0 54 -24t19 -58q0 -26 -9.5 -53.5t-27 -53t-41.5 -47t-52 -36.5l-23 29
q27 27 42 53t18 59q-23 5 -36.5 22.5t-13.5 40.5z" />
    <glyph glyph-name="ellipsis" unicode="&#x2026;" horiz-adv-x="707" 
d="M193 57q0 -29 -19.5 -49t-50.5 -20q-32 0 -50.5 20t-18.5 49t20 49t49 20q31 0 50.5 -20t19.5 -49zM653 57q0 -29 -19.5 -49t-50.5 -20q-32 0 -50.5 20t-18.5 49t20 49t49 20q31 0 50.5 -20t19.5 -49zM422 57q0 -29 -19.5 -49t-50.5 -20q-32 0 -50.5 20t-18.5 49t20 49
t49 20q31 0 50.5 -20t19.5 -49z" />
    <glyph glyph-name="periodcentered" unicode="&#xb7;" horiz-adv-x="247" 
d="M193 242q0 -29 -19.5 -49.5t-50.5 -20.5q-32 0 -50.5 20.5t-18.5 49.5t20 48.5t49 19.5q31 0 50.5 -19.5t19.5 -48.5z" />
    <glyph glyph-name="exclamdown" unicode="&#xa1;" horiz-adv-x="300" 
d="M173 300l42 -442q1 -13 -1 -26t-9.5 -24t-21 -18t-34.5 -7q-20 0 -33 7t-20.5 17.5t-10 23t-1.5 23.5l45 446h44zM220 435q0 -29 -20 -49t-50 -20q-29 0 -49.5 20t-20.5 49t18.5 49t51.5 20q30 0 50 -20t20 -49z" />
    <glyph glyph-name="questiondown" unicode="&#xbf;" horiz-adv-x="465" 
d="M231 301q54 -20 86.5 -59t32.5 -83q0 -23 -14 -44.5t-34.5 -42t-45 -40t-45 -39.5t-34.5 -40t-14 -41q0 -28 20 -50t72 -30l118 96q23 -8 40 -26t17 -48q0 -20 -14.5 -34.5t-39.5 -24.5t-57 -14.5t-66 -4.5q-111 0 -160 35.5t-49 95.5q0 31 15 57t38 48t49.5 42.5
t49.5 41t38 42.5t15 48q0 17 -13.5 40t-30.5 37zM188 432q0 29 19.5 49.5t50.5 20.5q32 0 50.5 -20.5t18.5 -49.5t-20 -48.5t-49 -19.5q-31 0 -50.5 19.5t-19.5 48.5z" />
    <glyph glyph-name="oe" unicode="&#x153;" horiz-adv-x="897" 
d="M652 499q65 0 106 -20.5t63.5 -53t31 -71.5t9.5 -76l-9 -11l-325 -17q1 -93 36 -137.5t121 -44.5q22 0 60 6.5t78 23.5l19 -53q-38 -26 -89.5 -42t-104.5 -16q-66 0 -113 22.5t-73 63.5q-28 -38 -73.5 -62t-110.5 -24q-66 0 -111.5 19.5t-73.5 53.5t-40.5 80.5
t-12.5 99.5q0 54 16 101t47.5 82t77.5 55.5t106 20.5q61 0 106 -25t75 -65q27 38 72 64t112 26zM154 253q0 -30 4.5 -64.5t18 -64t38.5 -49.5t66 -20q38 0 63 15.5t39.5 41t20.5 57.5t6 65q0 34 -6 69t-20.5 63.5t-39 47t-62.5 18.5t-63 -17.5t-39.5 -44t-20 -58t-5.5 -59.5
zM735 318q0 20 -4 40.5t-14 37t-28 27t-47 10.5q-34 0 -55.5 -13.5t-34.5 -34t-18 -44t-5 -44.5z" />
    <glyph glyph-name="bullet" unicode="&#x2022;" horiz-adv-x="438" 
d="M338 265q0 -25 -9.5 -46.5t-25.5 -37.5t-37.5 -25.5t-46.5 -9.5t-46.5 9.5t-37.5 25.5t-25.5 37.5t-9.5 46.5t9.5 46.5t25.5 37.5t37.5 25.5t46.5 9.5t46.5 -9.5t37.5 -25.5t25.5 -37.5t9.5 -46.5z" />
    <glyph glyph-name="brokenbar" unicode="&#xa6;" horiz-adv-x="283" 
d="M178 225v-414h-65v414h65zM113 320v386h65v-386h-65z" />
    <glyph glyph-name="Euro" unicode="&#x20ac;" horiz-adv-x="581" 
d="M433 307v-54h-247q3 -37 14.5 -71t34.5 -60t58.5 -41.5t85.5 -15.5q11 0 29.5 1.5t41.5 4.5t49 8.5t51 13.5l18 -61q-25 -13 -53.5 -22t-57 -15t-54.5 -8.5t-44 -2.5q-129 0 -202 66t-86 203h-51v54h413zM21 364v55h53q7 52 27 101t55 86.5t86 60t119 22.5q20 0 44 -2
t50.5 -9.5t53.5 -21.5t53 -38l-15 -127h-46l-19 94q-26 16 -52.5 23t-64.5 7q-42 0 -74 -16.5t-54.5 -44t-35 -63t-15.5 -72.5h246v-55h-411z" />
    <glyph glyph-name="guilsinglleft" unicode="&#x2039;" horiz-adv-x="318" 
d="M149 217l109 -178l-32 -23l-166 177v49l165 177l33 -21z" />
    <glyph glyph-name="tilde" unicode="&#x2dc;" horiz-adv-x="507" 
d="M430 680q-3 -22 -11 -42.5t-21 -36t-31.5 -24.5t-43.5 -9q-24 0 -43.5 6.5t-36 14t-32 14t-33.5 6.5q-20 0 -36.5 -8.5t-29.5 -37.5l-38 8q2 13 7.5 33t17.5 38.5t32 31.5t50 13q19 0 38.5 -7t38.5 -15.5t37 -15.5t33 -7q22 0 36.5 8.5t28.5 35.5z" />
    <glyph glyph-name="plusminus" unicode="&#xb1;" horiz-adv-x="581" 
d="M63 1v73h452v-73h-452zM327 345h187v-74h-187v-165h-76v165h-188v74h188v178h76v-178z" />
    <glyph glyph-name="guilsinglright" unicode="&#x203a;" horiz-adv-x="318" 
d="M61 398l33 21l165 -177v-49l-166 -177l-32 23l108 178z" />
    <glyph glyph-name="guillemotleft" unicode="&#xab;" horiz-adv-x="474" 
d="M150 217l108 -178l-32 -23l-165 177v49l165 177l32 -21zM309 217l109 -178l-33 -23l-165 177v49l165 177l33 -21z" />
    <glyph glyph-name="guillemotright" unicode="&#xbb;" horiz-adv-x="474" 
d="M220 398l32 21l165 -177v-49l-165 -177l-32 23l108 178zM60 398l33 21l165 -177v-49l-165 -177l-33 23l109 178z" />
    <glyph glyph-name="asciitilde" unicode="~" horiz-adv-x="581" 
d="M531 303q-6 -23 -15.5 -44.5t-25 -39t-38.5 -28t-56 -10.5q-32 0 -60 8t-53.5 17t-49.5 17t-47 8q-26 0 -52 -11t-43 -44l-42 11q2 15 9.5 37t24 42.5t42.5 35.5t66 15q24 0 52.5 -8t57.5 -17.5t55.5 -17.5t46.5 -8q26 0 47.5 9.5t40.5 40.5z" />
    <glyph glyph-name="quoteleft" unicode="&#x2018;" horiz-adv-x="290" 
d="M210 534q0 -26 -19.5 -45t-49.5 -19q-34 0 -52.5 22.5t-18.5 54.5q0 25 9.5 50.5t26 49.5t40 45t52.5 35l22 -28q-27 -26 -41.5 -49.5t-17.5 -55.5q23 -5 36 -21t13 -39z" />
    <glyph glyph-name="quoteright" unicode="&#x2019;" horiz-adv-x="290" 
d="M80 663q0 26 19.5 45t49.5 19q34 0 52.5 -23t18.5 -55q0 -24 -9.5 -50t-26 -50t-40 -44.5t-51.5 -34.5l-22 28q26 25 40.5 49t17.5 56q-23 5 -36 21t-13 39z" />
    <glyph glyph-name="quotedblleft" unicode="&#x201c;" horiz-adv-x="455" 
d="M212 534q0 -26 -19.5 -45t-49.5 -19q-34 0 -52.5 22.5t-18.5 54.5q0 25 9.5 50.5t26 49.5t40 45t51.5 35l23 -28q-27 -26 -41.5 -49.5t-17.5 -55.5q23 -5 36 -21t13 -39zM374 534q0 -26 -20 -45t-49 -19q-34 0 -53 22.5t-19 54.5q0 25 9.5 50.5t26.5 49.5t40.5 45
t51.5 35l22 -28q-26 -26 -40.5 -49.5t-17.5 -55.5q23 -5 36 -21t13 -39z" />
    <glyph glyph-name="quotedblright" unicode="&#x201d;" horiz-adv-x="455" 
d="M244 663q0 26 19.5 45t49.5 19q34 0 52.5 -23t18.5 -55q0 -24 -9.5 -50t-26 -50t-40 -44.5t-51.5 -34.5l-23 28q27 25 41.5 49t17.5 56q-23 5 -36 21t-13 39zM82 663q0 26 19.5 45t49.5 19q34 0 53 -23t19 -55q0 -24 -9.5 -50t-26.5 -50t-40.5 -44.5t-51.5 -34.5l-22 28
q26 25 40.5 49t17.5 56q-23 5 -36 21t-13 39z" />
    <glyph glyph-name="currency" unicode="&#xa4;" horiz-adv-x="581" 
d="M174 303q0 -24 9.5 -45.5t25 -37t37 -25t45.5 -9.5t45.5 9.5t37.5 25t25 37t9 45.5t-9 45t-25 36.5t-37.5 24.5t-45.5 9t-45.5 -9t-37 -24.5t-25 -36.5t-9.5 -45zM78 466l47 47l59 -59q26 16 52.5 24.5t54.5 8.5q60 0 106 -30l10.5 10.5t18.5 18t18.5 17.5t10.5 10
l47 -46l-58 -57q16 -26 25 -53t9 -54q0 -29 -8.5 -55t-25.5 -52q2 -2 11 -10.5t18.5 -18.5t18 -19t10.5 -11l-46 -46l-60 60q-51 -34 -105 -34q-29 0 -55.5 9t-52.5 25l-60 -61l-45 45l60 60q-34 50 -34 108q0 54 34 103z" />
    <glyph glyph-name="dagger" unicode="&#x2020;" horiz-adv-x="464" 
d="M34 533h162v179h73l-1 -179h161v-70h-161l-1 -534h-73l2 534h-162v70z" />
    <glyph glyph-name="daggerdbl" unicode="&#x2021;" horiz-adv-x="464" 
d="M194 178l1 285h-162v70h162v179h74l-1 -179h160v-70h-160l-1 -285h162v-70h-162v-179h-74l1 179h-160v70h160z" />
    <glyph glyph-name="space" unicode=" " horiz-adv-x="301" 
 />
    <glyph glyph-name="sfthyphen" unicode="&#xad;" horiz-adv-x="364" 
d="M317 294v-77h-269v77h269z" />
    <glyph glyph-name="florin" unicode="&#x192;" horiz-adv-x="581" 
d="M355 317q-20 -129 -43 -220t-54 -149t-71.5 -85t-95.5 -27q-23 0 -44 6t-36 16.5t-23.5 24.5t-5.5 31q3 20 18 35t32 22l96 -83q17 14 30 35.5t26 67t27 123t33 203.5h-107v45h115q13 79 32 139.5t47 101.5t66.5 62t91.5 21q22 0 43 -6t36.5 -17t24 -25.5t5.5 -30.5
q-3 -20 -17.5 -35.5t-33.5 -22.5l-98 83q-21 -11 -35 -39.5t-24 -66.5t-16 -81t-12 -83h135v-45h-142z" />
    <glyph glyph-name="circumflex" unicode="&#x2c6;" horiz-adv-x="518" 
d="M259 647l-169 -108l-28 33l169 162h58l170 -161l-29 -34z" />
    <glyph glyph-name="trademark" unicode="&#x2122;" horiz-adv-x="863" 
d="M589 461q23 56 47 115t48 114q15 -1 29 -1h31l49 1l2 -29q-11 -3 -23 -5.5t-24 -6.5l19 -256l45 -11v-29h-155l-1 27l42 13q-4 54 -6 103.5t-6 103.5l-2 1q-23 -57 -46.5 -118.5t-46.5 -115.5h-34l-97 229h-2l-9 -204l47 -10l-1 -29h-142v28l48 13q5 62 10 127t10 128
q-22 7 -47 14l4 27q16 0 29 -0.5t24 -0.5h32.5t29.5 1q3 -19 8 -31l85 -197zM233 390l47 -11l-1 -29h-154l-1 27l44 14v252h-72l-21 -66l-25 3v52.5t1 52.5q2 2 3.5 2.5t3.5 1.5q34 -2 69.5 -2h73.5h72t71 2l6 -4l2 -105l-26 -3l-22 66h-71v-253z" />
    <glyph glyph-name="dieresis" unicode="&#xa8;" horiz-adv-x="518" 
d="M96 617q0 24 17 41t42 17q24 0 41 -17t17 -41t-17 -41t-41 -17q-25 0 -42 17t-17 41zM299 617q0 24 17 41t41 17q25 0 42 -17t17 -41t-17 -41t-42 -17q-24 0 -41 17t-17 41z" />
    <glyph glyph-name="macron" unicode="&#xaf;" horiz-adv-x="523" 
d="M435 662v-77h-334v77h334z" />
    <glyph glyph-name="degree" unicode="&#xb0;" horiz-adv-x="418" 
d="M357 573q0 -29 -11.5 -55t-31.5 -45.5t-47.5 -30.5t-58.5 -11t-58 11t-47 30.5t-31.5 45.5t-11.5 55t11.5 54.5t31 45t46.5 30.5t59 11q34 0 61.5 -11t47 -30.5t30 -45t10.5 -54.5zM298 573q0 36 -23 61.5t-67 25.5q-43 0 -66 -25t-23 -62t23.5 -63t65.5 -26q44 0 67 26
t23 63z" />
    <glyph glyph-name="cedilla" unicode="&#xb8;" horiz-adv-x="511" 
d="M270 -67q50 -4 82.5 -22.5t32.5 -60.5q0 -25 -15 -45.5t-41 -34.5t-61 -22t-75 -8h-10t-10 1v39q21 2 43.5 6t41 10.5t30.5 17t12 24.5t-9.5 23t-23 14t-29.5 7t-28 3l-13 20l101 130l35 -21z" />
    <glyph glyph-name="Ccedilla" unicode="&#xc7;" horiz-adv-x="625" 
d="M60 333q0 67 16 133.5t52.5 119.5t95 86t143.5 33q38 0 77.5 -7t86.5 -33l22 39h41l3 -208l-44 -5l-38 98q-29 20 -62.5 28t-75.5 8q-54 0 -91.5 -22.5t-61 -61t-33.5 -90t-10 -109.5q0 -53 8 -102t31 -87t65 -60.5t110 -22.5q41 0 89.5 5.5t100.5 22.5l19 -65
q-51 -26 -114 -37.5t-116 -11.5l-39 -51q50 -4 82.5 -22.5t32.5 -60.5q0 -25 -15 -45.5t-41 -34.5t-61 -22t-75 -8h-10t-10 1v39q21 2 43.5 6t41 10.5t30.5 17t12 24.5t-9.5 23t-23 14t-29.5 7t-28 3l-13 20l63 82q-131 13 -198 99t-67 247z" />
    <glyph glyph-name="Ntilde" unicode="&#xd1;" horiz-adv-x="831" 
d="M625 193q0 40 -1 96t-2 115.5t-2 115.5t-2 96l-96 25l2 46h276l2 -50l-101 -23q-1 -34 -2 -83t-1.5 -106t-1.5 -117.5t-2 -117.5t-2 -106.5t-1 -83.5l-60 -14l-264 351l-154 209l-3 -1l5 -473l102 -21l-2 -51h-285l-2 47l103 28l11 538l-102 29l7 47q73 -2 131 -1.5
t87 1.5q17 -35 37 -61l203 -275l117 -160h3zM599 856q-3 -22 -11 -42.5t-21 -36t-31.5 -24.5t-43.5 -9q-24 0 -43.5 6.5t-36 14t-32 14t-33.5 6.5q-20 0 -36.5 -8.5t-29.5 -37.5l-38 8q2 13 7.5 33t17.5 38.5t32 31.5t50 13q19 0 38.5 -7t38.5 -15.5t37 -15.5t33 -7
q22 0 36.5 8.5t28.5 35.5z" />
    <glyph glyph-name="ccedilla" unicode="&#xe7;" horiz-adv-x="480" 
d="M40 237q0 57 17 105t49 83t78 54.5t105 19.5q33 0 62.5 -6t51 -17t34 -27t12.5 -36q0 -23 -15.5 -41t-37.5 -27l-120 90q-33 -5 -56 -22.5t-37.5 -42.5t-20.5 -55.5t-6 -62.5q0 -45 7 -78.5t24.5 -56.5t47 -34.5t74.5 -11.5q11 0 26.5 2t32.5 5t34.5 7t32.5 9l19 -56
q-18 -12 -39.5 -21.5t-44.5 -16t-46 -10t-44 -3.5l-42 -54q50 -4 82.5 -22.5t32.5 -60.5q0 -25 -15 -45.5t-41 -34.5t-61 -22t-75 -8h-10t-10 1v39q21 2 43.5 6t41 10.5t30.5 17t12 24.5t-9.5 23t-23 14t-29.5 7t-28 3l-13 20l65 85q-97 11 -143.5 71.5t-46.5 175.5z" />
    <glyph glyph-name="ae" unicode="&#xe6;" horiz-adv-x="814" 
d="M769 267l-325 -20q0 -44 8.5 -77.5t26.5 -56.5t48 -34.5t74 -11.5q22 0 60 6.5t78 23.5l18 -52q-38 -27 -89 -42.5t-104 -15.5q-71 0 -119 23t-77 67q-25 -20 -49 -39t-50 -38q-23 -6 -48.5 -9.5t-46.5 -3.5q-70 0 -107.5 38t-37.5 97q0 21 9.5 50.5t42.5 55.5
q22 17 80.5 33t166.5 23v42q0 48 -22.5 66t-70.5 18q-23 0 -65 -5.5t-90 -19.5l-18 62q45 25 97 38.5t106 13.5q50 0 85 -13t55 -46q28 26 68 41.5t94 15.5q66 0 107 -20t64 -51.5t31 -70.5t9 -78zM204 66q13 0 31.5 2.5t39 8.5t40 15.5t34.5 22.5q-10 24 -14.5 52.5
t-5.5 60.5v7q-65 -5 -102 -17.5t-56.5 -27.5t-24.5 -30.5t-5 -26.5q0 -30 15.5 -48.5t47.5 -18.5zM558 433q-34 0 -55.5 -13.5t-34 -34t-17.5 -44t-5 -44.5q51 5 102.5 10t102.5 11q0 19 -3.5 39.5t-13.5 37.5t-28.5 27.5t-47.5 10.5z" />
    <glyph glyph-name="cent" unicode="&#xa2;" horiz-adv-x="581" 
d="M272 19q-85 11 -127 67.5t-42 151.5q0 47 14.5 89t43 73.5t69.5 50t95 19.5l12 99l40 -5l-12 -96q29 -4 54.5 -12.5t51.5 -19.5l-1 -112l-36 -6l-36 71q-23 7 -41 8l-36 -307q7 -1 14 -1h15q10 0 24 1.5t30 4.5t32 6.5t30 7.5l16 -48q-17 -11 -37.5 -19.5t-42.5 -14
t-43.5 -8.5t-40.5 -3h-6l-13 -115l-40 4zM207 248q0 -54 16 -92.5t59 -55.5l34 296q-30 -5 -51 -19.5t-33.5 -35t-18.5 -45t-6 -48.5z" />
    <glyph glyph-name="sterling" unicode="&#xa3;" horiz-adv-x="581" 
d="M58 374h99q7 51 18 102q12 60 36 100.5t54.5 65.5t64.5 36t64 11q16 0 36.5 -3t43 -10.5t45.5 -20t44 -33.5l-18 -124h-46l-14 94q-41 26 -87 26q-42 0 -68 -24t-41 -60t-23 -79t-14 -81h186v-57h-194q-3 -29 -7.5 -60.5t-11.5 -62.5t-17.5 -60.5t-25.5 -54.5h43
q26 0 57.5 0.5t61.5 1t57 1t44 0.5l62 116l38 -9l-23 -179l-11 -10q-36 0 -63.5 0.5t-54.5 1t-57 1t-70 0.5h-57.5t-65 -0.5l-67 -1t-62.5 -1.5l-6 52q20 6 39 13t39 13q27 54 40.5 115t21.5 124h-90v57z" />
    <glyph glyph-name="yen" unicode="&#xa5;" horiz-adv-x="581" 
d="M541 264v-54h-189v-139l87 -22l-1 -49h-275l-2 44l82 27v139h-193v54h491zM50 312v55h149l-126 237l-62 22l3 46h167q2 -25 9 -48.5t19 -49.5l110 -211h5l111 236l-84 25l1 46l216 2l2 -49q-20 -9 -35.5 -20.5t-29 -27.5t-26.5 -37t-27 -49l-65 -122h154v-55h-491z" />
    <glyph glyph-name="copyright" unicode="&#xa9;" horiz-adv-x="884" 
d="M443 -25q-87 0 -157 29t-119 79t-75.5 118t-26.5 145t28.5 144.5t79 118t119.5 79.5t151 29q81 0 150.5 -29t119.5 -79.5t78.5 -118t28.5 -144.5t-28.5 -145t-78.5 -118t-119.5 -79t-150.5 -29zM443 29q70 0 127.5 24.5t99 67.5t64.5 101t23 124t-23.5 124t-65.5 101
t-99.5 67.5t-125.5 24.5q-69 0 -127 -24.5t-100 -67.5t-65 -101t-23 -124t23 -124t64.5 -101t99.5 -67.5t128 -24.5zM232 334q0 39 10.5 81t34.5 76t62.5 56t94.5 22q24 0 51 -5t56 -20q3 5 7.5 13t6.5 12h33l2 -137l-36 -6l-25 65q-20 11 -40 16t-48 5q-36 0 -59.5 -15.5
t-37.5 -40t-19.5 -55t-5.5 -61.5q0 -29 5 -60t20 -56.5t42 -41.5t72 -16q14 0 48 4t71 15l13 -48q-18 -9 -38 -15t-40 -9.5t-38 -5.5t-31 -2q-101 0 -156 58.5t-55 170.5z" />
    <glyph glyph-name="registered" unicode="&#xae;" horiz-adv-x="577" 
d="M289 233q-56 0 -100.5 18.5t-76 51t-48.5 75.5t-17 92q0 50 18 93.5t50.5 76t76.5 51t97 18.5t97.5 -18.5t77 -51t51 -76t18.5 -93.5q0 -49 -18.5 -92t-51 -75.5t-77 -51t-97.5 -18.5zM289 267q46 0 83.5 16t64 43.5t41 64.5t14.5 79q0 43 -14.5 80t-41 64.5t-64 43.5
t-83.5 16q-45 0 -82.5 -16t-64.5 -43.5t-42 -64.5t-15 -80q0 -42 14.5 -79t41 -64.5t64 -43.5t84.5 -16zM176 614q13 -1 27.5 -1.5t37.5 -0.5q3 0 12 0.5t18.5 0.5t18 0.5t11.5 0.5q40 1 66 -16t26 -58q0 -23 -14 -43.5t-41 -31.5l43 -86l41 -5v-24l-66 -11l-7 5l-54 113
q-8 0 -19 0.5t-22 2.5v-82l37 -8l-1 -24h-118l-1 21l34 10v207l-32 9zM344 536q0 26 -17.5 36.5t-46.5 10.5q-7 0 -13 -0.5t-13 -1.5v-89q7 -2 13 -2h11q39 0 52.5 14.5t13.5 31.5z" />
    <glyph glyph-name="germandbls" unicode="&#xdf;" horiz-adv-x="616" 
d="M473 107q0 37 -25 66.5t-55 60.5q-16 16 -34 35t-33.5 40t-26 43.5t-10.5 46.5q0 30 16.5 50.5t36 39.5t36 39.5t16.5 50.5q0 5 -2.5 17.5t-11.5 25.5t-27.5 23t-51.5 10q-48 0 -71 -30.5t-23 -74.5v-532l-19 -18h-164l-1 40l78 29v321h-74v41l74 28v41q0 38 12 77.5
t38.5 71.5t67.5 52t100 20q51 0 85.5 -12t55.5 -31t30 -41t9 -42q0 -36 -17.5 -59.5t-38 -41t-38 -33t-17.5 -36.5q0 -24 14.5 -44t36.5 -39t48 -39t48 -44.5t36.5 -54.5t14.5 -70q0 -39 -14.5 -67.5t-39.5 -47.5t-58.5 -28t-72.5 -9q-37 0 -71.5 7t-60.5 18l-7 123
q9 2 17.5 3.5t17.5 3.5l34 -74q13 -10 33.5 -15t33.5 -5q35 0 55 19t20 45z" />
    <glyph glyph-name="eth" unicode="&#xf0;" horiz-adv-x="562" 
d="M262 457q29 0 61 -8t54 -23q-12 38 -36.5 75.5t-57.5 71.5l-86 -56l-24 36l78 51q-29 25 -60 45.5t-62 34.5q5 13 11 25t11 24q42 -15 83.5 -36t80.5 -50q26 18 52 35.5t52 34.5l25 -37q-23 -16 -46.5 -31t-46.5 -30q37 -32 68 -70t53.5 -82.5t35.5 -95.5t13 -108
q0 -54 -13 -104t-43 -88.5t-78 -61t-118 -22.5q-62 0 -105 20t-70 53t-39.5 75t-12.5 86q0 49 16 92t45 75t69.5 50.5t89.5 18.5zM281 53q41 0 66.5 19.5t39.5 47.5t18.5 60t4.5 56q0 26 -4.5 59t-15.5 59q-15 10 -43.5 21.5t-56.5 11.5q-37 0 -62.5 -14t-41.5 -36
t-23 -50.5t-7 -56.5q0 -30 5.5 -61.5t19.5 -57t38 -42t62 -16.5z" />
    <glyph glyph-name="divide" unicode="&#xf7;" horiz-adv-x="581" 
d="M227 91q0 26 18.5 45.5t45.5 19.5q26 0 45 -19.5t19 -45.5t-19 -44.5t-45 -18.5q-27 0 -45.5 18.5t-18.5 44.5zM227 452q0 27 18.5 46t45.5 19q26 0 45 -19t19 -46q0 -26 -19 -44.5t-45 -18.5q-27 0 -45.5 18.5t-18.5 44.5zM516 310v-74h-451v74h451z" />
    <glyph glyph-name="paragraph" unicode="&#xb6;" horiz-adv-x="546" 
d="M300 -190h-134v41l78 23v451h-22q-39 0 -72 14t-57.5 38.5t-38 57t-13.5 70.5t14 72t38 59t57 39.5t72 14.5h290v-43l-70 -19v-818h-66v816h-66v-805z" />
    <glyph glyph-name="ampersand" unicode="&#x26;" horiz-adv-x="791" 
d="M201 502q0 80 51.5 127.5t141.5 47.5q32 0 63 -6.5t55.5 -18.5t39.5 -30t15 -40q0 -20 -17 -39.5t-40 -30.5l-132 99q-21 -3 -35 -14t-23 -26.5t-12.5 -33t-3.5 -33.5q0 -41 17.5 -87.5t44.5 -91.5t59.5 -84.5t63.5 -66.5q10 12 21 27.5t21.5 32.5t20 34t16.5 32l-86 24
q0 11 0.5 20.5t0.5 17.5q55 2 108 4t107 3l5 -46q-25 -15 -49 -35.5t-46.5 -44.5t-44 -50t-41.5 -51q45 -41 105 -72t145 -51l-4 -38q-7 -1 -13.5 -1h-14.5q-38 0 -76 7.5t-74 20t-69 29.5t-59 36q-32 -30 -62.5 -47.5t-57.5 -26t-48 -10.5t-33 -2q-49 0 -84 14.5t-58 39
t-34 57t-11 69.5q0 30 7.5 63.5t24.5 65t44 59.5t66 48q-15 49 -15 99zM314 58q20 0 48.5 9.5t57.5 36.5q-52 44 -99 103.5t-79 129.5q-29 -21 -43 -58.5t-14 -79.5q3 -62 33.5 -101.5t95.5 -39.5z" />
    <glyph glyph-name="trianglebullet" unicode="&#x2023;" horiz-adv-x="529" 
d="M495 280l-414 -232v453z" />
    <glyph glyph-name="arrowleft" unicode="&#x2190;" horiz-adv-x="835" 
d="M774 362v-81l-555 1l133 -131l-58 -58l-228 229l228 230l58 -58l-133 -132h555z" />
    <glyph glyph-name="arrowup" unicode="&#x2191;" horiz-adv-x="501" 
d="M294 1h-81v544l-130 -130l-58 58l229 228l230 -228l-58 -58l-132 130v-544z" />
    <glyph glyph-name="arrowright" unicode="&#x2192;" horiz-adv-x="835" 
d="M622 362l-133 132l58 58l228 -230l-228 -229l-58 58l133 131l-555 -1v81h555z" />
    <glyph glyph-name="arrowdown" unicode="&#x2193;" horiz-adv-x="501" 
d="M294 154l132 133l58 -58l-230 -228l-229 228l58 58l131 -133l-1 547h81v-547z" />
    <glyph glyph-name="arrowupleft" unicode="&#x2196;" horiz-adv-x="840" 
d="M770 55l-56 -58l-511 510l1 -186h-82l1 322l323 1l1 -81l-187 1z" />
    <glyph glyph-name="arrowdownright" unicode="&#x2198;" horiz-adv-x="840" 
d="M122 587l56 57l511 -510l-1 187h82l-1 -323l-323 -1l-1 81h187z" />
    <glyph glyph-name="arrowhookleft" unicode="&#x21a9;" horiz-adv-x="853" 
d="M182 362h464q49 0 68.5 27.5t19.5 68.5v78q0 39 -21 60.5t-67 21.5h-88v79h92q45 0 76.5 -12.5t51 -34.5t28 -52.5t8.5 -65.5v-74q0 -80 -43 -128.5t-133 -48.5l-456 1l133 -132l-58 -56l-227 228l227 229l58 -57z" />
    <glyph glyph-name="arrowhookright" unicode="&#x21aa;" horiz-adv-x="845" 
d="M530 494l58 57l227 -229l-227 -228l-58 56l134 132l-456 -1q-90 0 -133.5 48.5t-43.5 128.5v74q0 35 8.5 65.5t28 52.5t51 34.5t76.5 12.5h93v-79h-88q-47 0 -67.5 -21.5t-20.5 -60.5v-78q0 -41 19.5 -68.5t68.5 -27.5h464z" />
    <glyph glyph-name="carriagereturnright" unicode="&#x21b3;" horiz-adv-x="847" 
d="M182 362h483l-133 132l57 57l227 -229l-227 -228l-57 56l133 132h-565v410h82v-330z" />
    <glyph glyph-name="carriagereturn" unicode="&#x21b5;" horiz-adv-x="847" 
d="M715 692h81v-410h-564l133 -132l-58 -56l-227 228l227 229l58 -57l-133 -132h483v330z" />
    <glyph glyph-name="pageup" unicode="&#x21de;" horiz-adv-x="497" 
d="M102 371h106l1 175l-128 -123l-57 59l224 219l228 -219l-57 -59l-130 123l1 -175h105v-78h-105v-65h105v-77h-105v-151h-82v151h-106v77h106v65h-106v78z" />
    <glyph glyph-name="pagedown" unicode="&#x21df;" horiz-adv-x="497" 
d="M102 407h106v66h-106v76h106v152h82v-152h105v-76h-105v-66h105v-77h-105l-1 -177l130 124l57 -58l-228 -219l-224 219l57 58l128 -124l-1 177h-106v77z" />
    <glyph glyph-name="arrowdashleft" unicode="&#x21e0;" horiz-adv-x="838" 
d="M333 361v-80h-125l135 -131l-59 -58q-57 58 -113.5 115t-113.5 114q114 114 227 230l59 -58q-34 -32 -67.5 -65.5t-67.5 -66.5h125zM529 361h90v-80h-90v80zM673 361h90v-80h-90v80zM386 361h89v-80h-89v80z" />
    <glyph glyph-name="arrowdashup" unicode="&#x21e1;" horiz-adv-x="503" 
d="M293 421h-81l1 123l-132 -133l-57 58l228 228l230 -228l-57 -58l-132 133v-123zM293 368v-89h-81v89h81zM293 225v-90h-81v90h81zM293 81v-90h-81v90h81z" />
    <glyph glyph-name="arrowdashright" unicode="&#x21e2;" horiz-adv-x="838" 
d="M613 362l-135 132l58 57l228 -230l-228 -228l-58 57l135 132l-125 -1v81h125zM435 281h-89v81h89v-81zM292 281h-90v81h90v-81zM148 281h-90v81h90v-81z" />
    <glyph glyph-name="arrowdashdown" unicode="&#x21e3;" horiz-adv-x="503" 
d="M292 143l132 133q14 -14 28.5 -29t29.5 -29l-230 -226q-58 56 -115 112.5t-114 113.5q14 14 28.5 29t29.5 29l131 -133v124h80v-124zM212 319v90h80v-90h-80zM212 607v90h80v-90h-80zM212 463v89h80v-89h-80z" />
    <glyph glyph-name="arrowtableft" unicode="&#x21e4;" horiz-adv-x="855" 
d="M71 104v435h85v-435h-85zM822 362v-81l-462 1l133 -131l-58 -58l-228 229l228 230l58 -58l-133 -132h462z" />
    <glyph glyph-name="arrowtabright" unicode="&#x21e5;" horiz-adv-x="855" 
d="M738 104v435h85v-435h-85zM534 362l-133 132l58 58l228 -230l-228 -229l-58 58l133 131l-462 -1v81h462z" />
    <glyph glyph-name="shift" unicode="&#x21e7;" horiz-adv-x="840" 
d="M424 607l-227 -235h105v-307h245v307h104zM46 312l378 388l378 -388h-190v-312h-376v312h-190z" />
    <glyph glyph-name="capslock" unicode="&#x21ea;" horiz-adv-x="840" 
d="M293 -49v-74h246v74h-246zM228 13h375v-198h-375v198zM416 607l-227 -235h104v-205h246v205h104zM38 312l378 388l378 -388h-190v-211h-376v211h-190z" />
    <glyph glyph-name="control" unicode="&#x2303;" horiz-adv-x="770" 
d="M91 413l292 292l294 -292l-59 -60l-235 233l-233 -233z" />
    <glyph glyph-name="command" unicode="&#x2318;" horiz-adv-x="839" 
d="M275 494v64q0 27 -19 46t-45 19q-28 0 -46.5 -18.5t-18.5 -46.5t18.5 -46t46.5 -18h64zM566 494h64q27 0 46 18.5t19 45.5t-19 46t-46 19q-26 0 -45 -18.5t-19 -46.5v-64zM275 203h-64q-28 0 -46.5 -19t-18.5 -45q0 -28 18.5 -47t46.5 -19q27 0 45.5 19t18.5 47v64z
M566 203v-64q0 -28 19 -47t45 -19q27 0 46 19t19 47q0 26 -19 45t-46 19h-64zM485 284v129h-129v-129h129zM566 284h64q37 0 64 -12t45 -32t27 -46t9 -55t-9 -55.5t-27 -46.5t-45 -32t-64 -12q-35 0 -61.5 11.5t-45.5 31.5t-28.5 46.5t-9.5 56.5v64h-129v-64q0 -29 -9 -55
t-27 -46.5t-45.5 -32.5t-63.5 -12q-34 0 -61 11.5t-46 31t-29.5 46.5t-10.5 57q0 29 10 55.5t29 46.5t46 31.5t62 11.5h64v129h-64q-30 0 -56.5 11.5t-46.5 31.5t-32 46.5t-12 55.5q0 30 11 56.5t30.5 46.5t46.5 31.5t59 11.5q36 0 63.5 -11.5t45.5 -31.5t27 -46.5t9 -56.5
v-64h129v64q0 30 10.5 56.5t29.5 46.5t46 31.5t59 11.5q35 0 62 -11.5t45.5 -31.5t28 -46.5t9.5 -56.5q0 -29 -11.5 -55t-31 -46t-46 -32t-56.5 -12h-64v-129z" />
    <glyph glyph-name="enter" unicode="&#x2324;" horiz-adv-x="785" 
d="M682 696v-84h-582v84h582zM97 286l293 308l293 -308l-59 -60l-234 250q-6 -7 -24 -26t-42 -45t-50.5 -54.5t-50.5 -54t-42 -45t-24 -25.5z" />
    <glyph glyph-name="option" unicode="&#x2325;" horiz-adv-x="1188" 
d="M549 682h586v-85h-586v85zM50 682h288l306 -599h491v-83h-556l-306 597h-223v85z" />
    <glyph glyph-name="deleteright" unicode="&#x2326;" horiz-adv-x="1147" 
d="M466 289l-147 -149l-55 55l148 148l-148 149l55 55l147 -148l149 148l55 -55l-148 -149l148 -148l-55 -55zM971 347l-262 267h-531v-534h531zM751 0h-653v695h653l337 -348z" />
    <glyph glyph-name="deleteleft" unicode="&#x232b;" horiz-adv-x="1166" 
d="M552 140l-55 55l148 148l-148 149l55 55l149 -148l147 148l55 -55l-148 -149l148 -148l-55 -55l-147 149zM465 80h531v534h-531l-263 -267zM86 347l337 348h653v-695h-653z" />
    <glyph glyph-name="circlestar" unicode="&#x235f;" horiz-adv-x="804" 
d="M752 346q0 -73 -28 -137.5t-76 -112.5t-112.5 -75.5t-137.5 -27.5t-137 27.5t-112 75.5t-75.5 112.5t-27.5 138.5q0 73 27.5 137.5t75.5 112.5t112.5 75.5t138.5 27.5q73 0 137.5 -28t112.5 -76t75.5 -112.5t27.5 -137.5h-1zM693 346q0 61 -23 115t-63 94t-94 63t-115 23
t-115 -23t-94 -63t-63 -94t-23 -115t23 -114.5t63 -93.5t94 -63t115 -23t115 23t94 63t63 93.5t23 114.5zM521 301l26 -169l-157 76l-141 -76l21 165l-118 117l163 32l75 148l80 -146l164 -34z" />
    <glyph glyph-name="eject" unicode="&#x23cf;" horiz-adv-x="854" 
d="M768 227v-136h-702v136h702zM768 314h-702l351 351z" />
    <glyph glyph-name="blacksquare" unicode="&#x25a0;" horiz-adv-x="875" 
d="M756 40h-633v633h633v-633z" />
    <glyph glyph-name="whitesquare" unicode="&#x25a1;" horiz-adv-x="841" 
d="M153 71h546v551h-546v-551zM82 0v693h687v-693h-687z" />
    <glyph glyph-name="blackuppointing.trangle" unicode="&#x25b2;" horiz-adv-x="820" 
d="M781 176h-702l351 351z" />
    <glyph glyph-name="blackrightpointing.trangle" unicode="&#x25b6;" horiz-adv-x="595" 
d="M138 701l351 -350l-351 -351v701z" />
    <glyph glyph-name="blackdownpointing.trangle" unicode="&#x25bc;" horiz-adv-x="820" 
d="M430 176l-351 351h702z" />
    <glyph glyph-name="blackleftpointing.trangle" unicode="&#x25c0;" horiz-adv-x="595" 
d="M452 0l-351 351l351 350v-701z" />
    <glyph glyph-name="lozenge" unicode="&#x25ca;" horiz-adv-x="530" 
d="M296 -19h-75l-174 336q9 18 23 45t30 58.5t34 65t34 65t30 58.5t23 45h76l172 -337zM258 539q-10 -20 -24.5 -49.5t-30 -61t-30 -61t-24.5 -49.5q10 -19 25 -49t31 -61.5t31 -61.5t24 -49q10 20 24.5 49.5t30 60.5t29.5 60.5t24 49.5z" />
    <glyph glyph-name="blackcircle" unicode="&#x25cf;" horiz-adv-x="843" 
d="M744 357q0 -64 -25 -121.5t-68.5 -101t-101 -69t-121.5 -25.5q-65 0 -122.5 25t-101 68.5t-68.5 101t-25 122.5q0 66 26 123.5t69.5 100t101 67.5t120.5 25t120 -25t100.5 -68.5t69.5 -101t26 -121.5z" />
    <glyph glyph-name="umbrella" unicode="&#x2602;" horiz-adv-x="780" 
d="M405 695q55 0 112.5 -27.5t104.5 -73.5t77 -106t30 -124q-16 18 -40 28.5t-50 10.5q-23 0 -45 -9.5t-41 -29.5h-2q-23 39 -75 39q-28 0 -62 -14v-304q0 -42 -25.5 -67.5t-73.5 -25.5q-42 0 -69.5 23.5t-27.5 74.5v13h47v-13q0 -28 13.5 -41t34.5 -13q16 0 26 5t15.5 13
t7.5 18t2 20v296q-14 7 -27 9.5t-25 2.5q-26 0 -46.5 -10t-38.5 -27q-17 20 -40 29.5t-47 9.5q-25 0 -48.5 -9.5t-40.5 -29.5l-1 1q0 64 30.5 123.5t77.5 106t105 74.5t113 28v31h29v-32zM730 363q-1 0 -1 1z" />
    <glyph glyph-name="blackstar" unicode="&#x2605;" horiz-adv-x="814" 
d="M605 254l39 -258l-239 117l-214 -117l32 251l-181 180l249 48l114 226l123 -223l250 -51z" />
    <glyph glyph-name="whitestar" unicode="&#x2606;" horiz-adv-x="838" 
d="M608 257l39 -259l-240 117l-218 -119l33 255l-183 182l254 49l113 225l124 -223l254 -51zM727 415l-213 43l-107 193l-98 -196l-212 -40l153 -153l-27 -216l184 99l206 -99l-35 221z" />
    <glyph glyph-name="ballotbox" unicode="&#x2610;" horiz-adv-x="841" 
d="M153 71h546v551h-546v-551zM82 0v693h687v-693h-687z" />
    <glyph glyph-name="ballotbox.withcheck" unicode="&#x2611;" horiz-adv-x="850" 
d="M692 566q-40 -31 -85 -87.5t-87 -121.5t-78 -129.5t-58 -109.5q-58 -11 -79 -22q-8 30 -21.5 71.5t-30 82t-33.5 72t-32 42.5q21 17 43.5 23t36.5 6q9 0 21.5 -15.5t25.5 -40t24 -56t17 -62.5q29 47 67 99.5t80.5 103t87 93.5t87.5 70zM153 71h546v551h-546v-551zM82 0
v693h687v-693h-687z" />
    <glyph glyph-name="ballotbox.withx" unicode="&#x2612;" horiz-adv-x="850" 
d="M82 0v693h687v-693h-687zM153 71h546v551h-546v-551zM613 592l55 -55l-187 -186l190 -189l-58 -54l-187 189l-188 -192l-53 58l187 186l-187 186l54 57l188 -190z" />
    <glyph glyph-name="radioactive" unicode="&#x2622;" horiz-adv-x="837" 
d="M418 432q16 0 30.5 -7t25 -18t16.5 -25.5t6 -30.5t-6 -30t-16.5 -24.5t-25 -17t-30.5 -6.5q-31 0 -55.5 22t-24.5 56t23.5 57.5t56.5 23.5zM569 89q-79 -41 -154 -41q-81 0 -148 42l98 170q30 -14 54 -14q20 0 50 14zM364 442q-23 -14 -36 -37.5t-16 -53.5h-197
q0 86 35.5 149t114.5 114zM569 615q72 -40 112 -108t40 -156h-197q-6 62 -55 93zM416 684q-68 0 -128 -26.5t-105 -72t-71 -106t-26 -128.5q0 -70 26.5 -130.5t72 -105.5t106.5 -70.5t129 -25.5q66 0 125.5 26.5t105 71.5t72 103.5t26.5 122.5q0 79 -28.5 142t-75 107
t-106.5 68t-123 24zM418 -17q-77 0 -144 28.5t-117 78t-78.5 117t-28.5 144.5q0 67 26 132t74 117t115.5 84t150.5 32q78 0 146 -28t118 -76.5t78.5 -114t28.5 -141.5q0 -77 -28.5 -145t-78 -118.5t-117 -80t-145.5 -29.5z" />
    <glyph glyph-name="biohazard" unicode="&#x2623;" horiz-adv-x="856" 
d="M553 462q-13 -27 -37 -43q-44 30 -86 30q-41 0 -89 -30q-14 8 -22 18.5t-15 24.5q32 21 62 32t62 11q64 0 125 -43zM502 120q-7 12 -11.5 25t-6.5 27q88 44 88 124v12t-1 14q11 7 27 8.5t27 1.5q4 -16 4 -37q0 -54 -33.5 -101t-93.5 -74zM351 120q-28 12 -51 30
t-39.5 41.5t-25.5 50t-9 54.5q0 21 4 38h12q22 -2 42 -12v-30q0 -76 88 -120q-2 -14 -7.5 -27.5t-13.5 -24.5zM272 531q0 -68 38 -107.5t111 -48.5v-22q-23 -5 -32.5 -18.5t-9.5 -27.5q0 -5 1 -9.5t3 -9.5l-19 -10q-60 72 -133 72q-29 0 -56.5 -12t-48.5 -32.5t-34 -47.5
t-13 -57q0 -22 6 -56l-11 -5q-8 25 -13.5 50.5t-5.5 50.5q0 29 8 57t26.5 52.5t48 45t73.5 34.5q0 63 11.5 109.5t35 78t59.5 51t86 28.5l5 -15q-136 -39 -136 -151zM583 533q0 109 -118 148l5 16q91 -20 134 -77t43 -155v-16t-1 -17q78 -31 116 -83.5t38 -119.5
q0 -45 -18 -96l-13 4q8 43 8 65q0 30 -12.5 56.5t-33.5 46t-49.5 30.5t-60.5 11q-40 0 -71.5 -19t-55.5 -52l-23 13q3 10 3 20q0 16 -9 27.5t-30 17.5v22q72 9 110 49.5t38 108.5zM428 53q-42 -32 -81 -42.5t-74 -10.5q-26 0 -49 4t-43.5 14t-40 27t-39.5 43l11 8
q68 -60 117 -60q33 0 62 12.5t50.5 33.5t34 49.5t12.5 60.5q0 12 -2.5 30t-15.5 41l22 13q7 -11 17.5 -14.5t20.5 -3.5q18 0 33 17l23 -12q-17 -41 -17 -72t12 -58.5t33 -48.5t48 -33t57 -12q66 0 122 54l12 -8q-19 -26 -38 -42.5t-39.5 -26t-43.5 -13t-50 -3.5
q-38 0 -77.5 10.5t-76.5 42.5z" />
    <glyph glyph-name="peace" unicode="&#x262e;" horiz-adv-x="834" 
d="M410 713q78 0 145.5 -28t117.5 -76.5t78.5 -113.5t28.5 -139q0 -77 -29 -144t-79.5 -116.5t-118.5 -78t-145 -28.5q-73 0 -138.5 29t-115 78.5t-78.5 116t-29 140.5q0 75 28.5 141t78 114.5t115.5 76.5t141 28zM675 204q18 32 28.5 69t10.5 83q0 58 -19 108t-54.5 88.5
t-86 64.5t-113.5 35v-239zM384 413v239q-60 -8 -110 -33t-86 -64.5t-56 -91.5t-20 -112q0 -27 2.5 -47t7.5 -36t12.5 -31.5t18.5 -33.5zM441 338v-289q59 7 107 34t93 75zM384 338l-197 -180q23 -22 45 -40t45 -32.5t49 -24t58 -14.5v291z" />
    <glyph glyph-name="yingyang" unicode="&#x262f;" horiz-adv-x="828" 
d="M525 174q-21 0 -34.5 15.5t-13.5 33.5q0 23 15.5 37.5t32.5 14.5q22 0 36.5 -16t14.5 -36q0 -22 -15.5 -35.5t-35.5 -13.5zM253 488q0 -20 13 -35t36 -15q22 0 36.5 15t14.5 35q0 18 -14 33.5t-38 15.5q-17 0 -32.5 -13.5t-15.5 -35.5zM50 356q0 82 31.5 148.5t82.5 114
t116 73.5t133 26q82 0 149.5 -29.5t115.5 -79.5t74 -116.5t26 -140.5q0 -82 -29.5 -148.5t-79.5 -114t-115.5 -73t-138.5 -25.5q-81 0 -148.5 30.5t-115.5 81t-74.5 116.5t-26.5 137zM249 649q21 6 42 6q41 0 74.5 -15.5t57 -39t36.5 -51t13 -52.5q0 -51 -19.5 -94.5
t-67.5 -91.5q-21 -21 -29 -51.5t-8 -51.5q0 -74 45.5 -115.5t128.5 -41.5q43 0 85 23.5t75 64.5t53.5 96t20.5 118q0 66 -24.5 128.5t-69.5 110.5t-108 77.5t-141 29.5q-45 0 -87.5 -11.5t-81.5 -34.5z" />
    <glyph glyph-name="recyclable.outline" unicode="&#x2672;" horiz-adv-x="919" 
d="M668 448l-211 21l60 38l-46 81l-124 -185l-169 98l103 166q11 18 27 28t42 10h243q20 0 27.5 -2.5t14.5 -13.5l53 -87l64 38zM50 421h211l85 -183l-60 35l-31 -28q-16 -15 -16 -29q0 -25 31 -25h192v-211h-185q-32 0 -45 10.5t-23 28.5l-113 208q-7 12 -9.5 25t-2.5 27
q0 26 7 50t25 43zM593 372l172 102l95 -176q9 -18 9 -30q0 -11 -3.5 -20.5t-8.5 -18.5l-108 -194q-9 -16 -15.5 -26.5t-13 -17t-15 -9t-21.5 -2.5h-84v-77l-111 175l110 169v-70h109zM199 504l144 -83l120 181q-19 37 -47.5 61t-71.5 24q-29 0 -48 -28zM311 275l-61 131
h-158l47 -32q-19 -18 -29.5 -42.5t-10.5 -50.5q0 -29 9.5 -46.5t25 -27t34.5 -13t37 -3.5h28q-11 8 -11 24q0 20 19 39l42 38zM448 178h-237q-17 0 -28.5 1t-20 2.5t-16 4t-15.5 5.5l88 -163q9 -16 19.5 -25.5t33.5 -9.5h176v185zM686 582l-59 93q-6 10 -13 13.5t-19 3.5
h-204q31 -7 51.5 -33t38.5 -58l56 -100l-37 -23l159 -15l67 145zM611 368l115 -191q19 2 41 10t41 20.5t31.5 28.5t12.5 34q0 7 -2 13t-4 11l-89 159zM587 206l-81 -128l81 -130v45h96q9 0 20.5 5t20.5 21l103 188q-32 -30 -67.5 -37.5t-88.5 -7.5h-84v44z" />
    <glyph glyph-name="recycled.plastics.type1" unicode="&#x2673;" horiz-adv-x="869" 
d="M536 0v-59h-16l-74 95l78 98l13 -2v-59h128q36 0 52.5 12t16.5 32q0 19 -16 46l-100 170l67 39l111 -194q23 -39 23 -73q0 -48 -40.5 -76.5t-102.5 -28.5h-140zM393 73v-73h-213q-60 0 -95 28.5t-35 75.5q0 36 24 78l73 131l-46 25l7 13l118 22l42 -112l-8 -15l-47 29
l-64 -116q-13 -24 -13 -43q0 -18 13.5 -30.5t45.5 -12.5h198zM624 400l-121 21l-6 12l49 27l-71 120q-8 14 -19.5 22t-25.5 8t-27 -10t-21 -25l-99 -174l-64 37l106 185q22 38 49.5 54.5t57.5 16.5q31 0 59.5 -18t46.5 -50l73 -129l51 29l6 -14zM452 120h-55v228l-36 -25v57
l42 30h49v-290z" />
    <glyph glyph-name="recycled.plastics.type2" unicode="&#x2674;" horiz-adv-x="869" 
d="M329 124v46l107 134q14 15 14 33q0 11 -8 20t-23 9q-14 0 -23.5 -11.5t-12.5 -31.5l-52 6q6 42 31 64.5t57 22.5q36 0 60 -20t24 -58q0 -14 -5 -29.5t-16 -29.5l-83 -104h99v-51h-169zM536 0v-59h-16l-74 95l78 98l13 -2v-59h128q36 0 52.5 12t16.5 32q0 19 -16 46
l-100 170l67 39l111 -194q23 -39 23 -73q0 -48 -40.5 -76.5t-102.5 -28.5h-140zM393 73v-73h-213q-60 0 -95 28.5t-35 75.5q0 36 24 78l73 131l-46 25l7 13l118 22l42 -112l-8 -15l-47 29l-64 -116q-13 -24 -13 -43q0 -18 13.5 -30.5t45.5 -12.5h198zM624 400l-121 21l-6 12
l49 27l-71 120q-8 14 -19.5 22t-25.5 8t-27 -10t-21 -25l-99 -174l-64 37l106 185q22 38 49.5 54.5t57.5 16.5q31 0 59.5 -18t46.5 -50l73 -129l51 29l6 -14z" />
    <glyph glyph-name="recycled.plastics.type3" unicode="&#x2675;" horiz-adv-x="869" 
d="M536 0v-59h-16l-74 95l78 98l13 -2v-59h128q36 0 52.5 12t16.5 32q0 19 -16 46l-100 170l67 39l111 -194q23 -39 23 -73q0 -48 -40.5 -76.5t-102.5 -28.5h-140zM393 73v-73h-213q-60 0 -95 28.5t-35 75.5q0 36 24 78l73 131l-46 25l7 13l118 22l42 -112l-8 -15l-47 29
l-64 -116q-13 -24 -13 -43q0 -18 13.5 -30.5t45.5 -12.5h198zM624 400l-121 21l-6 12l49 27l-71 120q-8 14 -19.5 22t-25.5 8t-27 -10t-21 -25l-99 -174l-64 37l106 185q22 38 49.5 54.5t57.5 16.5q31 0 59.5 -18t46.5 -50l73 -129l51 29l6 -14zM505 214q0 -42 -24.5 -67.5
t-66.5 -25.5q-14 0 -27.5 3.5t-25 12.5t-20 24t-12.5 37l51 7q4 -19 13.5 -27t21.5 -8q18 0 28.5 12.5t10.5 30.5q0 19 -10.5 28.5t-26.5 9.5h-29v48h26q16 0 26.5 9.5t10.5 23.5t-10 24t-24 10q-11 0 -20 -9.5t-14 -26.5l-52 6q7 35 31 57.5t55 22.5q45 0 65.5 -25
t20.5 -58q0 -15 -5 -29t-22 -27q17 -14 23 -30t6 -33z" />
    <glyph glyph-name="recycled.plastics.type4" unicode="&#x2676;" horiz-adv-x="869" 
d="M536 0v-59h-16l-74 95l78 98l13 -2v-59h128q36 0 52.5 12t16.5 32q0 19 -16 46l-100 170l67 39l111 -194q23 -39 23 -73q0 -48 -40.5 -76.5t-102.5 -28.5h-140zM393 73v-73h-213q-60 0 -95 28.5t-35 75.5q0 36 24 78l73 131l-46 25l7 13l118 22l42 -112l-8 -15l-47 29
l-64 -116q-13 -24 -13 -43q0 -18 13.5 -30.5t45.5 -12.5h198zM624 400l-121 21l-6 12l49 27l-71 120q-8 14 -19.5 22t-25.5 8t-27 -10t-21 -25l-99 -174l-64 37l106 185q22 38 49.5 54.5t57.5 16.5q31 0 59.5 -18t46.5 -50l73 -129l51 29l6 -14zM477 167v-41h-51v41h-117v43
l96 206h56l-93 -200h58v70h51v-70h22v-49h-22z" />
    <glyph glyph-name="recycled.plastics.type5" unicode="&#x2677;" horiz-adv-x="869" 
d="M536 0v-59h-16l-74 95l78 98l13 -2v-59h128q36 0 52.5 12t16.5 32q0 19 -16 46l-100 170l67 39l111 -194q23 -39 23 -73q0 -48 -40.5 -76.5t-102.5 -28.5h-140zM393 73v-73h-213q-60 0 -95 28.5t-35 75.5q0 36 24 78l73 131l-46 25l7 13l118 22l42 -112l-8 -15l-47 29
l-64 -116q-13 -24 -13 -43q0 -18 13.5 -30.5t45.5 -12.5h198zM624 400l-121 21l-6 12l49 27l-71 120q-8 14 -19.5 22t-25.5 8t-27 -10t-21 -25l-99 -174l-64 37l106 185q22 38 49.5 54.5t57.5 16.5q31 0 59.5 -18t46.5 -50l73 -129l51 29l6 -14zM510 215q0 -41 -22 -69
t-67 -28q-31 0 -54.5 16t-32.5 60l51 10q8 -38 36 -38q13 0 20.5 5.5t11.5 14t5.5 18.5t1.5 19q0 19 -6.5 34.5t-28.5 15.5q-10 0 -18 -7t-15 -18h-47v162h151v-50h-102v-47q10 5 19.5 7t19.5 2q38 0 57.5 -25t19.5 -64v-18z" />
    <glyph glyph-name="recycled.plastics.type6" unicode="&#x2678;" horiz-adv-x="869" 
d="M536 0v-59h-16l-74 95l78 98l13 -2v-59h128q36 0 52.5 12t16.5 32q0 19 -16 46l-100 170l67 39l111 -194q23 -39 23 -73q0 -48 -40.5 -76.5t-102.5 -28.5h-140zM393 73v-73h-213q-60 0 -95 28.5t-35 75.5q0 36 24 78l73 131l-46 25l7 13l118 22l42 -112l-8 -15l-47 29
l-64 -116q-13 -24 -13 -43q0 -18 13.5 -30.5t45.5 -12.5h198zM624 400l-121 21l-6 12l49 27l-71 120q-8 14 -19.5 22t-25.5 8t-27 -10t-21 -25l-99 -174l-64 37l106 185q22 38 49.5 54.5t57.5 16.5q31 0 59.5 -18t46.5 -50l73 -129l51 29l6 -14zM514 211q0 -24 -7.5 -42
t-20 -29t-28.5 -16.5t-33 -5.5q-38 0 -62 22.5t-24 67.5q0 14 3.5 30t12.5 33q17 33 36.5 69t36.5 70h56l-55 -113h6q35 0 57 -25.5t22 -60.5zM460 209q0 20 -10 30t-24 10t-24.5 -10t-10.5 -30t9.5 -31t25.5 -11q14 0 24 11t10 31z" />
    <glyph glyph-name="recycled.plastics.type7" unicode="&#x2679;" horiz-adv-x="869" 
d="M536 0v-59h-16l-74 95l78 98l13 -2v-59h128q36 0 52.5 12t16.5 32q0 19 -16 46l-100 170l67 39l111 -194q23 -39 23 -73q0 -48 -40.5 -76.5t-102.5 -28.5h-140zM393 73v-73h-213q-60 0 -95 28.5t-35 75.5q0 36 24 78l73 131l-46 25l7 13l118 22l42 -112l-8 -15l-47 29
l-64 -116q-13 -24 -13 -43q0 -18 13.5 -30.5t45.5 -12.5h198zM624 400l-121 21l-6 12l49 27l-71 120q-8 14 -19.5 22t-25.5 8t-27 -10t-21 -25l-99 -174l-64 37l106 185q22 38 49.5 54.5t57.5 16.5q31 0 59.5 -18t46.5 -50l73 -129l51 29l6 -14zM412 115h-56l95 239h-61v-41
h-52v92h172v-44z" />
    <glyph glyph-name="recycled.plastics" unicode="&#x267a;" horiz-adv-x="869" 
d="M536 0v-59h-16l-74 95l78 98l13 -2v-59h128q36 0 52.5 12t16.5 32q0 19 -16 46l-100 170l67 39l111 -194q23 -39 23 -73q0 -48 -40.5 -76.5t-102.5 -28.5h-140zM393 73v-73h-213q-60 0 -95 28.5t-35 75.5q0 36 24 78l73 131l-46 25l7 13l118 22l42 -112l-8 -15l-47 29
l-64 -116q-13 -24 -13 -43q0 -18 13.5 -30.5t45.5 -12.5h198zM624 400l-121 21l-6 12l49 27l-71 120q-8 14 -19.5 22t-25.5 8t-27 -10t-21 -25l-99 -174l-64 37l106 185q22 38 49.5 54.5t57.5 16.5q31 0 59.5 -18t46.5 -50l73 -129l51 29l6 -14z" />
    <glyph glyph-name="recyclable" unicode="&#x267b;" horiz-adv-x="889" 
d="M730 616l-82 -144h-167l52 33l-74 133q-12 21 -27.5 34.5t-29.5 21.5h181q28 0 37.5 -6t15.5 -17l46 -82zM321 695q36 0 63.5 -19t42.5 -39l-121 -220l-147 87l83 146q13 17 33 31t46 14zM738 495l86 -148q15 -25 15 -52q0 -24 -11 -44t-28 -34.5t-39 -22.5t-43 -8h-8
l-123 222zM303 290l-46 27l-72 -131q-17 -27 -25 -47.5t-8 -33.5l-88 152q-14 24 -14 39q0 8 5 23l50 86l-41 20h161zM469 80l86 137v-60h149q16 0 44 7.5t51 22.5l-100 -152q-15 -23 -32 -29t-31 -6h-81v-58zM448 0h-189q-11 0 -25.5 4.5t-27.5 14t-22 25.5t-9 40
q0 18 6.5 35.5t17.5 37.5h249v-157z" />
    <glyph glyph-name="recycled" unicode="&#x267c;" horiz-adv-x="836" 
d="M786 352q0 -76 -29 -143t-79 -117t-117 -79t-143 -29t-143 29t-117 79t-79 117t-29 143t29 143t79 117t117 79t143 29t143 -29t117 -79t79 -117t29 -143zM593 538l-34 61q-5 9 -12 13t-27 4h-137q11 -5 22.5 -15t20.5 -26l55 -100l-39 -25h125l62 108zM323 617
q-20 0 -35.5 -9.5t-23.5 -24.5l-62 -109l111 -65l90 165q-12 15 -32.5 29t-47.5 14zM522 403l92 -166h6q16 0 32 6t29 16.5t21 25.5t8 33q0 9 -2 19t-9 20l-64 111zM251 415h-120l30 -14l-38 -64q-5 -8 -5 -19q0 -13 10 -30l69 -111q0 20 23 60l55 97l34 -19zM498 54v43h61
q9 0 22.5 5t24.5 22l75 113q-17 -10 -38.5 -16.5t-32.5 -6.5h-112v46l-64 -102zM418 214h-186q-18 -27 -18 -53q0 -18 6.5 -30.5t16.5 -20t20.5 -10.5t18.5 -3h142v117z" />
    <glyph glyph-name="recycled.partially" unicode="&#x267d;" horiz-adv-x="836" 
d="M786 353q0 -76 -29 -143t-79 -117t-117 -79t-143 -29t-143 29t-117 79t-79 117t-29 143t29 143t79 117t117 79t143 29t143 -29t117 -79t79 -117t29 -143zM767 353q0 72 -27.5 135.5t-74.5 111t-111 75t-136 27.5t-135.5 -27.5t-111 -75t-75 -111t-27.5 -135.5t27.5 -136
t75 -111t111 -74.5t135.5 -27.5t136 27.5t111 74.5t74.5 111t27.5 136zM631 558l-62 -108h-125l39 25l-55 100q-9 16 -20.5 26t-22.5 15h137q20 0 27 -4t12 -13l34 -61zM325 617q27 0 47.5 -14t32.5 -29l-90 -165l-111 65l62 109q8 15 23.5 24.5t35.5 9.5zM637 468l64 -111
q7 -10 9 -20t2 -19q0 -18 -8 -33t-21 -25.5t-29 -16.5t-32 -6h-6l-92 166zM311 315l-34 19l-55 -97q-23 -40 -23 -60l-69 111q-10 17 -10 30q0 11 5 19l38 64l-30 14h120zM436 158l64 102v-46h112q11 0 32.5 6.5t38.5 16.5l-75 -113q-11 -17 -24.5 -22t-22.5 -5h-61v-43z
M420 97h-142q-8 0 -18.5 3t-20.5 10.5t-16.5 20t-6.5 30.5q0 26 18 53h186v-117z" />
    <glyph glyph-name="uni2693" unicode="&#x2693;" horiz-adv-x="698" 
d="M381 68q33 3 70 14.5t81 52.5l-40 35l142 41l-21 -152l-38 41q-54 -55 -111 -79t-115 -29q-58 5 -115 29t-110 79l-38 -41l-22 152l142 -41l-40 -35q22 -21 42 -33.5t39 -19.5t36.5 -10t34.5 -4v397h-128v48h128v12q-27 8 -44 32t-17 53q0 38 26.5 64t63.5 26q18 0 34 -7
t28 -19t19 -28.5t7 -35.5q0 -29 -15.5 -50.5t-40.5 -31.5v-15h130v-48h-130v-397h2z" />
    <glyph glyph-name="warning" unicode="&#x26a0;" horiz-adv-x="884" 
d="M437 525q24 0 36 -13.5t12 -32.5l-29 -281q-2 -8 -8.5 -13t-11.5 -5q-6 0 -12.5 5t-7.5 13l-23 281q0 16 12 31t32 15zM437 75q-6 0 -14 2t-14.5 6.5t-11.5 13t-5 21.5q0 4 2 11t7.5 14t14 11.5t21.5 4.5q17 0 29.5 -11.5t12.5 -31.5q0 -19 -12.5 -30t-29.5 -11zM391 669
q11 19 24 27.5t27 8.5q13 0 25.5 -8.5t22.5 -25.5l331 -588q10 -17 10 -37t-12.5 -33t-40.5 -13h-675q-29 0 -41.5 13.5t-12.5 32.5q0 18 11 37zM125 90q-5 -8 -8.5 -14t-3.5 -11t6 -7t23 -2h597q17 0 23 2t6 7t-4 11.5t-9 14.5l-297 526q-9 17 -19 17q-5 0 -10 -5t-9 -12z
" />
    <glyph glyph-name="telephonelocation" unicode="&#x2706;" horiz-adv-x="432" 
d="M268 501q-26 0 -36 -38t-10 -125q0 -12 2 -36t7 -48.5t14 -43.5t23 -21v-201q-9 0 -24 6t-33 21t-37 41t-34.5 66t-25 95.5t-9.5 130.5q0 113 20.5 183t48 109t54.5 53.5t40 15.5v-208zM281 -12v201h60q8 0 14 -4.5t6 -15.5v-160q0 -8 -4.5 -14.5t-15.5 -6.5h-60z
M281 501v208h60q8 0 14 -6t6 -14v-163q0 -25 -20 -25h-60z" />
    <glyph glyph-name="airplane" unicode="&#x2708;" horiz-adv-x="890" 
d="M566 246l-208 -351h-96l115 351h-191l-61 -80h-75l38 127l-41 126h75l64 -84h192l-112 359h95l207 -359h247q25 0 38 -14.5t13 -31.5q0 -16 -12.5 -29.5t-37.5 -13.5h-250z" />
    <glyph glyph-name="envelope" unicode="&#x2709;" horiz-adv-x="1070" 
d="M353 330l-229 228v-454zM712 337l227 -227v456zM169 64h726l-222 224l-143 -144l-137 136zM162 610l368 -371l366 371h-734zM1005 671v-671h-941v671h941z" />
    <glyph glyph-name="checkmark" unicode="&#x2713;" horiz-adv-x="764" 
d="M756 656q-35 -27 -75.5 -72.5t-82 -102.5t-82.5 -121.5t-78 -127t-67.5 -120t-50.5 -100.5q-36 -8 -62 -16t-39 -16q-7 29 -17.5 66.5t-23.5 77.5t-28 79t-30 71.5t-29.5 54t-26.5 27.5q23 20 52 28.5t49 8.5q13 0 31 -23.5t35.5 -61t31.5 -83.5t19 -91q37 65 91 142.5
t115.5 152.5t126.5 139.5t126 104.5z" />
    <glyph glyph-name="heavymultiplicationx" unicode="&#x2716;" horiz-adv-x="742" 
d="M717 172l-173 -174l-173 175l-173 -175l-173 174l175 172l-175 172l173 174l173 -174l173 174l173 -174l-174 -172z" />
    <glyph glyph-name="heavygreekcross" unicode="&#x271a;" horiz-adv-x="748" 
d="M264 666h230v-218h218v-230h-213v-218h-231v218h-217v230h213v218z" />
    <glyph glyph-name="circledwhitestar" unicode="&#x272a;" horiz-adv-x="796" 
d="M752 346q0 -74 -28 -138.5t-76 -112.5t-112.5 -75.5t-138.5 -27.5t-138.5 27.5t-112.5 75.5t-76 112.5t-28 138.5q0 73 28 138t76 113t112.5 76t138.5 28t138.5 -28t112.5 -76t76 -113t28 -138zM484 468l-96 177l-91 -179l-196 -39l141 -140l-24 -199l170 92l189 -92
l-32 204l137 135z" />
    <glyph glyph-name="rightwards.wideheaded.arrow" unicode="&#x2794;" horiz-adv-x="736" 
d="M433 637l290 -290l-289 -289h-171l230 229h-465v122h466l-230 228h169z" />
    <glyph glyph-name="dotlessi" unicode="&#x131;" horiz-adv-x="342" 
d="M225 65l77 -23l-1 -42h-259l-2 42l79 28v29v61.5v79v79.5t-0.5 64t-0.5 34l-68 18v42l166 26l9 -5v-433z" />
    <glyph glyph-name="primemod" unicode="&#x2b9;" horiz-adv-x="269" 
d="M24 408l125 300l90 -40l-162 -286z" />
    <glyph glyph-name="caron" unicode="&#x2c7;" horiz-adv-x="523" 
d="M430 737l29 -34l-170 -161h-58l-169 162l28 33q14 -9 37 -24t47.5 -31t47.5 -31t37 -24z" />
    <glyph glyph-name="breve" unicode="&#x2d8;" horiz-adv-x="523" 
d="M248 548q-30 0 -56 10.5t-47.5 27t-38 37.5t-26.5 41l1 1q18 10 37 19t38 19q21 -38 50.5 -62t50.5 -24q9 0 22 3t30.5 12t38 25.5t44.5 42.5q9 -8 18.5 -15.5t18.5 -15.5q-45 -66 -91 -93.5t-90 -27.5z" />
    <glyph glyph-name="dotaccent" unicode="&#x2d9;" horiz-adv-x="520" 
d="M330 643q0 -29 -20 -49t-50 -20q-32 0 -50.5 20t-18.5 49t20 48.5t49 19.5q30 0 50 -19.5t20 -48.5z" />
    <glyph glyph-name="ring" unicode="&#x2da;" horiz-adv-x="520" 
d="M265 547q-24 0 -45 8.5t-36 23.5t-24 35t-9 43q0 22 9 42t24 35t36 24t45 9q23 0 43 -9t35 -24t23.5 -35t8.5 -42q0 -23 -8.5 -43t-23.5 -35t-35 -23.5t-43 -8.5zM265 714q-24 0 -40.5 -17.5t-16.5 -39.5t16.5 -39t40.5 -17q21 0 37 17t16 39q0 21 -16 39t-37 18z" />
    <glyph glyph-name="ogonek" unicode="&#x2db;" horiz-adv-x="524" 
d="M410 25q-32 -30 -45.5 -62.5t-13.5 -59.5q0 -32 22.5 -43.5t49.5 -11.5q18 0 34.5 2.5t31.5 7.5l9 -36q-26 -13 -57.5 -21t-62.5 -8q-57 0 -82.5 22.5t-25.5 54.5q0 16 5 37t18.5 43.5t37 46t59.5 45.5z" />
    <glyph glyph-name="hungarumlaut" unicode="&#x2dd;" horiz-adv-x="520" 
d="M244 753l81 -54l-147 -168l-48 31zM389 753l81 -54l-147 -168l-48 31z" />
    <glyph glyph-name="tonos" unicode="&#x384;" horiz-adv-x="507" 
d="M333 752l77 -62l-159 -158l-45 35z" />
    <glyph glyph-name="dieresistonos" unicode="&#x385;" horiz-adv-x="518" 
d="M78 617q0 24 17 41t41 17q25 0 41.5 -17t16.5 -41t-16.5 -41t-41.5 -17q-24 0 -41 17t-17 41zM338 617q0 24 16.5 41t41.5 17q24 0 41 -17t17 -41t-17 -41t-41 -17q-25 0 -41.5 17t-16.5 41zM281 755l86 -47l-126 -185l-51 27z" />
    <glyph glyph-name="afii00208" unicode="&#x2015;" horiz-adv-x="1000" 
d="M30 218v65h940v-65h-940z" />
    <glyph glyph-name="Dieresis" unicode="&#xf6cb;" horiz-adv-x="706" 
d="M198 799q0 24 17 41t42 17q24 0 41 -17t17 -41t-17 -41t-41 -17q-25 0 -42 17t-17 41zM401 799q0 24 17 41t41 17q25 0 42 -17t17 -41t-17 -41t-42 -17q-24 0 -41 17t-17 41z" />
    <glyph glyph-name="lessequal" unicode="&#x2264;" horiz-adv-x="581" 
d="M516 0h-450v68h450v-68zM516 100q-113 40 -225 79.5t-225 78.5v63q113 41 225 81t225 80v-78l-342 -114v-2q86 -27 171 -55t171 -55v-78z" />
    <glyph glyph-name="greaterequal" unicode="&#x2265;" horiz-adv-x="581" 
d="M516 258q-113 -39 -225 -78.5t-225 -79.5v78q86 27 170.5 55t171.5 55v2l-342 114v78q113 -40 225 -80t225 -81v-63zM66 68h450v-68h-450v68z" />
    <glyph glyph-name="Acute" unicode="&#xf6c9;" horiz-adv-x="706" 
d="M481 900l48 -86l-205 -88l-29 49z" />
    <glyph glyph-name="acute" unicode="&#xb4;" horiz-adv-x="552" 
d="M342 752l77 -62l-159 -158l-45 35z" />
    <glyph glyph-name="mu" unicode="&#xb5;" horiz-adv-x="624" 
d="M408 63l-70 -65q-29 -7 -65.5 -9t-68.5 15v-156l83 -24l-2 -43h-261l-2 42l77 27v567l-69 18v42l166 23l9 -5l1 -327q0 -48 17.5 -72t62.5 -24q28 0 60.5 12t64.5 31v31v57t0.5 69.5t0.5 68v52.5v24l-69 19v42l166 23l8 -5v-425l77 -18v-42l-156 -23l-9 5l-15 68z" />
    <glyph glyph-name="mu" unicode="&#x3bc;" horiz-adv-x="624" 
d="M408 63l-70 -65q-29 -7 -65.5 -9t-68.5 15v-156l83 -24l-2 -43h-261l-2 42l77 27v567l-69 18v42l166 23l9 -5l1 -327q0 -48 17.5 -72t62.5 -24q28 0 60.5 12t64.5 31v31v57t0.5 69.5t0.5 68v52.5v24l-69 19v42l166 23l8 -5v-425l77 -18v-42l-156 -23l-9 5l-15 68z" />
    <glyph glyph-name="Alphatonos" unicode="&#x386;" horiz-adv-x="715" 
d="M460 216h-240l-48 -144l94 -21l-1 -51h-255l-2 50l76 22l192 500q11 29 21.5 57.5t19.5 59.5l86 16l6 -3l243 -631l58 -20l-3 -51h-276l-3 49l83 24zM284 405l-43 -126h197l-44 127l-53 153h-5zM112 740l77 -62l-159 -158l-45 35z" />
    <glyph glyph-name="anoteleia" unicode="&#x387;" horiz-adv-x="247" 
d="M193 360q0 -29 -19.5 -49t-50.5 -20q-32 0 -50.5 20t-18.5 49t20 49t49 20q31 0 50.5 -20t19.5 -49z" />
    <glyph glyph-name="Epsilontonos" unicode="&#x388;" horiz-adv-x="633" 
d="M598 199l-25 -189l-11 -10q-36 0 -65.5 0.5l-59 1t-61.5 1t-73 0.5h-59.5t-69 -0.5t-70.5 -1t-64 -1.5l-5 45l90 27v545l-81 24l6 47q25 -1 61 -1.5t73 -0.5h69.5h52.5q34 0 62 0.5t55 1t55 1t63 1.5l11 -6l4 -189l-45 -7l-42 125h-229v-224l248 8v-79l-248 8v-250h53.5
t74 0.5t74 1t53.5 0.5l65 131zM-61 740l77 -62l-159 -158l-45 35z" />
    <glyph glyph-name="Etatonos" unicode="&#x389;" horiz-adv-x="807" 
d="M43 687h297l2 -50l-94 -23v-222h306v222l-87 27l2 46h296l2 -50l-95 -23v-540l95 -23l-1 -51h-298l-3 46l89 28v251h-306v-251l94 -23l-2 -51h-298l-2 46l90 28v540l-89 27zM-74 740l77 -62l-159 -158l-45 35z" />
    <glyph glyph-name="Iotatonos" unicode="&#x38a;" horiz-adv-x="423" 
d="M361 0h-299l-2 45l91 28v542l-91 27l2 45h299l2 -49l-97 -23v-542l97 -23zM-50 740l77 -62l-159 -158l-45 35z" />
    <glyph glyph-name="Omicrontonos" unicode="&#x38c;" horiz-adv-x="746" 
d="M686 353q0 -75 -18 -142t-56 -117.5t-98.5 -80t-145.5 -29.5q-149 0 -228.5 92t-79.5 260q0 74 18 140.5t56 117t98.5 80.5t144.5 30q73 0 130.5 -25t97.5 -70.5t60.5 -110.5t20.5 -145zM371 631q-54 0 -90.5 -23t-58.5 -61.5t-31.5 -88t-9.5 -102.5q0 -66 10 -120.5
t32.5 -93t59.5 -60t91 -21.5t90.5 23t59.5 61t33 88.5t10 104.5q0 60 -10 113.5t-33 93.5t-60.5 63t-92.5 23zM-2 740l77 -62l-159 -158l-45 35z" />
    <glyph glyph-name="Upsilontonos" unicode="&#x38e;" horiz-adv-x="637" 
d="M348 369l126 244l-90 24l2 50l244 1l2 -51q-24 -10 -42 -22.5t-33 -28.5t-29.5 -37t-30.5 -49l-113 -195v-231l96 -23l-1 -51h-303l-2 46l91 28v206l-184 335l-76 24l3 49h190q2 -26 9 -50t21 -50l114 -219h6zM-89 740l77 -62l-159 -158l-45 35z" />
    <glyph glyph-name="Omegatonos" unicode="&#x38f;" horiz-adv-x="793" 
d="M399 705q75 0 133 -27t97.5 -73.5t60.5 -109.5t21 -135q0 -50 -11.5 -93.5t-30 -79.5t-42 -63.5t-46.5 -46.5l88 4l39 81l41 -9l-17 -143l-11 -10q-49 1 -73.5 1h-41.5h-20h-24t-33.5 -0.5t-46.5 -0.5q-5 16 -8.5 32t-7.5 32q38 30 62.5 64.5t38.5 72.5t19.5 80.5
t5.5 87.5q0 55 -14 102.5t-39.5 83t-62 56t-82.5 20.5q-94 0 -142.5 -67t-48.5 -196q0 -45 5.5 -88t19.5 -81.5t38 -72.5t61 -62q-5 -17 -9.5 -33t-9.5 -31q-34 1 -63 1h-60h-53.5t-59.5 -1l-12 10l-16 142q10 3 20 5t21 4l39 -81q10 0 18.5 -0.5t18.5 -1t22 -1t29 -1.5
q-24 19 -47.5 47t-42 64t-29.5 79.5t-11 92.5q0 70 21 133t61 110t99 75t136 28zM31 740l77 -62l-159 -158l-45 35z" />
    <glyph glyph-name="iotadieresistonos" unicode="&#x390;" horiz-adv-x="344" 
d="M225 76l79 -17v-42q-22 -14 -54 -22t-60 -8q-13 0 -25.5 4t-23 13t-17 23.5t-6.5 35.5l-1 354l-69 18v42l167 26l8 -5zM-28 617q0 24 17 41t41 17q25 0 41.5 -17t16.5 -41t-16.5 -41t-41.5 -17q-24 0 -41 17t-17 41zM232 617q0 24 16.5 41t41.5 17q24 0 41 -17t17 -41
t-17 -41t-41 -17q-25 0 -41.5 17t-16.5 41zM175 755l86 -47l-126 -185l-51 27z" />
    <glyph glyph-name="Alpha" unicode="&#x391;" horiz-adv-x="715" 
d="M460 216h-240l-48 -144l94 -21l-1 -51h-255l-2 50l76 22l192 500q11 29 21.5 57.5t19.5 59.5l86 16l6 -3l243 -631l58 -20l-3 -51h-276l-3 49l83 24zM284 405l-43 -126h197l-44 127l-53 153h-5z" />
    <glyph glyph-name="Beta" unicode="&#x392;" horiz-adv-x="679" 
d="M44 642l6 47q32 -1 60.5 -1.5t57.5 -0.5q49 0 106 1t104 1q65 0 105.5 -17t63 -41t30.5 -51t8 -47q0 -30 -11.5 -55t-29.5 -43t-39 -29t-40 -15v-4q75 -14 119.5 -62t44.5 -123q0 -45 -17 -82t-46.5 -63.5t-69.5 -41.5t-86 -15q-51 0 -105 1.5t-108 1.5h-77t-81 -2l-4 45
l90 28v544zM312 408q52 1 83.5 14t48.5 29.5t23 34t6 28.5q0 55 -40 79.5t-106 24.5q-6 0 -17 -0.5t-23.5 -1t-25.5 -2t-22 -2.5v-526q10 -3 24 -5.5t28.5 -4.5t28 -3t23.5 -1q87 0 129 37.5t42 97.5q0 30 -10 55.5t-33 44.5t-61.5 30.5t-96.5 12.5l-8 50z" />
    <glyph glyph-name="Gamma" unicode="&#x393;" horiz-adv-x="583" 
d="M44 641l5 47q25 -1 61 -1.5t73 -0.5h69.5h52.5q34 0 63 0.5t56.5 1t56 1t63.5 1.5l11 -6l3 -189l-45 -7l-41 125h-46.5t-69 0.5t-69.5 0.5h-48v-541l98 -23l-2 -50h-298l-2 45l89 27v545z" />
    <glyph glyph-name="Epsilon" unicode="&#x395;" horiz-adv-x="633" 
d="M598 199l-25 -189l-11 -10q-36 0 -65.5 0.5l-59 1t-61.5 1t-73 0.5h-59.5t-69 -0.5t-70.5 -1t-64 -1.5l-5 45l90 27v545l-81 24l6 47q25 -1 61 -1.5t73 -0.5h69.5h52.5q34 0 62 0.5t55 1t55 1t63 1.5l11 -6l4 -189l-45 -7l-42 125h-229v-224l248 8v-79l-248 8v-250h53.5
t74 0.5t74 1t53.5 0.5l65 131z" />
    <glyph glyph-name="Zeta" unicode="&#x396;" horiz-adv-x="626" 
d="M565 0q-60 0 -126 0.5t-133.5 0.5t-133.5 -0.5t-127 -0.5l-15 50q5 7 24 33.5t46.5 65.5t60.5 86.5t67.5 96.5t68 96.5t60.5 86t45.5 65t23.5 33.5l-254 -2l-49 -130l-43 7l12 196l9 6q111 -2 234.5 -2t234.5 1l14 -52q-5 -7 -23.5 -33t-46 -64.5t-61 -86t-68 -96.5
t-68 -96.5t-61 -86.5t-46 -65.5t-23.5 -33.5q78 1 155 2t154 3l68 139l39 -9l-28 -202z" />
    <glyph glyph-name="Eta" unicode="&#x397;" horiz-adv-x="807" 
d="M43 687h297l2 -50l-94 -23v-222h306v222l-87 27l2 46h296l2 -50l-95 -23v-540l95 -23l-1 -51h-298l-3 46l89 28v251h-306v-251l94 -23l-2 -51h-298l-2 46l90 28v540l-89 27z" />
    <glyph glyph-name="Theta" unicode="&#x398;" horiz-adv-x="746" 
d="M240 391l269 4v-80l-269 6v70zM686 353q0 -75 -18 -142t-56 -117.5t-98.5 -80t-145.5 -29.5q-74 0 -131.5 25t-96.5 70.5t-59.5 110.5t-20.5 146q0 74 18 140.5t56 117t98.5 80.5t144.5 30q73 0 130.5 -25.5t97.5 -72t60.5 -111t20.5 -142.5zM371 631q-54 0 -90.5 -23
t-58.5 -61.5t-31.5 -88t-9.5 -102.5q0 -57 10 -110.5t32.5 -94.5t59.5 -65.5t91 -24.5t90.5 23t59.5 61t33 88.5t10 104.5q0 55 -10 108t-33 94t-60.5 66t-92.5 25z" />
    <glyph glyph-name="Iota" unicode="&#x399;" horiz-adv-x="423" 
d="M361 0h-299l-2 45l91 28v542l-91 27l2 45h299l2 -49l-97 -23v-542l97 -23z" />
    <glyph glyph-name="Kappa" unicode="&#x39a;" horiz-adv-x="718" 
d="M336 0h-299l-2 45l91 28v542l-91 27l2 45h299l2 -49l-97 -23v-542l97 -23zM695 34l-10 -35l-101 -22l-313 369v19l209 254l-70 22l2 48h237v-52q-47 -20 -86 -49t-75 -68l-124 -138z" />
    <glyph glyph-name="Lambda" unicode="&#x39b;" horiz-adv-x="706" 
d="M401 697q61 -158 121 -314t120 -314l58 -19q-1 -13 -1.5 -25.5t-0.5 -24.5h-275l-2 48l83 24l-127 359q-2 5 -8 23t-13.5 39t-14 39.5t-8.5 23.5h-5q-14 -42 -28.5 -85t-29.5 -85l-107 -315q24 -5 47.5 -10.5t47.5 -10.5l-2 -50h-250q-1 12 -1 24.5v24.5l79 22l169 441
q17 44 33.5 88t32.5 89q17 3 35.5 7t35.5 7z" />
    <glyph glyph-name="Mu" unicode="&#x39c;" horiz-adv-x="1030" 
d="M241 545l-4 -1l-21 -471l105 -22l-2 -51h-286l-2 49l102 26l42 539l-99 29l6 47q37 0 64.5 -0.5t53 -0.5h53t64.5 1q4 -17 8 -30.5t10 -27.5l106 -247l77 -186h7l83 203l123 288q43 -2 104.5 -1.5t121.5 1.5l2 -50l-100 -26l40 -540l96 -23l-2 -51h-306l-2 46l90 28
l-23 478h-5l-219 -522h-62z" />
    <glyph glyph-name="Nu" unicode="&#x39d;" horiz-adv-x="831" 
d="M625 193q0 40 -1 96t-2 115.5t-2 115.5t-2 96l-96 25l2 46h276l2 -50l-101 -23q-1 -34 -2 -83t-1.5 -106t-1.5 -117.5t-2 -117.5t-2 -106.5t-1 -83.5l-60 -14l-264 351l-154 209l-3 -1l5 -473l102 -21l-2 -51h-285l-2 47l103 28l11 538l-102 29l7 47q73 -2 131 -1.5
t87 1.5q17 -35 37 -61l203 -275l117 -160h3z" />
    <glyph glyph-name="Xi" unicode="&#x39e;" horiz-adv-x="647" 
d="M73 212l54 -114l391 7l54 107l40 -10l-25 -192l-11 -10q-36 0 -57 0.5t-44 1t-55.5 1t-90.5 0.5q-59 0 -93.5 -0.5t-59 -1t-47.5 -1t-59 -0.5l-11 10l-25 192zM501 590l-357 6l-34 -110l-46 6l4 192l11 6q35 -1 65 -1.5t59 -1.5t59 -1h66q14 0 49 0.5t73.5 1t71.5 1.5
t44 1l11 -6l4 -192l-46 -6zM138 399l368 4v-88l-367 7z" />
    <glyph glyph-name="Omicron" unicode="&#x39f;" horiz-adv-x="746" 
d="M686 353q0 -75 -18 -142t-56 -117.5t-98.5 -80t-145.5 -29.5q-149 0 -228.5 92t-79.5 260q0 74 18 140.5t56 117t98.5 80.5t144.5 30q73 0 130.5 -25t97.5 -70.5t60.5 -110.5t20.5 -145zM371 631q-54 0 -90.5 -23t-58.5 -61.5t-31.5 -88t-9.5 -102.5q0 -66 10 -120.5
t32.5 -93t59.5 -60t91 -21.5t90.5 23t59.5 61t33 88.5t10 104.5q0 60 -10 113.5t-33 93.5t-60.5 63t-92.5 23z" />
    <glyph glyph-name="Pi" unicode="&#x3a0;" horiz-adv-x="803" 
d="M43 687q91 -1 180.5 -1.5t180.5 -0.5q90 0 178.5 0.5t178.5 1.5l2 -49l-95 -23v-542l95 -23l-1 -50h-295l-3 45l89 28v540h-308v-540l94 -23l-2 -50h-295l-2 45l90 28v542l-89 27z" />
    <glyph glyph-name="Rho" unicode="&#x3a1;" horiz-adv-x="633" 
d="M49 688q16 0 29.5 -0.5t27.5 -0.5t31.5 -0.5t41.5 -0.5q47 0 95 1.5t94 1.5q52 0 95.5 -11.5t74.5 -36t48 -62t17 -88.5q0 -44 -16 -83.5t-48.5 -69.5t-81 -47.5t-112.5 -17.5q-17 0 -45 1.5t-62 8.5v-210l97 -22l-1 -51h-297l-2 45l89 28v545l-82 24zM483 481
q0 74 -46 106t-124 32q-37 0 -75 -8v-260q19 -3 38.5 -4.5t29.5 -1.5q54 0 88.5 12t54 31.5t27 44t7.5 48.5z" />
    <glyph glyph-name="Sigma" unicode="&#x3a3;" horiz-adv-x="622" 
d="M369 367l-215 -290q39 0 82 0.5t87 1.5t86.5 2t80.5 2l66 136l40 -9l-26 -202l-10 -8q-60 0 -126 0.5t-133 0.5t-133 -0.5t-127 -0.5l-15 53q6 6 23.5 28t41 51t50.5 62t50.5 62t41 50.5t22.5 28.5l-220 292l15 62q55 0 117 -0.5t125 -0.5t125 0.5t117 1.5l9 -6l10 -196
l-43 -7l-47 127l-260 5l166 -224v-22z" />
    <glyph glyph-name="Tau" unicode="&#x3a4;" horiz-adv-x="633" 
d="M316 686q75 0 146 1t145 3l13 -7l3 -196l-45 -6l-46 139h-158v-547l97 -24l-2 -49h-299l-3 44l92 29v547h-158l-46 -139l-45 6l3 196l13 7q72 -2 141 -3t149 -1z" />
    <glyph glyph-name="Upsilon" unicode="&#x3a5;" horiz-adv-x="637" 
d="M348 369l126 244l-90 24l2 50l244 1l2 -51q-24 -10 -42 -22.5t-33 -28.5t-29.5 -37t-30.5 -49l-113 -195v-231l96 -23l-1 -51h-303l-2 46l91 28v206l-184 335l-76 24l3 49h190q2 -26 9 -50t21 -50l114 -219h6z" />
    <glyph glyph-name="Phi" unicode="&#x3a6;" horiz-adv-x="808" 
d="M554 0h-298l-2 45l91 28v41q-74 4 -129 23t-91 50t-54 71.5t-18 87.5q0 42 16 83t50.5 74.5t90 56t135.5 27.5v28l-91 27l2 45h298l1 -49l-96 -23v-28q76 -4 131.5 -23.5t92 -50.5t54 -71t17.5 -85q0 -40 -15.5 -80.5t-50.5 -75t-91.5 -58t-137.5 -29.5v-41l96 -23z
M644 353q0 33 -11 62t-34 51.5t-58 37t-83 18.5v-338q48 4 83 18.5t58 37t34 51.5t11 62zM165 359q0 -75 44.5 -122t135.5 -55v338q-47 -5 -81 -19t-56 -35.5t-32.5 -48.5t-10.5 -58z" />
    <glyph glyph-name="Chi" unicode="&#x3a7;" horiz-adv-x="672" 
d="M110 616l-75 23l6 48h37h57h57h37q2 -16 7.5 -33.5t12 -34t14.5 -31t14 -23.5l79 -126l109 181l-75 20l3 49h47.5h75.5h75.5h47.5l1 -51q-29 -9 -51.5 -23.5t-41 -32t-34.5 -37.5t-31 -41l-86 -124l187 -301l79 -27l-3 -52h-276l-3 50l67 20l-125 206l-122 -208l70 -19
l-3 -49h-49h-79h-78.5h-48.5l-2 51q31 8 55.5 20t44 28t36 36.5t33.5 44.5l103 156z" />
    <glyph glyph-name="Psi" unicode="&#x3a8;" horiz-adv-x="910" 
d="M606 0h-300l-1 45l90 28v130q-63 3 -116 21t-91.5 50.5t-60 79t-21.5 107.5l1 153l-87 28l2 45h182l11 -15v-199q0 -37 6.5 -71t26 -61t55 -44.5t92.5 -21.5v341l-87 26l2 45h293l1 -49l-93 -22v-341q54 3 89 19t55.5 42t28.5 61t8 76v197l13 17h179l2 -45l-87 -28
l1 -153q0 -60 -22.5 -107.5t-62 -80.5t-92 -51t-112.5 -19v-130l96 -23z" />
    <glyph glyph-name="Omega" unicode="&#x3a9;" horiz-adv-x="793" 
d="M399 705q75 0 133 -27t97.5 -73.5t60.5 -109.5t21 -135q0 -50 -11.5 -93.5t-30 -79.5t-42 -63.5t-46.5 -46.5l88 4l39 81l41 -9l-17 -143l-11 -10q-49 1 -73.5 1h-41.5h-20h-24t-33.5 -0.5t-46.5 -0.5q-5 16 -8.5 32t-7.5 32q38 30 62.5 64.5t38.5 72.5t19.5 80.5
t5.5 87.5q0 55 -14 102.5t-39.5 83t-62 56t-82.5 20.5q-94 0 -142.5 -67t-48.5 -196q0 -45 5.5 -88t19.5 -81.5t38 -72.5t61 -62q-5 -17 -9.5 -33t-9.5 -31q-34 1 -63 1h-60h-53.5t-59.5 -1l-12 10l-16 142q10 3 20 5t21 4l39 -81q10 0 18.5 -0.5t18.5 -1t22 -1t29 -1.5
q-24 19 -47.5 47t-42 64t-29.5 79.5t-11 92.5q0 70 21 133t61 110t99 75t136 28z" />
    <glyph glyph-name="Iotadieresis" unicode="&#x3aa;" horiz-adv-x="423" 
d="M361 0h-299l-2 45l91 28v542l-91 27l2 45h299l2 -49l-97 -23v-542l97 -23zM51 799q0 24 17 41t42 17q24 0 41 -17t17 -41t-17 -41t-41 -17q-25 0 -42 17t-17 41zM254 799q0 24 17 41t41 17q25 0 42 -17t17 -41t-17 -41t-42 -17q-24 0 -41 17t-17 41z" />
    <glyph glyph-name="Upsilondieresis" unicode="&#x3ab;" horiz-adv-x="637" 
d="M348 369l126 244l-90 24l2 50l244 1l2 -51q-24 -10 -42 -22.5t-33 -28.5t-29.5 -37t-30.5 -49l-113 -195v-231l96 -23l-1 -51h-303l-2 46l91 28v206l-184 335l-76 24l3 49h190q2 -26 9 -50t21 -50l114 -219h6zM158 799q0 24 17 41t42 17q24 0 41 -17t17 -41t-17 -41
t-41 -17q-25 0 -42 17t-17 41zM361 799q0 24 17 41t41 17q25 0 42 -17t17 -41t-17 -41t-42 -17q-24 0 -41 17t-17 41z" />
    <glyph glyph-name="alphatonos" unicode="&#x3ac;" horiz-adv-x="604" 
d="M349 752l77 -62l-159 -158l-45 35zM503 491q-3 -36 -4 -59.5t-1 -50.5v-305l80 -17v-42q-22 -14 -54 -22t-60 -8q-11 0 -22.5 1.5t-21.5 8t-17.5 21.5t-9.5 42l-2 1l-68 -63q-45 -12 -85 -12q-55 0 -92.5 19.5t-61 53t-34 77.5t-10.5 94q0 46 11 94t37.5 87t71 63.5
t110.5 24.5q34 0 70.5 -9t73.5 -32l42 44zM152 246q0 -35 5.5 -66.5t18.5 -55.5t35.5 -38t57.5 -14q31 0 64.5 12.5t56.5 26.5l1 292q-24 10 -53 15t-55 5q-62 0 -96.5 -45.5t-34.5 -131.5z" />
    <glyph glyph-name="epsilontonos" unicode="&#x3ad;" horiz-adv-x="465" 
d="M256 499q34 0 65.5 -5.5t55.5 -16.5t38 -26.5t14 -35.5q0 -23 -15.5 -40t-37.5 -26l-121 90q-40 -1 -69 -24.5t-29 -63.5q0 -25 12 -38t32 -19t46 -7t55 -1l8 -8l-17 -58h-17q-65 0 -94 -19.5t-29 -51.5q0 -35 29.5 -58t104.5 -23q58 0 142 26l21 -52q-20 -14 -46 -24
t-54.5 -17.5t-57.5 -11t-54 -3.5q-54 0 -92.5 11t-63 30.5t-35.5 45t-11 54.5q0 16 5.5 34.5t16.5 35.5t27.5 31t39.5 20v1q-43 11 -63 40t-20 58q0 36 16 64.5t44.5 48t68 29.5t85.5 10zM304 752l77 -62l-159 -158l-45 35z" />
    <glyph glyph-name="etatonos" unicode="&#x3ae;" horiz-adv-x="637" 
d="M220 422l70 66q25 6 52.5 9t50.5 3q59 0 98.5 -34.5t39.5 -102.5v-287l79 -18v-41q-22 -13 -54 -21t-60 -8q-13 0 -26 3.5t-23 12.5t-16.5 23t-6.5 35v51t-0.5 78t-0.5 77.5v50.5q0 48 -17 70.5t-63 22.5q-29 0 -60.5 -10.5t-65.5 -29.5v-139t1 -168l72 -21l-1 -44h-251
l-2 42l76 27v347l-69 18v42l148 23q3 -1 9 -5l17 -71zM352 752l77 -62l-159 -158l-45 35z" />
    <glyph glyph-name="iotatonos" unicode="&#x3af;" horiz-adv-x="344" 
d="M225 76l79 -17v-42q-22 -14 -54 -22t-60 -8q-13 0 -25.5 4t-23 13t-17 23.5t-6.5 35.5l-1 354l-69 18v42l167 26l8 -5zM228 752l77 -62l-159 -158l-45 35z" />
    <glyph glyph-name="upsilondieresistonos" unicode="&#x3b0;" horiz-adv-x="586" 
d="M300 56q36 0 62 15t43 41.5t25 61.5t8 76q0 47 -7.5 79t-21 54t-31.5 36.5t-38 26.5q8 23 29 43t47 20q28 0 51.5 -17.5t41 -47.5t27.5 -70t10 -85q0 -60 -15.5 -114.5t-46.5 -96.5t-78 -66.5t-110 -24.5q-44 0 -81.5 10t-65.5 35t-43.5 66t-15.5 103v215l-65 18v44
l161 21l12 -9v-291q0 -75 26.5 -109t75.5 -34zM101 617q0 24 17 41t41 17q25 0 41.5 -17t16.5 -41t-16.5 -41t-41.5 -17q-24 0 -41 17t-17 41zM361 617q0 24 16.5 41t41.5 17q24 0 41 -17t17 -41t-17 -41t-41 -17q-25 0 -41.5 17t-16.5 41zM304 755l86 -47l-126 -185l-51 27
z" />
    <glyph glyph-name="alpha" unicode="&#x3b1;" horiz-adv-x="604" 
d="M503 491q-3 -36 -4 -59.5t-1 -50.5v-305l80 -17v-42q-22 -14 -54 -22t-60 -8q-11 0 -22.5 1.5t-21.5 8t-17.5 21.5t-9.5 42l-2 1l-68 -63q-45 -12 -85 -12q-55 0 -92.5 19.5t-61 53t-34 77.5t-10.5 94q0 46 11 94t37.5 87t71 63.5t110.5 24.5q34 0 70.5 -9t73.5 -32
l42 44zM152 246q0 -35 5.5 -66.5t18.5 -55.5t35.5 -38t57.5 -14q31 0 64.5 12.5t56.5 26.5l1 292q-24 10 -53 15t-55 5q-62 0 -96.5 -45.5t-34.5 -131.5z" />
    <glyph glyph-name="beta" unicode="&#x3b2;" horiz-adv-x="549" 
d="M54 479q0 43 13.5 86.5t41.5 77.5t69.5 55.5t97.5 21.5q57 0 93.5 -16.5t58.5 -42t30.5 -56.5t8.5 -60t-9 -53t-24 -42.5t-33.5 -31t-37.5 -18.5q42 -8 70.5 -27t46 -45t25 -57t7.5 -63q0 -47 -14.5 -87.5t-42.5 -70.5t-67.5 -47t-88.5 -17q-48 0 -81.5 7.5t-56.5 17.5
q2 -50 3.5 -88.5t1.5 -76.5v-22.5t-1 -22.5q-39 -21 -103 -29l-14 11q2 105 3.5 206t1.5 206q0 71 0.5 141.5t0.5 142.5zM239 425q56 6 85.5 33.5t29.5 87.5q0 55 -27.5 80t-64.5 25q-47 0 -74.5 -29t-27.5 -92q0 -60 -0.5 -116t-0.5 -110.5v-108.5t1 -110q27 -11 53.5 -16
t46.5 -5q63 0 99 37t36 112q0 69 -35.5 104.5t-118.5 35.5q-2 8 -6.5 25.5t-6.5 25.5z" />
    <glyph glyph-name="gamma" unicode="&#x3b3;" horiz-adv-x="519" 
d="M311 21q10 -63 16.5 -121.5t3.5 -115.5l-14 -15q-35 4 -65 13.5t-51 25.5q3 44 14 101t21 107q-33 117 -69.5 214t-69.5 171l-86 6l-9 42q30 23 66.5 38.5t60.5 15.5q38 0 59.5 -26.5t35.5 -75.5t28.5 -108.5t28.5 -131.5q9 35 23 81q15 49 32 95.5t35 83.5t37.5 59.5
t40.5 22.5q20 0 35.5 -17t15.5 -56q-27 -23 -53.5 -60.5t-51.5 -89.5t-46.5 -117t-37.5 -142z" />
    <glyph glyph-name="delta" unicode="&#x3b4;" horiz-adv-x="561" 
d="M276 -13q-67 0 -112 20.5t-72.5 53.5t-39.5 74.5t-12 84.5q0 78 37 139.5t115 99.5q-41 26 -64.5 53t-23.5 71q0 22 9 46.5t32.5 44.5t64 33.5t102.5 13.5q35 0 65 -6t52.5 -17t35.5 -26.5t13 -34.5q0 -23 -17.5 -39.5t-41.5 -26.5l-122 92q-25 -2 -41.5 -9.5t-27 -18
t-15 -22t-4.5 -21.5q0 -25 23 -44t58 -37.5t75 -40.5t75 -52.5t58 -74t23 -105.5q0 -54 -16.5 -100t-47.5 -79.5t-77 -52.5t-104 -19zM409 227q0 22 -3.5 48.5t-17.5 53.5t-42 51.5t-77 43.5q-54 -17 -85.5 -70t-31.5 -132q0 -81 33.5 -124.5t93.5 -43.5q32 0 56.5 13
t41 36.5t24.5 55t8 68.5z" />
    <glyph glyph-name="epsilon" unicode="&#x3b5;" horiz-adv-x="465" 
d="M256 499q34 0 65.5 -5.5t55.5 -16.5t38 -26.5t14 -35.5q0 -23 -15.5 -40t-37.5 -26l-121 90q-40 -1 -69 -24.5t-29 -63.5q0 -25 12 -38t32 -19t46 -7t55 -1l8 -8l-17 -58h-17q-65 0 -94 -19.5t-29 -51.5q0 -35 29.5 -58t104.5 -23q58 0 142 26l21 -52q-20 -14 -46 -24
t-54.5 -17.5t-57.5 -11t-54 -3.5q-54 0 -92.5 11t-63 30.5t-35.5 45t-11 54.5q0 16 5.5 34.5t16.5 35.5t27.5 31t39.5 20v1q-43 11 -63 40t-20 58q0 36 16 64.5t44.5 48t68 29.5t85.5 10z" />
    <glyph glyph-name="zeta" unicode="&#x3b6;" horiz-adv-x="442" 
d="M158 220q0 -20 3.5 -37.5t16.5 -33t37 -28.5t65 -23q41 -11 73.5 -19t55.5 -18t35.5 -24.5t12.5 -38.5q0 -21 -13.5 -44t-39 -45t-62.5 -41t-84 -32l-24 54q45 26 75.5 48.5t30.5 38.5q0 6 -10 11t-24 9.5t-31 8t-30 6.5q-99 24 -150 69t-51 129q0 49 23 104.5t61.5 110
t88.5 103t104 83.5l-2 3q-20 -3 -42.5 -5t-45.5 -2q-31 0 -60 3t-51 9t-35 16t-13 24q0 17 15 36.5t46 30.5q36 -23 91.5 -31.5t122.5 -8.5q5 0 24 1t41 2t41 2.5t23 1.5l15 -11l-8 -46q-59 -29 -117 -77.5t-104.5 -106t-75 -118.5t-28.5 -114z" />
    <glyph glyph-name="eta" unicode="&#x3b7;" horiz-adv-x="637" 
d="M220 422l70 66q25 6 52.5 9t50.5 3q59 0 98.5 -34.5t39.5 -102.5v-287l79 -18v-41q-22 -13 -54 -21t-60 -8q-13 0 -26 3.5t-23 12.5t-16.5 23t-6.5 35v51t-0.5 78t-0.5 77.5v50.5q0 48 -17 70.5t-63 22.5q-29 0 -60.5 -10.5t-65.5 -29.5v-139t1 -168l72 -21l-1 -44h-251
l-2 42l76 27v347l-69 18v42l148 23q3 -1 9 -5l17 -71z" />
    <glyph glyph-name="theta" unicode="&#x3b8;" horiz-adv-x="546" 
d="M506 357q0 -72 -10.5 -139t-37.5 -119t-72 -83t-114 -31q-74 0 -119.5 31.5t-70.5 83t-33.5 118t-8.5 136.5q0 75 11 141t38 116t72 79t113 29q73 0 118 -35t70.5 -88.5t34.5 -117t9 -121.5zM151 335q1 -68 6.5 -121t19.5 -89.5t37.5 -55.5t59.5 -19q38 0 62.5 21.5
t38 60t18.5 90.5t5 114zM397 400q-2 44 -7.5 89t-19 81.5t-37.5 59.5t-61 23q-39 0 -62.5 -22t-36.5 -58t-17.5 -81.5t-5.5 -92.5z" />
    <glyph glyph-name="iota" unicode="&#x3b9;" horiz-adv-x="344" 
d="M225 76l79 -17v-42q-22 -14 -54 -22t-60 -8q-13 0 -25.5 4t-23 13t-17 23.5t-6.5 35.5l-1 354l-69 18v42l167 26l8 -5z" />
    <glyph glyph-name="kappa" unicode="&#x3ba;" horiz-adv-x="556" 
d="M190 66l70 -23l-1 -43h-252l-2 42l79 28v29.5v62.5v80v81t-0.5 65.5t-0.5 33.5l-68 19v42l166 25l8 -4zM201 249v18l153 159l-57 22l1 40l215 7v-43q-86 -30 -157 -99l-69 -67l259 -256l-8 -30l-91 -24z" />
    <glyph glyph-name="lambda" unicode="&#x3bb;" horiz-adv-x="489" 
d="M264 650q38 -135 75 -268.5t77 -267.5q4 -14 8 -23t9 -14t12.5 -7t18.5 -2h12l10 -51q-14 -10 -35.5 -17t-45.5 -7q-29 0 -45 10t-26 25.5t-15 35.5t-11 41q-20 69 -39 138t-38 139h-2l-118 -381l-89 -11l-12 10l173 438q8 0 15 -0.5t15 -0.5l-50 177q-23 2 -44.5 3.5
t-44.5 3.5q-2 12 -4 24.5t-5 25.5q29 23 63.5 35t54.5 12q36 0 53.5 -17t27.5 -51z" />
    <glyph glyph-name="nu" unicode="&#x3bd;" horiz-adv-x="565" 
d="M312 128h5q2 5 10 27.5t19 53.5t23.5 66.5t23.5 66.5t19 53t11 28l-62 20v45q9 0 35.5 1t56.5 2t56.5 2t35.5 1l5 -44q-32 -25 -54 -62.5t-43 -85.5l-131 -304l-63 -13q-5 10 -19.5 44t-33.5 79t-40.5 96.5t-40.5 96.5t-33.5 78.5t-19.5 44.5l-52 18v45l169 7
q2 -24 9.5 -54.5t18.5 -58.5z" />
    <glyph glyph-name="xi" unicode="&#x3be;" horiz-adv-x="434" 
d="M280 719q35 0 66 -6t54.5 -17t37.5 -26.5t14 -34.5q0 -23 -14.5 -41.5t-37.5 -27.5q-32 23 -63.5 46.5t-63.5 46.5q-27 -1 -47 -11t-32.5 -26t-19 -37t-6.5 -43q0 -34 13 -55.5t38.5 -34t63.5 -17.5t89 -5l8 -9q-4 -15 -8.5 -29.5t-8.5 -29.5q-8 0 -15.5 0.5t-15.5 0.5
q-50 0 -85 -10t-56.5 -28t-31 -42.5t-9.5 -54.5q0 -21 5 -38t17.5 -32t33.5 -27.5t54 -24.5q38 -14 71 -25.5t57 -24t37.5 -28.5t13.5 -39q0 -40 -39 -81t-101 -73l-38 46q66 60 66 89q0 6 -9 12t-22.5 10.5t-28.5 8.5t-27 7q-95 24 -148.5 75.5t-53.5 136.5q0 21 5 46.5
t19 49.5t38.5 45t63.5 34v2q-57 19 -84 58.5t-27 87.5q0 41 16 73.5t46 55.5t72 35t93 12z" />
    <glyph glyph-name="omicron" unicode="&#x3bf;" horiz-adv-x="562" 
d="M522 246q0 -52 -14 -99t-44 -82.5t-76 -56.5t-110 -21q-66 0 -111.5 19.5t-73.5 53.5t-40.5 80.5t-12.5 99.5q0 54 16 101t47.5 82t77.5 55.5t106 20.5q57 0 101 -18.5t74 -52.5t45 -80.5t15 -101.5zM154 253q0 -30 4.5 -64.5t18 -64t38.5 -49.5t66 -20q38 0 63 15.5
t39.5 41t20.5 57.5t6 65q0 34 -6 69t-20.5 63.5t-39 47t-62.5 18.5t-63 -17.5t-39.5 -44t-20 -58t-5.5 -59.5z" />
    <glyph glyph-name="pi" unicode="&#x3c0;" horiz-adv-x="649" 
d="M528 76l79 -17v-42q-21 -14 -53 -22t-60 -8q-13 0 -26 4t-23.5 13t-17 23.5t-6.5 35.5v349q-4 0 -20 0.5t-37.5 1t-46 1t-46 1t-37 0.5h-19.5v-34.5v-65v-80v-79t0.5 -62.5t0.5 -30l72 -21l-2 -44h-250l-2 43l76 26v349q-3 0 -16.5 0.5t-29 1t-28.5 0.5h-16v62l10 7
l582 4l9 -10q-3 -22 -9.5 -42.5t-12.5 -30.5h-70z" />
    <glyph glyph-name="rho" unicode="&#x3c1;" horiz-adv-x="544" 
d="M284 500q63 0 105 -22.5t67 -58.5t35.5 -81.5t10.5 -90.5q0 -51 -13 -98.5t-40.5 -83.5t-70 -57.5t-102.5 -21.5t-122 23q4 -59 5 -108t1 -103q-17 -11 -45 -19t-61 -10l-16 11q2 65 3.5 132t2 128.5t1 114.5t0.5 92q0 50 16.5 95.5t47 80.5t75 56t100.5 21zM389 245
q0 30 -5 61.5t-18 57.5t-36 42.5t-58 16.5q-39 0 -62.5 -13.5t-36 -34t-16.5 -43t-4 -40.5v-215q22 -8 51 -12.5t57 -4.5q60 0 94 48.5t34 136.5z" />
    <glyph glyph-name="sigma1" unicode="&#x3c2;" horiz-adv-x="474" 
d="M157 258q0 -28 4.5 -49t18 -38t37.5 -31.5t62 -28.5q34 -12 62.5 -23t49.5 -24t32.5 -28.5t11.5 -37.5q0 -20 -10.5 -40t-29 -39.5t-44 -38t-56.5 -34.5l-38 46q66 60 66 89q0 5 -9.5 11t-23.5 12.5t-30 12.5t-28 10q-46 15 -81 33.5t-58 44t-35 59.5t-12 81q0 48 14 94
t43.5 81.5t75 57t108.5 21.5q34 0 63.5 -6t51.5 -17t34.5 -27t12.5 -35q0 -23 -15.5 -41.5t-37.5 -27.5l-120 90q-32 -5 -55 -21t-37 -40t-20.5 -54t-6.5 -62z" />
    <glyph glyph-name="sigma" unicode="&#x3c3;" horiz-adv-x="597" 
d="M450 411q39 -30 54.5 -75t16.5 -93q1 -50 -12 -96t-42.5 -81t-76.5 -56.5t-113 -21.5t-111.5 19.5t-73 53t-40 79t-12.5 97.5t16 98t47.5 80.5t77.5 54.5t105 20l284 3l9 -11q-3 -22 -9 -39.5t-14 -33.5q-19 0 -48.5 1.5t-55.5 3.5zM154 250q0 -30 4.5 -64t18 -63
t38 -48.5t65.5 -19.5q38 0 62.5 15.5t39 40.5t20.5 56.5t6 63.5q0 33 -6 67.5t-20 62.5t-39 45.5t-62 17.5q-38 0 -63 -17t-39 -42.5t-19.5 -56t-5.5 -58.5z" />
    <glyph glyph-name="tau" unicode="&#x3c4;" horiz-adv-x="438" 
d="M18 489l367 4l9 -10q-5 -24 -11 -42t-11 -28h-136v-273q0 -36 16 -55t55 -19q19 0 41.5 3.5t53.5 11.5q4 -14 8 -27.5t8 -27.5q-40 -20 -81.5 -29.5t-79.5 -9.5q-60 0 -94 27.5t-34 89.5v311q-38 1 -69.5 2t-51.5 3v62z" />
    <glyph glyph-name="upsilon" unicode="&#x3c5;" horiz-adv-x="586" 
d="M300 56q36 0 62 15t43 41.5t25 61.5t8 76q0 47 -7.5 79t-21 54t-31.5 36.5t-38 26.5q8 23 29 43t47 20q28 0 51.5 -17.5t41 -47.5t27.5 -70t10 -85q0 -60 -15.5 -114.5t-46.5 -96.5t-78 -66.5t-110 -24.5q-44 0 -81.5 10t-65.5 35t-43.5 66t-15.5 103v215l-65 18v44
l161 21l12 -9v-291q0 -75 26.5 -109t75.5 -34z" />
    <glyph glyph-name="phi" unicode="&#x3c6;" horiz-adv-x="709" 
d="M401 -16q1 -33 1.5 -56.5t1 -43.5t0.5 -39.5v-43.5q-20 -11 -44.5 -18t-56.5 -10l-15 11l5 199q-73 3 -121.5 23.5t-78 55t-41.5 80t-12 97.5q0 38 8.5 76.5t29.5 72.5t55.5 60.5t85.5 41.5l25 -52q-25 -15 -42 -32.5t-27.5 -40.5t-15.5 -53.5t-5 -71.5q0 -31 5.5 -63
t20.5 -59t41.5 -45t69.5 -20v217q0 37 4 74.5t23 65.5q23 35 64.5 62t95.5 27q50 0 86 -18.5t59.5 -50t34.5 -72.5t11 -87q0 -54 -18 -103.5t-52 -88.5t-84 -64t-114 -31zM401 52q46 3 76.5 22.5t48.5 49t25 64.5t7 69q0 29 -4 59.5t-14 56t-28 41.5t-46 16q-17 0 -29 -7.5
t-20 -19t-12 -25.5t-4 -28v-298z" />
    <glyph glyph-name="chi" unicode="&#x3c7;" horiz-adv-x="548" 
d="M380 -8q-11 18 -25 41t-29.5 47t-30.5 47.5t-28 43.5q-19 -26 -40 -55t-34 -49l65 -21l-2 -46h-244l-2 47q31 9 55.5 22t43 27.5t33.5 30t28 29.5l63 72q-32 47 -64.5 94t-66.5 98l-76 23v44l183 8q5 -33 20.5 -63t28.5 -51l38 -61q9 12 19 26t20 27.5t19 26t16 22.5
l-62 21l1 44q30 1 55.5 1.5t50 1.5t49.5 2t54 3l6 -48q-35 -20 -69 -51t-60 -60l-66 -74q31 -49 68.5 -102t69.5 -97l71 -18l-3 -45z" />
    <glyph glyph-name="psi" unicode="&#x3c8;" horiz-adv-x="727" 
d="M566 512q27 0 48.5 -16t36.5 -44.5t22.5 -67t7.5 -82.5q0 -58 -15.5 -112t-48 -96.5t-81.5 -70.5t-115 -34q0 -36 0.5 -72t0.5 -72q18 -6 38 -12.5t39 -11.5q0 -11 -0.5 -20.5t-0.5 -19.5h-256q-1 8 -1.5 19.5t-0.5 20.5q20 7 39.5 14t39.5 15v139q-54 4 -97 21t-73.5 47
t-47 72.5t-16.5 98.5v189q-17 4 -29.5 8.5t-29.5 8.5v43l153 21l12 -9v-243q0 -37 5.5 -69.5t19.5 -57t39 -41t64 -21.5q0 72 -0.5 146.5t-0.5 146.5v138.5v122.5q-14 4 -25 7t-25 6v41q38 6 72.5 12.5t72.5 12.5l8 -4v-629q40 6 69.5 24t48 45.5t27.5 63.5t9 78
q0 69 -21 113t-63 70q8 23 28.5 42t46.5 19z" />
    <glyph glyph-name="omega" unicode="&#x3c9;" horiz-adv-x="789" 
d="M437 364l11 -12q0 -41 -1 -81.5t-1 -85.5q0 -39 6 -63.5t16.5 -39t25.5 -19.5t34 -5q29 0 49.5 14.5t34 39t19.5 57.5t6 69q0 35 -3 65t-13.5 56t-32 47.5t-57.5 39.5l16 50q58 -10 97 -32.5t62 -55t33 -73t10 -86.5q0 -62 -18.5 -110.5t-51.5 -82.5t-79 -51.5
t-100 -17.5q-46 0 -78.5 24t-48.5 59q-8 -11 -23 -25t-33.5 -26.5t-41 -21t-45.5 -8.5q-41 0 -75.5 14t-60 44t-40 76t-14.5 109q0 106 48.5 175.5t148.5 88.5l16 -50q-58 -29 -78.5 -79.5t-20.5 -128.5q0 -38 4.5 -68.5t16.5 -52.5t32 -34t51 -12q16 0 31.5 5.5t27.5 20
t19.5 40t7.5 66.5v132l8 10z" />
    <glyph glyph-name="iotadieresis" unicode="&#x3ca;" horiz-adv-x="344" 
d="M225 76l79 -17v-42q-22 -14 -54 -22t-60 -8q-13 0 -25.5 4t-23 13t-17 23.5t-6.5 35.5l-1 354l-69 18v42l167 26l8 -5zM-5 617q0 24 17 41t42 17q24 0 41 -17t17 -41t-17 -41t-41 -17q-25 0 -42 17t-17 41zM198 617q0 24 17 41t41 17q25 0 42 -17t17 -41t-17 -41t-42 -17
q-24 0 -41 17t-17 41z" />
    <glyph glyph-name="upsilondieresis" unicode="&#x3cb;" horiz-adv-x="586" 
d="M300 56q36 0 62 15t43 41.5t25 61.5t8 76q0 47 -7.5 79t-21 54t-31.5 36.5t-38 26.5q8 23 29 43t47 20q28 0 51.5 -17.5t41 -47.5t27.5 -70t10 -85q0 -60 -15.5 -114.5t-46.5 -96.5t-78 -66.5t-110 -24.5q-44 0 -81.5 10t-65.5 35t-43.5 66t-15.5 103v215l-65 18v44
l161 21l12 -9v-291q0 -75 26.5 -109t75.5 -34zM123 617q0 24 17 41t42 17q24 0 41 -17t17 -41t-17 -41t-41 -17q-25 0 -42 17t-17 41zM326 617q0 24 17 41t41 17q25 0 42 -17t17 -41t-17 -41t-42 -17q-24 0 -41 17t-17 41z" />
    <glyph glyph-name="omicrontonos" unicode="&#x3cc;" horiz-adv-x="562" 
d="M522 246q0 -52 -14 -99t-44 -82.5t-76 -56.5t-110 -21q-66 0 -111.5 19.5t-73.5 53.5t-40.5 80.5t-12.5 99.5q0 54 16 101t47.5 82t77.5 55.5t106 20.5t104 -18.5t73 -52.5t43.5 -80.5t14.5 -101.5zM154 253q0 -36 4.5 -71.5t18 -63.5t38.5 -45.5t66 -17.5q38 0 63 15.5
t39.5 41t20.5 57.5t6 65q0 38 -6 73.5t-20.5 63.5t-39 44.5t-62.5 16.5t-63 -16.5t-39.5 -42.5t-20 -57.5t-5.5 -62.5zM361 752l77 -62l-159 -158l-45 35z" />
    <glyph glyph-name="upsilontonos" unicode="&#x3cd;" horiz-adv-x="586" 
d="M300 56q36 0 62 15t43 41.5t25 61.5t8 76q0 47 -7.5 79t-21 54t-31.5 36.5t-38 26.5q8 23 29 43t47 20q28 0 51.5 -17.5t41 -47.5t27.5 -70t10 -85q0 -60 -15.5 -114.5t-46.5 -96.5t-78 -66.5t-110 -24.5q-44 0 -81.5 10t-65.5 35t-43.5 66t-15.5 103v215l-65 18v44
l161 21l12 -9v-291q0 -75 26.5 -109t75.5 -34zM350 752l77 -62l-159 -158l-45 35z" />
    <glyph glyph-name="omegatonos" unicode="&#x3ce;" horiz-adv-x="789" 
d="M437 364l11 -12q0 -41 -1 -81.5t-1 -85.5q0 -39 6 -63.5t16.5 -39t25.5 -19.5t34 -5q29 0 49.5 14.5t34 39t19.5 57.5t6 69q0 35 -3 65t-13.5 56t-32 47.5t-57.5 39.5l16 50q58 -10 97 -32.5t62 -55t33 -73t10 -86.5q0 -62 -18.5 -110.5t-51.5 -82.5t-79 -51.5
t-100 -17.5q-46 0 -78.5 24t-48.5 59q-8 -11 -23 -25t-33.5 -26.5t-41 -21t-45.5 -8.5q-41 0 -75.5 14t-60 44t-40 76t-14.5 109q0 106 48.5 175.5t148.5 88.5l16 -50q-58 -29 -78.5 -79.5t-20.5 -128.5q0 -38 4.5 -68.5t16.5 -52.5t32 -34t51 -12q16 0 31.5 5.5t27.5 20
t19.5 40t7.5 66.5v132l8 10zM461 752l77 -62l-159 -158l-45 35z" />
    <glyph glyph-name="Delta" unicode="&#x394;" horiz-adv-x="706" 
d="M398 698l278 -648l-11 -50q-79 1 -158 1h-159q-75 0 -149.5 -0.5t-150.5 -0.5q-2 12 -5 24.5t-6 24.5l200 465q19 43 36.5 84t37.5 92l74 15zM244 357q-29 -72 -57.5 -142.5t-57.5 -141.5l396 4q-26 62 -50.5 123t-50.5 122l-95 239h-5z" />
    <glyph glyph-name="Delta" unicode="&#x2206;" horiz-adv-x="706" 
d="M398 698l278 -648l-11 -50q-79 1 -158 1h-159q-75 0 -149.5 -0.5t-150.5 -0.5q-2 12 -5 24.5t-6 24.5l200 465q19 43 36.5 84t37.5 92l74 15zM244 357q-29 -72 -57.5 -142.5t-57.5 -141.5l396 4q-26 62 -50.5 123t-50.5 122l-95 239h-5z" />
    <glyph glyph-name="integral" unicode="&#x222b;" horiz-adv-x="438" 
d="M312 751q18 0 34.5 -5.5t29 -14.5t20 -21t7.5 -26q0 -18 -9.5 -32t-26.5 -21l-101 51q-18 -17 -18 -85q0 -11 0.5 -23t1.5 -26l22 -360q5 -68 0 -132.5t-22 -114.5t-47.5 -81t-77.5 -31q-17 0 -34 5t-30 13.5t-21 20.5t-8 27q0 18 9.5 32t25.5 22l104 -52q8 5 14 21.5
t6 54.5q0 22 -3 55q-3 39 -6 86.5t-6 96t-6 94t-5 81.5t-3.5 58t-1.5 24q0 140 38.5 211.5t113.5 71.5z" />
    <glyph glyph-name="AE" unicode="&#xc6;" horiz-adv-x="1028" 
d="M375 689q33 -1 75 -1.5t85 -1t82.5 -0.5h66.5q34 0 65 0.5t61 1t60.5 1t65.5 1.5l11 -6l3 -189l-45 -7l-42 124h-227v-239l246 8v-80l-246 8v-232h53t73.5 0.5t73.5 1t53 0.5l65 130l39 -10l-25 -189l-11 -10q-36 0 -66 0.5t-59.5 1t-62 1t-73.5 0.5h-59.5t-69 -0.5
t-70.5 -1t-64 -1.5l-5 48l90 28v157h-237l-102 -164l86 -20l-2 -49h-255l-2 47l76 21l361 552l-74 19zM318 298h200v311l-6 -1z" />
    <glyph glyph-name="section" unicode="&#xa7;" horiz-adv-x="525" 
d="M247 599q0 -18 8 -36.5t20 -37.5t27 -37t30 -35q22 -25 45 -54t42 -62t31 -71t12 -80q0 -47 -16.5 -100.5t-49 -99t-80 -76t-109.5 -30.5q-48 0 -79 21t-31 51q0 21 15 37.5t35 23.5q30 -18 59 -36.5t59 -37.5q13 11 20 27.5t7 32.5q0 19 -7.5 39t-20 39.5t-28 38.5
t-30.5 37q-23 26 -46 55t-41.5 61.5t-30 70t-11.5 79.5q0 47 18 100.5t51 98.5t79 74.5t103 29.5q54 0 85 -21t31 -50q0 -21 -15 -37.5t-35 -24.5l-119 72q-14 -10 -21 -26.5t-7 -35.5zM179 567q-15 -23 -21.5 -50t-6.5 -52q0 -36 9.5 -67t25 -58t35 -51t39.5 -47
q19 -21 36 -41.5t30.5 -42t22 -44t8.5 -47.5v-16t-1 -16q1 0 1 -0.5t1 -0.5q14 23 21.5 47.5t7.5 50.5q0 35 -7 62.5t-20.5 53t-33.5 51t-45 55.5q-23 27 -40 51.5t-29.5 50t-20 52t-10.5 58.5z" />
    <glyph glyph-name="Circumflex" unicode="&#xf6c0;" horiz-adv-x="706" 
d="M363 824l-169 -103l-28 33l169 156h58l170 -155l-30 -34z" />
    <glyph glyph-name="commaaccent" unicode="&#xf6c3;" horiz-adv-x="724" 
d="M320 -118q0 28 20 48t51 20q35 0 54 -23.5t19 -57.5q0 -46 -32.5 -88.5t-89.5 -72.5l-21 29q26 20 37.5 39.5t16.5 42.5q-25 4 -40 22t-15 41z" />
    <glyph glyph-name="Caron" unicode="&#xf6ca;" horiz-adv-x="706" 
d="M526 917l30 -34l-170 -155h-59l-168 156l28 33q14 -9 36.5 -22.5l47.5 -28.5t48 -29t37 -23z" />
    <glyph glyph-name="DieresisAcute" unicode="&#xf6cc;" horiz-adv-x="706" 
d="M161 799q0 24 17 41t41 17t41 -17t17 -41t-17 -41t-41 -17t-41 17t-17 41zM465 799q0 24 17 41t41 17q25 0 41.5 -17t16.5 -41t-16.5 -41t-41.5 -17q-24 0 -41 17t-17 41zM427 950l73 -65l-167 -148l-44 37z" />
    <glyph glyph-name="DieresisGrave" unicode="&#xf6cd;" horiz-adv-x="706" 
d="M581 799q0 -24 -16.5 -41t-41.5 -17q-24 0 -41 17t-17 41t17 41t41 17q25 0 41.5 -17t16.5 -41zM277 799q0 -24 -17 -41t-41 -17t-41 17t-17 41t17 41t41 17t41 -17t17 -41zM453 774l-43 -37l-168 148l73 65z" />
    <glyph glyph-name="Grave" unicode="&#xf6ce;" horiz-adv-x="706" 
d="M430 775l-29 -49l-205 88l47 86z" />
    <glyph glyph-name="Hungarumlaut" unicode="&#xf6cf;" horiz-adv-x="706" 
d="M562 915l59 -79l-190 -116l-36 45zM390 915l60 -79l-190 -116l-37 45z" />
    <glyph glyph-name="Macron" unicode="&#xf6d0;" horiz-adv-x="706" 
d="M538 832v-77h-335v77h335z" />
    <glyph glyph-name="cyrBreve" unicode="&#xf6d1;" horiz-adv-x="706" 
d="M351 743q-30 0 -56 10.5t-47.5 27t-38 37t-26.5 40.5q0 1 0.5 1t0.5 1q18 9 37 18t38 19q21 -38 50.5 -61.5t50.5 -23.5q9 0 22 3t30.5 12t38 25t44.5 42l37 -30q-45 -66 -91 -93.5t-90 -27.5z" />
    <glyph glyph-name="cyrbreve" unicode="&#xf6d4;" horiz-adv-x="529" 
d="M244 546q-29 0 -55 10.5t-47.5 27t-38 37.5t-27.5 41l1 1q18 10 37 19t38 19q22 -38 51 -62t50 -24q9 0 22 3t30.5 12t38 25.5t44.5 42.5q9 -8 18.5 -15.5t18.5 -15.5q-44 -66 -90.5 -93.5t-90.5 -27.5z" />
    <glyph glyph-name="uniF6D9" unicode="&#xf6d9;" horiz-adv-x="974" 
d="M754 488l92 15l8 -5v-422l80 -17v-42q-22 -14 -54 -22t-60 -8q-13 0 -26 4t-23 13t-16.5 23.5t-6.5 35.5v418z" />
    <glyph glyph-name="uniF6DA" unicode="&#xf6da;" horiz-adv-x="604" 
d="M357 567l-45 -36l-196 196l81 67z" />
    <glyph glyph-name="uniF6DB" unicode="&#xf6db;" horiz-adv-x="604" 
d="M406 794l81 -67l-196 -196l-45 36z" />
    <glyph glyph-name="uniF6DC" unicode="&#xf6dc;" horiz-adv-x="592" 
d="M489 667q-6 -21 -15.5 -40t-23.5 -33.5t-33 -23.5t-43 -9q-27 0 -49 5.5t-41.5 12t-37.5 12t-38 5.5q-22 0 -43.5 -9t-36.5 -39l-35 9q4 14 12 34t22 38t35.5 31t52.5 13q20 0 42 -6t43.5 -12.5t41 -12.5t36.5 -6q23 0 41.5 7.5t35.5 35.5z" />
    <glyph glyph-name="Scaron" unicode="&#x160;" horiz-adv-x="598" 
d="M292 705q26 0 69.5 -5.5t93.5 -25.5l17 29h38l3 -214l-42 -5l-41 112q-30 16 -66.5 24.5t-71.5 8.5q-51 0 -81 -21t-30 -62q0 -38 50 -68.5t137 -68.5q40 -17 73.5 -36.5t58.5 -44.5t39 -57.5t14 -75.5q0 -42 -15.5 -80t-48 -67.5t-84 -46.5t-123.5 -17q-15 0 -36.5 1.5
t-44.5 5.5t-46 9.5t-41 14.5l-19 -30h-40l-6 235l43 5l39 -115q35 -27 77 -38t77 -11q77 0 112 30.5t35 75.5q0 27 -12 49t-34.5 40.5t-53.5 34.5t-68 31q-50 21 -87.5 41.5t-63.5 44t-39 52t-13 65.5q0 34 13.5 66.5t42 58t72 40.5t103.5 15zM470 917l30 -34l-170 -155h-59
l-168 156l28 33q14 -9 36.5 -22.5l47.5 -28.5t48 -29t37 -23z" />
    <glyph glyph-name="Zcaron" unicode="&#x17d;" horiz-adv-x="626" 
d="M565 0q-60 0 -126 0.5t-133.5 0.5t-133.5 -0.5t-127 -0.5l-15 50q5 7 24 33.5t46.5 65.5t60.5 86.5t67.5 96.5t68 96.5t60.5 86t45.5 65t23.5 33.5l-254 -2l-49 -130l-43 7l12 196l9 6q111 -2 234.5 -2t234.5 1l14 -52q-5 -7 -23.5 -33t-46 -64.5t-61 -86t-68 -96.5
t-68 -96.5t-61 -86.5t-46 -65.5t-23.5 -33.5q78 1 155 2t154 3l68 139l39 -9l-28 -202zM507 917l30 -34l-170 -155h-59l-168 156l28 33q14 -9 36.5 -22.5l47.5 -28.5t48 -29t37 -23z" />
    <glyph glyph-name="scaron" unicode="&#x161;" horiz-adv-x="469" 
d="M237 499q35 0 78.5 -7.5t81.5 -27.5q0 -33 -0.5 -65.5t-0.5 -65.5l-38 -4l-37 81q-23 14 -46.5 18.5t-37.5 4.5q-32 0 -52 -14t-20 -42q0 -14 6.5 -24.5t20.5 -19.5t35.5 -18t50.5 -21q36 -15 63.5 -29t47 -32t29.5 -41t10 -56q0 -32 -12.5 -59.5t-38.5 -47.5
t-66.5 -31.5t-95.5 -11.5q-48 0 -93 9.5t-74 26.5l-8 141q8 2 17.5 3.5t17.5 3.5l43 -89q21 -15 48.5 -21.5t47.5 -6.5q44 0 72.5 15.5t28.5 50.5q0 19 -8 32.5t-22.5 23.5t-33.5 18.5t-41 18.5q-29 13 -57 25.5t-50.5 29t-36 39t-13.5 55.5q0 27 10 52t31.5 44t56.5 30.5
t86 11.5zM406 737l29 -34l-170 -161h-58l-169 162l28 33q14 -9 37 -24t47.5 -31t47.5 -31t37 -24z" />
    <glyph glyph-name="zcaron" unicode="&#x17e;" horiz-adv-x="490" 
d="M444 -1q-56 0 -104.5 0.5t-96 0.5h-97t-106.5 -1l-15 43l70.5 94t76 101t75.5 100.5t69 93.5l-168 -4l-48 -92l-39 8l10 143l6 5q52 -1 96.5 -1.5t86.5 -0.5t86 0.5t96 1.5l16 -42q-32 -43 -68 -91l-73.5 -98t-75 -101t-72.5 -100l205 4l54 100l37 -7l-16 -152zM434 737
l29 -34l-170 -161h-58l-169 162l28 33q14 -9 37 -24t47.5 -31t47.5 -31t37 -24z" />
    <glyph glyph-name="Ydieresis" unicode="&#x178;" horiz-adv-x="637" 
d="M348 369l126 244l-90 24l2 50l244 1l2 -51q-24 -10 -42 -22.5t-33 -28.5t-29.5 -37t-30.5 -49l-113 -195v-231l96 -23l-1 -51h-303l-2 46l91 28v206l-184 335l-76 24l3 49h190q2 -26 9 -50t21 -50l114 -219h6zM164 799q0 24 17 41t42 17q24 0 41 -17t17 -41t-17 -41
t-41 -17q-25 0 -42 17t-17 41zM367 799q0 24 17 41t41 17q25 0 42 -17t17 -41t-17 -41t-42 -17q-24 0 -41 17t-17 41z" />
    <glyph glyph-name="Agrave" unicode="&#xc0;" horiz-adv-x="715" 
d="M460 216h-240l-48 -144l94 -21l-1 -51h-255l-2 50l76 22l192 500q11 29 21.5 57.5t19.5 59.5l86 16l6 -3l243 -631l58 -20l-3 -51h-276l-3 49l83 24zM284 405l-43 -126h197l-44 127l-53 153h-5zM408 775l-29 -49l-205 88l47 86z" />
    <glyph glyph-name="Aacute" unicode="&#xc1;" horiz-adv-x="715" 
d="M460 216h-240l-48 -144l94 -21l-1 -51h-255l-2 50l76 22l192 500q11 29 21.5 57.5t19.5 59.5l86 16l6 -3l243 -631l58 -20l-3 -51h-276l-3 49l83 24zM284 405l-43 -126h197l-44 127l-53 153h-5zM481 900l48 -86l-205 -88l-29 49z" />
    <glyph glyph-name="Acircumflex" unicode="&#xc2;" horiz-adv-x="715" 
d="M460 216h-240l-48 -144l94 -21l-1 -51h-255l-2 50l76 22l192 500q11 29 21.5 57.5t19.5 59.5l86 16l6 -3l243 -631l58 -20l-3 -51h-276l-3 49l83 24zM284 405l-43 -126h197l-44 127l-53 153h-5zM360 824l-169 -103l-28 33l169 156h58l170 -155l-30 -34z" />
    <glyph glyph-name="Atilde" unicode="&#xc3;" horiz-adv-x="715" 
d="M460 216h-240l-48 -144l94 -21l-1 -51h-255l-2 50l76 22l192 500q11 29 21.5 57.5t19.5 59.5l86 16l6 -3l243 -631l58 -20l-3 -51h-276l-3 49l83 24zM284 405l-43 -126h197l-44 127l-53 153h-5zM532 856q-3 -22 -11 -42.5t-21 -36t-31.5 -24.5t-43.5 -9q-24 0 -43.5 6.5
t-36 14t-32 14t-33.5 6.5q-20 0 -36.5 -8.5t-29.5 -37.5l-38 8q2 13 7.5 33t17.5 38.5t32 31.5t50 13q19 0 38.5 -7t38.5 -15.5t37 -15.5t33 -7q22 0 36.5 8.5t28.5 35.5z" />
    <glyph glyph-name="Adieresis" unicode="&#xc4;" horiz-adv-x="715" 
d="M460 216h-240l-48 -144l94 -21l-1 -51h-255l-2 50l76 22l192 500q11 29 21.5 57.5t19.5 59.5l86 16l6 -3l243 -631l58 -20l-3 -51h-276l-3 49l83 24zM284 405l-43 -126h197l-44 127l-53 153h-5zM198 799q0 24 17 41t42 17q24 0 41 -17t17 -41t-17 -41t-41 -17
q-25 0 -42 17t-17 41zM401 799q0 24 17 41t41 17q25 0 42 -17t17 -41t-17 -41t-42 -17q-24 0 -41 17t-17 41z" />
    <glyph glyph-name="Aring" unicode="&#xc5;" horiz-adv-x="715" 
d="M460 216h-240l-48 -144l94 -21l-1 -51h-255l-2 50l76 22l192 500q11 29 21.5 57.5t19.5 59.5l86 16l6 -3l243 -631l58 -20l-3 -51h-276l-3 49l83 24zM284 405l-43 -126h197l-44 127l-53 153h-5zM356 716q-24 0 -45 8.5t-36 23.5t-24 35t-9 43q0 22 9 42t24 35t36 24t45 9
q23 0 43 -9t35 -24t23.5 -35t8.5 -42q0 -23 -8.5 -43t-23.5 -35t-35 -23.5t-43 -8.5zM356 883q-24 0 -40.5 -17.5t-16.5 -39.5t16.5 -39t40.5 -17q21 0 37 17t16 39q0 21 -16 39t-37 18z" />
    <glyph glyph-name="Egrave" unicode="&#xc8;" horiz-adv-x="633" 
d="M598 199l-25 -189l-11 -10q-36 0 -65.5 0.5l-59 1t-61.5 1t-73 0.5h-59.5t-69 -0.5t-70.5 -1t-64 -1.5l-5 45l90 27v545l-81 24l6 47q25 -1 61 -1.5t73 -0.5h69.5h52.5q34 0 62 0.5t55 1t55 1t63 1.5l11 -6l4 -189l-45 -7l-42 125h-229v-224l248 8v-79l-248 8v-250h53.5
t74 0.5t74 1t53.5 0.5l65 131zM412 775l-29 -49l-205 88l47 86z" />
    <glyph glyph-name="Eacute" unicode="&#xc9;" horiz-adv-x="633" 
d="M598 199l-25 -189l-11 -10q-36 0 -65.5 0.5l-59 1t-61.5 1t-73 0.5h-59.5t-69 -0.5t-70.5 -1t-64 -1.5l-5 45l90 27v545l-81 24l6 47q25 -1 61 -1.5t73 -0.5h69.5h52.5q34 0 62 0.5t55 1t55 1t63 1.5l11 -6l4 -189l-45 -7l-42 125h-229v-224l248 8v-79l-248 8v-250h53.5
t74 0.5t74 1t53.5 0.5l65 131zM404 900l48 -86l-205 -88l-29 49z" />
    <glyph glyph-name="Ecircumflex" unicode="&#xca;" horiz-adv-x="633" 
d="M598 199l-25 -189l-11 -10q-36 0 -65.5 0.5l-59 1t-61.5 1t-73 0.5h-59.5t-69 -0.5t-70.5 -1t-64 -1.5l-5 45l90 27v545l-81 24l6 47q25 -1 61 -1.5t73 -0.5h69.5h52.5q34 0 62 0.5t55 1t55 1t63 1.5l11 -6l4 -189l-45 -7l-42 125h-229v-224l248 8v-79l-248 8v-250h53.5
t74 0.5t74 1t53.5 0.5l65 131zM313 824l-169 -103l-28 33l169 156h58l170 -155l-30 -34z" />
    <glyph glyph-name="Edieresis" unicode="&#xcb;" horiz-adv-x="633" 
d="M598 199l-25 -189l-11 -10q-36 0 -65.5 0.5l-59 1t-61.5 1t-73 0.5h-59.5t-69 -0.5t-70.5 -1t-64 -1.5l-5 45l90 27v545l-81 24l6 47q25 -1 61 -1.5t73 -0.5h69.5h52.5q34 0 62 0.5t55 1t55 1t63 1.5l11 -6l4 -189l-45 -7l-42 125h-229v-224l248 8v-79l-248 8v-250h53.5
t74 0.5t74 1t53.5 0.5l65 131zM378 799q0 24 17 41t41 17q25 0 42 -17t17 -41t-17 -41t-42 -17q-24 0 -41 17t-17 41zM175 799q0 24 17 41t42 17q24 0 41 -17t17 -41t-17 -41t-41 -17q-25 0 -42 17t-17 41z" />
    <glyph glyph-name="Igrave" unicode="&#xcc;" horiz-adv-x="423" 
d="M361 0h-299l-2 45l91 28v542l-91 27l2 45h299l2 -49l-97 -23v-542l97 -23zM261 775l-29 -49l-205 88l47 86z" />
    <glyph glyph-name="Iacute" unicode="&#xcd;" horiz-adv-x="423" 
d="M361 0h-299l-2 45l91 28v542l-91 27l2 45h299l2 -49l-97 -23v-542l97 -23zM331 900l48 -86l-205 -88l-29 49z" />
    <glyph glyph-name="Icircumflex" unicode="&#xce;" horiz-adv-x="423" 
d="M361 0h-299l-2 45l91 28v542l-91 27l2 45h299l2 -49l-97 -23v-542l97 -23zM207 824l-169 -103l-28 33l169 156h58l170 -155l-30 -34z" />
    <glyph glyph-name="Idieresis" unicode="&#xcf;" horiz-adv-x="423" 
d="M361 0h-299l-2 45l91 28v542l-91 27l2 45h299l2 -49l-97 -23v-542l97 -23zM47 799q0 24 17 41t42 17q24 0 41 -17t17 -41t-17 -41t-41 -17q-25 0 -42 17t-17 41zM250 799q0 24 17 41t41 17q25 0 42 -17t17 -41t-17 -41t-42 -17q-24 0 -41 17t-17 41z" />
    <glyph glyph-name="Eth" unicode="&#xd0;" horiz-adv-x="741" 
d="M56 374h67v243l-80 23l6 48q27 -1 43 -1.5t28.5 -1t25.5 -0.5h34q26 0 47 0.5t39.5 1.5t36.5 1.5t38 0.5q97 0 162.5 -29.5t105 -77.5t56 -108.5t16.5 -122.5q0 -30 -4.5 -68t-17.5 -77t-35.5 -76t-58.5 -66t-86.5 -46.5t-119.5 -17.5q-6 0 -28.5 0.5t-48.5 1t-49 1
t-29 0.5h-44.5h-36t-37 -0.5t-46.5 -1.5l-5 44l88 27v245h-67v57zM238 374h160v-57h-160v-238q20 -5 48 -6.5t50 -1.5q64 0 107.5 23.5t69.5 62.5t37.5 90t11.5 106q0 79 -20 130t-54.5 80.5t-80.5 41t-98 11.5q-19 0 -38.5 -0.5t-32.5 -2.5v-239z" />
    <glyph glyph-name="Ograve" unicode="&#xd2;" horiz-adv-x="746" 
d="M686 353q0 -75 -18 -142t-56 -117.5t-98.5 -80t-145.5 -29.5q-149 0 -228.5 92t-79.5 260q0 74 18 140.5t56 117t98.5 80.5t144.5 30q73 0 130.5 -25t97.5 -70.5t60.5 -110.5t20.5 -145zM371 631q-54 0 -90.5 -23t-58.5 -61.5t-31.5 -88t-9.5 -102.5q0 -66 10 -120.5
t32.5 -93t59.5 -60t91 -21.5t90.5 23t59.5 61t33 88.5t10 104.5q0 60 -10 113.5t-33 93.5t-60.5 63t-92.5 23zM448 775l-29 -49l-205 88l47 86z" />
    <glyph glyph-name="Oacute" unicode="&#xd3;" horiz-adv-x="746" 
d="M686 353q0 -75 -18 -142t-56 -117.5t-98.5 -80t-145.5 -29.5q-149 0 -228.5 92t-79.5 260q0 74 18 140.5t56 117t98.5 80.5t144.5 30q73 0 130.5 -25t97.5 -70.5t60.5 -110.5t20.5 -145zM371 631q-54 0 -90.5 -23t-58.5 -61.5t-31.5 -88t-9.5 -102.5q0 -66 10 -120.5
t32.5 -93t59.5 -60t91 -21.5t90.5 23t59.5 61t33 88.5t10 104.5q0 60 -10 113.5t-33 93.5t-60.5 63t-92.5 23zM469 900l48 -86l-205 -88l-29 49z" />
    <glyph glyph-name="Ocircumflex" unicode="&#xd4;" horiz-adv-x="746" 
d="M686 353q0 -75 -18 -142t-56 -117.5t-98.5 -80t-145.5 -29.5q-149 0 -228.5 92t-79.5 260q0 74 18 140.5t56 117t98.5 80.5t144.5 30q73 0 130.5 -25t97.5 -70.5t60.5 -110.5t20.5 -145zM371 631q-54 0 -90.5 -23t-58.5 -61.5t-31.5 -88t-9.5 -102.5q0 -66 10 -120.5
t32.5 -93t59.5 -60t91 -21.5t90.5 23t59.5 61t33 88.5t10 104.5q0 60 -10 113.5t-33 93.5t-60.5 63t-92.5 23zM371 824l-169 -103l-28 33l169 156h58l170 -155l-30 -34z" />
    <glyph glyph-name="Otilde" unicode="&#xd5;" horiz-adv-x="746" 
d="M686 353q0 -75 -18 -142t-56 -117.5t-98.5 -80t-145.5 -29.5q-149 0 -228.5 92t-79.5 260q0 74 18 140.5t56 117t98.5 80.5t144.5 30q73 0 130.5 -25t97.5 -70.5t60.5 -110.5t20.5 -145zM371 631q-54 0 -90.5 -23t-58.5 -61.5t-31.5 -88t-9.5 -102.5q0 -66 10 -120.5
t32.5 -93t59.5 -60t91 -21.5t90.5 23t59.5 61t33 88.5t10 104.5q0 60 -10 113.5t-33 93.5t-60.5 63t-92.5 23zM549 856q-3 -22 -11 -42.5t-21 -36t-31.5 -24.5t-43.5 -9q-24 0 -43.5 6.5t-36 14t-32 14t-33.5 6.5q-20 0 -36.5 -8.5t-29.5 -37.5l-38 8q2 13 7.5 33t17.5 38.5
t32 31.5t50 13q19 0 38.5 -7t38.5 -15.5t37 -15.5t33 -7q22 0 36.5 8.5t28.5 35.5z" />
    <glyph glyph-name="Odieresis" unicode="&#xd6;" horiz-adv-x="746" 
d="M686 353q0 -75 -18 -142t-56 -117.5t-98.5 -80t-145.5 -29.5q-149 0 -228.5 92t-79.5 260q0 74 18 140.5t56 117t98.5 80.5t144.5 30q73 0 130.5 -25t97.5 -70.5t60.5 -110.5t20.5 -145zM371 631q-54 0 -90.5 -23t-58.5 -61.5t-31.5 -88t-9.5 -102.5q0 -66 10 -120.5
t32.5 -93t59.5 -60t91 -21.5t90.5 23t59.5 61t33 88.5t10 104.5q0 60 -10 113.5t-33 93.5t-60.5 63t-92.5 23zM217 799q0 24 17 41t42 17q24 0 41 -17t17 -41t-17 -41t-41 -17q-25 0 -42 17t-17 41zM420 799q0 24 17 41t41 17q25 0 42 -17t17 -41t-17 -41t-42 -17
q-24 0 -41 17t-17 41z" />
    <glyph glyph-name="Oslash" unicode="&#xd8;" horiz-adv-x="746" 
d="M686 353q0 -75 -18 -142t-56 -117.5t-98.5 -80t-145.5 -29.5q-69 0 -123 21.5t-92 60.5l-57 -64l-33 32l60 67q-63 90 -63 235q0 74 18 140.5t56 117t98.5 80.5t144.5 30q66 0 119 -21t92 -59l62 69l32 -32l-63 -72q33 -45 50 -105t17 -131zM567 338q0 44 -6.5 85.5
t-20.5 76.5l-315 -352q23 -41 59 -64t90 -23t90.5 23t59.5 61t33 88.5t10 104.5zM371 631q-54 0 -90.5 -23t-58.5 -61.5t-31.5 -88t-9.5 -102.5q0 -44 5.5 -85t19.5 -76l313 352q-23 38 -59.5 61t-88.5 23z" />
    <glyph glyph-name="Ugrave" unicode="&#xd9;" horiz-adv-x="766" 
d="M565 614l-88 27l2 46h265l2 -50l-95 -23l-1 -393q0 -68 -23.5 -113.5t-62 -73t-88 -39.5t-102.5 -12q-50 0 -96 11.5t-81.5 38t-56.5 69t-21 104.5v407l-89 28l2 46h297l2 -50l-94 -23v-362q0 -39 5.5 -73.5t23 -60t50.5 -40t87 -14.5q52 0 83.5 16t49 43t23.5 63t6 75
v353zM448 775l-29 -49l-205 88l47 86z" />
    <glyph glyph-name="Uacute" unicode="&#xda;" horiz-adv-x="766" 
d="M565 614l-88 27l2 46h265l2 -50l-95 -23l-1 -393q0 -68 -23.5 -113.5t-62 -73t-88 -39.5t-102.5 -12q-50 0 -96 11.5t-81.5 38t-56.5 69t-21 104.5v407l-89 28l2 46h297l2 -50l-94 -23v-362q0 -39 5.5 -73.5t23 -60t50.5 -40t87 -14.5q52 0 83.5 16t49 43t23.5 63t6 75
v353zM515 900l48 -86l-205 -88l-29 49z" />
    <glyph glyph-name="Ucircumflex" unicode="&#xdb;" horiz-adv-x="766" 
d="M565 614l-88 27l2 46h265l2 -50l-95 -23l-1 -393q0 -68 -23.5 -113.5t-62 -73t-88 -39.5t-102.5 -12q-50 0 -96 11.5t-81.5 38t-56.5 69t-21 104.5v407l-89 28l2 46h297l2 -50l-94 -23v-362q0 -39 5.5 -73.5t23 -60t50.5 -40t87 -14.5q52 0 83.5 16t49 43t23.5 63t6 75
v353zM393 824l-169 -103l-28 33l169 156h58l170 -155l-30 -34z" />
    <glyph glyph-name="Udieresis" unicode="&#xdc;" horiz-adv-x="766" 
d="M565 614l-88 27l2 46h265l2 -50l-95 -23l-1 -393q0 -68 -23.5 -113.5t-62 -73t-88 -39.5t-102.5 -12q-50 0 -96 11.5t-81.5 38t-56.5 69t-21 104.5v407l-89 28l2 46h297l2 -50l-94 -23v-362q0 -39 5.5 -73.5t23 -60t50.5 -40t87 -14.5q52 0 83.5 16t49 43t23.5 63t6 75
v353zM238 799q0 24 17 41t42 17q24 0 41 -17t17 -41t-17 -41t-41 -17q-25 0 -42 17t-17 41zM441 799q0 24 17 41t41 17q25 0 42 -17t17 -41t-17 -41t-42 -17q-24 0 -41 17t-17 41z" />
    <glyph glyph-name="Yacute" unicode="&#xdd;" horiz-adv-x="637" 
d="M348 369l126 244l-90 24l2 50l244 1l2 -51q-24 -10 -42 -22.5t-33 -28.5t-29.5 -37t-30.5 -49l-113 -195v-231l96 -23l-1 -51h-303l-2 46l91 28v206l-184 335l-76 24l3 49h190q2 -26 9 -50t21 -50l114 -219h6zM430 900l48 -86l-205 -88l-29 49z" />
    <glyph glyph-name="Thorn" unicode="&#xde;" horiz-adv-x="635" 
d="M39 687h294l2 -49l-94 -23v-65h124q52 0 95 -12t74 -36t47.5 -59t16.5 -81q0 -41 -15 -78.5t-46 -66t-78 -45.5t-111 -17q-17 0 -45 1.5t-62 8.5v-92l94 -23l-2 -50h-295l-2 45l90 28v542l-89 27zM479 351q0 66 -42.5 97.5t-120.5 31.5q-41 0 -75 -7v-241q19 -3 38 -4.5
t30 -1.5q52 0 85.5 11.5t52 29.5t25.5 40t7 44z" />
    <glyph glyph-name="aacute" unicode="&#xe1;" horiz-adv-x="529" 
d="M326 64l-68 -64q-23 -6 -44.5 -9.5t-42.5 -3.5q-35 0 -61.5 10.5t-44.5 29t-27 43.5t-9 54q0 10 1.5 24.5t7 29.5t16 29.5t28.5 25.5q12 7 31 15t48 14.5t69.5 11t96.5 6.5v50q0 48 -21 65.5t-70 17.5q-24 0 -65.5 -5t-90.5 -19l-17 58q45 25 97 38.5t106 13.5
q81 0 124.5 -34.5t43.5 -124.5v-263l79 -17v-42q-21 -14 -53 -22t-60 -8q-11 0 -22.5 1.5t-22 9t-18 22.5t-9.5 42zM205 66q27 0 60 12t62 31v120q-64 -4 -101 -15.5t-55.5 -25.5t-23.5 -28.5t-5 -25.5q0 -31 15.5 -49.5t47.5 -18.5zM321 752l77 -62l-159 -158l-45 35z" />
    <glyph glyph-name="acircumflex" unicode="&#xe2;" horiz-adv-x="529" 
d="M326 64l-68 -64q-23 -6 -44.5 -9.5t-42.5 -3.5q-35 0 -61.5 10.5t-44.5 29t-27 43.5t-9 54q0 10 1.5 24.5t7 29.5t16 29.5t28.5 25.5q12 7 31 15t48 14.5t69.5 11t96.5 6.5v50q0 48 -21 65.5t-70 17.5q-24 0 -65.5 -5t-90.5 -19l-17 58q45 25 97 38.5t106 13.5
q81 0 124.5 -34.5t43.5 -124.5v-263l79 -17v-42q-21 -14 -53 -22t-60 -8q-11 0 -22.5 1.5t-22 9t-18 22.5t-9.5 42zM253 647l-169 -108l-28 33l169 162h58l170 -161l-29 -34zM205 66q27 0 60 12t62 31v120q-64 -4 -101 -15.5t-55.5 -25.5t-23.5 -28.5t-5 -25.5
q0 -31 15.5 -49.5t47.5 -18.5z" />
    <glyph glyph-name="atilde" unicode="&#xe3;" horiz-adv-x="529" 
d="M326 64l-68 -64q-23 -6 -44.5 -9.5t-42.5 -3.5q-35 0 -61.5 10.5t-44.5 29t-27 43.5t-9 54q0 10 1.5 24.5t7 29.5t16 29.5t28.5 25.5q12 7 31 15t48 14.5t69.5 11t96.5 6.5v50q0 48 -21 65.5t-70 17.5q-24 0 -65.5 -5t-90.5 -19l-17 58q45 25 97 38.5t106 13.5
q81 0 124.5 -34.5t43.5 -124.5v-263l79 -17v-42q-21 -14 -53 -22t-60 -8q-11 0 -22.5 1.5t-22 9t-18 22.5t-9.5 42zM205 66q27 0 60 12t62 31v120q-64 -4 -101 -15.5t-55.5 -25.5t-23.5 -28.5t-5 -25.5q0 -31 15.5 -49.5t47.5 -18.5zM428 680q-3 -22 -11 -42.5t-21 -36
t-31.5 -24.5t-43.5 -9q-24 0 -43.5 6.5t-36 14t-32 14t-33.5 6.5q-20 0 -36.5 -8.5t-29.5 -37.5l-38 8q2 13 7.5 33t17.5 38.5t32 31.5t50 13q19 0 38.5 -7t38.5 -15.5t37 -15.5t33 -7q22 0 36.5 8.5t28.5 35.5z" />
    <glyph glyph-name="adieresis" unicode="&#xe4;" horiz-adv-x="529" 
d="M326 64l-68 -64q-23 -6 -44.5 -9.5t-42.5 -3.5q-35 0 -61.5 10.5t-44.5 29t-27 43.5t-9 54q0 10 1.5 24.5t7 29.5t16 29.5t28.5 25.5q12 7 31 15t48 14.5t69.5 11t96.5 6.5v50q0 48 -21 65.5t-70 17.5q-24 0 -65.5 -5t-90.5 -19l-17 58q45 25 97 38.5t106 13.5
q81 0 124.5 -34.5t43.5 -124.5v-263l79 -17v-42q-21 -14 -53 -22t-60 -8q-11 0 -22.5 1.5t-22 9t-18 22.5t-9.5 42zM205 66q27 0 60 12t62 31v120q-64 -4 -101 -15.5t-55.5 -25.5t-23.5 -28.5t-5 -25.5q0 -31 15.5 -49.5t47.5 -18.5zM100 617q0 24 17 41t42 17q24 0 41 -17
t17 -41t-17 -41t-41 -17q-25 0 -42 17t-17 41zM303 617q0 24 17 41t41 17q25 0 42 -17t17 -41t-17 -41t-42 -17q-24 0 -41 17t-17 41z" />
    <glyph glyph-name="aring" unicode="&#xe5;" horiz-adv-x="529" 
d="M326 64l-68 -64q-23 -6 -44.5 -9.5t-42.5 -3.5q-35 0 -61.5 10.5t-44.5 29t-27 43.5t-9 54q0 10 1.5 24.5t7 29.5t16 29.5t28.5 25.5q12 7 31 15t48 14.5t69.5 11t96.5 6.5v50q0 48 -21 65.5t-70 17.5q-24 0 -65.5 -5t-90.5 -19l-17 58q45 25 97 38.5t106 13.5
q81 0 124.5 -34.5t43.5 -124.5v-263l79 -17v-42q-21 -14 -53 -22t-60 -8q-11 0 -22.5 1.5t-22 9t-18 22.5t-9.5 42zM205 66q27 0 60 12t62 31v120q-64 -4 -101 -15.5t-55.5 -25.5t-23.5 -28.5t-5 -25.5q0 -31 15.5 -49.5t47.5 -18.5zM264 547q-24 0 -45 8.5t-36 23.5t-24 35
t-9 43q0 22 9 42t24 35t36 24t45 9q23 0 43 -9t35 -24t23.5 -35t8.5 -42q0 -23 -8.5 -43t-23.5 -35t-35 -23.5t-43 -8.5zM264 714q-24 0 -40.5 -17.5t-16.5 -39.5t16.5 -39t40.5 -17q21 0 37 17t16 39q0 21 -16 39t-37 18z" />
    <glyph glyph-name="egrave" unicode="&#xe8;" horiz-adv-x="524" 
d="M279 499q66 0 106.5 -20.5t63.5 -53t31 -71.5t9 -76l-9 -11l-325 -17q0 -45 8 -79t26.5 -57t48 -34.5t73.5 -11.5q23 0 60.5 6.5t78.5 23.5l19 -53q-38 -26 -89 -42t-105 -16q-63 0 -108 17t-73 49.5t-41 79t-13 105.5q0 48 11 94.5t38 83.5t73 60t117 23zM362 318
q0 20 -3.5 40.5t-13.5 37t-28 27t-48 10.5q-34 0 -55.5 -13.5t-34 -34t-17.5 -44t-5 -44.5zM335 568l-47 -37l-158 159l78 63z" />
    <glyph glyph-name="eacute" unicode="&#xe9;" horiz-adv-x="524" 
d="M279 499q66 0 106.5 -20.5t63.5 -53t31 -71.5t9 -76l-9 -11l-325 -17q0 -45 8 -79t26.5 -57t48 -34.5t73.5 -11.5q23 0 60.5 6.5t78.5 23.5l19 -53q-38 -26 -89 -42t-105 -16q-63 0 -108 17t-73 49.5t-41 79t-13 105.5q0 48 11 94.5t38 83.5t73 60t117 23zM362 318
q0 20 -3.5 40.5t-13.5 37t-28 27t-48 10.5q-34 0 -55.5 -13.5t-34 -34t-17.5 -44t-5 -44.5zM351 752l77 -62l-159 -158l-45 35z" />
    <glyph glyph-name="ecircumflex" unicode="&#xea;" horiz-adv-x="524" 
d="M279 499q66 0 106.5 -20.5t63.5 -53t31 -71.5t9 -76l-9 -11l-325 -17q0 -45 8 -79t26.5 -57t48 -34.5t73.5 -11.5q23 0 60.5 6.5t78.5 23.5l19 -53q-38 -26 -89 -42t-105 -16q-63 0 -108 17t-73 49.5t-41 79t-13 105.5q0 48 11 94.5t38 83.5t73 60t117 23zM271 647
l-169 -108l-28 33l169 162h58l170 -161l-29 -34zM362 318q0 20 -3.5 40.5t-13.5 37t-28 27t-48 10.5q-34 0 -55.5 -13.5t-34 -34t-17.5 -44t-5 -44.5z" />
    <glyph glyph-name="edieresis" unicode="&#xeb;" horiz-adv-x="524" 
d="M279 499q66 0 106.5 -20.5t63.5 -53t31 -71.5t9 -76l-9 -11l-325 -17q0 -45 8 -79t26.5 -57t48 -34.5t73.5 -11.5q23 0 60.5 6.5t78.5 23.5l19 -53q-38 -26 -89 -42t-105 -16q-63 0 -108 17t-73 49.5t-41 79t-13 105.5q0 48 11 94.5t38 83.5t73 60t117 23zM362 318
q0 20 -3.5 40.5t-13.5 37t-28 27t-48 10.5q-34 0 -55.5 -13.5t-34 -34t-17.5 -44t-5 -44.5zM110 617q0 24 17 41t42 17q24 0 41 -17t17 -41t-17 -41t-41 -17q-25 0 -42 17t-17 41zM313 617q0 24 17 41t41 17q25 0 42 -17t17 -41t-17 -41t-42 -17q-24 0 -41 17t-17 41z" />
    <glyph glyph-name="igrave" unicode="&#xec;" horiz-adv-x="342" 
d="M225 65l77 -23l-1 -42h-259l-2 42l79 28v29v61.5v79v79.5t-0.5 64t-0.5 34l-68 18v42l166 26l9 -5v-433zM197 568l-47 -37l-158 159l78 63z" />
    <glyph glyph-name="iacute" unicode="&#xed;" horiz-adv-x="342" 
d="M225 65l77 -23l-1 -42h-259l-2 42l79 28v29v61.5v79v79.5t-0.5 64t-0.5 34l-68 18v42l166 26l9 -5v-433zM226 752l77 -62l-159 -158l-45 35z" />
    <glyph glyph-name="icircumflex" unicode="&#xee;" horiz-adv-x="342" 
d="M225 65l77 -23l-1 -42h-259l-2 42l79 28v29v61.5v79v79.5t-0.5 64t-0.5 34l-68 18v42l166 26l9 -5v-433zM160 647l-169 -108l-28 33l169 162h58l170 -161l-29 -34z" />
    <glyph glyph-name="idieresis" unicode="&#xef;" horiz-adv-x="342" 
d="M225 65l77 -23l-1 -42h-259l-2 42l79 28v29v61.5v79v79.5t-0.5 64t-0.5 34l-68 18v42l166 26l9 -5v-433zM-5 617q0 24 17 41t42 17q24 0 41 -17t17 -41t-17 -41t-41 -17q-25 0 -42 17t-17 41zM198 617q0 24 17 41t41 17q25 0 42 -17t17 -41t-17 -41t-42 -17q-24 0 -41 17
t-17 41z" />
    <glyph glyph-name="ntilde" unicode="&#xf1;" horiz-adv-x="635" 
d="M193 494l23 -73q1 0 1 -0.5t1 -0.5l72 68q25 6 52.5 9t50.5 3q67 0 102 -32t35 -105v-298l70 -21l-2 -44h-246l-1 43l72 25v251q0 48 -17 70.5t-63 22.5q-28 0 -60 -10.5t-66 -29.5v-139t1 -168l72 -21l-1 -44h-251l-2 42l76 27v347l-69 18v42q35 6 70.5 11t70.5 11z
M483 680q-3 -22 -11 -42.5t-21 -36t-31.5 -24.5t-43.5 -9q-24 0 -43.5 6.5t-36 14t-32 14t-33.5 6.5q-20 0 -36.5 -8.5t-29.5 -37.5l-38 8q2 13 7.5 33t17.5 38.5t32 31.5t50 13q19 0 38.5 -7t38.5 -15.5t37 -15.5t33 -7q22 0 36.5 8.5t28.5 35.5z" />
    <glyph glyph-name="ograve" unicode="&#xf2;" horiz-adv-x="562" 
d="M522 246q0 -52 -14 -99t-44 -82.5t-76 -56.5t-110 -21q-66 0 -111.5 19.5t-73.5 53.5t-40.5 80.5t-12.5 99.5q0 54 16 101t47.5 82t77.5 55.5t106 20.5t104 -18.5t73 -52.5t43.5 -80.5t14.5 -101.5zM154 253q0 -36 4.5 -71.5t18 -63.5t38.5 -45.5t66 -17.5q38 0 63 15.5
t39.5 41t20.5 57.5t6 65q0 38 -6 73.5t-20.5 63.5t-39 44.5t-62.5 16.5t-63 -16.5t-39.5 -42.5t-20 -57.5t-5.5 -62.5zM345 568l-47 -37l-158 159l78 63z" />
    <glyph glyph-name="oacute" unicode="&#xf3;" horiz-adv-x="562" 
d="M522 246q0 -52 -14 -99t-44 -82.5t-76 -56.5t-110 -21q-66 0 -111.5 19.5t-73.5 53.5t-40.5 80.5t-12.5 99.5q0 54 16 101t47.5 82t77.5 55.5t106 20.5t104 -18.5t73 -52.5t43.5 -80.5t14.5 -101.5zM154 253q0 -36 4.5 -71.5t18 -63.5t38.5 -45.5t66 -17.5q38 0 63 15.5
t39.5 41t20.5 57.5t6 65q0 38 -6 73.5t-20.5 63.5t-39 44.5t-62.5 16.5t-63 -16.5t-39.5 -42.5t-20 -57.5t-5.5 -62.5zM344 752l77 -62l-159 -158l-45 35z" />
    <glyph glyph-name="ocircumflex" unicode="&#xf4;" horiz-adv-x="562" 
d="M522 246q0 -52 -14 -99t-44 -82.5t-76 -56.5t-110 -21q-66 0 -111.5 19.5t-73.5 53.5t-40.5 80.5t-12.5 99.5q0 54 16 101t47.5 82t77.5 55.5t106 20.5t104 -18.5t73 -52.5t43.5 -80.5t14.5 -101.5zM154 253q0 -36 4.5 -71.5t18 -63.5t38.5 -45.5t66 -17.5q38 0 63 15.5
t39.5 41t20.5 57.5t6 65q0 38 -6 73.5t-20.5 63.5t-39 44.5t-62.5 16.5t-63 -16.5t-39.5 -42.5t-20 -57.5t-5.5 -62.5zM282 647l-169 -108l-28 33l169 162h58l170 -161l-29 -34z" />
    <glyph glyph-name="otilde" unicode="&#xf5;" horiz-adv-x="562" 
d="M522 246q0 -52 -14 -99t-44 -82.5t-76 -56.5t-110 -21q-66 0 -111.5 19.5t-73.5 53.5t-40.5 80.5t-12.5 99.5q0 54 16 101t47.5 82t77.5 55.5t106 20.5t104 -18.5t73 -52.5t43.5 -80.5t14.5 -101.5zM154 253q0 -36 4.5 -71.5t18 -63.5t38.5 -45.5t66 -17.5q38 0 63 15.5
t39.5 41t20.5 57.5t6 65q0 38 -6 73.5t-20.5 63.5t-39 44.5t-62.5 16.5t-63 -16.5t-39.5 -42.5t-20 -57.5t-5.5 -62.5zM453 680q-3 -22 -11 -42.5t-21 -36t-31.5 -24.5t-43.5 -9q-24 0 -43.5 6.5t-36 14t-32 14t-33.5 6.5q-20 0 -36.5 -8.5t-29.5 -37.5l-38 8q2 13 7.5 33
t17.5 38.5t32 31.5t50 13q19 0 38.5 -7t38.5 -15.5t37 -15.5t33 -7q22 0 36.5 8.5t28.5 35.5z" />
    <glyph glyph-name="odieresis" unicode="&#xf6;" horiz-adv-x="562" 
d="M522 246q0 -52 -14 -99t-44 -82.5t-76 -56.5t-110 -21q-66 0 -111.5 19.5t-73.5 53.5t-40.5 80.5t-12.5 99.5q0 54 16 101t47.5 82t77.5 55.5t106 20.5t104 -18.5t73 -52.5t43.5 -80.5t14.5 -101.5zM154 253q0 -36 4.5 -71.5t18 -63.5t38.5 -45.5t66 -17.5q38 0 63 15.5
t39.5 41t20.5 57.5t6 65q0 38 -6 73.5t-20.5 63.5t-39 44.5t-62.5 16.5t-63 -16.5t-39.5 -42.5t-20 -57.5t-5.5 -62.5zM118 617q0 24 17 41t42 17q24 0 41 -17t17 -41t-17 -41t-41 -17q-25 0 -42 17t-17 41zM321 617q0 24 17 41t41 17q25 0 42 -17t17 -41t-17 -41t-42 -17
q-24 0 -41 17t-17 41z" />
    <glyph glyph-name="oslash" unicode="&#xf8;" horiz-adv-x="562" 
d="M522 246q0 -52 -14 -99t-44 -82.5t-76 -56.5t-110 -21q-54 0 -94 13t-68 36l-46 -49l-29 28l46 50q-26 35 -36.5 79.5t-10.5 95.5q0 54 16 101t47.5 82t77.5 55.5t106 20.5q49 0 88.5 -13.5t68.5 -38.5l51 55l27 -29l-51 -56q26 -33 38.5 -76.5t12.5 -94.5zM154 253
q0 -21 2.5 -48.5t13.5 -53.5l206 226q-15 24 -38 39.5t-56 15.5q-38 0 -63 -17.5t-39.5 -44t-20 -58t-5.5 -59.5zM410 234q0 26 -4 52.5t-14 49.5l-206 -227q14 -24 37 -39t58 -15q38 0 63 15.5t39.5 41t20.5 57.5t6 65z" />
    <glyph glyph-name="ugrave" unicode="&#xf9;" horiz-adv-x="624" 
d="M436 -7l-23 73q-1 0 -2 1q-38 -36 -73 -67q-24 -6 -51.5 -9t-49.5 -3q-66 0 -102.5 30t-36.5 106v292q-17 5 -34 9.5t-34 9.5v42l165 22l9 -4q0 -82 0.5 -163.5t0.5 -164.5q0 -48 18 -71.5t62 -23.5q23 0 58 11t68 31v303l-69 18v43l166 22q3 -1 9 -5v-424q19 -5 38 -9
t39 -9v-43l-150 -20zM341 568l-47 -37l-158 159l78 63z" />
    <glyph glyph-name="uacute" unicode="&#xfa;" horiz-adv-x="624" 
d="M436 -7l-23 73q-1 0 -2 1q-38 -36 -73 -67q-24 -6 -51.5 -9t-49.5 -3q-66 0 -102.5 30t-36.5 106v292q-17 5 -34 9.5t-34 9.5v42l165 22l9 -4q0 -82 0.5 -163.5t0.5 -164.5q0 -48 18 -71.5t62 -23.5q23 0 58 11t68 31v303l-69 18v43l166 22q3 -1 9 -5v-424q19 -5 38 -9
t39 -9v-43l-150 -20zM363 752l77 -62l-159 -158l-45 35z" />
    <glyph glyph-name="ucircumflex" unicode="&#xfb;" horiz-adv-x="624" 
d="M436 -7l-23 73q-1 0 -2 1q-38 -36 -73 -67q-24 -6 -51.5 -9t-49.5 -3q-66 0 -102.5 30t-36.5 106v292q-17 5 -34 9.5t-34 9.5v42l165 22l9 -4q0 -82 0.5 -163.5t0.5 -164.5q0 -48 18 -71.5t62 -23.5q23 0 58 11t68 31v303l-69 18v43l166 22q3 -1 9 -5v-424q19 -5 38 -9
t39 -9v-43l-150 -20zM286 647l-169 -108l-28 33l169 162h58l170 -161l-29 -34z" />
    <glyph glyph-name="udieresis" unicode="&#xfc;" horiz-adv-x="624" 
d="M436 -7l-23 73q-1 0 -2 1q-38 -36 -73 -67q-24 -6 -51.5 -9t-49.5 -3q-66 0 -102.5 30t-36.5 106v292q-17 5 -34 9.5t-34 9.5v42l165 22l9 -4q0 -82 0.5 -163.5t0.5 -164.5q0 -48 18 -71.5t62 -23.5q23 0 58 11t68 31v303l-69 18v43l166 22q3 -1 9 -5v-424q19 -5 38 -9
t39 -9v-43l-150 -20zM337 617q0 24 17 41t41 17q25 0 42 -17t17 -41t-17 -41t-42 -17q-24 0 -41 17t-17 41zM134 617q0 24 17 41t42 17q24 0 41 -17t17 -41t-17 -41t-41 -17q-25 0 -42 17t-17 41z" />
    <glyph glyph-name="yacute" unicode="&#xfd;" horiz-adv-x="573" 
d="M315 95q29 83 57.5 164.5t57.5 163.5l-62 21q0 11 0.5 21.5t0.5 21.5l184 6q1 -11 2.5 -22t2.5 -22q-31 -23 -53.5 -61t-42.5 -86q-40 -97 -81 -193l-82 -192q-27 -66 -67.5 -106t-99.5 -40q-38 0 -65 16.5t-27 45.5q0 19 12 37t32 27l88 -50q16 3 28.5 12t21.5 21
t15.5 25t10.5 24l25 65l-36 4q-42 106 -83.5 212t-83.5 213l-52 18v45l169 7q2 -24 8 -54t17 -62q23 -72 49.5 -141.5t49.5 -140.5h4zM353 752l77 -62l-159 -158l-45 35z" />
    <glyph glyph-name="thorn" unicode="&#xfe;" horiz-adv-x="576" 
d="M186 -152l83 -24l-2 -43h-262l-2 42l77 27v785l-71 19v43l167 22l9 -6l1 -289h2l70 64q46 12 85 12q49 0 86 -19t61 -52t36 -78t12 -98q0 -56 -12.5 -104.5t-39.5 -84.5t-70 -57t-104 -21q-27 0 -60.5 5t-65.5 21v-164zM425 243q0 33 -6 64t-19.5 54.5t-35.5 37.5t-55 14
q-34 0 -65.5 -12t-55.5 -27v-288q20 -9 50.5 -14.5t56.5 -5.5q37 0 62 15.5t40 40.5t21.5 56.5t6.5 64.5z" />
    <glyph glyph-name="ydieresis" unicode="&#xff;" horiz-adv-x="573" 
d="M315 95q29 83 57.5 164.5t57.5 163.5l-62 21q0 11 0.5 21.5t0.5 21.5l184 6q1 -11 2.5 -22t2.5 -22q-31 -23 -53.5 -61t-42.5 -86q-40 -97 -81 -193l-82 -192q-27 -66 -67.5 -106t-99.5 -40q-38 0 -65 16.5t-27 45.5q0 19 12 37t32 27l88 -50q16 3 28.5 12t21.5 21
t15.5 25t10.5 24l25 65l-36 4q-42 106 -83.5 212t-83.5 213l-52 18v45l169 7q2 -24 8 -54t17 -62q23 -72 49.5 -141.5t49.5 -140.5h4zM332 617q0 24 17 41t41 17q25 0 42 -17t17 -41t-17 -41t-42 -17q-24 0 -41 17t-17 41zM129 617q0 24 17 41t42 17q24 0 41 -17t17 -41
t-17 -41t-41 -17q-25 0 -42 17t-17 41z" />
    <glyph glyph-name="Amacron" unicode="&#x100;" horiz-adv-x="715" 
d="M460 216h-240l-48 -144l94 -21l-1 -51h-255l-2 50l76 22l192 500q11 29 21.5 57.5t19.5 59.5l86 16l6 -3l243 -631l58 -20l-3 -51h-276l-3 49l83 24zM284 405l-43 -126h197l-44 127l-53 153h-5zM536 832v-77h-335v77h335z" />
    <glyph glyph-name="amacron" unicode="&#x101;" horiz-adv-x="529" 
d="M326 64l-68 -64q-23 -6 -44.5 -9.5t-42.5 -3.5q-35 0 -61.5 10.5t-44.5 29t-27 43.5t-9 54q0 10 1.5 24.5t7 29.5t16 29.5t28.5 25.5q12 7 31 15t48 14.5t69.5 11t96.5 6.5v50q0 48 -21 65.5t-70 17.5q-24 0 -65.5 -5t-90.5 -19l-17 58q45 25 97 38.5t106 13.5
q81 0 124.5 -34.5t43.5 -124.5v-263l79 -17v-42q-21 -14 -53 -22t-60 -8q-11 0 -22.5 1.5t-22 9t-18 22.5t-9.5 42zM205 66q27 0 60 12t62 31v120q-64 -4 -101 -15.5t-55.5 -25.5t-23.5 -28.5t-5 -25.5q0 -31 15.5 -49.5t47.5 -18.5zM422 662v-77h-334v77h334z" />
    <glyph glyph-name="Abreve" unicode="&#x102;" horiz-adv-x="715" 
d="M460 216h-240l-48 -144l94 -21l-1 -51h-255l-2 50l76 22l192 500q11 29 21.5 57.5t19.5 59.5l86 16l6 -3l243 -631l58 -20l-3 -51h-276l-3 49l83 24zM284 405l-43 -126h197l-44 127l-53 153h-5zM349 743q-30 0 -56 10.5t-47.5 27t-38 37t-26.5 40.5q0 1 0.5 1t0.5 1
q18 9 37 18t38 19q21 -38 50.5 -61.5t50.5 -23.5q9 0 22 3t30.5 12t38 25t44.5 42l37 -30q-45 -66 -91 -93.5t-90 -27.5z" />
    <glyph glyph-name="abreve" unicode="&#x103;" horiz-adv-x="529" 
d="M326 64l-68 -64q-23 -6 -44.5 -9.5t-42.5 -3.5q-35 0 -61.5 10.5t-44.5 29t-27 43.5t-9 54q0 10 1.5 24.5t7 29.5t16 29.5t28.5 25.5q12 7 31 15t48 14.5t69.5 11t96.5 6.5v50q0 48 -21 65.5t-70 17.5q-24 0 -65.5 -5t-90.5 -19l-17 58q45 25 97 38.5t106 13.5
q81 0 124.5 -34.5t43.5 -124.5v-263l79 -17v-42q-21 -14 -53 -22t-60 -8q-11 0 -22.5 1.5t-22 9t-18 22.5t-9.5 42zM205 66q27 0 60 12t62 31v120q-64 -4 -101 -15.5t-55.5 -25.5t-23.5 -28.5t-5 -25.5q0 -31 15.5 -49.5t47.5 -18.5zM256 548q-30 0 -56 10.5t-47.5 27
t-38 37.5t-26.5 41l1 1q18 10 37 19t38 19q21 -38 50.5 -62t50.5 -24q9 0 22 3t30.5 12t38 25.5t44.5 42.5q9 -8 18.5 -15.5t18.5 -15.5q-45 -66 -91 -93.5t-90 -27.5z" />
    <glyph glyph-name="Aogonek" unicode="&#x104;" horiz-adv-x="715" 
d="M460 216h-240l-48 -144l94 -21l-1 -51h-255l-2 50l76 22l192 500q11 29 21.5 57.5t19.5 59.5l86 16l6 -3l243 -631l58 -20l-3 -51h-117q-20 -25 -28 -50t-8 -47q0 -32 22.5 -43.5t49.5 -11.5q18 0 34.5 2.5t31.5 7.5l9 -36q-26 -13 -57.5 -21t-62.5 -8q-57 0 -82.5 22.5
t-25.5 54.5q0 26 12.5 60.5t50.5 69.5h-105l-3 49l83 24zM284 405l-43 -126h197l-44 127l-53 153h-5z" />
    <glyph glyph-name="aogonek" unicode="&#x105;" horiz-adv-x="529" 
d="M326 64l-68 -64q-23 -6 -44.5 -9.5t-42.5 -3.5q-35 0 -61.5 10.5t-44.5 29t-27 43.5t-9 54q0 10 1.5 24.5t7 29.5t16 29.5t28.5 25.5q12 7 31 15t48 14.5t69.5 11t96.5 6.5v50q0 48 -21 65.5t-70 17.5q-24 0 -65.5 -5t-90.5 -19l-17 58q45 25 97 38.5t106 13.5
q81 0 124.5 -34.5t43.5 -124.5v-263l79 -17v-42q-17 -11 -42.5 -18.5t-50.5 -10.5q-15 -23 -21.5 -44.5t-6.5 -41.5q0 -32 22.5 -43.5t49.5 -11.5q18 0 34.5 2.5t31.5 7.5l9 -36q-26 -13 -57.5 -21t-62.5 -8q-57 0 -82.5 22.5t-25.5 54.5q0 24 11.5 56t43.5 66
q-14 5 -24.5 20.5t-13.5 50.5zM205 66q27 0 60 12t62 31v120q-64 -4 -101 -15.5t-55.5 -25.5t-23.5 -28.5t-5 -25.5q0 -31 15.5 -49.5t47.5 -18.5z" />
    <glyph glyph-name="Cacute" unicode="&#x106;" horiz-adv-x="625" 
d="M60 333q0 67 16 133.5t52.5 119.5t95 86t143.5 33q38 0 77.5 -7t86.5 -33l22 39h41l3 -208l-44 -5l-38 98q-29 20 -62.5 28t-75.5 8q-54 0 -91.5 -22.5t-61 -61t-33.5 -90t-10 -109.5q0 -53 8 -102t31 -87t65 -60.5t110 -22.5q41 0 89.5 5.5t100.5 22.5l19 -65
q-51 -26 -114 -37.5t-116 -11.5q-155 0 -234.5 86.5t-79.5 262.5zM461 900l48 -86l-205 -88l-29 49z" />
    <glyph glyph-name="cacute" unicode="&#x107;" horiz-adv-x="480" 
d="M40 237q0 57 17 105t49 83t78 54.5t105 19.5q33 0 62.5 -6t51 -17t34 -27t12.5 -36q0 -23 -15.5 -41t-37.5 -27l-120 90q-33 -5 -56 -22.5t-37.5 -42.5t-20.5 -55.5t-6 -62.5q0 -45 7 -78.5t24.5 -56.5t47 -34.5t74.5 -11.5q11 0 26.5 2t32.5 5t34.5 7t32.5 9l19 -56
q-18 -13 -40.5 -22.5t-46.5 -16t-48 -9.5t-45 -3q-120 0 -177 61.5t-57 188.5zM339 752l77 -62l-159 -158l-45 35z" />
    <glyph glyph-name="Ccircumflex" unicode="&#x108;" horiz-adv-x="625" 
d="M60 333q0 67 16 133.5t52.5 119.5t95 86t143.5 33q38 0 77.5 -7t86.5 -33l22 39h41l3 -208l-44 -5l-38 98q-29 20 -62.5 28t-75.5 8q-54 0 -91.5 -22.5t-61 -61t-33.5 -90t-10 -109.5q0 -53 8 -102t31 -87t65 -60.5t110 -22.5q41 0 89.5 5.5t100.5 22.5l19 -65
q-51 -26 -114 -37.5t-116 -11.5q-155 0 -234.5 86.5t-79.5 262.5zM345 824l-169 -103l-28 33l169 156h58l170 -155l-30 -34z" />
    <glyph glyph-name="ccircumflex" unicode="&#x109;" horiz-adv-x="480" 
d="M40 237q0 57 17 105t49 83t78 54.5t105 19.5q33 0 62.5 -6t51 -17t34 -27t12.5 -36q0 -23 -15.5 -41t-37.5 -27l-120 90q-33 -5 -56 -22.5t-37.5 -42.5t-20.5 -55.5t-6 -62.5q0 -45 7 -78.5t24.5 -56.5t47 -34.5t74.5 -11.5q11 0 26.5 2t32.5 5t34.5 7t32.5 9l19 -56
q-18 -13 -40.5 -22.5t-46.5 -16t-48 -9.5t-45 -3q-120 0 -177 61.5t-57 188.5zM264 647l-169 -108l-28 33l169 162h58l170 -161l-29 -34z" />
    <glyph glyph-name="Cdotaccent" unicode="&#x10a;" horiz-adv-x="625" 
d="M60 333q0 67 16 133.5t52.5 119.5t95 86t143.5 33q38 0 77.5 -7t86.5 -33l22 39h41l3 -208l-44 -5l-38 98q-29 20 -62.5 28t-75.5 8q-54 0 -91.5 -22.5t-61 -61t-33.5 -90t-10 -109.5q0 -53 8 -102t31 -87t65 -60.5t110 -22.5q41 0 89.5 5.5t100.5 22.5l19 -65
q-51 -26 -114 -37.5t-116 -11.5q-155 0 -234.5 86.5t-79.5 262.5zM425 817q0 -29 -20 -49t-50 -20q-32 0 -50.5 20t-18.5 49t20 48.5t49 19.5q30 0 50 -19.5t20 -48.5z" />
    <glyph glyph-name="cdotaccent" unicode="&#x10b;" horiz-adv-x="480" 
d="M40 237q0 57 17 105t49 83t78 54.5t105 19.5q33 0 62.5 -6t51 -17t34 -27t12.5 -36q0 -23 -15.5 -41t-37.5 -27l-120 90q-33 -5 -56 -22.5t-37.5 -42.5t-20.5 -55.5t-6 -62.5q0 -45 7 -78.5t24.5 -56.5t47 -34.5t74.5 -11.5q11 0 26.5 2t32.5 5t34.5 7t32.5 9l19 -56
q-18 -13 -40.5 -22.5t-46.5 -16t-48 -9.5t-45 -3q-120 0 -177 61.5t-57 188.5zM341 643q0 -29 -20 -49t-50 -20q-32 0 -50.5 20t-18.5 49t20 48.5t49 19.5q30 0 50 -19.5t20 -48.5z" />
    <glyph glyph-name="Ccaron" unicode="&#x10c;" horiz-adv-x="625" 
d="M60 333q0 67 16 133.5t52.5 119.5t95 86t143.5 33q38 0 77.5 -7t86.5 -33l22 39h41l3 -208l-44 -5l-38 98q-29 20 -62.5 28t-75.5 8q-54 0 -91.5 -22.5t-61 -61t-33.5 -90t-10 -109.5q0 -53 8 -102t31 -87t65 -60.5t110 -22.5q41 0 89.5 5.5t100.5 22.5l19 -65
q-51 -26 -114 -37.5t-116 -11.5q-155 0 -234.5 86.5t-79.5 262.5zM537 917l30 -34l-170 -155h-59l-168 156l28 33q14 -9 36.5 -22.5l47.5 -28.5t48 -29t37 -23z" />
    <glyph glyph-name="ccaron" unicode="&#x10d;" horiz-adv-x="480" 
d="M40 237q0 57 17 105t49 83t78 54.5t105 19.5q33 0 62.5 -6t51 -17t34 -27t12.5 -36q0 -23 -15.5 -41t-37.5 -27l-120 90q-33 -5 -56 -22.5t-37.5 -42.5t-20.5 -55.5t-6 -62.5q0 -45 7 -78.5t24.5 -56.5t47 -34.5t74.5 -11.5q11 0 26.5 2t32.5 5t34.5 7t32.5 9l19 -56
q-18 -13 -40.5 -22.5t-46.5 -16t-48 -9.5t-45 -3q-120 0 -177 61.5t-57 188.5zM439 737l29 -34l-170 -161h-58l-169 162l28 33q14 -9 37 -24t47.5 -31t47.5 -31t37 -24z" />
    <glyph glyph-name="Dcaron" unicode="&#x10e;" horiz-adv-x="741" 
d="M204 3h-44.5h-36t-37 -0.5t-46.5 -1.5l-5 44l88 27v545l-80 23l6 48q27 -1 43 -1.5t28.5 -1t25.5 -0.5h34q26 0 47 0.5t39.5 1.5t36.5 1.5t38 0.5q97 0 162.5 -29.5t105 -77.5t56 -108.5t16.5 -122.5q0 -30 -4.5 -68t-17.5 -77t-35.5 -76t-58.5 -66t-86.5 -46.5
t-119.5 -17.5q-6 0 -28.5 0.5t-48.5 1t-49 1t-29 0.5zM238 79q20 -5 48 -6.5t50 -1.5q64 0 107.5 23.5t69.5 62.5t37.5 90t11.5 106q0 79 -20 130t-54.5 80.5t-80.5 41t-98 11.5q-19 0 -38.5 -0.5t-32.5 -2.5v-534zM487 917l30 -34l-170 -155h-59l-168 156l28 33
q14 -9 36.5 -22.5l47.5 -28.5t48 -29t37 -23z" />
    <glyph glyph-name="dcaron" unicode="&#x10f;" horiz-adv-x="710" 
d="M559 666q0 28 20 48t51 20q35 0 54 -23.5t19 -57.5q0 -46 -32.5 -88.5t-89.5 -72.5l-21 29q26 20 37.5 39.5t16.5 42.5q-25 4 -40 22t-15 41zM490 712v-641l71 -18v-42l-147 -23l-9 5l-15 73l-3 1l-72 -68q-24 -6 -44.5 -9t-40.5 -3q-53 0 -90 18.5t-60 51t-34 77.5
t-11 98q0 56 12.5 105t39.5 85.5t69.5 57.5t102.5 21q27 0 60.5 -6t65.5 -21v161l-70 19v42l166 23zM147 244q0 -33 6 -64t19.5 -54.5t36 -37.5t55.5 -14t64.5 12t56.5 27v288q-23 10 -52 15t-55 5q-37 0 -62 -15.5t-40.5 -40.5t-22 -57t-6.5 -64z" />
    <glyph glyph-name="Dcroat" unicode="&#x110;" horiz-adv-x="741" 
d="M56 373h67v244l-80 23l6 48q27 -1 43 -1.5t28.5 -1t25.5 -0.5h34q26 0 47 0.5t39.5 1.5t36.5 1.5t38 0.5q97 0 162.5 -29.5t105 -77.5t56 -108.5t16.5 -122.5q0 -30 -4.5 -68t-17.5 -77t-35.5 -76t-58.5 -66t-86.5 -46.5t-119.5 -17.5q-6 0 -28.5 0.5t-48.5 1t-49 1
t-29 0.5h-44.5h-36t-37 -0.5t-46.5 -1.5l-5 44l88 27v245h-67v56zM238 373h160v-56h-160v-238q20 -5 48 -6.5t50 -1.5q64 0 107.5 23.5t69.5 62.5t37.5 90t11.5 106q0 79 -20 130t-54.5 80.5t-80.5 41t-98 11.5q-19 0 -38.5 -0.5t-32.5 -2.5v-240z" />
    <glyph glyph-name="dcroat" unicode="&#x111;" horiz-adv-x="566" 
d="M490 712v-140h69v-52h-69v-449l71 -18v-42l-147 -23l-9 5l-15 73l-3 1l-72 -68q-24 -6 -44.5 -9t-40.5 -3q-50 0 -86.5 17t-60.5 48t-36 74t-12 95q0 55 12.5 101t39.5 79t69.5 51.5t102.5 18.5q27 0 61 -7t65 -22v78h-172v52h172v63l-70 19v42l166 23zM147 233
q0 -33 6 -62.5t19.5 -51t36 -34.5t55.5 -13t64.5 11.5t56.5 26.5v259q-24 10 -52.5 16.5t-54.5 6.5q-37 0 -62 -13t-40.5 -34.5t-22 -50.5t-6.5 -61z" />
    <glyph glyph-name="Emacron" unicode="&#x112;" horiz-adv-x="633" 
d="M598 199l-25 -189l-11 -10q-36 0 -65.5 0.5l-59 1t-61.5 1t-73 0.5h-59.5t-69 -0.5t-70.5 -1t-64 -1.5l-5 45l90 27v545l-81 24l6 47q25 -1 61 -1.5t73 -0.5h69.5h52.5q34 0 62 0.5t55 1t55 1t63 1.5l11 -6l4 -189l-45 -7l-42 125h-229v-224l248 8v-79l-248 8v-250h53.5
t74 0.5t74 1t53.5 0.5l65 131zM499 832v-77h-335v77h335z" />
    <glyph glyph-name="emacron" unicode="&#x113;" horiz-adv-x="524" 
d="M279 499q66 0 106.5 -20.5t63.5 -53t31 -71.5t9 -76l-9 -11l-325 -17q0 -45 8 -79t26.5 -57t48 -34.5t73.5 -11.5q23 0 60.5 6.5t78.5 23.5l19 -53q-38 -26 -89 -42t-105 -16q-63 0 -108 17t-73 49.5t-41 79t-13 105.5q0 48 11 94.5t38 83.5t73 60t117 23zM362 318
q0 20 -3.5 40.5t-13.5 37t-28 27t-48 10.5q-34 0 -55.5 -13.5t-34 -34t-17.5 -44t-5 -44.5zM435 662v-77h-334v77h334z" />
    <glyph glyph-name="Ebreve" unicode="&#x114;" horiz-adv-x="633" 
d="M598 199l-25 -189l-11 -10q-36 0 -65.5 0.5l-59 1t-61.5 1t-73 0.5h-59.5t-69 -0.5t-70.5 -1t-64 -1.5l-5 45l90 27v545l-81 24l6 47q25 -1 61 -1.5t73 -0.5h69.5h52.5q34 0 62 0.5t55 1t55 1t63 1.5l11 -6l4 -189l-45 -7l-42 125h-229v-224l248 8v-79l-248 8v-250h53.5
t74 0.5t74 1t53.5 0.5l65 131zM308 743q-30 0 -56 10.5t-47.5 27t-38 37t-26.5 40.5q0 1 0.5 1t0.5 1q18 9 37 18t38 19q21 -38 50.5 -61.5t50.5 -23.5q9 0 22 3t30.5 12t38 25t44.5 42l37 -30q-45 -66 -91 -93.5t-90 -27.5z" />
    <glyph glyph-name="ebreve" unicode="&#x115;" horiz-adv-x="524" 
d="M279 499q66 0 106.5 -20.5t63.5 -53t31 -71.5t9 -76l-9 -11l-325 -17q0 -45 8 -79t26.5 -57t48 -34.5t73.5 -11.5q23 0 60.5 6.5t78.5 23.5l19 -53q-38 -26 -89 -42t-105 -16q-63 0 -108 17t-73 49.5t-41 79t-13 105.5q0 48 11 94.5t38 83.5t73 60t117 23zM362 318
q0 20 -3.5 40.5t-13.5 37t-28 27t-48 10.5q-34 0 -55.5 -13.5t-34 -34t-17.5 -44t-5 -44.5zM268 548q-30 0 -56 10.5t-47.5 27t-38 37.5t-26.5 41l1 1q18 10 37 19t38 19q21 -38 50.5 -62t50.5 -24q9 0 22 3t30.5 12t38 25.5t44.5 42.5q9 -8 18.5 -15.5t18.5 -15.5
q-45 -66 -91 -93.5t-90 -27.5z" />
    <glyph glyph-name="Edotaccent" unicode="&#x116;" horiz-adv-x="633" 
d="M598 199l-25 -189l-11 -10q-36 0 -65.5 0.5l-59 1t-61.5 1t-73 0.5h-59.5t-69 -0.5t-70.5 -1t-64 -1.5l-5 45l90 27v545l-81 24l6 47q25 -1 61 -1.5t73 -0.5h69.5h52.5q34 0 62 0.5t55 1t55 1t63 1.5l11 -6l4 -189l-45 -7l-42 125h-229v-224l248 8v-79l-248 8v-250h53.5
t74 0.5t74 1t53.5 0.5l65 131zM399 819q0 -29 -20 -49t-50 -20q-32 0 -50.5 20t-18.5 49t20 48.5t49 19.5q30 0 50 -19.5t20 -48.5z" />
    <glyph glyph-name="edotaccent" unicode="&#x117;" horiz-adv-x="524" 
d="M279 499q66 0 106.5 -20.5t63.5 -53t31 -71.5t9 -76l-9 -11l-325 -17q0 -45 8 -79t26.5 -57t48 -34.5t73.5 -11.5q23 0 60.5 6.5t78.5 23.5l19 -53q-38 -26 -89 -42t-105 -16q-63 0 -108 17t-73 49.5t-41 79t-13 105.5q0 48 11 94.5t38 83.5t73 60t117 23zM362 318
q0 20 -3.5 40.5t-13.5 37t-28 27t-48 10.5q-34 0 -55.5 -13.5t-34 -34t-17.5 -44t-5 -44.5zM348 643q0 -29 -20 -49t-50 -20q-32 0 -50.5 20t-18.5 49t20 48.5t49 19.5q30 0 50 -19.5t20 -48.5z" />
    <glyph glyph-name="Eogonek" unicode="&#x118;" horiz-adv-x="633" 
d="M598 199l-25 -189l-11 -10h-24q-20 -25 -28 -50t-8 -47q0 -32 22.5 -43.5t49.5 -11.5q18 0 34.5 2.5t31.5 7.5l9 -36q-26 -13 -57.5 -21t-62.5 -8q-57 0 -82.5 22.5t-25.5 54.5q0 26 13 61t51 70q-42 1 -83 1.5t-99 0.5h-59.5t-69 -0.5t-70.5 -1t-64 -1.5l-5 45l90 27
v545l-81 24l6 47q25 -1 61 -1.5t73 -0.5h69.5h52.5q34 0 62 0.5t55 1t55 1t63 1.5l11 -6l4 -189l-45 -7l-42 125h-229v-224l248 8v-79l-248 8v-250h53.5t74 0.5t74 1t53.5 0.5l65 131z" />
    <glyph glyph-name="eogonek" unicode="&#x119;" horiz-adv-x="524" 
d="M279 499q66 0 106.5 -20.5t63.5 -53t31 -71.5t9 -76l-9 -11l-325 -17q0 -45 8 -79t26.5 -57t48 -34.5t73.5 -11.5q23 0 60.5 6.5t78.5 23.5l19 -53q-5 -4 -10.5 -7t-10.5 -6q-24 -27 -34.5 -55.5t-10.5 -52.5q0 -32 22.5 -43.5t49.5 -11.5q18 0 34.5 2.5t31.5 7.5l9 -36
q-26 -13 -57.5 -21t-62.5 -8q-57 0 -82.5 22.5t-25.5 54.5q0 22 8.5 50t33.5 58q-44 -12 -89 -12q-63 0 -108 17t-73 49.5t-41 79t-13 105.5q0 48 11 94.5t38 83.5t73 60t117 23zM362 318q0 20 -3.5 40.5t-13.5 37t-28 27t-48 10.5q-34 0 -55.5 -13.5t-34 -34t-17.5 -44
t-5 -44.5z" />
    <glyph glyph-name="Ecaron" unicode="&#x11a;" horiz-adv-x="633" 
d="M598 199l-25 -189l-11 -10q-36 0 -65.5 0.5l-59 1t-61.5 1t-73 0.5h-59.5t-69 -0.5t-70.5 -1t-64 -1.5l-5 45l90 27v545l-81 24l6 47q25 -1 61 -1.5t73 -0.5h69.5h52.5q34 0 62 0.5t55 1t55 1t63 1.5l11 -6l4 -189l-45 -7l-42 125h-229v-224l248 8v-79l-248 8v-250h53.5
t74 0.5t74 1t53.5 0.5l65 131zM497 917l30 -34l-170 -155h-59l-168 156l28 33q14 -9 36.5 -22.5l47.5 -28.5t48 -29t37 -23z" />
    <glyph glyph-name="ecaron" unicode="&#x11b;" horiz-adv-x="524" 
d="M279 499q66 0 106.5 -20.5t63.5 -53t31 -71.5t9 -76l-9 -11l-325 -17q0 -45 8 -79t26.5 -57t48 -34.5t73.5 -11.5q23 0 60.5 6.5t78.5 23.5l19 -53q-38 -26 -89 -42t-105 -16q-63 0 -108 17t-73 49.5t-41 79t-13 105.5q0 48 11 94.5t38 83.5t73 60t117 23zM362 318
q0 20 -3.5 40.5t-13.5 37t-28 27t-48 10.5q-34 0 -55.5 -13.5t-34 -34t-17.5 -44t-5 -44.5zM439 737l29 -34l-170 -161h-58l-169 162l28 33q14 -9 37 -24t47.5 -31t47.5 -31t37 -24z" />
    <glyph glyph-name="Gcircumflex" unicode="&#x11c;" horiz-adv-x="724" 
d="M568 488l-37 101q-29 20 -63.5 28.5t-77.5 8.5q-58 0 -98 -22.5t-65 -61t-36.5 -90.5t-11.5 -111q0 -57 9 -107t32.5 -87t64.5 -58t105 -21q9 0 23 1t31 3t36 5t37 8v199l-89 27l2 46h262l2 -53l-69 -17v-295l-37 -10l-41 36q-43 -17 -91.5 -25.5t-84.5 -8.5
q-81 0 -140 23.5t-97.5 68.5t-57 109.5t-18.5 146.5q0 68 17 134.5t54.5 119.5t98.5 86t149 33q37 0 79.5 -7t90.5 -33l21 39h42l3 -210zM370 824l-169 -103l-28 33l169 156h58l170 -155l-30 -34z" />
    <glyph glyph-name="gcircumflex" unicode="&#x11d;" horiz-adv-x="599" 
d="M145 166q0 1 0.5 1t0.5 1q-48 22 -68 60t-20 80q0 39 14 74t41.5 60.5t68.5 40.5t94 15q55 0 96.5 -15t70.5 -42q25 25 59.5 46t68.5 21q9 0 18.5 -5.5t9.5 -21.5q0 -12 -4.5 -30t-18.5 -38l-106 -7v-3q11 -17 16 -38t5 -41q0 -34 -11.5 -66.5t-37 -58t-68 -41.5
t-103.5 -16q-23 0 -42.5 2.5t-38.5 6.5q-19 -12 -25.5 -21t-6.5 -17q0 -10 17 -16t39.5 -9.5t45 -5t34.5 -1.5q77 -3 127 -10t79.5 -21.5t41 -36t11.5 -52.5q0 -45 -28 -83t-77 -64.5t-114 -40t-140 -9.5q-48 3 -80.5 11.5t-52 22.5t-28 33t-8.5 43q0 21 9.5 39.5t26 34
t38 28.5t46.5 23v1q-60 8 -81.5 25.5t-21.5 45.5q0 9 3 21t10 20zM276 438q-33 0 -53.5 -11.5t-32 -29t-15.5 -38t-4 -39.5q0 -23 4 -44.5t15 -38t31 -26.5t53 -10t54 10.5t33 27t16.5 36.5t4.5 39q0 23 -3.5 45t-15 39.5t-32.5 28.5t-55 11zM131 -97q0 -15 4 -28.5t17 -24
t37 -16.5t64 -6q34 0 67.5 6t59 18t41.5 30t16 42q0 29 -20 41t-54 15.5t-77.5 3.5t-91.5 6q-37 -22 -50 -45.5t-13 -41.5zM286 647l-169 -108l-28 33l169 162h58l170 -161l-29 -34z" />
    <glyph glyph-name="Gbreve" unicode="&#x11e;" horiz-adv-x="724" 
d="M568 488l-37 101q-29 20 -63.5 28.5t-77.5 8.5q-58 0 -98 -22.5t-65 -61t-36.5 -90.5t-11.5 -111q0 -57 9 -107t32.5 -87t64.5 -58t105 -21q9 0 23 1t31 3t36 5t37 8v199l-89 27l2 46h262l2 -53l-69 -17v-295l-37 -10l-41 36q-43 -17 -91.5 -25.5t-84.5 -8.5
q-81 0 -140 23.5t-97.5 68.5t-57 109.5t-18.5 146.5q0 68 17 134.5t54.5 119.5t98.5 86t149 33q37 0 79.5 -7t90.5 -33l21 39h42l3 -210zM373 743q-30 0 -56 10.5t-47.5 27t-38 37t-26.5 40.5q0 1 0.5 1t0.5 1q18 9 37 18t38 19q21 -38 50.5 -61.5t50.5 -23.5q9 0 22 3
t30.5 12t38 25t44.5 42l37 -30q-45 -66 -91 -93.5t-90 -27.5z" />
    <glyph glyph-name="gbreve" unicode="&#x11f;" horiz-adv-x="599" 
d="M145 166q0 1 0.5 1t0.5 1q-48 22 -68 60t-20 80q0 39 14 74t41.5 60.5t68.5 40.5t94 15q55 0 96.5 -15t70.5 -42q25 25 59.5 46t68.5 21q9 0 18.5 -5.5t9.5 -21.5q0 -12 -4.5 -30t-18.5 -38l-106 -7v-3q11 -17 16 -38t5 -41q0 -34 -11.5 -66.5t-37 -58t-68 -41.5
t-103.5 -16q-23 0 -42.5 2.5t-38.5 6.5q-19 -12 -25.5 -21t-6.5 -17q0 -10 17 -16t39.5 -9.5t45 -5t34.5 -1.5q77 -3 127 -10t79.5 -21.5t41 -36t11.5 -52.5q0 -45 -28 -83t-77 -64.5t-114 -40t-140 -9.5q-48 3 -80.5 11.5t-52 22.5t-28 33t-8.5 43q0 21 9.5 39.5t26 34
t38 28.5t46.5 23v1q-60 8 -81.5 25.5t-21.5 45.5q0 9 3 21t10 20zM276 438q-33 0 -53.5 -11.5t-32 -29t-15.5 -38t-4 -39.5q0 -23 4 -44.5t15 -38t31 -26.5t53 -10t54 10.5t33 27t16.5 36.5t4.5 39q0 23 -3.5 45t-15 39.5t-32.5 28.5t-55 11zM131 -97q0 -15 4 -28.5t17 -24
t37 -16.5t64 -6q34 0 67.5 6t59 18t41.5 30t16 42q0 29 -20 41t-54 15.5t-77.5 3.5t-91.5 6q-37 -22 -50 -45.5t-13 -41.5zM284 548q-30 0 -56 10.5t-47.5 27t-38 37.5t-26.5 41l1 1q18 10 37 19t38 19q21 -38 50.5 -62t50.5 -24q9 0 22 3t30.5 12t38 25.5t44.5 42.5
q9 -8 18.5 -15.5t18.5 -15.5q-45 -66 -91 -93.5t-90 -27.5z" />
    <glyph glyph-name="Gdotaccent" unicode="&#x120;" horiz-adv-x="724" 
d="M568 488l-37 101q-29 20 -63.5 28.5t-77.5 8.5q-58 0 -98 -22.5t-65 -61t-36.5 -90.5t-11.5 -111q0 -57 9 -107t32.5 -87t64.5 -58t105 -21q9 0 23 1t31 3t36 5t37 8v199l-89 27l2 46h262l2 -53l-69 -17v-295l-37 -10l-41 36q-43 -17 -91.5 -25.5t-84.5 -8.5
q-81 0 -140 23.5t-97.5 68.5t-57 109.5t-18.5 146.5q0 68 17 134.5t54.5 119.5t98.5 86t149 33q37 0 79.5 -7t90.5 -33l21 39h42l3 -210zM456 819q0 -29 -20 -49t-50 -20q-32 0 -50.5 20t-18.5 49t20 48.5t49 19.5q30 0 50 -19.5t20 -48.5z" />
    <glyph glyph-name="gdotaccent" unicode="&#x121;" horiz-adv-x="599" 
d="M145 166q0 1 0.5 1t0.5 1q-48 22 -68 60t-20 80q0 39 14 74t41.5 60.5t68.5 40.5t94 15q55 0 96.5 -15t70.5 -42q25 25 59.5 46t68.5 21q9 0 18.5 -5.5t9.5 -21.5q0 -12 -4.5 -30t-18.5 -38l-106 -7v-3q11 -17 16 -38t5 -41q0 -34 -11.5 -66.5t-37 -58t-68 -41.5
t-103.5 -16q-23 0 -42.5 2.5t-38.5 6.5q-19 -12 -25.5 -21t-6.5 -17q0 -10 17 -16t39.5 -9.5t45 -5t34.5 -1.5q77 -3 127 -10t79.5 -21.5t41 -36t11.5 -52.5q0 -45 -28 -83t-77 -64.5t-114 -40t-140 -9.5q-48 3 -80.5 11.5t-52 22.5t-28 33t-8.5 43q0 21 9.5 39.5t26 34
t38 28.5t46.5 23v1q-60 8 -81.5 25.5t-21.5 45.5q0 9 3 21t10 20zM276 438q-33 0 -53.5 -11.5t-32 -29t-15.5 -38t-4 -39.5q0 -23 4 -44.5t15 -38t31 -26.5t53 -10t54 10.5t33 27t16.5 36.5t4.5 39q0 23 -3.5 45t-15 39.5t-32.5 28.5t-55 11zM131 -97q0 -15 4 -28.5t17 -24
t37 -16.5t64 -6q34 0 67.5 6t59 18t41.5 30t16 42q0 29 -20 41t-54 15.5t-77.5 3.5t-91.5 6q-37 -22 -50 -45.5t-13 -41.5zM364 643q0 -29 -20 -49t-50 -20q-32 0 -50.5 20t-18.5 49t20 48.5t49 19.5q30 0 50 -19.5t20 -48.5z" />
    <glyph glyph-name="Gcommaaccent" unicode="&#x122;" horiz-adv-x="724" 
d="M568 488l-37 101q-29 20 -63.5 28.5t-77.5 8.5q-58 0 -98 -22.5t-65 -61t-36.5 -90.5t-11.5 -111q0 -57 9 -107t32.5 -87t64.5 -58t105 -21q9 0 23 1t31 3t36 5t37 8v199l-89 27l2 46h262l2 -53l-69 -17v-295l-37 -10l-41 36q-43 -17 -91.5 -25.5t-84.5 -8.5
q-81 0 -140 23.5t-97.5 68.5t-57 109.5t-18.5 146.5q0 68 17 134.5t54.5 119.5t98.5 86t149 33q37 0 79.5 -7t90.5 -33l21 39h42l3 -210zM300 -118q0 28 20 48t51 20q35 0 54 -23.5t19 -57.5q0 -46 -32.5 -88.5t-89.5 -72.5l-21 29q26 20 37.5 39.5t16.5 42.5q-25 4 -40 22
t-15 41z" />
    <glyph glyph-name="gcommaaccent" unicode="&#x123;" horiz-adv-x="599" 
d="M145 166q0 1 0.5 1t0.5 1q-48 22 -68 60t-20 80q0 39 14 74t41.5 60.5t68.5 40.5t94 15q55 0 96.5 -15t70.5 -42q25 25 59.5 46t68.5 21q9 0 18.5 -5.5t9.5 -21.5q0 -12 -4.5 -30t-18.5 -38l-106 -7v-3q11 -17 16 -38t5 -41q0 -34 -11.5 -66.5t-37 -58t-68 -41.5
t-103.5 -16q-23 0 -42.5 2.5t-38.5 6.5q-19 -12 -25.5 -21t-6.5 -17q0 -10 17 -16t39.5 -9.5t45 -5t34.5 -1.5q77 -3 127 -10t79.5 -21.5t41 -36t11.5 -52.5q0 -45 -28 -83t-77 -64.5t-114 -40t-140 -9.5q-48 3 -80.5 11.5t-52 22.5t-28 33t-8.5 43q0 21 9.5 39.5t26 34
t38 28.5t46.5 23v1q-60 8 -81.5 25.5t-21.5 45.5q0 9 3 21t10 20zM276 438q-33 0 -53.5 -11.5t-32 -29t-15.5 -38t-4 -39.5q0 -23 4 -44.5t15 -38t31 -26.5t53 -10t54 10.5t33 27t16.5 36.5t4.5 39q0 23 -3.5 45t-15 39.5t-32.5 28.5t-55 11zM131 -97q0 -15 4 -28.5t17 -24
t37 -16.5t64 -6q34 0 67.5 6t59 18t41.5 30t16 42q0 29 -20 41t-54 15.5t-77.5 3.5t-91.5 6q-37 -22 -50 -45.5t-13 -41.5zM366 629q0 -27 -20.5 -47.5t-50.5 -20.5q-35 0 -54 24t-19 58q0 45 32.5 87.5t89.5 72.5l20 -29q-26 -20 -37 -39t-16 -42q24 -5 39.5 -22.5
t15.5 -41.5z" />
    <glyph glyph-name="Hcircumflex" unicode="&#x124;" horiz-adv-x="807" 
d="M43 687h297l2 -50l-94 -23v-222h306v222l-87 27l2 46h296l2 -50l-95 -23v-540l95 -23l-1 -51h-298l-3 46l89 28v251h-306v-251l94 -23l-2 -51h-298l-2 46l90 28v540l-89 27zM396 824l-169 -103l-28 33l169 156h58l170 -155l-30 -34z" />
    <glyph glyph-name="hcircumflex" unicode="&#x125;" horiz-adv-x="611" 
d="M198 420l73 68q25 6 51 9t48 3q68 0 104.5 -30.5t36.5 -106.5v-298l69 -21v-22t-1 -22h-246q0 11 -0.5 21.5t-0.5 21.5q17 7 35.5 13t36.5 12v251q0 48 -17 70.5t-63 22.5q-28 0 -61 -10.5t-65 -29.5v-307q18 -5 36.5 -10.5t36.5 -10.5q0 -11 -0.5 -22t-0.5 -22h-251
l-2 42l76 27v130t-0.5 150t-0.5 152v136q-17 5 -34.5 9.5t-34.5 9.5v42l165 22l9 -4v-295zM137 824l-169 -103l-28 33l169 156h58l170 -155l-30 -34z" />
    <glyph glyph-name="Hbar" unicode="&#x126;" horiz-adv-x="803" 
d="M43 687h294l2 -49l-94 -23v-79h308v79l-87 27l1 45h294l2 -49l-95 -23v-79h55v-45h-55v-418l95 -23l-1 -50h-295l-3 45l89 28v254h-308v-254l94 -23l-2 -50h-295l-2 45l90 28v418h-59v45h59v79l-89 27zM553 390v101h-308v-101h308z" />
    <glyph glyph-name="hbar" unicode="&#x127;" horiz-adv-x="611" 
d="M33 573h59v64q-17 5 -34.5 9.5t-34.5 9.5v42l165 22l9 -4q-1 -38 -1 -73v-70h208v-44h-207l1 -142l73 68q22 5 46 8.5t46 3.5q72 0 110 -29.5t38 -107.5v-265l69 -21v-22t-1 -22h-246q0 11 -0.5 21.5t-0.5 21.5q17 7 35.5 13t36.5 12v218q0 50 -17 71.5t-63 21.5
q-28 0 -60.5 -10.5t-65.5 -28.5v-275q18 -5 36.5 -10.5t36.5 -10.5q0 -11 -0.5 -22t-0.5 -22h-251l-2 42l76 27v101.5t-0.5 115.5t-0.5 122v121h-59v44z" />
    <glyph glyph-name="Itilde" unicode="&#x128;" horiz-adv-x="423" 
d="M361 0h-299l-2 45l91 28v542l-91 27l2 45h299l2 -49l-97 -23v-542l97 -23zM385 856q-3 -22 -11 -42.5t-21 -36t-31.5 -24.5t-43.5 -9q-24 0 -43.5 6.5t-36 14t-32 14t-33.5 6.5q-20 0 -36.5 -8.5t-29.5 -37.5l-38 8q2 13 7.5 33t17.5 38.5t32 31.5t50 13q19 0 38.5 -7
t38.5 -15.5t37 -15.5t33 -7q22 0 36.5 8.5t28.5 35.5z" />
    <glyph glyph-name="itilde" unicode="&#x129;" horiz-adv-x="342" 
d="M225 65l77 -23l-1 -42h-259l-2 42l79 28v29v61.5v79v79.5t-0.5 64t-0.5 34l-68 18v42l166 26l9 -5v-433zM345 680q-3 -22 -11 -42.5t-21 -36t-31.5 -24.5t-43.5 -9q-24 0 -43.5 6.5t-36 14t-32 14t-33.5 6.5q-20 0 -36.5 -8.5t-29.5 -37.5l-38 8q2 13 7.5 33t17.5 38.5
t32 31.5t50 13q19 0 38.5 -7t38.5 -15.5t37 -15.5t33 -7q22 0 36.5 8.5t28.5 35.5z" />
    <glyph glyph-name="Imacron" unicode="&#x12a;" horiz-adv-x="423" 
d="M361 0h-299l-2 45l91 28v542l-91 27l2 45h299l2 -49l-97 -23v-542l97 -23zM375 832v-77h-335v77h335z" />
    <glyph glyph-name="imacron" unicode="&#x12b;" horiz-adv-x="342" 
d="M225 65l77 -23l-1 -42h-259l-2 42l79 28v29v61.5v79v79.5t-0.5 64t-0.5 34l-68 18v42l166 26l9 -5v-433zM329 662v-77h-334v77h334z" />
    <glyph glyph-name="Ibreve" unicode="&#x12c;" horiz-adv-x="423" 
d="M361 0h-299l-2 45l91 28v542l-91 27l2 45h299l2 -49l-97 -23v-542l97 -23zM199 743q-30 0 -56 10.5t-47.5 27t-38 37t-26.5 40.5q0 1 0.5 1t0.5 1q18 9 37 18t38 19q21 -38 50.5 -61.5t50.5 -23.5q9 0 22 3t30.5 12t38 25t44.5 42l37 -30q-45 -66 -91 -93.5t-90 -27.5z
" />
    <glyph glyph-name="ibreve" unicode="&#x12d;" horiz-adv-x="342" 
d="M225 65l77 -23l-1 -42h-259l-2 42l79 28v29v61.5v79v79.5t-0.5 64t-0.5 34l-68 18v42l166 26l9 -5v-433zM155 554q-30 0 -56 10.5t-47.5 27t-38 37.5t-26.5 41l1 1q18 10 37 19t38 19q21 -38 50.5 -62t50.5 -24q9 0 22 3t30.5 12t38 25.5t44.5 42.5q9 -8 18.5 -15.5
t18.5 -15.5q-45 -66 -91 -93.5t-90 -27.5z" />
    <glyph glyph-name="Iogonek" unicode="&#x12e;" horiz-adv-x="423" 
d="M361 0h-141q-20 -25 -28 -50t-8 -47q0 -32 22.5 -43.5t49.5 -11.5q18 0 34.5 2.5t31.5 7.5l9 -36q-26 -13 -57.5 -21t-62.5 -8q-57 0 -82.5 22.5t-25.5 54.5q0 26 12.5 60.5t50.5 69.5h-104l-2 45l91 28v542l-91 27l2 45h299l2 -49l-97 -23v-542l97 -23z" />
    <glyph glyph-name="iogonek" unicode="&#x12f;" horiz-adv-x="342" 
d="M223 498q0 -109 0.5 -216.5t1.5 -216.5l77 -24q0 -11 -0.5 -20.5t-0.5 -20.5h-117q-19 -25 -27 -49.5t-8 -46.5q0 -32 22.5 -43.5t49.5 -11.5q18 0 34.5 2.5t31.5 7.5l9 -36q-26 -13 -57.5 -21t-62.5 -8q-57 0 -82.5 22.5t-25.5 54.5q0 26 12.5 60t49.5 69h-88
q-1 11 -1.5 20.5t-0.5 20.5l78 29v346q-17 5 -34.5 9.5t-34.5 9.5v42l165 25zM97 642q0 29 20.5 49t49.5 20q31 0 51 -20t20 -49t-20 -49.5t-51 -20.5q-32 0 -51 20.5t-19 49.5z" />
    <glyph glyph-name="Idotaccent" unicode="&#x130;" horiz-adv-x="423" 
d="M361 0h-299l-2 45l91 28v542l-91 27l2 45h299l2 -49l-97 -23v-542l97 -23zM279 816q0 -29 -20 -49t-50 -20q-32 0 -50.5 20t-18.5 49t20 48.5t49 19.5q30 0 50 -19.5t20 -48.5z" />
    <glyph glyph-name="IJ" unicode="&#x132;" horiz-adv-x="776" 
d="M361 0h-299l-2 45l91 28v542l-91 27l2 45h299l2 -49l-97 -23v-542l97 -23zM645 107q0 -77 -20 -132t-55 -92.5t-83.5 -61t-106.5 -36.5l-16 54q89 40 127.5 99.5t38.5 142.5v534l-94 28l2 44h302l1 -49l-96 -23v-508z" />
    <glyph glyph-name="ij" unicode="&#x133;" horiz-adv-x="574" 
d="M485 32q0 -101 -49.5 -173.5t-152.5 -104.5l-22 48q42 27 65.5 55t35.5 58t14.5 63t2.5 69v369q-17 5 -34.5 9.5t-34.5 9.5v42l166 25l9 -4v-466zM223 498q0 -109 0.5 -216.5t1.5 -216.5l77 -24q0 -11 -0.5 -20.5t-0.5 -20.5h-259q-1 11 -1.5 20.5t-0.5 20.5l78 29v346
q-17 5 -34.5 9.5t-34.5 9.5v42l165 25zM358 642q0 29 20.5 49t49.5 20q31 0 51 -20t20 -49t-20 -49.5t-51 -20.5q-32 0 -51 20.5t-19 49.5zM97 642q0 29 20.5 49t49.5 20q31 0 51 -20t20 -49t-20 -49.5t-51 -20.5q-32 0 -51 20.5t-19 49.5z" />
    <glyph glyph-name="Jcircumflex" unicode="&#x134;" horiz-adv-x="407" 
d="M276 108q0 -77 -20 -132t-55 -92.5t-83.5 -61t-106.5 -36.5l-16 54q89 40 127.5 99.5t38.5 142.5v534l-94 28l2 44h302l1 -49l-96 -23v-508zM220 826l-169 -103l-28 33l169 156h58l170 -155l-30 -34z" />
    <glyph glyph-name="jcircumflex" unicode="&#x135;" horiz-adv-x="325" 
d="M222 498v-215.5t1 -214.5q0 -17 -0.5 -33t-1.5 -32q-2 -47 -13 -80t-32 -63q-12 -17 -30 -33t-39 -29.5t-43.5 -25t-43.5 -18.5q-6 12 -11.5 24t-10.5 24q29 19 52.5 40t37.5 47q22 37 25 76t3 82v369q-17 5 -34.5 9.5t-34.5 9.5v42l166 25zM162 647q-42 -26 -84 -54
t-84 -55q-8 8 -14 17t-14 17q42 41 84 81t84 81h58l170 -162l-30 -34z" />
    <glyph glyph-name="Kcommaaccent" unicode="&#x136;" horiz-adv-x="718" 
d="M336 0h-299l-2 45l91 28v542l-91 27l2 45h299l2 -49l-97 -23v-542l97 -23zM695 34l-10 -35l-101 -22l-313 369v19l209 254l-70 22l2 48h237v-52q-47 -20 -86 -49t-75 -68l-124 -138zM329 -98q0 28 20 48t51 20q35 0 54 -23.5t19 -57.5q0 -46 -32.5 -88.5t-89.5 -72.5
l-21 29q26 20 37.5 39.5t16.5 42.5q-25 4 -40 22t-15 41z" />
    <glyph glyph-name="kcommaaccent" unicode="&#x137;" horiz-adv-x="544" 
d="M190 66l70 -23l-1 -43h-252l-2 42l79 28v27.5v63.5v88v100v100.5t-0.5 89t-0.5 65.5v31l-68 19v42l166 25l8 -4zM201 249v18l153 159l-57 22l1 40l215 7v-43q-86 -30 -157 -99l-69 -67l262 -256l-8 -30l-91 -24zM230 -118q0 28 20 48t51 20q35 0 54 -23.5t19 -57.5
q0 -46 -32.5 -88.5t-89.5 -72.5l-21 29q26 20 37.5 39.5t16.5 42.5q-25 4 -40 22t-15 41z" />
    <glyph glyph-name="kgreenlandic" unicode="&#x138;" horiz-adv-x="556" 
d="M190 66l70 -23l-1 -43h-252l-2 42l79 28v29.5v62.5v80v81t-0.5 65.5t-0.5 33.5l-68 19v42l166 25l8 -4zM201 249v18l153 159l-57 22l1 40l215 7v-43q-86 -30 -157 -99l-69 -67l259 -256l-8 -30l-91 -24z" />
    <glyph glyph-name="Lacute" unicode="&#x139;" horiz-adv-x="622" 
d="M612 205l-25 -195l-11 -10q-36 0 -66.5 0.5l-61 1t-63.5 1t-74 0.5h-60.5t-71 -0.5l-73 -1t-65.5 -1.5l-4 44l89 29v542l-91 27l2 45h299l1 -49l-96 -23v-539h55t78.5 0.5t78.5 1t55 0.5l68 136zM318 900l48 -86l-205 -88l-29 49z" />
    <glyph glyph-name="lacute" unicode="&#x13a;" horiz-adv-x="342" 
d="M225 66l77 -24q0 -11 -0.5 -21t-0.5 -21h-260l-1 41l78 29v565l-69 18v43l166 25q4 -2 8 -5zM278 910l48 -86l-205 -88l-29 49z" />
    <glyph glyph-name="Lcommaaccent" unicode="&#x13b;" horiz-adv-x="622" 
d="M612 205l-25 -195l-11 -10q-36 0 -66.5 0.5l-61 1t-63.5 1t-74 0.5h-60.5t-71 -0.5l-73 -1t-65.5 -1.5l-4 44l89 29v542l-91 27l2 45h299l1 -49l-96 -23v-539h55t78.5 0.5t78.5 1t55 0.5l68 136zM295 -118q0 28 20 48t51 20q35 0 54 -23.5t19 -57.5q0 -46 -32.5 -88.5
t-89.5 -72.5l-21 29q26 20 37.5 39.5t16.5 42.5q-25 4 -40 22t-15 41z" />
    <glyph glyph-name="lcommaaccent" unicode="&#x13c;" horiz-adv-x="342" 
d="M225 66l77 -24q0 -11 -0.5 -21t-0.5 -21h-260l-1 41l78 29v565l-69 18v43l166 25q4 -2 8 -5zM103 -118q0 28 20 48t51 20q35 0 54 -23.5t19 -57.5q0 -46 -32.5 -88.5t-89.5 -72.5l-21 29q26 20 37.5 39.5t16.5 42.5q-25 4 -40 22t-15 41z" />
    <glyph glyph-name="Lcaron" unicode="&#x13d;" horiz-adv-x="622" 
d="M612 205l-25 -195l-11 -10q-36 0 -66.5 0.5l-61 1t-63.5 1t-74 0.5h-60.5t-71 -0.5l-73 -1t-65.5 -1.5l-4 44l89 29v542l-91 27l2 45h299l1 -49l-96 -23v-539h55t78.5 0.5t78.5 1t55 0.5l68 136zM423 636q0 28 20 48t51 20q35 0 54 -23.5t19 -57.5q0 -46 -32.5 -88.5
t-89.5 -72.5l-21 29q26 20 37.5 39.5t16.5 42.5q-25 4 -40 22t-15 41z" />
    <glyph glyph-name="lcaron" unicode="&#x13e;" horiz-adv-x="438" 
d="M225 66l77 -24q0 -11 -0.5 -21t-0.5 -21h-260l-1 41l78 29v565l-69 18v43l166 25q4 -2 8 -5zM292 667q0 28 20 48t51 20q35 0 54 -23.5t19 -57.5q0 -46 -32.5 -88.5t-89.5 -72.5l-21 29q26 20 37.5 39.5t16.5 42.5q-25 4 -40 22t-15 41z" />
    <glyph glyph-name="Ldot" unicode="&#x13f;" horiz-adv-x="622" 
d="M612 205l-25 -195l-11 -10q-36 0 -66.5 0.5l-61 1t-63.5 1t-74 0.5h-60.5t-71 -0.5l-73 -1t-65.5 -1.5l-4 44l89 29v542l-91 27l2 45h299l1 -49l-96 -23v-539h55t78.5 0.5t78.5 1t55 0.5l68 136zM466 368q0 -29 -20 -49t-50 -20q-32 0 -50.5 20t-18.5 49t20 48.5t49 19.5
q30 0 50 -19.5t20 -48.5z" />
    <glyph glyph-name="ldot" unicode="&#x140;" horiz-adv-x="430" 
d="M225 66l77 -24q0 -11 -0.5 -21t-0.5 -21h-260l-1 41l78 29v565l-69 18v43l166 25q4 -2 8 -5zM423 384q0 -29 -20 -49t-50 -20q-32 0 -50.5 20t-18.5 49t20 48.5t49 19.5q30 0 50 -19.5t20 -48.5z" />
    <glyph glyph-name="Lslash" unicode="&#x141;" horiz-adv-x="622" 
d="M7 231l119 70v314l-91 27l2 45h299l1 -49l-96 -23v-247l140 83l25 -42l-165 -97v-236h55t78.5 0.5t78.5 1t55 0.5l68 136l36 -9l-25 -195l-11 -10q-36 0 -66.5 0.5l-61 1t-63.5 1t-74 0.5h-60.5t-71 -0.5l-73 -1t-65.5 -1.5l-4 44l89 29v171l-96 -56z" />
    <glyph glyph-name="lslash" unicode="&#x142;" horiz-adv-x="342" 
d="M223 716q1 -82 1 -164.5v-164.5l94 54q6 -11 12 -21.5t13 -21.5l-60 -34t-59 -34v-132t1 -132l77 -24q0 -11 -0.5 -21t-0.5 -21h-260q-1 11 -1 20.5v20.5l78 29v198l-48 -28l-48 -28l-12 22t-11 22l119 69v310l-69 18v43l166 25q4 -2 8 -5z" />
    <glyph glyph-name="Nacute" unicode="&#x143;" horiz-adv-x="831" 
d="M625 193q0 40 -1 96t-2 115.5t-2 115.5t-2 96l-96 25l2 46h276l2 -50l-101 -23q-1 -34 -2 -83t-1.5 -106t-1.5 -117.5t-2 -117.5t-2 -106.5t-1 -83.5l-60 -14l-264 351l-154 209l-3 -1l5 -473l102 -21l-2 -51h-285l-2 47l103 28l11 538l-102 29l7 47q73 -2 131 -1.5
t87 1.5q17 -35 37 -61l203 -275l117 -160h3zM520 900l48 -86l-205 -88l-29 49z" />
    <glyph glyph-name="nacute" unicode="&#x144;" horiz-adv-x="635" 
d="M193 494l23 -73q1 0 1 -0.5t1 -0.5l72 68q25 6 52.5 9t50.5 3q67 0 102 -32t35 -105v-298l70 -21l-2 -44h-246l-1 43l72 25v251q0 48 -17 70.5t-63 22.5q-28 0 -60 -10.5t-66 -29.5v-139t1 -168l72 -21l-1 -44h-251l-2 42l76 27v347l-69 18v42q35 6 70.5 11t70.5 11z
M362 752l77 -62l-159 -158l-45 35z" />
    <glyph glyph-name="Ncommaaccent" unicode="&#x145;" horiz-adv-x="831" 
d="M625 193q0 40 -1 96t-2 115.5t-2 115.5t-2 96l-96 25l2 46h276l2 -50l-101 -23q-1 -34 -2 -83t-1.5 -106t-1.5 -117.5t-2 -117.5t-2 -106.5t-1 -83.5l-60 -14l-264 351l-154 209l-3 -1l5 -473l102 -21l-2 -51h-285l-2 47l103 28l11 538l-102 29l7 47q73 -2 131 -1.5
t87 1.5q17 -35 37 -61l203 -275l117 -160h3zM360 -98q0 28 20 48t51 20q35 0 54 -23.5t19 -57.5q0 -46 -32.5 -88.5t-89.5 -72.5l-21 29q26 20 37.5 39.5t16.5 42.5q-25 4 -40 22t-15 41z" />
    <glyph glyph-name="ncommaaccent" unicode="&#x146;" horiz-adv-x="635" 
d="M193 494l23 -73q1 0 1 -0.5t1 -0.5l72 68q25 6 52.5 9t50.5 3q67 0 102 -32t35 -105v-298l70 -21l-2 -44h-246l-1 43l72 25v251q0 48 -17 70.5t-63 22.5q-28 0 -60 -10.5t-66 -29.5v-139t1 -168l72 -21l-1 -44h-251l-2 42l76 27v347l-69 18v42q35 6 70.5 11t70.5 11z
M253 -118q0 28 20 48t51 20q35 0 54 -23.5t19 -57.5q0 -46 -32.5 -88.5t-89.5 -72.5l-21 29q26 20 37.5 39.5t16.5 42.5q-25 4 -40 22t-15 41z" />
    <glyph glyph-name="Ncaron" unicode="&#x147;" horiz-adv-x="831" 
d="M625 193q0 40 -1 96t-2 115.5t-2 115.5t-2 96l-96 25l2 46h276l2 -50l-101 -23q-1 -34 -2 -83t-1.5 -106t-1.5 -117.5t-2 -117.5t-2 -106.5t-1 -83.5l-60 -14l-264 351l-154 209l-3 -1l5 -473l102 -21l-2 -51h-285l-2 47l103 28l11 538l-102 29l7 47q73 -2 131 -1.5
t87 1.5q17 -35 37 -61l203 -275l117 -160h3zM567 917l30 -34l-170 -155h-59l-168 156l28 33q14 -9 36.5 -22.5l47.5 -28.5t48 -29t37 -23z" />
    <glyph glyph-name="ncaron" unicode="&#x148;" horiz-adv-x="635" 
d="M193 494l23 -73q1 0 1 -0.5t1 -0.5l72 68q25 6 52.5 9t50.5 3q67 0 102 -32t35 -105v-298l70 -21l-2 -44h-246l-1 43l72 25v251q0 48 -17 70.5t-63 22.5q-28 0 -60 -10.5t-66 -29.5v-139t1 -168l72 -21l-1 -44h-251l-2 42l76 27v347l-69 18v42q35 6 70.5 11t70.5 11z
M453 737l29 -34l-170 -161h-58l-169 162l28 33q14 -9 37 -24t47.5 -31t47.5 -31t37 -24z" />
    <glyph glyph-name="napostrophe" unicode="&#x149;" horiz-adv-x="738" 
d="M296 494l23 -73q1 0 1 -0.5t1 -0.5l72 68q25 6 52.5 9t50.5 3q67 0 102 -32t35 -105v-298l70 -21l-2 -44h-246l-1 43l72 25v251q0 48 -17 70.5t-63 22.5q-28 0 -60 -10.5t-66 -29.5v-139t1 -168l72 -21l-1 -44h-251l-2 42l76 27v347l-69 18v42q35 6 70.5 11t70.5 11z
M0 609q0 28 20 48t51 20q35 0 54 -23.5t19 -57.5q0 -46 -32.5 -88.5t-89.5 -72.5l-21 29q26 20 37.5 39.5t16.5 42.5q-25 4 -40 22t-15 41z" />
    <glyph glyph-name="Eng" unicode="&#x14a;" horiz-adv-x="829" 
d="M683 -31q0 -35 -7 -64t-24 -50t-46 -33t-72 -12q-13 0 -29 2.5t-32.5 7t-31.5 10.5t-27 14q5 12 8.5 23.5t7.5 23.5q27 -9 50.5 -11.5t37.5 -2.5q27 0 43 9.5t24 24t10.5 32t2.5 34.5v53q-60 79 -119 157.5t-119 157.5l-149 203q-1 0 -1.5 -0.5t-1.5 -0.5l5 -476l102 -21
l-2 -50h-277l-1 46l102 28l12 540l-102 29l6 45q23 0 43 -0.5t39 -0.5q42 0 74.5 0.5t52.5 1.5q9 -19 18.5 -34.5t18.5 -27.5l232 -314q5 -6 18 -24t27.5 -38t27 -38t17.5 -24h3q-2 107 -3.5 214t-4.5 213q-24 7 -48 13.5t-48 12.5q1 11 1.5 22.5t0.5 22.5h270l2 -50
l-101 -22z" />
    <glyph glyph-name="eng" unicode="&#x14b;" horiz-adv-x="614" 
d="M533 363q1 -96 0 -190.5t-1 -189.5q0 -35 -8 -64t-26 -50t-47.5 -33t-73.5 -12q-23 0 -54 6.5t-57 20.5l19 60q24 -5 36 -7t26 -2q26 0 41.5 8.5t24 22t11 31.5t2.5 36v319q0 48 -18 70.5t-64 22.5q-54 0 -126 -40v-307q18 -5 36.5 -10.5t36.5 -10.5l-2 -44h-250
q-1 11 -1.5 21t-0.5 21l75 27v347l-68 18v42l148 23q3 -1 9 -5l18 -74l72 68q24 6 51.5 9t49.5 3q31 0 57 -7t44.5 -23t29 -42.5t10.5 -64.5z" />
    <glyph glyph-name="Omacron" unicode="&#x14c;" horiz-adv-x="746" 
d="M686 353q0 -75 -18 -142t-56 -117.5t-98.5 -80t-145.5 -29.5q-149 0 -228.5 92t-79.5 260q0 74 18 140.5t56 117t98.5 80.5t144.5 30q73 0 130.5 -25t97.5 -70.5t60.5 -110.5t20.5 -145zM371 631q-54 0 -90.5 -23t-58.5 -61.5t-31.5 -88t-9.5 -102.5q0 -66 10 -120.5
t32.5 -93t59.5 -60t91 -21.5t90.5 23t59.5 61t33 88.5t10 104.5q0 60 -10 113.5t-33 93.5t-60.5 63t-92.5 23zM546 832v-77h-335v77h335z" />
    <glyph glyph-name="omacron" unicode="&#x14d;" horiz-adv-x="562" 
d="M522 246q0 -52 -14 -99t-44 -82.5t-76 -56.5t-110 -21q-66 0 -111.5 19.5t-73.5 53.5t-40.5 80.5t-12.5 99.5q0 54 16 101t47.5 82t77.5 55.5t106 20.5t104 -18.5t73 -52.5t43.5 -80.5t14.5 -101.5zM154 253q0 -36 4.5 -71.5t18 -63.5t38.5 -45.5t66 -17.5q38 0 63 15.5
t39.5 41t20.5 57.5t6 65q0 38 -6 73.5t-20.5 63.5t-39 44.5t-62.5 16.5t-63 -16.5t-39.5 -42.5t-20 -57.5t-5.5 -62.5zM452 662v-77h-334v77h334z" />
    <glyph glyph-name="Obreve" unicode="&#x14e;" horiz-adv-x="746" 
d="M686 353q0 -75 -18 -142t-56 -117.5t-98.5 -80t-145.5 -29.5q-149 0 -228.5 92t-79.5 260q0 74 18 140.5t56 117t98.5 80.5t144.5 30q73 0 130.5 -25t97.5 -70.5t60.5 -110.5t20.5 -145zM371 631q-54 0 -90.5 -23t-58.5 -61.5t-31.5 -88t-9.5 -102.5q0 -66 10 -120.5
t32.5 -93t59.5 -60t91 -21.5t90.5 23t59.5 61t33 88.5t10 104.5q0 60 -10 113.5t-33 93.5t-60.5 63t-92.5 23zM371 743q-30 0 -56 10.5t-47.5 27t-38 37t-26.5 40.5q0 1 0.5 1t0.5 1q18 9 37 18t38 19q21 -38 50.5 -61.5t50.5 -23.5q9 0 22 3t30.5 12t38 25t44.5 42l37 -30
q-45 -66 -91 -93.5t-90 -27.5z" />
    <glyph glyph-name="obreve" unicode="&#x14f;" horiz-adv-x="562" 
d="M522 246q0 -52 -14 -99t-44 -82.5t-76 -56.5t-110 -21q-66 0 -111.5 19.5t-73.5 53.5t-40.5 80.5t-12.5 99.5q0 54 16 101t47.5 82t77.5 55.5t106 20.5t104 -18.5t73 -52.5t43.5 -80.5t14.5 -101.5zM154 253q0 -36 4.5 -71.5t18 -63.5t38.5 -45.5t66 -17.5q38 0 63 15.5
t39.5 41t20.5 57.5t6 65q0 38 -6 73.5t-20.5 63.5t-39 44.5t-62.5 16.5t-63 -16.5t-39.5 -42.5t-20 -57.5t-5.5 -62.5zM280 548q-30 0 -56 10.5t-47.5 27t-38 37.5t-26.5 41l1 1q18 10 37 19t38 19q21 -38 50.5 -62t50.5 -24q9 0 22 3t30.5 12t38 25.5t44.5 42.5
q9 -8 18.5 -15.5t18.5 -15.5q-45 -66 -91 -93.5t-90 -27.5z" />
    <glyph glyph-name="Ohungarumlaut" unicode="&#x150;" horiz-adv-x="746" 
d="M686 353q0 -75 -18 -142t-56 -117.5t-98.5 -80t-145.5 -29.5q-149 0 -228.5 92t-79.5 260q0 74 18 140.5t56 117t98.5 80.5t144.5 30q73 0 130.5 -25t97.5 -70.5t60.5 -110.5t20.5 -145zM371 631q-54 0 -90.5 -23t-58.5 -61.5t-31.5 -88t-9.5 -102.5q0 -66 10 -120.5
t32.5 -93t59.5 -60t91 -21.5t90.5 23t59.5 61t33 88.5t10 104.5q0 60 -10 113.5t-33 93.5t-60.5 63t-92.5 23zM585 915l59 -79l-190 -116l-36 45zM413 915l60 -79l-190 -116l-37 45z" />
    <glyph glyph-name="ohungarumlaut" unicode="&#x151;" horiz-adv-x="562" 
d="M522 246q0 -52 -14 -99t-44 -82.5t-76 -56.5t-110 -21q-66 0 -111.5 19.5t-73.5 53.5t-40.5 80.5t-12.5 99.5q0 54 16 101t47.5 82t77.5 55.5t106 20.5t104 -18.5t73 -52.5t43.5 -80.5t14.5 -101.5zM154 253q0 -36 4.5 -71.5t18 -63.5t38.5 -45.5t66 -17.5q38 0 63 15.5
t39.5 41t20.5 57.5t6 65q0 38 -6 73.5t-20.5 63.5t-39 44.5t-62.5 16.5t-63 -16.5t-39.5 -42.5t-20 -57.5t-5.5 -62.5zM270 753l81 -54l-147 -168l-48 31zM415 753l81 -54l-147 -168l-48 31z" />
    <glyph glyph-name="Racute" unicode="&#x154;" horiz-adv-x="681" 
d="M351 292h-15q-16 1 -41 2.5t-57 7.5v-229l96 -22l-2 -51h-295l-2 45l88 28v545l-81 24l6 46q17 0 30.5 -0.5t27.5 -0.5t31.5 -0.5t41.5 -0.5q47 0 95 1.5t94 1.5q50 0 93 -10t74.5 -32.5t49 -58t17.5 -85.5q0 -32 -8.5 -61.5t-27.5 -55t-48 -45.5t-71 -32l223 -281
l-10 -31l-97 -21zM483 494q0 36 -12 60t-34.5 38.5t-54 20.5t-69.5 6q-37 0 -75 -8v-240q19 -4 41 -5t32 -1q54 0 87.5 11.5t52 30.5t25.5 41.5t7 45.5zM461 900l48 -86l-205 -88l-29 49z" />
    <glyph glyph-name="racute" unicode="&#x155;" horiz-adv-x="432" 
d="M224 425l2 -1q15 14 33.5 29t39.5 27t44.5 20t48.5 8q12 0 21 -8t9 -28q0 -24 -8.5 -50t-24.5 -46l-164 12v-323l78 -23l-1 -42h-260l-2 42l79 28v347l-69 18v42l148 23l9 -5zM296 752l77 -62l-159 -158l-45 35z" />
    <glyph glyph-name="Rcommaaccent" unicode="&#x156;" horiz-adv-x="681" 
d="M351 292h-15q-16 1 -41 2.5t-57 7.5v-229l96 -22l-2 -51h-295l-2 45l88 28v545l-81 24l6 46q17 0 30.5 -0.5t27.5 -0.5t31.5 -0.5t41.5 -0.5q47 0 95 1.5t94 1.5q50 0 93 -10t74.5 -32.5t49 -58t17.5 -85.5q0 -32 -8.5 -61.5t-27.5 -55t-48 -45.5t-71 -32l223 -281
l-10 -31l-97 -21zM483 494q0 36 -12 60t-34.5 38.5t-54 20.5t-69.5 6q-37 0 -75 -8v-240q19 -4 41 -5t32 -1q54 0 87.5 11.5t52 30.5t25.5 41.5t7 45.5zM314 -98q0 28 20 48t51 20q35 0 54 -23.5t19 -57.5q0 -46 -32.5 -88.5t-89.5 -72.5l-21 29q26 20 37.5 39.5t16.5 42.5
q-25 4 -40 22t-15 41z" />
    <glyph glyph-name="rcommaaccent" unicode="&#x157;" horiz-adv-x="432" 
d="M224 425l2 -1q15 14 33.5 29t39.5 27t44.5 20t48.5 8q12 0 21 -8t9 -28q0 -24 -8.5 -50t-24.5 -46l-164 12v-323l78 -23l-1 -42h-260l-2 42l79 28v347l-69 18v42l148 23l9 -5zM101 -118q0 28 20 48t51 20q35 0 54 -23.5t19 -57.5q0 -46 -32.5 -88.5t-89.5 -72.5l-21 29
q26 20 37.5 39.5t16.5 42.5q-25 4 -40 22t-15 41z" />
    <glyph glyph-name="Rcaron" unicode="&#x158;" horiz-adv-x="681" 
d="M351 292h-15q-16 1 -41 2.5t-57 7.5v-229l96 -22l-2 -51h-295l-2 45l88 28v545l-81 24l6 46q17 0 30.5 -0.5t27.5 -0.5t31.5 -0.5t41.5 -0.5q47 0 95 1.5t94 1.5q50 0 93 -10t74.5 -32.5t49 -58t17.5 -85.5q0 -32 -8.5 -61.5t-27.5 -55t-48 -45.5t-71 -32l223 -281
l-10 -31l-97 -21zM483 494q0 36 -12 60t-34.5 38.5t-54 20.5t-69.5 6q-37 0 -75 -8v-240q19 -4 41 -5t32 -1q54 0 87.5 11.5t52 30.5t25.5 41.5t7 45.5zM486 917l30 -34l-170 -155h-59l-168 156l28 33q14 -9 36.5 -22.5l47.5 -28.5t48 -29t37 -23z" />
    <glyph glyph-name="rcaron" unicode="&#x159;" horiz-adv-x="432" 
d="M224 425l2 -1q15 14 33.5 29t39.5 27t44.5 20t48.5 8q12 0 21 -8t9 -28q0 -24 -8.5 -50t-24.5 -46l-164 12v-323l78 -23l-1 -42h-260l-2 42l79 28v347l-69 18v42l148 23l9 -5zM379 737l29 -34l-170 -161h-58l-169 162l28 33q14 -9 37 -24t47.5 -31t47.5 -31t37 -24z" />
    <glyph glyph-name="Sacute" unicode="&#x15a;" horiz-adv-x="598" 
d="M292 705q26 0 69.5 -5.5t93.5 -25.5l17 29h38l3 -214l-42 -5l-41 112q-30 16 -66.5 24.5t-71.5 8.5q-51 0 -81 -21t-30 -62q0 -38 50 -68.5t137 -68.5q40 -17 73.5 -36.5t58.5 -44.5t39 -57.5t14 -75.5q0 -42 -15.5 -80t-48 -67.5t-84 -46.5t-123.5 -17q-15 0 -36.5 1.5
t-44.5 5.5t-46 9.5t-41 14.5l-19 -30h-40l-6 235l43 5l39 -115q35 -27 77 -38t77 -11q77 0 112 30.5t35 75.5q0 27 -12 49t-34.5 40.5t-53.5 34.5t-68 31q-50 21 -87.5 41.5t-63.5 44t-39 52t-13 65.5q0 34 13.5 66.5t42 58t72 40.5t103.5 15zM387 900l48 -86l-205 -88
l-29 49z" />
    <glyph glyph-name="sacute" unicode="&#x15b;" horiz-adv-x="469" 
d="M237 499q35 0 78.5 -7.5t81.5 -27.5q0 -33 -0.5 -65.5t-0.5 -65.5l-38 -4l-37 81q-23 14 -46.5 18.5t-37.5 4.5q-32 0 -52 -14t-20 -42q0 -14 6.5 -24.5t20.5 -19.5t35.5 -18t50.5 -21q36 -15 63.5 -29t47 -32t29.5 -41t10 -56q0 -32 -12.5 -59.5t-38.5 -47.5
t-66.5 -31.5t-95.5 -11.5q-48 0 -93 9.5t-74 26.5l-8 141q8 2 17.5 3.5t17.5 3.5l43 -89q21 -15 48.5 -21.5t47.5 -6.5q44 0 72.5 15.5t28.5 50.5q0 19 -8 32.5t-22.5 23.5t-33.5 18.5t-41 18.5q-29 13 -57 25.5t-50.5 29t-36 39t-13.5 55.5q0 27 10 52t31.5 44t56.5 30.5
t86 11.5zM292 752l77 -62l-159 -158l-45 35z" />
    <glyph glyph-name="Scircumflex" unicode="&#x15c;" horiz-adv-x="598" 
d="M292 705q26 0 69.5 -5.5t93.5 -25.5l17 29h38l3 -214l-42 -5l-41 112q-30 16 -66.5 24.5t-71.5 8.5q-51 0 -81 -21t-30 -62q0 -38 50 -68.5t137 -68.5q40 -17 73.5 -36.5t58.5 -44.5t39 -57.5t14 -75.5q0 -42 -15.5 -80t-48 -67.5t-84 -46.5t-123.5 -17q-15 0 -36.5 1.5
t-44.5 5.5t-46 9.5t-41 14.5l-19 -30h-40l-6 235l43 5l39 -115q35 -27 77 -38t77 -11q77 0 112 30.5t35 75.5q0 27 -12 49t-34.5 40.5t-53.5 34.5t-68 31q-50 21 -87.5 41.5t-63.5 44t-39 52t-13 65.5q0 34 13.5 66.5t42 58t72 40.5t103.5 15zM289 824l-169 -103l-28 33
l169 156h58l170 -155l-30 -34z" />
    <glyph glyph-name="scircumflex" unicode="&#x15d;" horiz-adv-x="469" 
d="M237 499q35 0 78.5 -7.5t81.5 -27.5q0 -33 -0.5 -65.5t-0.5 -65.5l-38 -4l-37 81q-23 14 -46.5 18.5t-37.5 4.5q-32 0 -52 -14t-20 -42q0 -14 6.5 -24.5t20.5 -19.5t35.5 -18t50.5 -21q36 -15 63.5 -29t47 -32t29.5 -41t10 -56q0 -32 -12.5 -59.5t-38.5 -47.5
t-66.5 -31.5t-95.5 -11.5q-48 0 -93 9.5t-74 26.5l-8 141q8 2 17.5 3.5t17.5 3.5l43 -89q21 -15 48.5 -21.5t47.5 -6.5q44 0 72.5 15.5t28.5 50.5q0 19 -8 32.5t-22.5 23.5t-33.5 18.5t-41 18.5q-29 13 -57 25.5t-50.5 29t-36 39t-13.5 55.5q0 27 10 52t31.5 44t56.5 30.5
t86 11.5zM232 647l-169 -108l-28 33l169 162h58l170 -161l-29 -34z" />
    <glyph glyph-name="Scedilla" unicode="&#x15e;" horiz-adv-x="598" 
d="M292 705q26 0 69.5 -5.5t93.5 -25.5l17 29h38l3 -214l-42 -5l-41 112q-30 16 -66.5 24.5t-71.5 8.5q-51 0 -81 -21t-30 -62q0 -38 50 -68.5t137 -68.5q40 -17 73.5 -36.5t58.5 -44.5t39 -57.5t14 -75.5q0 -39 -13.5 -75t-42 -64.5t-73 -47.5t-107.5 -23l-40 -52
q50 -4 82.5 -22.5t32.5 -60.5q0 -25 -15 -45.5t-41 -34.5t-61 -22t-75 -8h-10t-10 1v39q21 2 43.5 6t41 10.5t30.5 17t12 24.5t-9.5 23t-23 14t-29.5 7t-28 3l-13 20l30 40t31 40q-16 1 -36 3t-40 5.5t-39.5 8.5t-35.5 13l-19 -30h-40l-6 235l43 5l39 -115q35 -27 77 -38
t77 -11q77 0 112 30.5t35 75.5q0 27 -12 49t-34.5 40.5t-53.5 34.5t-68 31q-50 21 -87.5 41.5t-63.5 44t-39 52t-13 65.5q0 34 13.5 66.5t42 58t72 40.5t103.5 15z" />
    <glyph glyph-name="scedilla" unicode="&#x15f;" horiz-adv-x="469" 
d="M237 499q35 0 78.5 -7.5t81.5 -27.5q0 -33 -0.5 -65.5t-0.5 -65.5l-38 -4l-37 81q-23 14 -46.5 18.5t-37.5 4.5q-32 0 -52 -14t-20 -42q0 -14 6.5 -24.5t20.5 -19.5t35.5 -18t50.5 -21q36 -15 63.5 -29t47 -32t29.5 -41t10 -56q0 -57 -39.5 -97.5t-125.5 -49.5l-43 -56
q50 -4 82.5 -22.5t32.5 -60.5q0 -25 -15 -45.5t-41 -34.5t-61 -22t-75 -8h-10t-10 1v39q21 2 43.5 6t41 10.5t30.5 17t12 24.5t-9.5 23t-23 14t-29.5 7t-28 3l-13 20q16 21 31 41t31 40q-47 1 -90 10t-71 26l-8 141q8 2 17.5 3.5t17.5 3.5l43 -89q21 -15 48.5 -21.5
t47.5 -6.5q44 0 72.5 15.5t28.5 50.5q0 19 -8 32.5t-22.5 23.5t-33.5 18.5t-41 18.5q-29 13 -57 25.5t-50.5 29t-36 39t-13.5 55.5q0 27 10 52t31.5 44t56.5 30.5t86 11.5z" />
    <glyph glyph-name="Tcommaaccent" unicode="&#x162;" horiz-adv-x="633" 
d="M316 686q75 0 146 1t145 3l13 -7l3 -196l-45 -6l-46 139h-158v-547l97 -24l-2 -49h-299l-3 44l92 29v547h-158l-46 -139l-45 6l3 196l13 7q72 -2 141 -3t149 -1zM244 -118q0 28 20 48t51 20q35 0 54 -23.5t19 -57.5q0 -46 -32.5 -88.5t-89.5 -72.5l-21 29
q26 20 37.5 39.5t16.5 42.5q-25 4 -40 22t-15 41z" />
    </font>
</defs>
</svg>
