<?xml version="1.0" standalone="no"?>
<!DOCTYPE svg PUBLIC "-//W3C//DTD SVG 1.1//EN" "http://www.w3.org/Graphics/SVG/1.1/DTD/svg11.dtd" >
<svg>
<metadata>
Created by FontForge 20110222 at Thu Sep 25 09:15:47 2014
 By deploy user
Copyright (c) 2006 Parachute :, www.parachute.gr.  All rights reserved.
</metadata>
<defs>
<font id="PFAgoraSansPro-XThin" horiz-adv-x="1818" >
  <font-face 
    font-family="PF Agora Sans Pro XThin"
    font-weight="100"
    font-stretch="normal"
    units-per-em="1000"
    panose-1="2 0 5 3 0 0 0 2 0 4"
    ascent="750"
    descent="-250"
    x-height="486"
    cap-height="682"
    bbox="-295 -241 1760 913"
    underline-thickness="50"
    underline-position="-50"
    unicode-range="U+0020-FB05"
  />
<missing-glyph horiz-adv-x="428" 
d="M0 683h428v-683h-428v683zM408 26v635l-179 -319zM20 28l179 314l-179 314v-628zM384 663h-340l170 -303zM384 20l-170 303l-170 -303h340z" />
    <glyph glyph-name="fj" unicode="fj" horiz-adv-x="494" 
d="M124 486h283v-495q0 -39 -5.5 -69t-20 -54t-40 -44t-64.5 -38l-8 18q35 19 57.5 37t35 38.5t17.5 44t5 53.5v486h-260v-463h-23v463h-69v16l69 10l1 89q0 43 13.5 70.5t35.5 43.5t50.5 22t59.5 6t63 -3.5t58 -8.5l-4 -21q-28 5 -57.5 7.5t-55.5 2.5q-38 0 -64.5 -5.5
t-43.5 -20.5t-25 -41t-8 -66v-78z" />
    <glyph glyph-name="ffj" unicode="ffj" horiz-adv-x="764" 
d="M403 486h279v-495q0 -39 -5.5 -69t-20 -54t-40 -44t-64.5 -38l-8 18q35 19 57.5 37t35 38.5t17.5 44t5 53.5v486h-256v-463h-23v463h-254l-1 -463h-24l1 463h-67v16l68 9v70q0 43 13.5 72.5t37 47.5t55.5 26t70 8q31 0 65 -4.5t70 -16.5q23 24 56 33t70 9q31 0 63 -3.5
t58 -8.5l-4 -21q-28 5 -57.5 7.5t-55.5 2.5q-38 0 -64.5 -5.5t-43.5 -20.5t-25 -41t-8 -66v-91zM286 689q-47 0 -78 -8.5t-49 -27t-25.5 -47.5t-7.5 -69v-51h254l1 105q0 49 18 79q-33 11 -64 15t-49 4z" />
    <glyph glyph-name="ff" unicode="ff" horiz-adv-x="575" 
d="M512 733q17 0 35 -1.5t36 -5.5l-3 -20q-16 2 -33.5 4t-31.5 2q-58 0 -85.5 -24.5t-27.5 -84.5v-117h147v-23h-147l-1 -463h-22v463h-253l-1 -463h-24l1 463h-67v16l68 9v70q0 43 13.5 72.5t37 47.5t55.5 26t70 8q29 0 61 -4t66 -15q33 40 106 40zM379 600q0 45 13 72
q-32 9 -60.5 13t-45.5 4q-47 0 -78 -8.5t-49 -27t-25.5 -47.5t-7.5 -69v-51h253v114z" />
    <glyph glyph-name="fl" unicode="fl" horiz-adv-x="474" 
d="M408 0h-23v687q-28 5 -60 7.5t-58 2.5q-38 0 -64.5 -5.5t-43.5 -20.5t-25 -41t-8 -66v-78h162v-23h-162l-1 -463h-22v463h-69v16l70 10v89q0 43 13.5 70.5t35.5 43.5t50.5 22t59.5 6q30 0 64 -3.5t60 -8.5l22 6z" />
    <glyph glyph-name="ffi" unicode="ffi" horiz-adv-x="748" 
d="M659 0v463h-256v-463h-23v463h-254l-1 -463h-24l1 463h-67v16l68 9v70q0 43 13.5 72.5t37 47.5t55.5 26t70 8q31 0 65 -4.5t70 -16.5q23 24 56 33t70 9q31 0 63 -3.5t58 -8.5l-4 -21q-28 5 -57.5 7.5t-55.5 2.5q-38 0 -64.5 -5.5t-43.5 -20.5t-25 -41t-8 -66v-91h280
v-486h-24zM286 689q-47 0 -78 -8.5t-49 -27t-25.5 -47.5t-7.5 -69v-51h254l1 105q0 49 18 79q-33 11 -64 15t-49 4z" />
    <glyph glyph-name="ffl" unicode="ffl" horiz-adv-x="751" 
d="M286 689q-47 0 -78 -8.5t-49 -27t-25.5 -47.5t-7.5 -69v-51h254v105q0 47 19 79q-33 11 -64 15t-49 4zM544 710q-38 0 -64.5 -5.5t-43.5 -20.5t-25 -41t-8 -66v-91h163v-23h-163v-463h-23v463h-254l-1 -463h-24l1 463h-67v16l68 9v70q0 43 13.5 72.5t37 47.5t55.5 26
t70 8q31 0 65 -4.5t70 -16.5q23 24 56 33t70 9q30 0 64 -3.5t60 -8.5l22 6v-727h-24v700q-28 5 -60 7.5t-58 2.5z" />
    <glyph glyph-name="ft" unicode="ft" horiz-adv-x="612" 
d="M395 101q0 -36 15 -59t63 -23q38 0 94 17l6 -17q-23 -10 -49.5 -16t-52.5 -6q-19 0 -37 4t-31.5 15t-22 29.5t-8.5 47.5v370h-249v-463h-23v463h-69v16l69 10v95q0 72 35 102.5t98 30.5q17 0 35 -1.5t36 -5.5l-3 -20q-16 2 -33.5 4t-31.5 2q-58 0 -85.5 -24.5
t-27.5 -84.5v-101h248l8 95l16 2v-97h140v-23h-140v-362z" />
    <glyph glyph-name="fi" unicode="fi" horiz-adv-x="474" 
d="M385 0l-1 463h-260v-463h-23v463h-69v16l69 10l1 89q0 43 13.5 70.5t35.5 43.5t50.5 22t59.5 6t63 -3.5t58 -8.5l-4 -21q-28 5 -57.5 7.5t-55.5 2.5q-38 0 -64.5 -5.5t-43.5 -20.5t-25 -41t-8 -66v-78h285v-486h-24z" />
    <glyph glyph-name=".notdef" horiz-adv-x="428" 
d="M0 683h428v-683h-428v683zM408 26v635l-179 -319zM20 28l179 314l-179 314v-628zM384 663h-340l170 -303zM384 20l-170 303l-170 -303h340z" />
    <glyph glyph-name="numbersign" unicode="#" horiz-adv-x="500" 
d="M385 431l-43 -204h86l-5 -18h-85l-44 -209h-20l44 209h-183l-44 -209h-20l44 209h-72l5 18h71l43 204h-75l5 18h74q8 41 18 86.5t18 86.5h20l-37 -173h183q8 41 18.5 86.5t18.5 86.5h21l-37 -173h83l-5 -18h-82zM139 227h182q10 48 22 102t22 102h-184z" />
    <glyph glyph-name="dollar" unicode="$" horiz-adv-x="500" 
d="M260 726h21v-62q30 -2 62 -10.5t58 -23.5l-11 -23q-32 16 -57.5 22.5t-51.5 9.5v-290q31 -14 60.5 -28t52.5 -33.5t36.5 -46.5t13.5 -66t-12.5 -68t-34.5 -50t-52 -33.5t-64 -17.5v-83h-21v803zM224 -77h-21v80q-41 4 -80.5 17t-67.5 30l12 23q44 -23 75.5 -32t60.5 -13
v320q-30 11 -55 24t-43.5 30.5t-29 41.5t-10.5 57q0 34 10.5 61t29 47t44 33t54.5 19v65h21v-803zM419 181q0 28 -10.5 49t-29 38t-44 30t-54.5 24v-292q65 11 101.5 46.5t36.5 104.5zM90 506q0 -29 8.5 -49.5t24 -35.5t36 -26t44.5 -20v261q-24 -6 -44.5 -17t-35.5 -26.5
t-24 -37t-9 -49.5z" />
    <glyph glyph-name="percent" unicode="%" horiz-adv-x="744" 
d="M322 461q0 -33 -6.5 -68.5t-23 -64t-45 -47t-71.5 -18.5q-50 0 -79.5 17.5t-45.5 45.5t-20.5 63.5t-4.5 70.5q0 31 5 67t21.5 67t46 51.5t79.5 20.5q51 0 79.5 -21.5t43 -53t18 -67t3.5 -63.5zM300 460q0 23 -3 55t-15 61t-36.5 49t-67.5 20t-68.5 -19t-38.5 -47.5
t-17 -61t-4 -59.5q0 -36 5 -67.5t18.5 -55t38.5 -37.5t66 -14q37 0 60.5 16.5t37 42t19 56.5t5.5 61zM242 -23h-24l279 719h22zM717 194q0 -33 -6.5 -68.5t-23 -64t-45 -47t-71.5 -18.5q-50 0 -79.5 17.5t-45.5 45.5t-20.5 63.5t-4.5 70.5q0 31 5 67t21.5 67t46 51.5
t79.5 20.5q51 0 79.5 -21.5t43 -53t18 -67t3.5 -63.5zM695 193q0 23 -3 55t-15 61t-36.5 49t-67.5 20t-68.5 -19t-38.5 -47.5t-17 -61t-4 -59.5q0 -36 5 -67.5t18.5 -55t38.5 -37.5t66 -14q37 0 60.5 16.5t37 42t19 56.5t5.5 61z" />
    <glyph glyph-name="ampersand" unicode="&#x26;" horiz-adv-x="682" 
d="M266 670q58 0 89 -33t31 -84q0 -45 -37 -88t-113 -82q49 -75 102.5 -143.5t117.5 -134.5q27 25 50 54.5t41 65t30 77.5t15 93h21q-3 -52 -15 -96.5t-30.5 -82.5t-43 -69.5t-51.5 -56.5q35 -35 78.5 -65t78.5 -47l-12 -20q-16 7 -36.5 19.5t-42.5 28.5t-44.5 34t-41.5 37
q-52 -42 -112.5 -64t-115.5 -22q-42 0 -78.5 11.5t-63.5 34t-42.5 57t-15.5 81.5q0 70 47 121.5t130 98.5q-31 41 -45.5 81t-14.5 62q0 58 33.5 95t90.5 37zM48 176q0 -42 14 -72.5t37.5 -50.5t54.5 -30t65 -10q51 0 103.5 15.5t115.5 62.5q-66 69 -121 139t-103 144
q-36 -20 -66.5 -41t-52.5 -45t-34.5 -51.5t-12.5 -60.5zM261 645q-26 0 -44 -10.5t-28.5 -26t-15 -33t-4.5 -32.5q0 -32 14 -65.5t42 -74.5q28 13 53 30t43.5 36.5t29 40.5t10.5 42q0 42 -26 67.5t-74 25.5z" />
    <glyph glyph-name="quoteright" unicode="&#x2019;" horiz-adv-x="187" 
d="M93 655q-11 0 -18.5 7t-7.5 18q0 12 7 20.5t19 8.5q14 0 22.5 -9t8.5 -28q0 -23 -13 -52.5t-36 -49.5l-8 8q15 21 20.5 40.5t5.5 36.5z" />
    <glyph glyph-name="parenleft" unicode="(" horiz-adv-x="253" 
d="M193 -172q-9 14 -31 50.5t-45 94t-40.5 136.5t-17.5 179q0 86 17.5 157.5t40 126t44.5 90.5t32 51l10 -7q-10 -16 -29.5 -51.5t-38.5 -89t-33 -123t-14 -154.5q0 -96 14 -171.5t33 -132t38 -94t30 -56.5z" />
    <glyph glyph-name="parenright" unicode=")" horiz-adv-x="253" 
d="M51 -166q10 19 29.5 56.5t38.5 94t33 132t14 171.5q0 85 -14 154.5t-33 123t-38.5 89t-29.5 51.5l10 7q10 -15 32 -51t44.5 -90.5t40 -126t17.5 -157.5q0 -100 -17.5 -179t-40.5 -136.5t-45 -94t-31 -50.5z" />
    <glyph glyph-name="asterisk" unicode="*" horiz-adv-x="321" 
d="M282 606q12 -17 10 -35l-120 -22l81 -91q-5 -8 -13.5 -13.5t-16.5 -7.5l-60 106l-56 -107q-9 2 -17.5 7.5t-13.5 13.5l80 92l-120 23q0 9 2.5 19t8.5 17l113 -49l-13 121q8 3 18.5 3.5t18.5 -3.5l-14 -121z" />
    <glyph glyph-name="plus" unicode="+" horiz-adv-x="500" 
d="M263 283v-170h-26v170h-167v25h167v164h26v-164h166v-25h-166z" />
    <glyph glyph-name="comma" unicode="," horiz-adv-x="117" 
d="M56 -2q-11 0 -18.5 7t-7.5 18q0 12 7 20.5t19 8.5q14 0 22.5 -9t8.5 -28q0 -11 -3.5 -26t-9.5 -31t-15 -30.5t-21 -24.5l-8 8q15 21 20.5 45.5t5.5 41.5z" />
    <glyph glyph-name="hyphen" unicode="-" horiz-adv-x="320" 
d="M50 237v27h220v-27h-220z" />
    <glyph glyph-name="period" unicode="." horiz-adv-x="139" 
d="M42 27q0 11 8.5 19t19.5 8t19 -8t8 -19t-8 -19.5t-19 -8.5t-19.5 8.5t-8.5 19.5z" />
    <glyph glyph-name="slash" unicode="/" horiz-adv-x="307" 
d="M33 -25h-26l260 722h24z" />
    <glyph glyph-name="zero" unicode="0" horiz-adv-x="500" 
d="M474 326q0 -56 -10 -115t-35 -107.5t-67.5 -79.5t-108.5 -31q-75 0 -120 29.5t-69 76.5t-31.5 106t-7.5 118q0 52 8 113t32 113.5t69.5 87.5t120.5 35q51 0 87.5 -17t60.5 -45t38.5 -64t21.5 -74.5t9 -76.5t2 -69zM450 323q0 27 -1.5 62t-8 71t-19 70.5t-34 61.5
t-54 43.5t-78.5 16.5t-79.5 -15.5t-56 -41.5t-36.5 -60t-21 -70t-9.5 -72.5t-2.5 -67.5q0 -63 8 -118.5t30 -97t62 -65.5t105 -24q59 0 97 28.5t59.5 73t30 99t8.5 106.5z" />
    <glyph glyph-name="one" unicode="1" horiz-adv-x="500" 
d="M107 606v19l153 36h29v-661h-24v628z" />
    <glyph glyph-name="two" unicode="2" horiz-adv-x="500" 
d="M26 0v24l80 76q53 51 103 102t88.5 101.5t61.5 99t23 94.5q0 39 -12 66.5t-33 45t-49 25.5t-59 8q-44 0 -89.5 -15t-83.5 -42l-13 22q42 29 91 45t97 16q36 0 68.5 -9.5t57 -30t39 -52t14.5 -75.5q0 -53 -26.5 -107.5t-66.5 -107t-87.5 -100.5t-89.5 -89l-76 -74h370v-23
h-408z" />
    <glyph glyph-name="three" unicode="3" horiz-adv-x="500" 
d="M416 661l5 -20l-248 -254h44q43 0 84 -10.5t72 -32.5t50 -57.5t19 -84.5q0 -51 -17.5 -90.5t-47.5 -66t-70 -40t-85 -13.5q-58 0 -103 7.5t-86 24.5l9 21q55 -20 100 -24.5t73 -4.5q42 0 78.5 11t63.5 34t42.5 58t15.5 84q0 76 -54.5 117.5t-150.5 41.5q-20 0 -36 -1
t-32 -4l-12 20l252 260h-323v24h357z" />
    <glyph glyph-name="four" unicode="4" horiz-adv-x="500" 
d="M381 661v-442h100v-24h-100l1 -195h-26v195h-337v27q84 112 168 220t167 219h27zM356 219v406l-310 -406h310z" />
    <glyph glyph-name="five" unicode="5" horiz-adv-x="500" 
d="M252 400q34 0 69.5 -10.5t64.5 -33.5t48 -60.5t19 -92.5q0 -54 -17 -94t-47 -66.5t-70 -39t-86 -12.5q-57 0 -101 8t-86 25l10 21q48 -17 89.5 -23.5t70.5 -6.5q98 0 154 45t56 143q0 43 -14.5 75.5t-39.5 54.5t-59 32.5t-74 10.5q-30 0 -64 -8.5t-63 -22.5l-21 13
l15 303h319v-24h-297l-14 -266q7 2 12 5q5 2 8 3.5t4 1.5q15 5 43 12t71 7z" />
    <glyph glyph-name="six" unicode="6" horiz-adv-x="500" 
d="M294 671q46 0 78.5 -9t58.5 -20l-10 -21q-40 16 -72 21t-57 5q-43 0 -75 -16.5t-55 -43.5t-38.5 -60t-25 -66t-13.5 -62.5t-5 -48.5l2 -3q33 23 83.5 39t109.5 16q38 0 72.5 -10.5t61 -34.5t42 -62t15.5 -93q0 -97 -55 -153t-149 -56q-64 0 -104.5 25t-64 67t-32 98.5
t-8.5 119.5q0 82 15.5 149.5t46.5 116t75.5 75.5t103.5 27zM441 197q0 40 -8.5 73t-28.5 57t-52 37t-79 13q-44 0 -79 -9.5t-60 -20.5t-38.5 -21.5t-15.5 -11.5v-29q0 -37 5.5 -83.5t24 -88t55 -69.5t99.5 -28q41 0 74 13.5t56 37.5t35 57t12 73z" />
    <glyph glyph-name="seven" unicode="7" horiz-adv-x="500" 
d="M146 0h-27l286 637h-351v24h375v-26z" />
    <glyph glyph-name="eight" unicode="8" horiz-adv-x="500" 
d="M439 522q0 -42 -26 -90t-87 -90q61 -30 93 -70.5t32 -99.5q0 -33 -12.5 -65t-38 -57.5t-64.5 -41t-92 -15.5q-57 0 -97.5 14.5t-65.5 38t-36.5 52t-11.5 56.5q0 65 35.5 124.5t105.5 102.5q-51 26 -77 59t-26 77q0 30 12.5 57.5t36 49.5t57.5 35t76 13q32 0 65 -8.5
t60 -26.5t44 -46.5t17 -68.5zM247 16q48 0 81.5 14.5t55.5 36.5t32 49t10 52q0 48 -19 78.5t-50.5 52t-73 37.5t-87.5 34q-71 -43 -104.5 -99.5t-33.5 -113.5q0 -24 9 -49t31 -45.5t58.5 -33.5t90.5 -13zM250 649q-44 0 -73.5 -14.5t-47.5 -35t-25.5 -43.5t-7.5 -40
q0 -34 20 -59.5t50.5 -44.5t67 -33.5t70.5 -26.5q63 45 86.5 88.5t23.5 76.5q0 22 -8 45.5t-27.5 42.5t-51 31.5t-77.5 12.5z" />
    <glyph glyph-name="nine" unicode="9" horiz-adv-x="500" 
d="M205 -6q-46 0 -84 8.5t-64 19.5l10 21q40 -16 77.5 -21t62.5 -5q43 0 75 16.5t55 43.5t38.5 60t25 66t13.5 62.5t5 48.5l-2 3q-33 -23 -83.5 -39t-109.5 -16q-38 0 -72.5 10.5t-61 34.5t-42 62t-15.5 93q0 97 55 153t149 56q64 0 104.5 -25t63.5 -67t32 -98.5t9 -119.5
q0 -82 -15.5 -149.5t-46.5 -116t-76 -75t-103 -26.5zM58 467q0 -40 8.5 -73t28.5 -57t52 -37t79 -13q44 0 79 9.5t60 20.5t38.5 21t15.5 12v29q0 37 -5.5 83.5t-24 88t-55 69.5t-99.5 28q-41 0 -74 -13.5t-56 -37.5t-35 -57t-12 -73z" />
    <glyph glyph-name="colon" unicode=":" horiz-adv-x="139" 
d="M42 27q0 11 8.5 19t19.5 8t19 -8t8 -19t-8 -19.5t-19 -8.5t-19.5 8.5t-8.5 19.5zM42 334q0 11 8.5 19t19.5 8t19 -8t8 -19t-8 -19.5t-19 -8.5t-19.5 8.5t-8.5 19.5z" />
    <glyph glyph-name="less" unicode="&#x3c;" horiz-adv-x="500" 
d="M72 281v29l356 186v-28l-335 -172l335 -173v-29z" />
    <glyph glyph-name="equal" unicode="=" horiz-adv-x="500" 
d="M70 357v25h359v-25h-359zM70 219v24h359v-24h-359z" />
    <glyph glyph-name="greater" unicode="&#x3e;" horiz-adv-x="500" 
d="M72 94v29l335 173l-335 172v28l356 -186v-29z" />
    <glyph glyph-name="question" unicode="?" horiz-adv-x="403" 
d="M378 579q0 -23 -8 -43t-20.5 -38t-29.5 -34t-35 -30q-38 -29 -64 -53.5t-42.5 -46.5t-24 -43t-7.5 -45q0 -15 2 -34.5t7 -39.5l-23 -6q-6 29 -8 50t-2 35q0 45 30.5 89.5t100.5 98.5q44 34 70.5 65.5t26.5 72.5q0 28 -11 47.5t-29.5 31.5t-44 17t-55.5 5q-31 0 -70 -6
t-90 -21l-7 22q43 15 85.5 21.5t76.5 6.5q87 0 129.5 -32.5t42.5 -89.5zM195 24q0 -14 -9 -22.5t-20 -8.5q-12 0 -21.5 8.5t-9.5 22.5q0 12 9 20.5t21 8.5t21 -8.5t9 -20.5z" />
    <glyph glyph-name="at" unicode="@" horiz-adv-x="847" 
d="M447 681q79 0 141.5 -22t106 -63t67 -99.5t23.5 -130.5q0 -53 -14.5 -91.5t-36.5 -63.5t-48.5 -36.5t-50.5 -11.5q-15 0 -31 2t-30.5 8t-26 17t-18.5 28q-24 -22 -60.5 -39.5t-80.5 -17.5q-31 0 -50.5 10.5t-31 26t-15.5 34t-4 34.5q0 29 10 48.5t27.5 31.5t41 18t50.5 8
l107 8v41q0 57 -20 78.5t-70 21.5q-52 0 -116 -23l-7 18q28 14 62.5 21.5t68.5 7.5q52 0 78 -26t26 -82v-173q0 -38 22.5 -58t63.5 -20q22 0 45 9.5t42 31t31 56t12 83.5q0 72 -22.5 127t-64 92t-99.5 56t-128 19q-71 0 -134.5 -25t-111.5 -69t-76 -103.5t-28 -129.5
q0 -71 24.5 -131t67.5 -103.5t101.5 -68t126.5 -24.5q29 0 55.5 3.5t58.5 13.5l6 -20q-23 -7 -53.5 -13t-61.5 -6q-75 0 -139 26t-110.5 72.5t-72.5 110t-26 139.5t30 140t81.5 110.5t119 72.5t142.5 26zM401 350q-39 -2 -65.5 -24t-26.5 -59q0 -36 19.5 -60t62.5 -24
q29 0 64.5 13t67.5 42v121z" />
    <glyph glyph-name="A" unicode="A" horiz-adv-x="514" 
d="M404 197h-295l-62 -197h-27l219 682h36l219 -682h-26zM210 511l-93 -290h279l-93 290l-45 143h-3z" />
    <glyph glyph-name="B" unicode="B" horiz-adv-x="553" 
d="M369 355q36 -11 61 -30.5t40 -44t21.5 -51t6.5 -50.5q0 -41 -13.5 -74t-37 -56t-55.5 -36t-69 -13h-243v682h205q48 0 84 -12.5t59.5 -35t35 -53t11.5 -66.5q0 -18 -4 -40t-16 -43.5t-33 -41t-54 -33.5zM107 342v-318h207q42 0 72 13t48.5 35.5t27.5 51t9 60.5
q0 30 -12 58.5t-33.5 50.5t-50.5 35.5t-63 13.5h-205zM107 658v-291h189q33 0 61 10.5t48 29.5t31.5 45.5t11.5 58.5q0 31 -9.5 58t-29.5 47t-51 31t-75 11h-176z" />
    <glyph glyph-name="C" unicode="C" horiz-adv-x="539" 
d="M504 19q-16 -6 -38.5 -10.5t-47 -8t-49 -5.5t-45.5 -2q-72 0 -122.5 24t-82 68t-45.5 107.5t-14 143.5q0 37 4.5 77.5t16 80t30.5 75.5t49 63.5t71 43.5t96 16q53 0 97 -7.5t70 -17.5l-8 -23q-38 11 -79.5 17.5t-77.5 6.5q-65 0 -110.5 -24t-75 -68t-43 -105.5
t-13.5 -136.5q0 -58 8 -115t33 -102t72.5 -72.5t126.5 -27.5q13 0 34 1.5t44.5 4t47.5 6.5t44 10z" />
    <glyph glyph-name="D" unicode="D" horiz-adv-x="595" 
d="M535 343q0 -71 -12.5 -133.5t-43.5 -109t-83.5 -73.5t-132.5 -27h-183v682h194q78 0 128.5 -27.5t80 -74t41 -108t11.5 -129.5zM509 334q0 80 -13.5 135.5t-35 91.5t-48.5 55.5t-54 29t-51.5 11t-40.5 1.5h-160v-633h151q14 0 38.5 1t52.5 9.5t56.5 26.5t52 52.5t38 88
t14.5 131.5z" />
    <glyph glyph-name="E" unicode="E" horiz-adv-x="490" 
d="M80 682h363v-24h-337v-284h295v-23l-295 -1v-326h354v-24h-380v682z" />
    <glyph glyph-name="F" unicode="F" horiz-adv-x="462" 
d="M106 0h-26v682h362v-24h-336v-283h295v-24l-295 -1v-350z" />
    <glyph glyph-name="G" unicode="G" horiz-adv-x="583" 
d="M340 692q53 0 99 -7.5t72 -17.5l-5 -22q-40 11 -84 17t-80 6q-65 0 -112.5 -24t-79.5 -68t-47.5 -105.5t-15.5 -136.5q0 -58 8.5 -114.5t34.5 -101.5t75 -72.5t130 -27.5q15 0 34.5 1.5t40.5 4t41 6.5t35 10v298h27v-319q-46 -14 -93 -20t-93 -6q-72 0 -123 24t-83 68
t-46.5 107.5t-14.5 143.5q0 55 13 117.5t44.5 115.5t85.5 88t137 35z" />
    <glyph glyph-name="H" unicode="H" horiz-adv-x="591" 
d="M485 0v349h-378v-349h-27v682h27v-309h378l-1 309h27v-682h-26z" />
    <glyph glyph-name="I" unicode="I" horiz-adv-x="206" 
d="M90 0v682h26v-682h-26z" />
    <glyph glyph-name="J" unicode="J" horiz-adv-x="251" 
d="M125 682h25l1 -579q0 -57 -12 -100t-35 -75.5t-56 -58t-75 -48.5l-12 22q42 25 73 49.5t51.5 54t30 67t9.5 87.5v581z" />
    <glyph glyph-name="K" unicode="K" horiz-adv-x="513" 
d="M218 407l275 -407h-31l-262 387l-93 -93v-294h-27v682h27v-353l348 353h37z" />
    <glyph glyph-name="L" unicode="L" horiz-adv-x="523" 
d="M133 24h370v-24h-397v682h26z" />
    <glyph glyph-name="M" unicode="M" horiz-adv-x="759" 
d="M332 190l47 -107h3l48 108l222 491h27v-682h-25l-1 616h-4l-41 -92l-212 -467h-31l-221 484l-35 79h-3v-620h-26v682h29z" />
    <glyph glyph-name="N" unicode="N" horiz-adv-x="627" 
d="M520 50v632h27l-1 -682h-26l-342 528l-68 107h-3v-635h-27v682h29l355 -549l52 -83h4z" />
    <glyph glyph-name="O" unicode="O" horiz-adv-x="648" 
d="M588 337q0 -73 -16 -135.5t-48.5 -108.5t-80.5 -72.5t-112 -27.5q-75 0 -127 23.5t-84 67.5t-46 107t-14 143q0 69 13 134t44.5 114.5t83.5 79.5t130 30q79 0 129 -30t78.5 -80t39 -114t10.5 -131zM561 334q0 54 -8 113.5t-32.5 108.5t-70 81t-119.5 32t-121.5 -29
t-74.5 -76.5t-37.5 -108t-10.5 -123.5q0 -155 56 -235.5t181 -80.5q60 0 105 25t74 68.5t43.5 101t14.5 123.5z" />
    <glyph glyph-name="P" unicode="P" horiz-adv-x="488" 
d="M80 0v682h196q39 0 73.5 -11t61 -34t42 -58.5t15.5 -83.5q0 -30 -7.5 -64.5t-28 -64t-56.5 -49t-93 -19.5h-176v-298h-27zM284 322q28 0 56.5 8t51 27.5t36.5 52t14 82.5q0 42 -12.5 73t-34.5 52t-51.5 31t-62.5 10h-174v-336h177z" />
    <glyph glyph-name="Q" unicode="Q" horiz-adv-x="648" 
d="M588 337q0 -62 -12 -117t-35 -98.5t-58 -74t-81 -44.5l177 -45l-12 -33l-217 69q-5 0 -9.5 -0.5t-9.5 -0.5q-75 0 -127 23.5t-84 67.5t-46 107t-14 143q0 69 13 134t44.5 114.5t83.5 79.5t130 30q79 0 129 -30t78.5 -80t39 -114t10.5 -131zM561 334q0 54 -8 113.5
t-32.5 108.5t-70 81t-119.5 32t-121.5 -29t-74.5 -76.5t-37.5 -108t-10.5 -123.5q0 -155 56 -235.5t181 -80.5q60 0 105 25t74 68.5t43.5 101t14.5 123.5z" />
    <glyph glyph-name="R" unicode="R" horiz-adv-x="533" 
d="M107 0h-27v682h191q54 0 92 -14.5t61.5 -38.5t34 -56t10.5 -67q0 -27 -6.5 -56t-21 -54t-38.5 -44.5t-59 -26.5q42 -14 63.5 -42.5t34.5 -70.5l61 -212h-27l-60 205q-11 34 -26.5 56t-35.5 34.5t-42.5 17.5t-46.5 5h-158v-318zM107 658v-316h172q81 0 122 41.5t41 119.5
q0 77 -47 116t-119 39h-169z" />
    <glyph glyph-name="S" unicode="S" horiz-adv-x="514" 
d="M261 693q30 0 76 -5t91 -21l-8 -25q-53 15 -90.5 20.5t-73.5 5.5q-37 0 -68.5 -9.5t-55 -29t-36.5 -48.5t-13 -69q0 -35 15.5 -58.5t41 -39.5t58.5 -26.5t69 -20.5q37 -10 74 -22t66.5 -32.5t48 -52.5t18.5 -82t-18.5 -85.5t-49.5 -57.5t-73 -32t-88 -10
q-52 0 -107.5 11.5t-97.5 35.5l11 22q54 -26 100 -35.5t90 -9.5q97 0 151.5 38t54.5 124q0 38 -13.5 64t-37.5 44t-57 30t-72 23q-43 11 -81.5 24t-67.5 32t-46 47t-17 70q0 44 15 77.5t42 56.5t65 34.5t84 11.5z" />
    <glyph glyph-name="T" unicode="T" horiz-adv-x="501" 
d="M482 658h-218l-1 -658h-25v658h-219v24h462z" />
    <glyph glyph-name="U" unicode="U" horiz-adv-x="639" 
d="M533 682h26v-443q0 -54 -15 -99.5t-45 -78t-75 -50.5t-106 -18q-62 0 -107 17t-74 48.5t-43 77.5t-14 103v443h25l1 -440q0 -112 53 -168.5t159 -56.5t160.5 57t54.5 168v440z" />
    <glyph glyph-name="V" unicode="V" horiz-adv-x="496" 
d="M450 682h26l-210 -682h-36l-210 682h27l161 -528l38 -127h3l39 131z" />
    <glyph glyph-name="W" unicode="W" horiz-adv-x="769" 
d="M373 638l-152 -638h-36l-165 682h24l157 -654h3l158 654h26l178 -654h3l156 654h24l-164 -682h-36l-172 638h-4z" />
    <glyph glyph-name="X" unicode="X" horiz-adv-x="491" 
d="M245 329l-197 -329h-28l211 352l-197 330h28l183 -306l183 306h27l-196 -330l212 -352h-29z" />
    <glyph glyph-name="Y" unicode="Y" horiz-adv-x="454" 
d="M167 450l55 -107h3l52 97l132 242h30l-202 -365v-317h-26v314l-196 368h29z" />
    <glyph glyph-name="Z" unicode="Z" horiz-adv-x="463" 
d="M15 0v27l389 631h-365v24h392v-27l-387 -630h404v-25h-433z" />
    <glyph glyph-name="bracketleft" unicode="[" horiz-adv-x="224" 
d="M63 -160v856h123v-29h-95v-799h95v-28h-123z" />
    <glyph glyph-name="backslash" unicode="\" horiz-adv-x="307" 
d="M7 697h24l260 -722h-26z" />
    <glyph glyph-name="bracketright" unicode="]" horiz-adv-x="224" 
d="M42 -160v28h95v799h-95v29h123v-856h-123z" />
    <glyph glyph-name="asciicircum" unicode="^" horiz-adv-x="414" 
d="M355 404l-147 255l-147 -255h-31l165 279h30l159 -279h-29z" />
    <glyph glyph-name="underscore" unicode="_" horiz-adv-x="500" 
d="M0 -113v21h500v-21h-500z" />
    <glyph glyph-name="quoteleft" unicode="&#x2018;" horiz-adv-x="187" 
d="M97 623q11 0 18.5 -7t7.5 -18q0 -12 -7 -20.5t-19 -8.5q-14 0 -22.5 9t-8.5 28q0 23 13 52.5t36 49.5l8 -8q-15 -21 -20.5 -40.5t-5.5 -36.5z" />
    <glyph glyph-name="a" unicode="a" horiz-adv-x="476" 
d="M348 61q-33 -25 -60.5 -38.5t-49 -20t-38 -7.5t-28.5 -1q-39 0 -64.5 12t-40.5 31.5t-21 42.5t-6 46q0 35 12.5 60.5t34.5 42t51.5 25t62.5 10.5l152 7v51q0 39 -5.5 67t-19 46t-37 26.5t-59.5 8.5q-37 0 -76.5 -9.5t-75.5 -23.5l-8 19q42 17 84.5 26t80.5 9
q70 0 105 -35.5t35 -119.5v-311h67l2 -16q-17 -7 -32.5 -9.5t-27.5 -2.5q-19 0 -27 7.5t-8 27.5v28zM198 242q-65 -3 -99.5 -33.5t-34.5 -79.5q0 -57 30.5 -85.5t87.5 -28.5q40 0 82 20t89 56v159z" />
    <glyph glyph-name="b" unicode="b" horiz-adv-x="467" 
d="M84 442q54 27 91 38.5t71 11.5q50 0 83 -19.5t52.5 -53.5t27.5 -80.5t8 -101.5q0 -51 -9.5 -95.5t-31.5 -77t-57.5 -51.5t-87.5 -19q-54 0 -95 10t-76 26v678h23v-179v-41.5t-1 -43.5zM248 471q-43 0 -86.5 -17.5t-78.5 -36.5v-372q40 -17 76.5 -23t68.5 -6
q77 0 121 50.5t44 168.5q0 67 -10.5 112.5t-29 73t-45.5 39t-60 11.5z" />
    <glyph glyph-name="c" unicode="c" horiz-adv-x="431" 
d="M75 232q0 -43 7.5 -82.5t26 -69.5t50 -47.5t79.5 -17.5q42 0 76 9t75 26l7 -19q-29 -16 -69 -27t-85 -11q-53 0 -89.5 18t-59.5 49.5t-33 75.5t-10 97q0 36 7.5 81t29 84.5t60.5 66.5t102 27q37 0 72 -6.5t61 -17.5l-9 -21q-38 14 -69 18.5t-53 4.5q-46 0 -79.5 -17
t-55 -48.5t-31.5 -75.5t-10 -97z" />
    <glyph glyph-name="d" unicode="d" horiz-adv-x="467" 
d="M382 56q-36 -28 -78 -45t-84 -17q-48 0 -80.5 18t-52.5 50t-28.5 75.5t-8.5 94.5q0 55 10 102.5t32 82t57 54.5t85 20q30 0 67.5 -8.5t82.5 -33.5l1 259h22v-708h-23v55zM384 422q-29 18 -68.5 32t-82.5 14q-33 0 -62 -12.5t-50 -40.5t-33.5 -73.5t-12.5 -111.5
q0 -60 10.5 -101t30.5 -66t47.5 -36t62.5 -11q19 0 40.5 5.5t42.5 15t40.5 22t34.5 27.5v336z" />
    <glyph glyph-name="e" unicode="e" horiz-adv-x="462" 
d="M242 491q46 0 76.5 -14.5t50 -37t29 -49.5t14 -53t4.5 -47.5v-31.5v-16h-341q0 -45 6.5 -86t25 -72t50 -49.5t81.5 -18.5q45 0 79 9t75 29l9 -20q-39 -21 -76 -31t-83 -10q-58 0 -95.5 19.5t-59 53t-29.5 78.5t-8 95q0 18 2 43.5t9 53.5t20 56t34.5 50t52.5 35.5t74 13.5
zM241 470q-44 0 -74 -17.5t-49 -46t-28.5 -66t-13.5 -76.5h315q0 45 -7.5 83t-25 65t-46 42.5t-71.5 15.5z" />
    <glyph glyph-name="f" unicode="f" horiz-adv-x="300" 
d="M239 717q17 0 35 -1.5t36 -5.5l-3 -20q-16 2 -33.5 4t-31.5 2q-58 0 -85.5 -24.5t-27.5 -84.5v-101h147v-23h-147l-1 -463h-22v463h-69v16l69 10v95q0 72 35 102.5t98 30.5z" />
    <glyph glyph-name="g" unicode="g" horiz-adv-x="488" 
d="M361 456q30 -20 43.5 -53.5t13.5 -71.5q0 -76 -51 -119.5t-135 -43.5h-63q-20 0 -38 -1.5t-31.5 -7t-21.5 -15t-8 -25.5q0 -45 70 -45h140q90 0 127.5 -37.5t37.5 -97.5q0 -38 -16.5 -67.5t-45 -49.5t-66.5 -30.5t-81 -10.5q-55 0 -92 11.5t-59 31t-31 45.5t-9 54
q0 44 19 79.5t45 52.5q-33 3 -47.5 19.5t-14.5 41.5q0 22 9 35.5t23 21.5t31 11.5t32 3.5l1 1q-32 15 -55.5 51t-23.5 88q0 45 15.5 76t40 50.5t54.5 28.5t60 9q20 0 41 -2t42 -9h141v-23h-96zM147 53q-39 -17 -58.5 -53.5t-19.5 -70.5q0 -24 7 -47t26 -40t52 -27.5
t85 -10.5q38 0 71.5 9t58 26t38.5 42t14 57q0 19 -5 39t-20 37t-43.5 28t-75.5 11h-130zM395 331q0 22 -7.5 46.5t-25.5 45t-48 34t-74 13.5q-73 0 -112.5 -38.5t-39.5 -103.5q0 -31 10.5 -56t29 -43t43.5 -28t55 -10q77 0 123 35t46 105z" />
    <glyph glyph-name="h" unicode="h" horiz-adv-x="460" 
d="M84 434q54 28 103.5 43t84.5 15q47 0 73 -14.5t38 -36t14.5 -46.5t2.5 -47v-348h-24v335q0 30 -3.5 54.5t-14.5 42.5t-32 27.5t-56 9.5q-22 0 -46.5 -5.5t-49 -14t-48 -19t-43.5 -21.5v-409h-23v708h23v-137v-67.5t-1 -67.5z" />
    <glyph glyph-name="i" unicode="i" horiz-adv-x="188" 
d="M82 0l1 486h23v-486h-24zM118 608q0 -10 -7 -17t-18 -7q-9 0 -16 7t-7 17q0 11 7 18t16 7q11 0 18 -7t7 -18z" />
    <glyph glyph-name="j" unicode="j" horiz-adv-x="195" 
d="M88 486h24v-495q0 -39 -5.5 -69t-20 -54t-40 -44t-64.5 -38l-9 18q35 19 57.5 37t35.5 38.5t18 44t5 53.5zM124 608q0 -10 -7 -17t-18 -7q-9 0 -16 7t-7 17q0 11 7 18t16 7q11 0 18 -7t7 -18z" />
    <glyph glyph-name="k" unicode="k" horiz-adv-x="398" 
d="M85 236q21 20 42 42t44 43l171 165h31l-194 -188l29 -39l175 -259h-29l-192 283l-79 -77v-206h-23v708h23v-471z" />
    <glyph glyph-name="l" unicode="l" horiz-adv-x="175" 
d="M100 0h-25v708h25v-708z" />
    <glyph glyph-name="m" unicode="m" horiz-adv-x="760" 
d="M87 436q50 27 96.5 41.5t81.5 14.5q56 0 82.5 -18.5t35.5 -45.5q63 35 109.5 49.5t80.5 14.5q45 0 70 -12t38 -31t16 -41.5t3 -44.5v-363h-24v334q0 30 -2 55t-12 42.5t-31 27.5t-59 10q-22 0 -46 -6t-48 -15t-47 -20t-42 -21q3 -23 3 -44v-363h-24v334q0 30 -2 55
t-12 42.5t-31 27.5t-59 10q-22 0 -45.5 -5.5t-47 -14t-46 -19.5t-41.5 -21v-409h-23v486h24q0 -12 -0.5 -24t-0.5 -24z" />
    <glyph glyph-name="n" unicode="n" horiz-adv-x="460" 
d="M87 436q50 27 100.5 41.5t85.5 14.5q45 0 70 -12t38 -31t16 -41.5t3 -44.5v-363h-24v334q0 30 -2 55t-12 42.5t-31 27.5t-59 10q-22 0 -46.5 -5.5t-49.5 -14t-49 -19.5t-43 -21v-409h-23v486h24q0 -12 -0.5 -24t-0.5 -24z" />
    <glyph glyph-name="o" unicode="o" horiz-adv-x="477" 
d="M243 491q56 0 92 -22.5t56.5 -58.5t28 -81t7.5 -90q0 -44 -8 -87.5t-28.5 -79t-57 -57.5t-93.5 -22t-93.5 20.5t-58 54.5t-30 77.5t-8.5 90.5q0 46 10 92t32.5 82t59.5 58.5t91 22.5zM403 236q0 37 -6 78.5t-23 76t-48.5 57t-82.5 22.5q-50 0 -82.5 -21t-51.5 -55
t-26.5 -75.5t-7.5 -83.5t6 -81.5t24 -70t51 -49t87 -18.5q50 0 81 20.5t48.5 52t24 70.5t6.5 77z" />
    <glyph glyph-name="p" unicode="p" horiz-adv-x="466" 
d="M83 430q36 28 78.5 45t84.5 17q48 0 80.5 -18t52.5 -50t28.5 -75.5t8.5 -94.5q0 -55 -10 -102.5t-32 -82t-57 -54.5t-85 -20q-30 0 -67.5 8.5t-82.5 33.5v-250h-22v699h22q0 -14 -0.5 -27t-0.5 -27zM82 64q29 -18 68.5 -32t82.5 -14q33 0 62 12.5t50 40.5t33.5 73.5
t12.5 111.5q0 60 -10.5 101t-30.5 66t-48 36t-62 11q-19 0 -40.5 -5.5t-42.5 -15t-40.5 -22t-34.5 -27.5v-336z" />
    <glyph glyph-name="q" unicode="q" horiz-adv-x="467" 
d="M382 42q-53 -27 -90.5 -38t-70.5 -11q-50 0 -83 19.5t-52.5 53.5t-27.5 80.5t-8 101.5q0 51 9.5 95.5t31.5 78t57.5 52.5t87.5 19q54 0 95 -10t76 -26v-670h-22l-1 131q0 31 0.5 61t0.5 61zM219 14q43 0 86.5 17.5t78.5 36.5v374q-40 17 -76.5 23t-68.5 6
q-78 0 -121.5 -51.5t-43.5 -169.5q0 -67 10.5 -112.5t29 -73t45.5 -39t60 -11.5z" />
    <glyph glyph-name="r" unicode="r" horiz-adv-x="268" 
d="M98 423q12 11 32 23.5t41 23.5t41 18t33 7q4 0 7.5 -2t3.5 -10q0 -4 -1.5 -10.5t-5.5 -11.5l-153 -51v-410h-26v486h26q0 -16 -0.5 -31.5t-0.5 -31.5h3z" />
    <glyph glyph-name="s" unicode="s" horiz-adv-x="406" 
d="M205 491q20 0 56 -4.5t68 -19.5l-8 -21q-34 14 -64 19t-53 5q-54 0 -89.5 -24t-35.5 -78q0 -22 12 -39t30 -29.5t39.5 -21.5t40.5 -15q30 -10 58.5 -20.5t51 -26t36.5 -38t14 -55.5q0 -35 -14 -59.5t-37.5 -40t-53.5 -23t-62 -7.5q-42 0 -80.5 8t-68.5 26l10 20
q39 -21 73.5 -27t61.5 -6q31 0 58 6.5t47 20t31.5 33.5t11.5 48q0 24 -11 42t-29.5 31.5t-41.5 23t-47 17.5q-30 9 -57.5 20t-49 27t-34.5 36.5t-13 49.5q0 34 12.5 57t33 37.5t47.5 21t57 6.5z" />
    <glyph glyph-name="t" unicode="t" horiz-adv-x="305" 
d="M126 101q0 -36 15 -59t63 -23q38 0 94 17l6 -17q-23 -10 -49.5 -16t-52.5 -6q-19 0 -37 4t-31.5 15t-22 29.5t-8.5 47.5v370h-69v15l68 11l8 85l16 2v-90h140v-23h-140v-362z" />
    <glyph glyph-name="u" unicode="u" horiz-adv-x="452" 
d="M366 65q-31 -26 -58.5 -40.5t-50.5 -22.5t-40.5 -10t-27.5 -2q-50 0 -76 14.5t-37.5 36t-13 46.5t-1.5 47v352h23v-340q0 -31 3 -56t13.5 -42.5t31 -27t56.5 -9.5q18 0 40 5t46 15t48.5 25t46.5 35l-1 395h24v-486h-23v64z" />
    <glyph glyph-name="v" unicode="v" horiz-adv-x="373" 
d="M40 486q27 -86 55 -175t57 -182l31 -103h3l32 103q26 81 55 168.5t59 188.5h26q-42 -131 -81 -251.5t-77 -234.5h-32q-36 115 -73 234t-80 252h25v0z" />
    <glyph glyph-name="w" unicode="w" horiz-adv-x="643" 
d="M315 452l-29 -100l-104 -352h-34l-133 486h24l86 -317l39 -146h3l45 156l90 307h26l110 -343l38 -120h3l34 127l91 336h24l-133 -486h-34l-107 336l-37 116h-2z" />
    <glyph glyph-name="x" unicode="x" horiz-adv-x="374" 
d="M185 240l-148 -240h-27l161 259l-142 227h28l128 -207l128 207h26l-140 -226l165 -260h-29z" />
    <glyph glyph-name="y" unicode="y" horiz-adv-x="401" 
d="M182 -119q-15 -46 -36 -73t-66 -27q-17 0 -41 2.5t-55 10.5l5 22q32 -6 48.5 -8.5t33.5 -2.5q13 0 24 0.5t21.5 7.5t20.5 23t20 46l38 118h-14l-167 486h24l100 -291l60 -177h4l56 178l92 290h25z" />
    <glyph glyph-name="z" unicode="z" horiz-adv-x="389" 
d="M47 22l319 1v-23h-349v24l313 437l-2 2h-289v23h317v-28l-310 -434z" />
    <glyph glyph-name="braceleft" unicode="{" horiz-adv-x="224" 
d="M160 -160q-32 0 -45.5 21t-13.5 53v258q0 16 -1.5 35t-8.5 35.5t-21 29t-38 17.5v21q24 4 37.5 16.5t20.5 29t9 35.5t2 38v188q0 32 15.5 56t49.5 24h30v-28h-22q-25 0 -35 -14.5t-10 -46.5v-181q0 -19 -2.5 -38.5t-8.5 -37t-16.5 -31t-27.5 -19.5q37 -19 46 -50.5
t9 -76.5v-247q0 -25 6 -43t34 -18h27v-26h-36z" />
    <glyph glyph-name="bar" unicode="|" horiz-adv-x="196" 
d="M85 -134v829h25v-829h-25z" />
    <glyph glyph-name="braceright" unicode="}" horiz-adv-x="224" 
d="M32 -160v26h27q28 0 34 18t6 43v247q0 45 9 76.5t46 50.5q-17 6 -27.5 19.5t-16.5 31t-8.5 37t-2.5 38.5v181q0 32 -10 46.5t-35 14.5h-22v28h30q34 0 49.5 -24t15.5 -56v-188q0 -19 2 -38t9 -35.5t20.5 -29t37.5 -16.5v-21q-24 -5 -38 -17.5t-21 -29t-8.5 -35.5
t-1.5 -35v-258q0 -32 -13.5 -53t-45.5 -21h-36z" />
    <glyph glyph-name="asciitilde" unicode="~" horiz-adv-x="500" 
d="M422 308l11 -7q-14 -30 -25.5 -41t-29.5 -11q-26 0 -60.5 5.5t-70 12t-69 12t-55.5 5.5l-43 -40l-13 8q15 30 27.5 42.5t32.5 12.5q22 0 57.5 -5.5t72.5 -12t70.5 -12t52.5 -5.5z" />
    <glyph glyph-name="sterling" unicode="&#xa3;" horiz-adv-x="500" 
d="M42 0v25q24 10 39.5 31t25 48t14 57t5.5 56l5 110h-72v23h74q1 30 2.5 64t2.5 64q1 37 9.5 71t28 60t52 41t82.5 15q38 0 79 -6.5t68 -17.5l-8 -22q-38 13 -70.5 18t-67.5 5q-45 0 -73.5 -13t-44.5 -35.5t-22.5 -53t-8.5 -65.5l-5 -125h208v-23h-209l-4 -109
q-1 -26 -5.5 -54t-12.5 -54.5t-21 -48.5t-31 -37h367v-24h-407z" />
    <glyph glyph-name="yen" unicode="&#xa5;" horiz-adv-x="500" 
d="M251 323l63 120l116 218h28l-193 -358h168v-23h-366v23h166l-186 358h28l110 -218l63 -120h3zM433 237v-21h-172v-216h-24l-1 216h-169v21h366z" />
    <glyph glyph-name="section" unicode="&#xa7;" horiz-adv-x="435" 
d="M237 713q24 0 41.5 -1.5t32.5 -4.5t27.5 -6.5t26.5 -7.5l-8 -23q-32 10 -58 15t-62 5q-24 0 -48 -6t-44 -19.5t-32.5 -36t-12.5 -54.5q0 -24 12 -42t31.5 -33t44.5 -28t50 -25q44 -22 71 -41t42 -37t20.5 -36t5.5 -37q0 -29 -19 -61.5t-52 -64.5q27 -17 42.5 -35
t24 -34.5t11 -30t2.5 -21.5q0 -39 -15.5 -67t-40.5 -46t-57.5 -26.5t-65.5 -8.5q-45 0 -76.5 7t-60.5 16l8 22q41 -13 70 -18t62 -5q28 0 55.5 7.5t49 22.5t34.5 38t13 54q0 39 -22 65.5t-55.5 45.5t-72.5 34.5t-72.5 34t-55.5 43.5t-22 63q0 35 19 70.5t63 67.5
q-38 26 -53 52.5t-15 56.5q0 66 45 101t116 35zM223 428q-14 8 -31 15t-29 15q-37 -27 -58 -60.5t-21 -62.5q0 -31 19 -52.5t48.5 -38.5t64.5 -32t68 -32q38 33 53.5 63.5t15.5 54.5q0 19 -6.5 34.5t-21.5 30.5t-40 30.5t-62 34.5z" />
    <glyph glyph-name="quotesingle" unicode="'" horiz-adv-x="131" 
d="M60 506l-10 176h31l-8 -176h-13z" />
    <glyph glyph-name="quotedblleft" unicode="&#x201c;" horiz-adv-x="252" 
d="M97 623q11 0 18.5 -7t7.5 -18q0 -12 -7 -20.5t-19 -8.5q-14 0 -22.5 9t-8.5 28q0 23 13 52.5t36 49.5l8 -8q-15 -21 -20.5 -40.5t-5.5 -36.5zM173 623q11 0 18.5 -7t7.5 -18q0 -12 -7 -20.5t-19 -8.5q-14 0 -22.5 9t-8.5 28q0 23 13 52.5t36 49.5l8 -8
q-15 -21 -20.5 -40.5t-5.5 -36.5z" />
    <glyph glyph-name="guillemotleft" unicode="&#xab;" horiz-adv-x="365" 
d="M100 178l117 -144l-13 -12l-135 141v31l134 140l13 -11zM199 178l117 -144l-13 -12l-135 141v31l134 140l13 -11z" />
    <glyph glyph-name="endash" unicode="&#x2013;" horiz-adv-x="500" 
d="M25 238v28h453v-28h-453z" />
    <glyph glyph-name="dagger" unicode="&#x2020;" horiz-adv-x="451" 
d="M231 455v-509h-25v509h-167v22h167v204h25v-204h166v-22h-166z" />
    <glyph glyph-name="periodcentered" unicode="&#xb7;" horiz-adv-x="148" 
d="M45 279q0 11 10 21t23 10q11 0 21 -10t10 -21q0 -13 -10 -23t-21 -10q-13 0 -23 10t-10 23z" />
    <glyph glyph-name="bullet" unicode="&#x2022;" horiz-adv-x="250" 
d="M188 267q0 -28 -17.5 -46t-46.5 -18q-27 0 -44.5 18t-17.5 46t17.5 46t44.5 18q29 0 46.5 -18t17.5 -46z" />
    <glyph glyph-name="quotedblright" unicode="&#x201d;" horiz-adv-x="252" 
d="M169 655q-11 0 -18.5 7t-7.5 18q0 12 7 20.5t19 8.5q14 0 22.5 -9t8.5 -28q0 -23 -13 -52.5t-36 -49.5l-8 8q15 21 20.5 40.5t5.5 36.5zM93 655q-11 0 -18.5 7t-7.5 18q0 12 7 20.5t19 8.5q14 0 22.5 -9t8.5 -28q0 -23 -13 -52.5t-36 -49.5l-8 8q15 21 20.5 40.5
t5.5 36.5z" />
    <glyph glyph-name="guillemotright" unicode="&#xbb;" horiz-adv-x="365" 
d="M161 323l13 11l134 -140v-31l-135 -141l-13 12l117 144zM62 323l13 11l134 -140v-31l-135 -141l-13 12l117 144z" />
    <glyph glyph-name="ellipsis" unicode="&#x2026;" horiz-adv-x="483" 
d="M42 27q0 11 8.5 19t19.5 8t19 -8t8 -19t-8 -19.5t-19 -8.5t-19.5 8.5t-8.5 19.5zM203 27q0 11 8.5 19t19.5 8t19 -8t8 -19t-8 -19.5t-19 -8.5t-19.5 8.5t-8.5 19.5zM368 27q0 11 8.5 19t19.5 8t19 -8t8 -19t-8 -19.5t-19 -8.5t-19.5 8.5t-8.5 19.5z" />
    <glyph glyph-name="perthousand" unicode="&#x2030;" horiz-adv-x="1205" 
d="M332 461q0 -33 -6.5 -68.5t-23 -64t-45 -47t-71.5 -18.5q-50 0 -79.5 17.5t-45.5 45.5t-20.5 63.5t-4.5 70.5q0 31 5 67t21.5 67t46 51.5t79.5 20.5q51 0 79.5 -21.5t43 -53t18 -67t3.5 -63.5zM310 460q0 23 -3 55t-15 61t-36.5 49t-67.5 20t-68.5 -19t-38.5 -47.5
t-17 -61t-4 -59.5q0 -36 5 -67.5t18.5 -55t38.5 -37.5t66 -14q37 0 60.5 16.5t37 42t19 56.5t5.5 61zM272 -23h-24l279 719h22zM767 194q0 -33 -6.5 -68.5t-23 -64t-45 -47t-71.5 -18.5q-50 0 -79.5 17.5t-45.5 45.5t-20.5 63.5t-4.5 70.5q0 31 5 67t21.5 67t46 51.5
t79.5 20.5q51 0 79.5 -21.5t43 -53t18 -67t3.5 -63.5zM745 193q0 23 -3 55t-15 61t-36.5 49t-67.5 20t-68.5 -19t-38.5 -47.5t-17 -61t-4 -59.5q0 -36 5 -67.5t18.5 -55t38.5 -37.5t66 -14q37 0 60.5 16.5t37 42t19 56.5t5.5 61zM1130 194q0 -33 -6.5 -68.5t-23 -64t-45 -47
t-71.5 -18.5q-50 0 -79.5 17.5t-45.5 45.5t-20.5 63.5t-4.5 70.5q0 31 5 67t21.5 67t46 51.5t79.5 20.5q51 0 79.5 -21.5t43 -53t18 -67t3.5 -63.5zM1108 193q0 23 -3 55t-15 61t-36.5 49t-67.5 20t-68.5 -19t-38.5 -47.5t-17 -61t-4 -59.5q0 -36 5 -67.5t18.5 -55
t38.5 -37.5t66 -14q37 0 60.5 16.5t37 42t19 56.5t5.5 61z" />
    <glyph glyph-name="grave" unicode="`" horiz-adv-x="465" 
d="M245 554l-111 131l26 22l100 -143z" />
    <glyph glyph-name="dieresis" unicode="&#xa8;" horiz-adv-x="466" 
d="M169 608q0 -11 -7 -18t-18 -7q-10 0 -17 7t-7 18t7 18t17 7q11 0 18 -7t7 -18zM302 608q0 -11 -7 -18t-18 -7q-10 0 -17 7t-7 18t7 18t17 7q11 0 18 -7t7 -18z" />
    <glyph glyph-name="emdash" unicode="&#x2014;" horiz-adv-x="1000" 
d="M24 238v28h947v-28h-947z" />
    <glyph glyph-name="oe" unicode="&#x153;" horiz-adv-x="805" 
d="M591 491q46 0 76.5 -14.5t50 -37t29 -49.5t14 -53t4.5 -47.5v-31.5v-16h-341q0 -45 6.5 -86t25 -72t50 -49.5t81.5 -18.5q45 0 79 9t75 29l9 -20q-39 -21 -76 -31t-83 -10q-83 0 -124.5 38.5t-56.5 100.5q-8 -29 -21.5 -54.5t-34.5 -44t-50.5 -29.5t-68.5 -11
q-57 0 -93.5 20.5t-58 54.5t-30 77.5t-8.5 90.5q0 46 10 92t32.5 82t59.5 58.5t91 22.5q40 0 69.5 -12t50.5 -32t33.5 -47t19.5 -58q7 27 20.5 54t34.5 48t52 34t73 13zM398 236q0 37 -6 78.5t-23 76t-48.5 57t-82.5 22.5q-50 0 -82.5 -21t-51.5 -55t-26.5 -75.5t-7.5 -83.5
t6 -81.5t24 -70t51 -49t87 -18.5q50 0 81 20.5t48.5 52t24 70.5t6.5 77zM590 470q-44 0 -74 -17.5t-49 -46t-28.5 -66t-13.5 -76.5h315q0 45 -7.5 83t-25 65t-46 42.5t-71.5 15.5z" />
    <glyph glyph-name="trademark" unicode="&#x2122;" horiz-adv-x="614" 
d="M524 682h19v-290h-19v247l-100 -200h-20l-95 200v-247h-18v290h20l105 -223zM141 393v268h-95v21h212v-21h-97v-268h-20z" />
    <glyph glyph-name="divide" unicode="&#xf7;" horiz-adv-x="500" 
d="M70 283v25h359v-25h-359zM222 428q0 11 9 20t22 9q11 0 20 -9t9 -20q0 -13 -9 -22t-20 -9q-13 0 -22 9t-9 22zM222 163q0 11 9 20t22 9q11 0 20 -9t9 -20q0 -13 -9 -22t-20 -9q-13 0 -22 9t-9 22z" />
    <glyph glyph-name="brokenbar" unicode="&#xa6;" horiz-adv-x="196" 
d="M85 357v338h25v-338h-25zM110 256v-390h-25v390h25z" />
    <glyph glyph-name="degree" unicode="&#xb0;" horiz-adv-x="328" 
d="M163 435q-56 0 -86 32.5t-30 80.5q0 23 9 44t25 37t37 25.5t45 9.5t44.5 -9.5t35.5 -25.5t24 -37t9 -44q0 -24 -9 -44.5t-24 -35.5t-35.5 -24t-44.5 -9zM161 641q-18 0 -35 -8t-29.5 -21t-20 -30t-7.5 -35t7.5 -34.5t20 -29t29.5 -19.5t35 -7t34.5 7t29 19.5t20.5 29
t8 34.5t-8 35t-20.5 30t-29 21t-34.5 8z" />
    <glyph glyph-name="registered" unicode="&#xae;" horiz-adv-x="562" 
d="M507 475q0 -49 -18.5 -90.5t-50 -71.5t-73.5 -47t-89 -17t-89 16.5t-73 46.5t-49 71.5t-18 91.5q0 47 18 89t49 73t73 49t89 18t89 -18t73.5 -49t50 -73t18.5 -89zM487 475q0 43 -16.5 81.5t-45.5 67.5t-67.5 45.5t-81.5 16.5q-42 0 -80 -16.5t-66.5 -45.5t-45.5 -67.5
t-17 -81.5q0 -45 16 -82.5t44 -65.5t66.5 -43.5t82.5 -15.5q43 0 81.5 15t67.5 42.5t45.5 65.5t16.5 84zM351 332l-61 132h-67v-132h-22v289h85q37 0 62.5 -17.5t25.5 -59.5q0 -23 -12 -46t-49 -33l62 -133h-24zM351 543q0 33 -18.5 46t-43.5 13h-66v-119h66q24 0 43 12
t19 48z" />
    <glyph glyph-name="copyright" unicode="&#xa9;" horiz-adv-x="819" 
d="M416 -19q-74 0 -139 27.5t-113.5 75.5t-76.5 112.5t-28 138.5q0 73 28 137t76.5 112t113.5 75.5t139 27.5q73 0 138.5 -27.5t114.5 -75.5t77.5 -112t28.5 -137q0 -74 -28.5 -138.5t-77.5 -112.5t-114.5 -75.5t-138.5 -27.5zM416 666q-69 0 -130.5 -26t-107 -71t-72 -105
t-26.5 -129t26.5 -129.5t72 -105.5t107 -71t130.5 -26q70 0 131 26t106.5 71t71.5 105.5t26 129.5t-26 129t-71.5 105t-106.5 71t-131 26zM550 94q-23 -9 -59 -14.5t-69 -5.5q-107 0 -154.5 67.5t-47.5 185.5q0 37 9 82.5t31.5 85t62 66t101.5 26.5q40 0 70 -6t50 -13
l-7 -23q-30 12 -58 16t-54 4q-45 0 -79 -17.5t-56.5 -49t-33.5 -75.5t-11 -98q0 -44 7 -85.5t26.5 -73t55 -50.5t91.5 -19q21 0 55 3.5t64 13.5z" />
    <glyph glyph-name="dieresistonos" unicode="&#x385;" horiz-adv-x="466" 
d="M169 608q0 -11 -7 -18t-18 -7q-10 0 -17 7t-7 18t7 18t17 7q11 0 18 -7t7 -18zM302 608q0 -11 -7 -18t-18 -7q-10 0 -17 7t-7 18t7 18t17 7q11 0 18 -7t7 -18zM163 564l100 143l26 -22l-111 -131z" />
    <glyph glyph-name="tonos" unicode="&#x384;" horiz-adv-x="465" 
d="M134 564l100 143l26 -22l-111 -131z" />
    <glyph glyph-name="sfthyphen" unicode="&#xad;" horiz-adv-x="320" 
d="M50 237v27h220v-27h-220z" />
    <glyph glyph-name="Gamma" unicode="&#x393;" horiz-adv-x="452" 
d="M105 0h-25v682h362v-24h-336z" />
    <glyph glyph-name="Delta" unicode="&#x394;" horiz-adv-x="517" 
d="M10 0v23l232 659h33l232 -659v-23h-497zM204 503l-167 -479h443l-168 482l-52 151h-3z" />
    <glyph glyph-name="Delta" unicode="&#x2206;" horiz-adv-x="517" 
d="M10 0v23l232 659h33l232 -659v-23h-497zM204 503l-167 -479h443l-168 482l-52 151h-3z" />
    <glyph glyph-name="Theta" unicode="&#x398;" horiz-adv-x="628" 
d="M155 370l317 1v-26h-317v25zM578 337q0 -73 -16 -135.5t-48.5 -108.5t-80.5 -72.5t-112 -27.5q-75 0 -127 23.5t-84 67.5t-46 107t-14 143q0 69 13 134t44.5 114.5t83.5 79.5t130 30q79 0 129 -30t78.5 -80t39 -114t10.5 -131zM551 334q0 54 -8 113.5t-32.5 108.5t-70 81
t-119.5 32t-121.5 -29t-74.5 -76.5t-37.5 -108t-10.5 -123.5q0 -155 56 -235.5t181 -80.5q60 0 105 25t74 68.5t43.5 101t14.5 123.5z" />
    <glyph glyph-name="Lambda" unicode="&#x39b;" horiz-adv-x="514" 
d="M47 0h-27l219 682h36l219 -682h-26l-165 511l-45 143h-3l-45 -143z" />
    <glyph glyph-name="Xi" unicode="&#x39e;" horiz-adv-x="533" 
d="M35 0v30h463v-30h-463zM54 654v27h425v-27h-425zM91 372h358v-28h-358v28z" />
    <glyph glyph-name="Pi" unicode="&#x3a0;" horiz-adv-x="591" 
d="M485 0v657h-378v-657h-27v682h431v-682h-26z" />
    <glyph glyph-name="Sigma" unicode="&#x3a3;" horiz-adv-x="494" 
d="M462 682v-24h-391l188 -284v-15l-193 -335h412v-24h-439v27l193 339l-189 289v27h419z" />
    <glyph glyph-name="Alpha" unicode="&#x391;" horiz-adv-x="514" 
d="M404 197h-295l-62 -197h-27l219 682h36l219 -682h-26zM210 511l-93 -290h279l-93 290l-45 143h-3z" />
    <glyph glyph-name="Beta" unicode="&#x392;" horiz-adv-x="553" 
d="M369 355q36 -11 61 -30.5t40 -44t21.5 -51t6.5 -50.5q0 -41 -13.5 -74t-37 -56t-55.5 -36t-69 -13h-243v682h205q48 0 84 -12.5t59.5 -35t35 -53t11.5 -66.5q0 -18 -4 -40t-16 -43.5t-33 -41t-54 -33.5zM107 342v-318h207q42 0 72 13t48.5 35.5t27.5 51t9 60.5
q0 30 -12 58.5t-33.5 50.5t-50.5 35.5t-63 13.5h-205zM107 658v-291h189q33 0 61 10.5t48 29.5t31.5 45.5t11.5 58.5q0 31 -9.5 58t-29.5 47t-51 31t-75 11h-176z" />
    <glyph glyph-name="Epsilon" unicode="&#x395;" horiz-adv-x="490" 
d="M80 682h363v-24h-337v-284h295v-23l-295 -1v-326h354v-24h-380v682z" />
    <glyph glyph-name="Zeta" unicode="&#x396;" horiz-adv-x="463" 
d="M15 0v27l389 631h-365v24h392v-27l-387 -630h404v-25h-433z" />
    <glyph glyph-name="Eta" unicode="&#x397;" horiz-adv-x="591" 
d="M485 0v349h-378v-349h-27v682h27v-309h378l-1 309h27v-682h-26z" />
    <glyph glyph-name="Iota" unicode="&#x399;" horiz-adv-x="206" 
d="M90 0v682h26v-682h-26z" />
    <glyph glyph-name="Kappa" unicode="&#x39a;" horiz-adv-x="513" 
d="M218 407l275 -407h-31l-262 387l-93 -93v-294h-27v682h27v-353l348 353h37z" />
    <glyph glyph-name="Mu" unicode="&#x39c;" horiz-adv-x="759" 
d="M332 190l47 -107h3l48 108l222 491h27v-682h-25l-1 616h-4l-41 -92l-212 -467h-31l-221 484l-35 79h-3v-620h-26v682h29z" />
    <glyph glyph-name="Phi" unicode="&#x3a6;" horiz-adv-x="763" 
d="M400 610q86 -3 146 -26.5t97 -60t53.5 -82t16.5 -91.5q0 -53 -21.5 -99t-61.5 -81.5t-98.5 -56.5t-131.5 -22l-1 -91h-24v91q-87 3 -148.5 23t-100.5 53.5t-57.5 79t-18.5 100.5q0 47 18 92.5t57 82t101 60.5t149 28v71h24zM375 587q-79 -3 -135.5 -24.5t-93 -54.5
t-53.5 -75t-17 -88q0 -110 78.5 -167.5t220.5 -63.5v473zM400 114q67 1 120.5 20t90.5 50.5t56.5 73t19.5 89.5q0 40 -14 81t-47 75.5t-88 57.5t-138 26v-473z" />
    <glyph glyph-name="Psi" unicode="&#x3a8;" horiz-adv-x="699" 
d="M624 427q0 -114 -70.5 -175.5t-192.5 -66.5v-185h-25v184q-126 8 -193.5 67t-67.5 177v254h26v-256q0 -104 61 -157t174 -60v473h25v-473q116 7 176 62t61 160v251h25z" />
    <glyph glyph-name="Omega" unicode="&#x3a9;" horiz-adv-x="653" 
d="M327 692q80 0 131 -30t80.5 -78t41 -108.5t11.5 -122.5q0 -49 -6.5 -98t-22.5 -92.5t-42.5 -80t-65.5 -59.5h155v-23h-214v25q48 16 80.5 47.5t52 74.5t27.5 95.5t8 109.5q0 51 -9 107t-35 102.5t-72 77t-121 30.5q-68 0 -113 -27t-72.5 -71.5t-39 -101t-11.5 -115.5
q0 -60 5.5 -112.5t22.5 -95t47.5 -74t81.5 -47.5v-25h-203v23h147q-42 21 -67.5 58t-39 82t-18 93.5t-4.5 92.5q0 63 13 124.5t44 110t82 78.5t126 30z" />
    <glyph glyph-name="Nu" unicode="&#x39d;" horiz-adv-x="627" 
d="M520 50v632h27l-1 -682h-26l-342 528l-68 107h-3v-635h-27v682h29l355 -549l52 -83h4z" />
    <glyph glyph-name="Omicron" unicode="&#x39f;" horiz-adv-x="648" 
d="M588 337q0 -73 -16 -135.5t-48.5 -108.5t-80.5 -72.5t-112 -27.5q-75 0 -127 23.5t-84 67.5t-46 107t-14 143q0 69 13 134t44.5 114.5t83.5 79.5t130 30q79 0 129 -30t78.5 -80t39 -114t10.5 -131zM561 334q0 54 -8 113.5t-32.5 108.5t-70 81t-119.5 32t-121.5 -29
t-74.5 -76.5t-37.5 -108t-10.5 -123.5q0 -155 56 -235.5t181 -80.5q60 0 105 25t74 68.5t43.5 101t14.5 123.5z" />
    <glyph glyph-name="Rho" unicode="&#x3a1;" horiz-adv-x="488" 
d="M80 0v682h196q39 0 73.5 -11t61 -34t42 -58.5t15.5 -83.5q0 -30 -7.5 -64.5t-28 -64t-56.5 -49t-93 -19.5h-176v-298h-27zM284 322q28 0 56.5 8t51 27.5t36.5 52t14 82.5q0 42 -12.5 73t-34.5 52t-51.5 31t-62.5 10h-174v-336h177z" />
    <glyph glyph-name="Tau" unicode="&#x3a4;" horiz-adv-x="501" 
d="M482 658h-218l-1 -658h-25v658h-219v24h462z" />
    <glyph glyph-name="Upsilon" unicode="&#x3a5;" horiz-adv-x="454" 
d="M167 450l55 -107h3l52 97l132 242h30l-202 -365v-317h-26v314l-196 368h29z" />
    <glyph glyph-name="Chi" unicode="&#x3a7;" horiz-adv-x="491" 
d="M245 329l-197 -329h-28l211 352l-197 330h28l183 -306l183 306h27l-196 -330l212 -352h-29z" />
    <glyph glyph-name="Alphatonos" unicode="&#x386;" horiz-adv-x="514" 
d="M404 197h-295l-62 -197h-27l219 682h36l219 -682h-26zM210 511l-93 -290h279l-93 290l-45 143h-3zM-3 567l100 143l26 -22l-111 -131z" />
    <glyph glyph-name="Epsilontonos" unicode="&#x388;" horiz-adv-x="490" 
d="M80 682h363v-24h-337v-284h295v-23l-295 -1v-326h354v-24h-380v682zM-111 566l100 143l26 -22l-111 -131z" />
    <glyph glyph-name="Etatonos" unicode="&#x389;" horiz-adv-x="591" 
d="M485 0v349h-378v-349h-27v682h27v-309h378l-1 309h27v-682h-26zM-115 566l100 143l26 -22l-111 -131z" />
    <glyph glyph-name="Iotatonos" unicode="&#x38a;" horiz-adv-x="206" 
d="M90 0v682h26v-682h-26zM-98 566l100 143l26 -22l-111 -131z" />
    <glyph glyph-name="Omicrontonos" unicode="&#x38c;" horiz-adv-x="648" 
d="M588 337q0 -73 -16 -135.5t-48.5 -108.5t-80.5 -72.5t-112 -27.5q-75 0 -127 23.5t-84 67.5t-46 107t-14 143q0 69 13 134t44.5 114.5t83.5 79.5t130 30q79 0 129 -30t78.5 -80t39 -114t10.5 -131zM561 334q0 54 -8 113.5t-32.5 108.5t-70 81t-119.5 32t-121.5 -29
t-74.5 -76.5t-37.5 -108t-10.5 -123.5q0 -155 56 -235.5t181 -80.5q60 0 105 25t74 68.5t43.5 101t14.5 123.5zM-61 566l100 143l26 -22l-111 -131z" />
    <glyph glyph-name="Upsilontonos" unicode="&#x38e;" horiz-adv-x="454" 
d="M167 450l55 -107h3l52 97l132 242h30l-202 -365v-317h-26v314l-196 368h29zM-148 566l100 143l26 -22l-111 -131z" />
    <glyph glyph-name="epsilontonos" unicode="&#x3ad;" horiz-adv-x="407" 
d="M213 491q35 0 74.5 -5t68.5 -15l-7 -23q-40 14 -74.5 17.5t-59.5 3.5q-38 0 -64.5 -8.5t-43.5 -22.5t-24.5 -32.5t-7.5 -38.5q0 -27 11 -44t29 -27.5t40 -14.5t45 -4h73v-24h-74q-22 0 -45.5 -6t-43 -19.5t-32 -36.5t-12.5 -56q0 -32 12.5 -54.5t34 -37t50 -21.5t60.5 -7
q40 0 76 10t74 27l9 -18q-29 -17 -70 -29t-84 -12q-32 0 -65.5 6t-60.5 21.5t-44 42.5t-17 68q0 51 26.5 84.5t71.5 47.5v2q-40 9 -64.5 33t-24.5 63q0 34 13.5 58.5t36 40.5t52 23.5t61.5 7.5zM163 564l100 143l26 -22l-111 -131z" />
    <glyph glyph-name="etatonos" unicode="&#x3ae;" horiz-adv-x="460" 
d="M87 436q50 27 100.5 41.5t85.5 14.5q45 0 70 -12t38 -31t16 -41.5t3 -44.5v-363h-24v334q0 30 -2 55t-12 42.5t-31 27.5t-59 10q-22 0 -46.5 -5.5t-49.5 -14t-49 -19.5t-43 -21v-409h-23v486h24q0 -12 -0.5 -24t-0.5 -24zM167 564l100 143l26 -22l-111 -131z" />
    <glyph glyph-name="iotatonos" unicode="&#x3af;" horiz-adv-x="195" 
d="M106 486v-461h67l2 -16q-17 -7 -31 -9.5t-26 -2.5q-19 0 -27 7.5t-8 27.5v454h23zM70 564l100 143l26 -22l-111 -131z" />
    <glyph glyph-name="Omegatonos" unicode="&#x38f;" horiz-adv-x="653" 
d="M327 692q80 0 131 -30t80.5 -78t41 -108.5t11.5 -122.5q0 -49 -6.5 -98t-22.5 -92.5t-42.5 -80t-65.5 -59.5h155v-23h-214v25q48 16 80.5 47.5t52 74.5t27.5 95.5t8 109.5q0 51 -9 107t-35 102.5t-72 77t-121 30.5q-68 0 -113 -27t-72.5 -71.5t-39 -101t-11.5 -115.5
q0 -60 5.5 -112.5t22.5 -95t47.5 -74t81.5 -47.5v-25h-203v23h147q-42 21 -67.5 58t-39 82t-18 93.5t-4.5 92.5q0 63 13 124.5t44 110t82 78.5t126 30zM-76 566l100 143l26 -22l-111 -131z" />
    <glyph glyph-name="alpha" unicode="&#x3b1;" horiz-adv-x="500" 
d="M384 422q-29 18 -68.5 32t-82.5 14q-33 0 -62 -12.5t-50 -40.5t-33.5 -73.5t-12.5 -111.5q0 -60 10.5 -101t30.5 -66t47.5 -36t62.5 -11q19 0 40.5 5.5t42.5 15t40.5 22t34.5 27.5v336zM383 57q-36 -29 -78 -46t-85 -17q-48 0 -80.5 18t-52.5 50t-28.5 75.5t-8.5 94.5
q0 55 10 102.5t32 82t57 54.5t85 20q30 0 67.5 -8.5t82.5 -33.5l6 38h17v-463h71l2 -16q-17 -7 -34 -9.5t-29 -2.5q-19 0 -26 8t-7 27v25z" />
    <glyph glyph-name="beta" unicode="&#x3b2;" horiz-adv-x="453" 
d="M73 33v-236h-23v739q0 47 12.5 80.5t34.5 54.5t51 30.5t62 9.5q79 0 123 -39.5t44 -117.5q0 -53 -25.5 -94.5t-69.5 -57.5q36 -7 60.5 -25t39 -44t20.5 -58.5t6 -66.5q0 -56 -14 -96t-39 -66t-59.5 -38.5t-74.5 -12.5q-35 0 -75 11.5t-68 28.5zM211 689q-60 0 -99 -37
t-39 -117v-470q21 -14 43.5 -23.5t43.5 -14.5t38.5 -7t27.5 -2q76 0 117 50t41 141q0 85 -38.5 131.5t-127.5 46.5h-56v24h54q27 0 51.5 9t43.5 28t30 47t11 66q0 26 -8.5 49.5t-25.5 41t-43.5 27.5t-63.5 10z" />
    <glyph glyph-name="psi" unicode="&#x3c8;" horiz-adv-x="603" 
d="M289 548h24v-532q101 2 154.5 46.5t53.5 113.5v310h22v-314q0 -38 -15.5 -70t-45 -56t-72 -37.5t-97.5 -14.5v-207h-24v207q-56 1 -99 14.5t-72 37.5t-43.5 56t-14.5 70v314h24v-313q0 -67 50 -110.5t155 -46.5v532z" />
    <glyph glyph-name="delta" unicode="&#x3b4;" horiz-adv-x="477" 
d="M254 716q28 0 57.5 -4t58.5 -13l-7 -22q-32 9 -57 12.5t-48 3.5q-24 0 -46 -5t-39 -16t-27.5 -29t-10.5 -43q0 -39 30.5 -68t94.5 -66q33 -19 63.5 -39t53.5 -46.5t36.5 -63t13.5 -89.5q0 -38 -8 -79.5t-29 -76t-58 -57t-95 -22.5q-54 0 -90 19t-57.5 50t-30.5 71.5
t-9 83.5q0 31 8.5 67t28.5 70t53.5 62t83.5 44q-57 34 -85.5 65t-28.5 73q0 54 37.5 86t106.5 32zM403 221q0 53 -13 88.5t-34.5 60.5t-49.5 42t-58 33q-42 -10 -74.5 -32.5t-54.5 -53t-33 -68t-11 -77.5q0 -32 6 -66.5t23.5 -64t50 -48.5t85.5 -19q50 0 81.5 20t49.5 51
t25 66.5t7 67.5z" />
    <glyph glyph-name="epsilon" unicode="&#x3b5;" horiz-adv-x="407" 
d="M213 491q35 0 74.5 -5t68.5 -15l-7 -23q-40 14 -74.5 17.5t-59.5 3.5q-38 0 -64.5 -8.5t-43.5 -22.5t-24.5 -32.5t-7.5 -38.5q0 -27 11 -44t29 -27.5t40 -14.5t45 -4h73v-24h-74q-22 0 -45.5 -6t-43 -19.5t-32 -36.5t-12.5 -56q0 -32 12.5 -54.5t34 -37t50 -21.5t60.5 -7
q40 0 76 10t74 27l9 -18q-29 -17 -70 -29t-84 -12q-32 0 -65.5 6t-60.5 21.5t-44 42.5t-17 68q0 51 26.5 84.5t71.5 47.5v2q-40 9 -64.5 33t-24.5 63q0 34 13.5 58.5t36 40.5t52 23.5t61.5 7.5z" />
    <glyph glyph-name="phi" unicode="&#x3c6;" horiz-adv-x="596" 
d="M40 237q0 43 8.5 83t26 72.5t44.5 56.5t65 35l7 -19q-36 -12 -60 -35.5t-38.5 -54t-21 -66t-6.5 -72.5q0 -48 9 -88t33 -69t67 -46t111 -20v474h30q68 0 114.5 -18.5t74.5 -51t40 -77t12 -96.5q0 -49 -12 -94t-40.5 -79.5t-76 -55.5t-119.5 -24v-204h-23v204
q-75 2 -123 21.5t-75 52.5t-37 77t-10 94zM532 244q0 47 -10 87.5t-35.5 70.5t-68.5 47t-110 17v-452q64 1 107.5 19.5t69 50t36.5 72.5t11 88z" />
    <glyph glyph-name="gamma" unicode="&#x3b3;" horiz-adv-x="416" 
d="M226 61l43 123l107 302h25l-165 -464v-234h-24l1 232q-40 113 -77 222.5t-77 221.5l-48 -14l-6 16q21 16 33.5 22t20.5 6q9 0 14 -4t10 -16q14 -42 30 -90.5t35 -105.5t37.5 -111t36.5 -106h4z" />
    <glyph glyph-name="eta" unicode="&#x3b7;" horiz-adv-x="460" 
d="M87 436q50 27 100.5 41.5t85.5 14.5q45 0 70 -12t38 -31t16 -41.5t3 -44.5v-363h-24v334q0 30 -2 55t-12 42.5t-31 27.5t-59 10q-22 0 -46.5 -5.5t-49.5 -14t-49 -19.5t-43 -21v-409h-23v486h24q0 -12 -0.5 -24t-0.5 -24z" />
    <glyph glyph-name="iota" unicode="&#x3b9;" horiz-adv-x="195" 
d="M106 486v-461h67l2 -16q-17 -7 -31 -9.5t-26 -2.5q-19 0 -27 7.5t-8 27.5v454h23z" />
    <glyph glyph-name="xi" unicode="&#x3be;" horiz-adv-x="399" 
d="M248 711q12 0 29.5 -1.5t37 -4t39 -7t37.5 -10.5l-7 -20q-38 13 -72.5 17.5t-63.5 4.5q-76 0 -119 -40t-43 -104q0 -69 41 -104.5t121 -35.5h101v-20h-98q-45 0 -80 -16.5t-59.5 -43.5t-37 -62t-12.5 -72q0 -49 22.5 -80.5t59.5 -53t84 -36.5t97 -32q32 -11 53 -26
t21 -36q0 -11 -6 -26t-15.5 -31t-22 -32.5t-24.5 -31.5l-15 11l24 36q18 28 25.5 44t7.5 24q0 17 -17 29t-54 24q-56 18 -103.5 35t-83 40.5t-55.5 57.5t-20 86q0 22 5.5 50t20.5 56.5t42.5 53.5t71.5 41q-43 10 -66.5 29.5t-35 41.5t-14 44t-2.5 38q0 29 11 58t34 52.5
t58 38t83 14.5z" />
    <glyph glyph-name="kappa" unicode="&#x3ba;" horiz-adv-x="398" 
d="M85 236q21 20 42 42t44 43l171 165h31l-194 -188l29 -39l175 -259h-29l-192 283l-79 -77v-206h-23v486h23v-249z" />
    <glyph glyph-name="lambda" unicode="&#x3bb;" horiz-adv-x="418" 
d="M363 20h43l2 -17q-8 -3 -19.5 -5t-18.5 -2q-12 0 -19.5 3.5t-11.5 15.5l-131 429h-4l-176 -444h-25l184 464h16l-57 184q-8 23 -18 29t-27 6q-9 0 -18.5 -1t-26.5 -6l-5 17q16 7 30 9.5t25 2.5q17 0 28 -4t18.5 -13.5t13.5 -24t12 -35.5z" />
    <glyph glyph-name="nu" unicode="&#x3bd;" horiz-adv-x="373" 
d="M40 486q27 -86 55 -175t57 -182l31 -103h3l32 103q26 81 55 168.5t59 188.5h26q-42 -131 -81 -251.5t-77 -234.5h-32q-36 115 -73 234t-80 252h25v0z" />
    <glyph glyph-name="omicron" unicode="&#x3bf;" horiz-adv-x="477" 
d="M243 491q56 0 92 -22.5t56.5 -58.5t28 -81t7.5 -90q0 -44 -8 -87.5t-28.5 -79t-57 -57.5t-93.5 -22t-93.5 20.5t-58 54.5t-30 77.5t-8.5 90.5q0 46 10 92t32.5 82t59.5 58.5t91 22.5zM403 236q0 37 -6 78.5t-23 76t-48.5 57t-82.5 22.5q-50 0 -82.5 -21t-51.5 -55
t-26.5 -75.5t-7.5 -83.5t6 -81.5t24 -70t51 -49t87 -18.5q50 0 81 20.5t48.5 52t24 70.5t6.5 77z" />
    <glyph glyph-name="pi" unicode="&#x3c0;" horiz-adv-x="460" 
d="M376 0v463h-291v-463h-25v486h339l1 -486h-24z" />
    <glyph glyph-name="omegatonos" unicode="&#x3ce;" horiz-adv-x="703" 
d="M351 78q-19 -41 -55 -62.5t-78 -21.5q-51 0 -85.5 20t-55 54t-29 78t-8.5 91q0 37 6.5 75.5t22 73t40 61.5t60.5 40l9 -19q-34 -15 -56 -40.5t-34.5 -57t-17.5 -66.5t-5 -68q0 -37 6 -75.5t22.5 -70t46.5 -52t78 -20.5q32 0 55 11t37.5 29t21.5 40.5t7 44.5v186h25v-186
q0 -22 7 -44.5t21.5 -40.5t37.5 -29t55 -11q48 0 78 20.5t46.5 52t22.5 70t6 75.5q0 33 -5 68t-17.5 66.5t-34.5 57t-56 40.5l9 19q36 -13 60.5 -40t40 -61.5t22 -73t6.5 -75.5q0 -47 -8.5 -91t-29 -78t-55 -54t-85.5 -20q-42 0 -78 21.5t-55 62.5h-1zM320 564l100 143
l26 -22l-111 -131z" />
    <glyph glyph-name="rho" unicode="&#x3c1;" horiz-adv-x="469" 
d="M75 34v-243h-24v250q0 65 -0.5 126.5t-0.5 127.5q0 36 10.5 71t33.5 62.5t59 45t86 17.5q51 0 86 -17.5t57 -49.5t31.5 -77t9.5 -99q0 -130 -50.5 -191.5t-152.5 -61.5q-30 0 -69.5 10t-73.5 33zM221 18q37 0 69.5 9t56 34t37 70.5t13.5 117.5q0 63 -11.5 105.5t-33 68
t-52 36.5t-68.5 11q-42 0 -71.5 -17.5t-48.5 -43.5t-28 -57t-9 -58v-228q9 -7 25 -15.5t36 -15.5t42 -12t43 -5z" />
    <glyph glyph-name="sigma" unicode="&#x3c3;" horiz-adv-x="491" 
d="M340 459q25 -18 40.5 -44t24 -56.5t11.5 -62.5t3 -60q0 -51 -12 -94.5t-35.5 -76t-58.5 -51t-81 -18.5q-54 0 -90.5 16.5t-59 47.5t-32.5 75t-10 98q0 48 9.5 93.5t32 81t59.5 57t92 21.5h223v-23h-115zM393 233q0 39 -5.5 79.5t-22 74t-48 55t-83.5 21.5
q-50 0 -82.5 -20t-51.5 -52.5t-26.5 -74t-7.5 -85.5q0 -106 39.5 -160t128.5 -54q40 0 70 17.5t50 47t29.5 68.5t9.5 83z" />
    <glyph glyph-name="tau" unicode="&#x3c4;" horiz-adv-x="348" 
d="M155 101q0 -36 15 -59t63 -23q38 0 94 17l6 -17q-23 -10 -49.5 -16t-52.5 -6q-19 0 -37 4t-31.5 15t-22 29.5t-8.5 47.5v370h-119v23h302v-23h-160v-362z" />
    <glyph glyph-name="theta" unicode="&#x3b8;" horiz-adv-x="469" 
d="M235 -7q-64 0 -102.5 28t-59 76t-27 112.5t-6.5 138.5q0 63 6.5 127.5t27 117t60 85.5t105.5 33q65 0 103 -33.5t57.5 -86t24.5 -117t5 -125.5q0 -66 -7.5 -130t-29 -114t-59.5 -81t-98 -31zM65 365q0 -83 6 -148t24.5 -109.5t52.5 -68t89 -23.5t89 31.5t52 82
t23.5 112.5t3.5 123h-340zM239 690q-55 0 -88 -27.5t-51.5 -71t-25.5 -97.5t-8 -108h338q-1 56 -7.5 110.5t-24 97.5t-49.5 69.5t-84 26.5z" />
    <glyph glyph-name="omega" unicode="&#x3c9;" horiz-adv-x="703" 
d="M351 78q-19 -41 -55 -62.5t-78 -21.5q-51 0 -85.5 20t-55 54t-29 78t-8.5 91q0 37 6.5 75.5t22 73t40 61.5t60.5 40l9 -19q-34 -15 -56 -40.5t-34.5 -57t-17.5 -66.5t-5 -68q0 -37 6 -75.5t22.5 -70t46.5 -52t78 -20.5q32 0 55 11t37.5 29t21.5 40.5t7 44.5v186h25v-186
q0 -22 7 -44.5t21.5 -40.5t37.5 -29t55 -11q48 0 78 20.5t46.5 52t22.5 70t6 75.5q0 33 -5 68t-17.5 66.5t-34.5 57t-56 40.5l9 19q36 -13 60.5 -40t40 -61.5t22 -73t6.5 -75.5q0 -47 -8.5 -91t-29 -78t-55 -54t-85.5 -20q-42 0 -78 21.5t-55 62.5h-1z" />
    <glyph glyph-name="sigma1" unicode="&#x3c2;" horiz-adv-x="408" 
d="M240 492q44 0 77 -6.5t61 -17.5l-9 -22q-30 13 -59.5 19t-64.5 6q-47 0 -81 -18t-56 -48.5t-33 -71t-11 -86.5q0 -41 7.5 -71.5t27.5 -55.5t54.5 -46.5t88.5 -43.5q35 -15 57.5 -25.5t35.5 -19.5t18 -18t5 -20q0 -34 -71 -117l-16 12l27 38q16 23 24.5 38.5t8.5 26.5
q0 17 -23 29t-79 35q-63 26 -100 51.5t-57 54t-26 61.5t-6 73q0 55 14 100t40.5 76.5t63.5 49t82 17.5z" />
    <glyph glyph-name="chi" unicode="&#x3c7;" horiz-adv-x="374" 
d="M185 240l-148 -240h-27l161 259l-142 227h28l128 -207l128 207h26l-140 -226l165 -260h-29z" />
    <glyph glyph-name="upsilon" unicode="&#x3c5;" horiz-adv-x="460" 
d="M400 486v-311q0 -35 -10 -67.5t-31 -57.5t-54 -39.5t-79 -14.5q-45 0 -76.5 13t-51.5 35.5t-29 54t-9 68.5v319h24v-317q0 -30 7 -57.5t23.5 -48.5t43.5 -33.5t67 -12.5q43 0 72 14t46.5 37.5t25 52.5t7.5 59v306h24z" />
    <glyph glyph-name="zeta" unicode="&#x3b6;" horiz-adv-x="368" 
d="M394 702v-25q-75 -62 -135.5 -127t-103.5 -127.5t-66.5 -119.5t-23.5 -103q0 -36 11 -60t37.5 -43.5t70 -37t108.5 -41.5q45 -17 61.5 -31.5t16.5 -33.5q0 -21 -19 -51t-48 -68l-16 11l16 23q14 20 22 34t12.5 24t5.5 16t1 11q0 7 -6.5 14t-16 13t-20.5 11t-20 8
q-59 19 -103.5 36.5t-74.5 39.5t-45.5 52t-15.5 76q0 33 17 84t55.5 113.5t100 133.5t150.5 145h-299v23h328z" />
    <glyph glyph-name="iotadieresis" unicode="&#x3ca;" horiz-adv-x="195" 
d="M106 486v-461h67l2 -16q-17 -7 -31 -9.5t-26 -2.5q-19 0 -27 7.5t-8 27.5v454h23zM53 608q0 -11 -7 -18t-18 -7q-10 0 -17 7t-7 18t7 18t17 7q11 0 18 -7t7 -18zM186 608q0 -11 -7 -18t-18 -7q-10 0 -17 7t-7 18t7 18t17 7q11 0 18 -7t7 -18z" />
    <glyph glyph-name="upsilondieresis" unicode="&#x3cb;" horiz-adv-x="460" 
d="M400 486v-311q0 -35 -10 -67.5t-31 -57.5t-54 -39.5t-79 -14.5q-45 0 -76.5 13t-51.5 35.5t-29 54t-9 68.5v319h24v-317q0 -30 7 -57.5t23.5 -48.5t43.5 -33.5t67 -12.5q43 0 72 14t46.5 37.5t25 52.5t7.5 59v306h24zM185 608q0 -11 -7 -18t-18 -7q-10 0 -17 7t-7 18
t7 18t17 7q11 0 18 -7t7 -18zM318 608q0 -11 -7 -18t-18 -7q-10 0 -17 7t-7 18t7 18t17 7q11 0 18 -7t7 -18z" />
    <glyph glyph-name="iotadieresistonos" unicode="&#x390;" horiz-adv-x="195" 
d="M106 486v-461h67l2 -16q-17 -7 -31 -9.5t-26 -2.5q-19 0 -27 7.5t-8 27.5v454h23zM59 608q0 -11 -7 -18t-18 -7q-10 0 -17 7t-7 18t7 18t17 7q11 0 18 -7t7 -18zM192 608q0 -11 -7 -18t-18 -7q-10 0 -17 7t-7 18t7 18t17 7q11 0 18 -7t7 -18zM53 564l100 143l26 -22
l-111 -131z" />
    <glyph glyph-name="upsilondieresistonos" unicode="&#x3b0;" horiz-adv-x="460" 
d="M400 486v-311q0 -35 -10 -67.5t-31 -57.5t-54 -39.5t-79 -14.5q-45 0 -76.5 13t-51.5 35.5t-29 54t-9 68.5v319h24v-317q0 -30 7 -57.5t23.5 -48.5t43.5 -33.5t67 -12.5q43 0 72 14t46.5 37.5t25 52.5t7.5 59v306h24zM186 608q0 -11 -7 -18t-18 -7q-10 0 -17 7t-7 18
t7 18t17 7q11 0 18 -7t7 -18zM319 608q0 -11 -7 -18t-18 -7q-10 0 -17 7t-7 18t7 18t17 7q11 0 18 -7t7 -18zM180 564l100 143l26 -22l-111 -131z" />
    <glyph glyph-name="Euro" unicode="&#x20ac;" horiz-adv-x="500" 
d="M421 303v-23h-333q2 -51 12 -98.5t34.5 -84t67.5 -59t111 -22.5q23 0 66.5 5.5t94.5 17.5l6 -21q-15 -5 -36.5 -9.5t-45 -8t-46.5 -5.5t-42 -2q-63 0 -108.5 20t-75.5 57t-45.5 90t-18.5 120h-42v23h401zM20 366v21h44q4 49 18.5 99.5t43.5 90.5t74.5 65.5t112.5 25.5
q50 0 93 -7.5t68 -16.5l-6 -23q-36 12 -78 18t-76 6q-53 0 -93 -18t-67.5 -52t-43.5 -81.5t-21 -106.5h332v-21h-401z" />
    <glyph glyph-name="semicolon" unicode=";" horiz-adv-x="139" 
d="M42 334q0 11 8.5 19t19.5 8t19 -8t8 -19t-8 -19.5t-19 -8.5t-19.5 8.5t-8.5 19.5zM68 -2q-11 0 -18.5 7t-7.5 18q0 12 7 20.5t19 8.5q14 0 22.5 -9t8.5 -28q0 -11 -3.5 -26t-9.5 -31t-15 -30.5t-21 -24.5l-8 8q15 21 20.5 45.5t5.5 41.5z" />
    <glyph glyph-name="exclam" unicode="!" horiz-adv-x="185" 
d="M92 158l-7 213v319h25v-319l-5 -213h-13zM129 23q0 -14 -9 -23.5t-20 -9.5q-12 0 -22 9.5t-10 23.5q0 13 9.5 21.5t21.5 8.5t21 -8.5t9 -21.5z" />
    <glyph glyph-name="acute" unicode="&#xb4;" horiz-adv-x="465" 
d="M134 564l100 143l26 -22l-111 -131z" />
    <glyph glyph-name="circumflex" unicode="&#x2c6;" horiz-adv-x="466" 
d="M220 653l-132 -103l-11 12l129 123h28l128 -122l-10 -12z" />
    <glyph glyph-name="tilde" unicode="&#x2dc;" horiz-adv-x="466" 
d="M108 581l-13 7q8 26 26.5 41.5t40.5 15.5q16 0 35 -5.5t38.5 -12.5t38.5 -12.5t34 -5.5l45 39l12 -7q-9 -22 -24 -39.5t-38 -17.5q-13 0 -32.5 6t-40.5 13t-40.5 13t-32.5 6z" />
    <glyph glyph-name="cedilla" unicode="&#xb8;" horiz-adv-x="533" 
d="M270 -75h17q45 0 74.5 -16t29.5 -51q0 -19 -9.5 -36.5t-29.5 -31t-50.5 -21.5t-73.5 -8l-1 17q39 3 64.5 10.5t40.5 18t21 23t6 26.5q0 26 -25 38t-63 12q-5 0 -10.5 -0.5t-11.5 -0.5l-9 14l77 94l14 -11z" />
    <glyph glyph-name="mu" unicode="&#xb5;" horiz-adv-x="452" 
d="M83 22v-234h-23v698h23v-352q0 -32 4 -55t16 -38t34 -22.5t58 -7.5q15 0 36 5t44.5 15.5t47.5 25t45 34.5v395h23v-486h-23v66l-1 1q-30 -26 -57 -41t-50 -23t-41 -10.5t-30 -2.5q-35 0 -60 6.5t-42 26.5z" />
    <glyph glyph-name="mu" unicode="&#x3bc;" horiz-adv-x="452" 
d="M83 22v-234h-23v698h23v-352q0 -32 4 -55t16 -38t34 -22.5t58 -7.5q15 0 36 5t44.5 15.5t47.5 25t45 34.5v395h23v-486h-23v66l-1 1q-30 -26 -57 -41t-50 -23t-41 -10.5t-30 -2.5q-35 0 -60 6.5t-42 26.5z" />
    <glyph glyph-name="germandbls" unicode="&#xdf;" horiz-adv-x="532" 
d="M474 105q0 24 -7 43.5t-19 36t-26.5 30.5t-28.5 26q-20 18 -42 36.5t-40.5 38t-30.5 40t-12 41.5q0 27 18 51t40 47.5t40 48t18 51.5q0 6 -1.5 22t-12.5 32t-36 28.5t-73 12.5q-32 0 -56 -11t-40.5 -30t-25 -44t-8.5 -53v-552h-23v398h-75v23h75v124q0 22 6 51t23 55
t48.5 44t81.5 18q41 0 69 -11.5t44.5 -28.5t23.5 -36.5t7 -36.5q0 -36 -18.5 -62.5t-40 -49t-40 -44t-18.5 -47.5q0 -14 8 -29.5t22 -32t32.5 -33t38.5 -31.5h-1q19 -15 38 -31.5t34 -36t24 -43t9 -53.5q0 -18 -7 -39.5t-23.5 -39.5t-43.5 -30t-68 -12q-33 0 -70 7t-61 17
l8 23q51 -19 80.5 -21.5t46.5 -2.5q28 0 49 8t35.5 21.5t21.5 31t7 35.5z" />
    <glyph glyph-name="space" unicode=" " horiz-adv-x="255" 
 />
    <glyph glyph-name="quotesinglbase" unicode="&#x201a;" horiz-adv-x="117" 
d="M56 -2q-11 0 -18.5 7t-7.5 18q0 12 7 20.5t19 8.5q14 0 22.5 -9t8.5 -28q0 -11 -3.5 -26t-9.5 -31t-15 -30.5t-21 -24.5l-8 8q15 21 20.5 45.5t5.5 41.5z" />
    <glyph glyph-name="quotedblbase" unicode="&#x201e;" horiz-adv-x="199" 
d="M56 -2q-11 0 -18.5 7t-7.5 18q0 12 7 20.5t19 8.5q14 0 22.5 -9t8.5 -28q0 -11 -3.5 -26t-9.5 -31t-15 -30.5t-21 -24.5l-8 8q15 21 20.5 45.5t5.5 41.5zM134 -2q-11 0 -18.5 7t-7.5 18q0 12 7 20.5t19 8.5q14 0 22.5 -9t8.5 -28q0 -11 -3.5 -26t-9.5 -31t-15 -30.5
t-21 -24.5l-8 8q15 21 20.5 45.5t5.5 41.5z" />
    <glyph glyph-name="daggerdbl" unicode="&#x2021;" horiz-adv-x="451" 
d="M206 169v286h-167v22h167v204h25v-204h166v-22h-166v-286h164v-22h-164v-201h-25v201h-169v22h169z" />
    <glyph glyph-name="guilsinglleft" unicode="&#x2039;" horiz-adv-x="293" 
d="M100 178l117 -144l-13 -12l-135 141v31l134 140l13 -11z" />
    <glyph glyph-name="guilsinglright" unicode="&#x203a;" horiz-adv-x="293" 
d="M63 323l13 11l134 -140v-31l-135 -141l-13 12l117 144z" />
    <glyph glyph-name="logicalnot" unicode="&#xac;" horiz-adv-x="500" 
d="M429 113h-26v170h-333v25h359v-195z" />
    <glyph glyph-name="exclamdown" unicode="&#xa1;" horiz-adv-x="185" 
d="M105 325l5 -213v-319h-25v319l7 213h13zM129 460q0 -13 -9 -21.5t-21 -8.5t-21.5 8.5t-9.5 21.5q0 14 10 23.5t22 9.5q11 0 20 -9.5t9 -23.5z" />
    <glyph glyph-name="questiondown" unicode="&#xbf;" horiz-adv-x="403" 
d="M29 -92q0 23 8 43t20.5 38t29.5 34t35 30q37 29 63.5 53.5t43 46.5t24 43t7.5 45q0 15 -2 34.5t-7 39.5l23 6q6 -29 8 -50t2 -35q0 -45 -30.5 -89.5t-100.5 -98.5q-22 -17 -40 -33t-30.5 -32.5t-19.5 -34t-7 -38.5q0 -28 11 -47.5t29.5 -31.5t44 -17t55.5 -5q31 0 70.5 6
t91.5 22l5 -22q-43 -15 -85.5 -22t-76.5 -7q-87 0 -129.5 32.5t-42.5 89.5zM212 463q0 14 9 22.5t20 8.5q12 0 21.5 -8.5t9.5 -22.5q0 -12 -9 -20.5t-21 -8.5t-21 8.5t-9 20.5z" />
    <glyph glyph-name="OE" unicode="&#x152;" horiz-adv-x="744" 
d="M324 692q22 0 42 -2.5t37 -7.5h291v-24h-312v-284h270v-23l-270 -1v-326h329v-24h-331q-13 -3 -27 -4.5t-29 -2.5q-75 0 -127 23.5t-84 67.5t-46 107t-14 143q0 69 13 134t44.5 114.5t83.5 79.5t130 30zM317 16q19 0 39 3v649q-8 1 -16 1h-16q-74 0 -121.5 -29
t-74.5 -76.5t-37.5 -108t-10.5 -123.5q0 -155 56 -235.5t181 -80.5z" />
    <glyph glyph-name="plusminus" unicode="&#xb1;" horiz-adv-x="500" 
d="M65 46h369v-26h-369v26zM263 283v-170h-26v170h-167v25h167v164h26v-164h166v-25h-166z" />
    <glyph glyph-name="multiply" unicode="&#xd7;" horiz-adv-x="531" 
d="M261 265l-122 -125l-18 18l121 125l-125 125l18 18l125 -125l116 124l18 -19l-116 -124l125 -124l-18 -18z" />
    <glyph glyph-name="ae" unicode="&#xe6;" horiz-adv-x="758" 
d="M544 491q46 0 76.5 -14.5t50 -37t29 -49.5t14 -53t4.5 -47.5v-31.5v-16h-341q0 -45 6.5 -86t25 -72t50 -49.5t81.5 -18.5q45 0 79 9t75 29l9 -20q-39 -21 -76 -31t-83 -10q-60 0 -97.5 20.5t-59.5 55.5q-38 -29 -70.5 -44t-60 -22t-49 -8t-36.5 -1q-39 0 -64.5 12
t-40.5 31.5t-21 42.5t-6 46q0 35 12 61t33 43t49.5 25.5t60.5 8.5h158v58q0 39 -5.5 67t-19 46t-37 26.5t-59.5 8.5q-37 0 -76.5 -9.5t-75.5 -23.5l-8 19q42 17 84.5 26t80.5 9q62 0 96 -27.5t42 -92.5q9 24 23 45.5t34.5 38t48 26.5t64.5 10zM197 242q-65 0 -99.5 -32
t-34.5 -81q0 -57 30.5 -85.5t87.5 -28.5q19 0 43.5 3.5t50.5 12t52.5 22.5t50.5 34q-15 32 -20.5 71t-5.5 84h-155zM543 470q-44 0 -74 -17.5t-49 -46t-28.5 -66t-13.5 -76.5h315q0 45 -7.5 83t-25 65t-46 42.5t-71.5 15.5z" />
    <glyph glyph-name="quotedbl" unicode="&#x22;" horiz-adv-x="178" 
d="M122 506l-7 176h30l-9 -176h-14zM48 506l-10 176h31l-8 -176h-13z" />
    <glyph glyph-name="primemod" unicode="&#x2b9;" horiz-adv-x="212" 
d="M44 431l123 242l31 -17l-138 -234z" />
    <glyph glyph-name="caron" unicode="&#x2c7;" horiz-adv-x="466" 
d="M362 694l10 -12l-128 -122h-28l-129 123l11 12l132 -103z" />
    <glyph glyph-name="breve" unicode="&#x2d8;" horiz-adv-x="492" 
d="M237 566q-45 0 -80.5 27t-57.5 63l24 14q23 -35 53 -56.5t63 -21.5q27 0 59.5 16.5t73.5 57.5l13 -9q-39 -52 -76.5 -71.5t-71.5 -19.5z" />
    <glyph glyph-name="dotaccent" unicode="&#x2d9;" horiz-adv-x="466" 
d="M259 607q0 -10 -7.5 -17.5t-17.5 -7.5t-17.5 7.5t-7.5 17.5q0 11 7.5 18.5t17.5 7.5t17.5 -7.5t7.5 -18.5z" />
    <glyph glyph-name="ring" unicode="&#x2da;" horiz-adv-x="466" 
d="M234 545q-41 0 -62.5 24t-21.5 57t23.5 57.5t60.5 24.5q38 0 60 -24t22 -58t-22 -57.5t-60 -23.5zM234 685q-29 0 -44 -16t-15 -44q0 -29 15 -44.5t44 -15.5q27 0 42.5 15.5t15.5 44.5q0 27 -15.5 43.5t-42.5 16.5z" />
    <glyph glyph-name="ogonek" unicode="&#x2db;" horiz-adv-x="494" 
d="M346 14q-49 -41 -64.5 -77t-15.5 -57q0 -30 19 -40.5t45 -10.5q20 0 37.5 3t31.5 7l5 -14q-22 -11 -44.5 -16t-41.5 -5q-44 0 -63 19.5t-19 46.5q0 14 4 31t15.5 36.5t31 41t49.5 45.5z" />
    <glyph glyph-name="hungarumlaut" unicode="&#x2dd;" horiz-adv-x="465" 
d="M134 564l100 143l26 -22l-111 -131zM225 564l100 143l26 -22l-111 -131z" />
    <glyph glyph-name="Dieresis" unicode="&#xf6cb;" horiz-adv-x="621" 
d="M267 745q0 -11 -7 -18t-18 -7q-10 0 -17 7t-7 18t7 18t17 7q11 0 18 -7t7 -18zM400 745q0 -11 -7 -18t-18 -7q-10 0 -17 7t-7 18t7 18t17 7q11 0 18 -7t7 -18z" />
    <glyph glyph-name="paragraph" unicode="&#xb6;" horiz-adv-x="448" 
d="M364 -164h-26v835h-81v-835h-26v550h-17q-33 0 -61 12t-48.5 32.5t-32 48t-11.5 58.5q0 32 12 60.5t32.5 50t48.5 34t60 12.5h149z" />
    <glyph glyph-name="AE" unicode="&#xc6;" horiz-adv-x="854" 
d="M461 197h-294l-126 -197h-31l438 682h356v-24h-316l-1 -283h275v-25h-275v-326h334v-24h-361zM182 221h279v433h-3z" />
    <glyph glyph-name="currency" unicode="&#xa4;" horiz-adv-x="500" 
d="M49 489l18 17l64 -62q26 20 56 31.5t64 11.5q32 0 61.5 -11.5t56.5 -31.5l64 62l18 -18l-67 -63q26 -30 36 -58.5t10 -59.5q0 -63 -45 -120l67 -60l-19 -20l-65 63q-29 -26 -58.5 -35t-58.5 -9q-30 0 -59.5 9t-59.5 35l-64 -64l-20 19l65 62q-26 31 -35 61.5t-9 56.5
q0 30 9.5 61.5t34.5 58.5zM92 306q0 -33 12.5 -61.5t34 -50t50.5 -34t61 -12.5q31 0 59.5 12.5t49.5 34t33.5 50t12.5 61.5q0 32 -12.5 60.5t-33.5 49.5t-49 33.5t-60 12.5t-61 -12.5t-50.5 -33.5t-34 -49.5t-12.5 -60.5z" />
    <glyph glyph-name="macron" unicode="&#xaf;" horiz-adv-x="466" 
d="M371 626v-26h-286v26h286z" />
    <glyph glyph-name="anoteleia" unicode="&#x387;" horiz-adv-x="139" 
d="M42 334q0 11 8.5 19t19.5 8t19 -8t8 -19t-8 -19.5t-19 -8.5t-19.5 8.5t-8.5 19.5z" />
    <glyph glyph-name="florin" unicode="&#x192;" horiz-adv-x="500" 
d="M150 388h100l14 110q10 79 43 126t98 47q17 0 34 -2.5t32 -7.5l-7 -19q-21 5 -33.5 6t-29.5 1q-50 0 -78 -41t-36 -108q-3 -25 -7.5 -57t-6.5 -55h107v-22h-109q-3 -20 -8.5 -66t-12 -96.5t-12 -93.5t-8.5 -58q-15 -92 -47.5 -135t-90.5 -43q-36 0 -64 14l10 19
q17 -5 28 -7t25 -2q27 0 46 10t31.5 29.5t21 48t16.5 65.5q6 27 11.5 66.5t10.5 83.5t10 87.5t9 77.5h-97v22z" />
    <glyph glyph-name="Iotadieresis" unicode="&#x3aa;" horiz-adv-x="206" 
d="M90 0v682h26v-682h-26zM62 745q0 -11 -7 -18t-18 -7q-10 0 -17 7t-7 18t7 18t17 7q11 0 18 -7t7 -18zM195 745q0 -11 -7 -18t-18 -7q-10 0 -17 7t-7 18t7 18t17 7q11 0 18 -7t7 -18z" />
    <glyph glyph-name="Upsilondieresis" unicode="&#x3ab;" horiz-adv-x="454" 
d="M167 450l55 -107h3l52 97l132 242h30l-202 -365v-317h-26v314l-196 368h29zM181 745q0 -11 -7 -18t-18 -7q-10 0 -17 7t-7 18t7 18t17 7q11 0 18 -7t7 -18zM314 745q0 -11 -7 -18t-18 -7q-10 0 -17 7t-7 18t7 18t17 7q11 0 18 -7t7 -18z" />
    <glyph glyph-name="alphatonos" unicode="&#x3ac;" horiz-adv-x="500" 
d="M199 564l100 143l26 -22l-111 -131zM384 422q-29 18 -68.5 32t-82.5 14q-33 0 -62 -12.5t-50 -40.5t-33.5 -73.5t-12.5 -111.5q0 -60 10.5 -101t30.5 -66t47.5 -36t62.5 -11q19 0 40.5 5.5t42.5 15t40.5 22t34.5 27.5v336zM383 57q-36 -29 -78 -46t-85 -17
q-48 0 -80.5 18t-52.5 50t-28.5 75.5t-8.5 94.5q0 55 10 102.5t32 82t57 54.5t85 20q30 0 67.5 -8.5t82.5 -33.5l6 38h17v-463h71l2 -16q-17 -7 -34 -9.5t-29 -2.5q-19 0 -26 8t-7 27v25z" />
    <glyph glyph-name="omicrontonos" unicode="&#x3cc;" horiz-adv-x="477" 
d="M243 491q56 0 92 -22.5t56.5 -58.5t28 -81t7.5 -90q0 -44 -8 -87.5t-28.5 -79t-57 -57.5t-93.5 -22t-93.5 20.5t-58 54.5t-30 77.5t-8.5 90.5q0 46 10 92t32.5 82t59.5 58.5t91 22.5zM403 236q0 37 -6 78.5t-23 76t-48.5 57t-82.5 22.5q-50 0 -82.5 -21t-51.5 -55
t-26.5 -75.5t-7.5 -83.5t6 -81.5t24 -70t51 -49t87 -18.5q50 0 81 20.5t48.5 52t24 70.5t6.5 77zM207 564l100 143l26 -22l-111 -131z" />
    <glyph glyph-name="upsilontonos" unicode="&#x3cd;" horiz-adv-x="460" 
d="M400 486v-311q0 -35 -10 -67.5t-31 -57.5t-54 -39.5t-79 -14.5q-45 0 -76.5 13t-51.5 35.5t-29 54t-9 68.5v319h24v-317q0 -30 7 -57.5t23.5 -48.5t43.5 -33.5t67 -12.5q43 0 72 14t46.5 37.5t25 52.5t7.5 59v306h24zM197 564l100 143l26 -22l-111 -131z" />
    <glyph glyph-name="Circumflex" unicode="&#xf6c0;" horiz-adv-x="617" 
d="M310 819l-132 -103l-11 12l129 123h28l128 -122l-10 -12z" />
    <glyph glyph-name="commaaccent" unicode="&#xf6c3;" horiz-adv-x="586" 
d="M313 -134q-11 0 -18.5 7t-7.5 18q0 12 7 20.5t19 8.5q14 0 22.5 -9t8.5 -28q0 -23 -10.5 -43.5t-33.5 -40.5l-8 8q14 17 17.5 29.5t3.5 29.5z" />
    <glyph glyph-name="Acute" unicode="&#xf6c9;" horiz-adv-x="617" 
d="M299 723l100 143l26 -22l-111 -131z" />
    <glyph glyph-name="Caron" unicode="&#xf6ca;" horiz-adv-x="617" 
d="M442 852l10 -12l-128 -122h-28l-129 123l11 12l132 -103z" />
    <glyph glyph-name="DieresisAcute" unicode="&#xf6cc;" horiz-adv-x="617" 
d="M300 764q0 -11 -7 -18t-18 -7q-10 0 -17 7t-7 18t7 18t17 7q11 0 18 -7t7 -18zM433 764q0 -11 -7 -18t-18 -7q-10 0 -17 7t-7 18t7 18t17 7q11 0 18 -7t7 -18zM294 720l100 143l26 -22l-111 -131z" />
    <glyph glyph-name="DieresisGrave" unicode="&#xf6cd;" horiz-adv-x="617" 
d="M230 764q0 -11 -7 -18t-18 -7q-10 0 -17 7t-7 18t7 18t17 7q11 0 18 -7t7 -18zM363 764q0 -11 -7 -18t-18 -7q-10 0 -17 7t-7 18t7 18t17 7q11 0 18 -7t7 -18zM304 714l-111 131l26 22l100 -143z" />
    <glyph glyph-name="Grave" unicode="&#xf6ce;" horiz-adv-x="617" 
d="M315 713l-111 131l26 22l100 -143z" />
    <glyph glyph-name="Hungarumlaut" unicode="&#xf6cf;" horiz-adv-x="617" 
d="M243 724l100 143l26 -22l-111 -131zM334 724l100 143l26 -22l-111 -131z" />
    <glyph glyph-name="Macron" unicode="&#xf6d0;" horiz-adv-x="617" 
d="M456 774v-26h-286v26h286z" />
    <glyph glyph-name="cyrBreve" unicode="&#xf6d1;" horiz-adv-x="617" 
d="M307 718q-45 0 -80.5 27t-57.5 63l24 14q23 -35 53 -56.5t63 -21.5q27 0 59.5 16.5t73.5 57.5l13 -9q-39 -52 -76.5 -71.5t-71.5 -19.5z" />
    <glyph glyph-name="cyrbreve" unicode="&#xf6d4;" horiz-adv-x="449" 
d="M210 543q-42 0 -78.5 27t-59.5 65l22 13q23 -35 53.5 -57.5t64.5 -22.5q28 0 61 15t75 61l12 -8q-40 -53 -77.5 -73t-72.5 -20z" />
    <glyph glyph-name="afii10023" unicode="&#x401;" horiz-adv-x="490" 
d="M217 745q0 -11 -7 -18t-18 -7q-10 0 -17 7t-7 18t7 18t17 7q11 0 18 -7t7 -18zM350 745q0 -11 -7 -18t-18 -7q-10 0 -17 7t-7 18t7 18t17 7q11 0 18 -7t7 -18zM80 682h363v-24h-337v-284h295v-23l-295 -1v-326h354v-24h-380v682z" />
    <glyph glyph-name="afii10051" unicode="&#x402;" horiz-adv-x="695" 
d="M524 658h-261v-290q19 9 43.5 17t51 14t53.5 10t50 4q54 0 91 -16.5t60 -43t33 -60t10 -67.5q0 -57 -15 -105t-39 -86t-53.5 -67t-57.5 -49l-14 18q31 21 59 50.5t49.5 65.5t34 78t12.5 87q0 81 -43 126.5t-131 45.5q-23 0 -48.5 -4t-51.5 -10t-50.5 -14.5t-43.5 -17.5
v-344h-26v658h-217v24h504v-24z" />
    <glyph glyph-name="afii10052" unicode="&#x403;" horiz-adv-x="452" 
d="M231 724l100 143l26 -22l-111 -131zM105 0h-25v682h362v-24h-336z" />
    <glyph glyph-name="afii10053" unicode="&#x404;" horiz-adv-x="539" 
d="M504 19q-16 -6 -38.5 -10.5t-47 -8t-49 -5.5t-45.5 -2q-72 0 -122.5 24t-82 68t-45.5 107.5t-14 143.5q0 37 4.5 77.5t16 80t30.5 75.5t49 63.5t71 43.5t96 16q53 0 97 -7.5t70 -17.5l-8 -23q-38 11 -79.5 17.5t-77.5 6.5q-60 0 -104.5 -21t-73.5 -60t-44.5 -94
t-18.5 -122l284 7v-31l-285 3v-16q0 -58 8 -115t33 -102t72.5 -72.5t126.5 -27.5q13 0 34 1.5t44.5 4t47.5 6.5t44 10z" />
    <glyph glyph-name="afii10054" unicode="&#x405;" horiz-adv-x="514" 
d="M261 693q30 0 76 -5t91 -21l-8 -25q-53 15 -90.5 20.5t-73.5 5.5q-37 0 -68.5 -9.5t-55 -29t-36.5 -48.5t-13 -69q0 -35 15.5 -58.5t41 -39.5t58.5 -26.5t69 -20.5q37 -10 74 -22t66.5 -32.5t48 -52.5t18.5 -82t-18.5 -85.5t-49.5 -57.5t-73 -32t-88 -10
q-52 0 -107.5 11.5t-97.5 35.5l11 22q54 -26 100 -35.5t90 -9.5q97 0 151.5 38t54.5 124q0 38 -13.5 64t-37.5 44t-57 30t-72 23q-43 11 -81.5 24t-67.5 32t-46 47t-17 70q0 44 15 77.5t42 56.5t65 34.5t84 11.5z" />
    <glyph glyph-name="afii10055" unicode="&#x406;" horiz-adv-x="206" 
d="M90 0v682h26v-682h-26z" />
    <glyph glyph-name="afii10056" unicode="&#x407;" horiz-adv-x="206" 
d="M62 745q0 -11 -7 -18t-18 -7q-10 0 -17 7t-7 18t7 18t17 7q11 0 18 -7t7 -18zM195 745q0 -11 -7 -18t-18 -7q-10 0 -17 7t-7 18t7 18t17 7q11 0 18 -7t7 -18zM90 0v682h26v-682h-26z" />
    <glyph glyph-name="afii10057" unicode="&#x408;" horiz-adv-x="251" 
d="M125 682h25l1 -579q0 -57 -12 -100t-35 -75.5t-56 -58t-75 -48.5l-12 22q42 25 73 49.5t51.5 54t30 67t9.5 87.5v581z" />
    <glyph glyph-name="afii10058" unicode="&#x409;" horiz-adv-x="909" 
d="M439 658h-228l-8 -162q-5 -103 -10.5 -188.5t-23 -151t-53 -110t-99.5 -65.5l-7 19q59 23 91.5 66t48 107.5t21 151.5t10.5 198l8 159h277v-298h211q57 0 94 -18.5t59 -46t30.5 -60.5t8.5 -63q0 -48 -15 -85t-40.5 -61.5t-59.5 -37t-73 -12.5h-242v658zM466 360v-336h220
q33 0 62 10.5t50 32t33 53t12 73.5q0 49 -15 81.5t-39 51.5t-53.5 26.5t-57.5 7.5h-212z" />
    <glyph glyph-name="afii10059" unicode="&#x40a;" horiz-adv-x="895" 
d="M452 682v-298h213q57 0 94 -18.5t58 -46t29.5 -60.5t8.5 -63q0 -48 -14.5 -85t-40 -61.5t-59 -37t-72.5 -12.5h-243l-1 359h-318v-359h-27v682h27v-298h318v298h27zM452 360v-336h222q67 0 111 42.5t44 126.5q0 49 -15 81.5t-38.5 51.5t-52.5 26.5t-57 7.5h-214z" />
    <glyph glyph-name="afii10060" unicode="&#x40b;" horiz-adv-x="724" 
d="M619 259q0 30 -7.5 54.5t-24.5 42t-45.5 27t-70.5 9.5q-21 0 -49.5 -5t-58.5 -13.5t-58.5 -19t-49.5 -20.5v-334h-27l1 658h-209v24h499v-24h-264v-298q66 31 125 44t93 13q55 0 88.5 -14.5t52 -36.5t24.5 -47t6 -47v-272h-25v259v0z" />
    <glyph glyph-name="afii10061" unicode="&#x40c;" horiz-adv-x="527" 
d="M490 682l-63 -183q-17 -50 -39.5 -86t-63.5 -47q25 -5 43 -17.5t30.5 -30t21 -40t16.5 -47.5l72 -231h-27l-73 235q-11 34 -24.5 56.5t-30 35.5t-36 18t-41.5 5h-169v-350h-26v682h26v-308h154q40 0 76.5 23.5t59.5 86.5l70 198h24zM223 726l100 143l26 -22l-111 -131z
" />
    <glyph glyph-name="afii10062" unicode="&#x40e;" horiz-adv-x="513" 
d="M264 187h3l195 495h26l-232 -593q-37 -94 -103 -94q-13 0 -33 2t-55 11l8 24q18 -5 37.5 -8.5t36.5 -3.5q32 0 51.5 19.5t35.5 62.5l24 63h-12l-216 517h28zM265 718q-45 0 -80.5 27t-57.5 63l24 14q23 -35 53 -56.5t63 -21.5q27 0 59.5 16.5t73.5 57.5l13 -9
q-39 -52 -76.5 -71.5t-71.5 -19.5z" />
    <glyph glyph-name="afii10145" unicode="&#x40f;" horiz-adv-x="591" 
d="M511 682v-682h-199v-159h-27v159h-205v682h27v-658h378v658h26z" />
    <glyph glyph-name="afii10017" unicode="&#x410;" horiz-adv-x="514" 
d="M404 197h-295l-62 -197h-27l219 682h36l219 -682h-26zM210 511l-93 -290h279l-93 290l-45 143h-3z" />
    <glyph glyph-name="afii10018" unicode="&#x411;" horiz-adv-x="550" 
d="M80 682h358v-24h-331v-274h213q57 0 94 -18.5t58 -46t29.5 -60.5t8.5 -63q0 -48 -14.5 -85t-40 -61.5t-59 -37t-72.5 -12.5h-244v682zM107 360v-336h222q67 0 111 42.5t44 126.5q0 49 -15 81.5t-38.5 51.5t-52.5 26.5t-57 7.5h-214z" />
    <glyph glyph-name="afii10019" unicode="&#x412;" horiz-adv-x="553" 
d="M369 355q36 -11 61 -30.5t40 -44t21.5 -51t6.5 -50.5q0 -41 -13.5 -74t-37 -56t-55.5 -36t-69 -13h-243v682h205q48 0 84 -12.5t59.5 -35t35 -53t11.5 -66.5q0 -18 -4 -40t-16 -43.5t-33 -41t-54 -33.5zM107 342v-318h207q42 0 72 13t48.5 35.5t27.5 51t9 60.5
q0 30 -12 58.5t-33.5 50.5t-50.5 35.5t-63 13.5h-205zM107 658v-291h189q33 0 61 10.5t48 29.5t31.5 45.5t11.5 58.5q0 31 -9.5 58t-29.5 47t-51 31t-75 11h-176z" />
    <glyph glyph-name="afii10020" unicode="&#x413;" horiz-adv-x="452" 
d="M105 0h-25v682h362v-24h-336z" />
    <glyph glyph-name="afii10021" unicode="&#x414;" horiz-adv-x="632" 
d="M528 682v-658h51v-178h-23v154h-518v-154h-23v178h40q44 26 70 80t40 125t20 153t11 163l8 137h324zM227 658l-7 -115q-5 -72 -10.5 -150t-18 -149.5t-35 -129.5t-61.5 -90h406v634h-274z" />
    <glyph glyph-name="afii10022" unicode="&#x415;" horiz-adv-x="490" 
d="M80 682h363v-24h-337v-284h295v-23l-295 -1v-326h354v-24h-380v682z" />
    <glyph glyph-name="afii10024" unicode="&#x416;" horiz-adv-x="848" 
d="M71 682l70 -198q23 -63 59.5 -86.5t76.5 -23.5h134v308h26v-308h134q40 0 76.5 23.5t59.5 86.5l70 198h24l-63 -183q-17 -50 -39.5 -86t-63.5 -47q25 -5 43 -17.5t30.5 -30t21 -40t16.5 -47.5l72 -231h-27l-73 235q-22 69 -54.5 92.5t-77.5 23.5h-149v-351h-26v351h-149
q-45 0 -77.5 -23.5t-54.5 -92.5l-73 -235h-27l72 231q8 25 16.5 47.5t21 40t30 30t43.5 17.5q-41 11 -63.5 47t-39.5 86l-63 183h24z" />
    <glyph glyph-name="afii10025" unicode="&#x417;" horiz-adv-x="521" 
d="M325 379q31 -7 57.5 -20.5t46 -35.5t31 -51.5t11.5 -67.5q0 -49 -19 -88t-52 -66.5t-78 -42t-97 -14.5q-58 0 -111 9.5t-94 26.5l9 21q27 -10 55 -16.5t53 -10t46 -5t35 -1.5q51 0 92.5 12.5t71.5 36.5t46 58.5t16 79.5q0 76 -52 120t-156 44h-79v24h80q89 0 138.5 39
t49.5 110q0 58 -50 93t-138 35q-13 0 -34 -1.5t-45.5 -6.5t-52 -13.5t-53.5 -22.5l-10 21q45 26 94.5 36t107.5 10q53 0 92 -12t65 -33t39 -48.5t13 -58.5q0 -30 -10 -56t-27.5 -46.5t-40.5 -34.5t-49 -20z" />
    <glyph glyph-name="afii10026" unicode="&#x418;" horiz-adv-x="607" 
d="M80 0v682h25l1 -631h4l390 631h27v-682h-26v633h-3l-391 -633h-27z" />
    <glyph glyph-name="afii10027" unicode="&#x419;" horiz-adv-x="607" 
d="M80 0v682h25l1 -631h4l390 631h27v-682h-26v633h-3l-391 -633h-27zM304 749q-45 0 -80.5 27t-57.5 63l24 14q23 -35 53 -56.5t63 -21.5q27 0 59.5 16.5t73.5 57.5l13 -9q-39 -52 -76.5 -71.5t-71.5 -19.5z" />
    <glyph glyph-name="afii10028" unicode="&#x41a;" horiz-adv-x="527" 
d="M490 682l-63 -183q-17 -50 -39.5 -86t-63.5 -47q25 -5 43 -17.5t30.5 -30t21 -40t16.5 -47.5l72 -231h-27l-73 235q-11 34 -24.5 56.5t-30 35.5t-36 18t-41.5 5h-169v-350h-26v682h26v-308h154q40 0 76.5 23.5t59.5 86.5l70 198h24z" />
    <glyph glyph-name="afii10029" unicode="&#x41b;" horiz-adv-x="579" 
d="M470 0l1 658h-260l-8 -162q-5 -103 -10.5 -188.5t-23 -151t-53 -110t-99.5 -65.5l-7 19q58 23 90 66t48 107.5t21.5 151.5t10.5 198l8 159h311v-682h-29z" />
    <glyph glyph-name="afii10030" unicode="&#x41c;" horiz-adv-x="759" 
d="M332 190l47 -107h3l48 108l222 491h27v-682h-25l-1 616h-4l-41 -92l-212 -467h-31l-221 484l-35 79h-3v-620h-26v682h29z" />
    <glyph glyph-name="afii10031" unicode="&#x41d;" horiz-adv-x="591" 
d="M485 0v349h-378v-349h-27v682h27v-309h378l-1 309h27v-682h-26z" />
    <glyph glyph-name="afii10032" unicode="&#x41e;" horiz-adv-x="648" 
d="M588 337q0 -73 -16 -135.5t-48.5 -108.5t-80.5 -72.5t-112 -27.5q-75 0 -127 23.5t-84 67.5t-46 107t-14 143q0 69 13 134t44.5 114.5t83.5 79.5t130 30q79 0 129 -30t78.5 -80t39 -114t10.5 -131zM561 334q0 54 -8 113.5t-32.5 108.5t-70 81t-119.5 32t-121.5 -29
t-74.5 -76.5t-37.5 -108t-10.5 -123.5q0 -155 56 -235.5t181 -80.5q60 0 105 25t74 68.5t43.5 101t14.5 123.5z" />
    <glyph glyph-name="afii10033" unicode="&#x41f;" horiz-adv-x="591" 
d="M485 0v657h-378v-657h-27v682h431v-682h-26z" />
    <glyph glyph-name="afii10034" unicode="&#x420;" horiz-adv-x="488" 
d="M80 0v682h196q39 0 73.5 -11t61 -34t42 -58.5t15.5 -83.5q0 -30 -7.5 -64.5t-28 -64t-56.5 -49t-93 -19.5h-176v-298h-27zM284 322q28 0 56.5 8t51 27.5t36.5 52t14 82.5q0 42 -12.5 73t-34.5 52t-51.5 31t-62.5 10h-174v-336h177z" />
    <glyph glyph-name="afii10035" unicode="&#x421;" horiz-adv-x="539" 
d="M504 19q-16 -6 -38.5 -10.5t-47 -8t-49 -5.5t-45.5 -2q-72 0 -122.5 24t-82 68t-45.5 107.5t-14 143.5q0 37 4.5 77.5t16 80t30.5 75.5t49 63.5t71 43.5t96 16q53 0 97 -7.5t70 -17.5l-8 -23q-38 11 -79.5 17.5t-77.5 6.5q-65 0 -110.5 -24t-75 -68t-43 -105.5
t-13.5 -136.5q0 -58 8 -115t33 -102t72.5 -72.5t126.5 -27.5q13 0 34 1.5t44.5 4t47.5 6.5t44 10z" />
    <glyph glyph-name="afii10036" unicode="&#x422;" horiz-adv-x="501" 
d="M482 658h-218l-1 -658h-25v658h-219v24h462z" />
    <glyph glyph-name="afii10037" unicode="&#x423;" horiz-adv-x="513" 
d="M264 187h3l195 495h26l-232 -593q-37 -94 -103 -94q-13 0 -33 2t-55 11l8 24q18 -5 37.5 -8.5t36.5 -3.5q32 0 51.5 19.5t35.5 62.5l24 63h-12l-216 517h28z" />
    <glyph glyph-name="afii10038" unicode="&#x424;" horiz-adv-x="763" 
d="M400 610q86 -3 146 -26.5t97 -60t53.5 -82t16.5 -91.5q0 -53 -21.5 -99t-61.5 -81.5t-98.5 -56.5t-131.5 -22l-1 -91h-24v91q-87 3 -148.5 23t-100.5 53.5t-57.5 79t-18.5 100.5q0 47 18 92.5t57 82t101 60.5t149 28v71h24zM375 587q-79 -3 -135.5 -24.5t-93 -54.5
t-53.5 -75t-17 -88q0 -110 78.5 -167.5t220.5 -63.5v473zM400 114q67 1 120.5 20t90.5 50.5t56.5 73t19.5 89.5q0 40 -14 81t-47 75.5t-88 57.5t-138 26v-473z" />
    <glyph glyph-name="afii10039" unicode="&#x425;" horiz-adv-x="491" 
d="M245 329l-197 -329h-28l211 352l-197 330h28l183 -306l183 306h27l-196 -330l212 -352h-29z" />
    <glyph glyph-name="afii10040" unicode="&#x426;" horiz-adv-x="616" 
d="M511 682l1 -658h64v-178h-27v154h-469v682h27v-658h378v658h26z" />
    <glyph glyph-name="afii10041" unicode="&#x427;" horiz-adv-x="565" 
d="M485 0h-26v320q-33 -14 -67.5 -22t-65.5 -12.5t-54.5 -6t-35.5 -1.5q-55 0 -89.5 14.5t-53.5 36t-26 47t-7 47.5v259h26l-1 -246q0 -30 7.5 -54.5t25 -42t47 -27t73.5 -9.5q21 0 47.5 1.5t55.5 6t59 13t59 21.5v337h26v-682z" />
    <glyph glyph-name="afii10042" unicode="&#x428;" horiz-adv-x="839" 
d="M759 0h-679v682h27v-658h303v658h25l1 -658h296l1 658h26v-682z" />
    <glyph glyph-name="afii10043" unicode="&#x429;" horiz-adv-x="863" 
d="M80 682h27v-658h303v658h25l1 -658h296l1 658h26v-658h64v-178h-27v154h-716v682z" />
    <glyph glyph-name="afii10044" unicode="&#x42a;" horiz-adv-x="701" 
d="M253 682l1 -298h217q57 0 94 -18.5t58 -46t29.5 -60.5t8.5 -63q0 -48 -14.5 -85t-40 -61.5t-59 -37t-72.5 -12.5h-248v658h-217v24h243zM254 360v-336h226q67 0 111 42.5t44 126.5q0 49 -15 81.5t-38.5 51.5t-52.5 26.5t-57 7.5h-218z" />
    <glyph glyph-name="afii10045" unicode="&#x42b;" horiz-adv-x="717" 
d="M107 682v-298h215q57 0 94.5 -18.5t59 -46.5t30.5 -61t9 -63q0 -48 -15 -84.5t-41 -61t-60 -37t-73 -12.5h-246v682h27zM107 360v-336h224q33 0 62 10.5t50.5 32t33.5 53t12 73.5q0 49 -15.5 81.5t-39.5 51.5t-53.5 26.5t-57.5 7.5h-216zM611 0v682h26v-682h-26z" />
    <glyph glyph-name="afii10046" unicode="&#x42c;" horiz-adv-x="555" 
d="M107 682v-298h215q57 0 94.5 -18.5t59 -46.5t30.5 -61t9 -63q0 -48 -15 -84.5t-41 -61t-60 -37t-73 -12.5h-246v682h27zM107 360v-336h224q33 0 62 10.5t50.5 32t33.5 53t12 73.5q0 49 -15.5 81.5t-39.5 51.5t-53.5 26.5t-57.5 7.5h-216z" />
    <glyph glyph-name="afii10047" unicode="&#x42d;" horiz-adv-x="535" 
d="M33 41q54 -17 98.5 -20.5t71.5 -3.5q78 0 126.5 33t74.5 83t35 110t9 113l-295 -6v33l295 -6q-2 67 -15 121t-40 91.5t-70 58t-105 20.5q-36 0 -80 -6.5t-83 -18.5l-6 23q26 10 71.5 18t98.5 8q56 0 96.5 -14.5t69 -39.5t46.5 -58t27.5 -70.5t13 -76.5t3.5 -76
q0 -75 -14.5 -141.5t-46.5 -116t-82.5 -78t-122.5 -28.5q-58 0 -104.5 7.5t-79.5 18.5z" />
    <glyph glyph-name="afii10048" unicode="&#x42e;" horiz-adv-x="833" 
d="M80 0v682h26v-309h160q3 63 16.5 121t43.5 102t78.5 70t121.5 26q79 0 127.5 -30t75 -80t35.5 -114t9 -131q0 -73 -14.5 -135.5t-45 -108.5t-77 -72.5t-110.5 -27.5q-75 0 -125.5 23.5t-80.5 67.5t-42.5 107t-12.5 143v14h-159v-348h-26zM746 334q0 54 -6.5 113.5
t-29 108.5t-66.5 81t-118 32t-119.5 -29t-71 -76.5t-34.5 -108t-9 -123.5q0 -77 12 -136t39 -99t70.5 -60.5t105.5 -20.5q60 0 103 25t70.5 68.5t40.5 101t13 123.5z" />
    <glyph glyph-name="afii10049" unicode="&#x42f;" horiz-adv-x="543" 
d="M436 318h-158q-24 0 -46.5 -5t-42.5 -17.5t-36 -34.5t-26 -56l-60 -205h-27l61 212q13 42 34.5 70.5t63.5 42.5q-35 7 -59 24t-38.5 40.5t-21 51.5t-6.5 57q0 35 10.5 68t34 59t61.5 41.5t92 15.5h191v-682h-27v318zM267 658q-36 0 -66.5 -11t-52.5 -31.5t-34.5 -50.5
t-12.5 -68q0 -155 163 -155h172v316h-169z" />
    <glyph glyph-name="afii10065" unicode="&#x430;" horiz-adv-x="476" 
d="M348 61q-33 -25 -60.5 -38.5t-49 -20t-38 -7.5t-28.5 -1q-39 0 -64.5 12t-40.5 31.5t-21 42.5t-6 46q0 35 12.5 60.5t34.5 42t51.5 25t62.5 10.5l152 7v51q0 39 -5.5 67t-19 46t-37 26.5t-59.5 8.5q-37 0 -76.5 -9.5t-75.5 -23.5l-8 19q42 17 84.5 26t80.5 9
q70 0 105 -35.5t35 -119.5v-311h67l2 -16q-17 -7 -32.5 -9.5t-27.5 -2.5q-19 0 -27 7.5t-8 27.5v28zM198 242q-65 -3 -99.5 -33.5t-34.5 -79.5q0 -57 30.5 -85.5t87.5 -28.5q40 0 82 20t89 56v159z" />
    <glyph glyph-name="afii10066" unicode="&#x431;" horiz-adv-x="457" 
d="M68 367q21 51 64 82.5t103 31.5q56 0 91.5 -23.5t55.5 -59t27.5 -78t7.5 -79.5q0 -44 -8 -88t-29.5 -79.5t-59 -58t-96.5 -22.5q-57 0 -92.5 22t-56 57t-28 78.5t-7.5 87.5q0 28 0.5 57.5t2 57.5t3.5 53t6 45q12 67 46 119t107 81q16 6 39 15.5t47 20t46.5 20.5t38.5 19
l11 -21q-18 -9 -41.5 -20t-48 -21.5t-48.5 -20.5t-44 -18q-41 -15 -67 -42.5t-41.5 -62t-22 -74t-8.5 -79.5h2zM393 238q0 28 -5.5 66.5t-22.5 73t-48 58.5t-82 24q-50 0 -83 -21.5t-52.5 -54t-27 -72t-7.5 -75.5q0 -38 5.5 -78t22.5 -72t49 -52.5t86 -20.5q52 0 84.5 21
t50.5 53.5t24 72t6 77.5z" />
    <glyph glyph-name="afii10067" unicode="&#x432;" horiz-adv-x="437" 
d="M235 486q77 0 114 -34t37 -86q0 -13 -3 -28t-12 -30t-25 -28.5t-41 -23.5q28 -7 46.5 -21t30 -31t16 -35.5t4.5 -35.5q0 -29 -10.5 -53.5t-29 -42t-43.5 -27.5t-54 -10h-205v486h175zM83 241v-218h175q32 0 55 9.5t38 25.5t22 36.5t7 42.5q0 20 -8.5 39t-24.5 33.5
t-39 23t-52 8.5h-173zM83 463v-198h161q51 0 84.5 26.5t33.5 71.5q0 42 -30.5 71t-98.5 29h-150z" />
    <glyph glyph-name="afii10068" unicode="&#x433;" horiz-adv-x="356" 
d="M82 0h-22v486h286v-23h-264v-463z" />
    <glyph glyph-name="afii10069" unicode="&#x434;" horiz-adv-x="500" 
d="M421 486v-464h39v-151h-22v129h-406v-129h-22v151h39q33 21 51.5 62t28.5 92t14 106.5t8 106.5l7 97h263zM178 463l-5 -76q-3 -50 -7 -104t-13 -103.5t-25.5 -91t-45.5 -66.5h315v441h-219z" />
    <glyph glyph-name="afii10070" unicode="&#x435;" horiz-adv-x="462" 
d="M242 491q46 0 76.5 -14.5t50 -37t29 -49.5t14 -53t4.5 -47.5v-31.5v-16h-341q0 -45 6.5 -86t25 -72t50 -49.5t81.5 -18.5q45 0 79 9t75 29l9 -20q-39 -21 -76 -31t-83 -10q-58 0 -95.5 19.5t-59 53t-29.5 78.5t-8 95q0 18 2 43.5t9 53.5t20 56t34.5 50t52.5 35.5t74 13.5
zM241 470q-44 0 -74 -17.5t-49 -46t-28.5 -66t-13.5 -76.5h315q0 45 -7.5 83t-25 65t-46 42.5t-71.5 15.5z" />
    <glyph glyph-name="afii10072" unicode="&#x436;" horiz-adv-x="677" 
d="M327 0v245h-117q-36 0 -58.5 -16t-39.5 -65l-58 -164h-24l58 161q6 18 12 33.5t14.5 28.5t20 21.5t29.5 13.5q-29 8 -42.5 33.5t-27.5 60.5l-54 138h23l58 -149q17 -44 41.5 -59.5t53.5 -15.5h111v224h23v-224h111q28 0 53 15.5t42 59.5l58 149h23l-54 -138
q-14 -35 -27.5 -60.5t-42.5 -33.5q18 -5 29.5 -13.5t19.5 -21.5t14.5 -28.5t12.5 -33.5l58 -161h-24l-58 164q-17 49 -39.5 65t-58.5 16h-117v-245h-23z" />
    <glyph glyph-name="afii10073" unicode="&#x437;" horiz-adv-x="406" 
d="M182 -7q-35 0 -77.5 6t-79.5 20l8 20q31 -11 72 -18t77 -7q34 0 63.5 8t51.5 23.5t34 40t12 57.5q0 52 -44 82t-115 30h-65v21h59q72 0 109 30t37 75q0 46 -37 67t-98 21q-35 0 -70 -8.5t-73 -25.5l-8 20q35 17 75.5 27t80.5 10q71 0 112.5 -28t41.5 -85q0 -41 -27 -71
t-70 -41q22 -5 43 -14.5t37 -25t25.5 -36.5t9.5 -48q0 -69 -49 -109.5t-135 -40.5z" />
    <glyph glyph-name="afii10074" unicode="&#x438;" horiz-adv-x="472" 
d="M387 446l-304 -446h-23v486h23v-445h2l304 445h23v-486h-23v446h-2z" />
    <glyph glyph-name="afii10075" unicode="&#x439;" horiz-adv-x="472" 
d="M387 446l-304 -446h-23v486h23v-445h2l304 445h23v-486h-23v446h-2zM239 543q-42 0 -78.5 27t-59.5 65l22 13q23 -35 53.5 -57.5t64.5 -22.5q28 0 61 15t75 61l12 -8q-40 -53 -77.5 -73t-72.5 -20z" />
    <glyph glyph-name="afii10076" unicode="&#x43a;" horiz-adv-x="419" 
d="M60 0v490h23v-224h131q28 0 53 15.5t42 59.5l58 149h23l-54 -138q-14 -35 -27.5 -60.5t-42.5 -33.5q18 -5 29.5 -13.5t19.5 -21.5t14.5 -28.5t12.5 -33.5l58 -161h-24l-58 164q-17 49 -39.5 65t-58.5 16h-137v-245h-23z" />
    <glyph glyph-name="afii10077" unicode="&#x43b;" horiz-adv-x="462" 
d="M379 0v463h-209l-7 -97q-5 -72 -10.5 -134t-20 -110.5t-41.5 -82.5t-75 -50l-6 19q40 16 64 46t37 75t19 104.5t11 134.5l7 118h254v-486h-23z" />
    <glyph glyph-name="afii10078" unicode="&#x43c;" horiz-adv-x="597" 
d="M513 0v439l-33 -68l-167 -331h-24l-177 343l-30 58v-441h-22l1 486h24l176 -348l41 -77l37 78l174 347h24l-1 -486h-23z" />
    <glyph glyph-name="afii10079" unicode="&#x43d;" horiz-adv-x="459" 
d="M375 0v245h-292v-245h-23v486h23v-217h292v217h24v-486h-24z" />
    <glyph glyph-name="afii10080" unicode="&#x43e;" horiz-adv-x="477" 
d="M243 491q56 0 92 -22.5t56.5 -58.5t28 -81t7.5 -90q0 -44 -8 -87.5t-28.5 -79t-57 -57.5t-93.5 -22t-93.5 20.5t-58 54.5t-30 77.5t-8.5 90.5q0 46 10 92t32.5 82t59.5 58.5t91 22.5zM403 236q0 37 -6 78.5t-23 76t-48.5 57t-82.5 22.5q-50 0 -82.5 -21t-51.5 -55
t-26.5 -75.5t-7.5 -83.5t6 -81.5t24 -70t51 -49t87 -18.5q50 0 81 20.5t48.5 52t24 70.5t6.5 77z" />
    <glyph glyph-name="afii10081" unicode="&#x43f;" horiz-adv-x="460" 
d="M376 0v463h-291v-463h-25v486h339l1 -486h-24z" />
    <glyph glyph-name="afii10082" unicode="&#x440;" horiz-adv-x="466" 
d="M83 430q36 28 78.5 45t84.5 17q48 0 80.5 -18t52.5 -50t28.5 -75.5t8.5 -94.5q0 -55 -10 -102.5t-32 -82t-57 -54.5t-85 -20q-30 0 -67.5 8.5t-82.5 33.5v-250h-22v699h22q0 -14 -0.5 -27t-0.5 -27zM82 64q29 -18 68.5 -32t82.5 -14q33 0 62 12.5t50 40.5t33.5 73.5
t12.5 111.5q0 60 -10.5 101t-30.5 66t-48 36t-62 11q-19 0 -40.5 -5.5t-42.5 -15t-40.5 -22t-34.5 -27.5v-336z" />
    <glyph glyph-name="afii10083" unicode="&#x441;" horiz-adv-x="431" 
d="M75 232q0 -43 7.5 -82.5t26 -69.5t50 -47.5t79.5 -17.5q42 0 76 9t75 26l7 -19q-29 -16 -69 -27t-85 -11q-53 0 -89.5 18t-59.5 49.5t-33 75.5t-10 97q0 36 7.5 81t29 84.5t60.5 66.5t102 27q37 0 72 -6.5t61 -17.5l-9 -21q-38 14 -69 18.5t-53 4.5q-46 0 -79.5 -17
t-55 -48.5t-31.5 -75.5t-10 -97z" />
    <glyph glyph-name="afii10084" unicode="&#x442;" horiz-adv-x="404" 
d="M383 463h-169v-463h-22l-1 463h-171v23h363v-23z" />
    <glyph glyph-name="afii10085" unicode="&#x443;" horiz-adv-x="401" 
d="M182 -119q-15 -46 -36 -73t-66 -27q-17 0 -41 2.5t-55 10.5l5 22q32 -6 48.5 -8.5t33.5 -2.5q13 0 24 0.5t21.5 7.5t20.5 23t20 46l38 118h-14l-167 486h24l100 -291l60 -177h4l56 178l92 290h25z" />
    <glyph glyph-name="afii10086" unicode="&#x444;" horiz-adv-x="606" 
d="M316 490q69 -2 117 -20.5t77.5 -50.5t42.5 -76t13 -96q0 -51 -13 -96t-42.5 -79.5t-77.5 -55t-117 -23.5l-1 -197h-23v197q-74 3 -122.5 22t-77 51t-40.5 75t-12 94q0 52 14 97t44 79t78 54.5t116 24.5v218h24v-218zM63 238q0 -47 10 -87t35.5 -69t70 -47t113.5 -21v454
q-64 -4 -107.5 -22.5t-70.5 -49t-39 -71t-12 -87.5zM543 242q0 45 -9.5 84.5t-34.5 70.5t-69.5 49.5t-113.5 21.5v-454q69 3 113.5 23.5t69.5 52t34.5 71t9.5 81.5z" />
    <glyph glyph-name="afii10087" unicode="&#x445;" horiz-adv-x="374" 
d="M185 240l-148 -240h-27l161 259l-142 227h28l128 -207l128 207h26l-140 -226l165 -260h-29z" />
    <glyph glyph-name="afii10088" unicode="&#x446;" horiz-adv-x="482" 
d="M399 486l1 -463h50v-153h-22v130h-368v486h22v-463h295v463h22z" />
    <glyph glyph-name="afii10089" unicode="&#x447;" horiz-adv-x="432" 
d="M349 0v260q-51 -37 -98 -49.5t-82 -12.5q-50 0 -76 14.5t-37.5 36t-13 46.5t-1.5 47v144h23v-132q0 -31 3 -56t13.5 -42.5t31 -27t56.5 -9.5q18 0 40 3t46 11t48.5 20.5t46.5 32.5v200h23v-486h-23z" />
    <glyph glyph-name="afii10090" unicode="&#x448;" horiz-adv-x="653" 
d="M83 23h235v463h23v-463h230v463h22v-486h-533v486h23v-463z" />
    <glyph glyph-name="afii10091" unicode="&#x449;" horiz-adv-x="673" 
d="M83 23h235v463h23v-463h230v463h22v-463h50v-153h-22v130h-561v486h23v-463z" />
    <glyph glyph-name="afii10092" unicode="&#x44a;" horiz-adv-x="562" 
d="M10 463v23h192v-209h181q45 0 74 -13.5t45.5 -34.5t23 -45t6.5 -45q0 -35 -11.5 -61t-31 -43.5t-46.5 -26t-57 -8.5h-207v463h-169zM202 254v-231h186q51 0 85.5 29t34.5 87q0 34 -11.5 56.5t-30 35.5t-41 18t-44.5 5h-179z" />
    <glyph glyph-name="afii10093" unicode="&#x44b;" horiz-adv-x="571" 
d="M83 254v-231h186q51 0 85.5 29t34.5 87q0 34 -11.5 56.5t-30 35.5t-41 18t-44.5 5h-179zM83 486v-209h181q45 0 74 -13.5t45.5 -34.5t23 -45t6.5 -45q0 -35 -11.5 -61t-31 -43.5t-46.5 -26t-57 -8.5h-207v486h23zM487 0v486h24v-486h-24z" />
    <glyph glyph-name="afii10094" unicode="&#x44c;" horiz-adv-x="443" 
d="M83 254v-231h186q51 0 85.5 29t34.5 87q0 34 -11.5 56.5t-30 35.5t-41 18t-44.5 5h-179zM83 486v-209h181q45 0 74 -13.5t45.5 -34.5t23 -45t6.5 -45q0 -35 -11.5 -61t-31 -43.5t-46.5 -26t-57 -8.5h-207v486h23z" />
    <glyph glyph-name="afii10095" unicode="&#x44d;" horiz-adv-x="419" 
d="M173 470q-23 0 -53 -3.5t-70 -19.5l-8 20q26 11 61 18t72 7q64 0 102.5 -24.5t58.5 -61.5t26.5 -80t6.5 -80q0 -49 -11.5 -94.5t-35.5 -81t-61.5 -56.5t-89.5 -21q-45 0 -81 10t-65 26l9 19q21 -9 37.5 -15.5t32.5 -10.5t33 -5.5t38 -1.5q43 0 75 19t53 50.5t31 73.5
t10 88l-209 -1v25l210 -3q-1 44 -11.5 81t-31.5 64t-53 42.5t-76 15.5z" />
    <glyph glyph-name="afii10096" unicode="&#x44e;" horiz-adv-x="597" 
d="M366 491q56 0 91.5 -23t55.5 -59.5t27 -81.5t7 -88q0 -42 -7.5 -85.5t-27.5 -79t-56 -58.5t-93 -23t-93 21.5t-57 56t-29 78t-8 87.5v12h-94v-248h-22v486h22v-217h95q3 42 14.5 82t34 71t57 50t83.5 19zM523 236q0 36 -5.5 77t-22 76t-47.5 58t-82 23q-50 0 -82 -21.5
t-50.5 -55.5t-25.5 -76t-7 -82q0 -39 5.5 -78.5t23 -70.5t50 -50.5t86.5 -19.5q50 0 80.5 21.5t47.5 54t23 71t6 73.5z" />
    <glyph glyph-name="afii10097" unicode="&#x44f;" horiz-adv-x="449" 
d="M213 464q-60 0 -94.5 -27t-34.5 -84q0 -55 36 -81t97 -26h148v218h-152zM365 224h-137q-19 0 -38 -3.5t-35.5 -12.5t-29.5 -24.5t-21 -38.5l-49 -145h-25l52 152q10 29 26 49t48 31q-53 13 -75 46.5t-22 75.5q0 22 7 45.5t24.5 42.5t47 31.5t75.5 12.5h176v-486h-24v224z
" />
    <glyph glyph-name="afii10071" unicode="&#x451;" horiz-adv-x="462" 
d="M242 491q46 0 76.5 -14.5t50 -37t29 -49.5t14 -53t4.5 -47.5v-31.5v-16h-341q0 -45 6.5 -86t25 -72t50 -49.5t81.5 -18.5q45 0 79 9t75 29l9 -20q-39 -21 -76 -31t-83 -10q-58 0 -95.5 19.5t-59 53t-29.5 78.5t-8 95q0 18 2 43.5t9 53.5t20 56t34.5 50t52.5 35.5t74 13.5
zM241 470q-44 0 -74 -17.5t-49 -46t-28.5 -66t-13.5 -76.5h315q0 45 -7.5 83t-25 65t-46 42.5t-71.5 15.5zM202 615q0 -11 -7 -18t-18 -7q-10 0 -17 7t-7 18t7 18t17 7q11 0 18 -7t7 -18zM335 615q0 -11 -7 -18t-18 -7q-10 0 -17 7t-7 18t7 18t17 7q11 0 18 -7t7 -18z" />
    <glyph glyph-name="afii10100" unicode="&#x453;" horiz-adv-x="356" 
d="M82 0h-22v486h286v-23h-264v-463zM162 594l100 143l26 -22l-111 -131z" />
    <glyph glyph-name="afii10101" unicode="&#x454;" horiz-adv-x="431" 
d="M75 232q0 -43 7.5 -82.5t26 -69.5t50 -47.5t79.5 -17.5q42 0 76 9t75 26l7 -19q-29 -16 -69 -27t-85 -11q-53 0 -89.5 18t-59.5 49.5t-33 75.5t-10 97q0 36 7.5 81t29 84.5t60.5 66.5t102 27q37 0 72 -6.5t61 -17.5l-9 -21q-38 14 -69 18.5t-53 4.5q-43 0 -75 -15
t-53.5 -42.5t-33 -66.5t-13.5 -86l214 3v-25l-215 1v-7v0z" />
    <glyph glyph-name="afii10102" unicode="&#x455;" horiz-adv-x="406" 
d="M205 491q20 0 56 -4.5t68 -19.5l-8 -21q-34 14 -64 19t-53 5q-54 0 -89.5 -24t-35.5 -78q0 -22 12 -39t30 -29.5t39.5 -21.5t40.5 -15q30 -10 58.5 -20.5t51 -26t36.5 -38t14 -55.5q0 -35 -14 -59.5t-37.5 -40t-53.5 -23t-62 -7.5q-42 0 -80.5 8t-68.5 26l10 20
q39 -21 73.5 -27t61.5 -6q31 0 58 6.5t47 20t31.5 33.5t11.5 48q0 24 -11 42t-29.5 31.5t-41.5 23t-47 17.5q-30 9 -57.5 20t-49 27t-34.5 36.5t-13 49.5q0 34 12.5 57t33 37.5t47.5 21t57 6.5z" />
    <glyph glyph-name="afii10103" unicode="&#x456;" horiz-adv-x="188" 
d="M82 0l1 486h23v-486h-24zM118 608q0 -10 -7 -17t-18 -7q-9 0 -16 7t-7 17q0 11 7 18t16 7q11 0 18 -7t7 -18z" />
    <glyph glyph-name="afii10104" unicode="&#x457;" horiz-adv-x="188" 
d="M83 0v486h23v-486h-23zM52 608q0 -11 -7 -18t-18 -7q-10 0 -17 7t-7 18t7 18t17 7q11 0 18 -7t7 -18zM185 608q0 -11 -7 -18t-18 -7q-10 0 -17 7t-7 18t7 18t17 7q11 0 18 -7t7 -18z" />
    <glyph glyph-name="afii10105" unicode="&#x458;" horiz-adv-x="195" 
d="M88 486h24v-495q0 -39 -5.5 -69t-20 -54t-40 -44t-64.5 -38l-9 18q35 19 57.5 37t35.5 38.5t18 44t5 53.5zM124 608q0 -10 -7 -17t-18 -7q-9 0 -16 7t-7 17q0 11 7 18t16 7q11 0 18 -7t7 -18z" />
    <glyph glyph-name="afii10106" unicode="&#x459;" horiz-adv-x="720" 
d="M360 486v-209h181q45 0 74 -13.5t45.5 -34.5t23 -45t6.5 -45q0 -35 -11.5 -61t-31 -43.5t-46.5 -26t-57 -8.5h-207v463h-168l-5 -97q-4 -72 -9.5 -134t-20.5 -110.5t-42.5 -82.5t-75.5 -50l-6 19q40 16 64.5 44t38 71.5t19.5 104t10 140.5l6 118h212zM360 254v-231h186
q51 0 85.5 29t34.5 87q0 34 -11.5 56.5t-30 35.5t-41 18t-44.5 5h-179z" />
    <glyph glyph-name="afii10107" unicode="&#x45a;" horiz-adv-x="704" 
d="M344 486v-209h181q45 0 74 -13.5t45.5 -34.5t23 -45t6.5 -45q0 -35 -11.5 -61t-31 -43.5t-46.5 -26t-57 -8.5h-207v253h-239v-253h-22v486h22v-209h239v209h23zM344 254v-231h186q51 0 85.5 29t34.5 87q0 34 -11.5 56.5t-30 35.5t-41 18t-44.5 5h-179z" />
    <glyph glyph-name="afii10108" unicode="&#x45b;" horiz-adv-x="460" 
d="M376 0v335q0 30 -3.5 54.5t-14.5 42.5t-32 27.5t-56 9.5q-22 0 -46.5 -5.5t-49 -14t-48 -19t-43.5 -21.5v-409h-23v586h-62v22h62v100h23v-100h212v-22h-212v-153q55 29 104.5 44t84.5 15q47 0 73 -14.5t38 -36t14.5 -46.5t2.5 -47v-348h-24z" />
    <glyph glyph-name="afii10109" unicode="&#x45c;" horiz-adv-x="419" 
d="M178 564l100 143l26 -22l-111 -131zM60 0v490h23v-224h131q28 0 53 15.5t42 59.5l58 149h23l-54 -138q-14 -35 -27.5 -60.5t-42.5 -33.5q18 -5 29.5 -13.5t19.5 -21.5t14.5 -28.5t12.5 -33.5l58 -161h-24l-58 164q-17 49 -39.5 65t-58.5 16h-137v-245h-23z" />
    <glyph glyph-name="afii10110" unicode="&#x45e;" horiz-adv-x="401" 
d="M182 -119q-15 -46 -36 -73t-66 -27q-17 0 -41 2.5t-55 10.5l5 22q32 -6 48.5 -8.5t33.5 -2.5q13 0 24 0.5t21.5 7.5t20.5 23t20 46l38 118h-14l-167 486h24l100 -291l60 -177h4l56 178l92 290h25zM196 553q-45 0 -80.5 27t-57.5 63l24 14q23 -35 53 -56.5t63 -21.5
q27 0 59.5 16.5t73.5 57.5l13 -9q-39 -52 -76.5 -71.5t-71.5 -19.5z" />
    <glyph glyph-name="afii10193" unicode="&#x45f;" horiz-adv-x="460" 
d="M219 0h-159v486h23v-463h295v463h22v-486h-158v-134h-23v134z" />
    <glyph glyph-name="afii10050" unicode="&#x490;" horiz-adv-x="452" 
d="M105 0h-25v682h338v124h24v-148h-336z" />
    <glyph glyph-name="afii10098" unicode="&#x491;" horiz-adv-x="353" 
d="M82 0h-22v486h265v94h21v-117h-264v-463z" />
    <glyph glyph-name="schwacyrillic" unicode="&#x4d9;" horiz-adv-x="442" 
d="M215 -7q-46 0 -76.5 14.5t-50 37t-29 49.5t-14 53t-4.5 47.5v31.5v16h341q0 45 -6.5 86t-25 72t-50.5 49.5t-81 18.5q-45 0 -79 -9t-75 -29l-9 20q39 21 76 31t83 10q58 0 95.5 -19.5t59 -53t29.5 -78.5t8 -95q0 -18 -2 -43.5t-9 -53.5t-20 -56t-34.5 -50t-52.5 -35.5
t-74 -13.5zM216 14q44 0 74 17.5t49 46t28.5 66t13.5 76.5h-315q0 -45 7.5 -83t25 -65t46 -42.5t71.5 -15.5z" />
    <glyph glyph-name="Wgrave" unicode="&#x1e80;" horiz-adv-x="769" 
d="M373 638l-152 -638h-36l-165 682h24l157 -654h3l158 654h26l178 -654h3l156 654h24l-164 -682h-36l-172 638h-4zM385 713l-111 131l26 22l100 -143z" />
    <glyph glyph-name="wgrave" unicode="&#x1e81;" horiz-adv-x="643" 
d="M315 452l-29 -100l-104 -352h-34l-133 486h24l86 -317l39 -146h3l45 156l90 307h26l110 -343l38 -120h3l34 127l91 336h24l-133 -486h-34l-107 336l-37 116h-2zM317 554l-111 131l26 22l100 -143z" />
    <glyph glyph-name="Wacute" unicode="&#x1e82;" horiz-adv-x="769" 
d="M373 638l-152 -638h-36l-165 682h24l157 -654h3l158 654h26l178 -654h3l156 654h24l-164 -682h-36l-172 638h-4zM363 724l100 143l26 -22l-111 -131z" />
    <glyph glyph-name="wacute" unicode="&#x1e83;" horiz-adv-x="643" 
d="M315 452l-29 -100l-104 -352h-34l-133 486h24l86 -317l39 -146h3l45 156l90 307h26l110 -343l38 -120h3l34 127l91 336h24l-133 -486h-34l-107 336l-37 116h-2zM306 564l100 143l26 -22l-111 -131z" />
    <glyph glyph-name="Wdieresis" unicode="&#x1e84;" horiz-adv-x="769" 
d="M373 638l-152 -638h-36l-165 682h24l157 -654h3l158 654h26l178 -654h3l156 654h24l-164 -682h-36l-172 638h-4zM331 772q0 -11 -7 -18t-18 -7q-10 0 -17 7t-7 18t7 18t17 7q11 0 18 -7t7 -18zM464 772q0 -11 -7 -18t-18 -7q-10 0 -17 7t-7 18t7 18t17 7q11 0 18 -7
t7 -18z" />
    <glyph glyph-name="wdieresis" unicode="&#x1e85;" horiz-adv-x="643" 
d="M315 452l-29 -100l-104 -352h-34l-133 486h24l86 -317l39 -146h3l45 156l90 307h26l110 -343l38 -120h3l34 127l91 336h24l-133 -486h-34l-107 336l-37 116h-2zM273 591q0 -11 -7 -18t-18 -7q-10 0 -17 7t-7 18t7 18t17 7q11 0 18 -7t7 -18zM406 591q0 -11 -7 -18t-18 -7
q-10 0 -17 7t-7 18t7 18t17 7q11 0 18 -7t7 -18z" />
    <glyph glyph-name="Ygrave" unicode="&#x1ef2;" horiz-adv-x="454" 
d="M167 450l55 -107h3l52 97l132 242h30l-202 -365v-317h-26v314l-196 368h29zM246 713l-111 131l26 22l100 -143z" />
    <glyph glyph-name="ygrave" unicode="&#x1ef3;" horiz-adv-x="401" 
d="M182 -119q-15 -46 -36 -73t-66 -27q-17 0 -41 2.5t-55 10.5l5 22q32 -6 48.5 -8.5t33.5 -2.5q13 0 24 0.5t21.5 7.5t20.5 23t20 46l38 118h-14l-167 486h24l100 -291l60 -177h4l56 178l92 290h25zM213 554l-111 131l26 22l100 -143z" />
    <glyph glyph-name="afii00208" unicode="&#x2015;" horiz-adv-x="1000" 
d="M24 238v28h947v-28h-947z" />
    <glyph glyph-name="fraction" unicode="&#x2044;" horiz-adv-x="107" 
d="M-80 -23h-24l279 719h22z" />
    <glyph glyph-name="fraction" unicode="&#x2215;" horiz-adv-x="107" 
d="M-80 -23h-24l279 719h22z" />
    <glyph glyph-name="dong" unicode="&#x20ab;" horiz-adv-x="500" 
d="M368 114q-31 -25 -69 -39.5t-76 -14.5q-42 0 -71 16t-47 44.5t-26 67t-8 83.5q0 49 9 91t28.5 72.5t51 48t75.5 17.5q27 0 61.5 -7.5t71.5 -27.5v102h-144v25h144v90h26v-90h48v-25h-48v-502h-26v49zM368 434q-26 16 -61.5 27.5t-72.5 11.5q-27 0 -52 -10.5t-43.5 -34.5
t-29.5 -63t-11 -95q0 -52 9.5 -87t26.5 -56.5t41 -31t53 -9.5q16 0 35.5 4.5t38.5 13t36.5 19t29.5 22.5v289zM57 0v23h385v-23h-385z" />
    <glyph glyph-name="centigrade" unicode="&#x2103;" horiz-adv-x="774" 
d="M739 19q-16 -6 -38.5 -10.5t-47 -8t-49 -5.5t-45.5 -2q-72 0 -122.5 24t-82 68t-45.5 107.5t-14 143.5q0 37 4.5 77.5t16 80t30.5 75.5t49 63.5t71 43.5t96 16q53 0 97 -7.5t70 -17.5l-8 -23q-38 11 -79.5 17.5t-77.5 6.5q-65 0 -110.5 -24t-75 -68t-43 -105.5
t-13.5 -136.5q0 -58 8 -115t33 -102t72.5 -72.5t126.5 -27.5q13 0 34 1.5t44.5 4t47.5 6.5t44 10zM146 491q-56 0 -86 32.5t-30 80.5q0 23 9 44t25 37t37 25.5t45 9.5t44.5 -9.5t35.5 -25.5t24 -37t9 -44q0 -24 -9 -44.5t-24 -35.5t-35.5 -24t-44.5 -9zM144 697
q-18 0 -35 -8t-29.5 -21t-20 -30t-7.5 -35t7.5 -34.5t20 -29t29.5 -19.5t35 -7t34.5 7t29 19.5t20.5 29t8 34.5t-8 35t-20.5 30t-29 21t-34.5 8z" />
    <glyph glyph-name="fahrenheit" unicode="&#x2109;" horiz-adv-x="727" 
d="M146 496q-56 0 -86 32.5t-30 80.5q0 23 9 44t25 37t37 25.5t45 9.5t44.5 -9.5t35.5 -25.5t24 -37t9 -44q0 -24 -9 -44.5t-24 -35.5t-35.5 -24t-44.5 -9zM144 702q-18 0 -35 -8t-29.5 -21t-20 -30t-7.5 -35t7.5 -34.5t20 -29t29.5 -19.5t35 -7t34.5 7t29 19.5t20.5 29
t8 34.5t-8 35t-20.5 30t-29 21t-34.5 8zM371 0h-26v682h362v-24h-336v-283h295v-24l-295 -1v-350z" />
    <glyph glyph-name="afii61352" unicode="&#x2116;" horiz-adv-x="974" 
d="M775 681q39 0 64 -14.5t39.5 -38t20 -53t5.5 -59.5q0 -29 -5.5 -57.5t-20 -52t-40 -38t-65.5 -14.5q-39 0 -65 13.5t-41 36t-21 51t-6 59.5q0 30 6.5 60t22.5 54t42 38.5t64 14.5zM881 514q0 24 -4 50t-15.5 47.5t-32 36t-54.5 14.5t-56 -13.5t-34.5 -34.5t-17 -47.5
t-4.5 -52.5q0 -27 4 -52t16 -44.5t34 -31t58 -11.5q33 0 53.5 12.5t32.5 33t16 45t4 48.5zM641 273v22h263v-22h-263zM520 50v632h27l-1 -682h-26l-342 528l-68 107h-3v-635h-27v682h29l355 -549l52 -83h4z" />
    <glyph glyph-name="published" unicode="&#x2117;" horiz-adv-x="819" 
d="M416 -19q-74 0 -139 27.5t-113.5 75.5t-76.5 112.5t-28 138.5q0 73 28 137t76.5 112t113.5 75.5t139 27.5q73 0 138.5 -27.5t114.5 -75.5t77.5 -112t28.5 -137q0 -74 -28.5 -138.5t-77.5 -112.5t-114.5 -75.5t-138.5 -27.5zM416 666q-69 0 -130.5 -26t-107 -71t-72 -105
t-26.5 -129t26.5 -129.5t72 -105.5t107 -71t130.5 -26q70 0 131 26t106.5 71t71.5 105.5t26 129.5t-26 129t-71.5 105t-106.5 71t-131 26zM310 55v526h161q30 0 56.5 -8.5t47 -26.5t32.5 -45t12 -64q0 -23 -6 -49.5t-21.5 -49.5t-43.5 -38t-72 -15h-146l1 -230h-21zM477 303
q22 0 43.5 6.5t39 21.5t28.5 40t11 63q0 65 -36.5 96.5t-87.5 31.5h-145v-259h147z" />
    <glyph glyph-name="Ohm" unicode="&#x2126;" horiz-adv-x="653" 
d="M327 692q80 0 131 -30t80.5 -78t41 -108.5t11.5 -122.5q0 -49 -6.5 -98t-22.5 -92.5t-42.5 -80t-65.5 -59.5h155v-23h-214v25q48 16 80.5 47.5t52 74.5t27.5 95.5t8 109.5q0 51 -9 107t-35 102.5t-72 77t-121 30.5q-68 0 -113 -27t-72.5 -71.5t-39 -101t-11.5 -115.5
q0 -60 5.5 -112.5t22.5 -95t47.5 -74t81.5 -47.5v-25h-203v23h147q-42 21 -67.5 58t-39 82t-18 93.5t-4.5 92.5q0 63 13 124.5t44 110t82 78.5t126 30z" />
    <glyph glyph-name="angstrom" unicode="&#x212b;" horiz-adv-x="514" 
d="M404 197h-295l-62 -197h-27l219 682h36l219 -682h-26zM210 511l-93 -290h279l-93 290l-45 143h-3zM257 728q-41 0 -62.5 24t-21.5 57t23.5 57.5t60.5 24.5q38 0 60 -24t22 -58t-22 -57.5t-60 -23.5zM257 868q-29 0 -44 -16t-15 -44q0 -29 15 -44.5t44 -15.5
q27 0 42.5 15.5t15.5 44.5q0 27 -15.5 43.5t-42.5 16.5z" />
    <glyph glyph-name="gradient" unicode="&#x2207;" horiz-adv-x="517" 
d="M507 682v-23l-232 -659h-33l-232 659v23h497zM257 25h3l52 151l168 482h-443l167 -479z" />
    <glyph glyph-name="product" unicode="&#x220f;" horiz-adv-x="591" 
d="M485 -88v745h-378v-745h-27v770h431v-770h-26z" />
    <glyph glyph-name="summation" unicode="&#x2211;" horiz-adv-x="494" 
d="M462 682v-24h-391l188 -334v-15l-193 -373l412 1v-25h-439v27l193 377l-189 339v27h419z" />
    <glyph glyph-name="minus" unicode="&#x2212;" horiz-adv-x="500" 
d="M70 283v25h359v-25h-359z" />
    <glyph glyph-name="radical" unicode="&#x221a;" horiz-adv-x="509" 
d="M102 417q13 -43 24 -76t21 -64.5t21 -66.5t25 -81l31 -103h3l32 103q8 27 24 80.5t35 121t39.5 141t39.5 141t34.5 121.5t23.5 82h24q-12 -38 -31 -102.5t-41.5 -142.5t-46.5 -163t-46 -163t-41.5 -142.5t-31.5 -102.5h-32q-18 57 -32.5 103.5t-28 90t-28 90t-33.5 103.5
l-60 -32l-6 19l81 43v0z" />
    <glyph glyph-name="logicaland" unicode="&#x2227;" horiz-adv-x="500" 
d="M236 486h29l186 -486h-28l-172 453l-173 -453h-29z" />
    <glyph glyph-name="logicalor" unicode="&#x2228;" horiz-adv-x="500" 
d="M49 486h29l173 -453l172 453h28l-186 -486h-29z" />
    <glyph glyph-name="intersection" unicode="&#x2229;" horiz-adv-x="500" 
d="M396 0v306q0 30 -7.5 59t-25 52.5t-46.5 37.5t-72 14q-40 0 -67 -12.5t-43.5 -33.5t-23.5 -48.5t-7 -57.5v-317h-24v319q0 37 9 68.5t29 54t51.5 35.5t76.5 13q46 0 79 -15t54 -39.5t31 -57t10 -67.5v-311h-24z" />
    <glyph glyph-name="union" unicode="&#x222a;" horiz-adv-x="500" 
d="M420 486v-311q0 -35 -10 -67.5t-31 -57.5t-54 -39.5t-79 -14.5q-45 0 -76.5 13t-51.5 35.5t-29 54t-9 68.5v319h24v-317q0 -30 7 -57.5t23.5 -48.5t43.5 -33.5t67 -12.5q43 0 72 14t46.5 37.5t25 52.5t7.5 59v306h24z" />
    <glyph glyph-name="integral" unicode="&#x222b;" horiz-adv-x="320" 
d="M161 -12q0 79 -6.5 155t-14 150t-13.5 147.5t-6 148.5q0 72 29.5 115.5t91.5 43.5q9 0 15.5 -0.5t12.5 -1t13 -2t18 -3.5l-5 -18q-16 3 -27.5 4.5t-24.5 1.5q-30 0 -49.5 -11.5t-31 -31t-16.5 -45t-5 -52.5q0 -82 6 -154t13.5 -142.5t14 -144t6.5 -158.5
q0 -76 -22.5 -112.5t-79.5 -36.5q-18 0 -34 2.5t-37 7.5l5 16q33 -9 64 -9q49 0 66 33t17 97z" />
    <glyph glyph-name="approxequal" unicode="&#x2248;" horiz-adv-x="500" 
d="M422 402l11 -7q-14 -30 -25.5 -41t-29.5 -11q-26 0 -60.5 5.5t-70 12t-69 12t-55.5 5.5l-43 -40l-13 8q15 30 27.5 42.5t32.5 12.5q22 0 57.5 -5.5t72.5 -12t70.5 -12t52.5 -5.5zM422 282l11 -7q-14 -30 -25.5 -41t-29.5 -11q-26 0 -60.5 5.5t-70 12t-69 12t-55.5 5.5
l-43 -40l-13 8q15 30 27.5 42.5t32.5 12.5q22 0 57.5 -5.5t72.5 -12t70.5 -12t52.5 -5.5z" />
    <glyph glyph-name="notequal" unicode="&#x2260;" horiz-adv-x="500" 
d="M358 382h71v-25h-98l-122 -114h220v-24h-246l-96 -90l-16 18l77 72h-78v24h104l122 114h-226v25h253l89 83l16 -18z" />
    <glyph glyph-name="lessequal" unicode="&#x2264;" horiz-adv-x="500" 
d="M70 169v24h359v-24h-359zM73 399v29l356 136v-28l-327 -122l327 -123v-29z" />
    <glyph glyph-name="greaterequal" unicode="&#x2265;" horiz-adv-x="500" 
d="M71 169v24h359v-24h-359zM71 262v29l327 123l-327 122v28l356 -136v-29z" />
    <glyph glyph-name="lozenge" unicode="&#x25ca;" horiz-adv-x="500" 
d="M236 681h29l185 -344l-185 -337h-29l-187 337zM78 337l173 -316l171 316l-171 323z" />
    <glyph glyph-name="zero.text" unicode="&#xe000;" horiz-adv-x="500" 
d="M474 326q0 -56 -10 -115t-35 -107.5t-67.5 -79.5t-108.5 -31q-75 0 -120 29.5t-69 76.5t-31.5 106t-7.5 118q0 52 8 113t32 113.5t69.5 87.5t120.5 35q51 0 87.5 -17t60.5 -45t38.5 -64t21.5 -74.5t9 -76.5t2 -69zM450 323q0 27 -1.5 62t-8 71t-19 70.5t-34 61.5
t-54 43.5t-78.5 16.5t-79.5 -15.5t-56 -41.5t-36.5 -60t-21 -70t-9.5 -72.5t-2.5 -67.5q0 -63 8 -118.5t30 -97t62 -65.5t105 -24q59 0 97 28.5t59.5 73t30 99t8.5 106.5z" />
    <glyph glyph-name="one.text" unicode="&#xe001;" horiz-adv-x="415" 
d="M77 606v19l153 36h29v-661h-24v628z" />
    <glyph glyph-name="two.text" unicode="&#xe002;" horiz-adv-x="500" 
d="M26 0v24l80 76q53 51 103 102t88.5 101.5t61.5 99t23 94.5q0 39 -12 66.5t-33 45t-49 25.5t-59 8q-44 0 -89.5 -15t-83.5 -42l-13 22q42 29 91 45t97 16q36 0 68.5 -9.5t57 -30t39 -52t14.5 -75.5q0 -53 -26.5 -107.5t-66.5 -107t-87.5 -100.5t-89.5 -89l-76 -74h370v-23
h-408z" />
    <glyph glyph-name="three.text" unicode="&#xe003;" horiz-adv-x="488" 
d="M399 661l5 -20l-248 -254h44q43 0 84 -10.5t72 -32.5t50 -57.5t19 -84.5q0 -51 -17.5 -90.5t-47.5 -66t-70 -40t-85 -13.5q-58 0 -103 7.5t-86 24.5l9 21q55 -20 100 -24.5t73 -4.5q42 0 78.5 11t63.5 34t42.5 58t15.5 84q0 76 -54.5 117.5t-150.5 41.5q-20 0 -36 -1
t-32 -4l-12 20l252 260h-323v24h357z" />
    <glyph glyph-name="four.text" unicode="&#xe004;" horiz-adv-x="500" 
d="M381 661v-442h100v-24h-100l1 -195h-26v195h-337v27q84 112 168 220t167 219h27zM356 219v406l-310 -406h310z" />
    <glyph glyph-name="five.text" unicode="&#xe005;" horiz-adv-x="500" 
d="M252 400q34 0 69.5 -10.5t64.5 -33.5t48 -60.5t19 -92.5q0 -54 -17 -94t-47 -66.5t-70 -39t-86 -12.5q-57 0 -101 8t-86 25l10 21q48 -17 89.5 -23.5t70.5 -6.5q98 0 154 45t56 143q0 43 -14.5 75.5t-39.5 54.5t-59 32.5t-74 10.5q-30 0 -64 -8.5t-63 -22.5l-21 13
l15 303h319v-24h-297l-14 -266q7 2 12 5q5 2 8 3.5t4 1.5q15 5 43 12t71 7z" />
    <glyph glyph-name="six.text" unicode="&#xe006;" horiz-adv-x="500" 
d="M294 671q46 0 78.5 -9t58.5 -20l-10 -21q-40 16 -72 21t-57 5q-43 0 -75 -16.5t-55 -43.5t-38.5 -60t-25 -66t-13.5 -62.5t-5 -48.5l2 -3q33 23 83.5 39t109.5 16q38 0 72.5 -10.5t61 -34.5t42 -62t15.5 -93q0 -97 -55 -153t-149 -56q-64 0 -104.5 25t-64 67t-32 98.5
t-8.5 119.5q0 82 15.5 149.5t46.5 116t75.5 75.5t103.5 27zM441 197q0 40 -8.5 73t-28.5 57t-52 37t-79 13q-44 0 -79 -9.5t-60 -20.5t-38.5 -21.5t-15.5 -11.5v-29q0 -37 5.5 -83.5t24 -88t55 -69.5t99.5 -28q41 0 74 13.5t56 37.5t35 57t12 73z" />
    <glyph glyph-name="seven.text" unicode="&#xe007;" horiz-adv-x="469" 
d="M126 0h-27l286 637h-351v24h375v-26z" />
    <glyph glyph-name="eight.text" unicode="&#xe008;" horiz-adv-x="500" 
d="M433 522q0 -42 -26 -90t-87 -90q61 -30 93 -70.5t32 -99.5q0 -33 -12.5 -65t-38 -57.5t-64.5 -41t-92 -15.5q-57 0 -97.5 14.5t-65.5 38t-36.5 52t-11.5 56.5q0 65 35.5 124.5t105.5 102.5q-51 26 -77 59t-26 77q0 30 12.5 57.5t36 49.5t57.5 35t76 13q32 0 65 -8.5
t60 -26.5t44 -46.5t17 -68.5zM241 16q48 0 81.5 14.5t55.5 36.5t32 49t10 52q0 48 -19 78.5t-50.5 52t-73 37.5t-87.5 34q-71 -43 -104.5 -99.5t-33.5 -113.5q0 -24 9 -49t31 -45.5t58.5 -33.5t90.5 -13zM244 649q-44 0 -73.5 -14.5t-47.5 -35t-25.5 -43.5t-7.5 -40
q0 -34 20 -59.5t50.5 -44.5t67 -33.5t70.5 -26.5q63 45 86.5 88.5t23.5 76.5q0 22 -8 45.5t-27.5 42.5t-51 31.5t-77.5 12.5z" />
    <glyph glyph-name="nine.text" unicode="&#xe009;" horiz-adv-x="500" 
d="M205 -6q-46 0 -84 8.5t-64 19.5l10 21q40 -16 77.5 -21t62.5 -5q43 0 75 16.5t55 43.5t38.5 60t25 66t13.5 62.5t5 48.5l-2 3q-33 -23 -83.5 -39t-109.5 -16q-38 0 -72.5 10.5t-61 34.5t-42 62t-15.5 93q0 97 55 153t149 56q64 0 104.5 -25t63.5 -67t32 -98.5t9 -119.5
q0 -82 -15.5 -149.5t-46.5 -116t-76 -75t-103 -26.5zM58 467q0 -40 8.5 -73t28.5 -57t52 -37t79 -13q44 0 79 9.5t60 20.5t38.5 21t15.5 12v29q0 37 -5.5 83.5t-24 88t-55 69.5t-99.5 28q-41 0 -74 -13.5t-56 -37.5t-35 -57t-12 -73z" />
    <glyph glyph-name="numbersign.text" unicode="&#xe00a;" horiz-adv-x="496" 
d="M385 431l-43 -204h86l-5 -18h-85l-44 -209h-20l44 209h-183l-44 -209h-20l44 209h-72l5 18h71l43 204h-75l5 18h74q8 41 18 86.5t18 86.5h20l-37 -173h183q8 41 18.5 86.5t18.5 86.5h21l-37 -173h83l-5 -18h-82zM139 227h182q10 48 22 102t22 102h-184z" />
    <glyph glyph-name="dollar.text" unicode="&#xe00b;" horiz-adv-x="500" 
d="M260 726h21v-62q30 -2 62 -10.5t58 -23.5l-11 -23q-32 16 -57.5 22.5t-51.5 9.5v-290q31 -14 60.5 -28t52.5 -33.5t36.5 -46.5t13.5 -66t-12.5 -68t-34.5 -50t-52 -33.5t-64 -17.5v-83h-21v803zM224 -77h-21v80q-41 4 -80.5 17t-67.5 30l12 23q44 -23 75.5 -32t60.5 -13
v320q-30 11 -55 24t-43.5 30.5t-29 41.5t-10.5 57q0 34 10.5 61t29 47t44 33t54.5 19v65h21v-803zM419 181q0 28 -10.5 49t-29 38t-44 30t-54.5 24v-292q65 11 101.5 46.5t36.5 104.5zM90 506q0 -29 8.5 -49.5t24 -35.5t36 -26t44.5 -20v261q-24 -6 -44.5 -17t-35.5 -26.5
t-24 -37t-9 -49.5z" />
    <glyph glyph-name="euro.text" unicode="&#xe00c;" horiz-adv-x="500" 
d="M433 303v-23h-333q2 -51 12 -98.5t34.5 -84t67.5 -59t111 -22.5q23 0 66.5 5.5t94.5 17.5l6 -21q-15 -5 -36.5 -9.5t-45 -8t-46.5 -5.5t-42 -2q-63 0 -108.5 20t-75.5 57t-45.5 90t-18.5 120h-42v23h401zM32 366v21h44q4 49 18.5 99.5t43.5 90.5t74.5 65.5t112.5 25.5
q50 0 93 -7.5t68 -16.5l-6 -23q-36 12 -78 18t-76 6q-53 0 -93 -18t-67.5 -52t-43.5 -81.5t-21 -106.5h332v-21h-401z" />
    <glyph glyph-name="florin.text" unicode="&#xe00d;" horiz-adv-x="445" 
d="M110 388h100l14 110q10 79 43 126t98 47q17 0 34 -2.5t32 -7.5l-7 -19q-21 5 -33.5 6t-29.5 1q-50 0 -78 -41t-36 -108q-3 -25 -7.5 -57t-6.5 -55h107v-22h-109q-3 -20 -8.5 -66t-12 -96.5t-12 -93.5t-8.5 -58q-15 -92 -47.5 -135t-90.5 -43q-36 0 -64 14l10 19
q17 -5 28 -7t25 -2q27 0 46 10t31.5 29.5t21 48t16.5 65.5q6 27 11.5 66.5t10.5 83.5t10 87.5t9 77.5h-97v22z" />
    <glyph glyph-name="sterling.text" unicode="&#xe00e;" horiz-adv-x="500" 
d="M42 0v25q24 10 39.5 31t25 48t14 57t5.5 56l5 110h-72v23h74q1 30 2.5 64t2.5 64q1 37 9.5 71t28 60t52 41t82.5 15q38 0 79 -6.5t68 -17.5l-8 -22q-38 13 -70.5 18t-67.5 5q-45 0 -73.5 -13t-44.5 -35.5t-22.5 -53t-8.5 -65.5l-5 -125h208v-23h-209l-4 -109
q-1 -26 -5.5 -54t-12.5 -54.5t-21 -48.5t-31 -37h367v-24h-407z" />
    <glyph glyph-name="yen.text" unicode="&#xe010;" horiz-adv-x="463" 
d="M241 323l63 120l116 218h28l-193 -358h168v-23h-366v23h166l-186 358h28l110 -218l63 -120h3zM423 237v-21h-172v-216h-24l-1 216h-169v21h366z" />
    <glyph glyph-name="slashedzero" unicode="&#xe23f;" horiz-adv-x="500" 
d="M474 326q0 -56 -10 -115t-35 -107.5t-67.5 -79.5t-108.5 -31q-75 0 -120 29.5t-69 76.5t-31.5 106t-7.5 118q0 52 8 113t32 113.5t69.5 87.5t120.5 35q51 0 87.5 -17t60.5 -45t38.5 -64t21.5 -74.5t9 -76.5t2 -69zM50 321q0 -47 4 -90t15 -79.5t30.5 -64.5t49.5 -46
l207 576q-20 14 -44.5 22.5t-56.5 8.5q-46 0 -79.5 -15.5t-56 -41.5t-36.5 -60t-21 -70t-9.5 -72.5t-2.5 -67.5zM450 323q0 29 -2 66.5t-9.5 76t-22.5 74.5t-41 62l-205 -572q37 -14 85 -14q59 0 97 28.5t59.5 73t30 99t8.5 106.5z" />
    <glyph glyph-name="Scaron" unicode="&#x160;" horiz-adv-x="514" 
d="M261 693q30 0 76 -5t91 -21l-8 -25q-53 15 -90.5 20.5t-73.5 5.5q-37 0 -68.5 -9.5t-55 -29t-36.5 -48.5t-13 -69q0 -35 15.5 -58.5t41 -39.5t58.5 -26.5t69 -20.5q37 -10 74 -22t66.5 -32.5t48 -52.5t18.5 -82t-18.5 -85.5t-49.5 -57.5t-73 -32t-88 -10
q-52 0 -107.5 11.5t-97.5 35.5l11 22q54 -26 100 -35.5t90 -9.5q97 0 151.5 38t54.5 124q0 38 -13.5 64t-37.5 44t-57 30t-72 23q-43 11 -81.5 24t-67.5 32t-46 47t-17 70q0 44 15 77.5t42 56.5t65 34.5t84 11.5zM377 852l10 -12l-128 -122h-28l-129 123l11 12l132 -103z
" />
    <glyph glyph-name="Zcaron" unicode="&#x17d;" horiz-adv-x="463" 
d="M15 0v27l389 631h-365v24h392v-27l-387 -630h404v-25h-433zM376 852l10 -12l-128 -122h-28l-129 123l11 12l132 -103z" />
    <glyph glyph-name="scaron" unicode="&#x161;" horiz-adv-x="406" 
d="M205 491q20 0 56 -4.5t68 -19.5l-8 -21q-34 14 -64 19t-53 5q-54 0 -89.5 -24t-35.5 -78q0 -22 12 -39t30 -29.5t39.5 -21.5t40.5 -15q30 -10 58.5 -20.5t51 -26t36.5 -38t14 -55.5q0 -35 -14 -59.5t-37.5 -40t-53.5 -23t-62 -7.5q-42 0 -80.5 8t-68.5 26l10 20
q39 -21 73.5 -27t61.5 -6q31 0 58 6.5t47 20t31.5 33.5t11.5 48q0 24 -11 42t-29.5 31.5t-41.5 23t-47 17.5q-30 9 -57.5 20t-49 27t-34.5 36.5t-13 49.5q0 34 12.5 57t33 37.5t47.5 21t57 6.5zM331 694l10 -12l-128 -122h-28l-129 123l11 12l132 -103z" />
    <glyph glyph-name="zcaron" unicode="&#x17e;" horiz-adv-x="389" 
d="M47 22l319 1v-23h-349v24l313 437l-2 2h-289v23h317v-28l-310 -434zM329 694l10 -12l-128 -122h-28l-129 123l11 12l132 -103z" />
    <glyph glyph-name="Ydieresis" unicode="&#x178;" horiz-adv-x="454" 
d="M167 450l55 -107h3l52 97l132 242h30l-202 -365v-317h-26v314l-196 368h29zM182 745q0 -11 -7 -18t-18 -7q-10 0 -17 7t-7 18t7 18t17 7q11 0 18 -7t7 -18zM315 745q0 -11 -7 -18t-18 -7q-10 0 -17 7t-7 18t7 18t17 7q11 0 18 -7t7 -18z" />
    <glyph glyph-name="cent" unicode="&#xa2;" horiz-adv-x="500" 
d="M255 -6q-48 3 -81.5 21.5t-54.5 50t-30.5 74t-9.5 93.5q0 34 6.5 77t25.5 81.5t53.5 66.5t90.5 33v67h23v-66q37 0 72 -6.5t61 -17.5l-9 -21q-38 14 -69.5 18.5t-54.5 4.5v-455q38 1 69.5 9.5t70.5 25.5l7 -19q-28 -15 -66 -25.5t-81 -12.5v-83h-23v84zM104 232
q0 -42 7 -80.5t24 -68t46.5 -48t73.5 -20.5v453q-79 -9 -115 -73t-36 -163z" />
    <glyph glyph-name="onequarter" unicode="&#xbc;" horiz-adv-x="744" 
d="M607 394v-259h64v-21h-64v-114h-26l1 114h-216v21q54 66 108.5 129.5t108.5 129.5h24zM582 135v223l-186 -223h186zM233 -23h-24l279 719h22zM104 617l-2 19l111 25h24v-394h-24v366z" />
    <glyph glyph-name="onehalf" unicode="&#xbd;" horiz-adv-x="744" 
d="M81 617l-2 19l111 25h24v-394h-24v366zM213 -23h-24l279 719h22zM422 0v20l52 45q34 30 65.5 59.5t56 58.5t39.5 57t15 54q0 43 -28 62t-66 19q-28 0 -58 -9.5t-56 -26.5l-11 20q29 19 62 28.5t64 9.5q24 0 45.5 -5.5t38 -17.5t26.5 -31t10 -46q0 -32 -17 -64.5
t-43.5 -63t-57 -59.5t-57.5 -53l-41 -35l230 1v-23h-269z" />
    <glyph glyph-name="threequarters" unicode="&#xbe;" horiz-adv-x="744" 
d="M655 394v-259h64v-21h-64v-114h-26l1 114h-216v21q54 66 108.5 129.5t108.5 129.5h24zM280 661l6 -17l-156 -144h19q28 0 55 -6t47.5 -19.5t33 -34.5t12.5 -51q0 -31 -11.5 -55t-31 -40t-46 -24t-56.5 -8q-38 0 -68 5t-59 16l9 20q38 -13 67 -16t47 -3q26 0 49 6t40 19
t26.5 33t9.5 48q0 42 -34 65.5t-94 23.5q-14 0 -24 -0.5t-21 -2.5l-11 15l155 148h-201v22h237zM630 135v223l-186 -223h186zM251 -23h-24l279 719h22z" />
    <glyph glyph-name="Agrave" unicode="&#xc0;" horiz-adv-x="514" 
d="M404 197h-295l-62 -197h-27l219 682h36l219 -682h-26zM210 511l-93 -290h279l-93 290l-45 143h-3zM257 713l-111 131l26 22l100 -143z" />
    <glyph glyph-name="Aacute" unicode="&#xc1;" horiz-adv-x="514" 
d="M404 197h-295l-62 -197h-27l219 682h36l219 -682h-26zM210 511l-93 -290h279l-93 290l-45 143h-3zM237 723l100 143l26 -22l-111 -131z" />
    <glyph glyph-name="Acircumflex" unicode="&#xc2;" horiz-adv-x="514" 
d="M404 197h-295l-62 -197h-27l219 682h36l219 -682h-26zM210 511l-93 -290h279l-93 290l-45 143h-3zM256 803l-132 -103l-11 12l129 123h28l128 -122l-10 -12z" />
    <glyph glyph-name="Atilde" unicode="&#xc3;" horiz-adv-x="514" 
d="M404 197h-295l-62 -197h-27l219 682h36l219 -682h-26zM210 511l-93 -290h279l-93 290l-45 143h-3zM135 740l-13 7q8 26 26.5 41.5t40.5 15.5q16 0 35 -5.5t38.5 -12.5t38.5 -12.5t34 -5.5l45 39l12 -7q-9 -22 -24 -39.5t-38 -17.5q-13 0 -32.5 6t-40.5 13t-40.5 13
t-32.5 6z" />
    <glyph glyph-name="Adieresis" unicode="&#xc4;" horiz-adv-x="514" 
d="M404 197h-295l-62 -197h-27l219 682h36l219 -682h-26zM210 511l-93 -290h279l-93 290l-45 143h-3zM214 756q0 -11 -7 -18t-18 -7q-10 0 -17 7t-7 18t7 18t17 7q11 0 18 -7t7 -18zM347 756q0 -11 -7 -18t-18 -7q-10 0 -17 7t-7 18t7 18t17 7q11 0 18 -7t7 -18z" />
    <glyph glyph-name="Aring" unicode="&#xc5;" horiz-adv-x="514" 
d="M404 197h-295l-62 -197h-27l219 682h36l219 -682h-26zM210 511l-93 -290h279l-93 290l-45 143h-3zM256 707q-41 0 -62.5 24t-21.5 57t23.5 57.5t60.5 24.5q38 0 60 -24t22 -58t-22 -57.5t-60 -23.5zM256 847q-29 0 -44 -16t-15 -44q0 -29 15 -44.5t44 -15.5
q27 0 42.5 15.5t15.5 44.5q0 27 -15.5 43.5t-42.5 16.5z" />
    <glyph glyph-name="Ccedilla" unicode="&#xc7;" horiz-adv-x="539" 
d="M504 19q-16 -6 -38 -10.5t-46.5 -8t-48.5 -5.5t-45 -2l-54 -69h17q45 0 74.5 -16t29.5 -51q0 -19 -9.5 -36.5t-29.5 -31t-50.5 -21.5t-73.5 -8l-1 17q39 3 64.5 10.5t40.5 18t21 23t6 26.5q0 26 -25 38t-63 12q-5 0 -10.5 -0.5t-11.5 -0.5l-9 14l62 76q-67 3 -113.5 28
t-75.5 69t-42 106t-13 139q0 37 4.5 77.5t16 80t30.5 75.5t49 63.5t71 43.5t96 16q53 0 97 -7.5t70 -17.5l-8 -23q-38 11 -79.5 17.5t-77.5 6.5q-65 0 -110.5 -24t-75 -68t-43 -105.5t-13.5 -136.5q0 -58 8 -115t33 -102t72.5 -72.5t126.5 -27.5q13 0 34 1.5t44.5 4
t47.5 6.5t44 10z" />
    <glyph glyph-name="Egrave" unicode="&#xc8;" horiz-adv-x="490" 
d="M80 682h363v-24h-337v-284h295v-23l-295 -1v-326h354v-24h-380v682zM282 713l-111 131l26 22l100 -143z" />
    <glyph glyph-name="Eacute" unicode="&#xc9;" horiz-adv-x="490" 
d="M80 682h363v-24h-337v-284h295v-23l-295 -1v-326h354v-24h-380v682zM220 723l100 143l26 -22l-111 -131z" />
    <glyph glyph-name="Ecircumflex" unicode="&#xca;" horiz-adv-x="490" 
d="M80 682h363v-24h-337v-284h295v-23l-295 -1v-326h354v-24h-380v682zM253 819l-132 -103l-11 12l129 123h28l128 -122l-10 -12z" />
    <glyph glyph-name="Edieresis" unicode="&#xcb;" horiz-adv-x="490" 
d="M80 682h363v-24h-337v-284h295v-23l-295 -1v-326h354v-24h-380v682zM219 763q0 -11 -7 -18t-18 -7q-10 0 -17 7t-7 18t7 18t17 7q11 0 18 -7t7 -18zM352 763q0 -11 -7 -18t-18 -7q-10 0 -17 7t-7 18t7 18t17 7q11 0 18 -7t7 -18z" />
    <glyph glyph-name="Igrave" unicode="&#xcc;" horiz-adv-x="206" 
d="M90 0v682h26v-682h-26zM101 713l-111 131l26 22l100 -143z" />
    <glyph glyph-name="Iacute" unicode="&#xcd;" horiz-adv-x="206" 
d="M90 0v682h26v-682h-26zM85 723l100 143l26 -22l-111 -131z" />
    <glyph glyph-name="Icircumflex" unicode="&#xce;" horiz-adv-x="206" 
d="M90 0v682h26v-682h-26zM104 805l-132 -103l-11 12l129 123h28l128 -122l-10 -12z" />
    <glyph glyph-name="Idieresis" unicode="&#xcf;" horiz-adv-x="206" 
d="M90 0v682h26v-682h-26zM62 766q0 -11 -7 -18t-18 -7q-10 0 -17 7t-7 18t7 18t17 7q11 0 18 -7t7 -18zM195 766q0 -11 -7 -18t-18 -7q-10 0 -17 7t-7 18t7 18t17 7q11 0 18 -7t7 -18z" />
    <glyph glyph-name="Eth" unicode="&#xd0;" horiz-adv-x="595" 
d="M535 343q0 -71 -12.5 -133.5t-43.5 -109t-83.5 -73.5t-132.5 -27h-183v347h-66v22h66v313h194q78 0 128.5 -27.5t80 -74t41 -108t11.5 -129.5zM509 334q0 80 -13.5 135.5t-35 91.5t-48.5 55.5t-54 29t-51.5 11t-40.5 1.5h-160v-289h211v-22h-211v-322h151q14 0 38.5 1
t52.5 9.5t56.5 26.5t52 52.5t38 88t14.5 131.5z" />
    <glyph glyph-name="Ntilde" unicode="&#xd1;" horiz-adv-x="627" 
d="M520 50v632h27l-1 -682h-26l-342 528l-68 107h-3v-635h-27v682h29l355 -549l52 -83h4zM201 735l-13 7q8 26 26.5 41.5t40.5 15.5q16 0 35 -5.5t38.5 -12.5t38.5 -12.5t34 -5.5l45 39l12 -7q-9 -22 -24 -39.5t-38 -17.5q-13 0 -32.5 6t-40.5 13t-40.5 13t-32.5 6z" />
    <glyph glyph-name="Ograve" unicode="&#xd2;" horiz-adv-x="648" 
d="M588 337q0 -73 -16 -135.5t-48.5 -108.5t-80.5 -72.5t-112 -27.5q-75 0 -127 23.5t-84 67.5t-46 107t-14 143q0 69 13 134t44.5 114.5t83.5 79.5t130 30q79 0 129 -30t78.5 -80t39 -114t10.5 -131zM561 334q0 54 -8 113.5t-32.5 108.5t-70 81t-119.5 32t-121.5 -29
t-74.5 -76.5t-37.5 -108t-10.5 -123.5q0 -155 56 -235.5t181 -80.5q60 0 105 25t74 68.5t43.5 101t14.5 123.5zM336 713l-111 131l26 22l100 -143z" />
    <glyph glyph-name="Oacute" unicode="&#xd3;" horiz-adv-x="648" 
d="M588 337q0 -73 -16 -135.5t-48.5 -108.5t-80.5 -72.5t-112 -27.5q-75 0 -127 23.5t-84 67.5t-46 107t-14 143q0 69 13 134t44.5 114.5t83.5 79.5t130 30q79 0 129 -30t78.5 -80t39 -114t10.5 -131zM561 334q0 54 -8 113.5t-32.5 108.5t-70 81t-119.5 32t-121.5 -29
t-74.5 -76.5t-37.5 -108t-10.5 -123.5q0 -155 56 -235.5t181 -80.5q60 0 105 25t74 68.5t43.5 101t14.5 123.5zM318 723l100 143l26 -22l-111 -131z" />
    <glyph glyph-name="Ocircumflex" unicode="&#xd4;" horiz-adv-x="648" 
d="M588 337q0 -73 -16 -135.5t-48.5 -108.5t-80.5 -72.5t-112 -27.5q-75 0 -127 23.5t-84 67.5t-46 107t-14 143q0 69 13 134t44.5 114.5t83.5 79.5t130 30q79 0 129 -30t78.5 -80t39 -114t10.5 -131zM561 334q0 54 -8 113.5t-32.5 108.5t-70 81t-119.5 32t-121.5 -29
t-74.5 -76.5t-37.5 -108t-10.5 -123.5q0 -155 56 -235.5t181 -80.5q60 0 105 25t74 68.5t43.5 101t14.5 123.5zM334 819l-132 -103l-11 12l129 123h28l128 -122l-10 -12z" />
    <glyph glyph-name="Otilde" unicode="&#xd5;" horiz-adv-x="648" 
d="M588 337q0 -73 -16 -135.5t-48.5 -108.5t-80.5 -72.5t-112 -27.5q-75 0 -127 23.5t-84 67.5t-46 107t-14 143q0 69 13 134t44.5 114.5t83.5 79.5t130 30q79 0 129 -30t78.5 -80t39 -114t10.5 -131zM561 334q0 54 -8 113.5t-32.5 108.5t-70 81t-119.5 32t-121.5 -29
t-74.5 -76.5t-37.5 -108t-10.5 -123.5q0 -155 56 -235.5t181 -80.5q60 0 105 25t74 68.5t43.5 101t14.5 123.5zM209 763l-13 7q8 26 26.5 41.5t40.5 15.5q16 0 35 -5.5t38.5 -12.5t38.5 -12.5t34 -5.5l45 39l12 -7q-9 -22 -24 -39.5t-38 -17.5q-13 0 -32.5 6t-40.5 13
t-40.5 13t-32.5 6z" />
    <glyph glyph-name="Odieresis" unicode="&#xd6;" horiz-adv-x="648" 
d="M588 337q0 -73 -16 -135.5t-48.5 -108.5t-80.5 -72.5t-112 -27.5q-75 0 -127 23.5t-84 67.5t-46 107t-14 143q0 69 13 134t44.5 114.5t83.5 79.5t130 30q79 0 129 -30t78.5 -80t39 -114t10.5 -131zM561 334q0 54 -8 113.5t-32.5 108.5t-70 81t-119.5 32t-121.5 -29
t-74.5 -76.5t-37.5 -108t-10.5 -123.5q0 -155 56 -235.5t181 -80.5q60 0 105 25t74 68.5t43.5 101t14.5 123.5zM292 776q0 -11 -7 -18t-18 -7q-10 0 -17 7t-7 18t7 18t17 7q11 0 18 -7t7 -18zM425 776q0 -11 -7 -18t-18 -7q-10 0 -17 7t-7 18t7 18t17 7q11 0 18 -7t7 -18z
" />
    <glyph glyph-name="Oslash" unicode="&#xd8;" horiz-adv-x="628" 
d="M578 337q0 -73 -16 -135.5t-48.5 -108.5t-80.5 -72.5t-112 -27.5q-66 0 -114 17.5t-80 51.5l-48 -67h-27l61 85q-34 44 -48.5 108t-14.5 146q0 69 13 134t44.5 114.5t83.5 79.5t130 30q63 0 106.5 -19.5t72.5 -52.5l52 72h30l-66 -91q35 -51 48.5 -120t13.5 -144zM77 332
q0 -75 12.5 -132t39.5 -97l355 494q-26 32 -66 52t-97 20q-74 0 -121.5 -29t-74.5 -76.5t-37.5 -108t-10.5 -123.5zM551 334q0 30 -2 62t-8 63.5t-16.5 61t-26.5 55.5l-355 -492q59 -68 171 -68q60 0 105 25t74 68.5t43.5 101t14.5 123.5z" />
    <glyph glyph-name="Ugrave" unicode="&#xd9;" horiz-adv-x="639" 
d="M533 682h26v-443q0 -54 -15 -99.5t-45 -78t-75 -50.5t-106 -18q-62 0 -107 17t-74 48.5t-43 77.5t-14 103v443h25l1 -440q0 -112 53 -168.5t159 -56.5t160.5 57t54.5 168v440zM330 713l-111 131l26 22l100 -143z" />
    <glyph glyph-name="Uacute" unicode="&#xda;" horiz-adv-x="639" 
d="M533 682h26v-443q0 -54 -15 -99.5t-45 -78t-75 -50.5t-106 -18q-62 0 -107 17t-74 48.5t-43 77.5t-14 103v443h25l1 -440q0 -112 53 -168.5t159 -56.5t160.5 57t54.5 168v440zM288 723l100 143l26 -22l-111 -131z" />
    <glyph glyph-name="Ucircumflex" unicode="&#xdb;" horiz-adv-x="639" 
d="M533 682h26v-443q0 -54 -15 -99.5t-45 -78t-75 -50.5t-106 -18q-62 0 -107 17t-74 48.5t-43 77.5t-14 103v443h25l1 -440q0 -112 53 -168.5t159 -56.5t160.5 57t54.5 168v440zM316 818l-137 -101l-12 12l134 120h30l132 -119l-10 -12z" />
    <glyph glyph-name="Udieresis" unicode="&#xdc;" horiz-adv-x="639" 
d="M533 682h26v-443q0 -54 -15 -99.5t-45 -78t-75 -50.5t-106 -18q-62 0 -107 17t-74 48.5t-43 77.5t-14 103v443h25l1 -440q0 -112 53 -168.5t159 -56.5t160.5 57t54.5 168v440zM279 760q0 -11 -7 -18t-18 -7q-10 0 -17 7t-7 18t7 18t17 7q11 0 18 -7t7 -18zM412 760
q0 -11 -7 -18t-18 -7q-10 0 -17 7t-7 18t7 18t17 7q11 0 18 -7t7 -18z" />
    <glyph glyph-name="Yacute" unicode="&#xdd;" horiz-adv-x="454" 
d="M167 450l55 -107h3l52 97l132 242h30l-202 -365v-317h-26v314l-196 368h29zM196 722l100 143l26 -22l-111 -131z" />
    <glyph glyph-name="Thorn" unicode="&#xde;" horiz-adv-x="488" 
d="M284 200q28 0 56.5 8t51 27.5t36.5 52t14 82.5q0 42 -12.5 73t-34.5 52t-51.5 31t-62.5 10h-174v-336h177zM80 682h27v-122h169q39 0 73.5 -11t61 -34t42 -58.5t15.5 -83.5q0 -30 -7.5 -64.5t-28 -64t-56.5 -49t-93 -19.5h-176v-176h-27v682z" />
    <glyph glyph-name="agrave" unicode="&#xe0;" horiz-adv-x="476" 
d="M348 61q-33 -25 -60.5 -38.5t-49 -20t-38 -7.5t-28.5 -1q-39 0 -64.5 12t-40.5 31.5t-21 42.5t-6 46q0 35 12.5 60.5t34.5 42t51.5 25t62.5 10.5l152 7v51q0 39 -5.5 67t-19 46t-37 26.5t-59.5 8.5q-37 0 -76.5 -9.5t-75.5 -23.5l-8 19q42 17 84.5 26t80.5 9
q70 0 105 -35.5t35 -119.5v-311h67l2 -16q-17 -7 -32.5 -9.5t-27.5 -2.5q-19 0 -27 7.5t-8 27.5v28zM198 242q-65 -3 -99.5 -33.5t-34.5 -79.5q0 -57 30.5 -85.5t87.5 -28.5q40 0 82 20t89 56v159zM240 554l-111 131l26 22l100 -143z" />
    <glyph glyph-name="aacute" unicode="&#xe1;" horiz-adv-x="476" 
d="M348 61q-33 -25 -60.5 -38.5t-49 -20t-38 -7.5t-28.5 -1q-39 0 -64.5 12t-40.5 31.5t-21 42.5t-6 46q0 35 12.5 60.5t34.5 42t51.5 25t62.5 10.5l152 7v51q0 39 -5.5 67t-19 46t-37 26.5t-59.5 8.5q-37 0 -76.5 -9.5t-75.5 -23.5l-8 19q42 17 84.5 26t80.5 9
q70 0 105 -35.5t35 -119.5v-311h67l2 -16q-17 -7 -32.5 -9.5t-27.5 -2.5q-19 0 -27 7.5t-8 27.5v28zM198 242q-65 -3 -99.5 -33.5t-34.5 -79.5q0 -57 30.5 -85.5t87.5 -28.5q40 0 82 20t89 56v159zM197 564l100 143l26 -22l-111 -131z" />
    <glyph glyph-name="acircumflex" unicode="&#xe2;" horiz-adv-x="476" 
d="M348 61q-33 -25 -60.5 -38.5t-49 -20t-38 -7.5t-28.5 -1q-39 0 -64.5 12t-40.5 31.5t-21 42.5t-6 46q0 35 12.5 60.5t34.5 42t51.5 25t62.5 10.5l152 7v51q0 39 -5.5 67t-19 46t-37 26.5t-59.5 8.5q-37 0 -76.5 -9.5t-75.5 -23.5l-8 19q42 17 84.5 26t80.5 9
q70 0 105 -35.5t35 -119.5v-311h67l2 -16q-17 -7 -32.5 -9.5t-27.5 -2.5q-19 0 -27 7.5t-8 27.5v28zM198 242q-65 -3 -99.5 -33.5t-34.5 -79.5q0 -57 30.5 -85.5t87.5 -28.5q40 0 82 20t89 56v159zM242 653l-132 -103l-11 12l129 123h28l128 -122l-10 -12z" />
    <glyph glyph-name="atilde" unicode="&#xe3;" horiz-adv-x="476" 
d="M348 61q-33 -25 -60.5 -38.5t-49 -20t-38 -7.5t-28.5 -1q-39 0 -64.5 12t-40.5 31.5t-21 42.5t-6 46q0 35 12.5 60.5t34.5 42t51.5 25t62.5 10.5l152 7v51q0 39 -5.5 67t-19 46t-37 26.5t-59.5 8.5q-37 0 -76.5 -9.5t-75.5 -23.5l-8 19q42 17 84.5 26t80.5 9
q70 0 105 -35.5t35 -119.5v-311h67l2 -16q-17 -7 -32.5 -9.5t-27.5 -2.5q-19 0 -27 7.5t-8 27.5v28zM198 242q-65 -3 -99.5 -33.5t-34.5 -79.5q0 -57 30.5 -85.5t87.5 -28.5q40 0 82 20t89 56v159zM111 581l-13 7q8 26 26.5 41.5t40.5 15.5q16 0 35 -5.5t38.5 -12.5
t38.5 -12.5t34 -5.5l45 39l12 -7q-9 -22 -24 -39.5t-38 -17.5q-13 0 -32.5 6t-40.5 13t-40.5 13t-32.5 6z" />
    <glyph glyph-name="adieresis" unicode="&#xe4;" horiz-adv-x="476" 
d="M348 61q-33 -25 -60.5 -38.5t-49 -20t-38 -7.5t-28.5 -1q-39 0 -64.5 12t-40.5 31.5t-21 42.5t-6 46q0 35 12.5 60.5t34.5 42t51.5 25t62.5 10.5l152 7v51q0 39 -5.5 67t-19 46t-37 26.5t-59.5 8.5q-37 0 -76.5 -9.5t-75.5 -23.5l-8 19q42 17 84.5 26t80.5 9
q70 0 105 -35.5t35 -119.5v-311h67l2 -16q-17 -7 -32.5 -9.5t-27.5 -2.5q-19 0 -27 7.5t-8 27.5v28zM198 242q-65 -3 -99.5 -33.5t-34.5 -79.5q0 -57 30.5 -85.5t87.5 -28.5q40 0 82 20t89 56v159zM200 608q0 -11 -7 -18t-18 -7q-10 0 -17 7t-7 18t7 18t17 7q11 0 18 -7
t7 -18zM333 608q0 -11 -7 -18t-18 -7q-10 0 -17 7t-7 18t7 18t17 7q11 0 18 -7t7 -18z" />
    <glyph glyph-name="aring" unicode="&#xe5;" horiz-adv-x="476" 
d="M348 61q-33 -25 -60.5 -38.5t-49 -20t-38 -7.5t-28.5 -1q-39 0 -64.5 12t-40.5 31.5t-21 42.5t-6 46q0 35 12.5 60.5t34.5 42t51.5 25t62.5 10.5l152 7v51q0 39 -5.5 67t-19 46t-37 26.5t-59.5 8.5q-37 0 -76.5 -9.5t-75.5 -23.5l-8 19q42 17 84.5 26t80.5 9
q70 0 105 -35.5t35 -119.5v-311h67l2 -16q-17 -7 -32.5 -9.5t-27.5 -2.5q-19 0 -27 7.5t-8 27.5v28zM198 242q-65 -3 -99.5 -33.5t-34.5 -79.5q0 -57 30.5 -85.5t87.5 -28.5q40 0 82 20t89 56v159zM247 545q-41 0 -62.5 24t-21.5 57t23.5 57.5t60.5 24.5q38 0 60 -24t22 -58
t-22 -57.5t-60 -23.5zM247 685q-29 0 -44 -16t-15 -44q0 -29 15 -44.5t44 -15.5q27 0 42.5 15.5t15.5 44.5q0 27 -15.5 43.5t-42.5 16.5z" />
    <glyph glyph-name="ccedilla" unicode="&#xe7;" horiz-adv-x="431" 
d="M75 232q0 -43 7.5 -82.5t26 -69.5t50 -47.5t79.5 -17.5q42 0 76 9t75 26l7 -19q-26 -14 -61 -24.5t-75 -12.5l-54 -69h17q45 0 74.5 -16t29.5 -51q0 -19 -9.5 -36.5t-29.5 -31t-50.5 -21.5t-73.5 -8l-1 17q39 3 64.5 10.5t40.5 18t21 23t6 26.5q0 26 -25 38t-63 12
q-5 0 -10.5 -0.5t-11.5 -0.5l-9 14l60 74q-51 1 -86.5 19.5t-57.5 50t-32 75t-10 95.5q0 36 7.5 81t29 84.5t60.5 66.5t102 27q37 0 72 -6.5t61 -17.5l-9 -21q-38 14 -69 18.5t-53 4.5q-46 0 -79.5 -17t-55 -48.5t-31.5 -75.5t-10 -97z" />
    <glyph glyph-name="egrave" unicode="&#xe8;" horiz-adv-x="462" 
d="M242 491q46 0 76.5 -14.5t50 -37t29 -49.5t14 -53t4.5 -47.5v-31.5v-16h-341q0 -45 6.5 -86t25 -72t50 -49.5t81.5 -18.5q45 0 79 9t75 29l9 -20q-39 -21 -76 -31t-83 -10q-58 0 -95.5 19.5t-59 53t-29.5 78.5t-8 95q0 18 2 43.5t9 53.5t20 56t34.5 50t52.5 35.5t74 13.5
zM241 470q-44 0 -74 -17.5t-49 -46t-28.5 -66t-13.5 -76.5h315q0 45 -7.5 83t-25 65t-46 42.5t-71.5 15.5zM247 554l-111 131l26 22l100 -143z" />
    <glyph glyph-name="eacute" unicode="&#xe9;" horiz-adv-x="462" 
d="M242 491q46 0 76.5 -14.5t50 -37t29 -49.5t14 -53t4.5 -47.5v-31.5v-16h-341q0 -45 6.5 -86t25 -72t50 -49.5t81.5 -18.5q45 0 79 9t75 29l9 -20q-39 -21 -76 -31t-83 -10q-58 0 -95.5 19.5t-59 53t-29.5 78.5t-8 95q0 18 2 43.5t9 53.5t20 56t34.5 50t52.5 35.5t74 13.5
zM241 470q-44 0 -74 -17.5t-49 -46t-28.5 -66t-13.5 -76.5h315q0 45 -7.5 83t-25 65t-46 42.5t-71.5 15.5zM209 564l100 143l26 -22l-111 -131z" />
    <glyph glyph-name="ecircumflex" unicode="&#xea;" horiz-adv-x="462" 
d="M242 491q46 0 76.5 -14.5t50 -37t29 -49.5t14 -53t4.5 -47.5v-31.5v-16h-341q0 -45 6.5 -86t25 -72t50 -49.5t81.5 -18.5q45 0 79 9t75 29l9 -20q-39 -21 -76 -31t-83 -10q-58 0 -95.5 19.5t-59 53t-29.5 78.5t-8 95q0 18 2 43.5t9 53.5t20 56t34.5 50t52.5 35.5t74 13.5
zM241 470q-44 0 -74 -17.5t-49 -46t-28.5 -66t-13.5 -76.5h315q0 45 -7.5 83t-25 65t-46 42.5t-71.5 15.5zM247 635l-132 -103l-11 12l129 123h28l128 -122l-10 -12z" />
    <glyph glyph-name="edieresis" unicode="&#xeb;" horiz-adv-x="462" 
d="M242 491q46 0 76.5 -14.5t50 -37t29 -49.5t14 -53t4.5 -47.5v-31.5v-16h-341q0 -45 6.5 -86t25 -72t50 -49.5t81.5 -18.5q45 0 79 9t75 29l9 -20q-39 -21 -76 -31t-83 -10q-58 0 -95.5 19.5t-59 53t-29.5 78.5t-8 95q0 18 2 43.5t9 53.5t20 56t34.5 50t52.5 35.5t74 13.5
zM241 470q-44 0 -74 -17.5t-49 -46t-28.5 -66t-13.5 -76.5h315q0 45 -7.5 83t-25 65t-46 42.5t-71.5 15.5zM207 608q0 -11 -7 -18t-18 -7q-10 0 -17 7t-7 18t7 18t17 7q11 0 18 -7t7 -18zM340 608q0 -11 -7 -18t-18 -7q-10 0 -17 7t-7 18t7 18t17 7q11 0 18 -7t7 -18z" />
    <glyph glyph-name="igrave" unicode="&#xec;" horiz-adv-x="188" 
d="M83 0v486h23v-486h-23zM97 554l-111 131l26 22l100 -143z" />
    <glyph glyph-name="iacute" unicode="&#xed;" horiz-adv-x="188" 
d="M83 0v486h23v-486h-23zM74 564l100 143l26 -22l-111 -131z" />
    <glyph glyph-name="icircumflex" unicode="&#xee;" horiz-adv-x="188" 
d="M83 0v486h23v-486h-23zM95 651l-132 -103l-11 12l129 123h28l128 -122l-10 -12z" />
    <glyph glyph-name="idieresis" unicode="&#xef;" horiz-adv-x="188" 
d="M83 0v486h23v-486h-23zM52 608q0 -11 -7 -18t-18 -7q-10 0 -17 7t-7 18t7 18t17 7q11 0 18 -7t7 -18zM185 608q0 -11 -7 -18t-18 -7q-10 0 -17 7t-7 18t7 18t17 7q11 0 18 -7t7 -18z" />
    <glyph glyph-name="eth" unicode="&#xf0;" horiz-adv-x="454" 
d="M372 640l12 -18l-72 -49q52 -60 79.5 -136.5t27.5 -171.5q0 -19 -2 -46.5t-8.5 -58t-19.5 -60t-34.5 -53.5t-53 -39t-76.5 -15q-54 0 -89.5 21.5t-56.5 54.5t-30 71.5t-9 73.5q0 34 9 75t31 76.5t59.5 59.5t93.5 24q52 0 90 -19t58 -42q-12 51 -34.5 93.5t-54.5 78.5
l-91 -62l-12 17l89 61q-30 32 -66 57.5t-78 47.5l10 18q45 -23 83.5 -50t69.5 -60zM233 428q-49 0 -81 -21t-51.5 -52.5t-27.5 -69t-8 -70.5q0 -34 7.5 -69.5t26.5 -64.5t51 -47.5t82 -18.5q37 0 64 13.5t45 35.5t28.5 50t16.5 57t7.5 56t1.5 47q0 39 -6 75q-26 37 -68 58
t-88 21z" />
    <glyph glyph-name="ntilde" unicode="&#xf1;" horiz-adv-x="460" 
d="M87 436q50 27 100.5 41.5t85.5 14.5q45 0 70 -12t38 -31t16 -41.5t3 -44.5v-363h-24v334q0 30 -2 55t-12 42.5t-31 27.5t-59 10q-22 0 -46.5 -5.5t-49.5 -14t-49 -19.5t-43 -21v-409h-23v486h24q0 -12 -0.5 -24t-0.5 -24zM95 594l-13 7q8 26 26.5 41.5t40.5 15.5
q16 0 35 -5.5t38.5 -12.5t38.5 -12.5t34 -5.5l45 39l12 -7q-9 -22 -24 -39.5t-38 -17.5q-13 0 -32.5 6t-40.5 13t-40.5 13t-32.5 6z" />
    <glyph glyph-name="ograve" unicode="&#xf2;" horiz-adv-x="477" 
d="M243 491q56 0 92 -22.5t56.5 -58.5t28 -81t7.5 -90q0 -44 -8 -87.5t-28.5 -79t-57 -57.5t-93.5 -22t-93.5 20.5t-58 54.5t-30 77.5t-8.5 90.5q0 46 10 92t32.5 82t59.5 58.5t91 22.5zM403 236q0 37 -6 78.5t-23 76t-48.5 57t-82.5 22.5q-50 0 -82.5 -21t-51.5 -55
t-26.5 -75.5t-7.5 -83.5t6 -81.5t24 -70t51 -49t87 -18.5q50 0 81 20.5t48.5 52t24 70.5t6.5 77zM249 554l-111 131l26 22l100 -143z" />
    <glyph glyph-name="oacute" unicode="&#xf3;" horiz-adv-x="477" 
d="M243 491q56 0 92 -22.5t56.5 -58.5t28 -81t7.5 -90q0 -44 -8 -87.5t-28.5 -79t-57 -57.5t-93.5 -22t-93.5 20.5t-58 54.5t-30 77.5t-8.5 90.5q0 46 10 92t32.5 82t59.5 58.5t91 22.5zM403 236q0 37 -6 78.5t-23 76t-48.5 57t-82.5 22.5q-50 0 -82.5 -21t-51.5 -55
t-26.5 -75.5t-7.5 -83.5t6 -81.5t24 -70t51 -49t87 -18.5q50 0 81 20.5t48.5 52t24 70.5t6.5 77zM211 564l100 143l26 -22l-111 -131z" />
    <glyph glyph-name="ocircumflex" unicode="&#xf4;" horiz-adv-x="477" 
d="M243 491q56 0 92 -22.5t56.5 -58.5t28 -81t7.5 -90q0 -44 -8 -87.5t-28.5 -79t-57 -57.5t-93.5 -22t-93.5 20.5t-58 54.5t-30 77.5t-8.5 90.5q0 46 10 92t32.5 82t59.5 58.5t91 22.5zM403 236q0 37 -6 78.5t-23 76t-48.5 57t-82.5 22.5q-50 0 -82.5 -21t-51.5 -55
t-26.5 -75.5t-7.5 -83.5t6 -81.5t24 -70t51 -49t87 -18.5q50 0 81 20.5t48.5 52t24 70.5t6.5 77zM247 653l-132 -103l-11 12l129 123h28l128 -122l-10 -12z" />
    <glyph glyph-name="otilde" unicode="&#xf5;" horiz-adv-x="477" 
d="M243 491q56 0 92 -22.5t56.5 -58.5t28 -81t7.5 -90q0 -44 -8 -87.5t-28.5 -79t-57 -57.5t-93.5 -22t-93.5 20.5t-58 54.5t-30 77.5t-8.5 90.5q0 46 10 92t32.5 82t59.5 58.5t91 22.5zM403 236q0 37 -6 78.5t-23 76t-48.5 57t-82.5 22.5q-50 0 -82.5 -21t-51.5 -55
t-26.5 -75.5t-7.5 -83.5t6 -81.5t24 -70t51 -49t87 -18.5q50 0 81 20.5t48.5 52t24 70.5t6.5 77zM125 581l-13 7q8 26 26.5 41.5t40.5 15.5q16 0 35 -5.5t38.5 -12.5t38.5 -12.5t34 -5.5l45 39l12 -7q-9 -22 -24 -39.5t-38 -17.5q-13 0 -32.5 6t-40.5 13t-40.5 13t-32.5 6z
" />
    <glyph glyph-name="odieresis" unicode="&#xf6;" horiz-adv-x="477" 
d="M243 491q56 0 92 -22.5t56.5 -58.5t28 -81t7.5 -90q0 -44 -8 -87.5t-28.5 -79t-57 -57.5t-93.5 -22t-93.5 20.5t-58 54.5t-30 77.5t-8.5 90.5q0 46 10 92t32.5 82t59.5 58.5t91 22.5zM403 236q0 37 -6 78.5t-23 76t-48.5 57t-82.5 22.5q-50 0 -82.5 -21t-51.5 -55
t-26.5 -75.5t-7.5 -83.5t6 -81.5t24 -70t51 -49t87 -18.5q50 0 81 20.5t48.5 52t24 70.5t6.5 77zM206 608q0 -11 -7 -18t-18 -7q-10 0 -17 7t-7 18t7 18t17 7q11 0 18 -7t7 -18zM339 608q0 -11 -7 -18t-18 -7q-10 0 -17 7t-7 18t7 18t17 7q11 0 18 -7t7 -18z" />
    <glyph glyph-name="oslash" unicode="&#xf8;" horiz-adv-x="457" 
d="M233 491q44 0 74.5 -14t51.5 -37l37 51h24l-48 -67q26 -37 35.5 -86t9.5 -99q0 -44 -8 -87.5t-28.5 -79t-57 -57.5t-93.5 -22q-46 0 -78 13t-54 36l-34 -47h-22l44 62q-26 35 -36 81.5t-10 97.5q0 46 10 92t32.5 82t59.5 58.5t91 22.5zM65 235q0 -45 7 -86t28 -73
l245 344q-18 23 -45.5 36.5t-66.5 13.5q-50 0 -82.5 -21t-51.5 -55t-26.5 -75.5t-7.5 -83.5zM393 236q0 41 -7.5 86t-28.5 81l-246 -342q20 -21 49 -33t73 -12q50 0 81 20.5t48.5 52t24 70.5t6.5 77z" />
    <glyph glyph-name="ugrave" unicode="&#xf9;" horiz-adv-x="452" 
d="M366 65q-31 -26 -58.5 -40.5t-50.5 -22.5t-40.5 -10t-27.5 -2q-50 0 -76 14.5t-37.5 36t-13 46.5t-1.5 47v352h23v-340q0 -31 3 -56t13.5 -42.5t31 -27t56.5 -9.5q18 0 40 5t46 15t48.5 25t46.5 35l-1 395h24v-486h-23v64zM238 554l-111 131l26 22l100 -143z" />
    <glyph glyph-name="uacute" unicode="&#xfa;" horiz-adv-x="452" 
d="M366 65q-31 -26 -58.5 -40.5t-50.5 -22.5t-40.5 -10t-27.5 -2q-50 0 -76 14.5t-37.5 36t-13 46.5t-1.5 47v352h23v-340q0 -31 3 -56t13.5 -42.5t31 -27t56.5 -9.5q18 0 40 5t46 15t48.5 25t46.5 35l-1 395h24v-486h-23v64zM195 564l100 143l26 -22l-111 -131z" />
    <glyph glyph-name="ucircumflex" unicode="&#xfb;" horiz-adv-x="452" 
d="M366 65q-31 -26 -58.5 -40.5t-50.5 -22.5t-40.5 -10t-27.5 -2q-50 0 -76 14.5t-37.5 36t-13 46.5t-1.5 47v352h23v-340q0 -31 3 -56t13.5 -42.5t31 -27t56.5 -9.5q18 0 40 5t46 15t48.5 25t46.5 35l-1 395h24v-486h-23v64zM224 653l-132 -103l-11 12l129 123h28l128 -122
l-10 -12z" />
    <glyph glyph-name="udieresis" unicode="&#xfc;" horiz-adv-x="452" 
d="M366 65q-31 -26 -58.5 -40.5t-50.5 -22.5t-40.5 -10t-27.5 -2q-50 0 -76 14.5t-37.5 36t-13 46.5t-1.5 47v352h23v-340q0 -31 3 -56t13.5 -42.5t31 -27t56.5 -9.5q18 0 40 5t46 15t48.5 25t46.5 35l-1 395h24v-486h-23v64zM180 608q0 -11 -7 -18t-18 -7q-10 0 -17 7
t-7 18t7 18t17 7q11 0 18 -7t7 -18zM313 608q0 -11 -7 -18t-18 -7q-10 0 -17 7t-7 18t7 18t17 7q11 0 18 -7t7 -18z" />
    <glyph glyph-name="yacute" unicode="&#xfd;" horiz-adv-x="401" 
d="M182 -119q-15 -46 -36 -73t-66 -27q-17 0 -41 2.5t-55 10.5l5 22q32 -6 48.5 -8.5t33.5 -2.5q13 0 24 0.5t21.5 7.5t20.5 23t20 46l38 118h-14l-167 486h24l100 -291l60 -177h4l56 178l92 290h25zM165 564l100 143l26 -22l-111 -131z" />
    <glyph glyph-name="thorn" unicode="&#xfe;" horiz-adv-x="466" 
d="M82 64q29 -18 68.5 -32t82.5 -14q33 0 62 12.5t50 40.5t33.5 73.5t12.5 111.5q0 60 -10.5 101t-30.5 66t-48 36t-62 11q-19 0 -40.5 -5.5t-42.5 -15t-40.5 -22t-34.5 -27.5v-336zM82 428q36 29 78.5 46.5t85.5 17.5q48 0 80.5 -18t52.5 -50t28.5 -75.5t8.5 -94.5
q0 -55 -10 -102.5t-32 -82t-57 -54.5t-85 -20q-30 0 -67.5 8.5t-82.5 33.5v-250h-22v921h22v-280z" />
    <glyph glyph-name="ydieresis" unicode="&#xff;" horiz-adv-x="401" 
d="M182 -119q-15 -46 -36 -73t-66 -27q-17 0 -41 2.5t-55 10.5l5 22q32 -6 48.5 -8.5t33.5 -2.5q13 0 24 0.5t21.5 7.5t20.5 23t20 46l38 118h-14l-167 486h24l100 -291l60 -177h4l56 178l92 290h25zM293 608q0 -11 -7 -18t-18 -7q-10 0 -17 7t-7 18t7 18t17 7q11 0 18 -7
t7 -18zM160 608q0 -11 -7 -18t-18 -7q-10 0 -17 7t-7 18t7 18t17 7q11 0 18 -7t7 -18z" />
    <glyph glyph-name="Amacron" unicode="&#x100;" horiz-adv-x="514" 
d="M404 197h-295l-62 -197h-27l219 682h36l219 -682h-26zM210 511l-93 -290h279l-93 290l-45 143h-3zM400 774v-26h-286v26h286z" />
    <glyph glyph-name="amacron" unicode="&#x101;" horiz-adv-x="476" 
d="M348 61q-33 -25 -60.5 -38.5t-49 -20t-38 -7.5t-28.5 -1q-39 0 -64.5 12t-40.5 31.5t-21 42.5t-6 46q0 35 12.5 60.5t34.5 42t51.5 25t62.5 10.5l152 7v51q0 39 -5.5 67t-19 46t-37 26.5t-59.5 8.5q-37 0 -76.5 -9.5t-75.5 -23.5l-8 19q42 17 84.5 26t80.5 9
q70 0 105 -35.5t35 -119.5v-311h67l2 -16q-17 -7 -32.5 -9.5t-27.5 -2.5q-19 0 -27 7.5t-8 27.5v28zM198 242q-65 -3 -99.5 -33.5t-34.5 -79.5q0 -57 30.5 -85.5t87.5 -28.5q40 0 82 20t89 56v159zM366 626v-26h-286v26h286z" />
    <glyph glyph-name="Abreve" unicode="&#x102;" horiz-adv-x="514" 
d="M404 197h-295l-62 -197h-27l219 682h36l219 -682h-26zM210 511l-93 -290h279l-93 290l-45 143h-3zM251 718q-45 0 -80.5 27t-57.5 63l24 14q23 -35 53 -56.5t63 -21.5q27 0 59.5 16.5t73.5 57.5l13 -9q-39 -52 -76.5 -71.5t-71.5 -19.5z" />
    <glyph glyph-name="abreve" unicode="&#x103;" horiz-adv-x="476" 
d="M348 61q-33 -25 -60.5 -38.5t-49 -20t-38 -7.5t-28.5 -1q-39 0 -64.5 12t-40.5 31.5t-21 42.5t-6 46q0 35 12.5 60.5t34.5 42t51.5 25t62.5 10.5l152 7v51q0 39 -5.5 67t-19 46t-37 26.5t-59.5 8.5q-37 0 -76.5 -9.5t-75.5 -23.5l-8 19q42 17 84.5 26t80.5 9
q70 0 105 -35.5t35 -119.5v-311h67l2 -16q-17 -7 -32.5 -9.5t-27.5 -2.5q-19 0 -27 7.5t-8 27.5v28zM198 242q-65 -3 -99.5 -33.5t-34.5 -79.5q0 -57 30.5 -85.5t87.5 -28.5q40 0 82 20t89 56v159zM232 566q-45 0 -80.5 27t-57.5 63l24 14q23 -35 53 -56.5t63 -21.5
q27 0 59.5 16.5t73.5 57.5l13 -9q-39 -52 -76.5 -71.5t-71.5 -19.5z" />
    <glyph glyph-name="Aogonek" unicode="&#x104;" horiz-adv-x="514" 
d="M468 0q-37 -35 -49 -66.5t-12 -50.5q0 -30 19 -40.5t45 -10.5q20 0 37.5 3t31.5 7l5 -14q-22 -11 -44.5 -16t-41.5 -5q-44 0 -63 19.5t-19 46.5t17 63t69 79l-59 182h-295l-62 -197h-27l219 682h36l219 -682h-26zM210 511l-93 -290h279l-93 290l-45 143h-3z" />
    <glyph glyph-name="aogonek" unicode="&#x105;" horiz-adv-x="476" 
d="M348 61q-33 -25 -60.5 -38.5t-49 -20t-38 -7.5t-28.5 -1q-39 0 -64.5 12t-40.5 31.5t-21 42.5t-6 46q0 35 12.5 60.5t34.5 42t51.5 25t62.5 10.5l152 7v51q0 39 -5.5 67t-19 46t-37 26.5t-59.5 8.5q-37 0 -76.5 -9.5t-75.5 -23.5l-8 19q42 17 84.5 26t80.5 9
q70 0 105 -35.5t35 -119.5v-311h67l2 -16q-17 -7 -32.5 -9.5t-27.5 -2.5q-20 0 -28 7q-38 -35 -50 -67t-12 -51q0 -30 19 -40.5t45 -10.5q20 0 37.5 3t31.5 7l5 -14q-22 -11 -44.5 -16t-41.5 -5q-44 0 -63 19.5t-19 46.5t17 63t69 79q-1 4 -1 14v28zM198 242
q-65 -3 -99.5 -33.5t-34.5 -79.5q0 -57 30.5 -85.5t87.5 -28.5q40 0 82 20t89 56v159z" />
    <glyph glyph-name="Cacute" unicode="&#x106;" horiz-adv-x="539" 
d="M504 19q-16 -6 -38.5 -10.5t-47 -8t-49 -5.5t-45.5 -2q-72 0 -122.5 24t-82 68t-45.5 107.5t-14 143.5q0 37 4.5 77.5t16 80t30.5 75.5t49 63.5t71 43.5t96 16q53 0 97 -7.5t70 -17.5l-8 -23q-38 11 -79.5 17.5t-77.5 6.5q-65 0 -110.5 -24t-75 -68t-43 -105.5
t-13.5 -136.5q0 -58 8 -115t33 -102t72.5 -72.5t126.5 -27.5q13 0 34 1.5t44.5 4t47.5 6.5t44 10zM294 723l100 143l26 -22l-111 -131z" />
    <glyph glyph-name="cacute" unicode="&#x107;" horiz-adv-x="431" 
d="M75 232q0 -43 7.5 -82.5t26 -69.5t50 -47.5t79.5 -17.5q42 0 76 9t75 26l7 -19q-29 -16 -69 -27t-85 -11q-53 0 -89.5 18t-59.5 49.5t-33 75.5t-10 97q0 36 7.5 81t29 84.5t60.5 66.5t102 27q37 0 72 -6.5t61 -17.5l-9 -21q-38 14 -69 18.5t-53 4.5q-46 0 -79.5 -17
t-55 -48.5t-31.5 -75.5t-10 -97zM190 564l100 143l26 -22l-111 -131z" />
    <glyph glyph-name="Ccircumflex" unicode="&#x108;" horiz-adv-x="539" 
d="M504 19q-16 -6 -38.5 -10.5t-47 -8t-49 -5.5t-45.5 -2q-72 0 -122.5 24t-82 68t-45.5 107.5t-14 143.5q0 37 4.5 77.5t16 80t30.5 75.5t49 63.5t71 43.5t96 16q53 0 97 -7.5t70 -17.5l-8 -23q-38 11 -79.5 17.5t-77.5 6.5q-65 0 -110.5 -24t-75 -68t-43 -105.5
t-13.5 -136.5q0 -58 8 -115t33 -102t72.5 -72.5t126.5 -27.5q13 0 34 1.5t44.5 4t47.5 6.5t44 10zM317 819l-132 -103l-11 12l129 123h28l128 -122l-10 -12z" />
    <glyph glyph-name="ccircumflex" unicode="&#x109;" horiz-adv-x="431" 
d="M75 232q0 -43 7.5 -82.5t26 -69.5t50 -47.5t79.5 -17.5q42 0 76 9t75 26l7 -19q-29 -16 -69 -27t-85 -11q-53 0 -89.5 18t-59.5 49.5t-33 75.5t-10 97q0 36 7.5 81t29 84.5t60.5 66.5t102 27q37 0 72 -6.5t61 -17.5l-9 -21q-38 14 -69 18.5t-53 4.5q-46 0 -79.5 -17
t-55 -48.5t-31.5 -75.5t-10 -97zM245 653l-132 -103l-11 12l129 123h28l128 -122l-10 -12z" />
    <glyph glyph-name="Cdotaccent" unicode="&#x10a;" horiz-adv-x="539" 
d="M504 19q-16 -6 -38.5 -10.5t-47 -8t-49 -5.5t-45.5 -2q-72 0 -122.5 24t-82 68t-45.5 107.5t-14 143.5q0 37 4.5 77.5t16 80t30.5 75.5t49 63.5t71 43.5t96 16q53 0 97 -7.5t70 -17.5l-8 -23q-38 11 -79.5 17.5t-77.5 6.5q-65 0 -110.5 -24t-75 -68t-43 -105.5
t-13.5 -136.5q0 -58 8 -115t33 -102t72.5 -72.5t126.5 -27.5q13 0 34 1.5t44.5 4t47.5 6.5t44 10zM342 790q0 -10 -7.5 -17.5t-17.5 -7.5t-17.5 7.5t-7.5 17.5q0 11 7.5 18.5t17.5 7.5t17.5 -7.5t7.5 -18.5z" />
    <glyph glyph-name="cdotaccent" unicode="&#x10b;" horiz-adv-x="431" 
d="M75 232q0 -43 7.5 -82.5t26 -69.5t50 -47.5t79.5 -17.5q42 0 76 9t75 26l7 -19q-29 -16 -69 -27t-85 -11q-53 0 -89.5 18t-59.5 49.5t-33 75.5t-10 97q0 36 7.5 81t29 84.5t60.5 66.5t102 27q37 0 72 -6.5t61 -17.5l-9 -21q-38 14 -69 18.5t-53 4.5q-46 0 -79.5 -17
t-55 -48.5t-31.5 -75.5t-10 -97zM263 596q0 -10 -7 -17t-15 -7q-9 0 -16 7t-7 17q0 11 7 18.5t16 7.5q8 0 15 -7.5t7 -18.5z" />
    <glyph glyph-name="Ccaron" unicode="&#x10c;" horiz-adv-x="539" 
d="M504 19q-16 -6 -38.5 -10.5t-47 -8t-49 -5.5t-45.5 -2q-72 0 -122.5 24t-82 68t-45.5 107.5t-14 143.5q0 37 4.5 77.5t16 80t30.5 75.5t49 63.5t71 43.5t96 16q53 0 97 -7.5t70 -17.5l-8 -23q-38 11 -79.5 17.5t-77.5 6.5q-65 0 -110.5 -24t-75 -68t-43 -105.5
t-13.5 -136.5q0 -58 8 -115t33 -102t72.5 -72.5t126.5 -27.5q13 0 34 1.5t44.5 4t47.5 6.5t44 10zM439 852l10 -12l-128 -122h-28l-129 123l11 12l132 -103z" />
    <glyph glyph-name="ccaron" unicode="&#x10d;" horiz-adv-x="431" 
d="M75 232q0 -43 7.5 -82.5t26 -69.5t50 -47.5t79.5 -17.5q42 0 76 9t75 26l7 -19q-29 -16 -69 -27t-85 -11q-53 0 -89.5 18t-59.5 49.5t-33 75.5t-10 97q0 36 7.5 81t29 84.5t60.5 66.5t102 27q37 0 72 -6.5t61 -17.5l-9 -21q-38 14 -69 18.5t-53 4.5q-46 0 -79.5 -17
t-55 -48.5t-31.5 -75.5t-10 -97zM368 694l10 -12l-128 -122h-28l-129 123l11 12l132 -103z" />
    <glyph glyph-name="Dcaron" unicode="&#x10e;" horiz-adv-x="595" 
d="M535 343q0 -71 -12.5 -133.5t-43.5 -109t-83.5 -73.5t-132.5 -27h-183v682h194q78 0 128.5 -27.5t80 -74t41 -108t11.5 -129.5zM509 334q0 80 -13.5 135.5t-35 91.5t-48.5 55.5t-54 29t-51.5 11t-40.5 1.5h-160v-633h151q14 0 38.5 1t52.5 9.5t56.5 26.5t52 52.5t38 88
t14.5 131.5zM380 852l10 -12l-128 -122h-28l-129 123l11 12l132 -103z" />
    <glyph glyph-name="dcaron" unicode="&#x10f;" horiz-adv-x="530" 
d="M491 646q-11 0 -18.5 7t-7.5 18q0 12 7 20.5t19 8.5q14 0 22.5 -9t8.5 -28q0 -23 -10.5 -43.5t-33.5 -40.5l-8 8q14 17 17.5 29.5t3.5 29.5zM382 56q-36 -28 -78 -45t-84 -17q-48 0 -80.5 18t-52.5 50t-28.5 75.5t-8.5 94.5q0 55 10 102.5t32 82t57 54.5t85 20
q30 0 67.5 -8.5t82.5 -33.5l1 259h22v-708h-23v55zM384 422q-29 18 -68.5 32t-82.5 14q-33 0 -62 -12.5t-50 -40.5t-33.5 -73.5t-12.5 -111.5q0 -60 10.5 -101t30.5 -66t47.5 -36t62.5 -11q19 0 40.5 5.5t42.5 15t40.5 22t34.5 27.5v336z" />
    <glyph glyph-name="dcroat" unicode="&#x111;" horiz-adv-x="467" 
d="M384 58q-36 -29 -78.5 -46.5t-85.5 -17.5q-48 0 -80.5 18t-52.5 50t-28.5 75.5t-8.5 94.5q0 55 10 102.5t32 82t57 54.5t85 20q30 0 67.5 -8.5t82.5 -33.5v106h-165v23h165l1 130h22v-130h55v-23h-55v-555h-23v58zM384 422q-29 18 -68.5 32t-82.5 14q-33 0 -62 -12.5
t-50 -40.5t-33.5 -73.5t-12.5 -111.5q0 -60 10.5 -101t30.5 -66t47.5 -36t62.5 -11q19 0 40.5 5.5t42.5 15t40.5 22t34.5 27.5v336z" />
    <glyph glyph-name="Emacron" unicode="&#x112;" horiz-adv-x="490" 
d="M80 682h363v-24h-337v-284h295v-23l-295 -1v-326h354v-24h-380v682zM407 774v-26h-286v26h286z" />
    <glyph glyph-name="emacron" unicode="&#x113;" horiz-adv-x="462" 
d="M242 491q46 0 76.5 -14.5t50 -37t29 -49.5t14 -53t4.5 -47.5v-31.5v-16h-341q0 -45 6.5 -86t25 -72t50 -49.5t81.5 -18.5q45 0 79 9t75 29l9 -20q-39 -21 -76 -31t-83 -10q-58 0 -95.5 19.5t-59 53t-29.5 78.5t-8 95q0 18 2 43.5t9 53.5t20 56t34.5 50t52.5 35.5t74 13.5
zM241 470q-44 0 -74 -17.5t-49 -46t-28.5 -66t-13.5 -76.5h315q0 45 -7.5 83t-25 65t-46 42.5t-71.5 15.5zM390 626v-26h-286v26h286z" />
    <glyph glyph-name="Ebreve" unicode="&#x114;" horiz-adv-x="490" 
d="M80 682h363v-24h-337v-284h295v-23l-295 -1v-326h354v-24h-380v682zM263 718q-45 0 -80.5 27t-57.5 63l24 14q23 -35 53 -56.5t63 -21.5q27 0 59.5 16.5t73.5 57.5l13 -9q-39 -52 -76.5 -71.5t-71.5 -19.5z" />
    <glyph glyph-name="ebreve" unicode="&#x115;" horiz-adv-x="462" 
d="M242 491q46 0 76.5 -14.5t50 -37t29 -49.5t14 -53t4.5 -47.5v-31.5v-16h-341q0 -45 6.5 -86t25 -72t50 -49.5t81.5 -18.5q45 0 79 9t75 29l9 -20q-39 -21 -76 -31t-83 -10q-58 0 -95.5 19.5t-59 53t-29.5 78.5t-8 95q0 18 2 43.5t9 53.5t20 56t34.5 50t52.5 35.5t74 13.5
zM241 470q-44 0 -74 -17.5t-49 -46t-28.5 -66t-13.5 -76.5h315q0 45 -7.5 83t-25 65t-46 42.5t-71.5 15.5zM232 566q-45 0 -80.5 27t-57.5 63l24 14q23 -35 53 -56.5t63 -21.5q27 0 59.5 16.5t73.5 57.5l13 -9q-39 -52 -76.5 -71.5t-71.5 -19.5z" />
    <glyph glyph-name="Edotaccent" unicode="&#x116;" horiz-adv-x="490" 
d="M80 682h363v-24h-337v-284h295v-23l-295 -1v-326h354v-24h-380v682zM290 782q0 -10 -7.5 -17.5t-17.5 -7.5t-17.5 7.5t-7.5 17.5q0 11 7.5 18.5t17.5 7.5t17.5 -7.5t7.5 -18.5z" />
    <glyph glyph-name="edotaccent" unicode="&#x117;" horiz-adv-x="462" 
d="M242 491q46 0 76.5 -14.5t50 -37t29 -49.5t14 -53t4.5 -47.5v-31.5v-16h-341q0 -45 6.5 -86t25 -72t50 -49.5t81.5 -18.5q45 0 79 9t75 29l9 -20q-39 -21 -76 -31t-83 -10q-58 0 -95.5 19.5t-59 53t-29.5 78.5t-8 95q0 18 2 43.5t9 53.5t20 56t34.5 50t52.5 35.5t74 13.5
zM241 470q-44 0 -74 -17.5t-49 -46t-28.5 -66t-13.5 -76.5h315q0 45 -7.5 83t-25 65t-46 42.5t-71.5 15.5zM268 588q0 -10 -7.5 -17.5t-17.5 -7.5t-17.5 7.5t-7.5 17.5q0 11 7.5 18.5t17.5 7.5t17.5 -7.5t7.5 -18.5z" />
    <glyph glyph-name="Eogonek" unicode="&#x118;" horiz-adv-x="490" 
d="M80 682h363v-24h-337v-284h295v-23l-295 -1v-326h354v-24h-22q-41 -38 -54 -70.5t-13 -52.5q0 -30 19 -40.5t45 -10.5q20 0 37.5 3t31.5 7l5 -14q-22 -11 -44.5 -16t-41.5 -5q-44 0 -63 19.5t-19 46.5q0 25 15 59t59 74h-335v682z" />
    <glyph glyph-name="eogonek" unicode="&#x119;" horiz-adv-x="462" 
d="M242 491q46 0 76.5 -14.5t50 -37t29 -49.5t14 -53t4.5 -47.5v-31.5v-16h-341q0 -45 6.5 -86t25 -72t50 -49.5t81.5 -18.5q45 0 79 9t75 29l9 -20q-11 -6 -21.5 -11t-21.5 -9q-39 -37 -51.5 -68.5t-12.5 -51.5q0 -30 19 -40.5t45 -10.5q20 0 37.5 3t31.5 7l5 -14
q-22 -11 -44.5 -16t-41.5 -5q-44 0 -63 19.5t-19 46.5q0 23 12 53t47 65q-38 -9 -81 -9q-58 0 -95.5 19.5t-59 53t-29.5 78.5t-8 95q0 18 2 43.5t9 53.5t20 56t34.5 50t52.5 35.5t74 13.5zM241 470q-44 0 -74 -17.5t-49 -46t-28.5 -66t-13.5 -76.5h315q0 45 -7.5 83t-25 65
t-46 42.5t-71.5 15.5z" />
    <glyph glyph-name="Ecaron" unicode="&#x11a;" horiz-adv-x="490" 
d="M80 682h363v-24h-337v-284h295v-23l-295 -1v-326h354v-24h-380v682zM393 852l10 -12l-128 -122h-28l-129 123l11 12l132 -103z" />
    <glyph glyph-name="ecaron" unicode="&#x11b;" horiz-adv-x="462" 
d="M242 491q46 0 76.5 -14.5t50 -37t29 -49.5t14 -53t4.5 -47.5v-31.5v-16h-341q0 -45 6.5 -86t25 -72t50 -49.5t81.5 -18.5q45 0 79 9t75 29l9 -20q-39 -21 -76 -31t-83 -10q-58 0 -95.5 19.5t-59 53t-29.5 78.5t-8 95q0 18 2 43.5t9 53.5t20 56t34.5 50t52.5 35.5t74 13.5
zM241 470q-44 0 -74 -17.5t-49 -46t-28.5 -66t-13.5 -76.5h315q0 45 -7.5 83t-25 65t-46 42.5t-71.5 15.5zM378 682l10 -12l-128 -122h-28l-129 123l11 12l132 -103z" />
    <glyph glyph-name="Gcircumflex" unicode="&#x11c;" horiz-adv-x="583" 
d="M340 692q53 0 99 -7.5t72 -17.5l-5 -22q-40 11 -84 17t-80 6q-65 0 -112.5 -24t-79.5 -68t-47.5 -105.5t-15.5 -136.5q0 -58 8.5 -114.5t34.5 -101.5t75 -72.5t130 -27.5q15 0 34.5 1.5t40.5 4t41 6.5t35 10v298h27v-319q-46 -14 -93 -20t-93 -6q-72 0 -123 24t-83 68
t-46.5 107.5t-14.5 143.5q0 55 13 117.5t44.5 115.5t85.5 88t137 35zM334 819l-132 -103l-11 12l129 123h28l128 -122l-10 -12z" />
    <glyph glyph-name="gcircumflex" unicode="&#x11d;" horiz-adv-x="488" 
d="M361 456q30 -20 43.5 -53.5t13.5 -71.5q0 -76 -51 -119.5t-135 -43.5h-63q-20 0 -38 -1.5t-31.5 -7t-21.5 -15t-8 -25.5q0 -45 70 -45h140q90 0 127.5 -37.5t37.5 -97.5q0 -38 -16.5 -67.5t-45 -49.5t-66.5 -30.5t-81 -10.5q-55 0 -92 11.5t-59 31t-31 45.5t-9 54
q0 44 19 79.5t45 52.5q-33 3 -47.5 19.5t-14.5 41.5q0 22 9 35.5t23 21.5t31 11.5t32 3.5l1 1q-32 15 -55.5 51t-23.5 88q0 45 15.5 76t40 50.5t54.5 28.5t60 9q20 0 41 -2t42 -9h141v-23h-96zM147 53q-39 -17 -58.5 -53.5t-19.5 -70.5q0 -24 7 -47t26 -40t52 -27.5
t85 -10.5q38 0 71.5 9t58 26t38.5 42t14 57q0 19 -5 39t-20 37t-43.5 28t-75.5 11h-130zM395 331q0 22 -7.5 46.5t-25.5 45t-48 34t-74 13.5q-73 0 -112.5 -38.5t-39.5 -103.5q0 -31 10.5 -56t29 -43t43.5 -28t55 -10q77 0 123 35t46 105zM239 653l-132 -103l-11 12l129 123
h28l128 -122l-10 -12z" />
    <glyph glyph-name="Gbreve" unicode="&#x11e;" horiz-adv-x="583" 
d="M340 692q53 0 99 -7.5t72 -17.5l-5 -22q-40 11 -84 17t-80 6q-65 0 -112.5 -24t-79.5 -68t-47.5 -105.5t-15.5 -136.5q0 -58 8.5 -114.5t34.5 -101.5t75 -72.5t130 -27.5q15 0 34.5 1.5t40.5 4t41 6.5t35 10v298h27v-319q-46 -14 -93 -20t-93 -6q-72 0 -123 24t-83 68
t-46.5 107.5t-14.5 143.5q0 55 13 117.5t44.5 115.5t85.5 88t137 35zM330 739q-45 0 -80.5 27t-57.5 63l24 14q23 -35 53 -56.5t63 -21.5q27 0 59.5 16.5t73.5 57.5l13 -9q-39 -52 -76.5 -71.5t-71.5 -19.5z" />
    <glyph glyph-name="gbreve" unicode="&#x11f;" horiz-adv-x="488" 
d="M361 456q30 -20 43.5 -53.5t13.5 -71.5q0 -76 -51 -119.5t-135 -43.5h-63q-20 0 -38 -1.5t-31.5 -7t-21.5 -15t-8 -25.5q0 -45 70 -45h140q90 0 127.5 -37.5t37.5 -97.5q0 -38 -16.5 -67.5t-45 -49.5t-66.5 -30.5t-81 -10.5q-55 0 -92 11.5t-59 31t-31 45.5t-9 54
q0 44 19 79.5t45 52.5q-33 3 -47.5 19.5t-14.5 41.5q0 22 9 35.5t23 21.5t31 11.5t32 3.5l1 1q-32 15 -55.5 51t-23.5 88q0 45 15.5 76t40 50.5t54.5 28.5t60 9q20 0 41 -2t42 -9h141v-23h-96zM147 53q-39 -17 -58.5 -53.5t-19.5 -70.5q0 -24 7 -47t26 -40t52 -27.5
t85 -10.5q38 0 71.5 9t58 26t38.5 42t14 57q0 19 -5 39t-20 37t-43.5 28t-75.5 11h-130zM395 331q0 22 -7.5 46.5t-25.5 45t-48 34t-74 13.5q-73 0 -112.5 -38.5t-39.5 -103.5q0 -31 10.5 -56t29 -43t43.5 -28t55 -10q77 0 123 35t46 105zM240 566q-45 0 -80.5 27t-57.5 63
l24 14q23 -35 53 -56.5t63 -21.5q27 0 59.5 16.5t73.5 57.5l13 -9q-39 -52 -76.5 -71.5t-71.5 -19.5z" />
    <glyph glyph-name="Gdotaccent" unicode="&#x120;" horiz-adv-x="583" 
d="M340 692q53 0 99 -7.5t72 -17.5l-5 -22q-40 11 -84 17t-80 6q-65 0 -112.5 -24t-79.5 -68t-47.5 -105.5t-15.5 -136.5q0 -58 8.5 -114.5t34.5 -101.5t75 -72.5t130 -27.5q15 0 34.5 1.5t40.5 4t41 6.5t35 10v298h27v-319q-46 -14 -93 -20t-93 -6q-72 0 -123 24t-83 68
t-46.5 107.5t-14.5 143.5q0 55 13 117.5t44.5 115.5t85.5 88t137 35zM362 785q0 -10 -7.5 -17.5t-17.5 -7.5t-17.5 7.5t-7.5 17.5q0 11 7.5 18.5t17.5 7.5t17.5 -7.5t7.5 -18.5z" />
    <glyph glyph-name="gdotaccent" unicode="&#x121;" horiz-adv-x="488" 
d="M361 456q30 -20 43.5 -53.5t13.5 -71.5q0 -76 -51 -119.5t-135 -43.5h-63q-20 0 -38 -1.5t-31.5 -7t-21.5 -15t-8 -25.5q0 -45 70 -45h140q90 0 127.5 -37.5t37.5 -97.5q0 -38 -16.5 -67.5t-45 -49.5t-66.5 -30.5t-81 -10.5q-55 0 -92 11.5t-59 31t-31 45.5t-9 54
q0 44 19 79.5t45 52.5q-33 3 -47.5 19.5t-14.5 41.5q0 22 9 35.5t23 21.5t31 11.5t32 3.5l1 1q-32 15 -55.5 51t-23.5 88q0 45 15.5 76t40 50.5t54.5 28.5t60 9q20 0 41 -2t42 -9h141v-23h-96zM147 53q-39 -17 -58.5 -53.5t-19.5 -70.5q0 -24 7 -47t26 -40t52 -27.5
t85 -10.5q38 0 71.5 9t58 26t38.5 42t14 57q0 19 -5 39t-20 37t-43.5 28t-75.5 11h-130zM395 331q0 22 -7.5 46.5t-25.5 45t-48 34t-74 13.5q-73 0 -112.5 -38.5t-39.5 -103.5q0 -31 10.5 -56t29 -43t43.5 -28t55 -10q77 0 123 35t46 105zM263 602q0 -10 -7.5 -17.5
t-17.5 -7.5t-17.5 7.5t-7.5 17.5q0 11 7.5 18.5t17.5 7.5t17.5 -7.5t7.5 -18.5z" />
    <glyph glyph-name="Gcommaaccent" unicode="&#x122;" horiz-adv-x="583" 
d="M340 692q53 0 99 -7.5t72 -17.5l-5 -22q-40 11 -84 17t-80 6q-65 0 -112.5 -24t-79.5 -68t-47.5 -105.5t-15.5 -136.5q0 -58 8.5 -114.5t34.5 -101.5t75 -72.5t130 -27.5q15 0 34.5 1.5t40.5 4t41 6.5t35 10v298h27v-319q-46 -14 -93 -20t-93 -6q-72 0 -123 24t-83 68
t-46.5 107.5t-14.5 143.5q0 55 13 117.5t44.5 115.5t85.5 88t137 35zM323 -134q-11 0 -18.5 7t-7.5 18q0 12 7 20.5t19 8.5q14 0 22.5 -9t8.5 -28q0 -23 -10.5 -43.5t-33.5 -40.5l-8 8q14 17 17.5 29.5t3.5 29.5z" />
    <glyph glyph-name="gcommaaccent" unicode="&#x123;" horiz-adv-x="488" 
d="M242 614q11 0 18.5 -7t7.5 -18q0 -12 -7 -20.5t-19 -8.5q-14 0 -22.5 9t-8.5 28q0 23 10.5 43.5t33.5 40.5l8 -8q-14 -17 -17.5 -29.5t-3.5 -29.5zM361 456q30 -20 43.5 -53.5t13.5 -71.5q0 -76 -51 -119.5t-135 -43.5h-63q-20 0 -38 -1.5t-31.5 -7t-21.5 -15t-8 -25.5
q0 -45 70 -45h140q90 0 127.5 -37.5t37.5 -97.5q0 -38 -16.5 -67.5t-45 -49.5t-66.5 -30.5t-81 -10.5q-55 0 -92 11.5t-59 31t-31 45.5t-9 54q0 44 19 79.5t45 52.5q-33 3 -47.5 19.5t-14.5 41.5q0 22 9 35.5t23 21.5t31 11.5t32 3.5l1 1q-32 15 -55.5 51t-23.5 88
q0 45 15.5 76t40 50.5t54.5 28.5t60 9q20 0 41 -2t42 -9h141v-23h-96zM147 53q-39 -17 -58.5 -53.5t-19.5 -70.5q0 -24 7 -47t26 -40t52 -27.5t85 -10.5q38 0 71.5 9t58 26t38.5 42t14 57q0 19 -5 39t-20 37t-43.5 28t-75.5 11h-130zM395 331q0 22 -7.5 46.5t-25.5 45
t-48 34t-74 13.5q-73 0 -112.5 -38.5t-39.5 -103.5q0 -31 10.5 -56t29 -43t43.5 -28t55 -10q77 0 123 35t46 105z" />
    <glyph glyph-name="Hcircumflex" unicode="&#x124;" horiz-adv-x="591" 
d="M485 0v349h-378v-349h-27v682h27v-309h378l-1 309h27v-682h-26zM295 819l-132 -103l-11 12l129 123h28l128 -122l-10 -12z" />
    <glyph glyph-name="hcircumflex" unicode="&#x125;" horiz-adv-x="460" 
d="M84 434q54 28 103.5 43t84.5 15q47 0 73 -14.5t38 -36t14.5 -46.5t2.5 -47v-348h-24v335q0 30 -3.5 54.5t-14.5 42.5t-32 27.5t-56 9.5q-22 0 -46.5 -5.5t-49 -14t-48 -19t-43.5 -21.5v-409h-23v708h23v-137v-67.5t-1 -67.5zM71 827l-132 -103l-11 12l129 123h28
l128 -122l-10 -12z" />
    <glyph glyph-name="Hbar" unicode="&#x126;" horiz-adv-x="591" 
d="M485 0v348h-378v-348h-27v521h-55v23h55v138h27v-138h377v138h27v-138h59v-23h-59v-521h-26zM484 521h-377v-148h378z" />
    <glyph glyph-name="hbar" unicode="&#x127;" horiz-adv-x="460" 
d="M376 0v335q0 30 -3.5 54.5t-14.5 42.5t-32 27.5t-56 9.5q-22 0 -46.5 -5.5t-49 -14t-48 -19t-43.5 -21.5v-409h-23v586h-62v22h62v100h23v-100h212v-22h-212v-153q55 29 104.5 44t84.5 15q47 0 73 -14.5t38 -36t14.5 -46.5t2.5 -47v-348h-24z" />
    <glyph glyph-name="Itilde" unicode="&#x128;" horiz-adv-x="206" 
d="M90 0v682h26v-682h-26zM-19 761l-13 7q8 26 26.5 41.5t40.5 15.5q16 0 35 -5.5t38.5 -12.5t38.5 -12.5t34 -5.5l45 39l12 -7q-9 -22 -24 -39.5t-38 -17.5q-13 0 -32.5 6t-40.5 13t-40.5 13t-32.5 6z" />
    <glyph glyph-name="itilde" unicode="&#x129;" horiz-adv-x="211" 
d="M93 0v486h23v-486h-23zM-17 583l-13 7q8 26 26.5 41.5t40.5 15.5q16 0 35 -5.5t38.5 -12.5t38.5 -12.5t34 -5.5l45 39l12 -7q-9 -22 -24 -39.5t-38 -17.5q-13 0 -32.5 6t-40.5 13t-40.5 13t-32.5 6z" />
    <glyph glyph-name="Imacron" unicode="&#x12a;" horiz-adv-x="206" 
d="M90 0v682h26v-682h-26zM246 774v-26h-286v26h286z" />
    <glyph glyph-name="imacron" unicode="&#x12b;" horiz-adv-x="232" 
d="M99 0v486h23v-486h-23zM255 626v-26h-286v26h286z" />
    <glyph glyph-name="Ibreve" unicode="&#x12c;" horiz-adv-x="246" 
d="M118 721q-45 0 -80.5 27t-57.5 63l24 14q23 -35 53 -56.5t63 -21.5q27 0 59.5 16.5t73.5 57.5l13 -9q-39 -52 -76.5 -71.5t-71.5 -19.5zM110 0v682h26v-682h-26z" />
    <glyph glyph-name="ibreve" unicode="&#x12d;" horiz-adv-x="246" 
d="M112 0v486h23v-486h-23zM118 566q-45 0 -80.5 27t-57.5 63l24 14q23 -35 53 -56.5t63 -21.5q27 0 59.5 16.5t73.5 57.5l13 -9q-39 -52 -76.5 -71.5t-71.5 -19.5z" />
    <glyph glyph-name="Iogonek" unicode="&#x12e;" horiz-adv-x="206" 
d="M96 0q-38 -36 -50.5 -67.5t-12.5 -51.5q0 -30 19 -40.5t45 -10.5q20 0 37.5 3t31.5 7l5 -14q-22 -11 -44.5 -16t-41.5 -5q-44 0 -63 19.5t-19 46.5q0 13 3.5 29t13.5 34t27 38t43 42v668h26v-682h-20z" />
    <glyph glyph-name="iogonek" unicode="&#x12f;" horiz-adv-x="188" 
d="M82 0q-36 -35 -48 -66t-12 -50q0 -30 19 -40.5t45 -10.5q20 0 37.5 3t31.5 7l5 -14q-22 -11 -44.5 -16t-41.5 -5q-44 0 -63 19.5t-19 46.5q0 14 4 30t14 34.5t27.5 39t44.5 42.5l1 466h23v-486h-24zM118 608q0 -10 -7 -17t-18 -7q-9 0 -16 7t-7 17q0 11 7 18t16 7
q11 0 18 -7t7 -18z" />
    <glyph glyph-name="Idotaccent" unicode="&#x130;" horiz-adv-x="206" 
d="M90 0v682h26v-682h-26zM128 799q0 -10 -7.5 -17.5t-17.5 -7.5t-17.5 7.5t-7.5 17.5q0 11 7.5 18.5t17.5 7.5t17.5 -7.5t7.5 -18.5z" />
    <glyph glyph-name="dotlessi" unicode="&#x131;" horiz-adv-x="188" 
d="M83 0v486h23v-486h-23z" />
    <glyph glyph-name="IJ" unicode="&#x132;" horiz-adv-x="467" 
d="M90 0v682h26v-682h-26zM341 682h25l1 -579q0 -57 -12 -100t-35 -75.5t-56 -58t-75 -48.5l-12 22q42 25 73 49.5t51.5 54t30 67t9.5 87.5v581z" />
    <glyph glyph-name="ij" unicode="&#x133;" horiz-adv-x="369" 
d="M82 0l1 486h23v-486h-24zM118 608q0 -10 -7 -17t-18 -7q-9 0 -16 7t-7 17q0 11 7 18t16 7q11 0 18 -7t7 -18zM262 486h24v-495q0 -39 -5.5 -69t-20 -54t-40 -44t-64.5 -38l-9 18q35 19 57.5 37t35.5 38.5t18 44t5 53.5zM298 608q0 -10 -7 -17t-18 -7q-9 0 -16 7t-7 17
q0 11 7 18t16 7q11 0 18 -7t7 -18z" />
    <glyph glyph-name="Jcircumflex" unicode="&#x134;" horiz-adv-x="251" 
d="M125 683h25l1 -579q0 -57 -12 -100t-35 -75.5t-56 -58t-75 -48.5l-12 22q42 25 73 49.5t51.5 54t30 67t9.5 87.5v581zM138 819l-132 -103l-11 12l129 123h28l128 -122l-10 -12z" />
    <glyph glyph-name="jcircumflex" unicode="&#x135;" horiz-adv-x="225" 
d="M100 486h24v-495q0 -39 -5.5 -69t-20 -54t-40 -44t-64.5 -38l-9 18q35 19 57.5 37t35.5 38.5t18 44t5 53.5zM113 653l-132 -103l-11 12l129 123h28l128 -122l-10 -12z" />
    <glyph glyph-name="Kcommaaccent" unicode="&#x136;" horiz-adv-x="513" 
d="M218 407l275 -407h-31l-262 387l-93 -93v-294h-27v682h27v-353l348 353h37zM268 -107q-11 0 -18.5 7t-7.5 18q0 12 7 20.5t19 8.5q14 0 22.5 -9t8.5 -28q0 -23 -10.5 -43.5t-33.5 -40.5l-8 8q14 17 17.5 29.5t3.5 29.5z" />
    <glyph glyph-name="kcommaaccent" unicode="&#x137;" horiz-adv-x="398" 
d="M85 236q21 20 42 42t44 43l171 165h31l-194 -188l29 -39l175 -259h-29l-192 283l-79 -77v-206h-23v708h23v-471zM211 -102q-11 0 -18.5 7t-7.5 18q0 12 7 20.5t19 8.5q14 0 22.5 -9t8.5 -28q0 -23 -10.5 -43.5t-33.5 -40.5l-8 8q14 17 17.5 29.5t3.5 29.5z" />
    <glyph glyph-name="kgreenlandic" unicode="&#x138;" horiz-adv-x="398" 
d="M85 236q21 20 42 42t44 43l171 165h31l-194 -188l29 -39l175 -259h-29l-192 283l-79 -77v-206h-23v486h23v-249z" />
    <glyph glyph-name="Lacute" unicode="&#x139;" horiz-adv-x="523" 
d="M133 24h370v-24h-397v682h26zM112 723l100 143l26 -22l-111 -131z" />
    <glyph glyph-name="lacute" unicode="&#x13a;" horiz-adv-x="175" 
d="M100 0h-25v708h25v-708zM69 733l100 143l26 -22l-111 -131z" />
    <glyph glyph-name="Lcommaaccent" unicode="&#x13b;" horiz-adv-x="523" 
d="M133 24h370v-24h-397v682h26zM292 -134q-11 0 -18.5 7t-7.5 18q0 12 7 20.5t19 8.5q14 0 22.5 -9t8.5 -28q0 -23 -10.5 -43.5t-33.5 -40.5l-8 8q14 17 17.5 29.5t3.5 29.5z" />
    <glyph glyph-name="lcommaaccent" unicode="&#x13c;" horiz-adv-x="175" 
d="M100 0h-25v708h25v-708zM84 -134q-11 0 -18.5 7t-7.5 18q0 12 7 20.5t19 8.5q14 0 22.5 -9t8.5 -28q0 -23 -10.5 -43.5t-33.5 -40.5l-8 8q14 17 17.5 29.5t3.5 29.5z" />
    <glyph glyph-name="Lcaron" unicode="&#x13d;" horiz-adv-x="523" 
d="M133 24h370v-24h-397v682h26zM374 625q-11 0 -18.5 7t-7.5 18q0 12 7 20.5t19 8.5q14 0 22.5 -9t8.5 -28q0 -23 -10.5 -43.5t-33.5 -40.5l-8 8q14 17 17.5 29.5t3.5 29.5z" />
    <glyph glyph-name="lcaron" unicode="&#x13e;" horiz-adv-x="221" 
d="M189 650q-11 0 -18.5 7t-7.5 18q0 12 7 20.5t19 8.5q14 0 22.5 -9t8.5 -28q0 -23 -10.5 -43.5t-33.5 -40.5l-8 8q14 17 17.5 29.5t3.5 29.5zM100 0h-25v708h25v-708z" />
    <glyph glyph-name="Ldot" unicode="&#x13f;" horiz-adv-x="523" 
d="M133 24h370v-24h-397v682h26zM375 392q0 -10 -7.5 -17.5t-17.5 -7.5t-17.5 7.5t-7.5 17.5q0 11 7.5 18.5t17.5 7.5t17.5 -7.5t7.5 -18.5z" />
    <glyph glyph-name="ldot" unicode="&#x140;" horiz-adv-x="221" 
d="M206 372q0 -10 -7.5 -17.5t-17.5 -7.5t-17.5 7.5t-7.5 17.5q0 11 7.5 18.5t17.5 7.5t17.5 -7.5t7.5 -18.5zM100 0h-25v708h25v-708z" />
    <glyph glyph-name="Lslash" unicode="&#x141;" horiz-adv-x="523" 
d="M132 328l142 82l11 -21l-153 -89l1 -276h370v-24h-397v284l-69 -40l-11 22l80 46v370h26v-354z" />
    <glyph glyph-name="lslash" unicode="&#x142;" horiz-adv-x="175" 
d="M99 353l111 64l11 -21l-122 -71v-325h-24v311l-99 -57l-11 22l110 63v369h25z" />
    <glyph glyph-name="Nacute" unicode="&#x143;" horiz-adv-x="627" 
d="M520 50v632h27l-1 -682h-26l-342 528l-68 107h-3v-635h-27v682h29l355 -549l52 -83h4zM296 723l100 143l26 -22l-111 -131z" />
    <glyph glyph-name="nacute" unicode="&#x144;" horiz-adv-x="460" 
d="M87 436q50 27 100.5 41.5t85.5 14.5q45 0 70 -12t38 -31t16 -41.5t3 -44.5v-363h-24v334q0 30 -2 55t-12 42.5t-31 27.5t-59 10q-22 0 -46.5 -5.5t-49.5 -14t-49 -19.5t-43 -21v-409h-23v486h24q0 -12 -0.5 -24t-0.5 -24zM182 564l100 143l26 -22l-111 -131z" />
    <glyph glyph-name="Ncommaaccent" unicode="&#x145;" horiz-adv-x="627" 
d="M520 50v632h27l-1 -682h-26l-342 528l-68 107h-3v-635h-27v682h29l355 -549l52 -83h4zM305 -122q-11 0 -18.5 7t-7.5 18q0 12 7 20.5t19 8.5q14 0 22.5 -9t8.5 -28q0 -23 -10.5 -43.5t-33.5 -40.5l-8 8q14 17 17.5 29.5t3.5 29.5z" />
    <glyph glyph-name="ncommaaccent" unicode="&#x146;" horiz-adv-x="460" 
d="M87 436q50 27 100.5 41.5t85.5 14.5q45 0 70 -12t38 -31t16 -41.5t3 -44.5v-363h-24v334q0 30 -2 55t-12 42.5t-31 27.5t-59 10q-22 0 -46.5 -5.5t-49.5 -14t-49 -19.5t-43 -21v-409h-23v486h24q0 -12 -0.5 -24t-0.5 -24zM232 -114q-11 0 -18.5 7t-7.5 18q0 12 7 20.5
t19 8.5q14 0 22.5 -9t8.5 -28q0 -23 -10.5 -43.5t-33.5 -40.5l-8 8q14 17 17.5 29.5t3.5 29.5z" />
    <glyph glyph-name="Ncaron" unicode="&#x147;" horiz-adv-x="627" 
d="M520 50v632h27l-1 -682h-26l-342 528l-68 107h-3v-635h-27v682h29l355 -549l52 -83h4zM461 852l10 -12l-128 -122h-28l-129 123l11 12l132 -103z" />
    <glyph glyph-name="ncaron" unicode="&#x148;" horiz-adv-x="460" 
d="M87 436q50 27 100.5 41.5t85.5 14.5q45 0 70 -12t38 -31t16 -41.5t3 -44.5v-363h-24v334q0 30 -2 55t-12 42.5t-31 27.5t-59 10q-22 0 -46.5 -5.5t-49.5 -14t-49 -19.5t-43 -21v-409h-23v486h24q0 -12 -0.5 -24t-0.5 -24zM350 694l10 -12l-128 -122h-28l-129 123l11 12
l132 -103z" />
    <glyph glyph-name="napostrophe" unicode="&#x149;" horiz-adv-x="514" 
d="M141 436q50 27 100.5 41.5t85.5 14.5q45 0 70 -12t38 -31t16 -41.5t3 -44.5v-363h-24v334q0 30 -2 55t-12 42.5t-31 27.5t-59 10q-22 0 -46.5 -5.5t-49.5 -14t-49 -19.5t-43 -21v-409h-23v486h24q0 -12 -0.5 -24t-0.5 -24zM43 566q-11 0 -18.5 7t-7.5 18q0 12 7 20.5
t19 8.5q14 0 22.5 -9t8.5 -28q0 -23 -10.5 -43.5t-33.5 -40.5l-8 8q14 17 17.5 29.5t3.5 29.5z" />
    <glyph glyph-name="Eng" unicode="&#x14a;" horiz-adv-x="627" 
d="M520 50v632h27l-1 -758q0 -45 -21 -67.5t-72 -22.5q-14 0 -29.5 1.5t-32.5 6.5l5 21q13 -4 28 -5.5t26 -1.5q38 0 54 15.5t16 46.5v82l-342 528l-68 107h-3v-635h-27v682h29l355 -549l52 -83h4z" />
    <glyph glyph-name="eng" unicode="&#x14b;" horiz-adv-x="460" 
d="M304 -124q38 0 55 15.5t17 46.5v396q0 30 -2 55t-12 42.5t-31 27.5t-59 10q-22 0 -46.5 -5.5t-49.5 -14t-49 -19.5t-43 -21v-409h-23l-1 486h25v-52q50 28 101.5 43t86.5 15q45 0 70 -12t38 -31t16 -41.5t3 -44.5v-419q0 -45 -21 -67.5t-72 -22.5q-14 0 -29.5 1.5
t-32.5 6.5l5 21q13 -4 28 -5.5t26 -1.5z" />
    <glyph glyph-name="Omacron" unicode="&#x14c;" horiz-adv-x="648" 
d="M588 337q0 -73 -16 -135.5t-48.5 -108.5t-80.5 -72.5t-112 -27.5q-75 0 -127 23.5t-84 67.5t-46 107t-14 143q0 69 13 134t44.5 114.5t83.5 79.5t130 30q79 0 129 -30t78.5 -80t39 -114t10.5 -131zM561 334q0 54 -8 113.5t-32.5 108.5t-70 81t-119.5 32t-121.5 -29
t-74.5 -76.5t-37.5 -108t-10.5 -123.5q0 -155 56 -235.5t181 -80.5q60 0 105 25t74 68.5t43.5 101t14.5 123.5zM469 774v-26h-286v26h286z" />
    <glyph glyph-name="omacron" unicode="&#x14d;" horiz-adv-x="477" 
d="M243 491q56 0 92 -22.5t56.5 -58.5t28 -81t7.5 -90q0 -44 -8 -87.5t-28.5 -79t-57 -57.5t-93.5 -22t-93.5 20.5t-58 54.5t-30 77.5t-8.5 90.5q0 46 10 92t32.5 82t59.5 58.5t91 22.5zM403 236q0 37 -6 78.5t-23 76t-48.5 57t-82.5 22.5q-50 0 -82.5 -21t-51.5 -55
t-26.5 -75.5t-7.5 -83.5t6 -81.5t24 -70t51 -49t87 -18.5q50 0 81 20.5t48.5 52t24 70.5t6.5 77zM384 626v-26h-286v26h286z" />
    <glyph glyph-name="Obreve" unicode="&#x14e;" horiz-adv-x="648" 
d="M588 337q0 -73 -16 -135.5t-48.5 -108.5t-80.5 -72.5t-112 -27.5q-75 0 -127 23.5t-84 67.5t-46 107t-14 143q0 69 13 134t44.5 114.5t83.5 79.5t130 30q79 0 129 -30t78.5 -80t39 -114t10.5 -131zM561 334q0 54 -8 113.5t-32.5 108.5t-70 81t-119.5 32t-121.5 -29
t-74.5 -76.5t-37.5 -108t-10.5 -123.5q0 -155 56 -235.5t181 -80.5q60 0 105 25t74 68.5t43.5 101t14.5 123.5zM326 735q-45 0 -80.5 27t-57.5 63l24 14q23 -35 53 -56.5t63 -21.5q27 0 59.5 16.5t73.5 57.5l13 -9q-39 -52 -76.5 -71.5t-71.5 -19.5z" />
    <glyph glyph-name="obreve" unicode="&#x14f;" horiz-adv-x="477" 
d="M243 491q56 0 92 -22.5t56.5 -58.5t28 -81t7.5 -90q0 -44 -8 -87.5t-28.5 -79t-57 -57.5t-93.5 -22t-93.5 20.5t-58 54.5t-30 77.5t-8.5 90.5q0 46 10 92t32.5 82t59.5 58.5t91 22.5zM403 236q0 37 -6 78.5t-23 76t-48.5 57t-82.5 22.5q-50 0 -82.5 -21t-51.5 -55
t-26.5 -75.5t-7.5 -83.5t6 -81.5t24 -70t51 -49t87 -18.5q50 0 81 20.5t48.5 52t24 70.5t6.5 77zM239 563q-43 0 -78 27.5t-56 64.5l23 15q22 -36 51.5 -58t61.5 -22q26 0 58 17t72 59l13 -10q-38 -53 -75 -73t-70 -20z" />
    <glyph glyph-name="Ohungarumlaut" unicode="&#x150;" horiz-adv-x="648" 
d="M588 337q0 -73 -16 -135.5t-48.5 -108.5t-80.5 -72.5t-112 -27.5q-75 0 -127 23.5t-84 67.5t-46 107t-14 143q0 69 13 134t44.5 114.5t83.5 79.5t130 30q79 0 129 -30t78.5 -80t39 -114t10.5 -131zM561 334q0 54 -8 113.5t-32.5 108.5t-70 81t-119.5 32t-121.5 -29
t-74.5 -76.5t-37.5 -108t-10.5 -123.5q0 -155 56 -235.5t181 -80.5q60 0 105 25t74 68.5t43.5 101t14.5 123.5zM252 724l100 143l26 -22l-111 -131zM343 724l100 143l26 -22l-111 -131z" />
    <glyph glyph-name="ohungarumlaut" unicode="&#x151;" horiz-adv-x="477" 
d="M243 491q56 0 92 -22.5t56.5 -58.5t28 -81t7.5 -90q0 -44 -8 -87.5t-28.5 -79t-57 -57.5t-93.5 -22t-93.5 20.5t-58 54.5t-30 77.5t-8.5 90.5q0 46 10 92t32.5 82t59.5 58.5t91 22.5zM403 236q0 37 -6 78.5t-23 76t-48.5 57t-82.5 22.5q-50 0 -82.5 -21t-51.5 -55
t-26.5 -75.5t-7.5 -83.5t6 -81.5t24 -70t51 -49t87 -18.5q50 0 81 20.5t48.5 52t24 70.5t6.5 77zM161 564l100 143l26 -22l-111 -131zM252 564l100 143l26 -22l-111 -131z" />
    <glyph glyph-name="Racute" unicode="&#x154;" horiz-adv-x="533" 
d="M107 0h-27v682h191q54 0 92 -14.5t61.5 -38.5t34 -56t10.5 -67q0 -27 -6.5 -56t-21 -54t-38.5 -44.5t-59 -26.5q42 -14 63.5 -42.5t34.5 -70.5l61 -212h-27l-60 205q-11 34 -26.5 56t-35.5 34.5t-42.5 17.5t-46.5 5h-158v-318zM107 658v-316h172q81 0 122 41.5t41 119.5
q0 77 -47 116t-119 39h-169zM229 723l100 143l26 -22l-111 -131z" />
    <glyph glyph-name="racute" unicode="&#x155;" horiz-adv-x="268" 
d="M98 423q12 11 32 23.5t41 23.5t41 18t33 7q4 0 7.5 -2t3.5 -10q0 -4 -1.5 -10.5t-5.5 -11.5l-153 -51v-410h-26v486h26q0 -16 -0.5 -31.5t-0.5 -31.5h3zM66 564l100 143l26 -22l-111 -131z" />
    <glyph glyph-name="Rcommaaccent" unicode="&#x156;" horiz-adv-x="533" 
d="M107 0h-27v682h191q54 0 92 -14.5t61.5 -38.5t34 -56t10.5 -67q0 -27 -6.5 -56t-21 -54t-38.5 -44.5t-59 -26.5q42 -14 63.5 -42.5t34.5 -70.5l61 -212h-27l-60 205q-11 34 -26.5 56t-35.5 34.5t-42.5 17.5t-46.5 5h-158v-318zM107 658v-316h172q81 0 122 41.5t41 119.5
q0 77 -47 116t-119 39h-169zM271 -115q-11 0 -18.5 7t-7.5 18q0 12 7 20.5t19 8.5q14 0 22.5 -9t8.5 -28q0 -23 -10.5 -43.5t-33.5 -40.5l-8 8q14 17 17.5 29.5t3.5 29.5z" />
    <glyph glyph-name="rcommaaccent" unicode="&#x157;" horiz-adv-x="268" 
d="M98 423q12 11 32 23.5t41 23.5t41 18t33 7q4 0 7.5 -2t3.5 -10q0 -4 -1.5 -10.5t-5.5 -11.5l-153 -51v-410h-26v486h26q0 -16 -0.5 -31.5t-0.5 -31.5h3zM82 -118q-11 0 -18.5 7t-7.5 18q0 12 7 20.5t19 8.5q14 0 22.5 -9t8.5 -28q0 -23 -10.5 -43.5t-33.5 -40.5l-8 8
q14 17 17.5 29.5t3.5 29.5z" />
    <glyph glyph-name="Rcaron" unicode="&#x158;" horiz-adv-x="533" 
d="M107 0h-27v682h191q54 0 92 -14.5t61.5 -38.5t34 -56t10.5 -67q0 -27 -6.5 -56t-21 -54t-38.5 -44.5t-59 -26.5q42 -14 63.5 -42.5t34.5 -70.5l61 -212h-27l-60 205q-11 34 -26.5 56t-35.5 34.5t-42.5 17.5t-46.5 5h-158v-318zM107 658v-316h172q81 0 122 41.5t41 119.5
q0 77 -47 116t-119 39h-169zM373 852l10 -12l-128 -122h-28l-129 123l11 12l132 -103z" />
    <glyph glyph-name="rcaron" unicode="&#x159;" horiz-adv-x="268" 
d="M98 423q12 11 32 23.5t41 23.5t41 18t33 7q4 0 7.5 -2t3.5 -10q0 -4 -1.5 -10.5t-5.5 -11.5l-153 -51v-410h-26v486h26q0 -16 -0.5 -31.5t-0.5 -31.5h3zM256 694l10 -12l-128 -122h-28l-129 123l11 12l132 -103z" />
    <glyph glyph-name="Sacute" unicode="&#x15a;" horiz-adv-x="514" 
d="M261 693q30 0 76 -5t91 -21l-8 -25q-53 15 -90.5 20.5t-73.5 5.5q-37 0 -68.5 -9.5t-55 -29t-36.5 -48.5t-13 -69q0 -35 15.5 -58.5t41 -39.5t58.5 -26.5t69 -20.5q37 -10 74 -22t66.5 -32.5t48 -52.5t18.5 -82t-18.5 -85.5t-49.5 -57.5t-73 -32t-88 -10
q-52 0 -107.5 11.5t-97.5 35.5l11 22q54 -26 100 -35.5t90 -9.5q97 0 151.5 38t54.5 124q0 38 -13.5 64t-37.5 44t-57 30t-72 23q-43 11 -81.5 24t-67.5 32t-46 47t-17 70q0 44 15 77.5t42 56.5t65 34.5t84 11.5zM207 721l100 143l26 -22l-111 -131z" />
    <glyph glyph-name="sacute" unicode="&#x15b;" horiz-adv-x="406" 
d="M205 491q20 0 56 -4.5t68 -19.5l-8 -21q-34 14 -64 19t-53 5q-54 0 -89.5 -24t-35.5 -78q0 -22 12 -39t30 -29.5t39.5 -21.5t40.5 -15q30 -10 58.5 -20.5t51 -26t36.5 -38t14 -55.5q0 -35 -14 -59.5t-37.5 -40t-53.5 -23t-62 -7.5q-42 0 -80.5 8t-68.5 26l10 20
q39 -21 73.5 -27t61.5 -6q31 0 58 6.5t47 20t31.5 33.5t11.5 48q0 24 -11 42t-29.5 31.5t-41.5 23t-47 17.5q-30 9 -57.5 20t-49 27t-34.5 36.5t-13 49.5q0 34 12.5 57t33 37.5t47.5 21t57 6.5zM158 564l100 143l26 -22l-111 -131z" />
    <glyph glyph-name="Scircumflex" unicode="&#x15c;" horiz-adv-x="514" 
d="M261 693q30 0 76 -5t91 -21l-8 -25q-53 15 -90.5 20.5t-73.5 5.5q-37 0 -68.5 -9.5t-55 -29t-36.5 -48.5t-13 -69q0 -35 15.5 -58.5t41 -39.5t58.5 -26.5t69 -20.5q37 -10 74 -22t66.5 -32.5t48 -52.5t18.5 -82t-18.5 -85.5t-49.5 -57.5t-73 -32t-88 -10
q-52 0 -107.5 11.5t-97.5 35.5l11 22q54 -26 100 -35.5t90 -9.5q97 0 151.5 38t54.5 124q0 38 -13.5 64t-37.5 44t-57 30t-72 23q-43 11 -81.5 24t-67.5 32t-46 47t-17 70q0 44 15 77.5t42 56.5t65 34.5t84 11.5zM271 819l-132 -103l-11 12l129 123h28l128 -122l-10 -12z
" />
    <glyph glyph-name="scircumflex" unicode="&#x15d;" horiz-adv-x="406" 
d="M205 491q20 0 56 -4.5t68 -19.5l-8 -21q-34 14 -64 19t-53 5q-54 0 -89.5 -24t-35.5 -78q0 -22 12 -39t30 -29.5t39.5 -21.5t40.5 -15q30 -10 58.5 -20.5t51 -26t36.5 -38t14 -55.5q0 -35 -14 -59.5t-37.5 -40t-53.5 -23t-62 -7.5q-42 0 -80.5 8t-68.5 26l10 20
q39 -21 73.5 -27t61.5 -6q31 0 58 6.5t47 20t31.5 33.5t11.5 48q0 24 -11 42t-29.5 31.5t-41.5 23t-47 17.5q-30 9 -57.5 20t-49 27t-34.5 36.5t-13 49.5q0 34 12.5 57t33 37.5t47.5 21t57 6.5zM209 653l-132 -103l-11 12l129 123h28l128 -122l-10 -12z" />
    <glyph glyph-name="Scedilla" unicode="&#x15e;" horiz-adv-x="514" 
d="M261 693q30 0 76 -5t91 -21l-8 -25q-53 15 -90.5 20.5t-73.5 5.5q-37 0 -68.5 -9.5t-55 -29t-36.5 -48.5t-13 -69q0 -35 15.5 -58.5t41 -39.5t58.5 -26.5t69 -20.5q37 -10 74 -22t66.5 -32.5t48 -52.5t18.5 -82q0 -48 -16.5 -82t-45 -56t-66.5 -33t-81 -13l-54 -69h17
q45 0 74.5 -16t29.5 -51q0 -19 -9.5 -36.5t-29.5 -31t-50.5 -21.5t-73.5 -8l-1 17q39 3 64.5 10.5t40.5 18t21 23t6 26.5q0 26 -25 38t-63 12q-5 0 -10.5 -0.5t-11.5 -0.5l-9 14l60 74q-51 1 -105 12t-96 35l11 22q54 -26 100 -35.5t90 -9.5q97 0 151.5 38t54.5 124
q0 38 -13.5 64t-37.5 44t-57 30t-72 23q-43 11 -81.5 24t-67.5 32t-46 47t-17 70q0 44 15 77.5t42 56.5t65 34.5t84 11.5z" />
    <glyph glyph-name="scedilla" unicode="&#x15f;" horiz-adv-x="406" 
d="M205 491q20 0 56 -4.5t68 -19.5l-8 -21q-34 14 -64 19t-53 5q-54 0 -89.5 -24t-35.5 -78q0 -22 12 -39t30 -29.5t39.5 -21.5t40.5 -15q30 -10 58.5 -20.5t51 -26t36.5 -38t14 -55.5q0 -32 -12 -55t-32 -39t-46.5 -24.5t-55.5 -10.5l-54 -69h17q45 0 74.5 -16t29.5 -51
q0 -19 -9.5 -36.5t-29.5 -31t-50.5 -21.5t-73.5 -8l-1 17q39 3 64.5 10.5t40.5 18t21 23t6 26.5q0 26 -25 38t-63 12q-5 0 -10.5 -0.5t-11.5 -0.5l-9 14l60 74q-41 1 -79 8.5t-67 25.5l10 20q39 -21 73.5 -27t61.5 -6q31 0 58 6.5t47 20t31.5 33.5t11.5 48q0 24 -11 42
t-29.5 31.5t-41.5 23t-47 17.5q-30 9 -57.5 20t-49 27t-34.5 36.5t-13 49.5q0 34 12.5 57t33 37.5t47.5 21t57 6.5z" />
    <glyph glyph-name="Tcommaaccent" unicode="&#x162;" horiz-adv-x="501" 
d="M482 658h-218l-1 -658h-25v658h-219v24h462zM247 -134q-11 0 -18.5 7t-7.5 18q0 12 7 20.5t19 8.5q14 0 22.5 -9t8.5 -28q0 -23 -10.5 -43.5t-33.5 -40.5l-8 8q14 17 17.5 29.5t3.5 29.5z" />
    <glyph glyph-name="tcommaaccent" unicode="&#x163;" horiz-adv-x="305" 
d="M126 101q0 -36 15 -59t63 -23q38 0 94 17l6 -17q-23 -10 -49.5 -16t-52.5 -6q-19 0 -37 4t-31.5 15t-22 29.5t-8.5 47.5v370h-69v15l68 11l8 85l16 2v-90h140v-23h-140v-362zM174 -134q-11 0 -18.5 7t-7.5 18q0 12 7 20.5t19 8.5q14 0 22.5 -9t8.5 -28q0 -23 -10.5 -43.5
t-33.5 -40.5l-8 8q14 17 17.5 29.5t3.5 29.5z" />
    <glyph glyph-name="Tcaron" unicode="&#x164;" horiz-adv-x="501" 
d="M482 658h-218l-1 -658h-25v658h-219v24h462zM385 852l10 -12l-128 -122h-28l-129 123l11 12l132 -103z" />
    <glyph glyph-name="tcaron" unicode="&#x165;" horiz-adv-x="349" 
d="M313 601q-11 0 -18.5 7t-7.5 18q0 12 7 20.5t19 8.5q14 0 22.5 -9t8.5 -28q0 -23 -10.5 -43.5t-33.5 -40.5l-8 8q14 17 17.5 29.5t3.5 29.5zM126 101q0 -36 15 -59t63 -23q38 0 94 17l6 -17q-23 -10 -49.5 -16t-52.5 -6q-19 0 -37 4t-31.5 15t-22 29.5t-8.5 47.5v370h-69
v15l68 11l8 85l16 2v-90h140v-23h-140v-362z" />
    <glyph glyph-name="Tbar" unicode="&#x166;" horiz-adv-x="501" 
d="M482 658h-218l-1 -282h201v-21h-201v-355h-25v355h-190v21h190v282h-219v24h462z" />
    <glyph glyph-name="tbar" unicode="&#x167;" horiz-adv-x="304" 
d="M121 360h128v-21h-128v-238q0 -36 15 -59t63 -23q38 0 94 17l6 -17q-23 -10 -49.5 -16t-52.5 -6q-19 0 -37 4t-31.5 15t-22 29.5t-8.5 47.5v246h-62v21h62v103h-69v15l68 11l8 85l16 2v-90h140v-23h-140v-103z" />
    <glyph glyph-name="Utilde" unicode="&#x168;" horiz-adv-x="639" 
d="M533 682h26v-443q0 -54 -15 -99.5t-45 -78t-75 -50.5t-106 -18q-62 0 -107 17t-74 48.5t-43 77.5t-14 103v443h25l1 -440q0 -112 53 -168.5t159 -56.5t160.5 57t54.5 168v440zM195 765l-13 7q8 26 26.5 41.5t40.5 15.5q16 0 35 -5.5t38.5 -12.5t38.5 -12.5t34 -5.5l45 39
l12 -7q-9 -22 -24 -39.5t-38 -17.5q-13 0 -32.5 6t-40.5 13t-40.5 13t-32.5 6z" />
    <glyph glyph-name="utilde" unicode="&#x169;" horiz-adv-x="452" 
d="M366 65q-31 -26 -58.5 -40.5t-50.5 -22.5t-40.5 -10t-27.5 -2q-50 0 -76 14.5t-37.5 36t-13 46.5t-1.5 47v352h23v-340q0 -31 3 -56t13.5 -42.5t31 -27t56.5 -9.5q18 0 40 5t46 15t48.5 25t46.5 35l-1 395h24v-486h-23v64zM101 581l-13 7q8 26 26.5 41.5t40.5 15.5
q16 0 35 -5.5t38.5 -12.5t38.5 -12.5t34 -5.5l45 39l12 -7q-9 -22 -24 -39.5t-38 -17.5q-13 0 -32.5 6t-40.5 13t-40.5 13t-32.5 6z" />
    <glyph glyph-name="Umacron" unicode="&#x16a;" horiz-adv-x="639" 
d="M533 682h26v-443q0 -54 -15 -99.5t-45 -78t-75 -50.5t-106 -18q-62 0 -107 17t-74 48.5t-43 77.5t-14 103v443h25l1 -440q0 -112 53 -168.5t159 -56.5t160.5 57t54.5 168v440zM456 774v-26h-286v26h286z" />
    <glyph glyph-name="umacron" unicode="&#x16b;" horiz-adv-x="452" 
d="M366 65q-31 -26 -58.5 -40.5t-50.5 -22.5t-40.5 -10t-27.5 -2q-50 0 -76 14.5t-37.5 36t-13 46.5t-1.5 47v352h23v-340q0 -31 3 -56t13.5 -42.5t31 -27t56.5 -9.5q18 0 40 5t46 15t48.5 25t46.5 35l-1 395h24v-486h-23v64zM364 626v-26h-286v26h286z" />
    <glyph glyph-name="Ubreve" unicode="&#x16c;" horiz-adv-x="639" 
d="M533 682h26v-443q0 -54 -15 -99.5t-45 -78t-75 -50.5t-106 -18q-62 0 -107 17t-74 48.5t-43 77.5t-14 103v443h25l1 -440q0 -112 53 -168.5t159 -56.5t160.5 57t54.5 168v440zM316 737q-45 0 -80.5 27t-57.5 63l24 14q23 -35 53 -56.5t63 -21.5q27 0 59.5 16.5t73.5 57.5
l13 -9q-39 -52 -76.5 -71.5t-71.5 -19.5z" />
    <glyph glyph-name="ubreve" unicode="&#x16d;" horiz-adv-x="452" 
d="M366 65q-31 -26 -58.5 -40.5t-50.5 -22.5t-40.5 -10t-27.5 -2q-50 0 -76 14.5t-37.5 36t-13 46.5t-1.5 47v352h23v-340q0 -31 3 -56t13.5 -42.5t31 -27t56.5 -9.5q18 0 40 5t46 15t48.5 25t46.5 35l-1 395h24v-486h-23v64zM221 566q-45 0 -80.5 27t-57.5 63l24 14
q23 -35 53 -56.5t63 -21.5q27 0 59.5 16.5t73.5 57.5l13 -9q-39 -52 -76.5 -71.5t-71.5 -19.5z" />
    <glyph glyph-name="Uring" unicode="&#x16e;" horiz-adv-x="639" 
d="M533 682h26v-443q0 -54 -15 -99.5t-45 -78t-75 -50.5t-106 -18q-62 0 -107 17t-74 48.5t-43 77.5t-14 103v443h25l1 -440q0 -112 53 -168.5t159 -56.5t160.5 57t54.5 168v440zM323 707q-41 0 -62.5 24t-21.5 57t23.5 57.5t60.5 24.5q38 0 60 -24t22 -58t-22 -57.5
t-60 -23.5zM323 847q-29 0 -44 -16t-15 -44q0 -29 15 -44.5t44 -15.5q27 0 42.5 15.5t15.5 44.5q0 27 -15.5 43.5t-42.5 16.5z" />
    <glyph glyph-name="uring" unicode="&#x16f;" horiz-adv-x="452" 
d="M366 65q-31 -26 -58.5 -40.5t-50.5 -22.5t-40.5 -10t-27.5 -2q-50 0 -76 14.5t-37.5 36t-13 46.5t-1.5 47v352h23v-340q0 -31 3 -56t13.5 -42.5t31 -27t56.5 -9.5q18 0 40 5t46 15t48.5 25t46.5 35l-1 395h24v-486h-23v64zM229 545q-41 0 -62.5 24t-21.5 57t23.5 57.5
t60.5 24.5q38 0 60 -24t22 -58t-22 -57.5t-60 -23.5zM229 685q-29 0 -44 -16t-15 -44q0 -29 15 -44.5t44 -15.5q27 0 42.5 15.5t15.5 44.5q0 27 -15.5 43.5t-42.5 16.5z" />
    <glyph glyph-name="Uhungarumlaut" unicode="&#x170;" horiz-adv-x="639" 
d="M533 682h26v-443q0 -54 -15 -99.5t-45 -78t-75 -50.5t-106 -18q-62 0 -107 17t-74 48.5t-43 77.5t-14 103v443h25l1 -440q0 -112 53 -168.5t159 -56.5t160.5 57t54.5 168v440zM257 724l100 143l26 -22l-111 -131zM348 724l100 143l26 -22l-111 -131z" />
    <glyph glyph-name="uhungarumlaut" unicode="&#x171;" horiz-adv-x="452" 
d="M366 65q-31 -26 -58.5 -40.5t-50.5 -22.5t-40.5 -10t-27.5 -2q-50 0 -76 14.5t-37.5 36t-13 46.5t-1.5 47v352h23v-340q0 -31 3 -56t13.5 -42.5t31 -27t56.5 -9.5q18 0 40 5t46 15t48.5 25t46.5 35l-1 395h24v-486h-23v64zM165 564l100 143l26 -22l-111 -131zM256 564
l100 143l26 -22l-111 -131z" />
    <glyph glyph-name="Uogonek" unicode="&#x172;" horiz-adv-x="639" 
d="M533 682h26v-443q0 -52 -13.5 -96t-41.5 -76t-69.5 -51t-96.5 -22q-42 -38 -55.5 -71.5t-13.5 -53.5q0 -30 19 -40.5t45 -10.5q20 0 37.5 3t31.5 7l5 -14q-22 -11 -44.5 -16t-41.5 -5q-44 0 -63 19.5t-19 46.5q0 26 15 59.5t61 74.5q-123 1 -179 66.5t-56 179.5v443h25
l1 -440q0 -112 53 -168.5t159 -56.5t160.5 57t54.5 168v440z" />
    <glyph glyph-name="uogonek" unicode="&#x173;" horiz-adv-x="452" 
d="M366 65q-31 -26 -58.5 -40.5t-50.5 -22.5t-40.5 -10t-27.5 -2q-50 0 -76 14.5t-37.5 36t-13 46.5t-1.5 47v352h23v-340q0 -31 3 -56t13.5 -42.5t31 -27t56.5 -9.5q18 0 40 5t46 15t48.5 25t46.5 35l-1 395h24v-486h-21q-36 -35 -47.5 -65.5t-11.5 -49.5q0 -30 19 -40.5
t45 -10.5q20 0 37.5 3t31.5 7l5 -14q-22 -11 -44.5 -16t-41.5 -5q-44 0 -63 19.5t-19 46.5q0 13 3.5 29t13.5 34t27 38t43 42v46z" />
    <glyph glyph-name="Wcircumflex" unicode="&#x174;" horiz-adv-x="769" 
d="M373 638l-152 -638h-36l-165 682h24l157 -654h3l158 654h26l178 -654h3l156 654h24l-164 -682h-36l-172 638h-4zM376 819l-132 -103l-11 12l129 123h28l128 -122l-10 -12z" />
    <glyph glyph-name="wcircumflex" unicode="&#x175;" horiz-adv-x="643" 
d="M315 452l-29 -100l-104 -352h-34l-133 486h24l86 -317l39 -146h3l45 156l90 307h26l110 -343l38 -120h3l34 127l91 336h24l-133 -486h-34l-107 336l-37 116h-2zM316 653l-132 -103l-11 12l129 123h28l128 -122l-10 -12z" />
    <glyph glyph-name="Ycircumflex" unicode="&#x176;" horiz-adv-x="454" 
d="M167 450l55 -107h3l52 97l132 242h30l-202 -365v-317h-26v314l-196 368h29zM223 819l-132 -103l-11 12l129 123h28l128 -122l-10 -12z" />
    <glyph glyph-name="ycircumflex" unicode="&#x177;" horiz-adv-x="401" 
d="M182 -119q-15 -46 -36 -73t-66 -27q-17 0 -41 2.5t-55 10.5l5 22q32 -6 48.5 -8.5t33.5 -2.5q13 0 24 0.5t21.5 7.5t20.5 23t20 46l38 118h-14l-167 486h24l100 -291l60 -177h4l56 178l92 290h25zM204 653l-132 -103l-11 12l129 123h28l128 -122l-10 -12z" />
    <glyph glyph-name="Zacute" unicode="&#x179;" horiz-adv-x="463" 
d="M15 0v27l389 631h-365v24h392v-27l-387 -630h404v-25h-433zM203 723l100 143l26 -22l-111 -131z" />
    <glyph glyph-name="zacute" unicode="&#x17a;" horiz-adv-x="389" 
d="M47 22l319 1v-23h-349v24l313 437l-2 2h-289v23h317v-28l-310 -434zM153 564l100 143l26 -22l-111 -131z" />
    <glyph glyph-name="Zdotaccent" unicode="&#x17b;" horiz-adv-x="463" 
d="M15 0v27l389 631h-365v24h392v-27l-387 -630h404v-25h-433zM265 778q0 -10 -7.5 -17.5t-17.5 -7.5t-17.5 7.5t-7.5 17.5q0 11 7.5 18.5t17.5 7.5t17.5 -7.5t7.5 -18.5z" />
    <glyph glyph-name="zdotaccent" unicode="&#x17c;" horiz-adv-x="389" 
d="M47 22l319 1v-23h-349v24l313 437l-2 2h-289v23h317v-28l-310 -434zM220 583q0 -10 -7.5 -17.5t-17.5 -7.5t-17.5 7.5t-7.5 17.5q0 11 7.5 18.5t17.5 7.5t17.5 -7.5t7.5 -18.5z" />
    <glyph glyph-name="Ohorn" unicode="&#x1a0;" horiz-adv-x="648" 
d="M588 337q0 -73 -16 -135.5t-48.5 -108.5t-80.5 -72.5t-112 -27.5q-75 0 -127 23.5t-84 67.5t-46 107t-14 143q0 69 13 134t44.5 114.5t83.5 79.5t130 30q73 0 121 -26t77 -70h20q31 0 49 15.5t18 60.5v71h23v-78q0 -17 -4 -33.5t-14.5 -29t-28 -20.5t-44.5 -8h-5
q26 -50 35.5 -111t9.5 -126zM561 334q0 54 -8 113.5t-32.5 108.5t-70 81t-119.5 32t-121.5 -29t-74.5 -76.5t-37.5 -108t-10.5 -123.5q0 -155 56 -235.5t181 -80.5q60 0 105 25t74 68.5t43.5 101t14.5 123.5z" />
    <glyph glyph-name="ohorn" unicode="&#x1a1;" horiz-adv-x="477" 
d="M243 491q60 0 96.5 -25t56.5 -64h2q31 0 49 15.5t18 60.5v64h23v-71q0 -16 -4 -31.5t-13.5 -28.5t-25.5 -21.5t-40 -9.5q13 -32 17.5 -68.5t4.5 -72.5q0 -44 -8 -87.5t-28.5 -79t-57 -57.5t-93.5 -22t-93.5 20.5t-58 54.5t-30 77.5t-8.5 90.5q0 46 10 92t32.5 82
t59.5 58.5t91 22.5zM403 236q0 37 -6 78.5t-23 76t-48.5 57t-82.5 22.5q-50 0 -82.5 -21t-51.5 -55t-26.5 -75.5t-7.5 -83.5t6 -81.5t24 -70t51 -49t87 -18.5q50 0 81 20.5t48.5 52t24 70.5t6.5 77z" />
    <glyph glyph-name="Uhorn" unicode="&#x1af;" horiz-adv-x="671" 
d="M533 682h26v-86h28q31 0 49 15.5t18 60.5v71h23v-78q0 -17 -4 -33.5t-14.5 -29t-28 -20.5t-44.5 -8h-27v-335q0 -54 -15 -99.5t-45 -78t-75 -50.5t-106 -18q-62 0 -107 17t-74 48.5t-43 77.5t-14 103v443h25l1 -440q0 -112 53 -168.5t159 -56.5t160.5 57t54.5 168v440z
" />
    <glyph glyph-name="uhorn" unicode="&#x1b0;" horiz-adv-x="486" 
d="M369 0v67q-31 -26 -59 -41.5t-51.5 -23.5t-41.5 -10t-28 -2q-50 0 -76 14.5t-37.5 36t-13 46.5t-1.5 47v352h23v-340q0 -31 3 -56t13.5 -42.5t31 -27t56.5 -9.5q18 0 40 5t46 15t48.5 25t46.5 35l-1 395h24v-84h8q31 0 49.5 16t18.5 60v64h22v-71q0 -17 -4 -33.5
t-14.5 -29t-28 -20.5t-44.5 -8h-7v-380h-23z" />
    <glyph glyph-name="AEacute" unicode="&#x1fc;" horiz-adv-x="854" 
d="M461 197h-294l-126 -197h-31l438 682h356v-24h-316l-1 -283h275v-25h-275v-326h334v-24h-361zM182 221h279v433h-3zM540 723l100 143l26 -22l-111 -131z" />
    <glyph glyph-name="aeacute" unicode="&#x1fd;" horiz-adv-x="758" 
d="M544 491q46 0 76.5 -14.5t50 -37t29 -49.5t14 -53t4.5 -47.5v-31.5v-16h-341q0 -45 6.5 -86t25 -72t50 -49.5t81.5 -18.5q45 0 79 9t75 29l9 -20q-39 -21 -76 -31t-83 -10q-60 0 -97.5 20.5t-59.5 55.5q-38 -29 -70.5 -44t-60 -22t-49 -8t-36.5 -1q-39 0 -64.5 12
t-40.5 31.5t-21 42.5t-6 46q0 35 12 61t33 43t49.5 25.5t60.5 8.5h158v58q0 39 -5.5 67t-19 46t-37 26.5t-59.5 8.5q-37 0 -76.5 -9.5t-75.5 -23.5l-8 19q42 17 84.5 26t80.5 9q62 0 96 -27.5t42 -92.5q9 24 23 45.5t34.5 38t48 26.5t64.5 10zM197 242q-65 0 -99.5 -32
t-34.5 -81q0 -57 30.5 -85.5t87.5 -28.5q19 0 43.5 3.5t50.5 12t52.5 22.5t50.5 34q-15 32 -20.5 71t-5.5 84h-155zM543 470q-44 0 -74 -17.5t-49 -46t-28.5 -66t-13.5 -76.5h315q0 45 -7.5 83t-25 65t-46 42.5t-71.5 15.5zM375 564l100 143l26 -22l-111 -131z" />
    <glyph glyph-name="Oslashacute" unicode="&#x1fe;" horiz-adv-x="628" 
d="M578 337q0 -73 -16 -135.5t-48.5 -108.5t-80.5 -72.5t-112 -27.5q-66 0 -114 17.5t-80 51.5l-48 -67h-27l61 85q-34 44 -48.5 108t-14.5 146q0 69 13 134t44.5 114.5t83.5 79.5t130 30q63 0 106.5 -19.5t72.5 -52.5l52 72h30l-66 -91q35 -51 48.5 -120t13.5 -144zM77 332
q0 -75 12.5 -132t39.5 -97l355 494q-26 32 -66 52t-97 20q-74 0 -121.5 -29t-74.5 -76.5t-37.5 -108t-10.5 -123.5zM551 334q0 30 -2 62t-8 63.5t-16.5 61t-26.5 55.5l-355 -492q59 -68 171 -68q60 0 105 25t74 68.5t43.5 101t14.5 123.5zM305 723l100 143l26 -22l-111 -131
z" />
    <glyph glyph-name="oslashacute" unicode="&#x1ff;" horiz-adv-x="457" 
d="M233 491q44 0 74.5 -14t51.5 -37l37 51h24l-48 -67q26 -37 35.5 -86t9.5 -99q0 -44 -8 -87.5t-28.5 -79t-57 -57.5t-93.5 -22q-46 0 -78 13t-54 36l-34 -47h-22l44 62q-26 35 -36 81.5t-10 97.5q0 46 10 92t32.5 82t59.5 58.5t91 22.5zM65 235q0 -45 7 -86t28 -73
l245 344q-18 23 -45.5 36.5t-66.5 13.5q-50 0 -82.5 -21t-51.5 -55t-26.5 -75.5t-7.5 -83.5zM393 236q0 41 -7.5 86t-28.5 81l-246 -342q20 -21 49 -33t73 -12q50 0 81 20.5t48.5 52t24 70.5t6.5 77zM210 564l100 143l26 -22l-111 -131z" />
    <glyph glyph-name="Scommaaccent" unicode="&#x218;" horiz-adv-x="514" 
d="M261 693q30 0 76 -5t91 -21l-8 -25q-53 15 -90.5 20.5t-73.5 5.5q-37 0 -68.5 -9.5t-55 -29t-36.5 -48.5t-13 -69q0 -35 15.5 -58.5t41 -39.5t58.5 -26.5t69 -20.5q37 -10 74 -22t66.5 -32.5t48 -52.5t18.5 -82t-18.5 -85.5t-49.5 -57.5t-73 -32t-88 -10
q-52 0 -107.5 11.5t-97.5 35.5l11 22q54 -26 100 -35.5t90 -9.5q97 0 151.5 38t54.5 124q0 38 -13.5 64t-37.5 44t-57 30t-72 23q-43 11 -81.5 24t-67.5 32t-46 47t-17 70q0 44 15 77.5t42 56.5t65 34.5t84 11.5zM241 -134q-11 0 -18.5 7t-7.5 18q0 12 7 20.5t19 8.5
q14 0 22.5 -9t8.5 -28q0 -23 -10.5 -43.5t-33.5 -40.5l-8 8q14 17 17.5 29.5t3.5 29.5z" />
    <glyph glyph-name="scommaaccent" unicode="&#x219;" horiz-adv-x="406" 
d="M205 491q20 0 56 -4.5t68 -19.5l-8 -21q-34 14 -64 19t-53 5q-54 0 -89.5 -24t-35.5 -78q0 -22 12 -39t30 -29.5t39.5 -21.5t40.5 -15q30 -10 58.5 -20.5t51 -26t36.5 -38t14 -55.5q0 -35 -14 -59.5t-37.5 -40t-53.5 -23t-62 -7.5q-42 0 -80.5 8t-68.5 26l10 20
q39 -21 73.5 -27t61.5 -6q31 0 58 6.5t47 20t31.5 33.5t11.5 48q0 24 -11 42t-29.5 31.5t-41.5 23t-47 17.5q-30 9 -57.5 20t-49 27t-34.5 36.5t-13 49.5q0 34 12.5 57t33 37.5t47.5 21t57 6.5zM187 -134q-11 0 -18.5 7t-7.5 18q0 12 7 20.5t19 8.5q14 0 22.5 -9t8.5 -28
q0 -23 -10.5 -43.5t-33.5 -40.5l-8 8q14 17 17.5 29.5t3.5 29.5z" />
    <glyph glyph-name="schwa" unicode="&#x259;" horiz-adv-x="442" 
d="M215 -7q-46 0 -76.5 14.5t-50 37t-29 49.5t-14 53t-4.5 47.5v31.5v16h341q0 45 -6.5 86t-25 72t-50.5 49.5t-81 18.5q-45 0 -79 -9t-75 -29l-9 20q39 21 76 31t83 10q58 0 95.5 -19.5t59 -53t29.5 -78.5t8 -95q0 -18 -2 -43.5t-9 -53.5t-20 -56t-34.5 -50t-52.5 -35.5
t-74 -13.5zM216 14q44 0 74 17.5t49 46t28.5 66t13.5 76.5h-315q0 -45 7.5 -83t25 -65t46 -42.5t71.5 -15.5z" />
    <glyph glyph-name="Dcroat" unicode="&#x110;" horiz-adv-x="595" 
d="M535 343q0 -71 -12.5 -133.5t-43.5 -109t-83.5 -73.5t-132.5 -27h-183v347h-66v22h66v313h194q78 0 128.5 -27.5t80 -74t41 -108t11.5 -129.5zM509 334q0 80 -13.5 135.5t-35 91.5t-48.5 55.5t-54 29t-51.5 11t-40.5 1.5h-160v-289h211v-22h-211v-322h151q14 0 38.5 1
t52.5 9.5t56.5 26.5t52 52.5t38 88t14.5 131.5z" />
    <glyph glyph-name="zero.taboldstyle" unicode="&#xe024;" horiz-adv-x="500" 
d="M467 237q0 -44 -11 -87.5t-36 -78t-66.5 -56.5t-101.5 -22q-69 0 -112 22t-67 56.5t-32.5 77.5t-8.5 85q0 38 9 83t33.5 84t67.5 65t112 26q71 0 113.5 -27t64.5 -66.5t28.5 -83.5t6.5 -78zM442 234q-1 30 -6.5 70t-25 76t-56.5 61t-100 25t-101 -23.5t-59 -59t-28 -76
t-7 -74.5q0 -45 8 -84.5t29.5 -68.5t59 -46t95.5 -17q53 0 90 19t59.5 49.5t32.5 69.5t9 79z" />
    <glyph glyph-name="one.taboldstyle" unicode="&#xe025;" horiz-adv-x="500" 
d="M90 431l-4 20l164 37h29v-464h135v-24h-307v24h147v431z" />
    <glyph glyph-name="two.taboldstyle" unicode="&#xe026;" horiz-adv-x="500" 
d="M34 0v24l71 41q48 27 96.5 60.5t88 70.5t64.5 76t25 77q0 34 -13 57t-34 36t-49 18.5t-58 5.5q-42 0 -83 -14.5t-79 -40.5l-12 24q80 57 176 57q35 0 67.5 -7t57.5 -23.5t40 -44t15 -67.5q0 -48 -32 -95t-81 -90t-106 -79t-107 -62h349v-24h-396z" />
    <glyph glyph-name="three.taboldstyle" unicode="&#xe027;" horiz-adv-x="500" 
d="M413 485l3 -21l-237 -237h39q43 0 82.5 -9.5t70 -30.5t48.5 -54t18 -80q0 -48 -16.5 -85t-45.5 -62t-68 -38t-84 -13q-55 0 -99 7t-84 24l10 21q53 -19 96.5 -23t70.5 -4q40 0 75.5 10t61.5 31.5t41 54.5t15 78q0 71 -53 109.5t-145 38.5q-20 0 -36 -0.5t-31 -3.5l-13 19
l244 243l-312 1v24h349z" />
    <glyph glyph-name="four.taboldstyle" unicode="&#xe028;" horiz-adv-x="500" 
d="M368 485v-460h96v-25h-96v-145h-27v145h-326v27l324 458h29zM341 25v421l-295 -421h295z" />
    <glyph glyph-name="five.taboldstyle" unicode="&#xe029;" horiz-adv-x="500" 
d="M252 240q33 0 67.5 -9.5t63 -31.5t46.5 -57.5t18 -87.5q0 -51 -16.5 -89t-45.5 -62.5t-67.5 -36.5t-83.5 -12q-57 0 -99.5 7.5t-81.5 23.5l10 22q45 -16 85.5 -22t69.5 -6q94 0 148 42t54 133q0 40 -14 70.5t-38 50.5t-57 30t-71 10q-29 0 -62 -7.5t-61 -20.5l-22 13
l15 285h311v-24l-288 -1l-13 -247q2 1 11.5 5t10.5 4q14 5 41 11.5t69 6.5z" />
    <glyph glyph-name="six.taboldstyle" unicode="&#xe02a;" horiz-adv-x="500" 
d="M283 631q37 0 71 -7.5t60 -18.5l-8 -22q-38 14 -69.5 18.5t-55.5 4.5q-41 0 -71.5 -15.5t-53 -40t-37 -55.5t-24 -62t-13.5 -58.5t-5 -45.5l1 -1q32 21 81 36t106 15q37 0 70.5 -10t59 -32.5t40.5 -58.5t15 -88q0 -45 -14 -81.5t-39.5 -62t-62.5 -39.5t-82 -14
q-62 0 -101.5 23.5t-62 63.5t-31 93t-8.5 112q0 77 15 141t45 109.5t73.5 70.5t100.5 25zM424 185q0 37 -8.5 68t-27 53t-49.5 34.5t-76 12.5q-40 0 -72.5 -8t-56.5 -18t-38.5 -20t-18.5 -13v-26q0 -35 5 -78.5t23 -82t53.5 -64.5t95.5 -26q40 0 71.5 12.5t53.5 35
t33.5 53.5t11.5 67z" />
    <glyph glyph-name="seven.taboldstyle" unicode="&#xe02b;" horiz-adv-x="500" 
d="M159 -145h-29l275 605l-337 1v24h364v-26z" />
    <glyph glyph-name="eight.taboldstyle" unicode="&#xe02c;" horiz-adv-x="500" 
d="M438 491q0 -39 -25.5 -84.5t-83.5 -84.5q60 -28 90 -66t30 -93q0 -31 -12 -61.5t-37 -54.5t-63 -39t-89 -15q-56 0 -95 14t-63.5 36t-35.5 49t-11 54q0 57 34 114.5t101 97.5q-48 25 -73 55.5t-25 72.5q0 28 12 54t35 46.5t55.5 33t73.5 12.5q31 0 63.5 -8t58.5 -25
t43 -43.5t17 -64.5zM251 17q46 0 78.5 13.5t53.5 34t30.5 45.5t9.5 49q0 44 -19.5 73t-51 49.5t-71 35.5t-79.5 30q-66 -41 -99.5 -94t-33.5 -104q0 -23 9 -46.5t30 -42.5t56 -31t87 -12zM254 608q-42 0 -70.5 -13.5t-46 -32.5t-24.5 -40.5t-7 -36.5q0 -32 19 -55t48 -40
t64 -30.5t68 -25.5q30 19 50.5 39.5t33 41t18 38.5t5.5 33q0 23 -9 45t-28 39t-49 27.5t-72 10.5z" />
    <glyph glyph-name="nine.taboldstyle" unicode="&#xe02d;" horiz-adv-x="500" 
d="M216 -146q-44 0 -81 8t-63 19l10 21q38 -15 75 -19.5t61 -4.5q41 0 72 15.5t53.5 40.5t37.5 56t23.5 62t12.5 58.5t5 45.5l-1 2q-32 -21 -81 -36.5t-106 -15.5q-37 0 -70.5 10t-59 32.5t-40.5 58t-15 87.5q0 91 53.5 144t144.5 53q62 0 101.5 -23.5t62 -63t31 -92.5
t8.5 -112q0 -77 -15 -141t-45 -109.5t-73.5 -70.5t-100.5 -25zM74 299q0 -37 8.5 -67.5t27.5 -52.5t50 -34.5t76 -12.5q40 0 72.5 8t56.5 18t38.5 20t18.5 13v25q0 35 -5 78.5t-23 82t-53.5 65t-95.5 26.5q-40 0 -71.5 -12.5t-53.5 -35t-34 -53.5t-12 -68z" />
    <glyph glyph-name="numbersign.taboldstyle" unicode="&#xe02e;" horiz-adv-x="500" 
d="M365 365l-38 -171h76l-4 -17h-77l-39 -177h-21l40 177h-162l-40 -177h-20l39 177h-63l4 17h64l38 171h-68l5 18h67l32 146h20l-33 -146h163l32 146h21l-33 -146h74l-5 -18h-72zM143 194h163l38 171h-163z" />
    <glyph glyph-name="dollar.taboldstyle" unicode="&#xe02f;" horiz-adv-x="500" 
d="M259 617h21v-53q23 -2 53.5 -8t54.5 -20l-9 -20q-27 12 -50 17.5t-49 7.5v-243q28 -12 54 -25t46.5 -30.5t32.5 -40t12 -52.5q0 -32 -11.5 -57.5t-31 -44t-46 -29.5t-56.5 -14v-70h-21v682zM228 -65h-20v68q-35 3 -72.5 15t-60.5 26l10 19q41 -19 69 -26.5t54 -10.5v269
q-25 9 -47.5 20.5t-40 27t-27.5 36t-10 47.5q0 57 34 91t91 45v55h20v-682zM402 151q0 42 -34 70.5t-88 51.5v-247q56 9 89 38.5t33 86.5zM108 430q0 -24 8 -41t21.5 -30t31.5 -22t39 -17v219q-46 -8 -73 -36t-27 -73z" />
    <glyph glyph-name="euro.taboldstyle" unicode="&#xe030;" horiz-adv-x="500" 
d="M405 259v-22h-300q2 -42 11.5 -81.5t32 -70.5t60.5 -50t98 -19q21 0 59 3.5t86 15.5l5 -20q-14 -5 -32.5 -8.5t-39.5 -6.5t-42 -4.5t-39 -1.5q-109 0 -164.5 66t-59.5 177h-37v22h362zM43 310v20h39q4 41 17.5 83.5t40 77t67.5 56t100 21.5q44 0 82.5 -6.5t60.5 -14.5
l-7 -21q-32 10 -68.5 15t-66.5 5q-47 0 -82.5 -15.5t-60 -44t-39.5 -68.5t-20 -88h299v-20h-362z" />
    <glyph glyph-name="florin.taboldstyle" unicode="&#xe031;" horiz-adv-x="500" 
d="M153 325h97l14 103q10 75 41.5 119t95.5 44q16 0 32.5 -2.5t31.5 -7.5l-7 -18q-20 5 -32 6t-29 1q-48 0 -75.5 -38.5t-35.5 -101.5q-3 -23 -7 -53t-6 -52h103v-21h-105q-3 -19 -8.5 -62t-11.5 -90.5t-11.5 -88t-8.5 -54.5q-15 -87 -46 -127t-88 -40q-36 0 -60 13l8 18
q17 -5 27.5 -7t23.5 -2q27 0 45 9.5t30.5 27.5t20.5 45t16 62q5 25 10.5 62.5t10.5 78.5t9.5 82t8.5 73h-94v21z" />
    <glyph glyph-name="sterling.taboldstyle" unicode="&#xe032;" horiz-adv-x="500" 
d="M63 0v23q42 23 60.5 87.5t18.5 166.5h-65v22h67q1 44 2.5 91.5t15.5 86.5t46.5 64.5t95.5 25.5q35 0 72 -5.5t60 -15.5l-6 -20q-66 20 -125 20q-56 0 -84 -22t-39.5 -57t-12.5 -79t-2 -89h188v-22h-189q-1 -32 -3 -68t-9 -70.5t-20 -65t-35 -51.5h330v-22h-366z" />
    <glyph glyph-name="cent.taboldstyle" unicode="&#xe033;" horiz-adv-x="500" 
d="M252 -44v71q-42 3 -72.5 19.5t-49.5 44t-28 64.5t-9 81q0 29 6 65t23 68.5t48.5 56.5t81.5 29v57h23v-55q31 0 62 -6t55 -14l-7 -21q-29 9 -58 13.5t-52 4.5v-385q31 2 59 9t63 21l9 -19q-26 -13 -59.5 -22.5t-71.5 -10.5v-71h-23zM117 233q0 -35 6.5 -67.5t22 -57.5
t41.5 -41t65 -18v384q-36 -4 -62 -20t-42 -42.5t-23.5 -61t-7.5 -76.5z" />
    <glyph glyph-name="yen.taboldstyle" unicode="&#xe034;" horiz-adv-x="500" 
d="M309 370l101 190h27l-161 -300h144v-23h-324v23h142l-155 300h28l93 -185l53 -104zM420 195v-21h-151v-174h-26v174h-147v21h324z" />
    <glyph glyph-name="zero.textoldstyle" unicode="&#xe048;" horiz-adv-x="500" 
d="M467 237q0 -44 -11 -87.5t-36 -78t-66.5 -56.5t-101.5 -22q-69 0 -112 22t-67 56.5t-32.5 77.5t-8.5 85q0 38 9 83t33.5 84t67.5 65t112 26q71 0 113.5 -27t64.5 -66.5t28.5 -83.5t6.5 -78zM442 234q-1 30 -6.5 70t-25 76t-56.5 61t-100 25t-101 -23.5t-59 -59t-28 -76
t-7 -74.5q0 -45 8 -84.5t29.5 -68.5t59 -46t95.5 -17q53 0 90 19t59.5 49.5t32.5 69.5t9 79z" />
    <glyph glyph-name="one.textoldstyle" unicode="&#xe049;" horiz-adv-x="441" 
d="M60 431l-4 20l164 37h29v-464h135v-24h-307v24h147v431z" />
    <glyph glyph-name="two.textoldstyle" unicode="&#xe04a;" horiz-adv-x="500" 
d="M34 0v24l71 41q48 27 96.5 60.5t88 70.5t64.5 76t25 77q0 34 -13 57t-34 36t-49 18.5t-58 5.5q-42 0 -83 -14.5t-79 -40.5l-12 24q80 57 176 57q35 0 67.5 -7t57.5 -23.5t40 -44t15 -67.5q0 -48 -32 -95t-81 -90t-106 -79t-107 -62h349v-24h-396z" />
    <glyph glyph-name="three.textoldstyle" unicode="&#xe04b;" horiz-adv-x="456" 
d="M383 485l3 -21l-237 -237h39q43 0 82.5 -9.5t70 -30.5t48.5 -54t18 -80q0 -48 -16.5 -85t-45.5 -62t-68 -38t-84 -13q-55 0 -99 7t-84 24l10 21q53 -19 96.5 -23t70.5 -4q40 0 75.5 10t61.5 31.5t41 54.5t15 78q0 71 -53 109.5t-145 38.5q-20 0 -36 -0.5t-31 -3.5l-13 19
l244 243l-312 1v24h349z" />
    <glyph glyph-name="four.textoldstyle" unicode="&#xe04c;" horiz-adv-x="500" 
d="M368 485v-460h96v-25h-96v-145h-27v145h-326v27l324 458h29zM341 25v421l-295 -421h295z" />
    <glyph glyph-name="five.textoldstyle" unicode="&#xe04d;" horiz-adv-x="500" 
d="M252 240q33 0 67.5 -9.5t63 -31.5t46.5 -57.5t18 -87.5q0 -51 -16.5 -89t-45.5 -62.5t-67.5 -36.5t-83.5 -12q-57 0 -99.5 7.5t-81.5 23.5l10 22q45 -16 85.5 -22t69.5 -6q94 0 148 42t54 133q0 40 -14 70.5t-38 50.5t-57 30t-71 10q-29 0 -62 -7.5t-61 -20.5l-22 13
l15 285h311v-24l-288 -1l-13 -247q2 1 11.5 5t10.5 4q14 5 41 11.5t69 6.5z" />
    <glyph glyph-name="six.textoldstyle" unicode="&#xe04e;" horiz-adv-x="500" 
d="M283 631q37 0 71 -7.5t60 -18.5l-8 -22q-38 14 -69.5 18.5t-55.5 4.5q-41 0 -71.5 -15.5t-53 -40t-37 -55.5t-24 -62t-13.5 -58.5t-5 -45.5l1 -1q32 21 81 36t106 15q37 0 70.5 -10t59 -32.5t40.5 -58.5t15 -88q0 -45 -14 -81.5t-39.5 -62t-62.5 -39.5t-82 -14
q-62 0 -101.5 23.5t-62 63.5t-31 93t-8.5 112q0 77 15 141t45 109.5t73.5 70.5t100.5 25zM424 185q0 37 -8.5 68t-27 53t-49.5 34.5t-76 12.5q-40 0 -72.5 -8t-56.5 -18t-38.5 -20t-18.5 -13v-26q0 -35 5 -78.5t23 -82t53.5 -64.5t95.5 -26q40 0 71.5 12.5t53.5 35
t33.5 53.5t11.5 67z" />
    <glyph glyph-name="seven.textoldstyle" unicode="&#xe04f;" horiz-adv-x="434" 
d="M116 -145h-29l275 605l-337 1v24h364v-26z" />
    <glyph glyph-name="eight.textoldstyle" unicode="&#xe050;" horiz-adv-x="500" 
d="M442 491q0 -39 -25.5 -84.5t-83.5 -84.5q60 -28 90 -66t30 -93q0 -31 -12 -61.5t-37 -54.5t-63 -39t-89 -15q-56 0 -95 14t-63.5 36t-35.5 49t-11 54q0 57 34 114.5t101 97.5q-48 25 -73 55.5t-25 72.5q0 28 12 54t35 46.5t55.5 33t73.5 12.5q31 0 63.5 -8t58.5 -25
t43 -43.5t17 -64.5zM255 17q46 0 78.5 13.5t53.5 34t30.5 45.5t9.5 49q0 44 -19.5 73t-51 49.5t-71 35.5t-79.5 30q-66 -41 -99.5 -94t-33.5 -104q0 -23 9 -46.5t30 -42.5t56 -31t87 -12zM258 608q-42 0 -70.5 -13.5t-46 -32.5t-24.5 -40.5t-7 -36.5q0 -32 19 -55t48 -40
t64 -30.5t68 -25.5q30 19 50.5 39.5t33 41t18 38.5t5.5 33q0 23 -9 45t-28 39t-49 27.5t-72 10.5z" />
    <glyph glyph-name="nine.textoldstyle" unicode="&#xe051;" horiz-adv-x="500" 
d="M216 -146q-44 0 -81 8t-63 19l10 21q38 -15 75 -19.5t61 -4.5q41 0 72 15.5t53.5 40.5t37.5 56t23.5 62t12.5 58.5t5 45.5l-1 2q-32 -21 -81 -36.5t-106 -15.5q-37 0 -70.5 10t-59 32.5t-40.5 58t-15 87.5q0 91 53.5 144t144.5 53q62 0 101.5 -23.5t62 -63t31 -92.5
t8.5 -112q0 -77 -15 -141t-45 -109.5t-73.5 -70.5t-100.5 -25zM74 299q0 -37 8.5 -67.5t27.5 -52.5t50 -34.5t76 -12.5q40 0 72.5 8t56.5 18t38.5 20t18.5 13v25q0 35 -5 78.5t-23 82t-53.5 65t-95.5 26.5q-40 0 -71.5 -12.5t-53.5 -35t-34 -53.5t-12 -68z" />
    <glyph glyph-name="numbersign.textoldstyle" unicode="&#xe052;" horiz-adv-x="500" 
d="M365 365l-38 -171h76l-4 -17h-77l-39 -177h-21l40 177h-162l-40 -177h-20l39 177h-63l4 17h64l38 171h-68l5 18h67l32 146h20l-33 -146h163l32 146h21l-33 -146h74l-5 -18h-72zM143 194h163l38 171h-163z" />
    <glyph glyph-name="dollar.textoldstyle" unicode="&#xe053;" horiz-adv-x="449" 
d="M239 617h21v-53q23 -2 53.5 -8t54.5 -20l-9 -20q-27 12 -50 17.5t-49 7.5v-243q28 -12 54 -25t46.5 -30.5t32.5 -40t12 -52.5q0 -32 -11.5 -57.5t-31 -44t-46 -29.5t-56.5 -14v-70h-21v682zM208 -65h-20v68q-35 3 -72.5 15t-60.5 26l10 19q41 -19 69 -26.5t54 -10.5v269
q-25 9 -47.5 20.5t-40 27t-27.5 36t-10 47.5q0 57 34 91t91 45v55h20v-682zM382 151q0 42 -34 70.5t-88 51.5v-247q56 9 89 38.5t33 86.5zM88 430q0 -24 8 -41t21.5 -30t31.5 -22t39 -17v219q-46 -8 -73 -36t-27 -73z" />
    <glyph glyph-name="euro.textoldstyle" unicode="&#xe054;" horiz-adv-x="500" 
d="M405 259v-22h-300q2 -42 11.5 -81.5t32 -70.5t60.5 -50t98 -19q21 0 59 3.5t86 15.5l5 -20q-14 -5 -32.5 -8.5t-39.5 -6.5t-42 -4.5t-39 -1.5q-109 0 -164.5 66t-59.5 177h-37v22h362zM43 310v20h39q4 41 17.5 83.5t40 77t67.5 56t100 21.5q44 0 82.5 -6.5t60.5 -14.5
l-7 -21q-32 10 -68.5 15t-66.5 5q-47 0 -82.5 -15.5t-60 -44t-39.5 -68.5t-20 -88h299v-20h-362z" />
    </font>
</defs>
</svg>
