<?xml version="1.0" standalone="no"?>
<!DOCTYPE svg PUBLIC "-//W3C//DTD SVG 1.1//EN" "http://www.w3.org/Graphics/SVG/1.1/DTD/svg11.dtd" >
<svg>
<metadata>
Created by FontForge 20110222 at Thu Sep 25 09:20:34 2014
 By deploy user
Copyright (c) 2006 Parachute :, www.parachute.gr.  All rights reserved.
</metadata>
<defs>
<font id="PFAgoraSlabPro-Black" horiz-adv-x="1818" >
  <font-face 
    font-family="PF Agora Slab Pro Black"
    font-weight="900"
    font-stretch="normal"
    units-per-em="1000"
    panose-1="2 0 5 5 0 0 0 2 0 4"
    ascent="750"
    descent="-250"
    x-height="493"
    cap-height="691"
    bbox="-450 -310 1760 1004"
    underline-thickness="50"
    underline-position="-50"
    unicode-range="U+0020-FB05"
  />
<missing-glyph horiz-adv-x="453" 
d="M0 689h452v-689h-452v689zM336 77l-110 196l-110 -196h220zM336 611h-222l112 -194zM78 157l104 188l-104 188v-376zM373 157v377l-104 -190z" />
    <glyph glyph-name="fj" unicode="fj" horiz-adv-x="713" 
d="M44 118h61v257h-72v101l73 22v45q0 36 9 72.5t35 66.5t72.5 48.5t121.5 18.5q17 0 41.5 -1.5t53.5 -4.5t61.5 -9t64.5 -15l-23 -130q-51 8 -86.5 11.5t-66.5 3.5q-50 0 -75.5 -16.5t-25.5 -64.5v-30h353v-396q0 -72 -13.5 -126.5t-45 -94t-83 -66.5t-127.5 -43
q-1 2 -7.5 19t-14 37t-14.5 37t-8 19q41 24 65.5 42.5t37 39.5t16.5 48.5t4 69.5v296h-163v-257h67v-118h-311v118z" />
    <glyph glyph-name="ffj" unicode="ffj" horiz-adv-x="1060" 
d="M910 729q-7 -32 -12.5 -64.5t-11.5 -64.5q-52 8 -86 11.5t-65 3.5q-50 0 -75.5 -17t-25.5 -64v-42h349v-400q0 -72 -14.5 -126t-46.5 -93t-83 -64.5t-124 -40.5l-44 112q42 24 66.5 42.5t37 39.5t16 49t3.5 70v294h-160v-258h66v-117h-300v117h51v258h-164v-258h55v-117
h-299v117h61v258h-72v100q18 6 36 11.5t37 10.5v30q0 40 10 76t38.5 63.5t80.5 44t136 16.5q31 -1 64 -5.5t73 -16.5q29 28 76.5 40.5t127.5 12.5q39 -2 92 -8t107 -21zM452 547v17t2 16q-41 9 -77 9q-48 0 -69 -16t-21 -57v-24h165v55z" />
    <glyph glyph-name="ff" unicode="ff" horiz-adv-x="829" 
d="M403 117h48v258h-163v-258h47v-117h-291v117h61v258h-72v101l73 22v30q0 36 9 71.5t35 64.5t73 47t124 18q31 0 69 -3.5t86 -17.5q24 20 64 31.5t100 11.5q14 0 32.5 -1t39 -3.5t41.5 -6.5t40 -10l-26 -126q-23 5 -48.5 7.5t-42.5 2.5q-31 0 -49.5 -12.5t-18.5 -41.5v-68
h140v-117h-140v-258h74v-117h-305v117zM377 589q-48 0 -68.5 -16t-20.5 -57v-24h163q0 9 0.5 23.5t0.5 28v24t1 13.5q-20 4 -39.5 6t-36.5 2z" />
    <glyph glyph-name="fi" unicode="fi" horiz-adv-x="744" 
d="M637 125h70v-111q-30 -13 -68 -19.5t-67 -6.5q-69 0 -96 27t-27 82l-1 278h-160v-257h62v-118h-306v118h61v257h-72v102l73 21v45q0 36 9 72.5t34.5 66.5t72 48.5t121.5 18.5q16 0 40.5 -1t54 -4.5t62.5 -9.5t66 -15l-24 -130q-51 8 -86.5 12t-66.5 4q-50 0 -75.5 -17
t-25.5 -65v-30h349v-368z" />
    <glyph glyph-name="fl" unicode="fl" horiz-adv-x="748" 
d="M648 118h63v-118h-305v118h53v478q-38 6 -70 6q-50 0 -75.5 -17t-25.5 -64v-28h117v-118h-117v-257h54v-118h-298v118h61v257h-72v102l73 21v43q0 36 9 72.5t34.5 66t72 48t121.5 18.5q24 0 64.5 -2.5t87.5 -10.5l153 15v-630z" />
    <glyph glyph-name="ffi" unicode="ffi" horiz-adv-x="1091" 
d="M452 548q0 10 0.5 17t2.5 15q-42 9 -78 9q-48 0 -69 -16t-21 -57v-24h165v56zM634 375v-258h65v-117h-302v117h54v258h-164v-258h52v-117h-296v117h61v258h-72v100q18 6 36 11.5t37 10.5v30q0 38 9.5 74.5t35.5 64.5t73.5 45t123.5 17q32 0 72 -4.5t88 -18.5
q30 28 76.5 40.5t124.5 12.5q39 -1 94 -7.5t109 -22.5q-6 -32 -11.5 -64.5t-11.5 -64.5q-52 8 -87 11.5t-66 3.5q-50 0 -75.5 -16.5t-25.5 -63.5v-42h349v-368h69v-111q-15 -6 -32 -10.5t-35 -7.5t-35.5 -4.5t-31.5 -1.5q-41 0 -65.5 10t-37.5 28t-17 43t-4 55v250h-160z
" />
    <glyph glyph-name="ffl" unicode="ffl" horiz-adv-x="1094" 
d="M634 492h116v-117h-116v-258h57v-117h-296v117h56v258h-164v-258h50v-117h-294v117h61v258h-72v100q18 6 36 11.5t37 10.5v29q0 39 9.5 75t36.5 64.5t74.5 45.5t124.5 17q32 0 71 -4t86 -19q32 31 82 42t131 11q32 -1 71 -4.5t87 -9.5l116 16v-643h62v-117h-304v117h53
v492q-19 2 -36.5 3.5t-33.5 1.5q-50 0 -75.5 -16.5t-25.5 -63.5v-42zM452 551q0 14 3 29q-42 9 -78 9q-48 0 -69 -16t-21 -57v-24h165v59z" />
    <glyph glyph-name="ft" unicode="ft" horiz-adv-x="839" 
d="M44 118h61v257h-72v102l73 21v65q0 34 7.5 66.5t29.5 58t62.5 41.5t107.5 16q29 0 76 -5t88 -17l-26 -126q-23 5 -49 7.5t-43 2.5q-33 0 -52 -12t-19 -41v-61h185l44 135l125 11v-146h139v-118h-139v-171q0 -46 15 -61t53 -15q11 0 32.5 2.5t45.5 7.5l20 -120
q-17 -7 -37 -12.5t-40 -9t-39.5 -5.5t-35.5 -2q-66 0 -105.5 15.5t-60.5 39.5t-27.5 53.5t-6.5 58.5v219h-168v-257h74v-118h-318v118z" />
    <glyph glyph-name=".notdef" horiz-adv-x="453" 
d="M0 689h452v-689h-452v689zM336 77l-110 196l-110 -196h220zM336 611h-222l112 -194zM78 157l104 188l-104 188v-376zM373 157v377l-104 -190z" />
    <glyph glyph-name="exclam" unicode="!" horiz-adv-x="329" 
d="M251 713v-240l-17 -261h-137l-17 261l-1 240h172zM165 160q42 0 67 -25.5t25 -62.5q0 -35 -25 -61t-67 -26q-43 0 -67.5 26t-24.5 61q0 36 25.5 62t66.5 26z" />
    <glyph glyph-name="quotedbl" unicode="&#x22;" horiz-adv-x="439" 
d="M77 419l-21 273h149l-23 -273h-105zM261 419l-21 273h148l-22 -273h-105z" />
    <glyph glyph-name="numbersign" unicode="#" horiz-adv-x="631" 
d="M469 382l-25 -99h86l-1 -84h-103l-47 -200h-98l47 200h-87l-48 -200h-98l48 200h-75l3 84h91l25 99h-84l1 83h103l45 179h96l-43 -179h87l45 179h95l-42 -179h76l-1 -83h-96zM261 283h86l25 99h-87z" />
    <glyph glyph-name="dollar" unicode="$" horiz-adv-x="630" 
d="M328 747h46v-71q37 -3 74 -12t67 -25v-163h-99v68q-18 7 -42 12v-155q34 -10 68 -24t61.5 -36t45 -53t17.5 -76q0 -85 -51.5 -136t-140.5 -65v-88h-46v824zM295 -77h-45v86q-44 4 -87.5 14t-84.5 29v169h101v-71q16 -8 33.5 -11.5t37.5 -5.5v160q-36 11 -69 25.5t-58 36
t-40 51t-15 69.5q0 83 48.5 136t133.5 65v71h45v-824zM420 201q0 22 -12 35t-34 22v-118q46 13 46 61zM209 492q0 -21 10.5 -33t30.5 -20v111q-19 -7 -30 -21t-11 -37z" />
    <glyph glyph-name="percent" unicode="%" horiz-adv-x="980" 
d="M410 467q0 -42 -10 -79.5t-32.5 -65.5t-59 -44.5t-88.5 -16.5q-54 0 -90.5 16t-59 44t-32.5 65.5t-10 80.5q0 42 10 79.5t32.5 66t59.5 45t91 16.5t90.5 -17t58.5 -45.5t31 -66t9 -78.5zM279 467q0 22 -2 42.5t-8.5 36.5t-18 25.5t-29.5 9.5q-20 0 -32 -10t-18.5 -26
t-8.5 -36.5t-2 -41.5q0 -51 11.5 -82t49.5 -31q34 0 46 32.5t12 80.5zM379 -19h-106l333 733h107zM947 201q0 -42 -10 -80t-32.5 -66t-59 -44.5t-88.5 -16.5q-54 0 -90.5 16.5t-59 44.5t-32.5 65.5t-10 79.5t10 79.5t32.5 66t59.5 45t91 16.5t90.5 -17t58.5 -45.5t31 -65.5
t9 -78zM816 200q0 22 -2 42.5t-8.5 36.5t-18 26t-29.5 10q-20 0 -32 -10t-18.5 -26.5t-8.5 -37t-2 -41.5q0 -51 11.5 -82t49.5 -31q17 0 28.5 9t18 24t9 35.5t2.5 44.5z" />
    <glyph glyph-name="ampersand" unicode="&#x26;" horiz-adv-x="842" 
d="M318 -18q-54 0 -101 13t-81.5 39.5t-54.5 65t-20 89.5q0 58 34.5 114t116.5 98q-24 32 -35 66t-11 66q0 22 8 49.5t28 52t55.5 41.5t89.5 17q59 0 96 -17.5t58 -42t28.5 -50t7.5 -41.5q0 -30 -12.5 -56t-32 -48t-43.5 -39.5t-46 -30.5q18 -22 37 -45t40 -47
q17 -18 32.5 -35.5t32.5 -34.5q20 20 35.5 46t22.5 53h-55v111h260v-111h-59q-11 -48 -38 -95.5t-69 -90.5q32 -26 69.5 -51t69.5 -40l-61 -102q-21 9 -45 21.5t-48 27.5t-47.5 31.5t-43.5 33.5q-46 -29 -101.5 -43.5t-116.5 -14.5zM373 198q-23 26 -44.5 51t-41.5 50
q-27 -17 -45.5 -41.5t-18.5 -56.5q0 -47 33.5 -72t84.5 -25q48 0 95 25q-17 17 -32 34.5t-31 34.5zM307 540q0 -16 8.5 -37.5t23.5 -42.5q12 7 24.5 15t23 18.5t17 22.5t6.5 26q0 23 -15 36t-39 13t-36.5 -16.5t-12.5 -34.5z" />
    <glyph glyph-name="quotesingle" unicode="'" horiz-adv-x="277" 
d="M83 419l-21 273h149l-22 -273h-106z" />
    <glyph glyph-name="parenleft" unicode="(" horiz-adv-x="371" 
d="M64 275q0 64 14 125.5t39 117.5t58 105t72 89l82 -51q-14 -20 -33 -53.5t-36 -81t-29 -109t-12 -136.5q0 -83 12 -148t29 -113.5t36 -81.5t33 -51l-80 -54q-39 40 -73 89t-59 105.5t-39 118.5t-14 129z" />
    <glyph glyph-name="parenright" unicode=")" horiz-adv-x="372" 
d="M308 276q0 -67 -14 -129.5t-39 -118.5t-59 -105t-73 -89l-79 53q13 18 32 51.5t36 82t29 113.5t12 148q0 75 -12 136.5t-29 109t-36 81t-33 52.5l83 52q38 -40 71.5 -89t58 -105t38.5 -117.5t14 -125.5z" />
    <glyph glyph-name="asterisk" unicode="*" horiz-adv-x="448" 
d="M266 582q27 14 54.5 30t55.5 31q13 -30 21.5 -60t16.5 -61q-32 -5 -62.5 -9t-62.5 -8l90 -83q-47 -38 -100 -73q-14 28 -26.5 56t-25.5 56q-13 -28 -26 -55.5t-26 -56.5q-27 17 -52 35t-50 38q23 21 46 42.5t45 42.5l-123 15q8 32 17.5 62t20.5 60q27 -17 54.5 -32
t54.5 -31l-25 120q17 1 32.5 1h32.5h32t31 -1q-7 -30 -12.5 -60t-12.5 -59z" />
    <glyph glyph-name="plus" unicode="+" horiz-adv-x="630" 
d="M381 254v-173h-106v173h-164v103h164v169h106v-169h164v-103h-164z" />
    <glyph glyph-name="comma" unicode="," horiz-adv-x="305" 
d="M53 87q0 18 7 34t20 28t31 19t40 7q26 0 44.5 -9.5t30.5 -25t17.5 -35t5.5 -40.5q0 -33 -11.5 -66.5t-31.5 -63.5t-47.5 -55.5t-59.5 -42.5l-47 61q30 26 45.5 52t20.5 58q-35 4 -50 25.5t-15 53.5z" />
    <glyph glyph-name="hyphen" unicode="-" horiz-adv-x="415" 
d="M64 210v125h287v-125h-287z" />
    <glyph glyph-name="period" unicode="." horiz-adv-x="305" 
d="M247 83q0 -20 -7.5 -37t-20.5 -30t-30 -20.5t-36 -7.5q-20 0 -37 7.5t-30.5 20.5t-21 30t-7.5 37t7.5 37.5t20.5 30t30.5 20t36.5 7.5t36.5 -7.5t30.5 -20t20.5 -30t7.5 -37.5z" />
    <glyph glyph-name="slash" unicode="/" horiz-adv-x="402" 
d="M136 -37h-133l261 748h133z" />
    <glyph glyph-name="zero" unicode="0" horiz-adv-x="630" 
d="M605 334q0 -71 -15.5 -133t-49.5 -109t-89.5 -74t-134.5 -27q-83 0 -139 27t-90.5 73.5t-49 108.5t-14.5 133q0 69 15 131.5t49 110t90 75.5t139 28q82 0 137.5 -28.5t89.5 -76t48 -110t14 -129.5zM415 333q0 40 -3.5 78t-14 68t-30 48.5t-51.5 18.5q-33 0 -53 -19
t-31 -49.5t-15 -68.5t-4 -76q0 -46 4.5 -84.5t15.5 -66.5t31 -44t52 -16q30 0 49 16.5t30 45.5t15.5 67t4.5 82z" />
    <glyph glyph-name="one" unicode="1" horiz-adv-x="630" 
d="M86 118h139v403q-11 -1 -30.5 -3.5t-41 -4.5t-41 -4t-30.5 -3l-18 101l185 63h164v-552h141v-118h-468v118z" />
    <glyph glyph-name="two" unicode="2" horiz-adv-x="630" 
d="M291 118h33.5t42.5 -0.5t42.5 -0.5h33.5v65h133v-182h-538v106q54 42 110.5 87.5t103 91.5t76 90t29.5 84q0 35 -19.5 55.5t-72.5 20.5q-27 0 -70.5 -11t-94.5 -40q-3 5 -11 21.5t-17 35.5t-16.5 35t-10.5 21q64 42 128.5 61t124.5 19q117 0 183 -55t66 -153
q0 -51 -24.5 -99t-62.5 -92.5t-83 -84t-86 -72.5v-3z" />
    <glyph glyph-name="three" unicode="3" horiz-adv-x="630" 
d="M546 670l21 -98l-169 -162q85 -13 132.5 -60t47.5 -129q0 -58 -22 -101.5t-60.5 -72.5t-91 -43.5t-113.5 -14.5q-20 0 -49 2t-62.5 8t-67.5 16t-62 26l41 118q57 -18 96.5 -24.5t73.5 -6.5q60 0 92.5 25t32.5 68q0 18 -6 34.5t-21 28.5t-41 19t-66 7q-18 0 -42 -3l-18 86
q8 8 31.5 30.5t50 48t50.5 48t32 30.5h-142v-64h-132v184h464z" />
    <glyph glyph-name="four" unicode="4" horiz-adv-x="630" 
d="M507 670v-361h98v-119h-98v-72h62v-118h-301v118h56v72h-296v102q8 11 29.5 40t50 67.5t60 81.5t59.5 81t49.5 67.5t29.5 40.5h201zM319 479l-126 -170h132l-1 170h-5z" />
    <glyph glyph-name="five" unicode="5" horiz-adv-x="630" 
d="M270 318q-42 0 -97 -22l-87 41l29 333h427v-177h-137v57h-144l-10 -117q15 5 32 7.5t38 2.5q57 0 104.5 -14t81.5 -41.5t53 -68t19 -93.5q0 -58 -22 -102t-60.5 -74t-90.5 -45t-113 -15q-19 0 -48.5 2t-63.5 8t-68 16t-62 26l43 124q57 -19 96.5 -26t73.5 -7q55 0 90 23
t35 71t-34 69.5t-85 21.5z" />
    <glyph glyph-name="six" unicode="6" horiz-adv-x="630" 
d="M232 391q38 20 74.5 28t68.5 8q41 0 78.5 -13t66.5 -39t46.5 -65t17.5 -91q0 -56 -19.5 -99t-54.5 -71.5t-83 -43t-105 -14.5q-76 0 -129 23t-86.5 64t-49 97.5t-15.5 122.5q0 77 16.5 146t54 120.5t98.5 81.5t151 30q52 0 90.5 -7t64.5 -15l-24 -124q-37 10 -67 13
t-50 3q-39 0 -66 -14t-44.5 -35.5t-26.5 -48.5t-12 -53zM325 306q-33 0 -57 -12t-38 -20v-17q0 -24 4 -47.5t14 -42t28 -30.5t46 -12q38 0 60.5 25t22.5 68q0 18 -3.5 34t-12.5 28t-24.5 19t-39.5 7z" />
    <glyph glyph-name="seven" unicode="7" horiz-adv-x="630" 
d="M82 461v208h476v-111l-258 -558h-180l251 550h-151v-89h-138z" />
    <glyph glyph-name="eight" unicode="8" horiz-adv-x="630" 
d="M242 492q0 -16 8.5 -27.5t23 -21t34 -18t41.5 -18.5q29 24 39.5 44t10.5 39q0 24 -19 44.5t-63 20.5q-19 0 -33 -6.5t-23.5 -16t-14 -20.5t-4.5 -20zM311 126q22 0 39 7t28 17.5t16.5 23.5t5.5 26q1 30 -25.5 52.5t-95.5 48.5q-34 -26 -45.5 -51.5t-11.5 -50.5
q0 -29 22 -51t67 -22zM565 500q0 -32 -17 -72t-66 -78q48 -25 76 -64.5t28 -96.5q0 -42 -20 -78.5t-56 -62.5t-87 -41t-114 -15q-128 0 -200.5 51t-72.5 141q0 21 5.5 44.5t18.5 48t34 47.5t53 43q-38 25 -57 54t-19 74q0 40 18.5 74.5t51.5 59t78 38.5t99 14
q42 0 85.5 -9.5t79.5 -31.5t59 -56.5t23 -83.5z" />
    <glyph glyph-name="nine" unicode="9" horiz-adv-x="630" 
d="M391 277q-38 -20 -74.5 -28t-68.5 -8q-41 0 -78.5 13t-66.5 39t-46.5 65t-17.5 91q0 56 20.5 99t56 71.5t84 43t105.5 14.5q76 0 128.5 -23t85.5 -64t47.5 -97.5t14.5 -122.5q0 -77 -16.5 -146t-54 -120.5t-98.5 -81.5t-151 -30q-52 0 -90.5 7t-64.5 15l24 124
q37 -10 67 -13t50 -3q39 0 66 14t44.5 35.5t26.5 48.5t12 53zM298 362q33 0 57 12t38 20v17q0 24 -4 47.5t-14 42t-28 30.5t-46 12q-38 0 -60.5 -25t-22.5 -68q0 -18 3.5 -34t12.5 -28t24.5 -19t39.5 -7z" />
    <glyph glyph-name="colon" unicode=":" horiz-adv-x="304" 
d="M247 83q0 -20 -7.5 -37t-20.5 -30t-30 -20.5t-36 -7.5q-20 0 -37 7.5t-30.5 20.5t-21 30t-7.5 37t7.5 37.5t20.5 30t30.5 20t36.5 7.5t36.5 -7.5t30.5 -20t20.5 -30t7.5 -37.5zM247 367q0 -20 -7.5 -37.5t-20.5 -30.5t-30 -20t-36 -7q-20 0 -37 7t-30.5 20t-21 30.5
t-7.5 37.5q0 19 7.5 36.5t20.5 30.5t30.5 20.5t36.5 7.5t36.5 -7.5t30.5 -20.5t20.5 -30.5t7.5 -36.5z" />
    <glyph glyph-name="semicolon" unicode=";" horiz-adv-x="304" 
d="M247 367q0 -20 -7.5 -37.5t-20.5 -30.5t-30 -20t-36 -7q-20 0 -37 7t-30.5 20t-21 30.5t-7.5 37.5q0 19 7.5 36.5t20.5 30.5t30.5 20.5t36.5 7.5t36.5 -7.5t30.5 -20.5t20.5 -30.5t7.5 -36.5zM54 87q0 18 7 34t19.5 28t30.5 19t40 7q27 0 45.5 -9.5t30.5 -25t17.5 -35
t5.5 -40.5q0 -33 -11.5 -66.5t-32 -63.5t-48 -55.5t-59.5 -42.5l-46 61q30 26 45.5 52t20.5 58q-35 4 -50 25.5t-15 53.5z" />
    <glyph glyph-name="less" unicode="&#x3c;" horiz-adv-x="630" 
d="M558 28l-482 229v84l482 231v-120l-337 -152l337 -153v-119z" />
    <glyph glyph-name="equal" unicode="=" horiz-adv-x="630" 
d="M94 336v101h442v-101h-442zM94 163v99h442v-99h-442z" />
    <glyph glyph-name="greater" unicode="&#x3e;" horiz-adv-x="630" 
d="M77 147l338 153l-338 152v120l482 -231v-84l-482 -229v119z" />
    <glyph glyph-name="question" unicode="?" horiz-adv-x="541" 
d="M277 714q115 0 174 -50.5t59 -131.5q0 -35 -14 -64t-35.5 -54t-46.5 -47t-46.5 -44t-35.5 -44.5t-14 -48.5q0 -5 0.5 -14.5t1.5 -17.5h-29t-47 -0.5t-46.5 -1t-28.5 -0.5q-1 5 -2 14t-1.5 18.5t-0.5 17.5v11q0 50 23 85.5t51 64t51 54t23 55.5q0 29 -21 45.5t-59 16.5
q-14 0 -29.5 -2t-30.5 -5l-1 -75h-126v176q67 25 126.5 33.5t104.5 8.5zM256 156q38 0 64.5 -25t26.5 -61q0 -34 -26 -59t-64 -25q-19 0 -35.5 7t-29 18.5t-19.5 26.5t-7 32q0 18 7 33.5t19 27t28.5 18.5t35.5 7z" />
    <glyph glyph-name="at" unicode="@" horiz-adv-x="959" 
d="M496 712q87 0 156 -24.5t116.5 -69t73 -107t25.5 -139.5q0 -51 -17 -90.5t-44.5 -67.5t-64 -42.5t-75.5 -14.5q-22 0 -44 4t-40.5 12.5t-32.5 22t-20 32.5q-25 -29 -59.5 -43t-62.5 -14q-35 0 -56.5 11t-33.5 26.5t-16.5 34t-4.5 33.5q0 30 12 49t38.5 31t67.5 19t99 13
v12q0 26 -9.5 37t-44.5 11q-25 0 -51 -4t-50 -10l-18 77q32 13 70.5 20.5t78.5 7.5q31 0 58 -6t47 -20t31.5 -37t11.5 -57v-139q0 -9 9 -21t31 -12q24 0 42 9.5t29.5 25.5t17 37t5.5 45q0 58 -17 105.5t-51.5 81.5t-86 53t-120.5 19q-74 0 -132.5 -22t-99 -60t-62 -90
t-21.5 -112q0 -62 18.5 -114t55.5 -90t91.5 -59.5t125.5 -21.5q27 0 63.5 5t82.5 19l26 -77q-19 -10 -41 -16.5t-45 -10.5t-45.5 -6t-41.5 -2q-93 0 -164.5 28t-121 77.5t-75 117t-25.5 147.5q0 81 31 150t86 119t130.5 78.5t163.5 28.5zM513 335q-16 -2 -31 -4t-27 -6
t-19 -11.5t-7 -20.5q0 -19 8 -29.5t28 -10.5q25 0 48 20v62z" />
    <glyph glyph-name="A" unicode="A" horiz-adv-x="794" 
d="M526 121l-22 71h-227l-23 -71h61v-121h-295v121h54l210 569h237l198 -569h55v-121h-306v121h58zM468 307q-17 60 -35 117t-36 117h-4q-5 -18 -14 -46.5t-20 -61t-22 -66t-20 -60.5h151z" />
    <glyph glyph-name="B" unicode="B" horiz-adv-x="742" 
d="M598 362q31 -13 51.5 -33t31.5 -42.5t15.5 -45.5t4.5 -41q0 -46 -17 -83t-48 -63t-75 -40t-97 -14h-421v122h74v446h-72v122h408q115 0 171 -51t56 -137q0 -12 -3.5 -30.5t-12.5 -38t-25 -38t-41 -31.5v-2zM310 296v-174h99q45 0 67 25t22 61t-21.5 62t-67.5 26h-99z
M310 568v-158h89q39 0 60.5 22.5t21.5 57.5t-20 56.5t-62 21.5h-89z" />
    <glyph glyph-name="C" unicode="C" horiz-adv-x="668" 
d="M254 350q0 -62 11.5 -102.5t35 -64.5t59.5 -33.5t85 -9.5q12 0 31 1.5t41 4t45 6t41 8.5l28 -132q-24 -9 -53 -16.5t-59.5 -12.5t-61.5 -7.5t-59 -2.5q-105 0 -172.5 29t-106.5 78.5t-54 113.5t-15 135q0 65 15 129.5t55 116t110 83.5t181 32q54 0 101 -7.5t90 -20.5
v-222h-133v101q-14 3 -27.5 4t-27.5 1q-45 0 -75.5 -15t-49 -42.5t-27 -67t-8.5 -87.5z" />
    <glyph glyph-name="D" unicode="D" horiz-adv-x="784" 
d="M44 0v122h75v446h-70v123h358q97 0 160.5 -27.5t100.5 -74.5t51.5 -109.5t14.5 -132.5q0 -69 -16.5 -131.5t-55.5 -110.5t-102 -76.5t-156 -28.5h-360zM313 568v-446h71q31 0 57.5 13.5t46 41t30.5 69.5t11 98q0 116 -40 170t-108 54h-68z" />
    <glyph glyph-name="E" unicode="E" horiz-adv-x="713" 
d="M44 0v123h72v445h-71v122h621v-237h-132v115h-225v-157l212 8v-127l-212 6v-175h235v123h133v-246h-633z" />
    <glyph glyph-name="F" unicode="F" horiz-adv-x="702" 
d="M44 0v122h73v446h-72v122h623v-237h-133v115h-225v-170l211 7v-126l-211 6v-163h92v-122h-358z" />
    <glyph glyph-name="G" unicode="G" horiz-adv-x="737" 
d="M420 706q54 0 107.5 -7.5t96.5 -20.5v-216h-133v94q-14 3 -31 5t-32 2q-47 0 -80 -15.5t-54 -43t-30.5 -67t-9.5 -87.5q0 -112 36 -162.5t116 -50.5q17 0 36.5 2t36.5 6v115h-74v111h295v-111h-48v-230q-63 -23 -130 -32t-124 -9q-105 0 -172.5 30t-106.5 79.5t-54 113.5
t-15 133q0 63 15 127.5t56 116.5t113 84.5t186 32.5z" />
    <glyph glyph-name="H" unicode="H" horiz-adv-x="856" 
d="M484 0v122h63v176h-237v-176h63v-122h-329v122h74v446h-74v122h329v-122h-63v-156h237v156h-63v122h328v-122h-72v-446h72v-122h-328z" />
    <glyph glyph-name="I" unicode="I" horiz-adv-x="475" 
d="M70 0v122h72v446h-72v123h335v-123h-70v-446h70v-122h-335z" />
    <glyph glyph-name="J" unicode="J" horiz-adv-x="505" 
d="M79 691h368v-123h-81v-385q0 -155 -85.5 -247.5t-251.5 -121.5l-45 135q57 23 93.5 45.5t58 49t30 60.5t8.5 80v384l-95 1v122z" />
    <glyph glyph-name="K" unicode="K" horiz-adv-x="787" 
d="M510 421l202 -298h56v-123h-324l-1 123h53l-125 186l-67 -58v-129h61v-122h-321v122h73v447h-73v120h326v-120h-66v-165l188 165h-53v120h309v-120h-64z" />
    <glyph glyph-name="L" unicode="L" horiz-adv-x="687" 
d="M44 0v122h74v446h-73v122h338v-122h-72v-446h227v130h133v-252h-627z" />
    <glyph glyph-name="M" unicode="M" horiz-adv-x="1043" 
d="M526 318q8 17 14.5 33.5t13.5 32.5q12 27 29 67t35 83.5t35.5 85t29.5 70.5h318v-122h-64v-447h64v-121h-309v121h57v330h-3l-16 -38t-16 -39q-12 -28 -26.5 -62t-29 -68.5t-28.5 -66.5t-24 -57h-160q-33 69 -63 135t-62 136q-6 15 -13 30t-13 30h-3v-330h63v-121h-316
v121h74v447h-74v122h318q32 -72 66.5 -148.5t66.5 -150.5q19 -41 32 -73h4z" />
    <glyph glyph-name="N" unicode="N" horiz-adv-x="880" 
d="M589 264v304h-67v122h313v-122h-67v-568h-189l-159 245l-85 134l-44 71q-1 0 -1 -0.5t-1 -0.5v-328h68v-121h-315v121h70v447h-69v122h275q31 -49 58.5 -92.5t54.5 -86t54 -86t56 -91.5q11 -17 21.5 -34.5t21.5 -35.5h5z" />
    <glyph glyph-name="O" unicode="O" horiz-adv-x="793" 
d="M743 347q0 -77 -22 -142.5t-65 -113.5t-108 -75t-150 -27q-89 0 -154 26.5t-108.5 73.5t-64.5 113t-21 144q0 76 21 141.5t64 114t108.5 76t154.5 27.5t154 -27.5t107.5 -76t63 -114t20.5 -140.5zM537 346q0 46 -6 86.5t-22 71.5t-42.5 49t-68.5 18t-70 -18.5
t-44.5 -49.5t-23 -71.5t-6.5 -85.5q0 -53 7.5 -94.5t24.5 -70t44.5 -44t67.5 -15.5q38 0 64.5 16.5t43 46t24 70.5t7.5 91z" />
    <glyph glyph-name="P" unicode="P" horiz-adv-x="685" 
d="M659 472q0 -42 -14.5 -81t-44 -70t-74.5 -49.5t-106 -18.5h-113v-131h91v-122h-354v122h70v446h-70v123h361q68 0 116.5 -16.5t79 -45.5t44.5 -69t14 -88zM307 568v-197h61q42 0 65 24.5t23 71.5q0 52 -24 76.5t-69 24.5h-56z" />
    <glyph glyph-name="Q" unicode="Q" horiz-adv-x="798" 
d="M741 346q0 -100 -35 -178.5t-105 -123.5l152 -40q-13 -35 -26 -69t-27 -69l-306 107q-23 6 -44.5 12t-41.5 13q-66 13 -114.5 43t-80.5 75t-47.5 103t-15.5 126q0 76 20.5 141.5t63.5 114t108 76t154 27.5q90 0 155 -27.5t107 -76t62.5 -114t20.5 -140.5zM536 345
q0 46 -6 86.5t-21.5 71.5t-43 49t-69.5 18t-69.5 -18.5t-44 -49.5t-23 -71.5t-6.5 -85.5q0 -53 7.5 -94.5t24.5 -70t44 -44t67 -15.5q38 0 65 16.5t43.5 46t24 70.5t7.5 91z" />
    <glyph glyph-name="R" unicode="R" horiz-adv-x="748" 
d="M468 483q0 45 -25 65t-63 20h-75v-180h68q19 0 36.5 4.5t30.5 15.5t20.5 29.5t7.5 45.5zM305 272v-149h67v-123h-324v123h67v445h-67v123h381q69 0 115.5 -17t75 -46.5t41 -67.5t12.5 -80q0 -24 -6 -49.5t-19.5 -49.5t-34 -44t-50.5 -32l89 -187l81 -11v-104
q-15 -5 -33 -9t-35 -6.5t-32.5 -3.5t-25.5 -1q-53 0 -80 22.5t-47 67.5l-87 199h-88z" />
    <glyph glyph-name="S" unicode="S" horiz-adv-x="672" 
d="M183 218l1 -73q15 -6 32 -9.5t34 -6t32 -3.5t26 -1q61 0 85.5 20t24.5 48q0 25 -14 38t-38 21q-70 23 -128.5 42.5t-100.5 43.5t-65 58t-23 87q0 102 72.5 159.5t215.5 57.5q28 0 59.5 -2.5t63 -8t61.5 -14.5t56 -21q0 -44 0.5 -87t0.5 -87h-133q0 18 -0.5 36t-0.5 35
q-20 8 -48.5 12t-47.5 4q-53 0 -75 -19t-22 -44q0 -17 12 -30t32 -23t45.5 -18.5t52.5 -16.5q51 -15 94.5 -31.5t76 -40.5t51 -58.5t18.5 -85.5q0 -103 -78 -157.5t-235 -54.5q-65 0 -134.5 10.5t-132.5 36.5q0 45 -0.5 91t-0.5 92h131z" />
    <glyph glyph-name="T" unicode="T" horiz-adv-x="695" 
d="M170 0v122h82v446h-104l1 -117h-131v240h659v-240h-131v117h-103v-446h81v-122h-354z" />
    <glyph glyph-name="U" unicode="U" horiz-adv-x="800" 
d="M707 259q0 -64 -17.5 -114t-55 -84.5t-95.5 -52.5t-138 -18q-84 0 -143.5 18.5t-96.5 53t-54 84.5t-17 113v309h-56v123h305v-123h-59v-318q0 -67 31 -97t91 -30q25 0 46.5 6.5t37.5 21.5t25 39.5t9 59.5v318h-57v123h303v-123h-59v-309z" />
    <glyph glyph-name="V" unicode="V" horiz-adv-x="779" 
d="M463 690h303v-123h-53l-201 -567h-242l-206 567h-52v123h312v-123h-59q26 -85 52 -165.5t52 -164.5l24 -80h4q6 20 12.5 40t11.5 41q26 82 51 164.5t52 164.5h-61v123z" />
    <glyph glyph-name="W" unicode="W" horiz-adv-x="1135" 
d="M563 307l-30 -98l-65 -209h-241l-160 567h-54v124h318v-124h-56l56 -226l42 -177h3l49 175l53 180l-16 48h-57l-1 124h314l1 -124h-65l73 -225l52 -156h3l37 167l51 214h-59v124h313v-124h-58q-3 -13 -15.5 -56.5t-29.5 -102t-36 -125t-36 -125t-29.5 -102t-15.5 -56.5
h-242l-66 210l-30 97h-3z" />
    <glyph glyph-name="X" unicode="X" horiz-adv-x="765" 
d="M460 691h274v-124h-55l-173 -224l165 -220h67v-123h-356v123h47l-92 135l-94 -135h50v-123h-272v123h55l173 242l-145 201h-79v125h358v-125h-47l86 -122l88 123h-50v124z" />
    <glyph glyph-name="Y" unicode="Y" horiz-adv-x="733" 
d="M476 567h-57v124h300v-124h-52l-199 -317v-128h75v-122h-359v122h76v127l-196 318h-50v124h303v-124h-55l105 -190h4z" />
    <glyph glyph-name="Z" unicode="Z" horiz-adv-x="672" 
d="M274 123h239v135h133v-258h-618v121l350 448h-194v-118h-132v240h575v-117z" />
    <glyph glyph-name="bracketleft" unicode="[" horiz-adv-x="355" 
d="M70 -159v860h250v-101h-93v-665h93v-94h-250z" />
    <glyph glyph-name="backslash" unicode="\" horiz-adv-x="402" 
d="M3 711h133l261 -748h-133z" />
    <glyph glyph-name="bracketright" unicode="]" horiz-adv-x="355" 
d="M43 -159v94h94v665h-94v101h251v-860h-251z" />
    <glyph glyph-name="asciicircum" unicode="^" horiz-adv-x="522" 
d="M373 336l-118 213l-116 -213h-121l196 341h83q49 -86 98 -170.5t99 -170.5h-121z" />
    <glyph glyph-name="underscore" unicode="_" horiz-adv-x="500" 
d="M0 -156v89h501v-89h-501z" />
    <glyph glyph-name="grave" unicode="`" horiz-adv-x="545" 
d="M168 670l84 99l169 -176l-55 -63z" />
    <glyph glyph-name="a" unicode="a" horiz-adv-x="608" 
d="M518 120h68q2 -26 4 -51t4 -51q-32 -15 -73 -22.5t-79 -7.5q-36 0 -62 13t-28 54l-1 1q-23 -24 -47.5 -38t-46.5 -20.5t-40 -8t-28 -1.5q-48 0 -78.5 14.5t-48.5 36t-24.5 47t-6.5 46.5q0 26 8 49.5t28 42.5t54 33t87 20l133 12v16q0 33 -16.5 50.5t-61.5 17.5
q-35 0 -77 -6t-73 -16l-28 112q22 9 49.5 16.5t57 13t59.5 8t59 2.5q48 0 86.5 -9t65.5 -29.5t41.5 -54.5t14.5 -83v-207zM272 204q-26 -4 -37 -18t-11 -31q0 -26 11.5 -40.5t39.5 -14.5q16 0 33 7.5t31 20.5v85z" />
    <glyph glyph-name="b" unicode="b" horiz-adv-x="661" 
d="M357 -11q-18 0 -49.5 2t-69.5 8.5t-79.5 18t-79.5 29.5v555h-62v118h250v-252q38 22 75 30t60 8q63 0 104.5 -19.5t66 -54t35 -82t10.5 -103.5q0 -51 -11 -97.5t-40.5 -82t-80 -57t-129.5 -21.5zM351 373q-20 0 -41.5 -7.5t-41.5 -18.5v-213q22 -9 42.5 -12.5t36.5 -3.5
t31.5 4.5t27 18t18.5 38.5t7 66q0 44 -7 69.5t-18.5 38.5t-26 16.5t-28.5 3.5z" />
    <glyph glyph-name="c" unicode="c" horiz-adv-x="529" 
d="M306 506q43 0 87 -6.5t82 -20.5v-167h-122v60q-7 2 -16 2h-14q-25 0 -42.5 -9.5t-29 -26t-16.5 -39.5t-5 -49q0 -38 7.5 -62.5t21 -38.5t32 -20t40.5 -6q31 0 68 6t68 16q8 -27 16.5 -57t16.5 -58q-41 -20 -94.5 -30t-106.5 -10q-79 0 -129.5 20.5t-80 55.5t-40.5 81
t-11 97q0 45 11 92t40.5 84.5t81.5 61.5t135 24z" />
    <glyph glyph-name="d" unicode="d" horiz-adv-x="666" 
d="M400 41q-17 -14 -37.5 -23.5t-40.5 -15.5t-38.5 -9t-31.5 -3q-61 0 -102 19t-65.5 52t-34.5 78t-10 96q0 58 11.5 108t37.5 86t68 56.5t104 20.5q11 0 27 -1.5t33.5 -4.5t36 -8t34.5 -12v122h-68v118h256v-602h62v-118h-239v40zM309 374q-13 0 -27.5 -4t-26.5 -18
t-19.5 -41t-7.5 -72q0 -39 7 -62.5t18 -36t26 -16.5t30 -4q19 0 42 8t40 20v204q-18 10 -40 16t-42 6z" />
    <glyph glyph-name="e" unicode="e" horiz-adv-x="572" 
d="M301 380q-37 0 -53 -26t-17 -59h133q0 18 -3 33.5t-10 27t-19 18t-31 6.5zM300 505q72 0 117 -22t71 -56.5t35.5 -78.5t9.5 -87v-41h-305q0 -54 25.5 -76.5t83.5 -22.5q36 0 74.5 7.5t74.5 20.5l36 -110q-52 -28 -111 -39t-110 -11q-80 0 -130.5 21.5t-79.5 57.5t-40 82
t-11 95q0 47 13 93.5t43 83.5t80 60t124 23z" />
    <glyph glyph-name="f" unicode="f" horiz-adv-x="483" 
d="M44 118h61v257h-72v101l73 22v50q0 34 7.5 66.5t29.5 58t62.5 41.5t107.5 16q29 0 74 -4.5t86 -17.5l-25 -125q-23 5 -47.5 7t-41.5 2q-33 0 -52 -12t-19 -41v-47h141v-117h-141v-257h74v-118h-318v118z" />
    <glyph glyph-name="g" unicode="g" horiz-adv-x="631" 
d="M534 406q11 -16 17 -41t6 -42q0 -44 -19.5 -76.5t-53 -54t-77.5 -32.5t-93 -12l-59 -1q-49 0 -49 -29q0 -20 31 -20h152q47 0 85.5 -7.5t66.5 -24t43 -43.5t15 -66q0 -32 -14.5 -63.5t-51.5 -57t-99 -41t-156 -15.5q-72 0 -119.5 10.5t-75 27.5t-39 39t-11.5 46
q0 38 17.5 67.5t45.5 46.5q-26 8 -39.5 28t-13.5 47q0 32 22 56.5t60 38.5q-31 14 -51 46.5t-20 82.5t21 85.5t55.5 58.5t80 33.5t93.5 10.5q33 0 62.5 -3.5t49.5 -8.5h187v-82h-64zM249 -7q-14 -6 -23 -19t-9 -24q0 -20 19 -34t68 -14q45 0 72.5 14t27.5 35
q0 19 -14.5 30.5t-43.5 11.5h-97zM368 324q0 24 -14.5 43t-49.5 19q-31 0 -46 -18.5t-15 -44.5q0 -28 15 -43.5t44 -15.5q28 0 47 14.5t19 45.5z" />
    <glyph glyph-name="h" unicode="h" horiz-adv-x="689" 
d="M81 0v602h-61v117h250v-271q38 28 78.5 42.5t79.5 14.5q48 0 80.5 -14t52.5 -38t28.5 -56.5t8.5 -68.5v-204h64v-111q-30 -11 -65 -17.5t-64 -6.5q-39 0 -63.5 9.5t-37.5 25.5t-17.5 36.5t-4.5 42.5v187q0 39 -15 55.5t-46 16.5q-18 0 -40 -8.5t-39 -21.5v-332h-189z" />
    <glyph glyph-name="i" unicode="i" horiz-adv-x="390" 
d="M45 374v119h238v-368h69v-111q-29 -13 -67 -19.5t-67 -6.5q-70 0 -96.5 28t-27.5 83v275h-49zM293 653q0 -22 -8.5 -41.5t-23.5 -34.5t-34.5 -23.5t-41.5 -8.5q-23 0 -42.5 8.5t-34 23.5t-23 34.5t-8.5 41.5t8.5 42t23 34.5t34 23t42.5 8.5q22 0 41.5 -8.5t34.5 -23
t23.5 -34.5t8.5 -42z" />
    <glyph glyph-name="k" unicode="k" horiz-adv-x="658" 
d="M466 316l108 -201l68 -12v-101q-14 -5 -31.5 -8t-35.5 -5t-34 -3t-25 -1q-14 0 -27.5 1t-27 5.5t-25.5 14.5t-21 27l-87 178l-48 -36v-58h46v-117h-296v117h60v485h-63v114h253v-379l89 70v85h243v-117h-68z" />
    <glyph glyph-name="l" unicode="l" horiz-adv-x="392" 
d="M292 118h63v-118h-314v118h62v483h-64v118h253v-601z" />
    <glyph glyph-name="m" unicode="m" horiz-adv-x="990" 
d="M440 504q51 0 79.5 -17.5t46.5 -53.5q18 17 40 30t44.5 22t45 14t41.5 5q46 0 77.5 -13t50.5 -36t27 -56t8 -73v-202h61v-111q-30 -11 -64 -17.5t-63 -6.5q-39 0 -63 8t-37.5 23.5t-18 39t-4.5 54.5v187q0 33 -11.5 46t-37.5 13q-17 0 -39 -8t-38 -20q2 -14 2 -28v-27
v-277h-186v305q0 23 -10 38.5t-34 15.5q-15 0 -37.5 -7t-42.5 -21v-331h-189v375h-62v118h245v-47l4 -2q40 31 85 45.5t80 14.5z" />
    <glyph glyph-name="n" unicode="n" horiz-adv-x="696" 
d="M435 505q48 0 81 -14t52.5 -38t28 -56t8.5 -69v-204h64v-110q-30 -13 -65 -19t-64 -6q-41 0 -65 11t-37 28.5t-17 38t-4 39.5v184q0 39 -14.5 55.5t-46.5 16.5q-18 0 -40 -8.5t-39 -21.5v-332h-190v376h-60v117h246v-43q1 0 3 -0.5t3 -0.5q38 26 78 41t78 15z" />
    <glyph glyph-name="o" unicode="o" horiz-adv-x="628" 
d="M588 247q0 -54 -16.5 -101t-50.5 -81.5t-86 -54.5t-123 -20q-70 0 -121.5 19.5t-85 53.5t-49.5 81t-16 103q0 54 16.5 101t50.5 81.5t86 54.5t122 20t121.5 -20t85.5 -54.5t50 -81.5t16 -101zM395 247q0 25 -3.5 48t-12 41t-24 28.5t-39.5 10.5q-25 0 -41 -11t-25.5 -29
t-13 -41t-3.5 -47q0 -27 3.5 -51t12.5 -42t24.5 -28t40.5 -10q24 0 40 10.5t25 28t12.5 41.5t3.5 51z" />
    <glyph glyph-name="p" unicode="p" horiz-adv-x="665" 
d="M25 -94h62v468h-61v118h238v-41l3 -1q17 14 37 24t40.5 16t39 9t31.5 3q61 0 102 -19t65.5 -52.5t34.5 -78t10 -95.5q0 -59 -11.5 -108t-37.5 -84t-68.5 -55t-103.5 -20q-11 0 -26.5 1.5t-33.5 4.5t-36.5 8t-34.5 13v-111h65v-118h-315v118zM358 122q13 0 27.5 4.5
t26.5 19t19.5 40.5t7.5 68q0 39 -7 62t-18 35t-26 15.5t-30 3.5q-19 0 -42 -8t-40 -20v-197q18 -11 40 -17t42 -6z" />
    <glyph glyph-name="q" unicode="q" horiz-adv-x="654" 
d="M330 -93h64v119q-38 -22 -75 -30.5t-60 -8.5q-58 0 -99 17t-67.5 48.5t-38 76t-11.5 98.5t12.5 104t44 88.5t85.5 61.5t138 23q18 0 47.5 -2t64.5 -7.5t73.5 -15.5t73.5 -27v-545h62v-119h-314v119zM310 121q21 0 42 6.5t41 17.5v215q-15 5 -33 8.5t-35 3.5
q-19 0 -36.5 -6t-30.5 -20t-20.5 -38t-7.5 -61q0 -43 7 -68t18.5 -38t26 -16.5t28.5 -3.5z" />
    <glyph glyph-name="r" unicode="r" horiz-adv-x="521" 
d="M285 416q17 14 39 29.5t47 28t51.5 21t51.5 8.5q23 0 31.5 -12.5t8.5 -40.5q0 -15 -3 -34.5t-9.5 -39t-16.5 -38t-25 -32.5l-177 26v-214h60v-118h-306v118h58v257h-54v119h239v-76z" />
    <glyph glyph-name="s" unicode="s" horiz-adv-x="552" 
d="M159 167v-25.5t1 -25.5q12 -6 37 -10t48 -4q29 0 50.5 9.5t21.5 26.5q0 25 -17 32t-46 15q-41 12 -80 24t-69.5 29.5t-49.5 43t-19 63.5q0 78 61 118.5t177 40.5q49 0 103.5 -9.5t96.5 -29.5v-66t1 -66h-125q0 12 -0.5 24t-0.5 24q-14 5 -29 7t-29 2q-27 0 -43.5 -10
t-16.5 -27t20 -25.5t43 -14.5q30 -8 68.5 -16.5t72 -26.5t57 -49t23.5 -83q0 -72 -62.5 -110t-193.5 -38q-21 0 -48.5 1.5t-57.5 6t-60 11.5t-57 19v69t-1 70h124z" />
    <glyph glyph-name="t" unicode="t" horiz-adv-x="465" 
d="M268 639v-146h139v-118h-139v-170q0 -46 14 -61t54 -15q11 0 32.5 2t45.5 7l21 -120q-17 -7 -37 -12.5t-40 -9t-39.5 -5.5t-35.5 -2q-67 0 -107 15.5t-61 39.5t-27.5 53.5t-6.5 58.5v219h-68v102l82 24l43 127z" />
    <glyph glyph-name="u" unicode="u" horiz-adv-x="685" 
d="M357 493h238v-369h62v-111q-45 -15 -78.5 -19.5t-54.5 -4.5q-55 0 -78.5 18.5t-29.5 53.5q-37 -35 -79 -54.5t-87 -19.5q-81 0 -121.5 43t-40.5 124v220h-61v119h251v-295q0 -34 10.5 -49.5t42.5 -15.5q12 0 34 7.5t41 27.5v207h-49v118z" />
    <glyph glyph-name="v" unicode="v" horiz-adv-x="668" 
d="M340 136q2 7 8 25l12.5 37.5t12.5 37t8 24.5l38 114h-34v119h258v-119h-40q-4 -11 -15.5 -40t-27 -67t-33.5 -80t-33.5 -80t-27 -67t-15.5 -40h-237l-14 38.5t-23.5 64t-28.5 76.5t-28 76.5t-23.5 64t-13.5 38.5h-58v135h196l73 -225l42 -132h4z" />
    <glyph glyph-name="w" unicode="w" horiz-adv-x="952" 
d="M661 124l36 117l39 134h-47v118h254v-118l-40 -1l-122 -374h-237l-41 113l-31 95h-4l-65 -208h-232l-112 358h-50v135h187l68 -237l36 -133h6l38 123l34 111l-7 17h-58v119h293v-119h-42l52 -139l40 -111h5z" />
    <glyph glyph-name="x" unicode="x" horiz-adv-x="645" 
d="M355 322l57 61h-38v110h238v-110h-33l-142 -141l126 -132h56v-110h-307v110h40l-69 73l-62 -73h38v-110h-229v110h43l130 152l-115 121h-51v110h305v-110h-45z" />
    <glyph glyph-name="y" unicode="y" horiz-adv-x="651" 
d="M399 -119q-9 -23 -21 -41.5t-29 -32t-41 -21t-57 -7.5q-7 0 -24 1t-39.5 4t-48 8t-49.5 14l22 125q5 -1 15 -2.5t21 -3t20.5 -2.5t13.5 -1q35 -1 49.5 8.5t25.5 36.5l20 52h-88q-5 15 -14.5 42.5t-21.5 60.5t-24.5 69t-24.5 69.5t-22 60.5t-15 43h-49v129h189l110 -371h4
q1 5 7.5 24t14.5 45t17.5 55.5t18 56t15 46l8.5 25.5h-47v119h275v-119h-45z" />
    <glyph glyph-name="z" unicode="z" horiz-adv-x="568" 
d="M264 109h147v76h121v-185h-497v99l254 284h-121v-71h-121v181h472v-96z" />
    <glyph glyph-name="braceleft" unicode="{" horiz-adv-x="376" 
d="M246 -164q-35 0 -61 12t-43 32t-26 47.5t-9 58.5v162q0 41 -19.5 59.5t-55.5 23.5v96q36 5 55.5 25t19.5 59v140q0 30 7.5 57.5t23.5 49t42 34t64 12.5h114v-99h-31q-38 0 -49.5 -19.5t-11.5 -45.5v-152q0 -42 -19.5 -69.5t-58.5 -35.5v-3q45 -11 61.5 -42t16.5 -77v-164
q0 -13 2 -25t8.5 -21t18 -14.5t31.5 -5.5h32v-95h-112z" />
    <glyph glyph-name="bar" unicode="|" horiz-adv-x="369" 
d="M122 -152v865h125v-865h-125z" />
    <glyph glyph-name="braceright" unicode="}" horiz-adv-x="376" 
d="M22 -164v95h31q19 0 31 5.5t19 14.5t9 21t2 25v164q0 46 16 77t61 42v3q-39 8 -58 35.5t-19 69.5v152q0 26 -12 45.5t-50 19.5h-30v99h113q37 0 63.5 -12.5t43 -34t24 -49t7.5 -57.5v-140q0 -43 19.5 -61t54.5 -23v-96q-35 -5 -54.5 -23t-19.5 -60v-162q0 -31 -9 -58.5
t-26.5 -47.5t-44 -32t-60.5 -12h-111z" />
    <glyph glyph-name="asciitilde" unicode="~" horiz-adv-x="630" 
d="M437 217q-33 0 -67.5 7t-66.5 15.5t-60 15.5t-50 7l-67 -46l-62 46q26 70 62 97.5t80 27.5q29 0 61 -7t63.5 -15t61.5 -15t57 -7l67 48l60 -46q-23 -64 -56.5 -96t-82.5 -32z" />
    <glyph glyph-name="endash" unicode="&#x2013;" horiz-adv-x="500" 
d="M47 204v108h407v-108h-407z" />
    <glyph glyph-name="emdash" unicode="&#x2014;" horiz-adv-x="1000" 
d="M63 204v108h873v-108h-873z" />
    <glyph glyph-name="quoteleft" unicode="&#x2018;" horiz-adv-x="290" 
d="M241 502q0 -17 -7 -33t-19.5 -28t-30 -19t-38.5 -7q-26 0 -44 9.5t-29.5 24.5t-17 34.5t-5.5 39.5q0 33 12.5 65.5t33.5 61.5t48 52t55 37l45 -60q-28 -23 -43.5 -45t-20.5 -54q32 -5 46.5 -25.5t14.5 -52.5z" />
    <glyph glyph-name="quoteright" unicode="&#x2019;" horiz-adv-x="290" 
d="M53 652q0 18 7 34t19.5 28t30.5 19t39 7q26 0 44 -9.5t29.5 -25t16.5 -35t5 -39.5q0 -33 -12.5 -65.5t-33 -61t-47.5 -51.5t-55 -37l-45 59q28 23 43.5 45t20.5 54q-32 5 -47 26t-15 52z" />
    <glyph glyph-name="quotedblleft" unicode="&#x201c;" horiz-adv-x="487" 
d="M235 502q0 -35 -26.5 -61t-69.5 -26q-26 0 -44 9.5t-29 24.5t-16.5 34.5t-5.5 39.5q0 33 12.5 65.5t33.5 61t47.5 52t55.5 37.5l22 -30t23 -30q-28 -23 -44 -45t-20 -54q32 -5 46.5 -25.5t14.5 -52.5zM444 502q0 -17 -7 -33t-19.5 -28t-30 -19t-38.5 -7q-26 0 -44 9.5
t-29.5 24.5t-17 34.5t-5.5 39.5q0 33 12.5 65.5t33.5 61.5t47.5 52t54.5 37q12 -15 23 -30t23 -30q-27 -23 -43.5 -45t-20.5 -54q32 -5 46.5 -25.5t14.5 -52.5z" />
    <glyph glyph-name="quotedblright" unicode="&#x201d;" horiz-adv-x="487" 
d="M258 652q0 18 7 34t19.5 28t30.5 19t39 7q25 0 43.5 -9.5t29.5 -25t16.5 -35t5.5 -39.5q0 -33 -12.5 -65.5t-33 -61t-47.5 -51.5t-55 -37l-46 59q28 23 44 45t20 54q-32 5 -46.5 26t-14.5 52zM48 652q0 18 7 34t19.5 28t30.5 19t40 7q25 0 43.5 -9.5t29.5 -25t16.5 -35
t5.5 -39.5q0 -33 -12.5 -65.5t-33.5 -61t-48 -51.5t-55 -37l-46 59q29 23 44.5 45t19.5 54q-32 5 -46.5 26t-14.5 52z" />
    <glyph glyph-name="bullet" unicode="&#x2022;" horiz-adv-x="449" 
d="M370 268q0 -30 -11.5 -57t-31 -47t-46 -31.5t-56.5 -11.5t-57 11.5t-46.5 31.5t-31 47t-11.5 57t11.5 57t31 46.5t46.5 31t57 11.5t56.5 -11.5t46 -31t31 -46.5t11.5 -57z" />
    <glyph glyph-name="quotesinglbase" unicode="&#x201a;" horiz-adv-x="305" 
d="M53 87q0 18 7 34t20 28t31 19t40 7q26 0 44.5 -9.5t30.5 -25t17.5 -35t5.5 -40.5q0 -33 -11.5 -66.5t-31.5 -63.5t-47.5 -55.5t-59.5 -42.5l-47 61q30 26 45.5 52t20.5 58q-35 4 -50 25.5t-15 53.5z" />
    <glyph glyph-name="quotedblbase" unicode="&#x201e;" horiz-adv-x="530" 
d="M53 87q0 18 7 34t20 28t31 19t40 7q26 0 44.5 -9.5t30.5 -25t17.5 -35t5.5 -40.5q0 -33 -11.5 -66.5t-31.5 -63.5t-47.5 -55.5t-59.5 -42.5l-47 61q30 26 45.5 52t20.5 58q-35 4 -50 25.5t-15 53.5zM281 87q0 18 7 34t19.5 28t30.5 19t40 7q27 0 45.5 -9.5t30.5 -25
t17.5 -35t5.5 -40.5q0 -33 -11.5 -66.5t-32 -63.5t-48 -55.5t-59.5 -42.5l-47 61q30 26 46 52t20 58q-34 4 -49 25.5t-15 53.5z" />
    <glyph glyph-name="alpha" unicode="&#x3b1;" horiz-adv-x="661" 
d="M574 120h61l1 -110q-13 -5 -30 -8.5t-35 -6.5t-35.5 -4.5t-32.5 -1.5q-16 0 -31 2t-27.5 8t-22.5 18t-16 32q-22 -21 -46.5 -33t-47 -18.5t-41 -8t-28.5 -1.5q-66 0 -107 24t-63.5 61t-30.5 82.5t-8 89.5q0 48 12.5 94.5t39.5 83t70 58.5t104 22q33 0 71 -11.5t73 -36.5
l19 38h151v-373zM300 132q37 0 86 31v181q-17 11 -39 20.5t-39 9.5q-38 0 -62 -28t-24 -93q0 -38 7 -62t18.5 -37t25 -17.5t27.5 -4.5z" />
    <glyph glyph-name="beta" unicode="&#x3b2;" horiz-adv-x="614" 
d="M40 -181q1 30 1 75.5v94v93.5v73v309q0 47 12.5 93.5t42 84t78 61t121.5 23.5q66 0 112 -16.5t74.5 -42.5t41.5 -58.5t13 -65.5q0 -48 -20 -84.5t-55 -53.5q36 -11 58.5 -31t35 -45t17 -52.5t4.5 -54.5q0 -113 -58 -171.5t-157 -58.5q-34 0 -70 8.5t-62 22.5v-204h-189z
M298 599q-34 0 -50 -21.5t-16 -61.5v-374q19 -11 39.5 -15.5t35.5 -4.5q45 0 65.5 30t20.5 87q0 45 -21.5 73.5t-80.5 28.5h-23v104h23q31 0 50.5 20.5t19.5 58.5q0 37 -18 56t-45 19z" />
    <glyph glyph-name="gamma" unicode="&#x3b3;" horiz-adv-x="663" 
d="M233 -13q-4 11 -17.5 39.5t-31 66.5t-38 81t-38.5 81l-31.5 66.5t-17.5 39.5h-53v132h194l8 -20t13.5 -35.5t17 -43t17 -42.5t13.5 -35l8 -20q1 -3 8 -21t15 -39.5t15.5 -39.5t8.5 -21h3l38 103q2 7 7.5 20t11 27.5t11 28t7.5 19.5h-31v119h267v-119h-47
q-4 -10 -16.5 -39t-30 -67.5t-37.5 -81.5t-37 -81t-30 -67.5t-16 -39.5v-210h-192z" />
    <glyph glyph-name="delta" unicode="&#x3b4;" horiz-adv-x="617" 
d="M318 725q46 0 100 -8t94 -26v-134h-122v43q-12 5 -26 7.5t-28 2.5q-26 0 -44 -11t-18 -34t18 -33t36 -17q57 -22 103 -45.5t78.5 -55t50 -74t17.5 -102.5q0 -51 -16 -96.5t-50 -79t-85.5 -53t-121.5 -19.5q-69 0 -120 19t-84 52t-49 78t-16 98q0 69 30.5 125.5t93.5 86.5
q-33 22 -52.5 49.5t-19.5 66.5q0 76 58 118t173 42zM300 370q-20 -4 -34 -17t-23 -31t-13.5 -40t-4.5 -45q0 -26 3.5 -47.5t13 -38t25.5 -25.5t41 -9q24 0 39 9.5t24 26t12.5 38.5t3.5 46q0 21 -3 41.5t-12 38.5t-26 31.5t-46 21.5z" />
    <glyph glyph-name="epsilon" unicode="&#x3b5;" horiz-adv-x="486" 
d="M262 507q66 0 117 -10.5t74 -21.5v-134h-117v50q-10 3 -23.5 4t-23.5 1q-32 0 -48 -13.5t-16 -33.5q0 -22 14.5 -32.5t37.5 -10.5h57v-99h-57q-21 0 -38.5 -10t-17.5 -35q0 -29 23.5 -41t66.5 -12q29 0 65.5 6t71.5 19l31 -105q-33 -16 -89.5 -29t-129.5 -13
q-118 0 -173 43t-55 109q0 33 19.5 66t57.5 47v2q-35 13 -53.5 39.5t-18.5 60.5q0 30 13.5 57.5t41 48.5t70 34t100.5 13z" />
    <glyph glyph-name="zeta" unicode="&#x3b6;" horiz-adv-x="483" 
d="M305 610h-132v-54h-111v161h441v-107q-69 -54 -119.5 -108t-84.5 -103.5t-50.5 -92t-16.5 -75.5q0 -20 8.5 -34.5t27.5 -26.5t50 -24t76 -28q55 -20 78 -47.5t23 -59.5q0 -26 -12.5 -53.5t-33 -55t-47.5 -53.5t-56 -49l-85 78q7 10 16.5 22.5t18.5 25t15.5 24t6.5 19.5
q0 22 -44 35q-53 16 -95 34.5t-71 42.5t-44 54.5t-15 70.5q0 42 20 93.5t54.5 105.5t81.5 106t101 94z" />
    <glyph glyph-name="eta" unicode="&#x3b7;" horiz-adv-x="693" 
d="M433 505q48 0 81 -14t52.5 -38t28 -56t8.5 -69v-204h64v-110q-30 -13 -65 -19t-64 -6q-41 0 -65 11t-37 28.5t-17 38t-4 39.5v184q0 39 -14.5 55.5t-46.5 16.5q-18 0 -40 -8.5t-39 -21.5v-332h-190v376h-60v117h246v-43q1 0 3 -0.5t3 -0.5q38 26 78 41t78 15z" />
    <glyph glyph-name="theta" unicode="&#x3b8;" horiz-adv-x="614" 
d="M577 363q0 -77 -14 -145t-46 -119t-84.5 -80.5t-129.5 -29.5t-128.5 29.5t-83 79.5t-45 116t-13.5 139q0 80 15 148.5t47.5 118.5t85 78.5t127.5 28.5q76 0 127.5 -29t83 -78.5t45 -115.5t13.5 -141zM222 304q0 -48 2 -84t11 -60t25.5 -35.5t44.5 -11.5q25 0 40.5 13.5
t24.5 38.5t12.5 60t4.5 79h-165zM386 417q0 43 -3.5 76.5t-12.5 56.5t-24.5 35.5t-39.5 12.5q-25 0 -41 -12.5t-25 -36t-13 -57t-5 -75.5h164z" />
    <glyph glyph-name="upsilon" unicode="&#x3c5;" horiz-adv-x="656" 
d="M592 493v-273q0 -60 -20 -104t-54.5 -72.5t-82 -42t-102.5 -13.5q-126 0 -191 57t-65 152v177h-52v119h241v-301q0 -32 16 -52t52 -20q11 0 23.5 4t22.5 13t16.5 23.5t6.5 35.5v297h189z" />
    <glyph glyph-name="omega" unicode="&#x3c9;" horiz-adv-x="839" 
d="M497 333l1 -148q1 -31 15.5 -49.5t40.5 -18.5q34 0 48.5 28.5t14.5 94.5q0 52 -15.5 92t-54.5 55l29 116q63 -6 106.5 -28t70.5 -56.5t39 -80t12 -97.5q0 -51 -12.5 -96.5t-40.5 -79.5t-72.5 -54t-108.5 -20q-43 0 -84 16t-66 53h-6q-26 -37 -68.5 -53t-85.5 -16
q-66 0 -109 20t-69 54t-36.5 79.5t-10.5 96.5q0 52 12 97.5t39 80t70.5 56.5t106.5 28l28 -116q-39 -15 -54 -55t-15 -92q0 -60 12.5 -91.5t50.5 -31.5q28 0 43 18.5t15 49.5v148h154z" />
    <glyph glyph-name="rho" unicode="&#x3c1;" horiz-adv-x="622" 
d="M310 122q15 0 30.5 5.5t28 19.5t20.5 39.5t8 66.5q0 39 -7.5 62.5t-19.5 36.5t-27.5 17.5t-30.5 4.5q-34 0 -58.5 -29t-24.5 -84v-117q17 -11 39 -16.5t42 -5.5zM40 196q0 90 24 149.5t63.5 94.5t90.5 49t106 14q69 0 118 -20t80.5 -54.5t46 -81t14.5 -99.5
q0 -57 -12.5 -104t-39.5 -81t-69.5 -53t-102.5 -19q-23 0 -61 5.5t-70 20.5v-224h-191q0 27 0.5 65t1 75t0.5 68v45z" />
    <glyph glyph-name="xi" unicode="&#x3be;" horiz-adv-x="494" 
d="M306 728q15 0 36.5 -1.5t45.5 -5t48 -8.5t45 -12l-27 -123q-45 11 -77.5 14.5t-52.5 3.5q-29 0 -46.5 -7.5t-27 -18.5t-12.5 -24.5t-3 -25.5q0 -38 27 -54.5t69 -16.5h94v-121h-88q-29 0 -50.5 -8t-35 -21.5t-20 -32t-6.5 -38.5t7.5 -33t25 -25t46 -24.5t70.5 -30.5
q69 -30 103 -55.5t34 -63.5q0 -24 -12 -51t-31.5 -54.5t-44 -54t-49.5 -49.5l-93 72q20 25 34 47t14 36q0 12 -11.5 20.5t-35.5 19.5q-47 22 -91.5 41.5t-78.5 45t-54.5 61t-20.5 91.5q0 55 29.5 102t83.5 68q-35 12 -54.5 32.5t-30 42.5t-13 42t-2.5 32q0 37 15 71.5t46 60
t79.5 41t115.5 15.5z" />
    <glyph glyph-name="nu" unicode="&#x3bd;" horiz-adv-x="668" 
d="M340 136q2 7 8 25l12.5 37.5t12.5 37t8 24.5l38 114h-34v119h258v-119h-40q-4 -11 -15.5 -40t-27 -67t-33.5 -80t-33.5 -80t-27 -67t-15.5 -40h-237l-14 38.5t-23.5 64t-28.5 76.5t-28 76.5t-23.5 64t-13.5 38.5h-58v135h196l73 -225l42 -132h4z" />
    <glyph glyph-name="omicron" unicode="&#x3bf;" horiz-adv-x="628" 
d="M588 247q0 -54 -16.5 -101t-50.5 -81.5t-86 -54.5t-123 -20q-70 0 -121.5 19.5t-85 53.5t-49.5 81t-16 103q0 54 16.5 101t50.5 81.5t86 54.5t122 20t121.5 -20t85.5 -54.5t50 -81.5t16 -101zM395 247q0 25 -3.5 48t-12 41t-24 28.5t-39.5 10.5q-25 0 -41 -11t-25.5 -29
t-13 -41t-3.5 -47q0 -27 3.5 -51t12.5 -42t24.5 -28t40.5 -10q24 0 40 10.5t25 28t12.5 41.5t3.5 51z" />
    <glyph glyph-name="Euro" unicode="&#x20ac;" horiz-adv-x="630" 
d="M401 682q49 0 92 -7.5t83 -19.5v-176h-123v59q-23 6 -49 6q-65 0 -98 -34t-43 -95h198v-61h-435v61h51q7 52 26.5 100.5t57.5 85.5t96.5 59t143.5 22zM26 314h435v-57h-195q24 -123 151 -123q10 0 22 1t26 3v57h122v-179q-41 -12 -96 -19.5t-102 -7.5q-80 0 -136.5 21
t-93.5 57.5t-56.5 85.5t-25.5 104h-51v57z" />
    <glyph glyph-name="Phi" unicode="&#x3a6;" horiz-adv-x="936" 
d="M376 520q-67 -8 -105 -54.5t-38 -113.5q0 -68 36 -111.5t107 -53.5v333zM564 187q28 4 53.5 17t44 34.5t29.5 50.5t11 64q0 33 -8 61.5t-25 51t-43 37t-62 17.5v-333zM564 649q79 -4 141 -28t104.5 -63t64.5 -90.5t22 -111.5q0 -63 -22.5 -115.5t-65.5 -91.5
t-104.5 -62.5t-139.5 -28.5v-58h-188v58q-79 4 -141 26.5t-105.5 61t-66.5 91.5t-23 118q0 60 24.5 112t69 91.5t106 63.5t136.5 28v41h188v-42z" />
    <glyph glyph-name="Omega" unicode="&#x3a9;" horiz-adv-x="806" 
d="M673 122h100v-122h-324v125q54 16 76 68.5t22 159.5q0 108 -32.5 163t-107.5 55t-110 -57t-35 -161t21 -158t72 -69v-126h-326v122h103l3 4q-44 35 -60.5 96t-16.5 137q0 74 21.5 137.5t65 110t108 73t150.5 26.5q87 0 152.5 -25.5t109.5 -71.5t66 -108.5t22 -136.5
q0 -69 -18.5 -133t-62.5 -104z" />
    <glyph glyph-name="Psi" unicode="&#x3a8;" horiz-adv-x="970" 
d="M580 316q27 1 49.5 8t39.5 22.5t26.5 39.5t9.5 59v246h247v-122h-60v-108q-1 -125 -77 -196t-235 -75v-68h73v-122h-333v122h75v67q-84 3 -144.5 22.5t-98.5 55t-56 85.5t-18 113v104h-59v122h248l1 -247q0 -66 32 -96t95 -32v253h-52v122h287v-122h-50v-253z" />
    <glyph glyph-name="sterling" unicode="&#xa3;" horiz-adv-x="630" 
d="M128 380l6 81q8 109 66.5 168t173.5 59q65 0 113 -13t83 -27v-170h-126v68q-14 4 -28.5 6.5t-30.5 2.5q-41 0 -59.5 -25t-22.5 -79l-5 -71h133v-85h-140l-3 -42q-3 -42 -13 -77.5t-35 -59.5h324v-116h-514l1 116q39 30 51.5 67t16.5 79l2 33h-58v85h65z" />
    <glyph glyph-name="pi" unicode="&#x3c0;" horiz-adv-x="693" 
d="M272 375v-375h-186v375h-58v116h635v-116h-62v-251h69v-110q-15 -6 -32 -11t-35 -8.5t-35.5 -5t-31.5 -1.5q-37 0 -60.5 8t-37.5 22.5t-19.5 35.5t-5.5 47v274h-141z" />
    <glyph glyph-name="lambda" unicode="&#x3bb;" horiz-adv-x="644" 
d="M322 338l-119 -338h-188l175 456h100l-45 145l-121 21v94q20 9 42.5 14.5t44 9.5t40 5.5t29.5 1.5q31 0 52 -6.5t35.5 -17.5t24 -27t17.5 -35l179 -543h47l2 -107q-15 -6 -32.5 -10t-34.5 -6t-32 -3t-25 -1q-47 0 -69 19.5t-35 61.5l-83 266h-4z" />
    <glyph glyph-name="kappa" unicode="&#x3ba;" horiz-adv-x="666" 
d="M466 316l108 -201l68 -12v-101q-14 -5 -31.5 -8t-35.5 -5t-34 -3t-25 -1q-14 0 -27.5 1t-27 5.5t-25.5 14.5t-21 27l-87 178l-48 -36v-58h46v-117h-296v117h60v261h-63v114h253v-155l89 70v85h243v-117h-68z" />
    <glyph glyph-name="mu" unicode="&#xb5;" horiz-adv-x="662" 
d="M347 493h238v-369h62v-111q-45 -15 -78.5 -19.5t-54.5 -4.5q-55 0 -78.5 18.5t-29.5 53.5q-32 -30 -66 -48.5t-72 -23.5v-83h63v-117h-312v117h59v468h-61v119h251v-295q0 -34 10.5 -49.5t42.5 -15.5q12 0 34 7.5t41 27.5v207h-49v118z" />
    <glyph glyph-name="mu" unicode="&#x3bc;" horiz-adv-x="662" 
d="M347 493h238v-369h62v-111q-45 -15 -78.5 -19.5t-54.5 -4.5q-55 0 -78.5 18.5t-29.5 53.5q-32 -30 -66 -48.5t-72 -23.5v-83h63v-117h-312v117h59v468h-61v119h251v-295q0 -34 10.5 -49.5t42.5 -15.5q12 0 34 7.5t41 27.5v207h-49v118z" />
    <glyph glyph-name="phi" unicode="&#x3c6;" horiz-adv-x="821" 
d="M35 247q0 39 11 78t35 72.5t62.5 59t94.5 38.5l51 -89q-36 -24 -52.5 -64.5t-16.5 -94.5q0 -61 21 -96t79 -39v393h208q60 0 108 -18.5t81.5 -52t51 -80t17.5 -102.5q0 -57 -18 -104t-54.5 -81.5t-91 -54t-126.5 -21.5v-198h-180v198q-87 6 -142 30.5t-86 60t-42 79
t-11 86.5zM598 252q0 25 -4.5 48t-16 40.5t-31.5 28t-50 11.5v-266q51 2 76.5 35.5t25.5 102.5z" />
    <glyph glyph-name="chi" unicode="&#x3c7;" horiz-adv-x="645" 
d="M355 322l57 61h-38v110h238v-110h-33l-142 -141l126 -132h56v-110h-307v110h40l-69 73l-62 -73h38v-110h-229v110h43l130 152l-115 121h-51v110h305v-110h-45z" />
    <glyph glyph-name="psi" unicode="&#x3c8;" horiz-adv-x="865" 
d="M279 -95h64v90q-68 3 -120.5 21t-88.5 47.5t-55 69t-19 86.5v155h-45v119h230v-285q0 -15 5 -29t16.5 -25t30 -19t46.5 -9v371h-43v120h227v-491q53 2 75 27.5t22 60.5v279h229v-119h-46v-155q0 -47 -18.5 -86.5t-54.5 -69t-88 -47.5t-119 -21v-90h65v-118h-313v118z" />
    <glyph glyph-name="sigma" unicode="&#x3c3;" horiz-adv-x="630" 
d="M532 368q20 -24 30.5 -60t10.5 -71q0 -54 -17 -99t-50.5 -77.5t-84.5 -50.5t-118 -18q-70 0 -121 18.5t-84.5 51.5t-50 78.5t-16.5 100.5q0 52 17.5 98t52.5 80t87 53.5t122 19.5h301v-117h-76zM303 367q-24 0 -39.5 -10.5t-25 -28t-13.5 -40t-4 -47.5q0 -60 18 -93.5
t64 -33.5q43 0 62.5 35t19.5 92q0 25 -3.5 48t-13 40.5t-25.5 27.5t-40 10z" />
    <glyph glyph-name="tau" unicode="&#x3c4;" horiz-adv-x="494" 
d="M440 493v-118h-142v-173q0 -47 19.5 -62t63.5 -15q11 0 32.5 2.5t44.5 7.5l21 -117q-18 -7 -39 -12.5t-42 -9t-41 -5.5t-36 -2q-66 0 -107 15.5t-63.5 39.5t-30 53.5t-7.5 58.5v219h-104v118h431z" />
    <glyph glyph-name="iota" unicode="&#x3b9;" horiz-adv-x="378" 
d="M35 374v119h240v-368h69v-111q-15 -6 -32 -11t-35 -8.5t-35.5 -5t-31.5 -1.5q-70 0 -96.5 28t-27.5 83v275h-51z" />
    <glyph glyph-name="Alpha" unicode="&#x391;" horiz-adv-x="794" 
d="M526 121l-22 71h-227l-23 -71h61v-121h-295v121h54l210 569h237l198 -569h55v-121h-306v121h58zM468 307q-17 60 -35 117t-36 117h-4q-5 -18 -14 -46.5t-20 -61t-22 -66t-20 -60.5h151z" />
    <glyph glyph-name="Beta" unicode="&#x392;" horiz-adv-x="742" 
d="M598 362q31 -13 51.5 -33t31.5 -42.5t15.5 -45.5t4.5 -41q0 -46 -17 -83t-48 -63t-75 -40t-97 -14h-421v122h74v446h-72v122h408q115 0 171 -51t56 -137q0 -12 -3.5 -30.5t-12.5 -38t-25 -38t-41 -31.5v-2zM310 296v-174h99q45 0 67 25t22 61t-21.5 62t-67.5 26h-99z
M310 568v-158h89q39 0 60.5 22.5t21.5 57.5t-20 56.5t-62 21.5h-89z" />
    <glyph glyph-name="Gamma" unicode="&#x393;" horiz-adv-x="681" 
d="M44 0v122h73v447h-72v121h622v-235h-132v114h-225v-447h92v-122h-358z" />
    <glyph glyph-name="Epsilon" unicode="&#x395;" horiz-adv-x="713" 
d="M44 0v123h72v445h-71v122h621v-237h-132v115h-225v-157l212 8v-127l-212 6v-175h235v123h133v-246h-633z" />
    <glyph glyph-name="Zeta" unicode="&#x396;" horiz-adv-x="672" 
d="M274 123h239v135h133v-258h-618v121l350 448h-194v-118h-132v240h575v-117z" />
    <glyph glyph-name="Eta" unicode="&#x397;" horiz-adv-x="856" 
d="M484 0v122h63v176h-237v-176h63v-122h-329v122h74v446h-74v122h329v-122h-63v-156h237v156h-63v122h328v-122h-72v-446h72v-122h-328z" />
    <glyph glyph-name="Theta" unicode="&#x398;" horiz-adv-x="793" 
d="M294 410l203 2v-116l-203 1v113zM743 347q0 -77 -22 -142.5t-65 -113.5t-108 -75t-150 -27q-89 0 -154 26.5t-108.5 73.5t-64.5 113t-21 144q0 76 21 141.5t64 114t108.5 76t154.5 27.5t154 -27.5t107.5 -76t63 -114t20.5 -140.5zM537 346q0 46 -6 87t-22 72t-42.5 49
t-68.5 18t-70 -18.5t-44.5 -50t-23 -72t-6.5 -85.5q0 -53 7.5 -94.5t24.5 -70.5t44.5 -44.5t67.5 -15.5q38 0 64.5 16.5t43 46t24 71t7.5 91.5z" />
    <glyph glyph-name="Iota" unicode="&#x399;" horiz-adv-x="475" 
d="M70 0v122h72v446h-72v123h335v-123h-70v-446h70v-122h-335z" />
    <glyph glyph-name="Kappa" unicode="&#x39a;" horiz-adv-x="787" 
d="M510 421l202 -298h56v-123h-324l-1 123h53l-125 186l-67 -58v-129h61v-122h-321v122h73v447h-73v120h326v-120h-66v-165l188 165h-53v120h309v-120h-64z" />
    <glyph glyph-name="Lambda" unicode="&#x39b;" horiz-adv-x="781" 
d="M249 121h60v-121h-298v121h54l211 569h240l198 -569h55v-121h-306v121h58q-26 82 -51 162.5t-53 170.5l-25 87h-4l-39 -117z" />
    <glyph glyph-name="Mu" unicode="&#x39c;" horiz-adv-x="1043" 
d="M526 318q8 17 14.5 33.5t13.5 32.5q12 27 29 67t35 83.5t35.5 85t29.5 70.5h318v-122h-64v-447h64v-121h-309v121h57v330h-3l-16 -38t-16 -39q-12 -28 -26.5 -62t-29 -68.5t-28.5 -66.5t-24 -57h-160q-33 69 -63 135t-62 136q-6 15 -13 30t-13 30h-3v-330h63v-121h-316
v121h74v447h-74v122h318q32 -72 66.5 -148.5t66.5 -150.5q19 -41 32 -73h4z" />
    <glyph glyph-name="Nu" unicode="&#x39d;" horiz-adv-x="880" 
d="M589 264v304h-67v122h313v-122h-67v-568h-189l-159 245l-85 134l-44 71q-1 0 -1 -0.5t-1 -0.5v-328h68v-121h-315v121h70v447h-69v122h275q31 -49 58.5 -92.5t54.5 -86t54 -86t56 -91.5q11 -17 21.5 -34.5t21.5 -35.5h5z" />
    <glyph glyph-name="Xi" unicode="&#x39e;" horiz-adv-x="690" 
d="M176 546v-85h-132v229h599v-229h-132v85h-335zM522 145v101h132v-246h-618v246h133v-101h353zM199 299v114l293 2v-118z" />
    <glyph glyph-name="Omicron" unicode="&#x39f;" horiz-adv-x="793" 
d="M743 347q0 -77 -22 -142.5t-65 -113.5t-108 -75t-150 -27q-89 0 -154 26.5t-108.5 73.5t-64.5 113t-21 144q0 76 21 141.5t64 114t108.5 76t154.5 27.5t154 -27.5t107.5 -76t63 -114t20.5 -140.5zM537 346q0 46 -6 86.5t-22 71.5t-42.5 49t-68.5 18t-70 -18.5
t-44.5 -49.5t-23 -71.5t-6.5 -85.5q0 -53 7.5 -94.5t24.5 -70t44.5 -44t67.5 -15.5q38 0 64.5 16.5t43 46t24 70.5t7.5 91z" />
    <glyph glyph-name="Pi" unicode="&#x3a0;" horiz-adv-x="856" 
d="M484 0v122h63v447h-236v-447h63v-122h-330v122h74v447h-74v122h769v-122h-73v-447h73v-122h-329z" />
    <glyph glyph-name="Rho" unicode="&#x3a1;" horiz-adv-x="685" 
d="M659 472q0 -42 -14.5 -81t-44 -70t-74.5 -49.5t-106 -18.5h-113v-131h91v-122h-354v122h70v446h-70v123h361q68 0 116.5 -16.5t79 -45.5t44.5 -69t14 -88zM307 568v-197h61q42 0 65 24.5t23 71.5q0 52 -24 76.5t-69 24.5h-56z" />
    <glyph glyph-name="Delta" unicode="&#x394;" horiz-adv-x="767" 
d="M736 0h-707v112l246 578h227l234 -583v-107zM539 121q-31 83 -60 165.5t-60 166.5q-9 25 -18 49t-17 49h-3l-47 -125q-33 -85 -61.5 -159t-57.5 -146h324z" />
    <glyph glyph-name="Delta" unicode="&#x2206;" horiz-adv-x="767" 
d="M736 0h-707v112l246 578h227l234 -583v-107zM539 121q-31 83 -60 165.5t-60 166.5q-9 25 -18 49t-17 49h-3l-47 -125q-33 -85 -61.5 -159t-57.5 -146h324z" />
    <glyph glyph-name="Sigma" unicode="&#x3a3;" horiz-adv-x="686" 
d="M427 343q-40 -57 -79.5 -111.5t-79.5 -110.5h249v115h132v-236h-623v102l185 255q-45 59 -89 117t-89 117v99h604v-238h-130v117h-229l149 -197v-29z" />
    <glyph glyph-name="dagger" unicode="&#x2020;" horiz-adv-x="515" 
d="M330 383v-459h-150v459h-139v119h139v194h150v-194h145v-119h-145z" />
    <glyph glyph-name="ellipsis" unicode="&#x2026;" horiz-adv-x="856" 
d="M800 86q0 -20 -7.5 -37t-20.5 -30t-29.5 -20t-35.5 -7t-36.5 7t-30.5 20t-20.5 30t-7.5 37q0 19 7.5 35.5t20.5 29.5t30 20.5t36 7.5t36.5 -7.5t30 -20.5t20 -29.5t7.5 -35.5zM520 86q0 -20 -7.5 -37t-20.5 -30t-30 -20t-36 -7t-36 7t-30 20t-20.5 30t-7.5 37
q0 19 7.5 35.5t20 29.5t29.5 20.5t37 7.5q19 0 36 -7.5t30 -20.5t20.5 -29.5t7.5 -35.5zM243 86q0 -20 -7.5 -37t-20.5 -30t-29.5 -20t-35.5 -7q-20 0 -37 7t-30 20t-20.5 30t-7.5 37q0 19 7.5 35.5t20.5 29.5t30 20.5t37 7.5q19 0 36 -7.5t29.5 -20.5t20 -29.5t7.5 -35.5z
" />
    <glyph glyph-name="registered" unicode="&#xae;" horiz-adv-x="631" 
d="M584 461q0 -56 -20 -104.5t-56 -85t-85.5 -57.5t-107.5 -21t-107.5 21t-85.5 57.5t-56.5 85t-20.5 104.5t20 105t56 85.5t85.5 57.5t108.5 21t108.5 -21t85 -57.5t55.5 -85.5t20 -105zM529 461q0 44 -16 83t-44.5 68t-67.5 46t-86 17t-86 -17t-67.5 -46t-44.5 -68
t-16 -83t15.5 -82.5t43.5 -67.5t67.5 -46t87.5 -17q50 0 90 17t67.5 46t42 67.5t14.5 82.5zM360 527q0 19 -10 27t-26 8h-30v-72h27q17 0 28 7.5t11 29.5zM294 438v-60h26v-52h-137v52h29v183h-29v53h160q29 0 48.5 -7t31.5 -19t17.5 -28t5.5 -34q0 -19 -11 -41t-35 -33
l36 -75q1 0 6 -0.5t11 -1t11.5 -1.5t6.5 -1v-46q-13 -4 -30.5 -6t-26.5 -2q-23 0 -34 9.5t-19 29.5l-37 80h-30z" />
    <glyph glyph-name="trademark" unicode="&#x2122;" horiz-adv-x="937" 
d="M657 510q3 5 9 19.5t13 30.5t13 30.5t9 19.5l35 80h174v-68h-35v-225h35v-68h-170v68h31v156h-2l-39 -87q-2 -3 -6 -12.5t-9 -21t-9 -21.5t-5 -13h-87q-2 3 -6.5 13.5t-10 22t-10.5 21.5t-6 13q-3 5 -8.5 17t-11.5 25t-11.5 25t-7.5 17h-1v-155h34v-68h-175v68h40v225
h-40v68h173l38 -81q3 -6 9 -20t13.5 -30t13.5 -30t9 -19h1zM107 329v68h44v224h-50v-62h-73v131h354v-131h-73v62h-51v-224h44v-68h-195z" />
    <glyph glyph-name="copyright" unicode="&#xa9;" horiz-adv-x="878" 
d="M828 328q0 -81 -31 -152t-84.5 -124t-124.5 -83.5t-151 -30.5q-81 0 -152.5 30.5t-125 83.5t-84.5 124t-31 152t31 152t84.5 124t125 83.5t152.5 30.5q80 0 151 -30.5t124.5 -83.5t84.5 -124t31 -152zM755 328q0 65 -25 123t-68 101t-101 68t-124 25t-124 -25t-101.5 -68
t-68.5 -101t-25 -123t25 -123t68.5 -101t101.5 -68t124 -25t124 25t101 68t68 101t25 123zM348 324q0 -41 9 -68t25.5 -43.5t41 -23t56.5 -6.5q8 0 21 1t28 2.5t30 3.5t26 5l17 -86q-32 -13 -75 -19t-81 -6q-70 0 -115 19.5t-71 52t-36 75t-10 89.5q0 43 11 86.5t39 78.5
t76 56.5t122 21.5q37 0 67.5 -5.5t59.5 -13.5v-143h-84v62q-8 2 -19.5 3t-19.5 1q-62 0 -90 -37.5t-28 -105.5z" />
    <glyph glyph-name="sigma1" unicode="&#x3c2;" horiz-adv-x="504" 
d="M311 504q44 0 84.5 -6t77.5 -19v-32.5t-0.5 -50t-0.5 -50v-32.5h-120v59q-5 2 -13.5 3t-17.5 1q-51 0 -74 -33t-23 -87q0 -23 5 -42t19 -36.5t40 -35.5t68 -39q64 -32 90.5 -59.5t26.5 -59.5q0 -22 -12 -46.5t-33 -50t-48 -51t-57 -49.5l-88 80q21 26 34 48t13 33
q-1 22 -45 42q-54 25 -92.5 48.5t-63.5 52.5t-36.5 66t-11.5 89q0 51 14 98t46.5 82t86 56t131.5 21z" />
    <glyph glyph-name="yen" unicode="&#xa5;" horiz-adv-x="630" 
d="M61 314v60h82q-7 14 -18 38t-23.5 50.5t-23.5 50t-18 37.5h-45v120h270v-120h-50q6 -14 17 -40t23 -55t23.5 -55t17.5 -40h3q6 14 17 40.5t22.5 55t22.5 54.5t17 40h-51v120h266v-120h-44q-7 -14 -18.5 -37.5t-24 -50t-24 -50.5t-18.5 -38h86v-60h-509zM570 273v-60h-166
v-95h69v-118h-322v118h70v93l-1 2h-159v60h509z" />
    <glyph glyph-name="section" unicode="&#xa7;" horiz-adv-x="570" 
d="M507 316q0 -41 -16 -72t-48 -56q76 -53 76 -123q0 -78 -63.5 -124.5t-188.5 -46.5q-55 0 -101.5 9.5t-82.5 22.5v151h116q0 -17 -0.5 -33t-0.5 -33q14 -4 31 -7.5t37 -3.5q25 0 42.5 5t28 13t15 17t4.5 18q0 20 -19 36.5t-75 36.5q-37 13 -72 27.5t-62 34t-43.5 45.5
t-16.5 63q0 81 68 130q-27 19 -44.5 45t-17.5 67q0 44 18.5 76t51 52.5t75.5 30t92 9.5q54 0 101 -10t75 -24v-148h-118v72q-21 5 -34.5 7t-27.5 2q-40 0 -58.5 -17.5t-18.5 -39.5q0 -14 14.5 -26.5t34.5 -23t41 -19t35 -14.5q29 -11 56.5 -23.5t48.5 -29.5t34 -40t13 -56z
M371 289q0 13 -10 24.5t-27.5 22t-41.5 20.5t-52 21q-18 -13 -25 -27t-7 -29q0 -18 9.5 -28t26.5 -18t42 -17t57 -24q14 11 21 26.5t7 28.5z" />
    <glyph glyph-name="guillemotright" unicode="&#xbb;" horiz-adv-x="543" 
d="M512 185l-180 -196l-76 56l104 159l-106 163l76 51l182 -195v-38zM294 185l-178 -196l-78 56l105 159l-107 163l77 51l181 -195v-38z" />
    <glyph glyph-name="degree" unicode="&#xb0;" horiz-adv-x="396" 
d="M357 537q0 -33 -13 -62.5t-34.5 -51t-51 -34.5t-62.5 -13q-34 0 -63.5 11.5t-51.5 33t-34.5 51t-12.5 65.5q0 34 13 63.5t35 51.5t51.5 34.5t62.5 12.5t62.5 -12t51 -33.5t34.5 -51t13 -65.5zM269 537q0 32 -19.5 53.5t-54.5 21.5q-32 0 -52.5 -21.5t-20.5 -53.5
t20.5 -53t52.5 -21t53 20.5t21 53.5z" />
    <glyph glyph-name="germandbls" unicode="&#xdf;" horiz-adv-x="729" 
d="M519 140q0 22 -14 42t-35 40t-45.5 40t-45.5 42.5t-35 48t-14 56.5q0 33 14.5 55t32 39t32 32t14.5 33q0 8 -3 17t-10.5 16.5t-20 12t-30.5 4.5q-23 0 -38 -7t-24 -19t-12.5 -28.5t-3.5 -34.5v-529h-254v118h68v254h-64v96h64v72q0 24 8.5 59t35.5 67.5t77.5 55
t133.5 22.5q72 0 118 -16.5t73 -40.5t37.5 -50.5t10.5 -47.5q0 -37 -16.5 -64t-36 -47t-35.5 -35.5t-16 -28.5q0 -14 16 -29t40 -31.5t51.5 -36t51.5 -43.5t40 -53.5t16 -65.5q0 -78 -57.5 -123t-163.5 -45q-40 0 -78 6t-76 16v154h105v-59q24 -6 41 -6q19 0 33.5 10
t14.5 32z" />
    <glyph glyph-name="guillemotleft" unicode="&#xab;" horiz-adv-x="543" 
d="M39 223l183 195l75 -51l-106 -163l104 -159l-77 -56l-179 196v38zM256 223l182 195l76 -51l-106 -163l104 -159l-76 -56l-180 196v38z" />
    <glyph glyph-name="divide" unicode="&#xf7;" horiz-adv-x="630" 
d="M393 489q0 -16 -6.5 -30.5t-17 -25t-24.5 -17t-30 -6.5q-33 0 -56 23.5t-23 55.5t23 55t56 23q32 0 55 -23t23 -55zM94 254v104h441v-104h-441zM393 124q0 -16 -6.5 -30.5t-17 -25t-24.5 -17t-30 -6.5q-33 0 -56 23.5t-23 55.5t23 55t56 23q32 0 55 -23t23 -55z" />
    <glyph glyph-name="circumflex" unicode="&#x2c6;" horiz-adv-x="600" 
d="M473 528l-173 101l-171 -100l-42 50l156 156h115l159 -155z" />
    <glyph glyph-name="perthousand" unicode="&#x2030;" horiz-adv-x="1398" 
d="M410 467q0 -42 -10 -79.5t-32.5 -65.5t-59 -44.5t-88.5 -16.5q-54 0 -90.5 16t-59 44t-32.5 65.5t-10 80.5q0 42 10 79.5t32.5 66t59.5 45t91 16.5t90.5 -17t58.5 -45.5t31 -66t9 -78.5zM279 467q0 22 -2 42.5t-8.5 36.5t-18 25.5t-29.5 9.5q-20 0 -32 -10t-18.5 -26
t-8.5 -36.5t-2 -41.5q0 -51 11.5 -82t49.5 -31q34 0 46 32.5t12 80.5zM380 -19h-106l333 733h107zM947 201q0 -42 -10 -80t-32.5 -66t-59 -44.5t-88.5 -16.5q-54 0 -90.5 16.5t-59 44.5t-32.5 65.5t-10 79.5t10 79.5t32.5 66t59.5 45t91 16.5t90.5 -17t58.5 -45.5t31 -65.5
t9 -78zM816 200q0 22 -2 42.5t-8.5 36.5t-18 26t-29.5 10q-20 0 -32 -10t-18.5 -26.5t-8.5 -37t-2 -41.5q0 -51 11.5 -82t49.5 -31q17 0 28.5 9t18 24t9 35.5t2.5 44.5zM1365 201q0 -42 -10 -80t-32.5 -66t-59 -44.5t-88.5 -16.5q-54 0 -90.5 16.5t-59 44.5t-32.5 65.5
t-10 79.5t10 79.5t32.5 66t59.5 45t91 16.5t90.5 -17t58.5 -45.5t31 -65.5t9 -78zM1234 200q0 22 -2 42.5t-8.5 36.5t-18 26t-29.5 10q-20 0 -32 -10t-18.5 -26.5t-8.5 -37t-2 -41.5q0 -51 11.5 -82t49.5 -31q17 0 28.5 9t18 24t9 35.5t2.5 44.5z" />
    <glyph glyph-name="dieresis" unicode="&#xa8;" horiz-adv-x="441" 
d="M397 611q0 -29 -20 -49t-50 -20q-29 0 -49 20t-20 49t20 49t49 20q30 0 50 -19.5t20 -49.5zM185 611q0 -29 -20 -49t-49 -20t-49 20t-20 49t20 49t48 20q30 0 50 -19.5t20 -49.5z" />
    <glyph glyph-name="florin" unicode="&#x192;" horiz-adv-x="630" 
d="M151 400h92q2 26 5.5 57t11.5 62.5t22.5 61t39 52.5t60.5 37t87 14q41 0 76 -5t67 -15q-8 -30 -15.5 -60t-15.5 -60q-23 5 -36 6.5t-30 1.5q-24 0 -40 -6t-26 -22.5t-16.5 -46t-12.5 -77.5h100v-111h-110q-5 -37 -9 -75t-10 -81q-5 -39 -15 -82.5t-33 -79.5t-65 -60
t-111 -24q-41 0 -76 4.5t-67 15.5q8 30 15.5 60t15.5 59q23 -5 37 -6t29 -1q40 0 60 19.5t29 78.5q5 45 11.5 92t9.5 80h-80v111z" />
    <glyph glyph-name="daggerdbl" unicode="&#x2021;" horiz-adv-x="515" 
d="M180 213v170h-139v119h139v194h150v-194h145v-119h-145v-170h145v-118h-145v-171h-150v171h-139v118h139z" />
    <glyph glyph-name="logicalnot" unicode="&#xac;" horiz-adv-x="630" 
d="M545 81h-107v173h-327v103h434v-276z" />
    <glyph glyph-name="multiply" unicode="&#xd7;" horiz-adv-x="630" 
d="M323 228l-126 -126l-75 75l126 126l-126 126l73 73l125 -126l123 124l75 -76l-122 -123l124 -124l-73 -74z" />
    <glyph glyph-name="plusminus" unicode="&#xb1;" horiz-adv-x="630" 
d="M381 285v-143h-106v143h-164v103h164v145h106v-145h163v-103h-163zM544 101v-101h-433v101h433z" />
    <glyph glyph-name="brokenbar" unicode="&#xa6;" horiz-adv-x="369" 
d="M122 363v350h125v-350h-125zM247 231v-383h-125v383h125z" />
    <glyph glyph-name="guilsinglright" unicode="&#x203a;" horiz-adv-x="373" 
d="M308 185l-178 -196l-78 56l104 159l-106 163l76 51l182 -195v-38z" />
    <glyph glyph-name="guilsinglleft" unicode="&#x2039;" horiz-adv-x="373" 
d="M49 223l182 195l76 -51l-106 -163l104 -159l-77 -56l-179 196v38z" />
    <glyph glyph-name="currency" unicode="&#xa4;" horiz-adv-x="630" 
d="M212 305q0 -21 8 -39.5t21.5 -32t32.5 -21.5t40 -8t39.5 8t32.5 21.5t22 32t8 39.5t-8 39.5t-21.5 33t-32 22.5t-40.5 8q-21 0 -40 -8t-32.5 -22t-21.5 -33t-8 -40zM68 476l75 76l65 -65q23 14 50.5 21.5t56.5 7.5q58 0 108 -30l63 66l76 -76l-66 -65q14 -24 21 -51
t7 -55q0 -26 -7.5 -54t-21.5 -51l67 -63l-76 -77l-65 65q-24 -16 -50.5 -22.5t-55.5 -6.5t-55.5 6.5t-51.5 22.5l-65 -65l-75 77l65 64q-16 25 -22 51.5t-6 52.5q0 27 7 54.5t21 50.5z" />
    <glyph glyph-name="exclamdown" unicode="&#xa1;" horiz-adv-x="329" 
d="M79 -225l1 240l17 262h137l17 -262v-240h-172zM165 328q-41 0 -66.5 26t-25.5 62q0 35 24.5 61t67.5 26q42 0 67 -26t25 -61q0 -37 -25 -62.5t-67 -25.5z" />
    <glyph glyph-name="questiondown" unicode="&#xbf;" horiz-adv-x="541" 
d="M243 -30q0 -30 22.5 -45.5t59.5 -15.5q21 0 34.5 2t25.5 5q0 19 0.5 37.5t0.5 37.5h126v-176q-67 -26 -126.5 -33.5t-104.5 -7.5q-111 0 -170 46.5t-59 124.5q0 30 11 58.5t30 51.5q24 31 50 56t47.5 48.5t35.5 46.5t14 50q0 8 -0.5 14.5t-2.5 16.5l152 3q2 -18 3 -33
t1 -28q0 -40 -11.5 -70t-29.5 -53.5t-40 -43.5t-42 -40q-12 -12 -19.5 -24.5t-7.5 -27.5zM211 415q0 35 26 60t64 25q19 0 35.5 -7t29 -18.5t19.5 -27t7 -32.5t-7 -32.5t-19.5 -27.5t-29 -19t-35.5 -7q-38 0 -64 25t-26 61z" />
    <glyph glyph-name="sfthyphen" unicode="&#xad;" horiz-adv-x="415" 
d="M64 210v125h287v-125h-287z" />
    <glyph glyph-name="periodcentered" unicode="&#xb7;" horiz-adv-x="304" 
d="M248 277q0 -19 -7.5 -36t-20.5 -29.5t-30 -20t-36 -7.5q-20 0 -37 7.5t-29.5 20t-20 29.5t-7.5 36q0 20 7.5 37.5t20 30t29.5 20t37 7.5q19 0 36.5 -7.5t30 -20t20 -30t7.5 -37.5z" />
    <glyph glyph-name="cedilla" unicode="&#xb8;" horiz-adv-x="502" 
d="M282 -55q51 -3 79.5 -26t28.5 -62q0 -21 -11.5 -42t-35.5 -37t-62.5 -26.5t-92.5 -10.5q0 14 -0.5 28.5t-0.5 28.5q110 11 110 53q0 20 -19.5 25.5t-51.5 5.5h-17l-19 28l103 136q11 -8 22 -14t22 -13z" />
    <glyph glyph-name="acute" unicode="&#xb4;" horiz-adv-x="547" 
d="M241 530l-56 63l169 176l87 -99z" />
    <glyph glyph-name="primemod" unicode="&#x2b9;" horiz-adv-x="234" 
d="M94 361l-64 39l161 312l105 -58z" />
    <glyph glyph-name="caron" unicode="&#x2c7;" horiz-adv-x="600" 
d="M517 699l-159 -156h-115l-156 156l42 50l171 -100l173 101z" />
    <glyph glyph-name="breve" unicode="&#x2d8;" horiz-adv-x="611" 
d="M303 549q-32 0 -60 11t-53 30.5t-47 45.5t-41 56l68 55q35 -48 73 -69.5t64 -21.5q9 0 22 1t32 8.5t45 25t60 49.5l49 -48q-25 -41 -52.5 -68.5t-55 -44t-54 -23.5t-50.5 -7z" />
    <glyph glyph-name="dotaccent" unicode="&#x2d9;" horiz-adv-x="604" 
d="M422 654q0 -23 -8.5 -42.5t-23.5 -34.5t-35 -23.5t-42 -8.5q-23 0 -42.5 8.5t-34 23.5t-23 34.5t-8.5 42.5q0 22 8.5 42t23 35t34 23.5t42.5 8.5q22 0 42 -8.5t35 -23.5t23.5 -35t8.5 -42z" />
    <glyph glyph-name="ring" unicode="&#x2da;" horiz-adv-x="604" 
d="M312 545q-29 0 -54 10.5t-43.5 28.5t-29 42.5t-10.5 51.5q0 26 10.5 50t29 42t43.5 29t54 11t53.5 -10.5t42 -28.5t27.5 -42t10 -51q0 -28 -10.5 -52.5t-28.5 -42.5t-42 -28t-52 -10zM312 729q-23 0 -38.5 -16.5t-15.5 -37.5q0 -20 14.5 -35.5t39.5 -15.5q23 0 36.5 15.5
t13.5 35.5q0 21 -13 37.5t-37 16.5z" />
    <glyph glyph-name="ogonek" unicode="&#x2db;" horiz-adv-x="611" 
d="M466 14q-26 -32 -44 -69.5t-20 -65.5q0 -24 11.5 -37t39.5 -13q21 0 41.5 4t39.5 9l12 -53q-30 -17 -63 -25.5t-65 -8.5q-57 0 -86 23.5t-29 65.5q0 17 5.5 39.5t20 47.5t39.5 52t65 53z" />
    <glyph glyph-name="hungarumlaut" unicode="&#x2dd;" horiz-adv-x="604" 
d="M178 528l-65 53l140 200l103 -82zM363 528l-65 53l140 200l102 -82z" />
    <glyph glyph-name="tonos" unicode="&#x384;" horiz-adv-x="547" 
d="M267 528l-72 43l117 209l122 -72z" />
    <glyph glyph-name="dieresistonos" unicode="&#x385;" horiz-adv-x="527" 
d="M492 618q0 -29 -20.5 -49t-49.5 -20t-49 20t-20 49q0 30 20.5 50t49.5 20t49 -20t20 -50zM171 618q0 -29 -20.5 -49t-49.5 -20q-28 0 -48 20t-20 49q0 30 20 50t48 20q29 0 49.5 -20t20.5 -50zM251 525l-74 32l81 225l125 -53z" />
    <glyph glyph-name="anoteleia" unicode="&#x387;" horiz-adv-x="304" 
d="M247 367q0 -20 -7.5 -37.5t-20.5 -30.5t-30 -20t-36 -7q-20 0 -37 7t-30.5 20t-21 30.5t-7.5 37.5q0 19 7.5 36.5t20.5 30.5t30.5 20.5t36.5 7.5t36.5 -7.5t30.5 -20.5t20.5 -30.5t7.5 -36.5z" />
    <glyph glyph-name="Alphatonos" unicode="&#x386;" horiz-adv-x="794" 
d="M526 121l-22 71h-227l-23 -71h61v-121h-295v121h54l210 569h237l198 -569h55v-121h-306v121h58zM-4 494l-72 43l117 209l122 -72zM468 307q-17 60 -35 117t-36 117h-4q-5 -18 -14 -46.5t-20 -61t-22 -66t-20 -60.5h151z" />
    <glyph glyph-name="Epsilontonos" unicode="&#x388;" horiz-adv-x="713" 
d="M44 0v123h72v445h-71v122h621v-237h-132v115h-225v-157l212 8v-127l-212 6v-175h235v123h133v-246h-633zM-160 495l-72 43l117 209l122 -72z" />
    <glyph glyph-name="Etatonos" unicode="&#x389;" horiz-adv-x="856" 
d="M484 0v122h63v176h-237v-176h63v-122h-329v122h74v446h-74v122h329v-122h-63v-156h237v156h-63v122h328v-122h-72v-446h72v-122h-328zM-159 491l-72 43l117 209l122 -72z" />
    <glyph glyph-name="Iotatonos" unicode="&#x38a;" horiz-adv-x="475" 
d="M70 0v122h72v446h-72v123h335v-123h-70v-446h70v-122h-335zM-143 491l-72 43l117 209l122 -72z" />
    <glyph glyph-name="Omicrontonos" unicode="&#x38c;" horiz-adv-x="793" 
d="M743 347q0 -77 -22 -142.5t-65 -113.5t-108 -75t-150 -27q-89 0 -154 26.5t-108.5 73.5t-64.5 113t-21 144q0 76 21 141.5t64 114t108.5 76t154.5 27.5t154 -27.5t107.5 -76t63 -114t20.5 -140.5zM537 346q0 46 -6 86.5t-22 71.5t-42.5 49t-68.5 18t-70 -18.5
t-44.5 -49.5t-23 -71.5t-6.5 -85.5q0 -53 7.5 -94.5t24.5 -70t44.5 -44t67.5 -15.5q38 0 64.5 16.5t43 46t24 70.5t7.5 91zM-104 499l-72 43l117 209l122 -72z" />
    <glyph glyph-name="Upsilontonos" unicode="&#x38e;" horiz-adv-x="733" 
d="M476 567h-57v124h300v-124h-52l-199 -317v-128h75v-122h-359v122h76v127l-196 318h-50v124h303v-124h-55l105 -190h4zM-174 498l-72 43l117 209l122 -72z" />
    <glyph glyph-name="Omegatonos" unicode="&#x38f;" horiz-adv-x="806" 
d="M673 122h100v-122h-324v125q54 16 76 68.5t22 159.5q0 108 -32.5 163t-107.5 55t-110 -57t-35 -161t21 -158t72 -69v-126h-326v122h103l3 4q-44 35 -60.5 96t-16.5 137q0 74 21.5 137.5t65 110t108 73t150.5 26.5q87 0 152.5 -25.5t109.5 -71.5t66 -108.5t22 -136.5
q0 -69 -18.5 -133t-62.5 -104zM-87 499l-72 43l117 209l122 -72z" />
    <glyph glyph-name="Tau" unicode="&#x3a4;" horiz-adv-x="695" 
d="M170 0v122h82v446h-104l1 -117h-131v240h659v-240h-131v117h-103v-446h81v-122h-354z" />
    <glyph glyph-name="Upsilon" unicode="&#x3a5;" horiz-adv-x="733" 
d="M476 567h-57v124h300v-124h-52l-199 -317v-128h75v-122h-359v122h76v127l-196 318h-50v124h303v-124h-55l105 -190h4z" />
    <glyph glyph-name="Chi" unicode="&#x3a7;" horiz-adv-x="765" 
d="M460 691h274v-124h-55l-173 -224l165 -220h67v-123h-356v123h47l-92 135l-94 -135h50v-123h-272v123h55l173 242l-145 201h-79v125h358v-125h-47l86 -122l88 123h-50v124z" />
    <glyph glyph-name="iotadieresistonos" unicode="&#x390;" horiz-adv-x="378" 
d="M35 374v119h240v-368h69v-111q-15 -6 -32 -11t-35 -8.5t-35.5 -5t-31.5 -1.5q-70 0 -96.5 28t-27.5 83v275h-51zM399 618q0 -29 -20.5 -49t-49.5 -20t-49 20t-20 49q0 30 20.5 50t49.5 20t49 -20t20 -50zM78 618q0 -29 -20.5 -49t-49.5 -20q-28 0 -48 20t-20 49
q0 30 20 50t48 20q29 0 49.5 -20t20.5 -50zM158 525l-74 32l81 225l125 -53z" />
    <glyph glyph-name="Dieresis" unicode="&#xf6cb;" horiz-adv-x="794" 
d="M575 811q0 -29 -20 -49t-49 -20t-49 20t-20 49t20 49t49 20t49 -20t20 -49zM364 811q0 -29 -20 -49t-49 -20t-49 20t-20 49t20 49t48 20q29 0 49.5 -20t20.5 -49z" />
    <glyph glyph-name="Iotadieresis" unicode="&#x3aa;" horiz-adv-x="475" 
d="M70 0v122h72v446h-72v123h335v-123h-70v-446h70v-122h-335zM410 811q0 -29 -20 -49t-49 -20t-49 20t-20 49t20 49t49 20t49 -20t20 -49zM199 811q0 -29 -20 -49t-49 -20t-49 20t-20 49t20 49t48 20q29 0 49.5 -20t20.5 -49z" />
    <glyph glyph-name="Upsilondieresis" unicode="&#x3ab;" horiz-adv-x="733" 
d="M476 567h-57v124h300v-124h-52l-199 -317v-128h75v-122h-359v122h76v127l-196 318h-50v124h303v-124h-55l105 -190h4zM541 811q0 -29 -20 -49t-49 -20t-49 20t-20 49t20 49t49 20t49 -20t20 -49zM330 811q0 -29 -20 -49t-49 -20t-49 20t-20 49t20 49t48 20q29 0 49.5 -20
t20.5 -49z" />
    <glyph glyph-name="tilde" unicode="&#x2dc;" horiz-adv-x="600" 
d="M402 556q-27 0 -55 6t-53.5 13t-48 13t-39.5 6l-55 -39l-52 38q21 60 50.5 83t65.5 23q24 0 49.5 -5.5t50.5 -12.5t49.5 -12.5t45.5 -5.5l55 40l50 -38q-36 -109 -113 -109z" />
    <glyph glyph-name="macron" unicode="&#xaf;" horiz-adv-x="600" 
d="M106 689h391v-114h-391v114z" />
    <glyph glyph-name="iotadieresis" unicode="&#x3ca;" horiz-adv-x="378" 
d="M35 374v119h240v-368h69v-111q-15 -6 -32 -11t-35 -8.5t-35.5 -5t-31.5 -1.5q-70 0 -96.5 28t-27.5 83v275h-51zM335 611q0 -29 -20 -49t-50 -20q-29 0 -49 20t-20 49t20 49t49 20q30 0 50 -19.5t20 -49.5zM123 611q0 -29 -20 -49t-49 -20t-49 20t-20 49t20 49t48 20
q30 0 50 -19.5t20 -49.5z" />
    <glyph glyph-name="upsilondieresis" unicode="&#x3cb;" horiz-adv-x="656" 
d="M592 493v-273q0 -60 -20 -104t-54.5 -72.5t-82 -42t-102.5 -13.5q-126 0 -191 57t-65 152v177h-52v119h241v-301q0 -32 16 -52t52 -20q11 0 23.5 4t22.5 13t16.5 23.5t6.5 35.5v297h189zM497 611q0 -29 -20 -49t-50 -20q-29 0 -49 20t-20 49t20 49t49 20q30 0 50 -19.5
t20 -49.5zM285 611q0 -29 -20 -49t-49 -20t-49 20t-20 49t20 49t48 20q30 0 50 -19.5t20 -49.5z" />
    <glyph glyph-name="etatonos" unicode="&#x3ae;" horiz-adv-x="693" 
d="M433 505q48 0 81 -14t52.5 -38t28 -56t8.5 -69v-204h64v-110q-30 -13 -65 -19t-64 -6q-41 0 -65 11t-37 28.5t-17 38t-4 39.5v184q0 39 -14.5 55.5t-46.5 16.5q-18 0 -40 -8.5t-39 -21.5v-332h-190v376h-60v117h246v-43q1 0 3 -0.5t3 -0.5q38 26 78 41t78 15zM319 528
l-72 43l117 209l122 -72z" />
    <glyph glyph-name="iotatonos" unicode="&#x3af;" horiz-adv-x="378" 
d="M35 374v119h240v-368h69v-111q-15 -6 -32 -11t-35 -8.5t-35.5 -5t-31.5 -1.5q-70 0 -96.5 28t-27.5 83v275h-51zM158 528l-72 43l117 209l122 -72z" />
    <glyph glyph-name="upsilondieresistonos" unicode="&#x3b0;" horiz-adv-x="656" 
d="M592 493v-273q0 -60 -20 -104t-54.5 -72.5t-82 -42t-102.5 -13.5q-126 0 -191 57t-65 152v177h-52v119h241v-301q0 -32 16 -52t52 -20q11 0 23.5 4t22.5 13t16.5 23.5t6.5 35.5v297h189zM552 618q0 -29 -20.5 -49t-49.5 -20t-49 20t-20 49q0 30 20.5 50t49.5 20t49 -20
t20 -50zM231 618q0 -29 -20.5 -49t-49.5 -20q-28 0 -48 20t-20 49q0 30 20 50t48 20q29 0 49.5 -20t20.5 -50zM311 525l-74 32l81 225l125 -53z" />
    <glyph glyph-name="omegatonos" unicode="&#x3ce;" horiz-adv-x="839" 
d="M497 333l1 -148q1 -31 15.5 -49.5t40.5 -18.5q34 0 48.5 28.5t14.5 94.5q0 52 -15.5 92t-54.5 55l29 116q63 -6 106.5 -28t70.5 -56.5t39 -80t12 -97.5q0 -51 -12.5 -96.5t-40.5 -79.5t-72.5 -54t-108.5 -20q-43 0 -84 16t-66 53h-6q-26 -37 -68.5 -53t-85.5 -16
q-66 0 -109 20t-69 54t-36.5 79.5t-10.5 96.5q0 52 12 97.5t39 80t70.5 56.5t106.5 28l28 -116q-39 -15 -54 -55t-15 -92q0 -60 12.5 -91.5t50.5 -31.5q28 0 43 18.5t15 49.5v148h154zM428 528l-72 43l117 209l122 -72z" />
    <glyph glyph-name="epsilontonos" unicode="&#x3ad;" horiz-adv-x="486" 
d="M262 507q66 0 117 -10.5t74 -21.5v-134h-117v50q-10 3 -23.5 4t-23.5 1q-32 0 -48 -13.5t-16 -33.5q0 -22 14.5 -32.5t37.5 -10.5h57v-99h-57q-21 0 -38.5 -10t-17.5 -35q0 -29 23.5 -41t66.5 -12q29 0 65.5 6t71.5 19l31 -105q-33 -16 -89.5 -29t-129.5 -13
q-118 0 -173 43t-55 109q0 33 19.5 66t57.5 47v2q-35 13 -53.5 39.5t-18.5 60.5q0 30 13.5 57.5t41 48.5t70 34t100.5 13zM246 528l-72 43l117 209l122 -72z" />
    <glyph glyph-name="OE" unicode="&#x152;" horiz-adv-x="966" 
d="M389 704q32 0 62 -4t56 -11h416v-234h-132v113h-188v-157q40 1 87.5 3.5t86.5 3.5v-127q-39 0 -86.5 3t-87.5 3v-176h200v122h133v-243h-448q-23 -5 -47.5 -7.5t-51.5 -2.5q-89 0 -154 26t-108 73t-64 112.5t-21 143.5q0 76 21 141.5t63.5 114t108 76t154.5 27.5z
M389 120h10.5t10.5 1v449q-4 0 -8.5 0.5t-10.5 0.5h-7q-41 -1 -67.5 -20t-42.5 -50t-22 -71.5t-6 -84.5q0 -53 7.5 -94.5t24.5 -70.5t44 -44.5t67 -15.5z" />
    <glyph glyph-name="paragraph" unicode="&#xb6;" horiz-adv-x="682" 
d="M260 270q-47 0 -87 15.5t-69.5 43.5t-46 68t-16.5 90q0 46 15.5 87t44 71.5t69 48.5t90.5 18h390v-121h-67v-808h-124v808h-55v-808h-217v110h92v377h-19z" />
    <glyph glyph-name="oe" unicode="&#x153;" horiz-adv-x="921" 
d="M879 44q-52 -28 -110.5 -39.5t-109.5 -11.5q-61 0 -102.5 15t-70.5 44q-32 -29 -75.5 -45.5t-102.5 -16.5q-71 0 -122 19.5t-85 53.5t-50 81t-16 103q0 54 16.5 101t50.5 81.5t86 54.5t122 20q57 0 99.5 -16.5t72.5 -45.5q28 31 71 49t104 18q72 0 117.5 -22.5t71.5 -58
t35.5 -78.5t9.5 -85v-34h-306q0 -54 26 -80t83 -26q36 0 75 7.5t74 20.5zM390 247q0 25 -3.5 48.5t-12.5 41.5t-24.5 28.5t-39.5 10.5t-40 -11t-25.5 -29.5t-13 -41.5t-3.5 -47q0 -27 3.5 -51t12.5 -42t25 -28t41 -10q24 0 39.5 10.5t24.5 28t12.5 41.5t3.5 51zM723 292
q-1 42 -14 67.5t-50 25.5q-38 0 -53.5 -27.5t-17.5 -65.5h135z" />
    <glyph glyph-name="ae" unicode="&#xe6;" horiz-adv-x="864" 
d="M607 505q71 0 115.5 -22.5t70 -58t34.5 -78.5t9 -85v-40h-300q0 -54 25 -77t83 -23q35 0 73 8t73 20l34 -109q-51 -29 -108 -39.5t-107 -10.5q-41 0 -71.5 4.5t-54.5 13.5t-41.5 22.5t-31.5 32.5q-27 -25 -55.5 -40t-55.5 -23t-52 -10.5t-47 -2.5q-53 0 -86.5 14.5
t-53 36.5t-26.5 47.5t-7 47.5q0 21 6 47.5t25.5 50.5t54.5 40t94 16h148v19q0 36 -21 52t-68 16q-48 0 -90 -6.5t-73 -15.5l-28 112q22 9 50 16.5t58 13t60.5 8t59.5 2.5q20 0 42 -3.5t43 -10.5t38.5 -18t27.5 -26q26 28 64 43.5t89 15.5zM279 101q15 0 41.5 8t45.5 28
q-11 37 -13 81h-55q-38 0 -58 -15t-20 -44q0 -31 16 -44.5t43 -13.5zM609 381q-19 0 -32 -7.5t-21 -20.5t-12 -29.5t-5 -35.5h132q0 42 -12.5 67.5t-49.5 25.5z" />
    <glyph glyph-name="AE" unicode="&#xc6;" horiz-adv-x="1088" 
d="M531 198h-222l-48 -76h53v-122h-298v122h51l278 444h-50v124h743v-235h-132v114h-182v-158l175 3v-118l-175 2v-176h192v122h132v-244h-590v122h73v76zM371 313h160v250h-5z" />
    <glyph glyph-name="space" unicode=" " horiz-adv-x="318" 
 />
    <glyph glyph-name="Circumflex" unicode="&#xf6c0;" horiz-adv-x="794" 
d="M568 742l-173 101l-170 -100l-42 50l156 154h114l160 -153z" />
    <glyph glyph-name="commaaccent" unicode="&#xf6c3;" horiz-adv-x="794" 
d="M308 -116q0 30 24 52t62 22q23 0 39.5 -8t27 -20.5t15.5 -29t5 -33.5q0 -27 -11.5 -54t-29.5 -50.5t-41 -42t-48 -30.5l-42 51q23 17 37 35.5t17 41.5q-29 5 -42 22.5t-13 43.5z" />
    <glyph glyph-name="Acute" unicode="&#xf6c9;" horiz-adv-x="794" 
d="M407 742l-56 63l169 176l87 -99z" />
    <glyph glyph-name="Caron" unicode="&#xf6ca;" horiz-adv-x="794" 
d="M616 899l-159 -154h-114l-157 154l42 50l171 -100l173 101z" />
    <glyph glyph-name="DieresisAcute" unicode="&#xf6cc;" horiz-adv-x="794" 
d="M376 737l-58 60l155 185l92 -93zM701 836q0 -32 -21.5 -53t-53.5 -21q-31 0 -52.5 21t-21.5 53t21.5 53.5t52.5 21.5q32 0 53.5 -21.5t21.5 -53.5zM316 836q0 -32 -21.5 -53t-52.5 -21q-32 0 -53.5 21t-21.5 53t21.5 53.5t52.5 21.5q32 0 53.5 -21.5t21.5 -53.5z" />
    <glyph glyph-name="DieresisGrave" unicode="&#xf6cd;" horiz-adv-x="794" 
d="M247 889l92 93l155 -185l-58 -60zM642 836q0 -32 -21.5 -53t-53.5 -21q-31 0 -52.5 21t-21.5 53t21.5 53.5t52.5 21.5q32 0 53.5 -21.5t21.5 -53.5zM257 836q0 -32 -21.5 -53t-52.5 -21q-32 0 -53.5 21t-21.5 53t21.5 53.5t52.5 21.5q32 0 53.5 -21.5t21.5 -53.5z" />
    <glyph glyph-name="Grave" unicode="&#xf6ce;" horiz-adv-x="794" 
d="M214 881l83 98l169 -175l-55 -63z" />
    <glyph glyph-name="Hungarumlaut" unicode="&#xf6cf;" horiz-adv-x="794" 
d="M337 744l-65 52l140 201l102 -83zM520 744l-65 52l140 201l102 -83z" />
    <glyph glyph-name="Macron" unicode="&#xf6d0;" horiz-adv-x="794" 
d="M220 862h376v-113h-376v113z" />
    <glyph glyph-name="cyrBreve" unicode="&#xf6d1;" horiz-adv-x="794" 
d="M399 742q-32 0 -60 11t-53 30.5t-47 45.5t-41 56l68 54q35 -48 73 -69.5t64 -21.5q9 0 22 1t32 9t45 25.5t60 49.5l49 -48q-25 -41 -52.5 -68.5t-55 -44t-54 -23.5t-50.5 -7z" />
    <glyph glyph-name="cyrbreve" unicode="&#xf6d4;" horiz-adv-x="604" 
d="M303 545q-32 0 -60 11t-53 30.5t-47 45.5t-41 56l68 54q35 -47 73 -69t64 -22q9 0 22 1t32 9t45 25.5t60 49.5l49 -49q-25 -41 -52.5 -68t-55 -43.5t-54 -23.5t-50.5 -7z" />
    <glyph glyph-name="Scaron" unicode="&#x160;" horiz-adv-x="672" 
d="M183 218l1 -73q15 -6 32 -9.5t34 -6t32 -3.5t26 -1q61 0 85.5 20t24.5 48q0 25 -14 38t-38 21q-70 23 -128.5 42.5t-100.5 43.5t-65 58t-23 87q0 102 72.5 159.5t215.5 57.5q28 0 59.5 -2.5t63 -8t61.5 -14.5t56 -21q0 -44 0.5 -87t0.5 -87h-133q0 18 -0.5 36t-0.5 35
q-20 8 -48.5 12t-47.5 4q-53 0 -75 -19t-22 -44q0 -17 12 -30t32 -23t45.5 -18.5t52.5 -16.5q51 -15 94.5 -31.5t76 -40.5t51 -58.5t18.5 -85.5q0 -103 -78 -157.5t-235 -54.5q-65 0 -134.5 10.5t-132.5 36.5q0 45 -0.5 91t-0.5 92h131zM546 899l-159 -154h-114l-157 154
l42 50l171 -100l173 101z" />
    <glyph glyph-name="Zcaron" unicode="&#x17d;" horiz-adv-x="672" 
d="M274 123h239v135h133v-258h-618v121l350 448h-194v-118h-132v240h575v-117zM564 899l-159 -154h-114l-157 154l42 50l171 -100l173 101z" />
    <glyph glyph-name="scaron" unicode="&#x161;" horiz-adv-x="552" 
d="M159 167v-25.5t1 -25.5q12 -6 37 -10t48 -4q29 0 50.5 9.5t21.5 26.5q0 25 -17 32t-46 15q-41 12 -80 24t-69.5 29.5t-49.5 43t-19 63.5q0 78 61 118.5t177 40.5q49 0 103.5 -9.5t96.5 -29.5v-66t1 -66h-125q0 12 -0.5 24t-0.5 24q-14 5 -29 7t-29 2q-27 0 -43.5 -10
t-16.5 -27t20 -25.5t43 -14.5q30 -8 68.5 -16.5t72 -26.5t57 -49t23.5 -83q0 -72 -62.5 -110t-193.5 -38q-21 0 -48.5 1.5t-57.5 6t-60 11.5t-57 19v69t-1 70h124zM486 699l-159 -156h-115l-156 156l42 50l171 -100l173 101z" />
    <glyph glyph-name="Ydieresis" unicode="&#x178;" horiz-adv-x="733" 
d="M476 567h-57v124h300v-124h-52l-199 -317v-128h75v-122h-359v122h76v127l-196 318h-50v124h303v-124h-55l105 -190h4zM536 811q0 -29 -20 -49t-49 -20t-49 20t-20 49t20 49t49 20t49 -20t20 -49zM325 811q0 -29 -20 -49t-49 -20t-49 20t-20 49t20 49t48 20q29 0 49.5 -20
t20.5 -49z" />
    <glyph glyph-name="cent" unicode="&#xa2;" horiz-adv-x="630" 
d="M393 505q33 -2 66 -8.5t62 -17.5v-167h-122v60q-7 2 -16 2h-14q-25 0 -42.5 -9.5t-29 -26t-16.5 -39.5t-5 -49q0 -38 7.5 -62.5t21 -38.5t32 -20t40.5 -6q31 0 68 6t68 16q8 -27 16.5 -57t16.5 -58q-32 -15 -71.5 -24.5t-81.5 -13.5v-87h-116v90q-58 9 -95.5 32t-59 56
t-30 74.5t-8.5 86.5q0 40 8 80.5t30 76t59 61.5t96 37v101h116v-95z" />
    <glyph glyph-name="ordfeminine" unicode="&#xaa;" horiz-adv-x="417" 
d="M359 355h37l5 -75q-19 -8 -47.5 -13t-49.5 -5q-23 0 -42 8.5t-23 32.5q-15 -15 -31.5 -23.5t-31 -12t-26 -4.5t-18.5 -1q-34 0 -55.5 10t-34 24.5t-17.5 31t-5 30.5t3.5 28.5t13 26.5t26 21t42.5 14q29 5 60.5 8.5t65.5 6.5v7q0 21 -10.5 31t-39.5 10q-23 0 -52 -4
t-52 -11q-5 19 -10.5 38.5t-11.5 39.5q32 13 75.5 20t83.5 7q67 0 106 -26t39 -91v-129zM231 408q-13 0 -26.5 -2t-24 -5.5t-17.5 -10.5t-7 -18q0 -16 7.5 -24.5t26.5 -8.5q9 0 21 4t20 12v53z" />
    <glyph glyph-name="ordmasculine" unicode="&#xba;" horiz-adv-x="434" 
d="M407 434q0 -36 -11.5 -67t-35 -53.5t-60 -35.5t-85.5 -13t-84.5 12.5t-58.5 35t-34 53.5t-11 68q0 36 11.5 66.5t35 53t59.5 35.5t85 13t84.5 -13t58.5 -35.5t34.5 -53t11.5 -66.5zM269 434q0 31 -10 55t-41 24q-16 0 -26 -7t-16 -18.5t-8.5 -25.5t-2.5 -29q0 -33 10 -57
t43 -24q31 0 41 24t10 58z" />
    <glyph glyph-name="onequarter" unicode="&#xbc;" horiz-adv-x="980" 
d="M86 359h86v202q-3 0 -16 -1.5t-27.5 -3t-27.5 -2.5t-16 -2l-15 81l124 41h116v-315h89v-93h-313v93zM397 -19h-106l333 733h107zM842 407v-214h63v-78h-63v-35h40v-78h-205v78h36v35h-189v64q11 13 28.5 34l37.5 45t40.5 49t38 46.5t29 36t14.5 17.5h130zM713 284
q-20 -25 -39 -46.5t-36 -44.5h76v91h-1z" />
    <glyph glyph-name="threequarters" unicode="&#xbe;" horiz-adv-x="980" 
d="M164 499q6 5 19.5 16.5t29 24t29 24.5t18.5 17h-73v-33h-94v126h313q0 -2 2.5 -13t5.5 -23t5.5 -23t3.5 -13q-6 -5 -20 -17t-30.5 -25.5t-30.5 -25.5t-20 -17q50 -11 78 -39t28 -73q0 -35 -15 -62t-40.5 -45t-61 -27.5t-75.5 -9.5q-13 0 -32.5 1t-42 5t-46 10.5
t-45.5 18.5q1 2 6.5 15.5t11.5 29t11 29t6 16.5q40 -13 70.5 -16.5t50.5 -3.5q30 0 46.5 11t16.5 30q0 15 -13.5 27t-55.5 12q-19 0 -43 -3zM398 -19h-106l333 733h107zM841 407v-214h63v-78h-63v-35h40v-78h-205v78h36v35h-189v64q11 13 28.5 34l37.5 45t40.5 49t38 46.5
t29 36t14.5 17.5h130zM712 284q-20 -25 -39 -46.5t-36 -44.5h76v91h-1z" />
    <glyph glyph-name="Agrave" unicode="&#xc0;" horiz-adv-x="794" 
d="M526 121l-22 71h-227l-23 -71h61v-121h-295v121h54l210 569h237l198 -569h55v-121h-306v121h58zM215 881l83 98l169 -175l-55 -63zM468 307q-17 60 -35 117t-36 117h-4q-5 -18 -14 -46.5t-20 -61t-22 -66t-20 -60.5h151z" />
    <glyph glyph-name="Aacute" unicode="&#xc1;" horiz-adv-x="794" 
d="M526 121l-22 71h-227l-23 -71h61v-121h-295v121h54l210 569h237l198 -569h55v-121h-306v121h58zM404 742l-56 63l169 176l87 -99zM468 307q-17 60 -35 117t-36 117h-4q-5 -18 -14 -46.5t-20 -61t-22 -66t-20 -60.5h151z" />
    <glyph glyph-name="Acircumflex" unicode="&#xc2;" horiz-adv-x="794" 
d="M526 121l-22 71h-227l-23 -71h61v-121h-295v121h54l210 569h237l198 -569h55v-121h-306v121h58zM566 742l-173 101l-170 -100l-42 50l156 154h114l160 -153zM468 307q-17 60 -35 117t-36 117h-4q-5 -18 -14 -46.5t-20 -61t-22 -66t-20 -60.5h151z" />
    <glyph glyph-name="Atilde" unicode="&#xc3;" horiz-adv-x="794" 
d="M526 121l-22 71h-227l-23 -71h61v-121h-295v121h54l210 569h237l198 -569h55v-121h-306v121h58zM491 756q-27 0 -55 6t-53.5 13t-48 13t-39.5 6l-55 -39l-52 38q21 60 50.5 83t65.5 23q24 0 49.5 -5.5t50.5 -12.5t49.5 -12.5t45.5 -5.5l55 40l50 -38q-36 -109 -113 -109z
M468 307q-17 60 -35 117t-36 117h-4q-5 -18 -14 -46.5t-20 -61t-22 -66t-20 -60.5h151z" />
    <glyph glyph-name="Adieresis" unicode="&#xc4;" horiz-adv-x="794" 
d="M526 121l-22 71h-227l-23 -71h61v-121h-295v121h54l210 569h237l198 -569h55v-121h-306v121h58zM468 307q-17 60 -35 117t-36 117h-4q-5 -18 -14 -46.5t-20 -61t-22 -66t-20 -60.5h151zM575 811q0 -29 -20 -49t-49 -20t-49 20t-20 49t20 49t49 20t49 -20t20 -49zM364 811
q0 -29 -20 -49t-49 -20t-49 20t-20 49t20 49t48 20q29 0 49.5 -20t20.5 -49z" />
    <glyph glyph-name="Aring" unicode="&#xc5;" horiz-adv-x="794" 
d="M526 121l-22 71h-227l-23 -71h61v-121h-295v121h54l210 569h237l198 -569h55v-121h-306v121h58zM395 737q-29 0 -54 10.5t-43.5 28.5t-29 42.5t-10.5 51.5q0 26 10.5 50t29 42t43.5 29t54 11t53.5 -10.5t42 -28.5t27.5 -42t10 -51q0 -28 -10.5 -52.5t-28.5 -42.5t-42 -28
t-52 -10zM468 307q-17 60 -35 117t-36 117h-4q-5 -18 -14 -46.5t-20 -61t-22 -66t-20 -60.5h151zM395 921q-23 0 -38.5 -16.5t-15.5 -37.5q0 -20 14.5 -35.5t39.5 -15.5q23 0 36.5 15.5t13.5 35.5q0 21 -13 37.5t-37 16.5z" />
    <glyph glyph-name="Ccedilla" unicode="&#xc7;" horiz-adv-x="668" 
d="M254 350q0 -62 11.5 -102.5t35 -64.5t59.5 -33.5t85 -9.5q12 0 31 1.5t41 4t45 6t41 8.5l28 -132q-45 -17 -101 -27t-109 -12q-11 -14 -23 -29.5t-23 -31.5q51 -3 79.5 -26t28.5 -62q0 -21 -11.5 -42t-35.5 -37t-62.5 -26.5t-92.5 -10.5q0 14 -0.5 28.5t-0.5 28.5
q110 11 110 53q0 20 -19.5 25.5t-51.5 5.5h-17l-19 28l73 97q-92 6 -151 37t-93.5 79.5t-48 110t-13.5 128.5q0 65 15 129.5t55 116t110 83.5t181 32q54 0 101 -7.5t90 -20.5v-222h-133v101q-14 3 -27.5 4t-27.5 1q-45 0 -75.5 -15t-49 -42.5t-27 -67t-8.5 -87.5z" />
    <glyph glyph-name="Egrave" unicode="&#xc8;" horiz-adv-x="713" 
d="M44 0v123h72v445h-71v122h621v-237h-132v115h-225v-157l212 8v-127l-212 6v-175h235v123h133v-246h-633zM215 881l83 98l169 -175l-55 -63z" />
    <glyph glyph-name="Eacute" unicode="&#xc9;" horiz-adv-x="713" 
d="M44 0v123h72v445h-71v122h621v-237h-132v115h-225v-157l212 8v-127l-212 6v-175h235v123h133v-246h-633zM352 742l-56 63l169 176l87 -99z" />
    <glyph glyph-name="Ecircumflex" unicode="&#xca;" horiz-adv-x="713" 
d="M44 0v123h72v445h-71v122h621v-237h-132v115h-225v-157l212 8v-127l-212 6v-175h235v123h133v-246h-633zM544 742l-173 101l-170 -100l-42 50l156 154h114l160 -153z" />
    <glyph glyph-name="Edieresis" unicode="&#xcb;" horiz-adv-x="713" 
d="M44 0v123h72v445h-71v122h621v-237h-132v115h-225v-157l212 8v-127l-212 6v-175h235v123h133v-246h-633zM548 811q0 -29 -20 -49t-49 -20t-49 20t-20 49t20 49t49 20t49 -20t20 -49zM337 811q0 -29 -20 -49t-49 -20t-49 20t-20 49t20 49t48 20q29 0 49.5 -20t20.5 -49z
" />
    <glyph glyph-name="Igrave" unicode="&#xcc;" horiz-adv-x="475" 
d="M70 0v122h72v446h-72v123h335v-123h-70v-446h70v-122h-335zM48 881l83 98l169 -175l-55 -63z" />
    <glyph glyph-name="Iacute" unicode="&#xcd;" horiz-adv-x="475" 
d="M70 0v122h72v446h-72v123h335v-123h-70v-446h70v-122h-335zM247 742l-56 63l169 176l87 -99z" />
    <glyph glyph-name="Icircumflex" unicode="&#xce;" horiz-adv-x="475" 
d="M70 0v122h72v446h-72v123h335v-123h-70v-446h70v-122h-335zM410 742l-173 101l-170 -100l-42 50l156 154h114l160 -153z" />
    <glyph glyph-name="Idieresis" unicode="&#xcf;" horiz-adv-x="475" 
d="M70 0v122h72v446h-72v123h335v-123h-70v-446h70v-122h-335zM408 811q0 -29 -20 -49t-49 -20t-49 20t-20 49t20 49t49 20t49 -20t20 -49zM197 811q0 -29 -20 -49t-49 -20t-49 20t-20 49t20 49t48 20q29 0 49.5 -20t20.5 -49z" />
    <glyph glyph-name="Ntilde" unicode="&#xd1;" horiz-adv-x="880" 
d="M589 264v304h-67v122h313v-122h-67v-568h-189l-159 245l-85 134l-44 71q-1 0 -1 -0.5t-1 -0.5v-328h68v-121h-315v121h70v447h-69v122h275q31 -49 58.5 -92.5t54.5 -86t54 -86t56 -91.5q11 -17 21.5 -34.5t21.5 -35.5h5zM528 758q-27 0 -55 6t-53.5 13t-48 13t-39.5 6
l-55 -39l-52 38q21 60 50.5 83t65.5 23q24 0 49.5 -5.5t50.5 -12.5t49.5 -12.5t45.5 -5.5l55 40l50 -38q-36 -109 -113 -109z" />
    <glyph glyph-name="Ograve" unicode="&#xd2;" horiz-adv-x="793" 
d="M743 347q0 -77 -22 -142.5t-65 -113.5t-108 -75t-150 -27q-89 0 -154 26.5t-108.5 73.5t-64.5 113t-21 144q0 76 21 141.5t64 114t108.5 76t154.5 27.5t154 -27.5t107.5 -76t63 -114t20.5 -140.5zM537 346q0 46 -6 86.5t-22 71.5t-42.5 49t-68.5 18t-70 -18.5
t-44.5 -49.5t-23 -71.5t-6.5 -85.5q0 -53 7.5 -94.5t24.5 -70t44.5 -44t67.5 -15.5q38 0 64.5 16.5t43 46t24 70.5t7.5 91zM225 881l83 98l169 -175l-55 -63z" />
    <glyph glyph-name="Oacute" unicode="&#xd3;" horiz-adv-x="793" 
d="M743 347q0 -77 -22 -142.5t-65 -113.5t-108 -75t-150 -27q-89 0 -154 26.5t-108.5 73.5t-64.5 113t-21 144q0 76 21 141.5t64 114t108.5 76t154.5 27.5t154 -27.5t107.5 -76t63 -114t20.5 -140.5zM537 346q0 46 -6 86.5t-22 71.5t-42.5 49t-68.5 18t-70 -18.5
t-44.5 -49.5t-23 -71.5t-6.5 -85.5q0 -53 7.5 -94.5t24.5 -70t44.5 -44t67.5 -15.5q38 0 64.5 16.5t43 46t24 70.5t7.5 91zM398 742l-56 63l169 176l87 -99z" />
    <glyph glyph-name="Ocircumflex" unicode="&#xd4;" horiz-adv-x="793" 
d="M743 347q0 -77 -22 -142.5t-65 -113.5t-108 -75t-150 -27q-89 0 -154 26.5t-108.5 73.5t-64.5 113t-21 144q0 76 21 141.5t64 114t108.5 76t154.5 27.5t154 -27.5t107.5 -76t63 -114t20.5 -140.5zM537 346q0 46 -6 86.5t-22 71.5t-42.5 49t-68.5 18t-70 -18.5
t-44.5 -49.5t-23 -71.5t-6.5 -85.5q0 -53 7.5 -94.5t24.5 -70t44.5 -44t67.5 -15.5q38 0 64.5 16.5t43 46t24 70.5t7.5 91zM570 742l-173 101l-170 -100l-42 50l156 154h114l160 -153z" />
    <glyph glyph-name="Otilde" unicode="&#xd5;" horiz-adv-x="793" 
d="M743 347q0 -77 -22 -142.5t-65 -113.5t-108 -75t-150 -27q-89 0 -154 26.5t-108.5 73.5t-64.5 113t-21 144q0 76 21 141.5t64 114t108.5 76t154.5 27.5t154 -27.5t107.5 -76t63 -114t20.5 -140.5zM537 346q0 46 -6 86.5t-22 71.5t-42.5 49t-68.5 18t-70 -18.5
t-44.5 -49.5t-23 -71.5t-6.5 -85.5q0 -53 7.5 -94.5t24.5 -70t44.5 -44t67.5 -15.5q38 0 64.5 16.5t43 46t24 70.5t7.5 91zM495 760q-27 0 -55 6t-53.5 13t-48 13t-39.5 6l-55 -39l-52 38q21 60 50.5 83t65.5 23q24 0 49.5 -5.5t50.5 -12.5t49.5 -12.5t45.5 -5.5l55 40
l50 -38q-36 -109 -113 -109z" />
    <glyph glyph-name="Odieresis" unicode="&#xd6;" horiz-adv-x="793" 
d="M743 347q0 -77 -22 -142.5t-65 -113.5t-108 -75t-150 -27q-89 0 -154 26.5t-108.5 73.5t-64.5 113t-21 144q0 76 21 141.5t64 114t108.5 76t154.5 27.5t154 -27.5t107.5 -76t63 -114t20.5 -140.5zM537 346q0 46 -6 86.5t-22 71.5t-42.5 49t-68.5 18t-70 -18.5
t-44.5 -49.5t-23 -71.5t-6.5 -85.5q0 -53 7.5 -94.5t24.5 -70t44.5 -44t67.5 -15.5q38 0 64.5 16.5t43 46t24 70.5t7.5 91zM570 811q0 -29 -20 -49t-49 -20t-49 20t-20 49t20 49t49 20t49 -20t20 -49zM359 811q0 -29 -20 -49t-49 -20t-49 20t-20 49t20 49t48 20
q29 0 49.5 -20t20.5 -49z" />
    <glyph glyph-name="Oslash" unicode="&#xd8;" horiz-adv-x="793" 
d="M743 347q0 -77 -22 -142.5t-65 -113.5t-108 -75t-150 -27q-71 0 -125.5 16.5t-96.5 47.5l-55 -62h-72l85 99q-42 48 -63 113t-21 143q0 76 21 141.5t64 114t108.5 76t154.5 27.5q68 0 120.5 -16t93.5 -45l52 62h81l-88 -101q44 -48 65 -114.5t21 -143.5zM537 346
q0 29 -3.5 57.5t-11.5 52.5l-235 -278q18 -28 45 -42.5t66 -14.5q38 0 64.5 16.5t43 46t24 71t7.5 91.5zM254 346q0 -64 13 -106l234 278q-17 25 -42 39.5t-61 14.5q-42 0 -70 -18.5t-44.5 -50t-23 -72t-6.5 -85.5z" />
    <glyph glyph-name="Ugrave" unicode="&#xd9;" horiz-adv-x="800" 
d="M707 259q0 -64 -17.5 -114t-55 -84.5t-95.5 -52.5t-138 -18q-84 0 -143.5 18.5t-96.5 53t-54 84.5t-17 113v309h-56v123h305v-123h-59v-318q0 -67 31 -97t91 -30q25 0 46.5 6.5t37.5 21.5t25 39.5t9 59.5v318h-57v123h303v-123h-59v-309zM214 881l83 98l169 -175l-55 -63
z" />
    <glyph glyph-name="Uacute" unicode="&#xda;" horiz-adv-x="800" 
d="M707 259q0 -64 -17.5 -114t-55 -84.5t-95.5 -52.5t-138 -18q-84 0 -143.5 18.5t-96.5 53t-54 84.5t-17 113v309h-56v123h305v-123h-59v-318q0 -67 31 -97t91 -30q25 0 46.5 6.5t37.5 21.5t25 39.5t9 59.5v318h-57v123h303v-123h-59v-309zM400 742l-56 63l169 176l87 -99z
" />
    <glyph glyph-name="Ucircumflex" unicode="&#xdb;" horiz-adv-x="800" 
d="M707 259q0 -64 -17.5 -114t-55 -84.5t-95.5 -52.5t-138 -18q-84 0 -143.5 18.5t-96.5 53t-54 84.5t-17 113v309h-56v123h305v-123h-59v-318q0 -67 31 -97t91 -30q25 0 46.5 6.5t37.5 21.5t25 39.5t9 59.5v318h-57v123h303v-123h-59v-309zM579 742l-180 99l-176 -98
l-44 49l162 151h118l167 -150z" />
    <glyph glyph-name="Udieresis" unicode="&#xdc;" horiz-adv-x="800" 
d="M707 259q0 -64 -17.5 -114t-55 -84.5t-95.5 -52.5t-138 -18q-84 0 -143.5 18.5t-96.5 53t-54 84.5t-17 113v309h-56v123h305v-123h-59v-318q0 -67 31 -97t91 -30q25 0 46.5 6.5t37.5 21.5t25 39.5t9 59.5v318h-57v123h303v-123h-59v-309zM573 811q0 -29 -20 -49t-49 -20
t-49 20t-20 49t20 49t49 20t49 -20t20 -49zM362 811q0 -29 -20 -49t-49 -20t-49 20t-20 49t20 49t48 20q29 0 49.5 -20t20.5 -49z" />
    <glyph glyph-name="Yacute" unicode="&#xdd;" horiz-adv-x="733" 
d="M476 567h-57v124h300v-124h-52l-199 -317v-128h75v-122h-359v122h76v127l-196 318h-50v124h303v-124h-55l105 -190h4zM371 741l-56 63l169 176l87 -99z" />
    <glyph glyph-name="Thorn" unicode="&#xde;" horiz-adv-x="685" 
d="M309 532h97q69 0 118 -13t79.5 -36.5t45 -57.5t14.5 -76q0 -39 -14.5 -73t-44.5 -59.5t-75.5 -40.5t-107.5 -14l-112 1v-52h69v-111h-336v111h74v462h-74v118h336v-118h-69v-41zM309 433v-169h60q42 0 67.5 20.5t25.5 62.5q0 46 -26.5 66t-71.5 20h-55z" />
    <glyph glyph-name="agrave" unicode="&#xe0;" horiz-adv-x="608" 
d="M518 120h68q2 -26 4 -51t4 -51q-32 -15 -73 -22.5t-79 -7.5q-36 0 -62 13t-28 54l-1 1q-23 -24 -47.5 -38t-46.5 -20.5t-40 -8t-28 -1.5q-48 0 -78.5 14.5t-48.5 36t-24.5 47t-6.5 46.5q0 26 8 49.5t28 42.5t54 33t87 20l133 12v16q0 33 -16.5 50.5t-61.5 17.5
q-35 0 -77 -6t-73 -16l-28 112q22 9 49.5 16.5t57 13t59.5 8t59 2.5q48 0 86.5 -9t65.5 -29.5t41.5 -54.5t14.5 -83v-207zM152 670l84 99l169 -176l-55 -63zM272 204q-26 -4 -37 -18t-11 -31q0 -26 11.5 -40.5t39.5 -14.5q16 0 33 7.5t31 20.5v85z" />
    <glyph glyph-name="aacute" unicode="&#xe1;" horiz-adv-x="608" 
d="M518 120h68q2 -26 4 -51t4 -51q-32 -15 -73 -22.5t-79 -7.5q-36 0 -62 13t-28 54l-1 1q-23 -24 -47.5 -38t-46.5 -20.5t-40 -8t-28 -1.5q-48 0 -78.5 14.5t-48.5 36t-24.5 47t-6.5 46.5q0 26 8 49.5t28 42.5t54 33t87 20l133 12v16q0 33 -16.5 50.5t-61.5 17.5
q-35 0 -77 -6t-73 -16l-28 112q22 9 49.5 16.5t57 13t59.5 8t59 2.5q48 0 86.5 -9t65.5 -29.5t41.5 -54.5t14.5 -83v-207zM239 530l-56 63l169 176l87 -99zM272 204q-26 -4 -37 -18t-11 -31q0 -26 11.5 -40.5t39.5 -14.5q16 0 33 7.5t31 20.5v85z" />
    <glyph glyph-name="acircumflex" unicode="&#xe2;" horiz-adv-x="608" 
d="M518 120h68q2 -26 4 -51t4 -51q-32 -15 -73 -22.5t-79 -7.5q-36 0 -62 13t-28 54l-1 1q-23 -24 -47.5 -38t-46.5 -20.5t-40 -8t-28 -1.5q-48 0 -78.5 14.5t-48.5 36t-24.5 47t-6.5 46.5q0 26 8 49.5t28 42.5t54 33t87 20l133 12v16q0 33 -16.5 50.5t-61.5 17.5
q-35 0 -77 -6t-73 -16l-28 112q22 9 49.5 16.5t57 13t59.5 8t59 2.5q48 0 86.5 -9t65.5 -29.5t41.5 -54.5t14.5 -83v-207zM473 528l-173 101l-171 -100l-42 50l156 156h115l159 -155zM272 204q-26 -4 -37 -18t-11 -31q0 -26 11.5 -40.5t39.5 -14.5q16 0 33 7.5t31 20.5v85z
" />
    <glyph glyph-name="atilde" unicode="&#xe3;" horiz-adv-x="608" 
d="M518 120h68q2 -26 4 -51t4 -51q-32 -15 -73 -22.5t-79 -7.5q-36 0 -62 13t-28 54l-1 1q-23 -24 -47.5 -38t-46.5 -20.5t-40 -8t-28 -1.5q-48 0 -78.5 14.5t-48.5 36t-24.5 47t-6.5 46.5q0 26 8 49.5t28 42.5t54 33t87 20l133 12v16q0 33 -16.5 50.5t-61.5 17.5
q-35 0 -77 -6t-73 -16l-28 112q22 9 49.5 16.5t57 13t59.5 8t59 2.5q48 0 86.5 -9t65.5 -29.5t41.5 -54.5t14.5 -83v-207zM398 564q-27 0 -55 6t-53.5 13t-48 13t-39.5 6l-55 -39l-52 38q21 60 50.5 83t65.5 23q24 0 49.5 -5.5t50.5 -12.5t49.5 -12.5t45.5 -5.5l55 40
l50 -38q-36 -109 -113 -109zM272 204q-26 -4 -37 -18t-11 -31q0 -26 11.5 -40.5t39.5 -14.5q16 0 33 7.5t31 20.5v85z" />
    <glyph glyph-name="adieresis" unicode="&#xe4;" horiz-adv-x="608" 
d="M518 120h68q2 -26 4 -51t4 -51q-32 -15 -73 -22.5t-79 -7.5q-36 0 -62 13t-28 54l-1 1q-23 -24 -47.5 -38t-46.5 -20.5t-40 -8t-28 -1.5q-48 0 -78.5 14.5t-48.5 36t-24.5 47t-6.5 46.5q0 26 8 49.5t28 42.5t54 33t87 20l133 12v16q0 33 -16.5 50.5t-61.5 17.5
q-35 0 -77 -6t-73 -16l-28 112q22 9 49.5 16.5t57 13t59.5 8t59 2.5q48 0 86.5 -9t65.5 -29.5t41.5 -54.5t14.5 -83v-207zM491 611q0 -29 -20 -49t-50 -20q-29 0 -49 20t-20 49t20 49t49 20q30 0 50 -19.5t20 -49.5zM279 611q0 -29 -20 -49t-49 -20t-49 20t-20 49t20 49
t48 20q30 0 50 -19.5t20 -49.5zM272 204q-26 -4 -37 -18t-11 -31q0 -26 11.5 -40.5t39.5 -14.5q16 0 33 7.5t31 20.5v85z" />
    <glyph glyph-name="aring" unicode="&#xe5;" horiz-adv-x="608" 
d="M518 120h68q2 -26 4 -51t4 -51q-32 -15 -73 -22.5t-79 -7.5q-36 0 -62 13t-28 54l-1 1q-23 -24 -47.5 -38t-46.5 -20.5t-40 -8t-28 -1.5q-48 0 -78.5 14.5t-48.5 36t-24.5 47t-6.5 46.5q0 26 8 49.5t28 42.5t54 33t87 20l133 12v16q0 33 -16.5 50.5t-61.5 17.5
q-35 0 -77 -6t-73 -16l-28 112q22 9 49.5 16.5t57 13t59.5 8t59 2.5q48 0 86.5 -9t65.5 -29.5t41.5 -54.5t14.5 -83v-207zM309 545q-29 0 -54 10.5t-43.5 28.5t-29 42.5t-10.5 51.5q0 26 10.5 50t29 42t43.5 29t54 11t53.5 -10.5t42 -28.5t27.5 -42t10 -51
q0 -28 -10.5 -52.5t-28.5 -42.5t-42 -28t-52 -10zM272 204q-26 -4 -37 -18t-11 -31q0 -26 11.5 -40.5t39.5 -14.5q16 0 33 7.5t31 20.5v85zM309 729q-23 0 -38.5 -16.5t-15.5 -37.5q0 -20 14.5 -35.5t39.5 -15.5q23 0 36.5 15.5t13.5 35.5q0 21 -13 37.5t-37 16.5z" />
    <glyph glyph-name="ccedilla" unicode="&#xe7;" horiz-adv-x="529" 
d="M306 506q43 0 87 -6.5t82 -20.5v-167h-122v60q-7 2 -16 2h-14q-25 0 -42.5 -9.5t-29 -26t-16.5 -39.5t-5 -49q0 -38 7.5 -62.5t21 -38.5t32 -20t40.5 -6q31 0 68 6t68 16q8 -27 16.5 -57t16.5 -58q-36 -17 -83 -27t-95 -12l-33 -46q51 -3 79.5 -26t28.5 -62
q0 -21 -11.5 -42t-35.5 -37t-62.5 -26.5t-92.5 -10.5q0 14 -0.5 28.5t-0.5 28.5q110 11 110 53q0 20 -19.5 25.5t-51.5 5.5h-17l-19 28l62 82q-66 5 -109 27.5t-68 56.5t-34.5 77t-9.5 91q0 45 11 92t40.5 84.5t81.5 61.5t135 24z" />
    <glyph glyph-name="egrave" unicode="&#xe8;" horiz-adv-x="572" 
d="M301 380q-37 0 -53 -26t-17 -59h133q0 18 -3 33.5t-10 27t-19 18t-31 6.5zM300 505q72 0 117 -22t71 -56.5t35.5 -78.5t9.5 -87v-41h-305q0 -54 25.5 -76.5t83.5 -22.5q36 0 74.5 7.5t74.5 20.5l36 -110q-52 -28 -111 -39t-110 -11q-80 0 -130.5 21.5t-79.5 57.5t-40 82
t-11 95q0 47 13 93.5t43 83.5t80 60t124 23zM144 670l84 99l169 -176l-55 -63z" />
    <glyph glyph-name="eacute" unicode="&#xe9;" horiz-adv-x="572" 
d="M301 380q-37 0 -53 -26t-17 -59h133q0 18 -3 33.5t-10 27t-19 18t-31 6.5zM300 505q72 0 117 -22t71 -56.5t35.5 -78.5t9.5 -87v-41h-305q0 -54 25.5 -76.5t83.5 -22.5q36 0 74.5 7.5t74.5 20.5l36 -110q-52 -28 -111 -39t-110 -11q-80 0 -130.5 21.5t-79.5 57.5t-40 82
t-11 95q0 47 13 93.5t43 83.5t80 60t124 23zM239 530l-56 63l169 176l87 -99z" />
    <glyph glyph-name="ecircumflex" unicode="&#xea;" horiz-adv-x="572" 
d="M301 380q-37 0 -53 -26t-17 -59h133q0 18 -3 33.5t-10 27t-19 18t-31 6.5zM300 505q72 0 117 -22t71 -56.5t35.5 -78.5t9.5 -87v-41h-305q0 -54 25.5 -76.5t83.5 -22.5q36 0 74.5 7.5t74.5 20.5l36 -110q-52 -28 -111 -39t-110 -11q-80 0 -130.5 21.5t-79.5 57.5t-40 82
t-11 95q0 47 13 93.5t43 83.5t80 60t124 23zM476 528l-173 101l-171 -100l-42 50l156 156h115l159 -155z" />
    <glyph glyph-name="edieresis" unicode="&#xeb;" horiz-adv-x="572" 
d="M301 380q-37 0 -53 -26t-17 -59h133q0 18 -3 33.5t-10 27t-19 18t-31 6.5zM300 505q72 0 117 -22t71 -56.5t35.5 -78.5t9.5 -87v-41h-305q0 -54 25.5 -76.5t83.5 -22.5q36 0 74.5 7.5t74.5 20.5l36 -110q-52 -28 -111 -39t-110 -11q-80 0 -130.5 21.5t-79.5 57.5t-40 82
t-11 95q0 47 13 93.5t43 83.5t80 60t124 23zM478 611q0 -29 -20 -49t-50 -20q-29 0 -49 20t-20 49t20 49t49 20q30 0 50 -19.5t20 -49.5zM266 611q0 -29 -20 -49t-49 -20t-49 20t-20 49t20 49t48 20q30 0 50 -19.5t20 -49.5z" />
    <glyph glyph-name="igrave" unicode="&#xec;" horiz-adv-x="390" 
d="M43 376v117h240v-368h69v-111q-29 -13 -67 -19.5t-67 -6.5q-70 0 -96.5 28t-26.5 83v277h-52zM30 670l84 99l169 -176l-55 -63z" />
    <glyph glyph-name="iacute" unicode="&#xed;" horiz-adv-x="390" 
d="M43 376v117h240v-368h69v-111q-29 -13 -67 -19.5t-67 -6.5q-70 0 -96.5 28t-26.5 83v277h-52zM144 530l-56 63l169 176l87 -99z" />
    <glyph glyph-name="icircumflex" unicode="&#xee;" horiz-adv-x="398" 
d="M43 376v117h240v-368h69v-111q-29 -13 -67 -19.5t-67 -6.5q-70 0 -96.5 28t-26.5 83v277h-52zM354 528l-173 101l-171 -100l-42 50l156 156h115l159 -155z" />
    <glyph glyph-name="idieresis" unicode="&#xef;" horiz-adv-x="390" 
d="M43 376v117h240v-368h69v-111q-29 -13 -67 -19.5t-67 -6.5q-70 0 -96.5 28t-26.5 83v277h-52zM363 611q0 -29 -20 -49t-50 -20q-29 0 -49 20t-20 49t20 49t49 20q30 0 50 -19.5t20 -49.5zM151 611q0 -29 -20 -49t-49 -20t-49 20t-20 49t20 49t48 20q30 0 50 -19.5
t20 -49.5z" />
    <glyph glyph-name="ntilde" unicode="&#xf1;" horiz-adv-x="696" 
d="M435 505q48 0 81 -14t52.5 -38t28 -56t8.5 -69v-204h64v-110q-30 -13 -65 -19t-64 -6q-41 0 -65 11t-37 28.5t-17 38t-4 39.5v184q0 39 -14.5 55.5t-46.5 16.5q-18 0 -40 -8.5t-39 -21.5v-332h-190v376h-60v117h246v-43q1 0 3 -0.5t3 -0.5q38 26 78 41t78 15zM412 569
q-27 0 -55 6t-53.5 13t-48 13t-39.5 6l-55 -39l-52 38q21 60 50.5 83t65.5 23q24 0 49.5 -5.5t50.5 -12.5t49.5 -12.5t45.5 -5.5l55 40l50 -38q-36 -109 -113 -109z" />
    <glyph glyph-name="ograve" unicode="&#xf2;" horiz-adv-x="628" 
d="M588 247q0 -54 -16.5 -101t-50.5 -81.5t-86 -54.5t-123 -20q-70 0 -121.5 19.5t-85 53.5t-49.5 81t-16 103q0 54 16.5 101t50.5 81.5t86 54.5t122 20t121.5 -20t85.5 -54.5t50 -81.5t16 -101zM395 247q0 25 -3.5 48t-12 41t-24 28.5t-39.5 10.5q-25 0 -41 -11t-25.5 -29
t-13 -41t-3.5 -47q0 -27 3.5 -51t12.5 -42t24.5 -28t40.5 -10q24 0 40 10.5t25 28t12.5 41.5t3.5 51zM148 670l84 99l169 -176l-55 -63z" />
    <glyph glyph-name="oacute" unicode="&#xf3;" horiz-adv-x="628" 
d="M588 247q0 -54 -16.5 -101t-50.5 -81.5t-86 -54.5t-123 -20q-70 0 -121.5 19.5t-85 53.5t-49.5 81t-16 103q0 54 16.5 101t50.5 81.5t86 54.5t122 20t121.5 -20t85.5 -54.5t50 -81.5t16 -101zM395 247q0 25 -3.5 48t-12 41t-24 28.5t-39.5 10.5q-25 0 -41 -11t-25.5 -29
t-13 -41t-3.5 -47q0 -27 3.5 -51t12.5 -42t24.5 -28t40.5 -10q24 0 40 10.5t25 28t12.5 41.5t3.5 51zM264 530l-56 63l169 176l87 -99z" />
    <glyph glyph-name="ocircumflex" unicode="&#xf4;" horiz-adv-x="628" 
d="M588 247q0 -54 -16.5 -101t-50.5 -81.5t-86 -54.5t-123 -20q-70 0 -121.5 19.5t-85 53.5t-49.5 81t-16 103q0 54 16.5 101t50.5 81.5t86 54.5t122 20t121.5 -20t85.5 -54.5t50 -81.5t16 -101zM395 247q0 25 -3.5 48t-12 41t-24 28.5t-39.5 10.5q-25 0 -41 -11t-25.5 -29
t-13 -41t-3.5 -47q0 -27 3.5 -51t12.5 -42t24.5 -28t40.5 -10q24 0 40 10.5t25 28t12.5 41.5t3.5 51zM487 528l-173 101l-171 -100l-42 50l156 156h115l159 -155z" />
    <glyph glyph-name="otilde" unicode="&#xf5;" horiz-adv-x="628" 
d="M588 247q0 -54 -16.5 -101t-50.5 -81.5t-86 -54.5t-123 -20q-70 0 -121.5 19.5t-85 53.5t-49.5 81t-16 103q0 54 16.5 101t50.5 81.5t86 54.5t122 20t121.5 -20t85.5 -54.5t50 -81.5t16 -101zM395 247q0 25 -3.5 48t-12 41t-24 28.5t-39.5 10.5q-25 0 -41 -11t-25.5 -29
t-13 -41t-3.5 -47q0 -27 3.5 -51t12.5 -42t24.5 -28t40.5 -10q24 0 40 10.5t25 28t12.5 41.5t3.5 51zM412 555q-27 0 -55 6t-53.5 13t-48 13t-39.5 6l-55 -39l-52 38q21 60 50.5 83t65.5 23q24 0 49.5 -5.5t50.5 -12.5t49.5 -12.5t45.5 -5.5l55 40l50 -38
q-36 -109 -113 -109z" />
    <glyph glyph-name="odieresis" unicode="&#xf6;" horiz-adv-x="628" 
d="M588 247q0 -54 -16.5 -101t-50.5 -81.5t-86 -54.5t-123 -20q-70 0 -121.5 19.5t-85 53.5t-49.5 81t-16 103q0 54 16.5 101t50.5 81.5t86 54.5t122 20t121.5 -20t85.5 -54.5t50 -81.5t16 -101zM395 247q0 25 -3.5 48t-12 41t-24 28.5t-39.5 10.5q-25 0 -41 -11t-25.5 -29
t-13 -41t-3.5 -47q0 -27 3.5 -51t12.5 -42t24.5 -28t40.5 -10q24 0 40 10.5t25 28t12.5 41.5t3.5 51zM487 611q0 -29 -20 -49t-50 -20q-29 0 -49 20t-20 49t20 49t49 20q30 0 50 -19.5t20 -49.5zM275 611q0 -29 -20 -49t-49 -20t-49 20t-20 49t20 49t48 20q30 0 50 -19.5
t20 -49.5z" />
    <glyph glyph-name="oslash" unicode="&#xf8;" horiz-adv-x="628" 
d="M314 503q52 0 93 -11.5t73 -31.5l39 43h69l-68 -73q34 -35 50.5 -82t16.5 -102q0 -54 -16.5 -101t-50.5 -81t-86 -53.5t-123 -19.5q-106 0 -168 40q-9 -10 -18 -19.5t-19 -18.5h-69q17 17 33 34.5t33 34.5q-33 35 -48 81.5t-15 102.5q0 54 16.5 101t50.5 81.5t85.5 54.5
t121.5 20zM394 246q0 12 -1.5 25t-5.5 24l-134 -152q10 -13 24.5 -20.5t36.5 -7.5q24 0 39.5 10t24.5 28t12.5 42t3.5 51zM314 375q-42 0 -63 -35.5t-21 -90.5q0 -11 1 -25.5t5 -25.5l133 151q-9 12 -22 19t-33 7z" />
    <glyph glyph-name="ugrave" unicode="&#xf9;" horiz-adv-x="685" 
d="M357 493h238v-369h62v-111q-45 -15 -78.5 -19.5t-54.5 -4.5q-55 0 -78.5 18.5t-29.5 53.5q-37 -35 -79 -54.5t-87 -19.5q-81 0 -121.5 43t-40.5 124v220h-61v119h251v-295q0 -34 10.5 -49.5t42.5 -15.5q12 0 34 7.5t41 27.5v207h-49v118zM171 670l84 99l169 -176l-55 -63
z" />
    <glyph glyph-name="uacute" unicode="&#xfa;" horiz-adv-x="685" 
d="M357 493h238v-369h62v-111q-45 -15 -78.5 -19.5t-54.5 -4.5q-55 0 -78.5 18.5t-29.5 53.5q-37 -35 -79 -54.5t-87 -19.5q-81 0 -121.5 43t-40.5 124v220h-61v119h251v-295q0 -34 10.5 -49.5t42.5 -15.5q12 0 34 7.5t41 27.5v207h-49v118zM308 530l-56 63l169 176l87 -99z
" />
    <glyph glyph-name="ucircumflex" unicode="&#xfb;" horiz-adv-x="685" 
d="M357 493h238v-369h62v-111q-45 -15 -78.5 -19.5t-54.5 -4.5q-55 0 -78.5 18.5t-29.5 53.5q-37 -35 -79 -54.5t-87 -19.5q-81 0 -121.5 43t-40.5 124v220h-61v119h251v-295q0 -34 10.5 -49.5t42.5 -15.5q12 0 34 7.5t41 27.5v207h-49v118zM510 528l-173 101l-171 -100
l-42 50l156 156h115l159 -155z" />
    <glyph glyph-name="udieresis" unicode="&#xfc;" horiz-adv-x="685" 
d="M357 493h238v-369h62v-111q-45 -15 -78.5 -19.5t-54.5 -4.5q-55 0 -78.5 18.5t-29.5 53.5q-37 -35 -79 -54.5t-87 -19.5q-81 0 -121.5 43t-40.5 124v220h-61v119h251v-295q0 -34 10.5 -49.5t42.5 -15.5q12 0 34 7.5t41 27.5v207h-49v118zM511 611q0 -29 -20 -49t-50 -20
q-29 0 -49 20t-20 49t20 49t49 20q30 0 50 -19.5t20 -49.5zM299 611q0 -29 -20 -49t-49 -20t-49 20t-20 49t20 49t48 20q30 0 50 -19.5t20 -49.5z" />
    <glyph glyph-name="yacute" unicode="&#xfd;" horiz-adv-x="651" 
d="M399 -119q-9 -23 -21 -41.5t-29 -32t-41 -21t-57 -7.5q-7 0 -24 1t-39.5 4t-48 8t-49.5 14l22 125q5 -1 15 -2.5t21 -3t20.5 -2.5t13.5 -1q35 -1 49.5 8.5t25.5 36.5l20 52h-88q-5 15 -14.5 42.5t-21.5 60.5t-24.5 69t-24.5 69.5t-22 60.5t-15 43h-49v129h189l110 -371h4
q1 5 7.5 24t14.5 45t17.5 55.5t18 56t15 46l8.5 25.5h-47v119h275v-119h-45zM291 530l-56 63l169 176l87 -99z" />
    <glyph glyph-name="thorn" unicode="&#xfe;" horiz-adv-x="665" 
d="M85 573h-63v117h246v-233q1 0 1.5 -0.5t1.5 -0.5q17 12 36.5 20.5t38.5 14t36.5 8t30.5 2.5q61 0 102 -19t65.5 -52t34.5 -77.5t10 -95.5q0 -59 -11.5 -108t-37.5 -84t-68.5 -55t-103.5 -20q-11 0 -27 1.5t-34 5t-36 8.5t-33 12v-112h64v-116h-315v116h62v668zM356 120
q13 0 27.5 5t26.5 20t20 41t8 68q0 39 -7 62.5t-18.5 35.5t-26.5 16t-30 4q-17 0 -41 -8t-41 -20v-202q18 -10 40 -16t42 -6z" />
    <glyph glyph-name="ydieresis" unicode="&#xff;" horiz-adv-x="651" 
d="M399 -119q-9 -23 -21 -41.5t-29 -32t-41 -21t-57 -7.5q-7 0 -24 1t-39.5 4t-48 8t-49.5 14l22 125q5 -1 15 -2.5t21 -3t20.5 -2.5t13.5 -1q35 -1 49.5 8.5t25.5 36.5l20 52h-88q-5 15 -14.5 42.5t-21.5 60.5t-24.5 69t-24.5 69.5t-22 60.5t-15 43h-49v129h189l110 -371h4
q1 5 7.5 24t14.5 45t17.5 55.5t18 56t15 46l8.5 25.5h-47v119h275v-119h-45zM495 611q0 -29 -20 -49t-50 -20q-29 0 -49 20t-20 49t20 49t49 20q30 0 50 -19.5t20 -49.5zM283 611q0 -29 -20 -49t-49 -20t-49 20t-20 49t20 49t48 20q30 0 50 -19.5t20 -49.5z" />
    <glyph glyph-name="Amacron" unicode="&#x100;" horiz-adv-x="794" 
d="M526 121l-22 71h-227l-23 -71h61v-121h-295v121h54l210 569h237l198 -569h55v-121h-306v121h58zM206 862h376v-113h-376v113zM468 307q-17 60 -35 117t-36 117h-4q-5 -18 -14 -46.5t-20 -61t-22 -66t-20 -60.5h151z" />
    <glyph glyph-name="amacron" unicode="&#x101;" horiz-adv-x="608" 
d="M518 120h68q2 -26 4 -51t4 -51q-32 -15 -73 -22.5t-79 -7.5q-36 0 -62 13t-28 54l-1 1q-23 -24 -47.5 -38t-46.5 -20.5t-40 -8t-28 -1.5q-48 0 -78.5 14.5t-48.5 36t-24.5 47t-6.5 46.5q0 26 8 49.5t28 42.5t54 33t87 20l133 12v16q0 33 -16.5 50.5t-61.5 17.5
q-35 0 -77 -6t-73 -16l-28 112q22 9 49.5 16.5t57 13t59.5 8t59 2.5q48 0 86.5 -9t65.5 -29.5t41.5 -54.5t14.5 -83v-207zM101 689h391v-114h-391v114zM272 204q-26 -4 -37 -18t-11 -31q0 -26 11.5 -40.5t39.5 -14.5q16 0 33 7.5t31 20.5v85z" />
    <glyph glyph-name="Abreve" unicode="&#x102;" horiz-adv-x="794" 
d="M526 121l-22 71h-227l-23 -71h61v-121h-295v121h54l210 569h237l198 -569h55v-121h-306v121h58zM399 742q-32 0 -60 11t-53 30.5t-47 45.5t-41 56l68 54q35 -48 73 -69.5t64 -21.5q9 0 22 1t32 9t45 25.5t60 49.5l49 -48q-25 -41 -52.5 -68.5t-55 -44t-54 -23.5t-50.5 -7
zM468 307q-17 60 -35 117t-36 117h-4q-5 -18 -14 -46.5t-20 -61t-22 -66t-20 -60.5h151z" />
    <glyph glyph-name="abreve" unicode="&#x103;" horiz-adv-x="608" 
d="M518 120h68q2 -26 4 -51t4 -51q-32 -15 -73 -22.5t-79 -7.5q-36 0 -62 13t-28 54l-1 1q-23 -24 -47.5 -38t-46.5 -20.5t-40 -8t-28 -1.5q-48 0 -78.5 14.5t-48.5 36t-24.5 47t-6.5 46.5q0 26 8 49.5t28 42.5t54 33t87 20l133 12v16q0 33 -16.5 50.5t-61.5 17.5
q-35 0 -77 -6t-73 -16l-28 112q22 9 49.5 16.5t57 13t59.5 8t59 2.5q48 0 86.5 -9t65.5 -29.5t41.5 -54.5t14.5 -83v-207zM298 549q-32 0 -60 11t-53 30.5t-47 45.5t-41 56l68 55q35 -48 73 -69.5t64 -21.5q9 0 22 1t32 8.5t45 25t60 49.5l49 -48q-25 -41 -52.5 -68.5
t-55 -44t-54 -23.5t-50.5 -7zM272 204q-26 -4 -37 -18t-11 -31q0 -26 11.5 -40.5t39.5 -14.5q16 0 33 7.5t31 20.5v85z" />
    <glyph glyph-name="Aogonek" unicode="&#x104;" horiz-adv-x="794" 
d="M526 121l-22 71h-227l-23 -71h61v-121h-295v121h54l210 569h237l198 -569h55v-121h-130q-20 -29 -33.5 -60t-14.5 -54q0 -24 11.5 -37t39.5 -13q21 0 41.5 4t39.5 9l12 -53q-30 -17 -63 -25.5t-65 -8.5q-57 0 -86 23.5t-29 65.5q0 28 15 67.5t60 81.5h-104v121h58z
M468 307q-17 60 -35 117t-36 117h-4q-5 -18 -14 -46.5t-20 -61t-22 -66t-20 -60.5h151z" />
    <glyph glyph-name="aogonek" unicode="&#x105;" horiz-adv-x="608" 
d="M518 120h68q2 -26 4 -51t4 -51q-20 -10 -44 -16t-49 -10q-16 -26 -26 -51.5t-11 -45.5q0 -24 11.5 -37t39.5 -13q21 0 41.5 4t39.5 9l12 -53q-30 -17 -63 -25.5t-65 -8.5q-57 0 -86 23.5t-29 65.5q0 25 11 58.5t44 70.5q-28 3 -47 17t-21 49l-1 1q-23 -24 -47.5 -38
t-46.5 -20.5t-40 -8t-28 -1.5q-48 0 -78.5 14.5t-48.5 36t-24.5 47t-6.5 46.5q0 26 8 49.5t28 42.5t54 33t87 20l133 12v16q0 33 -16.5 50.5t-61.5 17.5q-35 0 -77 -6t-73 -16l-28 112q22 9 49.5 16.5t57 13t59.5 8t59 2.5q48 0 86.5 -9t65.5 -29.5t41.5 -54.5t14.5 -83
v-207zM272 204q-26 -4 -37 -18t-11 -31q0 -26 11.5 -40.5t39.5 -14.5q16 0 33 7.5t31 20.5v85z" />
    <glyph glyph-name="Cacute" unicode="&#x106;" horiz-adv-x="668" 
d="M254 350q0 -62 11.5 -102.5t35 -64.5t59.5 -33.5t85 -9.5q12 0 31 1.5t41 4t45 6t41 8.5l28 -132q-24 -9 -53 -16.5t-59.5 -12.5t-61.5 -7.5t-59 -2.5q-105 0 -172.5 29t-106.5 78.5t-54 113.5t-15 135q0 65 15 129.5t55 116t110 83.5t181 32q54 0 101 -7.5t90 -20.5
v-222h-133v101q-14 3 -27.5 4t-27.5 1q-45 0 -75.5 -15t-49 -42.5t-27 -67t-8.5 -87.5zM366 742l-56 63l169 176l87 -99z" />
    <glyph glyph-name="cacute" unicode="&#x107;" horiz-adv-x="529" 
d="M306 506q43 0 87 -6.5t82 -20.5v-167h-122v60q-7 2 -16 2h-14q-25 0 -42.5 -9.5t-29 -26t-16.5 -39.5t-5 -49q0 -38 7.5 -62.5t21 -38.5t32 -20t40.5 -6q31 0 68 6t68 16q8 -27 16.5 -57t16.5 -58q-41 -20 -94.5 -30t-106.5 -10q-79 0 -129.5 20.5t-80 55.5t-40.5 81
t-11 97q0 45 11 92t40.5 84.5t81.5 61.5t135 24zM226 530l-56 63l169 176l87 -99z" />
    <glyph glyph-name="Ccircumflex" unicode="&#x108;" horiz-adv-x="668" 
d="M254 350q0 -62 11.5 -102.5t35 -64.5t59.5 -33.5t85 -9.5q12 0 31 1.5t41 4t45 6t41 8.5l28 -132q-24 -9 -53 -16.5t-59.5 -12.5t-61.5 -7.5t-59 -2.5q-105 0 -172.5 29t-106.5 78.5t-54 113.5t-15 135q0 65 15 129.5t55 116t110 83.5t181 32q54 0 101 -7.5t90 -20.5
v-222h-133v101q-14 3 -27.5 4t-27.5 1q-45 0 -75.5 -15t-49 -42.5t-27 -67t-8.5 -87.5zM553 742l-173 101l-170 -100l-42 50l156 154h114l160 -153z" />
    <glyph glyph-name="ccircumflex" unicode="&#x109;" horiz-adv-x="529" 
d="M306 506q43 0 87 -6.5t82 -20.5v-167h-122v60q-7 2 -16 2h-14q-25 0 -42.5 -9.5t-29 -26t-16.5 -39.5t-5 -49q0 -38 7.5 -62.5t21 -38.5t32 -20t40.5 -6q31 0 68 6t68 16q8 -27 16.5 -57t16.5 -58q-41 -20 -94.5 -30t-106.5 -10q-79 0 -129.5 20.5t-80 55.5t-40.5 81
t-11 97q0 45 11 92t40.5 84.5t81.5 61.5t135 24zM457 528l-173 101l-171 -100l-42 50l156 156h115l159 -155z" />
    <glyph glyph-name="Cdotaccent" unicode="&#x10a;" horiz-adv-x="668" 
d="M254 350q0 -62 11.5 -102.5t35 -64.5t59.5 -33.5t85 -9.5q12 0 31 1.5t41 4t45 6t41 8.5l28 -132q-24 -9 -53 -16.5t-59.5 -12.5t-61.5 -7.5t-59 -2.5q-105 0 -172.5 29t-106.5 78.5t-54 113.5t-15 135q0 65 15 129.5t55 116t110 83.5t181 32q54 0 101 -7.5t90 -20.5
v-222h-133v101q-14 3 -27.5 4t-27.5 1q-45 0 -75.5 -15t-49 -42.5t-27 -67t-8.5 -87.5zM497 854q0 -23 -8.5 -42.5t-23.5 -34.5t-35 -23.5t-42 -8.5q-23 0 -42.5 8.5t-34 23.5t-23 34.5t-8.5 42.5q0 22 8.5 42t23 35t34 23.5t42.5 8.5q22 0 42 -8.5t35 -23.5t23.5 -35
t8.5 -42z" />
    <glyph glyph-name="cdotaccent" unicode="&#x10b;" horiz-adv-x="529" 
d="M306 506q43 0 87 -6.5t82 -20.5v-167h-122v60q-7 2 -16 2h-14q-25 0 -42.5 -9.5t-29 -26t-16.5 -39.5t-5 -49q0 -38 7.5 -62.5t21 -38.5t32 -20t40.5 -6q31 0 68 6t68 16q8 -27 16.5 -57t16.5 -58q-41 -20 -94.5 -30t-106.5 -10q-79 0 -129.5 20.5t-80 55.5t-40.5 81
t-11 97q0 45 11 92t40.5 84.5t81.5 61.5t135 24zM404 654q0 -22 -7.5 -41t-21 -33.5t-31 -22.5t-37.5 -8q-42 0 -69.5 30.5t-27.5 74.5t27.5 74.5t69.5 30.5q20 0 37.5 -8.5t31 -22.5t21 -33t7.5 -41z" />
    <glyph glyph-name="Ccaron" unicode="&#x10c;" horiz-adv-x="668" 
d="M254 350q0 -62 11.5 -102.5t35 -64.5t59.5 -33.5t85 -9.5q12 0 31 1.5t41 4t45 6t41 8.5l28 -132q-24 -9 -53 -16.5t-59.5 -12.5t-61.5 -7.5t-59 -2.5q-105 0 -172.5 29t-106.5 78.5t-54 113.5t-15 135q0 65 15 129.5t55 116t110 83.5t181 32q54 0 101 -7.5t90 -20.5
v-222h-133v101q-14 3 -27.5 4t-27.5 1q-45 0 -75.5 -15t-49 -42.5t-27 -67t-8.5 -87.5zM595 899l-159 -154h-114l-157 154l42 50l171 -100l173 101z" />
    <glyph glyph-name="ccaron" unicode="&#x10d;" horiz-adv-x="529" 
d="M306 506q43 0 87 -6.5t82 -20.5v-167h-122v60q-7 2 -16 2h-14q-25 0 -42.5 -9.5t-29 -26t-16.5 -39.5t-5 -49q0 -38 7.5 -62.5t21 -38.5t32 -20t40.5 -6q31 0 68 6t68 16q8 -27 16.5 -57t16.5 -58q-41 -20 -94.5 -30t-106.5 -10q-79 0 -129.5 20.5t-80 55.5t-40.5 81
t-11 97q0 45 11 92t40.5 84.5t81.5 61.5t135 24zM513 699l-159 -156h-115l-156 156l42 50l171 -100l173 101z" />
    <glyph glyph-name="Dcaron" unicode="&#x10e;" horiz-adv-x="784" 
d="M44 0v122h75v446h-70v123h358q97 0 160.5 -27.5t100.5 -74.5t51.5 -109.5t14.5 -132.5q0 -69 -16.5 -131.5t-55.5 -110.5t-102 -76.5t-156 -28.5h-360zM313 568v-446h71q31 0 57.5 13.5t46 41t30.5 69.5t11 98q0 116 -40 170t-108 54h-68zM570 899l-159 -154h-114
l-157 154l42 50l171 -100l173 101z" />
    <glyph glyph-name="dcaron" unicode="&#x10f;" horiz-adv-x="838" 
d="M650 676q0 30 24 52t62 22q23 0 39.5 -8t27 -20.5t15.5 -29t5 -33.5q0 -27 -11.5 -54t-29.5 -50.5t-41 -42t-48 -30.5l-42 51q23 17 37 35.5t17 41.5q-29 5 -42 22.5t-13 43.5zM400 41q-17 -14 -37.5 -23.5t-40.5 -15.5t-38.5 -9t-31.5 -3q-61 0 -102 19t-65.5 52
t-34.5 78t-10 96q0 58 11.5 108t37.5 86t68 56.5t104 20.5q11 0 27 -1.5t33.5 -4.5t36 -8t34.5 -12v122h-68v118h256v-602h62v-118h-239v40zM309 374q-13 0 -27.5 -4t-26.5 -18t-19.5 -41t-7.5 -72q0 -39 7 -62.5t18 -36t26 -16.5t30 -4q19 0 42 8t40 20v204q-18 10 -40 16
t-42 6z" />
    <glyph glyph-name="dcroat" unicode="&#x111;" horiz-adv-x="666" 
d="M399 41q-17 -14 -37 -23.5t-40 -15.5t-38.5 -9t-31.5 -3q-61 0 -102 18t-65.5 49.5t-34.5 75t-10 94.5q0 55 11.5 101t37.5 79t68 51.5t104 18.5q11 0 27 -2t34 -6t36.5 -9.5t33.5 -12.5v63h-118v58h118v43h-68v109h256v-152h59v-58h-59v-393h62v-117h-240v40zM309 349
q-13 0 -28 -4t-27 -16.5t-19.5 -36t-6.5 -61.5q1 -39 8 -61.5t18 -34t25.5 -14t29.5 -2.5q17 0 41 8.5t41 19.5v179q-18 11 -40 17t-42 6z" />
    <glyph glyph-name="Emacron" unicode="&#x112;" horiz-adv-x="713" 
d="M44 0v123h72v445h-71v122h621v-237h-132v115h-225v-157l212 8v-127l-212 6v-175h235v123h133v-246h-633zM199 862h376v-113h-376v113z" />
    <glyph glyph-name="emacron" unicode="&#x113;" horiz-adv-x="572" 
d="M301 380q-37 0 -53 -26t-17 -59h133q0 18 -3 33.5t-10 27t-19 18t-31 6.5zM300 505q72 0 117 -22t71 -56.5t35.5 -78.5t9.5 -87v-41h-305q0 -54 25.5 -76.5t83.5 -22.5q36 0 74.5 7.5t74.5 20.5l36 -110q-52 -28 -111 -39t-110 -11q-80 0 -130.5 21.5t-79.5 57.5t-40 82
t-11 95q0 47 13 93.5t43 83.5t80 60t124 23zM96 689h391v-114h-391v114z" />
    <glyph glyph-name="Ebreve" unicode="&#x114;" horiz-adv-x="713" 
d="M44 0v123h72v445h-71v122h621v-237h-132v115h-225v-157l212 8v-127l-212 6v-175h235v123h133v-246h-633zM377 742q-32 0 -60 11t-53 30.5t-47 45.5t-41 56l68 54q35 -48 73 -69.5t64 -21.5q9 0 22 1t32 9t45 25.5t60 49.5l49 -48q-25 -41 -52.5 -68.5t-55 -44t-54 -23.5
t-50.5 -7z" />
    <glyph glyph-name="ebreve" unicode="&#x115;" horiz-adv-x="572" 
d="M301 380q-37 0 -53 -26t-17 -59h133q0 18 -3 33.5t-10 27t-19 18t-31 6.5zM300 505q72 0 117 -22t71 -56.5t35.5 -78.5t9.5 -87v-41h-305q0 -54 25.5 -76.5t83.5 -22.5q36 0 74.5 7.5t74.5 20.5l36 -110q-52 -28 -111 -39t-110 -11q-80 0 -130.5 21.5t-79.5 57.5t-40 82
t-11 95q0 47 13 93.5t43 83.5t80 60t124 23zM298 549q-32 0 -60 11t-53 30.5t-47 45.5t-41 56l68 55q35 -48 73 -69.5t64 -21.5q9 0 22 1t32 8.5t45 25t60 49.5l49 -48q-25 -41 -52.5 -68.5t-55 -44t-54 -23.5t-50.5 -7z" />
    <glyph glyph-name="Edotaccent" unicode="&#x116;" horiz-adv-x="713" 
d="M44 0v123h72v445h-71v122h621v-237h-132v115h-225v-157l212 8v-127l-212 6v-175h235v123h133v-246h-633zM478 848q0 -23 -8.5 -42.5t-23.5 -34.5t-35 -23.5t-42 -8.5q-23 0 -42.5 8.5t-34 23.5t-23 34.5t-8.5 42.5q0 22 8.5 42t23 35t34 23.5t42.5 8.5q22 0 42 -8.5
t35 -23.5t23.5 -35t8.5 -42z" />
    <glyph glyph-name="edotaccent" unicode="&#x117;" horiz-adv-x="572" 
d="M301 380q-37 0 -53 -26t-17 -59h133q0 18 -3 33.5t-10 27t-19 18t-31 6.5zM300 505q72 0 117 -22t71 -56.5t35.5 -78.5t9.5 -87v-41h-305q0 -54 25.5 -76.5t83.5 -22.5q36 0 74.5 7.5t74.5 20.5l36 -110q-52 -28 -111 -39t-110 -11q-80 0 -130.5 21.5t-79.5 57.5t-40 82
t-11 95q0 47 13 93.5t43 83.5t80 60t124 23zM422 654q0 -23 -8.5 -42.5t-23.5 -34.5t-35 -23.5t-42 -8.5q-23 0 -42.5 8.5t-34 23.5t-23 34.5t-8.5 42.5q0 22 8.5 42t23 35t34 23.5t42.5 8.5q22 0 42 -8.5t35 -23.5t23.5 -35t8.5 -42z" />
    <glyph glyph-name="Eogonek" unicode="&#x118;" horiz-adv-x="713" 
d="M616 0q-19 -28 -31.5 -57t-13.5 -52q0 -24 11.5 -37t39.5 -13q21 0 41.5 4t39.5 9l12 -53q-30 -17 -63 -25.5t-65 -8.5q-57 0 -86 23.5t-29 65.5q0 27 14 64.5t56 79.5h-498v123h72v445h-71v122h621v-237h-132v115h-225v-157l212 8v-127l-212 6v-175h235v123h133v-246
h-61z" />
    <glyph glyph-name="eogonek" unicode="&#x119;" horiz-adv-x="572" 
d="M300 505q72 0 117 -22t71 -56.5t35.5 -78.5t9.5 -87v-41h-305q0 -54 25.5 -76.5t83.5 -22.5q36 0 74.5 7.5t74.5 20.5l36 -110q-31 -16 -65 -27q-14 -24 -23 -47.5t-10 -42.5q0 -24 11.5 -37t39.5 -13q21 0 41.5 4t39.5 9l12 -53q-30 -17 -63 -25.5t-65 -8.5
q-57 0 -86 23.5t-29 65.5q0 20 7.5 47.5t29.5 57.5q-32 -3 -61 -3q-80 0 -130.5 21.5t-79.5 57.5t-40 82t-11 95q0 47 13 93.5t43 83.5t80 60t124 23zM301 380q-37 0 -53 -26t-17 -59h133q0 18 -3 33.5t-10 27t-19 18t-31 6.5z" />
    <glyph glyph-name="Ecaron" unicode="&#x11a;" horiz-adv-x="713" 
d="M44 0v123h72v445h-71v122h621v-237h-132v115h-225v-157l212 8v-127l-212 6v-175h235v123h133v-246h-633zM601 899l-159 -154h-114l-157 154l42 50l171 -100l173 101z" />
    <glyph glyph-name="ecaron" unicode="&#x11b;" horiz-adv-x="572" 
d="M301 380q-37 0 -53 -26t-17 -59h133q0 18 -3 33.5t-10 27t-19 18t-31 6.5zM300 505q72 0 117 -22t71 -56.5t35.5 -78.5t9.5 -87v-41h-305q0 -54 25.5 -76.5t83.5 -22.5q36 0 74.5 7.5t74.5 20.5l36 -110q-52 -28 -111 -39t-110 -11q-80 0 -130.5 21.5t-79.5 57.5t-40 82
t-11 95q0 47 13 93.5t43 83.5t80 60t124 23zM504 699l-159 -156h-115l-156 156l42 50l171 -100l173 101z" />
    <glyph glyph-name="Gcircumflex" unicode="&#x11c;" horiz-adv-x="737" 
d="M420 706q54 0 107.5 -7.5t96.5 -20.5v-216h-133v94q-14 3 -31 5t-32 2q-47 0 -80 -15.5t-54 -43t-30.5 -67t-9.5 -87.5q0 -112 36 -162.5t116 -50.5q17 0 36.5 2t36.5 6v115h-74v111h295v-111h-48v-230q-63 -23 -130 -32t-124 -9q-105 0 -172.5 30t-106.5 79.5t-54 113.5
t-15 133q0 63 15 127.5t56 116.5t113 84.5t186 32.5zM577 742l-173 101l-170 -100l-42 50l156 154h114l160 -153z" />
    <glyph glyph-name="gcircumflex" unicode="&#x11d;" horiz-adv-x="631" 
d="M534 406q11 -16 17 -41t6 -42q0 -44 -19.5 -76.5t-53 -54t-77.5 -32.5t-93 -12l-59 -1q-49 0 -49 -29q0 -20 31 -20h152q47 0 85.5 -7.5t66.5 -24t43 -43.5t15 -66q0 -32 -14.5 -63.5t-51.5 -57t-99 -41t-156 -15.5q-72 0 -119.5 10.5t-75 27.5t-39 39t-11.5 46
q0 38 17.5 67.5t45.5 46.5q-26 8 -39.5 28t-13.5 47q0 32 22 56.5t60 38.5q-31 14 -51 46.5t-20 82.5t21 85.5t55.5 58.5t80 33.5t93.5 10.5q33 0 62.5 -3.5t49.5 -8.5h187v-82h-64zM249 -7q-14 -6 -23 -19t-9 -24q0 -20 19 -34t68 -14q45 0 72.5 14t27.5 35
q0 19 -14.5 30.5t-43.5 11.5h-97zM368 324q0 24 -14.5 43t-49.5 19q-31 0 -46 -18.5t-15 -44.5q0 -28 15 -43.5t44 -15.5q28 0 47 14.5t19 45.5zM472 528l-173 101l-171 -100l-42 50l156 156h115l159 -155z" />
    <glyph glyph-name="Gbreve" unicode="&#x11e;" horiz-adv-x="737" 
d="M420 706q54 0 107.5 -7.5t96.5 -20.5v-216h-133v94q-14 3 -31 5t-32 2q-47 0 -80 -15.5t-54 -43t-30.5 -67t-9.5 -87.5q0 -112 36 -162.5t116 -50.5q17 0 36.5 2t36.5 6v115h-74v111h295v-111h-48v-230q-63 -23 -130 -32t-124 -9q-105 0 -172.5 30t-106.5 79.5t-54 113.5
t-15 133q0 63 15 127.5t56 116.5t113 84.5t186 32.5zM388 742q-32 0 -60 11t-53 30.5t-47 45.5t-41 56l68 54q35 -48 73 -69.5t64 -21.5q9 0 22 1t32 9t45 25.5t60 49.5l49 -48q-25 -41 -52.5 -68.5t-55 -44t-54 -23.5t-50.5 -7z" />
    <glyph glyph-name="gbreve" unicode="&#x11f;" horiz-adv-x="631" 
d="M534 406q11 -16 17 -41t6 -42q0 -44 -19.5 -76.5t-53 -54t-77.5 -32.5t-93 -12l-59 -1q-49 0 -49 -29q0 -20 31 -20h152q47 0 85.5 -7.5t66.5 -24t43 -43.5t15 -66q0 -32 -14.5 -63.5t-51.5 -57t-99 -41t-156 -15.5q-72 0 -119.5 10.5t-75 27.5t-39 39t-11.5 46
q0 38 17.5 67.5t45.5 46.5q-26 8 -39.5 28t-13.5 47q0 32 22 56.5t60 38.5q-31 14 -51 46.5t-20 82.5t21 85.5t55.5 58.5t80 33.5t93.5 10.5q33 0 62.5 -3.5t49.5 -8.5h187v-82h-64zM249 -7q-14 -6 -23 -19t-9 -24q0 -20 19 -34t68 -14q45 0 72.5 14t27.5 35
q0 19 -14.5 30.5t-43.5 11.5h-97zM368 324q0 24 -14.5 43t-49.5 19q-31 0 -46 -18.5t-15 -44.5q0 -28 15 -43.5t44 -15.5q28 0 47 14.5t19 45.5zM301 549q-32 0 -60 11t-53 30.5t-47 45.5t-41 56l68 55q35 -48 73 -69.5t64 -21.5q9 0 22 1t32 8.5t45 25t60 49.5l49 -48
q-25 -41 -52.5 -68.5t-55 -44t-54 -23.5t-50.5 -7z" />
    <glyph glyph-name="Gdotaccent" unicode="&#x120;" horiz-adv-x="737" 
d="M420 706q54 0 107.5 -7.5t96.5 -20.5v-216h-133v94q-14 3 -31 5t-32 2q-47 0 -80 -15.5t-54 -43t-30.5 -67t-9.5 -87.5q0 -112 36 -162.5t116 -50.5q17 0 36.5 2t36.5 6v115h-74v111h295v-111h-48v-230q-63 -23 -130 -32t-124 -9q-105 0 -172.5 30t-106.5 79.5t-54 113.5
t-15 133q0 63 15 127.5t56 116.5t113 84.5t186 32.5zM529 853q0 -23 -8.5 -42.5t-23.5 -34.5t-35 -23.5t-42 -8.5q-23 0 -42.5 8.5t-34 23.5t-23 34.5t-8.5 42.5q0 22 8.5 42t23 35t34 23.5t42.5 8.5q22 0 42 -8.5t35 -23.5t23.5 -35t8.5 -42z" />
    <glyph glyph-name="gdotaccent" unicode="&#x121;" horiz-adv-x="631" 
d="M534 406q11 -16 17 -41t6 -42q0 -44 -19.5 -76.5t-53 -54t-77.5 -32.5t-93 -12l-59 -1q-49 0 -49 -29q0 -20 31 -20h152q47 0 85.5 -7.5t66.5 -24t43 -43.5t15 -66q0 -32 -14.5 -63.5t-51.5 -57t-99 -41t-156 -15.5q-72 0 -119.5 10.5t-75 27.5t-39 39t-11.5 46
q0 38 17.5 67.5t45.5 46.5q-26 8 -39.5 28t-13.5 47q0 32 22 56.5t60 38.5q-31 14 -51 46.5t-20 82.5t21 85.5t55.5 58.5t80 33.5t93.5 10.5q33 0 62.5 -3.5t49.5 -8.5h187v-82h-64zM249 -7q-14 -6 -23 -19t-9 -24q0 -20 19 -34t68 -14q45 0 72.5 14t27.5 35
q0 19 -14.5 30.5t-43.5 11.5h-97zM368 324q0 24 -14.5 43t-49.5 19q-31 0 -46 -18.5t-15 -44.5q0 -28 15 -43.5t44 -15.5q28 0 47 14.5t19 45.5zM434 654q0 -23 -8.5 -42.5t-23.5 -34.5t-35 -23.5t-42 -8.5q-23 0 -42.5 8.5t-34 23.5t-23 34.5t-8.5 42.5q0 22 8.5 42t23 35
t34 23.5t42.5 8.5q22 0 42 -8.5t35 -23.5t23.5 -35t8.5 -42z" />
    <glyph glyph-name="Gcommaaccent" unicode="&#x122;" horiz-adv-x="737" 
d="M420 706q54 0 107.5 -7.5t96.5 -20.5v-216h-133v94q-14 3 -31 5t-32 2q-47 0 -80 -15.5t-54 -43t-30.5 -67t-9.5 -87.5q0 -112 36 -162.5t116 -50.5q17 0 36.5 2t36.5 6v115h-74v111h295v-111h-48v-230q-63 -23 -130 -32t-124 -9q-105 0 -172.5 30t-106.5 79.5t-54 113.5
t-15 133q0 63 15 127.5t56 116.5t113 84.5t186 32.5zM318 -116q0 30 24 52t62 22q23 0 39.5 -8t27 -20.5t15.5 -29t5 -33.5q0 -27 -11.5 -54t-29.5 -50.5t-41 -42t-48 -30.5l-42 51q23 17 37 35.5t17 41.5q-29 5 -42 22.5t-13 43.5z" />
    <glyph glyph-name="gcommaaccent" unicode="&#x123;" horiz-adv-x="631" 
d="M420 625q0 -32 -25.5 -55.5t-67.5 -23.5q-25 0 -42.5 8.5t-29 22t-16.5 31t-5 35.5q0 30 12 58.5t31.5 53t44.5 44.5t52 33q11 -14 22 -27t22 -27q-25 -20 -39.5 -38t-17.5 -44q30 -5 44.5 -23.5t14.5 -47.5zM534 406q11 -16 17 -41t6 -42q0 -44 -19.5 -76.5t-53 -54
t-77.5 -32.5t-93 -12l-59 -1q-49 0 -49 -29q0 -20 31 -20h152q47 0 85.5 -7.5t66.5 -24t43 -43.5t15 -66q0 -32 -14.5 -63.5t-51.5 -57t-99 -41t-156 -15.5q-72 0 -119.5 10.5t-75 27.5t-39 39t-11.5 46q0 38 17.5 67.5t45.5 46.5q-26 8 -39.5 28t-13.5 47q0 32 22 56.5
t60 38.5q-31 14 -51 46.5t-20 82.5t21 85.5t55.5 58.5t80 33.5t93.5 10.5q33 0 62.5 -3.5t49.5 -8.5h187v-82h-64zM249 -7q-14 -6 -23 -19t-9 -24q0 -20 19 -34t68 -14q45 0 72.5 14t27.5 35q0 19 -14.5 30.5t-43.5 11.5h-97zM368 324q0 24 -14.5 43t-49.5 19
q-31 0 -46 -18.5t-15 -44.5q0 -28 15 -43.5t44 -15.5q28 0 47 14.5t19 45.5z" />
    <glyph glyph-name="Hcircumflex" unicode="&#x124;" horiz-adv-x="856" 
d="M484 0v122h63v176h-237v-176h63v-122h-329v122h74v446h-74v122h329v-122h-63v-156h237v156h-63v122h328v-122h-72v-446h72v-122h-328zM597 742l-173 101l-170 -100l-42 50l156 154h114l160 -153z" />
    <glyph glyph-name="hcircumflex" unicode="&#x125;" horiz-adv-x="689" 
d="M81 0v602h-61v117h250v-271q38 28 78.5 42.5t79.5 14.5q48 0 80.5 -14t52.5 -38t28.5 -56.5t8.5 -68.5v-204h64v-111q-30 -11 -65 -17.5t-64 -6.5q-39 0 -63.5 9.5t-37.5 25.5t-17.5 36.5t-4.5 42.5v187q0 39 -15 55.5t-46 16.5q-18 0 -40 -8.5t-39 -21.5v-332h-189z
M331 773l-173 101l-170 -100l-42 50l156 154h114l160 -153z" />
    <glyph glyph-name="Hbar" unicode="&#x126;" horiz-adv-x="856" 
d="M484 0v122h63v168h-237v-168h63v-122h-329v122h74v320h-75v66h75v61h-74v121h329v-121h-63v-61h237v61h-63v121h328v-121h-72v-61h72v-66h-72v-320h72v-122h-328zM547 383v59h-237v-59h237z" />
    <glyph glyph-name="hbar" unicode="&#x127;" horiz-adv-x="689" 
d="M26 498v65h55v51h-61v106h251v-157h153v-65h-153v-98q38 28 79 42t79 14q47 0 79.5 -12.5t53 -35.5t29.5 -55.5t9 -72.5v-155h61v-111q-30 -13 -64 -19.5t-63 -6.5q-70 0 -96.5 28t-26.5 83v141q0 38 -13.5 56t-47.5 18q-17 0 -39.5 -8.5t-39.5 -21.5v-284h-190v498h-55z
" />
    <glyph glyph-name="Itilde" unicode="&#x128;" horiz-adv-x="475" 
d="M70 0v122h72v446h-72v123h335v-123h-70v-446h70v-122h-335zM330 749q-27 0 -55 6t-53.5 13t-48 13t-39.5 6l-55 -39l-52 38q21 60 50.5 83t65.5 23q24 0 49.5 -5.5t50.5 -12.5t49.5 -12.5t45.5 -5.5l55 40l50 -38q-36 -109 -113 -109z" />
    <glyph glyph-name="itilde" unicode="&#x129;" horiz-adv-x="395" 
d="M43 376v117h240v-368h69v-111q-29 -13 -67 -19.5t-67 -6.5q-70 0 -96.5 28t-26.5 83v277h-52zM275 571q-27 0 -55 6t-53.5 13t-48 13t-39.5 6l-55 -39l-52 38q21 60 50.5 83t65.5 23q24 0 49.5 -5.5t50.5 -12.5t49.5 -12.5t45.5 -5.5l55 40l50 -38q-36 -109 -113 -109z
" />
    <glyph glyph-name="Imacron" unicode="&#x12a;" horiz-adv-x="475" 
d="M70 0v122h72v446h-72v123h335v-123h-70v-446h70v-122h-335zM50 862h376v-113h-376v113z" />
    <glyph glyph-name="imacron" unicode="&#x12b;" horiz-adv-x="390" 
d="M43 376v117h240v-368h69v-111q-29 -13 -67 -19.5t-67 -6.5q-70 0 -96.5 28t-26.5 83v277h-52zM-30 689h391v-114h-391v114z" />
    <glyph glyph-name="Ibreve" unicode="&#x12c;" horiz-adv-x="475" 
d="M237 745q-32 0 -60 11t-53 30.5t-47 45.5t-41 56l68 54q35 -48 73 -69.5t64 -21.5q9 0 22 1t32 9t45 25.5t60 49.5l49 -48q-25 -41 -52.5 -68.5t-55 -44t-54 -23.5t-50.5 -7zM70 0v122h72v446h-72v123h335v-123h-70v-446h70v-122h-335z" />
    <glyph glyph-name="ibreve" unicode="&#x12d;" horiz-adv-x="410" 
d="M43 376v117h240v-368h69v-111q-29 -13 -67 -19.5t-67 -6.5q-70 0 -96.5 28t-26.5 83v277h-52zM178 549q-32 0 -60 11t-53 30.5t-47 45.5t-41 56l68 55q35 -48 73 -69.5t64 -21.5q9 0 22 1t32 8.5t45 25t60 49.5l49 -48q-25 -41 -52.5 -68.5t-55 -44t-54 -23.5t-50.5 -7z
" />
    <glyph glyph-name="Iogonek" unicode="&#x12e;" horiz-adv-x="475" 
d="M248 0q-18 -28 -30 -56t-13 -51q0 -24 11.5 -37t39.5 -13q21 0 41.5 4t39.5 9l12 -53q-30 -17 -63 -25.5t-65 -8.5q-57 0 -86 23.5t-29 65.5q0 26 13.5 63.5t54.5 78.5h-104v122h72v446h-72v123h335v-123h-70v-446h70v-122h-157z" />
    <glyph glyph-name="iogonek" unicode="&#x12f;" horiz-adv-x="390" 
d="M45 374v119h238v-368h69v-111q-17 -8 -37.5 -13t-40.5 -8q-14 -25 -23.5 -49t-10.5 -43q0 -24 11.5 -37t39.5 -13q21 0 41.5 4t39.5 9l12 -53q-30 -17 -63 -25.5t-65 -8.5q-57 0 -86 23.5t-29 65.5q0 23 10.5 55.5t39.5 67.5q-54 5 -75 32.5t-22 77.5v275h-49zM293 653
q0 -22 -8.5 -41.5t-23.5 -34.5t-34.5 -23.5t-41.5 -8.5q-23 0 -42.5 8.5t-34 23.5t-23 34.5t-8.5 41.5t8.5 42t23 34.5t34 23t42.5 8.5q22 0 41.5 -8.5t34.5 -23t23.5 -34.5t8.5 -42z" />
    <glyph glyph-name="Idotaccent" unicode="&#x130;" horiz-adv-x="475" 
d="M70 0v122h72v446h-72v123h335v-123h-70v-446h70v-122h-335zM352 846q0 -23 -8.5 -42.5t-23.5 -34.5t-35 -23.5t-42 -8.5q-23 0 -42.5 8.5t-34 23.5t-23 34.5t-8.5 42.5q0 22 8.5 42t23 35t34 23.5t42.5 8.5q22 0 42 -8.5t35 -23.5t23.5 -35t8.5 -42z" />
    <glyph glyph-name="dotlessi" unicode="&#x131;" horiz-adv-x="390" 
d="M43 376v117h240v-368h69v-111q-29 -13 -67 -19.5t-67 -6.5q-70 0 -96.5 28t-26.5 83v277h-52z" />
    <glyph glyph-name="IJ" unicode="&#x132;" horiz-adv-x="960" 
d="M70 0v122h72v446h-72v123h335v-123h-70v-446h70v-122h-335zM534 691h368v-123h-81v-385q0 -155 -85.5 -247.5t-251.5 -121.5l-45 135q57 23 93.5 45.5t58 49t30 60.5t8.5 80v384l-95 1v122z" />
    <glyph glyph-name="ij" unicode="&#x133;" horiz-adv-x="771" 
d="M45 374v119h238v-368h69v-111q-29 -13 -67 -19.5t-67 -6.5q-70 0 -96.5 28t-27.5 83v275h-49zM293 653q0 -22 -8.5 -41.5t-23.5 -34.5t-34.5 -23.5t-41.5 -8.5q-23 0 -42.5 8.5t-34 23.5t-23 34.5t-8.5 41.5t8.5 42t23 34.5t34 23t42.5 8.5q22 0 41.5 -8.5t34.5 -23
t23.5 -34.5t8.5 -42zM443 493h244v-409q0 -72 -15 -125.5t-47.5 -91.5t-83.5 -63.5t-122 -40.5l-46 113q42 24 66.5 44t37.5 42t16.5 50.5t3.5 69.5v292h-54v119zM697 653q0 -22 -8.5 -41.5t-23.5 -34.5t-34.5 -23.5t-41.5 -8.5q-23 0 -42.5 8.5t-34 23.5t-23 34.5
t-8.5 41.5t8.5 42t23 34.5t34 23t42.5 8.5q22 0 41.5 -8.5t34.5 -23t23.5 -34.5t8.5 -42z" />
    <glyph glyph-name="Jcircumflex" unicode="&#x134;" horiz-adv-x="505" 
d="M79 692h368v-123h-81v-385q0 -155 -85.5 -247.5t-251.5 -121.5l-45 135q57 23 93.5 45.5t58 49t30 60.5t8.5 80v384l-95 1v122zM440 742l-173 101l-170 -100l-42 50l156 154h114l160 -153z" />
    <glyph glyph-name="jcircumflex" unicode="&#x135;" horiz-adv-x="387" 
d="M42 493h244v-410q0 -72 -15 -125t-47.5 -90.5t-83 -61.5t-122.5 -39l-44 112q41 24 65 42.5t37 39.5t16.5 48.5t3.5 69.5v297h-54v117zM343 535l-173 102l-171 -100l-42 50l156 155h115l159 -155z" />
    <glyph glyph-name="Kcommaaccent" unicode="&#x136;" horiz-adv-x="787" 
d="M510 421l202 -298h56v-123h-324l-1 123h53l-125 186l-67 -58v-129h61v-122h-321v122h73v447h-73v120h326v-120h-66v-165l188 165h-53v120h309v-120h-64zM333 -116q0 30 24 52t62 22q23 0 39.5 -8t27 -20.5t15.5 -29t5 -33.5q0 -27 -11.5 -54t-29.5 -50.5t-41 -42
t-48 -30.5l-42 51q23 17 37 35.5t17 41.5q-29 5 -42 22.5t-13 43.5z" />
    <glyph glyph-name="kcommaaccent" unicode="&#x137;" horiz-adv-x="658" 
d="M466 316l108 -201l68 -12v-101q-14 -5 -31.5 -8t-35.5 -5t-34 -3t-25 -1q-14 0 -27.5 1t-27 5.5t-25.5 14.5t-21 27l-87 178l-48 -36v-58h46v-117h-296v117h60v485h-63v114h253v-379l89 70v85h243v-117h-68zM273 -116q0 30 24 52t62 22q23 0 39.5 -8t27 -20.5t15.5 -29
t5 -33.5q0 -27 -11.5 -54t-29.5 -50.5t-41 -42t-48 -30.5l-42 51q23 17 37 35.5t17 41.5q-29 5 -42 22.5t-13 43.5z" />
    <glyph glyph-name="kgreenlandic" unicode="&#x138;" horiz-adv-x="666" 
d="M466 316l108 -201l68 -12v-101q-14 -5 -31.5 -8t-35.5 -5t-34 -3t-25 -1q-14 0 -27.5 1t-27 5.5t-25.5 14.5t-21 27l-87 178l-48 -36v-58h46v-117h-296v117h60v261h-63v114h253v-155l89 70v85h243v-117h-68z" />
    <glyph glyph-name="Lacute" unicode="&#x139;" horiz-adv-x="687" 
d="M44 0v122h74v446h-73v122h338v-122h-72v-446h227v130h133v-252h-627zM226 742l-56 63l169 176l87 -99z" />
    <glyph glyph-name="lacute" unicode="&#x13a;" horiz-adv-x="392" 
d="M292 118h63v-118h-314v118h62v483h-64v118h253v-601zM185 752l-56 63l169 176l87 -99z" />
    <glyph glyph-name="Lcommaaccent" unicode="&#x13b;" horiz-adv-x="687" 
d="M44 0v122h74v446h-73v122h338v-122h-72v-446h227v130h133v-252h-627zM257 -116q0 30 24 52t62 22q23 0 39.5 -8t27 -20.5t15.5 -29t5 -33.5q0 -27 -11.5 -54t-29.5 -50.5t-41 -42t-48 -30.5l-42 51q23 17 37 35.5t17 41.5q-29 5 -42 22.5t-13 43.5z" />
    <glyph glyph-name="lcommaaccent" unicode="&#x13c;" horiz-adv-x="392" 
d="M292 118h63v-118h-314v118h62v483h-64v118h253v-601zM127 -116q0 30 24 52t62 22q23 0 39.5 -8t27 -20.5t15.5 -29t5 -33.5q0 -27 -11.5 -54t-29.5 -50.5t-41 -42t-48 -30.5l-42 51q23 17 37 35.5t17 41.5q-29 5 -42 22.5t-13 43.5z" />
    <glyph glyph-name="Lcaron" unicode="&#x13d;" horiz-adv-x="687" 
d="M44 0v122h74v446h-73v122h338v-122h-72v-446h227v130h133v-252h-627zM500 628q0 30 24 52t62 22q23 0 39.5 -8t27 -20.5t15.5 -29t5 -33.5q0 -27 -11.5 -54t-29.5 -50.5t-41 -42t-48 -30.5l-42 51q23 17 37 35.5t17 41.5q-29 5 -42 22.5t-13 43.5z" />
    <glyph glyph-name="lcaron" unicode="&#x13e;" horiz-adv-x="559" 
d="M371 659q0 30 24 52t62 22q23 0 39.5 -8t27 -20.5t15.5 -29t5 -33.5q0 -27 -11.5 -54t-29.5 -50.5t-41 -42t-48 -30.5l-42 51q23 17 37 35.5t17 41.5q-29 5 -42 22.5t-13 43.5zM292 118h63v-118h-314v118h62v483h-64v118h253v-601z" />
    <glyph glyph-name="Ldot" unicode="&#x13f;" horiz-adv-x="687" 
d="M44 0v122h74v446h-73v122h338v-122h-72v-446h227v130h133v-252h-627zM660 440q0 -23 -8.5 -42.5t-23.5 -34.5t-35 -23.5t-42 -8.5q-23 0 -42.5 8.5t-34 23.5t-23 34.5t-8.5 42.5q0 22 8.5 42t23 35t34 23.5t42.5 8.5q22 0 42 -8.5t35 -23.5t23.5 -35t8.5 -42z" />
    <glyph glyph-name="ldot" unicode="&#x140;" horiz-adv-x="603" 
d="M580 388q0 -23 -8.5 -42.5t-23.5 -34.5t-35 -23.5t-42 -8.5q-23 0 -42.5 8.5t-34 23.5t-23 34.5t-8.5 42.5q0 22 8.5 42t23 35t34 23.5t42.5 8.5q22 0 42 -8.5t35 -23.5t23.5 -35t8.5 -42zM292 118h63v-118h-314v118h62v483h-64v118h253v-601z" />
    <glyph glyph-name="Lslash" unicode="&#x141;" horiz-adv-x="684" 
d="M44 0v122h74v91l-47 -26l-40 64l87 50v268h-73v121h338v-121h-72v-157l86 49l39 -62l-125 -73v-204h223v130h133v-252h-623z" />
    <glyph glyph-name="lslash" unicode="&#x142;" horiz-adv-x="392" 
d="M291 116h63v-116h-313v116h62v147l-61 -35q-2 3 -8 12.5t-12.5 19.5t-12 19.5t-7.5 12.5q6 3 20 11t30 17t30 17l21 12v254h-65v117h253v-262l71 41l39 -63q-7 -4 -22.5 -13t-32.5 -19t-32.5 -18.5t-22.5 -12.5v-257z" />
    <glyph glyph-name="Nacute" unicode="&#x143;" horiz-adv-x="880" 
d="M589 264v304h-67v122h313v-122h-67v-568h-189l-159 245l-85 134l-44 71q-1 0 -1 -0.5t-1 -0.5v-328h68v-121h-315v121h70v447h-69v122h275q31 -49 58.5 -92.5t54.5 -86t54 -86t56 -91.5q11 -17 21.5 -34.5t21.5 -35.5h5zM427 742l-56 63l169 176l87 -99z" />
    <glyph glyph-name="nacute" unicode="&#x144;" horiz-adv-x="696" 
d="M435 505q48 0 81 -14t52.5 -38t28 -56t8.5 -69v-204h64v-110q-30 -13 -65 -19t-64 -6q-41 0 -65 11t-37 28.5t-17 38t-4 39.5v184q0 39 -14.5 55.5t-46.5 16.5q-18 0 -40 -8.5t-39 -21.5v-332h-190v376h-60v117h246v-43q1 0 3 -0.5t3 -0.5q38 26 78 41t78 15zM253 530
l-56 63l169 176l87 -99z" />
    <glyph glyph-name="Ncommaaccent" unicode="&#x145;" horiz-adv-x="880" 
d="M589 264v304h-67v122h313v-122h-67v-568h-189l-159 245l-85 134l-44 71q-1 0 -1 -0.5t-1 -0.5v-328h68v-121h-315v121h70v447h-69v122h275q31 -49 58.5 -92.5t54.5 -86t54 -86t56 -91.5q11 -17 21.5 -34.5t21.5 -35.5h5zM373 -116q0 30 24 52t62 22q23 0 39.5 -8
t27 -20.5t15.5 -29t5 -33.5q0 -27 -11.5 -54t-29.5 -50.5t-41 -42t-48 -30.5l-42 51q23 17 37 35.5t17 41.5q-29 5 -42 22.5t-13 43.5z" />
    <glyph glyph-name="ncommaaccent" unicode="&#x146;" horiz-adv-x="696" 
d="M435 505q48 0 81 -14t52.5 -38t28 -56t8.5 -69v-204h64v-110q-30 -13 -65 -19t-64 -6q-41 0 -65 11t-37 28.5t-17 38t-4 39.5v184q0 39 -14.5 55.5t-46.5 16.5q-18 0 -40 -8.5t-39 -21.5v-332h-190v376h-60v117h246v-43q1 0 3 -0.5t3 -0.5q38 26 78 41t78 15zM286 -116
q0 30 24 52t62 22q23 0 39.5 -8t27 -20.5t15.5 -29t5 -33.5q0 -27 -11.5 -54t-29.5 -50.5t-41 -42t-48 -30.5l-42 51q23 17 37 35.5t17 41.5q-29 5 -42 22.5t-13 43.5z" />
    <glyph glyph-name="Ncaron" unicode="&#x147;" horiz-adv-x="880" 
d="M589 264v304h-67v122h313v-122h-67v-568h-189l-159 245l-85 134l-44 71q-1 0 -1 -0.5t-1 -0.5v-328h68v-121h-315v121h70v447h-69v122h275q31 -49 58.5 -92.5t54.5 -86t54 -86t56 -91.5q11 -17 21.5 -34.5t21.5 -35.5h5zM649 899l-159 -154h-114l-157 154l42 50l171 -100
l173 101z" />
    <glyph glyph-name="ncaron" unicode="&#x148;" horiz-adv-x="696" 
d="M435 505q48 0 81 -14t52.5 -38t28 -56t8.5 -69v-204h64v-110q-30 -13 -65 -19t-64 -6q-41 0 -65 11t-37 28.5t-17 38t-4 39.5v184q0 39 -14.5 55.5t-46.5 16.5q-18 0 -40 -8.5t-39 -21.5v-332h-190v376h-60v117h246v-43q1 0 3 -0.5t3 -0.5q38 26 78 41t78 15zM544 699
l-159 -156h-115l-156 156l42 50l171 -100l173 101z" />
    <glyph glyph-name="napostrophe" unicode="&#x149;" horiz-adv-x="857" 
d="M596 505q48 0 81 -14t52.5 -38t28 -56t8.5 -69v-204h64v-110q-30 -13 -65 -19t-64 -6q-41 0 -65 11t-37 28.5t-17 38t-4 39.5v184q0 39 -14.5 55.5t-46.5 16.5q-18 0 -40 -8.5t-39 -21.5v-332h-190v376h-60v117h246v-43q1 0 3 -0.5t3 -0.5q38 26 78 41t78 15zM5 647
q0 30 24 52t62 22q23 0 39.5 -8t27 -20.5t15.5 -29t5 -33.5q0 -27 -11.5 -54t-29.5 -50.5t-41 -42t-48 -30.5l-42 51q23 17 37 35.5t17 41.5q-29 5 -42 22.5t-13 43.5z" />
    <glyph glyph-name="Eng" unicode="&#x14a;" horiz-adv-x="880" 
d="M454 -94q14 -1 30 -2t37 -1q14 0 27 2.5t23 9t16 19.5t6 34v32q-22 32 -47.5 71t-54 82t-59 88.5t-60.5 90.5q-7 10 -18 26.5l-23 34.5t-23 35t-17 26h-2v-333h68v-121h-314v121h69v448h-69v121h265q18 -26 40.5 -59t47 -70t50.5 -75.5t51 -76.5l87 -136h5v296h-67v121
h313v-121h-67v-591q-1 -41 -8.5 -79.5t-30 -68t-65.5 -47t-115 -17.5q-23 0 -55 4t-54 9q3 32 6.5 63.5t7.5 63.5z" />
    <glyph glyph-name="eng" unicode="&#x14b;" horiz-adv-x="667" 
d="M607 38q0 -46 -4 -89.5t-25.5 -78t-66 -55.5t-124.5 -21q-11 0 -25.5 1t-30.5 2.5t-30.5 3.5t-25.5 5l14 129q14 -1 27 -1.5t24 -0.5q35 0 56.5 12.5t21.5 54.5v289q0 38 -14.5 56t-46.5 18q-18 0 -40 -8.5t-39 -21.5v-333h-190v377h-61v117h247v-43q1 -1 2 -1q1 -1 3 -1
q37 26 78 41t79 15q47 0 79.5 -12.5t53 -35.5t29.5 -56t9 -73v-290z" />
    <glyph glyph-name="Omacron" unicode="&#x14c;" horiz-adv-x="793" 
d="M743 347q0 -77 -22 -142.5t-65 -113.5t-108 -75t-150 -27q-89 0 -154 26.5t-108.5 73.5t-64.5 113t-21 144q0 76 21 141.5t64 114t108.5 76t154.5 27.5t154 -27.5t107.5 -76t63 -114t20.5 -140.5zM537 346q0 46 -6 86.5t-22 71.5t-42.5 49t-68.5 18t-70 -18.5
t-44.5 -49.5t-23 -71.5t-6.5 -85.5q0 -53 7.5 -94.5t24.5 -70t44.5 -44t67.5 -15.5q38 0 64.5 16.5t43 46t24 70.5t7.5 91zM214 862h376v-113h-376v113z" />
    <glyph glyph-name="omacron" unicode="&#x14d;" horiz-adv-x="628" 
d="M588 247q0 -54 -16.5 -101t-50.5 -81.5t-86 -54.5t-123 -20q-70 0 -121.5 19.5t-85 53.5t-49.5 81t-16 103q0 54 16.5 101t50.5 81.5t86 54.5t122 20t121.5 -20t85.5 -54.5t50 -81.5t16 -101zM395 247q0 25 -3.5 48t-12 41t-24 28.5t-39.5 10.5q-25 0 -41 -11t-25.5 -29
t-13 -41t-3.5 -47q0 -27 3.5 -51t12.5 -42t24.5 -28t40.5 -10q24 0 40 10.5t25 28t12.5 41.5t3.5 51zM114 689h391v-114h-391v114z" />
    <glyph glyph-name="Obreve" unicode="&#x14e;" horiz-adv-x="793" 
d="M743 347q0 -77 -22 -142.5t-65 -113.5t-108 -75t-150 -27q-89 0 -154 26.5t-108.5 73.5t-64.5 113t-21 144q0 76 21 141.5t64 114t108.5 76t154.5 27.5t154 -27.5t107.5 -76t63 -114t20.5 -140.5zM537 346q0 46 -6 86.5t-22 71.5t-42.5 49t-68.5 18t-70 -18.5
t-44.5 -49.5t-23 -71.5t-6.5 -85.5q0 -53 7.5 -94.5t24.5 -70t44.5 -44t67.5 -15.5q38 0 64.5 16.5t43 46t24 70.5t7.5 91zM398 742q-32 0 -60 11t-53 30.5t-47 45.5t-41 56l68 54q35 -48 73 -69.5t64 -21.5q9 0 22 1t32 9t45 25.5t60 49.5l49 -48q-25 -41 -52.5 -68.5
t-55 -44t-54 -23.5t-50.5 -7z" />
    <glyph glyph-name="obreve" unicode="&#x14f;" horiz-adv-x="628" 
d="M588 247q0 -54 -16.5 -101t-50.5 -81.5t-86 -54.5t-123 -20q-70 0 -121.5 19.5t-85 53.5t-49.5 81t-16 103q0 54 16.5 101t50.5 81.5t86 54.5t122 20t121.5 -20t85.5 -54.5t50 -81.5t16 -101zM395 247q0 25 -3.5 48t-12 41t-24 28.5t-39.5 10.5q-25 0 -41 -11t-25.5 -29
t-13 -41t-3.5 -47q0 -27 3.5 -51t12.5 -42t24.5 -28t40.5 -10q24 0 40 10.5t25 28t12.5 41.5t3.5 51zM309 549q-32 0 -60 11t-53 30.5t-47 45.5t-41 56l68 55q35 -48 73 -69.5t64 -21.5q9 0 22 1t32 8.5t45 25t60 49.5l49 -48q-25 -41 -52.5 -68.5t-55 -44t-54 -23.5
t-50.5 -7z" />
    <glyph glyph-name="Ohungarumlaut" unicode="&#x150;" horiz-adv-x="793" 
d="M743 347q0 -77 -22 -142.5t-65 -113.5t-108 -75t-150 -27q-89 0 -154 26.5t-108.5 73.5t-64.5 113t-21 144q0 76 21 141.5t64 114t108.5 76t154.5 27.5t154 -27.5t107.5 -76t63 -114t20.5 -140.5zM537 346q0 46 -6 86.5t-22 71.5t-42.5 49t-68.5 18t-70 -18.5
t-44.5 -49.5t-23 -71.5t-6.5 -85.5q0 -53 7.5 -94.5t24.5 -70t44.5 -44t67.5 -15.5q38 0 64.5 16.5t43 46t24 70.5t7.5 91zM330 744l-65 52l140 201l102 -83zM513 744l-65 52l140 201l102 -83z" />
    <glyph glyph-name="ohungarumlaut" unicode="&#x151;" horiz-adv-x="628" 
d="M588 247q0 -54 -16.5 -101t-50.5 -81.5t-86 -54.5t-123 -20q-70 0 -121.5 19.5t-85 53.5t-49.5 81t-16 103q0 54 16.5 101t50.5 81.5t86 54.5t122 20t121.5 -20t85.5 -54.5t50 -81.5t16 -101zM395 247q0 25 -3.5 48t-12 41t-24 28.5t-39.5 10.5q-25 0 -41 -11t-25.5 -29
t-13 -41t-3.5 -47q0 -27 3.5 -51t12.5 -42t24.5 -28t40.5 -10q24 0 40 10.5t25 28t12.5 41.5t3.5 51zM194 528l-65 53l140 200l103 -82zM379 528l-65 53l140 200l102 -82z" />
    <glyph glyph-name="Racute" unicode="&#x154;" horiz-adv-x="748" 
d="M468 483q0 45 -25 65t-63 20h-75v-180h68q19 0 36.5 4.5t30.5 15.5t20.5 29.5t7.5 45.5zM305 272v-149h67v-123h-324v123h67v445h-67v123h381q69 0 115.5 -17t75 -46.5t41 -67.5t12.5 -80q0 -24 -6 -49.5t-19.5 -49.5t-34 -44t-50.5 -32l89 -187l81 -11v-104
q-15 -5 -33 -9t-35 -6.5t-32.5 -3.5t-25.5 -1q-53 0 -80 22.5t-47 67.5l-87 199h-88zM322 742l-56 63l169 176l87 -99z" />
    <glyph glyph-name="racute" unicode="&#x155;" horiz-adv-x="521" 
d="M285 416q17 14 39 29.5t47 28t51.5 21t51.5 8.5q23 0 31.5 -12.5t8.5 -40.5q0 -15 -3 -34.5t-9.5 -39t-16.5 -38t-25 -32.5l-177 26v-214h60v-118h-306v118h58v257h-54v119h239v-76zM183 530l-56 63l169 176l87 -99z" />
    <glyph glyph-name="Rcommaaccent" unicode="&#x156;" horiz-adv-x="748" 
d="M468 483q0 45 -25 65t-63 20h-75v-180h68q19 0 36.5 4.5t30.5 15.5t20.5 29.5t7.5 45.5zM305 272v-149h67v-123h-324v123h67v445h-67v123h381q69 0 115.5 -17t75 -46.5t41 -67.5t12.5 -80q0 -24 -6 -49.5t-19.5 -49.5t-34 -44t-50.5 -32l89 -187l81 -11v-104
q-15 -5 -33 -9t-35 -6.5t-32.5 -3.5t-25.5 -1q-53 0 -80 22.5t-47 67.5l-87 199h-88zM282 -116q0 30 24 52t62 22q23 0 39.5 -8t27 -20.5t15.5 -29t5 -33.5q0 -27 -11.5 -54t-29.5 -50.5t-41 -42t-48 -30.5l-42 51q23 17 37 35.5t17 41.5q-29 5 -42 22.5t-13 43.5z" />
    <glyph glyph-name="rcommaaccent" unicode="&#x157;" horiz-adv-x="521" 
d="M285 416q17 14 39 29.5t47 28t51.5 21t51.5 8.5q23 0 31.5 -12.5t8.5 -40.5q0 -15 -3 -34.5t-9.5 -39t-16.5 -38t-25 -32.5l-177 26v-214h60v-118h-306v118h58v257h-54v119h239v-76zM117 -116q0 30 24 52t62 22q23 0 39.5 -8t27 -20.5t15.5 -29t5 -33.5q0 -27 -11.5 -54
t-29.5 -50.5t-41 -42t-48 -30.5l-42 51q23 17 37 35.5t17 41.5q-29 5 -42 22.5t-13 43.5z" />
    <glyph glyph-name="Rcaron" unicode="&#x158;" horiz-adv-x="748" 
d="M468 483q0 45 -25 65t-63 20h-75v-180h68q19 0 36.5 4.5t30.5 15.5t20.5 29.5t7.5 45.5zM305 272v-149h67v-123h-324v123h67v445h-67v123h381q69 0 115.5 -17t75 -46.5t41 -67.5t12.5 -80q0 -24 -6 -49.5t-19.5 -49.5t-34 -44t-50.5 -32l89 -187l81 -11v-104
q-15 -5 -33 -9t-35 -6.5t-32.5 -3.5t-25.5 -1q-53 0 -80 22.5t-47 67.5l-87 199h-88zM574 899l-159 -154h-114l-157 154l42 50l171 -100l173 101z" />
    <glyph glyph-name="rcaron" unicode="&#x159;" horiz-adv-x="521" 
d="M285 416q17 14 39 29.5t47 28t51.5 21t51.5 8.5q23 0 31.5 -12.5t8.5 -40.5q0 -15 -3 -34.5t-9.5 -39t-16.5 -38t-25 -32.5l-177 26v-214h60v-118h-306v118h58v257h-54v119h239v-76zM451 699l-159 -156h-115l-156 156l42 50l171 -100l173 101z" />
    <glyph glyph-name="Sacute" unicode="&#x15a;" horiz-adv-x="672" 
d="M183 218l1 -73q15 -6 32 -9.5t34 -6t32 -3.5t26 -1q61 0 85.5 20t24.5 48q0 25 -14 38t-38 21q-70 23 -128.5 42.5t-100.5 43.5t-65 58t-23 87q0 102 72.5 159.5t215.5 57.5q28 0 59.5 -2.5t63 -8t61.5 -14.5t56 -21q0 -44 0.5 -87t0.5 -87h-133q0 18 -0.5 36t-0.5 35
q-20 8 -48.5 12t-47.5 4q-53 0 -75 -19t-22 -44q0 -17 12 -30t32 -23t45.5 -18.5t52.5 -16.5q51 -15 94.5 -31.5t76 -40.5t51 -58.5t18.5 -85.5q0 -103 -78 -157.5t-235 -54.5q-65 0 -134.5 10.5t-132.5 36.5q0 45 -0.5 91t-0.5 92h131zM311 740l-56 63l169 176l87 -99z" />
    <glyph glyph-name="sacute" unicode="&#x15b;" horiz-adv-x="552" 
d="M159 167v-25.5t1 -25.5q12 -6 37 -10t48 -4q29 0 50.5 9.5t21.5 26.5q0 25 -17 32t-46 15q-41 12 -80 24t-69.5 29.5t-49.5 43t-19 63.5q0 78 61 118.5t177 40.5q49 0 103.5 -9.5t96.5 -29.5v-66t1 -66h-125q0 12 -0.5 24t-0.5 24q-14 5 -29 7t-29 2q-27 0 -43.5 -10
t-16.5 -27t20 -25.5t43 -14.5q30 -8 68.5 -16.5t72 -26.5t57 -49t23.5 -83q0 -72 -62.5 -110t-193.5 -38q-21 0 -48.5 1.5t-57.5 6t-60 11.5t-57 19v69t-1 70h124zM219 530l-56 63l169 176l87 -99z" />
    <glyph glyph-name="Scircumflex" unicode="&#x15c;" horiz-adv-x="672" 
d="M183 218l1 -73q15 -6 32 -9.5t34 -6t32 -3.5t26 -1q61 0 85.5 20t24.5 48q0 25 -14 38t-38 21q-70 23 -128.5 42.5t-100.5 43.5t-65 58t-23 87q0 102 72.5 159.5t215.5 57.5q28 0 59.5 -2.5t63 -8t61.5 -14.5t56 -21q0 -44 0.5 -87t0.5 -87h-133q0 18 -0.5 36t-0.5 35
q-20 8 -48.5 12t-47.5 4q-53 0 -75 -19t-22 -44q0 -17 12 -30t32 -23t45.5 -18.5t52.5 -16.5q51 -15 94.5 -31.5t76 -40.5t51 -58.5t18.5 -85.5q0 -103 -78 -157.5t-235 -54.5q-65 0 -134.5 10.5t-132.5 36.5q0 45 -0.5 91t-0.5 92h131zM512 742l-173 101l-170 -100l-42 50
l156 154h114l160 -153z" />
    <glyph glyph-name="scircumflex" unicode="&#x15d;" horiz-adv-x="552" 
d="M159 167v-25.5t1 -25.5q12 -6 37 -10t48 -4q29 0 50.5 9.5t21.5 26.5q0 25 -17 32t-46 15q-41 12 -80 24t-69.5 29.5t-49.5 43t-19 63.5q0 78 61 118.5t177 40.5q49 0 103.5 -9.5t96.5 -29.5v-66t1 -66h-125q0 12 -0.5 24t-0.5 24q-14 5 -29 7t-29 2q-27 0 -43.5 -10
t-16.5 -27t20 -25.5t43 -14.5q30 -8 68.5 -16.5t72 -26.5t57 -49t23.5 -83q0 -72 -62.5 -110t-193.5 -38q-21 0 -48.5 1.5t-57.5 6t-60 11.5t-57 19v69t-1 70h124zM436 528l-173 101l-171 -100l-42 50l156 156h115l159 -155z" />
    <glyph glyph-name="Scedilla" unicode="&#x15e;" horiz-adv-x="672" 
d="M183 218l1 -73q15 -6 32 -9.5t34 -6t32 -3.5t26 -1q61 0 85.5 20t24.5 48q0 25 -14 38t-38 21q-70 23 -128.5 42.5t-100.5 43.5t-65 58t-23 87q0 102 72.5 159.5t215.5 57.5q28 0 59.5 -2.5t63 -8t61.5 -14.5t56 -21q0 -44 0.5 -87t0.5 -87h-133q0 18 -0.5 36t-0.5 35
q-20 8 -48.5 12t-47.5 4q-53 0 -75 -19t-22 -44q0 -17 12 -30t32 -23t45.5 -18.5t52.5 -16.5q51 -15 94.5 -31.5t76 -40.5t51 -58.5t18.5 -85.5q0 -96 -67.5 -149.5t-202.5 -61.5q-19 -24 -35 -47q51 -3 79.5 -26t28.5 -62q0 -21 -11.5 -42t-35.5 -37t-62.5 -26.5
t-92.5 -10.5q0 14 -0.5 28.5t-0.5 28.5q110 11 110 53q0 20 -19.5 25.5t-51.5 5.5h-17l-19 28l61 81q-60 2 -123.5 12.5t-120.5 34.5q0 45 -0.5 91t-0.5 92h131z" />
    <glyph glyph-name="scedilla" unicode="&#x15f;" horiz-adv-x="552" 
d="M159 167v-25.5t1 -25.5q12 -6 37 -10t48 -4q29 0 50.5 9.5t21.5 26.5q0 25 -17 32t-46 15q-41 12 -80 24t-69.5 29.5t-49.5 43t-19 63.5q0 78 61 118.5t177 40.5q49 0 103.5 -9.5t96.5 -29.5v-66t1 -66h-125q0 12 -0.5 24t-0.5 24q-14 5 -29 7t-29 2q-27 0 -43.5 -10
t-16.5 -27t20 -25.5t43 -14.5q30 -8 68.5 -16.5t72 -26.5t57 -49t23.5 -83q0 -66 -52.5 -103.5t-161.5 -43.5q-9 -11 -17.5 -23t-16.5 -23q51 -3 79.5 -26t28.5 -62q0 -21 -11.5 -42t-35.5 -37t-62.5 -26.5t-92.5 -10.5q0 14 -0.5 28.5t-0.5 28.5q110 11 110 53
q0 20 -19.5 25.5t-51.5 5.5h-17l-19 28l60 80q-21 1 -46 3t-51.5 6.5t-52.5 11.5t-49 17v69t-1 70h124z" />
    <glyph glyph-name="Tcommaaccent" unicode="&#x162;" horiz-adv-x="695" 
d="M170 0v122h82v446h-104l1 -117h-131v240h659v-240h-131v117h-103v-446h81v-122h-354zM275 -116q0 30 24 52t62 22q23 0 39.5 -8t27 -20.5t15.5 -29t5 -33.5q0 -27 -11.5 -54t-29.5 -50.5t-41 -42t-48 -30.5l-42 51q23 17 37 35.5t17 41.5q-29 5 -42 22.5t-13 43.5z" />
    <glyph glyph-name="tcommaaccent" unicode="&#x163;" horiz-adv-x="465" 
d="M268 639v-146h139v-118h-139v-170q0 -46 14 -61t54 -15q11 0 32.5 2t45.5 7l21 -120q-17 -7 -37 -12.5t-40 -9t-39.5 -5.5t-35.5 -2q-67 0 -107 15.5t-61 39.5t-27.5 53.5t-6.5 58.5v219h-68v102l82 24l43 127zM154 -116q0 30 24 52t62 22q23 0 39.5 -8t27 -20.5
t15.5 -29t5 -33.5q0 -27 -11.5 -54t-29.5 -50.5t-41 -42t-48 -30.5l-42 51q23 17 37 35.5t17 41.5q-29 5 -42 22.5t-13 43.5z" />
    <glyph glyph-name="Tcaron" unicode="&#x164;" horiz-adv-x="695" 
d="M170 0v122h82v446h-104l1 -117h-131v240h659v-240h-131v117h-103v-446h81v-122h-354zM567 899l-159 -154h-114l-157 154l42 50l171 -100l173 101z" />
    <glyph glyph-name="tcaron" unicode="&#x165;" horiz-adv-x="620" 
d="M431 662q0 30 24 52t62 22q23 0 39.5 -8t27 -20.5t15.5 -29t5 -33.5q0 -27 -11.5 -54t-29.5 -50.5t-41 -42t-48 -30.5l-42 51q23 17 37 35.5t17 41.5q-29 5 -42 22.5t-13 43.5zM268 639v-146h139v-118h-139v-170q0 -46 14 -61t54 -15q11 0 32.5 2t45.5 7l21 -120
q-17 -7 -37 -12.5t-40 -9t-39.5 -5.5t-35.5 -2q-67 0 -107 15.5t-61 39.5t-27.5 53.5t-6.5 58.5v219h-68v102l82 24l43 127z" />
    <glyph glyph-name="Tbar" unicode="&#x166;" horiz-adv-x="695" 
d="M170 0v122h82v173h-132v80h132v194h-103l1 -116h-131v238h657v-238h-131v116h-102v-194h126v-80h-126v-173h81v-122h-354z" />
    <glyph glyph-name="tbar" unicode="&#x167;" horiz-adv-x="465" 
d="M138 627q32 3 64.5 6t64.5 5v-146h140v-117h-140v-54h129v-75h-129q0 -29 0.5 -51t6.5 -37t20 -22.5t41 -7.5q10 0 31 2.5t47 7.5l21 -121q-17 -7 -37 -12t-40 -8.5t-39.5 -5t-35.5 -1.5q-69 0 -109.5 16.5t-60.5 42.5t-25.5 59t-5.5 66v72h-61v75h61v54h-68v101l81 25
q11 32 22 63t22 63z" />
    <glyph glyph-name="Utilde" unicode="&#x168;" horiz-adv-x="800" 
d="M707 259q0 -64 -17.5 -114t-55 -84.5t-95.5 -52.5t-138 -18q-84 0 -143.5 18.5t-96.5 53t-54 84.5t-17 113v309h-56v123h305v-123h-59v-318q0 -67 31 -97t91 -30q25 0 46.5 6.5t37.5 21.5t25 39.5t9 59.5v318h-57v123h303v-123h-59v-309zM498 751q-27 0 -55 6t-53.5 13
t-48 13t-39.5 6l-55 -39l-52 38q21 60 50.5 83t65.5 23q24 0 49.5 -5.5t50.5 -12.5t49.5 -12.5t45.5 -5.5l55 40l50 -38q-36 -109 -113 -109z" />
    <glyph glyph-name="utilde" unicode="&#x169;" horiz-adv-x="685" 
d="M357 493h238v-369h62v-111q-45 -15 -78.5 -19.5t-54.5 -4.5q-55 0 -78.5 18.5t-29.5 53.5q-37 -35 -79 -54.5t-87 -19.5q-81 0 -121.5 43t-40.5 124v220h-61v119h251v-295q0 -34 10.5 -49.5t42.5 -15.5q12 0 34 7.5t41 27.5v207h-49v118zM437 556q-27 0 -55 6t-53.5 13
t-48 13t-39.5 6l-55 -39l-52 38q21 60 50.5 83t65.5 23q24 0 49.5 -5.5t50.5 -12.5t49.5 -12.5t45.5 -5.5l55 40l50 -38q-36 -109 -113 -109z" />
    <glyph glyph-name="Umacron" unicode="&#x16a;" horiz-adv-x="800" 
d="M707 259q0 -64 -17.5 -114t-55 -84.5t-95.5 -52.5t-138 -18q-84 0 -143.5 18.5t-96.5 53t-54 84.5t-17 113v309h-56v123h305v-123h-59v-318q0 -67 31 -97t91 -30q25 0 46.5 6.5t37.5 21.5t25 39.5t9 59.5v318h-57v123h303v-123h-59v-309zM218 862h376v-113h-376v113z" />
    <glyph glyph-name="umacron" unicode="&#x16b;" horiz-adv-x="685" 
d="M357 493h238v-369h62v-111q-45 -15 -78.5 -19.5t-54.5 -4.5q-55 0 -78.5 18.5t-29.5 53.5q-37 -35 -79 -54.5t-87 -19.5q-81 0 -121.5 43t-40.5 124v220h-61v119h251v-295q0 -34 10.5 -49.5t42.5 -15.5q12 0 34 7.5t41 27.5v207h-49v118zM133 689h391v-114h-391v114z" />
    <glyph glyph-name="Ubreve" unicode="&#x16c;" horiz-adv-x="800" 
d="M707 259q0 -64 -17.5 -114t-55 -84.5t-95.5 -52.5t-138 -18q-84 0 -143.5 18.5t-96.5 53t-54 84.5t-17 113v309h-56v123h305v-123h-59v-318q0 -67 31 -97t91 -30q25 0 46.5 6.5t37.5 21.5t25 39.5t9 59.5v318h-57v123h303v-123h-59v-309zM400 736q-32 0 -60 11t-53 30.5
t-47 45.5t-41 56l68 55q35 -48 73 -69.5t64 -21.5q9 0 22 1t32 8.5t45 25t60 49.5l49 -48q-25 -41 -52.5 -68.5t-55 -44t-54 -23.5t-50.5 -7z" />
    <glyph glyph-name="ubreve" unicode="&#x16d;" horiz-adv-x="685" 
d="M357 493h238v-369h62v-111q-45 -15 -78.5 -19.5t-54.5 -4.5q-55 0 -78.5 18.5t-29.5 53.5q-37 -35 -79 -54.5t-87 -19.5q-81 0 -121.5 43t-40.5 124v220h-61v119h251v-295q0 -34 10.5 -49.5t42.5 -15.5q12 0 34 7.5t41 27.5v207h-49v118zM320 549q-32 0 -60 11t-53 30.5
t-47 45.5t-41 56l68 55q35 -48 73 -69.5t64 -21.5q9 0 22 1t32 8.5t45 25t60 49.5l49 -48q-25 -41 -52.5 -68.5t-55 -44t-54 -23.5t-50.5 -7z" />
    <glyph glyph-name="Uring" unicode="&#x16e;" horiz-adv-x="800" 
d="M707 259q0 -64 -17.5 -114t-55 -84.5t-95.5 -52.5t-138 -18q-84 0 -143.5 18.5t-96.5 53t-54 84.5t-17 113v309h-56v123h305v-123h-59v-318q0 -67 31 -97t91 -30q25 0 46.5 6.5t37.5 21.5t25 39.5t9 59.5v318h-57v123h303v-123h-59v-309zM401 710q-29 0 -54 10.5
t-43.5 28.5t-29 42.5t-10.5 51.5q0 26 10.5 50t29 42t43.5 29t54 11t53.5 -10.5t42 -28.5t27.5 -42t10 -51q0 -28 -10.5 -52.5t-28.5 -42.5t-42 -28t-52 -10zM401 894q-23 0 -38.5 -16.5t-15.5 -37.5q0 -20 14.5 -35.5t39.5 -15.5q23 0 36.5 15.5t13.5 35.5q0 21 -13 37.5
t-37 16.5z" />
    <glyph glyph-name="uring" unicode="&#x16f;" horiz-adv-x="685" 
d="M357 493h238v-369h62v-111q-45 -15 -78.5 -19.5t-54.5 -4.5q-55 0 -78.5 18.5t-29.5 53.5q-37 -35 -79 -54.5t-87 -19.5q-81 0 -121.5 43t-40.5 124v220h-61v119h251v-295q0 -34 10.5 -49.5t42.5 -15.5q12 0 34 7.5t41 27.5v207h-49v118zM331 545q-29 0 -54 10.5
t-43.5 28.5t-29 42.5t-10.5 51.5q0 26 10.5 50t29 42t43.5 29t54 11t53.5 -10.5t42 -28.5t27.5 -42t10 -51q0 -28 -10.5 -52.5t-28.5 -42.5t-42 -28t-52 -10zM331 729q-23 0 -38.5 -16.5t-15.5 -37.5q0 -20 14.5 -35.5t39.5 -15.5q23 0 36.5 15.5t13.5 35.5q0 21 -13 37.5
t-37 16.5z" />
    <glyph glyph-name="Uhungarumlaut" unicode="&#x170;" horiz-adv-x="800" 
d="M707 259q0 -64 -17.5 -114t-55 -84.5t-95.5 -52.5t-138 -18q-84 0 -143.5 18.5t-96.5 53t-54 84.5t-17 113v309h-56v123h305v-123h-59v-318q0 -67 31 -97t91 -30q25 0 46.5 6.5t37.5 21.5t25 39.5t9 59.5v318h-57v123h303v-123h-59v-309zM316 744l-65 52l140 201l102 -83
zM499 744l-65 52l140 201l102 -83z" />
    <glyph glyph-name="uhungarumlaut" unicode="&#x171;" horiz-adv-x="685" 
d="M357 493h238v-369h62v-111q-45 -15 -78.5 -19.5t-54.5 -4.5q-55 0 -78.5 18.5t-29.5 53.5q-37 -35 -79 -54.5t-87 -19.5q-81 0 -121.5 43t-40.5 124v220h-61v119h251v-295q0 -34 10.5 -49.5t42.5 -15.5q12 0 34 7.5t41 27.5v207h-49v118zM209 528l-65 53l140 200l103 -82
zM394 528l-65 53l140 200l102 -82z" />
    <glyph glyph-name="Uogonek" unicode="&#x172;" horiz-adv-x="800" 
d="M707 259q0 -128 -72.5 -198t-231.5 -71q-17 -27 -29 -55t-13 -50q0 -24 11.5 -37t39.5 -13q21 0 41.5 4t39.5 9l12 -53q-30 -17 -63 -25.5t-65 -8.5q-57 0 -86 23.5t-29 65.5q0 27 13.5 64.5t55.5 79.5q-65 7 -110.5 28t-74.5 55t-42.5 79.5t-13.5 102.5v309h-56v123h305
v-123h-59v-318q0 -67 31 -97t91 -30q25 0 46.5 6.5t37.5 21.5t25 39.5t9 59.5v318h-57v123h303v-123h-59v-309z" />
    <glyph glyph-name="uogonek" unicode="&#x173;" horiz-adv-x="685" 
d="M357 493h238v-369h62v-111q-23 -8 -42 -12.5t-36 -6.5q-14 -25 -23.5 -49t-10.5 -43q0 -24 11.5 -37t39.5 -13q21 0 41.5 4t39.5 9l12 -53q-30 -17 -63 -25.5t-65 -8.5q-57 0 -86 23.5t-29 65.5q0 23 10.5 55.5t39.5 67.5q-39 5 -57 23t-23 48q-37 -35 -79 -54.5
t-87 -19.5q-81 0 -121.5 43t-40.5 124v220h-61v119h251v-295q0 -34 10.5 -49.5t42.5 -15.5q12 0 34 7.5t41 27.5v207h-49v118z" />
    <glyph glyph-name="Wcircumflex" unicode="&#x174;" horiz-adv-x="1135" 
d="M563 307l-30 -98l-65 -209h-241l-160 567h-54v124h318v-124h-56l56 -226l42 -177h3l49 175l53 180l-16 48h-57l-1 124h314l1 -124h-65l73 -225l52 -156h3l37 167l51 214h-59v124h313v-124h-58q-3 -13 -15.5 -56.5t-29.5 -102t-36 -125t-36 -125t-29.5 -102t-15.5 -56.5
h-242l-66 210l-30 97h-3zM735 742l-173 101l-170 -100l-42 50l156 154h114l160 -153z" />
    <glyph glyph-name="wcircumflex" unicode="&#x175;" horiz-adv-x="952" 
d="M661 124l36 117l39 134h-47v118h254v-118l-40 -1l-122 -374h-237l-41 113l-31 95h-4l-65 -208h-232l-112 358h-50v135h187l68 -237l36 -133h6l38 123l34 111l-7 17h-58v119h293v-119h-42l52 -139l40 -111h5zM647 528l-173 101l-171 -100l-42 50l156 156h115l159 -155z
" />
    <glyph glyph-name="Ycircumflex" unicode="&#x176;" horiz-adv-x="733" 
d="M476 567h-57v124h300v-124h-52l-199 -317v-128h75v-122h-359v122h76v127l-196 318h-50v124h303v-124h-55l105 -190h4zM543 742l-173 101l-170 -100l-42 50l156 154h114l160 -153z" />
    <glyph glyph-name="ycircumflex" unicode="&#x177;" horiz-adv-x="651" 
d="M399 -119q-9 -23 -21 -41.5t-29 -32t-41 -21t-57 -7.5q-7 0 -24 1t-39.5 4t-48 8t-49.5 14l22 125q5 -1 15 -2.5t21 -3t20.5 -2.5t13.5 -1q35 -1 49.5 8.5t25.5 36.5l20 52h-88q-5 15 -14.5 42.5t-21.5 60.5t-24.5 69t-24.5 69.5t-22 60.5t-15 43h-49v129h189l110 -371h4
q1 5 7.5 24t14.5 45t17.5 55.5t18 56t15 46l8.5 25.5h-47v119h275v-119h-45zM490 528l-173 101l-171 -100l-42 50l156 156h115l159 -155z" />
    <glyph glyph-name="Zacute" unicode="&#x179;" horiz-adv-x="672" 
d="M274 123h239v135h133v-258h-618v121l350 448h-194v-118h-132v240h575v-117zM334 742l-56 63l169 176l87 -99z" />
    <glyph glyph-name="zacute" unicode="&#x17a;" horiz-adv-x="568" 
d="M264 109h147v76h121v-185h-497v99l254 284h-121v-71h-121v181h472v-96zM223 530l-56 63l169 176l87 -99z" />
    <glyph glyph-name="Zdotaccent" unicode="&#x17b;" horiz-adv-x="672" 
d="M274 123h239v135h133v-258h-618v121l350 448h-194v-118h-132v240h575v-117zM472 846q0 -23 -8.5 -42.5t-23.5 -34.5t-35 -23.5t-42 -8.5q-23 0 -42.5 8.5t-34 23.5t-23 34.5t-8.5 42.5q0 22 8.5 42t23 35t34 23.5t42.5 8.5q22 0 42 -8.5t35 -23.5t23.5 -35t8.5 -42z" />
    <glyph glyph-name="zdotaccent" unicode="&#x17c;" horiz-adv-x="568" 
d="M264 109h147v76h121v-185h-497v99l254 284h-121v-71h-121v181h472v-96zM419 654q0 -23 -8.5 -42.5t-23.5 -34.5t-35 -23.5t-42 -8.5q-23 0 -42.5 8.5t-34 23.5t-23 34.5t-8.5 42.5q0 22 8.5 42t23 35t34 23.5t42.5 8.5q22 0 42 -8.5t35 -23.5t23.5 -35t8.5 -42z" />
    <glyph glyph-name="Ohorn" unicode="&#x1a0;" horiz-adv-x="828" 
d="M743 347q0 -77 -22 -142.5t-65 -113.5t-108 -75t-150 -27q-89 0 -154 26.5t-108.5 73.5t-64.5 113t-21 144q0 76 21 141.5t64 114t108.5 76t154.5 27.5q81 0 141.5 -23t102.5 -64h22q30 0 47 15.5t17 55.5v75h99v-87q0 -26 -5 -51.5t-18.5 -47t-36 -36t-58.5 -18.5
q17 -39 25.5 -84t8.5 -93zM537 346q0 46 -6 87t-22 72t-42.5 49t-68.5 18t-70 -18.5t-44.5 -50t-23 -72t-6.5 -85.5q0 -53 7.5 -94.5t24.5 -70.5t44.5 -44.5t67.5 -15.5q38 0 64.5 16.5t43 46t24 71t7.5 91.5z" />
    <glyph glyph-name="ohorn" unicode="&#x1a1;" horiz-adv-x="676" 
d="M588 247q0 -54 -16.5 -101t-50.5 -81.5t-86 -54.5t-123 -20q-70 0 -121.5 19.5t-85 53.5t-49.5 81t-16 103q0 54 16.5 101t50.5 81.5t86 54.5t122 20q72 0 123.5 -20.5t86.5 -57.5q24 3 37.5 19.5t13.5 51.5v75h99v-88q0 -24 -4.5 -48t-15.5 -44.5t-30 -35.5t-49 -22
q12 -41 12 -87zM395 247q0 25 -3.5 48.5t-12.5 41.5t-24.5 28.5t-39.5 10.5t-40 -11t-25.5 -29.5t-13 -41.5t-3.5 -47q0 -27 3.5 -51t12.5 -42t25 -28t41 -10q24 0 39.5 10.5t24.5 28t12.5 41.5t3.5 51z" />
    <glyph glyph-name="Uhorn" unicode="&#x1af;" horiz-adv-x="911" 
d="M707 545h38q30 0 47 14t17 54v141h99v-152q0 -27 -6 -54.5t-22 -49t-43.5 -35t-70.5 -13.5h-59v-191q0 -64 -17.5 -114t-55 -84.5t-95.5 -52.5t-138 -18q-84 0 -143.5 18.5t-96.5 53t-54 84.5t-17 113v317h-56v115h305v-115h-59v-327q0 -68 31 -98t91 -30q25 0 46.5 6.5
t37.5 21.5t25 39.5t9 60.5v327h-57v115h282v-115h-38v-31z" />
    <glyph glyph-name="uhorn" unicode="&#x1b0;" horiz-adv-x="765" 
d="M249 -12q-81 0 -121 42.5t-40 123.5v222h-61v116h250v-291q0 -36 11.5 -52t39.5 -16q12 0 35 7t43 27v209h-49v117h238q0 -17 -0.5 -32t-0.5 -31h2q29 0 45 15t16 54v77h99v-88q0 -28 -6 -55.5t-22 -49.5t-43.5 -35.5t-70.5 -13.5h-20v-210h61q0 -29 0.5 -56.5t0.5 -54.5
q-44 -15 -77.5 -19.5t-54.5 -4.5q-55 0 -78.5 18t-30.5 53q-75 -72 -166 -72z" />
    <glyph glyph-name="AEacute" unicode="&#x1fc;" horiz-adv-x="1088" 
d="M531 198h-222l-48 -76h53v-122h-298v122h51l278 444h-50v124h743v-235h-132v114h-182v-158l175 3v-118l-175 2v-176h192v122h132v-244h-590v122h73v76zM371 313h160v250h-5zM652 742l-56 63l169 176l87 -99z" />
    <glyph glyph-name="aeacute" unicode="&#x1fd;" horiz-adv-x="864" 
d="M607 505q71 0 115.5 -22.5t70 -58t34.5 -78.5t9 -85v-40h-300q0 -54 25 -77t83 -23q35 0 73 8t73 20l34 -109q-51 -29 -108 -39.5t-107 -10.5q-41 0 -71.5 4.5t-54.5 13.5t-41.5 22.5t-31.5 32.5q-27 -25 -55.5 -40t-55.5 -23t-52 -10.5t-47 -2.5q-53 0 -86.5 14.5
t-53 36.5t-26.5 47.5t-7 47.5q0 21 6 47.5t25.5 50.5t54.5 40t94 16h148v19q0 36 -21 52t-68 16q-48 0 -90 -6.5t-73 -15.5l-28 112q22 9 50 16.5t58 13t60.5 8t59.5 2.5q20 0 42 -3.5t43 -10.5t38.5 -18t27.5 -26q26 28 64 43.5t89 15.5zM279 101q15 0 41.5 8t45.5 28
q-11 37 -13 81h-55q-38 0 -58 -15t-20 -44q0 -31 16 -44.5t43 -13.5zM609 381q-19 0 -32 -7.5t-21 -20.5t-12 -29.5t-5 -35.5h132q0 42 -12.5 67.5t-49.5 25.5zM446 530l-56 63l169 176l87 -99z" />
    <glyph glyph-name="Oslashacute" unicode="&#x1fe;" horiz-adv-x="793" 
d="M743 347q0 -77 -22 -142.5t-65 -113.5t-108 -75t-150 -27q-71 0 -125.5 16.5t-96.5 47.5l-55 -62h-72l85 99q-42 48 -63 113t-21 143q0 76 21 141.5t64 114t108.5 76t154.5 27.5q68 0 120.5 -16t93.5 -45l52 62h81l-88 -101q44 -48 65 -114.5t21 -143.5zM537 346
q0 29 -3.5 57.5t-11.5 52.5l-235 -278q18 -28 45 -42.5t66 -14.5q38 0 64.5 16.5t43 46t24 71t7.5 91.5zM254 346q0 -64 13 -106l234 278q-17 25 -42 39.5t-61 14.5q-42 0 -70 -18.5t-44.5 -50t-23 -72t-6.5 -85.5zM407 742l-56 63l169 176l87 -99z" />
    <glyph glyph-name="oslashacute" unicode="&#x1ff;" horiz-adv-x="628" 
d="M314 503q52 0 93 -11.5t73 -31.5l39 43h69l-68 -73q34 -35 50.5 -82t16.5 -102q0 -54 -16.5 -101t-50.5 -81t-86 -53.5t-123 -19.5q-106 0 -168 40q-9 -10 -18 -19.5t-19 -18.5h-69q17 17 33 34.5t33 34.5q-33 35 -48 81.5t-15 102.5q0 54 16.5 101t50.5 81.5t85.5 54.5
t121.5 20zM302 530l-56 63l169 176l87 -99zM394 246q0 12 -1.5 25t-5.5 24l-134 -152q10 -13 24.5 -20.5t36.5 -7.5q24 0 39.5 10t24.5 28t12.5 42t3.5 51zM314 375q-42 0 -63 -35.5t-21 -90.5q0 -11 1 -25.5t5 -25.5l133 151q-9 12 -22 19t-33 7z" />
    <glyph glyph-name="Scommaaccent" unicode="&#x218;" horiz-adv-x="672" 
d="M183 218l1 -73q15 -6 32 -9.5t34 -6t32 -3.5t26 -1q61 0 85.5 20t24.5 48q0 25 -14 38t-38 21q-70 23 -128.5 42.5t-100.5 43.5t-65 58t-23 87q0 102 72.5 159.5t215.5 57.5q28 0 59.5 -2.5t63 -8t61.5 -14.5t56 -21q0 -44 0.5 -87t0.5 -87h-133q0 18 -0.5 36t-0.5 35
q-20 8 -48.5 12t-47.5 4q-53 0 -75 -19t-22 -44q0 -17 12 -30t32 -23t45.5 -18.5t52.5 -16.5q51 -15 94.5 -31.5t76 -40.5t51 -58.5t18.5 -85.5q0 -103 -78 -157.5t-235 -54.5q-65 0 -134.5 10.5t-132.5 36.5q0 45 -0.5 91t-0.5 92h131zM257 -116q0 30 24 52t62 22
q23 0 39.5 -8t27 -20.5t15.5 -29t5 -33.5q0 -27 -11.5 -54t-29.5 -50.5t-41 -42t-48 -30.5l-42 51q23 17 37 35.5t17 41.5q-29 5 -42 22.5t-13 43.5z" />
    <glyph glyph-name="scommaaccent" unicode="&#x219;" horiz-adv-x="552" 
d="M159 167v-25.5t1 -25.5q12 -6 37 -10t48 -4q29 0 50.5 9.5t21.5 26.5q0 25 -17 32t-46 15q-41 12 -80 24t-69.5 29.5t-49.5 43t-19 63.5q0 78 61 118.5t177 40.5q49 0 103.5 -9.5t96.5 -29.5v-66t1 -66h-125q0 12 -0.5 24t-0.5 24q-14 5 -29 7t-29 2q-27 0 -43.5 -10
t-16.5 -27t20 -25.5t43 -14.5q30 -8 68.5 -16.5t72 -26.5t57 -49t23.5 -83q0 -72 -62.5 -110t-193.5 -38q-21 0 -48.5 1.5t-57.5 6t-60 11.5t-57 19v69t-1 70h124zM182 -116q0 30 24 52t62 22q23 0 39.5 -8t27 -20.5t15.5 -29t5 -33.5q0 -27 -11.5 -54t-29.5 -50.5t-41 -42
t-48 -30.5l-42 51q23 17 37 35.5t17 41.5q-29 5 -42 22.5t-13 43.5z" />
    <glyph glyph-name="schwa" unicode="&#x259;" horiz-adv-x="572" 
d="M274 114q37 0 52.5 27.5t17.5 65.5h-134q0 -42 13 -67.5t51 -25.5zM275 -10q-72 0 -117.5 22.5t-71.5 58t-35.5 79t-9.5 84.5v34h306q0 54 -25.5 80t-83.5 26q-35 0 -74 -8t-75 -20l-36 109q52 29 111 39.5t110 10.5q80 0 130.5 -21.5t79.5 -56.5t40 -81.5t11 -95.5
q0 -47 -13 -93.5t-43 -83.5t-80 -60t-124 -23z" />
    <glyph glyph-name="afii10023" unicode="&#x401;" horiz-adv-x="713" 
d="M545 811q0 -29 -20 -49t-49 -20t-49 20t-20 49t20 49t49 20t49 -20t20 -49zM334 811q0 -29 -20 -49t-49 -20t-49 20t-20 49t20 49t48 20q29 0 49.5 -20t20.5 -49zM44 0v123h72v445h-71v122h621v-237h-132v115h-225v-157l212 8v-127l-212 6v-175h235v123h133v-246h-633z
" />
    <glyph glyph-name="afii10051" unicode="&#x402;" horiz-adv-x="917" 
d="M876 209q0 -62 -20.5 -116t-53 -98t-71 -77.5t-74.5 -54.5l-81 99q42 38 69.5 89.5t27.5 124.5q0 69 -31.5 95.5t-80.5 26.5q-26 0 -56 -5.5t-59 -15.5v-155h78v-122h-342v122h73v447h-102v-72h-132v193h722v-193h-131v72h-166v-167q42 14 87 21t88 7q52 0 98.5 -12.5
t81 -39t55 -68.5t20.5 -101z" />
    <glyph glyph-name="afii10052" unicode="&#x403;" horiz-adv-x="681" 
d="M347 743l-56 63l169 176l87 -99zM44 0v122h73v447h-72v121h622v-235h-132v114h-225v-447h92v-122h-358z" />
    <glyph glyph-name="afii10053" unicode="&#x404;" horiz-adv-x="676" 
d="M634 27q-24 -9 -53.5 -16t-61 -11.5t-63 -7t-59.5 -2.5q-105 0 -172 29t-106 77.5t-54 112.5t-15 135q0 65 15 129.5t54.5 116t109.5 83.5t181 32q54 0 103 -7.5t93 -20.5v-203h-134v82q-13 3 -28.5 4.5t-30.5 1.5q-75 0 -112.5 -41t-43.5 -110l206 4v-121l-207 4
q8 -84 53.5 -120.5t133.5 -36.5q12 0 32 1.5t43 4.5t46.5 6.5t41.5 7.5z" />
    <glyph glyph-name="afii10054" unicode="&#x405;" horiz-adv-x="672" 
d="M183 218l1 -73q15 -6 32 -9.5t34 -6t32 -3.5t26 -1q61 0 85.5 20t24.5 48q0 25 -14 38t-38 21q-70 23 -128.5 42.5t-100.5 43.5t-65 58t-23 87q0 102 72.5 159.5t215.5 57.5q28 0 59.5 -2.5t63 -8t61.5 -14.5t56 -21q0 -44 0.5 -87t0.5 -87h-133q0 18 -0.5 36t-0.5 35
q-20 8 -48.5 12t-47.5 4q-53 0 -75 -19t-22 -44q0 -17 12 -30t32 -23t45.5 -18.5t52.5 -16.5q51 -15 94.5 -31.5t76 -40.5t51 -58.5t18.5 -85.5q0 -103 -78 -157.5t-235 -54.5q-65 0 -134.5 10.5t-132.5 36.5q0 45 -0.5 91t-0.5 92h131z" />
    <glyph glyph-name="afii10055" unicode="&#x406;" horiz-adv-x="475" 
d="M70 0v122h72v446h-72v123h335v-123h-70v-446h70v-122h-335z" />
    <glyph glyph-name="afii10056" unicode="&#x407;" horiz-adv-x="475" 
d="M413 811q0 -29 -20 -49t-49 -20t-49 20t-20 49t20 49t49 20t49 -20t20 -49zM202 811q0 -29 -20 -49t-49 -20t-49 20t-20 49t20 49t48 20q29 0 49.5 -20t20.5 -49zM70 0v122h72v446h-72v123h335v-123h-70v-446h70v-122h-335z" />
    <glyph glyph-name="afii10057" unicode="&#x408;" horiz-adv-x="505" 
d="M79 691h368v-123h-81v-385q0 -155 -85.5 -247.5t-251.5 -121.5l-45 135q57 23 93.5 45.5t58 49t30 60.5t8.5 80v384l-95 1v122z" />
    <glyph glyph-name="afii10058" unicode="&#x409;" horiz-adv-x="1107" 
d="M748 569h-73v-138h123q51 0 99 -10.5t86 -35.5t61 -66.5t23 -102.5q0 -56 -17.5 -96.5t-49 -67t-76 -39.5t-99.5 -13h-406v122h63v447h-120v-57q0 -108 -9.5 -198t-40.5 -159t-89.5 -116t-156.5 -68l-48 132q55 22 88.5 51.5t51.5 72.5t24 104t6 148v90h-91v122h651v-122
zM675 311v-189h98q39 0 64.5 25t25.5 71q0 45 -26 69t-67 24h-95z" />
    <glyph glyph-name="afii10059" unicode="&#x40a;" horiz-adv-x="1157" 
d="M799 569h-73v-145h122q51 0 99.5 -10t86 -34t60.5 -64.5t23 -101.5q0 -53 -17 -93t-48.5 -67t-76 -40.5t-99.5 -13.5h-404v122h60v185h-218v-185h60v-122h-326v122h74v447h-74v121h326v-121h-60v-148h218v148h-63v122h330v-122zM726 305v-183h98q39 0 64.5 23.5
t25.5 69.5q0 45 -26 67.5t-68 22.5h-94z" />
    <glyph glyph-name="afii10060" unicode="&#x40b;" horiz-adv-x="964" 
d="M930 122v-122h-324v122h63v104q0 44 -28.5 61t-69.5 17q-34 0 -67.5 -8.5t-56.5 -18.5v-155h65v-122h-332v122h76v447h-102v-72h-132v193h714v-193h-131v72h-158v-164q42 12 87 19t90 7q47 0 90 -9t75.5 -30.5t52 -57t19.5 -87.5v-125h69z" />
    <glyph glyph-name="afii10061" unicode="&#x40c;" horiz-adv-x="799" 
d="M309 122h68v-122h-333v122h73v447h-73v121h333v-121h-68v-447zM676 128l95 -9v-105q-15 -6 -32.5 -10.5t-34 -7.5t-31 -4.5t-24.5 -1.5q-49 -2 -78.5 10t-53.5 48l-179 273v61l166 254q23 38 50 51.5t64 13.5q69 0 127 -32l-10 -104l-87 -7l-138 -191zM415 745l-56 63
l169 176l87 -99z" />
    <glyph glyph-name="afii10062" unicode="&#x40e;" horiz-adv-x="734" 
d="M310 691v-123h-56l69 -150l50 -117h5l48 122l60 145h-59v123h290v-123h-51l-208 -470q-29 -65 -70 -91t-101 -26q-31 0 -69.5 5t-86.5 19l28 121q30 -6 48.5 -7.5t32.5 -1.5q17 0 30 8t22 28l15 35h-47l-194 380h-50v123h294zM369 742q-32 0 -60 11t-53 30.5t-47 45.5
t-41 56l68 54q35 -48 73 -69.5t64 -21.5q9 0 22 1t32 9t45 25.5t60 49.5l49 -48q-25 -41 -52.5 -68.5t-55 -44t-54 -23.5t-50.5 -7z" />
    <glyph glyph-name="afii10145" unicode="&#x40f;" horiz-adv-x="856" 
d="M812 690v-122h-72v-447h72v-121h-309v-205h-146v205h-313v121h74v447h-74v122h329v-122h-63v-447h237v447h-63v122h328z" />
    <glyph glyph-name="afii10017" unicode="&#x410;" horiz-adv-x="794" 
d="M526 121l-22 71h-227l-23 -71h61v-121h-295v121h54l210 569h237l198 -569h55v-121h-306v121h58zM468 307q-17 60 -35 117t-36 117h-4q-5 -18 -14 -46.5t-20 -61t-22 -66t-20 -60.5h151z" />
    <glyph glyph-name="afii10018" unicode="&#x411;" horiz-adv-x="740" 
d="M633 499h-132v70h-192v-138h123q51 0 99.5 -10t86 -34.5t60 -65.5t22.5 -102q0 -54 -17 -95t-48.5 -68.5t-76 -41.5t-99.5 -14h-415v122h72v447h-72v121h589v-191zM309 311v-189h101q39 0 63.5 27.5t24.5 70.5t-24.5 67t-67.5 24h-97z" />
    <glyph glyph-name="afii10019" unicode="&#x412;" horiz-adv-x="742" 
d="M598 362q31 -13 51.5 -33t31.5 -42.5t15.5 -45.5t4.5 -41q0 -46 -17 -83t-48 -63t-75 -40t-97 -14h-421v122h74v446h-72v122h408q115 0 171 -51t56 -137q0 -12 -3.5 -30.5t-12.5 -38t-25 -38t-41 -31.5v-2zM310 296v-174h99q45 0 67 25t22 61t-21.5 62t-67.5 26h-99z
M310 568v-158h89q39 0 60.5 22.5t21.5 57.5t-20 56.5t-62 21.5h-89z" />
    <glyph glyph-name="afii10020" unicode="&#x413;" horiz-adv-x="681" 
d="M44 0v122h73v447h-72v121h622v-235h-132v114h-225v-447h92v-122h-358z" />
    <glyph glyph-name="afii10021" unicode="&#x414;" horiz-adv-x="825" 
d="M156 0v-185h-141v304l69 3q64 72 86 172.5t22 234.5v40h-82v121h663v-121h-72v-447l73 -3v-304h-139v185h-479zM361 515q0 -67 -3.5 -123t-13.5 -104t-27 -89t-44 -77h235v447h-147v-54z" />
    <glyph glyph-name="afii10022" unicode="&#x415;" horiz-adv-x="713" 
d="M44 0v123h72v445h-71v122h621v-237h-132v115h-225v-157l212 8v-127l-212 6v-175h235v123h133v-246h-633z" />
    <glyph glyph-name="afii10024" unicode="&#x416;" horiz-adv-x="1139" 
d="M664 121h68v-121h-324v121h69v448h-69v120h324v-120h-68v-448zM1014 128l100 -9v-105q-15 -6 -32.5 -10.5t-34 -7.5t-31 -4.5t-24.5 -1.5q-43 -2 -74.5 10t-55.5 48l-170 269v61l172 261q23 38 51 50t61 12q71 0 130 -32l-9 -104l-93 -7l-142 -195zM277 363l-143 195
l-93 7l-9 104q58 32 130 32q33 0 61 -12t51 -50l173 -261v-61l-168 -269q-24 -36 -55.5 -48t-74.5 -10q-10 0 -24.5 1.5t-31 4.5t-34 7.5t-32.5 10.5v105l100 9z" />
    <glyph glyph-name="afii10025" unicode="&#x417;" horiz-adv-x="654" 
d="M59 660q31 13 66 22t68 14t62 7.5t49 2.5q52 0 103 -8t91 -29.5t64.5 -58.5t24.5 -94q0 -38 -24.5 -78t-72.5 -63v-1q60 -22 88.5 -65.5t28.5 -88.5q0 -57 -25 -100t-67.5 -71.5t-100 -43t-121.5 -14.5q-20 0 -52 2t-68.5 7t-74.5 14.5t-68 24.5l39 122q55 -16 102.5 -24
t83.5 -8q74 0 111.5 24t37.5 67q0 41 -27 62t-78 21h-92v115h81q52 0 76 24t24 55q0 44 -30.5 61t-77.5 17q-21 0 -42.5 -3.5t-41.5 -8.5v-93h-137v190z" />
    <glyph glyph-name="afii10026" unicode="&#x418;" horiz-adv-x="876" 
d="M501 689h332v-120h-74v-448h74v-121h-328v121h66v271h-1q-66 -60 -130.5 -120t-130.5 -120v-31h66v-121h-333v121h76v448h-75v120h332v-120h-66v-266h1l261 239v27h-70v120z" />
    <glyph glyph-name="afii10027" unicode="&#x419;" horiz-adv-x="876" 
d="M501 689h332v-120h-74v-448h74v-121h-328v121h66v271h-1q-66 -60 -130.5 -120t-130.5 -120v-31h66v-121h-333v121h76v448h-75v120h332v-120h-66v-266h1l261 239v27h-70v120zM435 759q-32 0 -60 11t-53 30.5t-47 45.5t-41 56l68 55q35 -48 73 -69.5t64 -21.5q9 0 22 1
t32 8.5t45 25t60 49.5l49 -48q-25 -41 -52.5 -68.5t-55 -44t-54 -23.5t-50.5 -7z" />
    <glyph glyph-name="afii10028" unicode="&#x41a;" horiz-adv-x="799" 
d="M309 122h68v-122h-333v122h73v447h-73v121h333v-121h-68v-447zM676 128l95 -9v-105q-15 -6 -32.5 -10.5t-34 -7.5t-31 -4.5t-24.5 -1.5q-49 -2 -78.5 10t-53.5 48l-179 273v61l166 254q23 38 50 51.5t64 13.5q69 0 127 -32l-10 -104l-87 -7l-138 -191z" />
    <glyph glyph-name="afii10029" unicode="&#x41b;" horiz-adv-x="817" 
d="M439 0v122h63v447h-140v-57q0 -108 -9.5 -198t-40.5 -159t-89.5 -116t-156.5 -68l-48 132q55 22 88.5 51.5t51.5 72.5t24 104t6 148v90h-91v122h670v-122h-72v-447h72v-122h-328z" />
    <glyph glyph-name="afii10030" unicode="&#x41c;" horiz-adv-x="1043" 
d="M526 318q8 17 14.5 33.5t13.5 32.5q12 27 29 67t35 83.5t35.5 85t29.5 70.5h318v-122h-64v-447h64v-121h-309v121h57v330h-3l-16 -38t-16 -39q-12 -28 -26.5 -62t-29 -68.5t-28.5 -66.5t-24 -57h-160q-33 69 -63 135t-62 136q-6 15 -13 30t-13 30h-3v-330h63v-121h-316
v121h74v447h-74v122h318q32 -72 66.5 -148.5t66.5 -150.5q19 -41 32 -73h4z" />
    <glyph glyph-name="afii10031" unicode="&#x41d;" horiz-adv-x="856" 
d="M484 0v122h63v176h-237v-176h63v-122h-329v122h74v446h-74v122h329v-122h-63v-156h237v156h-63v122h328v-122h-72v-446h72v-122h-328z" />
    <glyph glyph-name="afii10032" unicode="&#x41e;" horiz-adv-x="793" 
d="M743 347q0 -77 -22 -142.5t-65 -113.5t-108 -75t-150 -27q-89 0 -154 26.5t-108.5 73.5t-64.5 113t-21 144q0 76 21 141.5t64 114t108.5 76t154.5 27.5t154 -27.5t107.5 -76t63 -114t20.5 -140.5zM537 346q0 46 -6 86.5t-22 71.5t-42.5 49t-68.5 18t-70 -18.5
t-44.5 -49.5t-23 -71.5t-6.5 -85.5q0 -53 7.5 -94.5t24.5 -70t44.5 -44t67.5 -15.5q38 0 64.5 16.5t43 46t24 70.5t7.5 91z" />
    <glyph glyph-name="afii10033" unicode="&#x41f;" horiz-adv-x="856" 
d="M484 0v122h63v447h-236v-447h63v-122h-330v122h74v447h-74v122h769v-122h-73v-447h73v-122h-329z" />
    <glyph glyph-name="afii10034" unicode="&#x420;" horiz-adv-x="685" 
d="M659 472q0 -42 -14.5 -81t-44 -70t-74.5 -49.5t-106 -18.5h-113v-131h91v-122h-354v122h70v446h-70v123h361q68 0 116.5 -16.5t79 -45.5t44.5 -69t14 -88zM307 568v-197h61q42 0 65 24.5t23 71.5q0 52 -24 76.5t-69 24.5h-56z" />
    <glyph glyph-name="afii10035" unicode="&#x421;" horiz-adv-x="668" 
d="M254 350q0 -62 11.5 -102.5t35 -64.5t59.5 -33.5t85 -9.5q12 0 31 1.5t41 4t45 6t41 8.5l28 -132q-24 -9 -53 -16.5t-59.5 -12.5t-61.5 -7.5t-59 -2.5q-105 0 -172.5 29t-106.5 78.5t-54 113.5t-15 135q0 65 15 129.5t55 116t110 83.5t181 32q54 0 101 -7.5t90 -20.5
v-222h-133v101q-14 3 -27.5 4t-27.5 1q-45 0 -75.5 -15t-49 -42.5t-27 -67t-8.5 -87.5z" />
    <glyph glyph-name="afii10036" unicode="&#x422;" horiz-adv-x="695" 
d="M170 0v122h82v446h-104l1 -117h-131v240h659v-240h-131v117h-103v-446h81v-122h-354z" />
    <glyph glyph-name="afii10037" unicode="&#x423;" horiz-adv-x="734" 
d="M310 691v-123h-56l69 -150l50 -117h5l48 122l60 145h-59v123h290v-123h-51l-208 -470q-29 -65 -70 -91t-101 -26q-31 0 -69.5 5t-86.5 19l28 121q30 -6 48.5 -7.5t32.5 -1.5q17 0 30 8t22 28l15 35h-47l-194 380h-50v123h294z" />
    <glyph glyph-name="afii10038" unicode="&#x424;" horiz-adv-x="936" 
d="M376 520q-67 -8 -105 -54.5t-38 -113.5q0 -68 36 -111.5t107 -53.5v333zM564 187q28 4 53.5 17t44 34.5t29.5 50.5t11 64q0 33 -8 61.5t-25 51t-43 37t-62 17.5v-333zM564 649q79 -4 141 -28t104.5 -63t64.5 -90.5t22 -111.5q0 -63 -22.5 -115.5t-65.5 -91.5
t-104.5 -62.5t-139.5 -28.5v-58h-188v58q-79 4 -141 26.5t-105.5 61t-66.5 91.5t-23 118q0 60 24.5 112t69 91.5t106 63.5t136.5 28v41h188v-42z" />
    <glyph glyph-name="afii10039" unicode="&#x425;" horiz-adv-x="765" 
d="M460 691h274v-124h-55l-173 -224l165 -220h67v-123h-356v123h47l-92 135l-94 -135h50v-123h-272v123h55l173 242l-145 201h-79v125h358v-125h-47l86 -122l88 123h-50v124z" />
    <glyph glyph-name="afii10040" unicode="&#x426;" horiz-adv-x="856" 
d="M702 0h-659v121h74v447h-74v122h330v-122h-63v-447h236v447h-62v122h328v-122h-73v-447h103v-306h-140v185z" />
    <glyph glyph-name="afii10041" unicode="&#x427;" horiz-adv-x="815" 
d="M767 0h-335v121h72v148q-37 -7 -76 -12t-79 -5q-50 0 -96.5 9.5t-82.5 32t-57.5 59.5t-21.5 92v124h-69v121h323v-121h-62v-95q0 -48 27.5 -69t71.5 -21q31 0 62 4.5t60 12.5v168h-62v121h325v-121h-71v-448h71v-121z" />
    <glyph glyph-name="afii10042" unicode="&#x428;" horiz-adv-x="1169" 
d="M490 568h-56v122h298v-122h-56v-447h191v447h-59v122h317v-122h-72v-447h72v-121h-1081v121h74v447h-74v122h319v-122h-60v-447h187v447z" />
    <glyph glyph-name="afii10043" unicode="&#x429;" horiz-adv-x="1169" 
d="M490 568h-56v122h298v-122h-56v-447h191v447h-59v122h317v-122h-72v-447h102v-306h-140v185h-971v121h74v447h-74v122h319v-122h-60v-447h187v447z" />
    <glyph glyph-name="afii10044" unicode="&#x42a;" horiz-adv-x="905" 
d="M472 431h123q51 0 99.5 -10.5t86 -35.5t60.5 -66.5t23 -102.5q0 -56 -17 -96.5t-48.5 -67t-76.5 -39.5t-100 -13h-416v122h73v447h-128v-108h-132v229h524v-121h-70zM472 311v-189h98q39 0 65 25t26 71q0 45 -26 69t-68 24h-95z" />
    <glyph glyph-name="afii10045" unicode="&#x42b;" horiz-adv-x="1123" 
d="M310 311v-189h98q40 0 65.5 25t25.5 71q0 45 -26 69t-68 24h-95zM383 569h-73v-138h123q51 0 99.5 -10.5t86 -35.5t60.5 -66.5t23 -102.5q0 -56 -17 -96.5t-48.5 -67t-76.5 -39.5t-100 -13h-416v122h73v447h-73v122h339v-122zM743 0v122h72v447h-72v121h335v-121h-71
v-447h71v-122h-335z" />
    <glyph glyph-name="afii10046" unicode="&#x42c;" horiz-adv-x="747" 
d="M315 311v-189h98q40 0 65.5 25t25.5 71q0 45 -26 69t-68 24h-95zM388 569h-73v-138h123q51 0 99.5 -10.5t86 -35.5t60.5 -66.5t23 -102.5q0 -56 -17 -96.5t-48.5 -67t-76.5 -39.5t-100 -13h-416v122h73v447h-73v122h339v-122z" />
    <glyph glyph-name="afii10047" unicode="&#x42d;" horiz-adv-x="666" 
d="M213 295v120l197 -3q-1 68 -36 109t-112 41q-15 0 -34.5 -2t-31.5 -5v-82h-134v203q44 14 96 21.5t106 7.5q105 0 173 -29t108 -77.5t56 -111t16 -129.5t-16.5 -133t-57 -118t-107.5 -84.5t-169 -32.5q-57 0 -117 9t-108 28l28 134q18 -4 40 -7.5t43.5 -6.5t40 -4.5
t30.5 -1.5q87 0 134.5 37.5t51.5 120.5z" />
    <glyph glyph-name="afii10048" unicode="&#x42e;" horiz-adv-x="1149" 
d="M1099 347q0 -77 -20 -142.5t-61.5 -113.5t-104.5 -75t-149 -27q-80 0 -140 22t-101.5 62.5t-64 97.5t-28.5 127h-120v-176h63v-122h-329v122h74v447h-74v121h329v-121h-63v-157h121q8 63 31.5 117t64 93t99.5 61t138 22q90 0 153.5 -27.5t104 -76t59 -114t18.5 -140.5z
M901 346q0 45 -5.5 86t-21 72t-42 49t-68.5 18t-69.5 -18.5t-43 -49.5t-22 -72t-6.5 -86q0 -52 7 -93.5t23.5 -70.5t43.5 -44.5t67 -15.5q38 0 64.5 16.5t42.5 46t23 71t7 91.5z" />
    <glyph glyph-name="afii10049" unicode="&#x42f;" horiz-adv-x="763" 
d="M289 475q0 -27 9 -44.5t23.5 -27t32.5 -13t36 -3.5h65v182h-73q-40 0 -66.5 -24.5t-26.5 -69.5zM368 271l-97 -195q-11 -22 -21.5 -39t-25 -28t-33.5 -17t-46 -6q-10 0 -25.5 1t-33 3.5t-35.5 6.5t-33 9v103l84 12l97 183q-31 12 -52 30.5t-34 40.5t-19 46.5t-6 47.5
q0 42 12.5 82t41 71t75 50t114.5 19h382v-122h-68v-447h69v-122h-323v122h64v149h-87z" />
    <glyph glyph-name="afii10065" unicode="&#x430;" horiz-adv-x="608" 
d="M518 120h68q2 -26 4 -51t4 -51q-32 -15 -73 -22.5t-79 -7.5q-36 0 -62 13t-28 54l-1 1q-23 -24 -47.5 -38t-46.5 -20.5t-40 -8t-28 -1.5q-48 0 -78.5 14.5t-48.5 36t-24.5 47t-6.5 46.5q0 26 8 49.5t28 42.5t54 33t87 20l133 12v16q0 33 -16.5 50.5t-61.5 17.5
q-35 0 -77 -6t-73 -16l-28 112q22 9 49.5 16.5t57 13t59.5 8t59 2.5q48 0 86.5 -9t65.5 -29.5t41.5 -54.5t14.5 -83v-207zM272 204q-26 -4 -37 -18t-11 -31q0 -26 11.5 -40.5t39.5 -14.5q16 0 33 7.5t31 20.5v85z" />
    <glyph glyph-name="afii10066" unicode="&#x431;" horiz-adv-x="626" 
d="M286 671q16 6 44 17t58 23t57.5 23.5t42.5 19.5q12 -26 25 -51t25 -51q-29 -19 -59.5 -33t-57.5 -25q-44 -17 -83 -34t-70 -38.5t-51.5 -50t-27.5 -70.5q2 0 3 -1q27 38 71 59t96 21q61 0 104 -18t70 -50.5t39.5 -77t12.5 -96.5q0 -51 -16 -96t-50 -78.5t-85.5 -53
t-123.5 -19.5q-68 0 -116.5 17.5t-80.5 48t-48.5 72.5t-21.5 92q-3 40 -3 84q0 51 5 87t14 65q23 74 79 126.5t148 87.5zM314 360q-23 0 -39 -10.5t-26 -28t-14.5 -39.5t-4.5 -44q0 -24 3.5 -46.5t12.5 -39.5t25 -27t41 -10q24 0 39.5 10t24.5 27t12.5 40t3.5 49
q0 25 -3.5 47t-12 38t-23.5 25t-39 9z" />
    <glyph glyph-name="afii10067" unicode="&#x432;" horiz-adv-x="611" 
d="M389 492q89 0 131.5 -35.5t42.5 -98.5q0 -24 -13 -52t-46 -45q22 -8 36.5 -21t22.5 -29t11.5 -33t3.5 -32q0 -69 -50.5 -107.5t-134.5 -38.5h-363v118h56v260h-55v114h358zM266 204v-91h84q22 0 34.5 12.5t12.5 32.5q0 19 -11.5 32.5t-35.5 13.5h-84zM266 382v-81h78
q17 0 28.5 11t11.5 30q0 18 -10 29t-33 11h-75z" />
    <glyph glyph-name="afii10068" unicode="&#x433;" horiz-adv-x="556" 
d="M38 0v117h56v261h-55v114h495v-190h-120v76h-132v-261h72v-117h-316z" />
    <glyph glyph-name="afii10069" unicode="&#x434;" horiz-adv-x="684" 
d="M591 118l62 -3v-273h-140v158h-346v-158h-143v273l61 3q22 26 34.5 53t18.5 58t7 67.5t1 81.5h-64v114h509v-374zM312 378q0 -93 -8.5 -155t-41.5 -105h141v260h-91z" />
    <glyph glyph-name="afii10070" unicode="&#x435;" horiz-adv-x="572" 
d="M301 380q-37 0 -53 -26t-17 -59h133q0 18 -3 33.5t-10 27t-19 18t-31 6.5zM300 505q72 0 117 -22t71 -56.5t35.5 -78.5t9.5 -87v-41h-305q0 -54 25.5 -76.5t83.5 -22.5q36 0 74.5 7.5t74.5 20.5l36 -110q-52 -28 -111 -39t-110 -11q-80 0 -130.5 21.5t-79.5 57.5t-40 82
t-11 95q0 47 13 93.5t43 83.5t80 60t124 23z" />
    <glyph glyph-name="afii10072" unicode="&#x436;" horiz-adv-x="963" 
d="M349 116h40v262h-43v114h275v-114h-45v-262h45v-116h-272v116zM871 113l61 -11v-94q-25 -9 -58 -13.5t-53 -5.5q-42 -1 -64.5 9t-38.5 34l-126 193v43l115 182q18 29 39.5 41.5t57.5 12.5q29 0 59 -7t50 -18l-9 -98l-52 -4l-85 -118zM109 377l-51 4l-10 98q21 11 52 18
t60 7q36 0 58 -12.5t39 -41.5l113 -182v-43l-124 -193q-16 -24 -38.5 -34t-63.5 -9q-10 0 -24 1.5t-29.5 4t-31 5.5t-27.5 8v94l60 11l102 146z" />
    <glyph glyph-name="afii10073" unicode="&#x437;" horiz-adv-x="516" 
d="M229 -11q-67 0 -124 10.5t-88 22.5l31 114q42 -12 74 -16.5t59 -4.5q50 0 76.5 12.5t26.5 38.5q0 25 -18.5 33.5t-40.5 8.5h-56v95h47q23 0 40.5 9t17.5 29q0 39 -58 39q-10 0 -25 -1.5t-30 -6.5v-37h-122v135q48 17 101 26.5t109 9.5t97.5 -10.5t68.5 -29.5t40 -44
t13 -54q0 -31 -16.5 -57t-54.5 -46v-3q39 -14 60 -46t21 -65q0 -34 -15 -63.5t-46 -51.5t-77.5 -34.5t-110.5 -12.5z" />
    <glyph glyph-name="afii10074" unicode="&#x438;" horiz-adv-x="732" 
d="M447 251q-13 -20 -28.5 -45t-32.5 -48q-31 -43 -62 -85t-53 -73h-182v378h-62v113h250v-258h4v-1q14 21 33 50t40 58q29 42 58 82t49 69h181q0 -92 0.5 -183t0.5 -184h61v-111q-30 -11 -64 -17.5t-63 -6.5q-37 0 -61 9t-38 24.5t-19.5 36.5t-5.5 46v146h-6z" />
    <glyph glyph-name="afii10075" unicode="&#x439;" horiz-adv-x="732" 
d="M447 251q-13 -20 -28.5 -45t-32.5 -48q-31 -43 -62 -85t-53 -73h-182v378h-62v113h250v-258h4v-1q14 21 33 50t40 58q29 42 58 82t49 69h181q0 -92 0.5 -183t0.5 -184h61v-111q-30 -11 -64 -17.5t-63 -6.5q-37 0 -61 9t-38 24.5t-19.5 36.5t-5.5 46v146h-6zM361 537
q-32 0 -60 11t-53 30.5t-47 45.5t-41 56l68 55q35 -48 73 -69.5t64 -21.5q9 0 22 1t32 8.5t45 25t60 49.5l49 -48q-25 -41 -52.5 -68.5t-55 -44t-54 -23.5t-50.5 -7z" />
    <glyph glyph-name="afii10076" unicode="&#x43a;" horiz-adv-x="665" 
d="M37 117h52v261h-60v114h250v-375h46v-117h-288v117zM574 113l61 -11v-94q-12 -5 -27 -8t-30.5 -5.5t-29.5 -4t-24 -1.5q-42 -1 -64.5 9t-38.5 34l-127 196v44l119 178q18 29 40 41.5t57 12.5q29 0 59 -7t51 -18l-10 -98l-51 -4l-90 -114z" />
    <glyph glyph-name="afii10077" unicode="&#x43b;" horiz-adv-x="659" 
d="M331 0v117h52v261h-91v-30q0 -68 -6 -127t-28.5 -107.5t-66 -85t-117.5 -58.5l-63 124q37 22 59.5 42t34.5 44.5t15.5 58t3.5 82.5v57h-75v114h524v-375h56v-117h-298z" />
    <glyph glyph-name="afii10078" unicode="&#x43c;" horiz-adv-x="846" 
d="M428 275l60 112l59 105h260v-115h-55v-253h62v-110q-30 -13 -62 -19t-61 -6q-37 0 -60.5 8.5t-37 24.5t-18.5 38t-5 49v135h-5l-38 -72l-54 -97h-95l-49 84l-50 90h-5v-249h-184v377h-62v115h270l64 -110l60 -107h6z" />
    <glyph glyph-name="afii10079" unicode="&#x43d;" horiz-adv-x="700" 
d="M615 492v-367h61v-111q-29 -13 -63.5 -19.5t-63.5 -6.5q-70 0 -96.5 28t-26.5 83v104h-152v-203h-190v378h-59v114h249v-187h152v187h189z" />
    <glyph glyph-name="afii10080" unicode="&#x43e;" horiz-adv-x="628" 
d="M588 247q0 -54 -16.5 -101t-50.5 -81.5t-86 -54.5t-123 -20q-70 0 -121.5 19.5t-85 53.5t-49.5 81t-16 103q0 54 16.5 101t50.5 81.5t86 54.5t122 20t121.5 -20t85.5 -54.5t50 -81.5t16 -101zM395 247q0 25 -3.5 48t-12 41t-24 28.5t-39.5 10.5q-25 0 -41 -11t-25.5 -29
t-13 -41t-3.5 -47q0 -27 3.5 -51t12.5 -42t24.5 -28t40.5 -10q24 0 40 10.5t25 28t12.5 41.5t3.5 51z" />
    <glyph glyph-name="afii10081" unicode="&#x43f;" horiz-adv-x="693" 
d="M272 375v-375h-186v375h-58v116h635v-116h-62v-251h69v-110q-15 -6 -32 -11t-35 -8.5t-35.5 -5t-31.5 -1.5q-37 0 -60.5 8t-37.5 22.5t-19.5 35.5t-5.5 47v274h-141z" />
    <glyph glyph-name="afii10082" unicode="&#x440;" horiz-adv-x="665" 
d="M25 -94h62v468h-61v118h238v-41l3 -1q17 14 37 24t40.5 16t39 9t31.5 3q61 0 102 -19t65.5 -52.5t34.5 -78t10 -95.5q0 -59 -11.5 -108t-37.5 -84t-68.5 -55t-103.5 -20q-11 0 -26.5 1.5t-33.5 4.5t-36.5 8t-34.5 13v-111h65v-118h-315v118zM358 122q13 0 27.5 4.5
t26.5 19t19.5 40.5t7.5 68q0 39 -7 62t-18 35t-26 15.5t-30 3.5q-19 0 -42 -8t-40 -20v-197q18 -11 40 -17t42 -6z" />
    <glyph glyph-name="afii10083" unicode="&#x441;" horiz-adv-x="529" 
d="M306 506q43 0 87 -6.5t82 -20.5v-167h-122v60q-7 2 -16 2h-14q-25 0 -42.5 -9.5t-29 -26t-16.5 -39.5t-5 -49q0 -38 7.5 -62.5t21 -38.5t32 -20t40.5 -6q31 0 68 6t68 16q8 -27 16.5 -57t16.5 -58q-41 -20 -94.5 -30t-106.5 -10q-79 0 -129.5 20.5t-80 55.5t-40.5 81
t-11 97q0 45 11 92t40.5 84.5t81.5 61.5t135 24z" />
    <glyph glyph-name="afii10084" unicode="&#x442;" horiz-adv-x="611" 
d="M144 117h67v261h-70v-72h-121v186h571v-186h-120v72h-71v-261h69v-117h-325v117z" />
    <glyph glyph-name="afii10085" unicode="&#x443;" horiz-adv-x="651" 
d="M322 121q21 63 40.5 127t40.5 127h-48v117h276v-117h-45q-46 -121 -92.5 -242.5t-93.5 -242.5q-9 -24 -21 -44t-29.5 -34.5t-43 -23t-62.5 -8.5q-19 0 -62.5 4.5t-92.5 21.5l19 118q20 -2 38 -4.5t35 -2.5q21 0 34.5 4t23.5 15t18 30.5t19 51.5h-89l-122 346h-50v128h192
q3 -10 12 -39.5t20.5 -68.5t24.5 -82t24 -81t19 -65.5t10 -34.5h5v0z" />
    <glyph glyph-name="afii10086" unicode="&#x444;" horiz-adv-x="834" 
d="M262 -98h63v89q-85 3 -140 27t-87.5 60.5t-45 81.5t-12.5 89q0 56 18.5 102t55 80t89.5 53t122 21v102h-64v113h248v-215q70 -1 123 -19.5t89 -51.5t54.5 -79t18.5 -102q0 -57 -17.5 -104.5t-53 -82t-89 -54t-125.5 -21.5v-89h67v-114h-314v114zM509 109q51 3 78 37.5
t27 97.5q0 27 -4.5 51.5t-16.5 44t-32.5 31t-51.5 13.5v-275zM325 384q-29 -2 -49 -13.5t-32.5 -30.5t-18 -42.5t-5.5 -49.5q0 -136 105 -139v275z" />
    <glyph glyph-name="afii10087" unicode="&#x445;" horiz-adv-x="645" 
d="M355 322l57 61h-38v110h238v-110h-33l-142 -141l126 -132h56v-110h-307v110h40l-69 73l-62 -73h38v-110h-229v110h43l130 152l-115 121h-51v110h305v-110h-45z" />
    <glyph glyph-name="afii10050" unicode="&#x490;" horiz-adv-x="681" 
d="M44 0v122h73v447h-72v121h490v132h132v-253h-357v-447h92v-122h-358z" />
    <glyph glyph-name="afii10098" unicode="&#x491;" horiz-adv-x="551" 
d="M38 0v117h56v261h-55v114h367v121h122v-235h-246v-261h71v-117h-315z" />
    <glyph glyph-name="Wgrave" unicode="&#x1e80;" horiz-adv-x="1135" 
d="M563 307l-30 -98l-65 -209h-241l-160 567h-54v124h318v-124h-56l56 -226l42 -177h3l49 175l53 180l-16 48h-57l-1 124h314l1 -124h-65l73 -225l52 -156h3l37 167l51 214h-59v124h313v-124h-58q-3 -13 -15.5 -56.5t-29.5 -102t-36 -125t-36 -125t-29.5 -102t-15.5 -56.5
h-242l-66 210l-30 97h-3zM368 881l83 98l169 -175l-55 -63z" />
    <glyph glyph-name="wgrave" unicode="&#x1e81;" horiz-adv-x="952" 
d="M661 124l36 117l39 134h-47v118h254v-118l-40 -1l-122 -374h-237l-41 113l-31 95h-4l-65 -208h-232l-112 358h-50v135h187l68 -237l36 -133h6l38 123l34 111l-7 17h-58v119h293v-119h-42l52 -139l40 -111h5zM287 670l84 99l169 -176l-55 -63z" />
    <glyph glyph-name="Wacute" unicode="&#x1e82;" horiz-adv-x="1135" 
d="M563 307l-30 -98l-65 -209h-241l-160 567h-54v124h318v-124h-56l56 -226l42 -177h3l49 175l53 180l-16 48h-57l-1 124h314l1 -124h-65l73 -225l52 -156h3l37 167l51 214h-59v124h313v-124h-58q-3 -13 -15.5 -56.5t-29.5 -102t-36 -125t-36 -125t-29.5 -102t-15.5 -56.5
h-242l-66 210l-30 97h-3zM567 743l-56 63l169 176l87 -99z" />
    <glyph glyph-name="wacute" unicode="&#x1e83;" horiz-adv-x="952" 
d="M661 124l36 117l39 134h-47v118h254v-118l-40 -1l-122 -374h-237l-41 113l-31 95h-4l-65 -208h-232l-112 358h-50v135h187l68 -237l36 -133h6l38 123l34 111l-7 17h-58v119h293v-119h-42l52 -139l40 -111h5zM425 530l-56 63l169 176l87 -99z" />
    <glyph glyph-name="Wdieresis" unicode="&#x1e84;" horiz-adv-x="1135" 
d="M563 307l-30 -98l-65 -209h-241l-160 567h-54v124h318v-124h-56l56 -226l42 -177h3l49 175l53 180l-16 48h-57l-1 124h314l1 -124h-65l73 -225l52 -156h3l37 167l51 214h-59v124h313v-124h-58q-3 -13 -15.5 -56.5t-29.5 -102t-36 -125t-36 -125t-29.5 -102t-15.5 -56.5
h-242l-66 210l-30 97h-3zM734 811q0 -29 -20 -49t-49 -20t-49 20t-20 49t20 49t49 20t49 -20t20 -49zM523 811q0 -29 -20 -49t-49 -20t-49 20t-20 49t20 49t48 20q29 0 49.5 -20t20.5 -49z" />
    <glyph glyph-name="wdieresis" unicode="&#x1e85;" horiz-adv-x="952" 
d="M661 124l36 117l39 134h-47v118h254v-118l-40 -1l-122 -374h-237l-41 113l-31 95h-4l-65 -208h-232l-112 358h-50v135h187l68 -237l36 -133h6l38 123l34 111l-7 17h-58v119h293v-119h-42l52 -139l40 -111h5zM637 615q0 -29 -20 -49t-50 -20q-29 0 -49 20t-20 49t20 49
t49 20q30 0 50 -19.5t20 -49.5zM425 615q0 -29 -20 -49t-49 -20t-49 20t-20 49t20 49t48 20q30 0 50 -19.5t20 -49.5z" />
    <glyph glyph-name="Ygrave" unicode="&#x1ef2;" horiz-adv-x="733" 
d="M476 567h-57v124h300v-124h-52l-199 -317v-128h75v-122h-359v122h76v127l-196 318h-50v124h303v-124h-55l105 -190h4zM188 881l83 98l169 -175l-55 -63z" />
    <glyph glyph-name="ygrave" unicode="&#x1ef3;" horiz-adv-x="651" 
d="M399 -119q-9 -23 -21 -41.5t-29 -32t-41 -21t-57 -7.5q-7 0 -24 1t-39.5 4t-48 8t-49.5 14l22 125q5 -1 15 -2.5t21 -3t20.5 -2.5t13.5 -1q35 -1 49.5 8.5t25.5 36.5l20 52h-88q-5 15 -14.5 42.5t-21.5 60.5t-24.5 69t-24.5 69.5t-22 60.5t-15 43h-49v129h189l110 -371h4
q1 5 7.5 24t14.5 45t17.5 55.5t18 56t15 46l8.5 25.5h-47v119h275v-119h-45zM142 670l84 99l169 -176l-55 -63z" />
    <glyph glyph-name="afii00208" unicode="&#x2015;" horiz-adv-x="1000" 
d="M63 204v108h873v-108h-873z" />
    <glyph glyph-name="fraction" unicode="&#x2044;" horiz-adv-x="107" 
d="M-45 -19h-106l333 733h107z" />
    <glyph glyph-name="fraction" unicode="&#x2215;" horiz-adv-x="107" 
d="M-45 -19h-106l333 733h107z" />
    <glyph glyph-name="dong" unicode="&#x20ab;" horiz-adv-x="630" 
d="M360 155q-27 -22 -61 -31.5t-56 -9.5q-48 0 -80 13.5t-51.5 38.5t-27.5 58.5t-8 74.5q0 43 9 79t29.5 61.5t54 39.5t81.5 14q18 0 49 -6.5t56 -17.5v56h-95v46h95v35h-54v85h199v-120h48v-46h-48v-313h51v-90h-188v32zM290 392q-11 0 -23.5 -3t-22.5 -12.5t-16.5 -27.5
t-6.5 -49q0 -27 6 -44t15.5 -26.5t21.5 -13t24 -3.5q14 0 33.5 7t32.5 17v138q-14 8 -31 12.5t-33 4.5zM86 0v86h467v-86h-467z" />
    <glyph glyph-name="centigrade" unicode="&#x2103;" horiz-adv-x="1020" 
d="M606 350q0 -62 11.5 -102.5t35 -64.5t59.5 -33.5t85 -9.5q12 0 31 1.5t41 4t45 6t41 8.5l28 -132q-24 -9 -53 -16.5t-59.5 -12.5t-61.5 -7.5t-59 -2.5q-105 0 -172.5 29t-106.5 78.5t-54 113.5t-15 135q0 65 15 129.5t55 116t110 83.5t181 32q54 0 101 -7.5t90 -20.5
v-222h-133v101q-14 3 -27.5 4t-27.5 1q-45 0 -75.5 -15t-49 -42.5t-27 -67t-8.5 -87.5zM353 556q0 -33 -13 -62.5t-34.5 -51t-51 -34.5t-62.5 -13q-34 0 -63.5 11.5t-51.5 33t-34.5 51t-12.5 65.5q0 34 13 63.5t35 51.5t51.5 34.5t62.5 12.5t62.5 -12t51 -33.5t34.5 -51
t13 -65.5zM265 556q0 32 -19.5 53.5t-54.5 21.5q-32 0 -52.5 -21.5t-20.5 -53.5t20.5 -53t52.5 -21t53 20.5t21 53.5z" />
    <glyph glyph-name="fahrenheit" unicode="&#x2109;" horiz-adv-x="1065" 
d="M353 557q0 -33 -13 -62.5t-34.5 -51t-51 -34.5t-62.5 -13q-34 0 -63.5 11.5t-51.5 33t-34.5 51t-12.5 65.5q0 34 13 63.5t35 51.5t51.5 34.5t62.5 12.5t62.5 -12t51 -33.5t34.5 -51t13 -65.5zM265 557q0 32 -19.5 53.5t-54.5 21.5q-32 0 -52.5 -21.5t-20.5 -53.5
t20.5 -53t52.5 -21t53 20.5t21 53.5zM407 0v122h73v446h-72v122h623v-237h-133v115h-225v-170l211 7v-126l-211 6v-163h92v-122h-358z" />
    <glyph glyph-name="afii61352" unicode="&#x2116;" horiz-adv-x="1270" 
d="M567 277v292h-67v121h313v-121h-66v-569h-190l-224 379q-8 14 -20.5 34.5t-20.5 34.5h-2v-327h67v-121h-314v121h70v448h-70v121h275q23 -38 48 -80t50.5 -84.5t50.5 -85.5t48 -82l48 -81h4zM1234 520q0 -36 -11.5 -66.5t-34.5 -53.5t-59.5 -36t-85.5 -13t-84.5 13
t-59 35.5t-34.5 53.5t-11 67t11.5 66.5t35 53t59.5 35.5t85 13t84.5 -13t59 -35.5t34.5 -53t11 -66.5zM861 211v108h367v-108h-367zM1097 520q0 16 -2 30.5t-8 25.5t-16 17.5t-26 6.5t-26 -7t-16 -18.5t-8.5 -25.5t-2.5 -29q0 -34 10 -57.5t43 -23.5q31 0 41.5 24t10.5 57z
" />
    <glyph glyph-name="published" unicode="&#x2117;" horiz-adv-x="878" 
d="M678 409q0 -28 -9.5 -54.5t-29 -47.5t-50 -33.5t-71.5 -12.5h-78v-90h61v-80h-237v80h48v305h-48v80h244q45 0 77.5 -11t53 -30.5t30 -46.5t9.5 -59zM440 476v-138h44q28 0 44 17.5t16 50.5q0 35 -17 52.5t-46 17.5h-41zM828 328q0 -81 -31 -152t-84.5 -124t-124.5 -83.5
t-151 -30.5q-81 0 -152.5 30.5t-125 83.5t-84.5 124t-31 152t31 152t84.5 124t125 83.5t152.5 30.5q80 0 151 -30.5t124.5 -83.5t84.5 -124t31 -152zM755 328q0 65 -25 123t-68 101t-101 68t-124 25t-124 -25t-101.5 -68t-68.5 -101t-25 -123t25 -123t68.5 -101t101.5 -68
t124 -25t124 25t101 68t68 101t25 123z" />
    <glyph glyph-name="Ohm" unicode="&#x2126;" horiz-adv-x="806" 
d="M673 122h100v-122h-324v125q54 16 76 68.5t22 159.5q0 108 -32.5 163t-107.5 55t-110 -57t-35 -161t21 -158t72 -69v-126h-326v122h103l3 4q-44 35 -60.5 96t-16.5 137q0 74 21.5 137.5t65 110t108 73t150.5 26.5q87 0 152.5 -25.5t109.5 -71.5t66 -108.5t22 -136.5
q0 -69 -18.5 -133t-62.5 -104z" />
    <glyph glyph-name="angstrom" unicode="&#x212b;" horiz-adv-x="794" 
d="M526 121l-22 71h-227l-23 -71h61v-121h-295v121h54l210 569h237l198 -569h55v-121h-306v121h58zM397 709q-29 0 -54 10.5t-43.5 28.5t-29 42.5t-10.5 51.5q0 26 10.5 50t29 42t43.5 29t54 11t53.5 -10.5t42 -28.5t27.5 -42t10 -51q0 -28 -10.5 -52.5t-28.5 -42.5t-42 -28
t-52 -10zM468 307q-17 60 -35 117t-36 117h-4q-5 -18 -14 -46.5t-20 -61t-22 -66t-20 -60.5h151zM397 893q-23 0 -38.5 -16.5t-15.5 -37.5q0 -20 14.5 -35.5t39.5 -15.5q23 0 36.5 15.5t13.5 35.5q0 21 -13 37.5t-37 16.5z" />
    <glyph glyph-name="gradient" unicode="&#x2207;" horiz-adv-x="767" 
d="M736 584l-234 -583h-227l-246 578v112h707v-107zM215 570q23 -60 47 -120t51 -130l24 -62q11 -30 22 -59.5t22 -58.5h3l39 110l21 57q24 66 47 131.5t48 131.5h-324z" />
    <glyph glyph-name="product" unicode="&#x220f;" horiz-adv-x="856" 
d="M484 -119v123h63v565h-236v-565h63v-123h-330v123h74v565h-74v122h769v-122h-73v-565h73v-123h-329z" />
    <glyph glyph-name="summation" unicode="&#x2211;" horiz-adv-x="686" 
d="M428 305v-31l-159 -271h249v116h132v-238h-624v104l186 305l-177 302v99h603v-238h-130v116h-229z" />
    <glyph glyph-name="minus" unicode="&#x2212;" horiz-adv-x="630" 
d="M111 254v103h434v-103h-434z" />
    <glyph glyph-name="radical" unicode="&#x221a;" horiz-adv-x="563" 
d="M71 328q35 19 71 37.5t71 38.5q20 -65 39.5 -129t39.5 -129h2l173 598h117q-60 -200 -119.5 -398t-119.5 -397h-107l-94 297l-39 -19z" />
    <glyph glyph-name="infinity" unicode="&#x221e;" horiz-adv-x="801" 
d="M223 451q50 0 97 -26.5t82 -59.5q35 38 77.5 62t103.5 24q39 0 72.5 -13t57.5 -35.5t37.5 -54.5t13.5 -69q0 -36 -14 -68t-39 -56t-59.5 -38t-76.5 -14q-49 0 -92 26t-81 65q-19 -18 -38.5 -34.5t-41.5 -29t-47.5 -20t-55.5 -7.5q-38 0 -71 13t-57.5 36.5t-38.5 55.5
t-14 70q0 35 13.5 66.5t37.5 55t58 37.5t76 14zM224 348q-26 0 -42.5 -20.5t-16.5 -49.5q0 -30 17.5 -51t42.5 -21q29 0 55 21.5t49 48.5q-24 29 -50 50.5t-55 21.5zM578 348q-25 0 -52.5 -21t-52.5 -49q29 -30 53.5 -51t50.5 -21t43 21.5t17 50.5q0 32 -17 51t-42 19z" />
    <glyph glyph-name="logicaland" unicode="&#x2227;" horiz-adv-x="614" 
d="M33 1q27 59 56.5 123t59.5 129t59 129t56 123h96q28 -59 58 -123t61 -129t61 -129t57 -123h-144q-34 73 -71 155.5t-70 156.5q-7 -15 -19.5 -46t-27.5 -66q-12 -27 -24 -55t-24 -54t-22.5 -49.5t-18.5 -41.5h-143z" />
    <glyph glyph-name="logicalor" unicode="&#x2228;" horiz-adv-x="630" 
d="M176 504q32 -75 68 -161.5t68 -161.5q13 29 32 73t39 90t38.5 89t31.5 71h144l-237 -504h-96l-231 504h143z" />
    <glyph glyph-name="intersection" unicode="&#x2229;" horiz-adv-x="662" 
d="M333 386q-33 0 -55.5 -11t-37 -27.5t-20.5 -37t-6 -39.5v-272h-138l-1 275q0 50 18.5 93.5t52.5 75.5t81.5 50.5t105.5 18.5q63 0 112.5 -19t83 -53.5t51 -82.5t17.5 -106v-252h-140v269q0 19 -6 40t-20 38.5t-38 28.5t-60 11z" />
    <glyph glyph-name="union" unicode="&#x222a;" horiz-adv-x="662" 
d="M333 116q36 0 60 11.5t38 28.5t20 38t6 41v267h140v-251q0 -58 -17.5 -106t-51 -82.5t-83 -53.5t-112.5 -19q-58 0 -105.5 18.5t-81.5 50.5t-52.5 76t-18.5 94l1 273h138v-270q0 -20 6 -40.5t20.5 -37t37 -27.5t55.5 -11z" />
    <glyph glyph-name="integral" unicode="&#x222b;" horiz-adv-x="333" 
d="M121 13q-1 75 -5 143.5t-9 136t-9 136.5t-4 146q0 81 42 129.5t122 48.5q23 0 44.5 -2t52.5 -10l-14 -96q-15 2 -27.5 3.5t-26.5 1.5q-42 0 -56.5 -19.5t-14.5 -67.5q0 -77 4 -142.5t9.5 -129.5t9.5 -132.5t4 -150.5q0 -40 -12.5 -73t-35 -56t-52.5 -36t-66 -13
q-22 0 -45 3t-54 11l16 96q16 -2 29.5 -3.5t27.5 -1.5q38 0 54 18t16 60z" />
    <glyph glyph-name="approxequal" unicode="&#x2248;" horiz-adv-x="630" 
d="M399 320q-30 0 -60 6.5t-57.5 14t-52 14t-43.5 6.5l-60 -41l-52 39q22 60 53.5 84t69.5 24q25 0 53 -6t55.5 -13.5t54.5 -13.5t50 -6l58 42l51 -38q-38 -112 -120 -112zM399 154q-30 0 -60 6t-57.5 13.5t-52 14t-43.5 6.5l-60 -41l-52 40q22 60 53.5 83t69.5 23
q25 0 53 -6t55.5 -13.5t54.5 -13.5t50 -6l58 43l51 -38q-38 -111 -120 -111z" />
    <glyph glyph-name="notequal" unicode="&#x2260;" horiz-adv-x="630" 
d="M474 437h62v-101h-137l-59 -74h196v-99h-272l-84 -105h-90l84 105h-80v99h156l60 74h-216v101h293l68 83l85 -1z" />
    <glyph glyph-name="lessequal" unicode="&#x2264;" horiz-adv-x="630" 
d="M535 138l-489 190v88l489 177v-127l-329 -93q30 -10 74 -25t90.5 -30.5t90.5 -30.5t74 -24v-125zM45 -1v105h489v-105h-489z" />
    <glyph glyph-name="greaterequal" unicode="&#x2265;" horiz-adv-x="630" 
d="M69 -1v106h491v-106h-491zM69 264l330 109q-30 8 -74 20.5t-91 26t-91 26t-74 20.5v127l489 -177v-88l-489 -189v125z" />
    <glyph glyph-name="lozenge" unicode="&#x25ca;" horiz-adv-x="530" 
d="M293 -18h-89l-174 336l175 338h89l172 -338zM249 502l-91 -183l93 -183l90 182z" />
    <glyph glyph-name="zero.text" unicode="&#xe000;" horiz-adv-x="630" 
d="M605 334q0 -71 -15.5 -133t-49.5 -109t-89.5 -74t-134.5 -27q-83 0 -139 27t-90.5 73.5t-49 108.5t-14.5 133q0 69 15 131.5t49 110t90 75.5t139 28q82 0 137.5 -28.5t89.5 -76t48 -110t14 -129.5zM415 333q0 40 -3.5 78t-14 68t-30 48.5t-51.5 18.5q-33 0 -53 -19
t-31 -49.5t-15 -68.5t-4 -76q0 -46 4.5 -84.5t15.5 -66.5t31 -44t52 -16q30 0 49 16.5t30 45.5t15.5 67t4.5 82z" />
    <glyph glyph-name="one.text" unicode="&#xe001;" horiz-adv-x="555" 
d="M56 118h139v403q-11 -1 -30.5 -3.5t-41 -4.5t-41 -4t-30.5 -3l-18 101l185 63h164v-552h141v-118h-468v118z" />
    <glyph glyph-name="two.text" unicode="&#xe002;" horiz-adv-x="616" 
d="M271 118h33.5t42.5 -0.5t42.5 -0.5h33.5v65h133v-182h-538v106q54 42 110.5 87.5t103 91.5t76 90t29.5 84q0 35 -19.5 55.5t-72.5 20.5q-27 0 -70.5 -11t-94.5 -40q-3 5 -11 21.5t-17 35.5t-16.5 35t-10.5 21q64 42 128.5 61t124.5 19q117 0 183 -55t66 -153
q0 -51 -24.5 -99t-62.5 -92.5t-83 -84t-86 -72.5v-3z" />
    <glyph glyph-name="three.text" unicode="&#xe003;" horiz-adv-x="609" 
d="M522 670l21 -98l-169 -162q85 -13 132.5 -60t47.5 -129q0 -58 -22 -101.5t-60.5 -72.5t-91 -43.5t-113.5 -14.5q-20 0 -49 2t-62.5 8t-67.5 16t-62 26l41 118q57 -18 96.5 -24.5t73.5 -6.5q60 0 92.5 25t32.5 68q0 18 -6 34.5t-21 28.5t-41 19t-66 7q-18 0 -42 -3l-18 86
q8 8 31.5 30.5t50 48t50.5 48t32 30.5h-142v-64h-132v184h464z" />
    <glyph glyph-name="four.text" unicode="&#xe004;" horiz-adv-x="630" 
d="M507 670v-361h98v-119h-98v-72h62v-118h-301v118h56v72h-296v102q8 11 29.5 40t50 67.5t60 81.5t59.5 81t49.5 67.5t29.5 40.5h201zM319 479l-126 -170h132l-1 170h-5z" />
    <glyph glyph-name="five.text" unicode="&#xe005;" horiz-adv-x="630" 
d="M270 318q-42 0 -97 -22l-87 41l29 333h427v-177h-137v57h-144l-10 -117q15 5 32 7.5t38 2.5q57 0 104.5 -14t81.5 -41.5t53 -68t19 -93.5q0 -58 -22 -102t-60.5 -74t-90.5 -45t-113 -15q-19 0 -48.5 2t-63.5 8t-68 16t-62 26l43 124q57 -19 96.5 -26t73.5 -7q55 0 90 23
t35 71t-34 69.5t-85 21.5z" />
    <glyph glyph-name="six.text" unicode="&#xe006;" horiz-adv-x="630" 
d="M232 391q38 20 74.5 28t68.5 8q41 0 78.5 -13t66.5 -39t46.5 -65t17.5 -91q0 -56 -19.5 -99t-54.5 -71.5t-83 -43t-105 -14.5q-76 0 -129 23t-86.5 64t-49 97.5t-15.5 122.5q0 77 16.5 146t54 120.5t98.5 81.5t151 30q52 0 90.5 -7t64.5 -15l-24 -124q-37 10 -67 13
t-50 3q-39 0 -66 -14t-44.5 -35.5t-26.5 -48.5t-12 -53zM325 306q-33 0 -57 -12t-38 -20v-17q0 -24 4 -47.5t14 -42t28 -30.5t46 -12q38 0 60.5 25t22.5 68q0 18 -3.5 34t-12.5 28t-24.5 19t-39.5 7z" />
    <glyph glyph-name="seven.text" unicode="&#xe007;" horiz-adv-x="563" 
d="M42 461v208h476v-111l-258 -558h-180l251 550h-151v-89h-138z" />
    <glyph glyph-name="eight.text" unicode="&#xe008;" horiz-adv-x="630" 
d="M242 492q0 -16 8.5 -27.5t23 -21t34 -18t41.5 -18.5q29 24 39.5 44t10.5 39q0 24 -19 44.5t-63 20.5q-19 0 -33 -6.5t-23.5 -16t-14 -20.5t-4.5 -20zM311 126q22 0 39 7t28 17.5t16.5 23.5t5.5 26q1 30 -25.5 52.5t-95.5 48.5q-34 -26 -45.5 -51.5t-11.5 -50.5
q0 -29 22 -51t67 -22zM565 500q0 -32 -17 -72t-66 -78q48 -25 76 -64.5t28 -96.5q0 -42 -20 -78.5t-56 -62.5t-87 -41t-114 -15q-128 0 -200.5 51t-72.5 141q0 21 5.5 44.5t18.5 48t34 47.5t53 43q-38 25 -57 54t-19 74q0 40 18.5 74.5t51.5 59t78 38.5t99 14
q42 0 85.5 -9.5t79.5 -31.5t59 -56.5t23 -83.5z" />
    <glyph glyph-name="nine.text" unicode="&#xe009;" horiz-adv-x="630" 
d="M391 277q-38 -20 -74.5 -28t-68.5 -8q-41 0 -78.5 13t-66.5 39t-46.5 65t-17.5 91q0 56 20.5 99t56 71.5t84 43t105.5 14.5q76 0 128.5 -23t85.5 -64t47.5 -97.5t14.5 -122.5q0 -77 -16.5 -146t-54 -120.5t-98.5 -81.5t-151 -30q-52 0 -90.5 7t-64.5 15l24 124
q37 -10 67 -13t50 -3q39 0 66 14t44.5 35.5t26.5 48.5t12 53zM298 362q33 0 57 12t38 20v17q0 24 -4 47.5t-14 42t-28 30.5t-46 12q-38 0 -60.5 -25t-22.5 -68q0 -18 3.5 -34t12.5 -28t24.5 -19t39.5 -7z" />
    <glyph glyph-name="numbersign.text" unicode="&#xe00a;" horiz-adv-x="631" 
d="M469 382l-25 -99h86l-1 -84h-103l-47 -200h-98l47 200h-87l-48 -200h-98l48 200h-75l3 84h91l25 99h-84l1 83h103l45 179h96l-43 -179h87l45 179h95l-42 -179h76l-1 -83h-96zM261 283h86l25 99h-87z" />
    <glyph glyph-name="dollar.text" unicode="&#xe00b;" horiz-adv-x="630" 
d="M328 747h46v-71q37 -3 74 -12t67 -25v-163h-99v68q-18 7 -42 12v-155q34 -10 68 -24t61.5 -36t45 -53t17.5 -76q0 -85 -51.5 -136t-140.5 -65v-88h-46v824zM295 -77h-45v86q-44 4 -87.5 14t-84.5 29v169h101v-71q16 -8 33.5 -11.5t37.5 -5.5v160q-36 11 -69 25.5t-58 36
t-40 51t-15 69.5q0 83 48.5 136t133.5 65v71h45v-824zM420 201q0 22 -12 35t-34 22v-118q46 13 46 61zM209 492q0 -21 10.5 -33t30.5 -20v111q-19 -7 -30 -21t-11 -37z" />
    <glyph glyph-name="euro.text" unicode="&#xe00c;" horiz-adv-x="630" 
d="M401 682q49 0 92 -7.5t83 -19.5v-176h-123v59q-23 6 -49 6q-65 0 -98 -34t-43 -95h198v-61h-435v61h51q7 52 26.5 100.5t57.5 85.5t96.5 59t143.5 22zM26 314h435v-57h-195q24 -123 151 -123q10 0 22 1t26 3v57h122v-179q-41 -12 -96 -19.5t-102 -7.5q-80 0 -136.5 21
t-93.5 57.5t-56.5 85.5t-25.5 104h-51v57z" />
    <glyph glyph-name="florin.text" unicode="&#xe00d;" horiz-adv-x="593" 
d="M101 400h92q2 26 5.5 57t11.5 62.5t22.5 61t39 52.5t60.5 37t87 14q41 0 76 -5t67 -15q-8 -30 -15.5 -60t-15.5 -60q-23 5 -36 6.5t-30 1.5q-24 0 -40 -6t-26 -22.5t-16.5 -46t-12.5 -77.5h100v-111h-110q-5 -37 -9 -75t-10 -81q-5 -39 -15 -82.5t-33 -79.5t-65 -60
t-111 -24q-41 0 -76 4.5t-67 15.5q8 30 15.5 60t15.5 59q23 -5 37 -6t29 -1q40 0 60 19.5t29 78.5q5 45 11.5 92t9.5 80h-80v111z" />
    <glyph glyph-name="sterling.text" unicode="&#xe00e;" horiz-adv-x="630" 
d="M128 380l6 81q8 109 66.5 168t173.5 59q65 0 113 -13t83 -27v-170h-126v68q-14 4 -28.5 6.5t-30.5 2.5q-41 0 -59.5 -25t-22.5 -79l-5 -71h133v-85h-140l-3 -42q-3 -42 -13 -77.5t-35 -59.5h324v-116h-514l1 116q39 30 51.5 67t16.5 79l2 33h-58v85h65z" />
    <glyph glyph-name="cent.text" unicode="&#xe00f;" horiz-adv-x="630" 
d="M393 515q33 -2 66 -8.5t62 -17.5v-167h-122v60q-7 2 -16 2h-14q-25 0 -42.5 -9.5t-29 -26t-16.5 -39.5t-5 -49q0 -38 7.5 -62.5t21 -38.5t32 -20t40.5 -6q31 0 68 6t68 16q8 -27 16.5 -57t16.5 -58q-32 -15 -71.5 -24.5t-81.5 -13.5v-87h-116v90q-58 9 -95.5 32t-59 56
t-30 74.5t-8.5 86.5q0 40 8 80.5t30 76t59 61.5t96 37v101h116v-95z" />
    <glyph glyph-name="yen.text" unicode="&#xe010;" horiz-adv-x="630" 
d="M61 314v60h82q-7 14 -18 38t-23.5 50.5t-23.5 50t-18 37.5h-45v120h270v-120h-50q6 -14 17 -40t23 -55t23.5 -55t17.5 -40h3q6 14 17 40.5t22.5 55t22.5 54.5t17 40h-51v120h266v-120h-44q-7 -14 -18.5 -37.5t-24 -50t-24 -50.5t-18.5 -38h86v-60h-509zM570 273v-60h-166
v-95h69v-118h-322v118h70v93l-1 2h-159v60h509z" />
    <glyph glyph-name="slashedzero" unicode="&#xe23f;" horiz-adv-x="630" 
d="M600 333q0 -70 -15 -132t-49 -108.5t-88 -73.5t-133 -27q-81 0 -136 26.5t-88.5 73t-48 108.5t-14.5 133q0 69 14.5 131.5t48 110t88.5 75.5t137 28q81 0 135.5 -28.5t87.5 -76t47 -110t14 -130.5zM221 214q36 75 75.5 158t75.5 158q-24 19 -56 19q-36 0 -58.5 -19.5
t-34.5 -51t-16 -70t-4 -76.5q0 -34 4 -64.5t14 -53.5zM425 333q0 26 -3 55t-14 52q-35 -72 -73 -153.5t-73 -154.5q21 -15 54 -15q32 0 53 16.5t33.5 45.5t17.5 68.5t5 85.5z" />
    <glyph glyph-name="schwacyrillic" unicode="&#x4d9;" horiz-adv-x="572" 
d="M274 114q37 0 52.5 27.5t17.5 65.5h-134q0 -42 13 -67.5t51 -25.5zM275 -10q-72 0 -117.5 22.5t-71.5 58t-35.5 79t-9.5 84.5v34h306q0 54 -25.5 80t-83.5 26q-35 0 -74 -8t-75 -20l-36 109q52 29 111 39.5t110 10.5q80 0 130.5 -21.5t79.5 -56.5t40 -81.5t11 -95.5
q0 -47 -13 -93.5t-43 -83.5t-80 -60t-124 -23z" />
    <glyph glyph-name="onehalf" unicode="&#xbd;" horiz-adv-x="980" 
d="M64 359h86v202q-3 0 -16 -1.5t-27.5 -3t-27.5 -2.5t-16 -2l-15 81l124 41h116v-315h89v-93h-313v93zM385 -19h-106l333 733h107zM912 287q0 -29 -17 -57t-42 -53.5t-54 -47t-53 -36.5h87v30h100v-125h-350v83q27 20 60 44.5t62 50t48.5 50.5t19.5 47q0 34 -46 34
q-19 0 -47 -7t-61 -25l-43 84q45 29 87.5 41t81.5 12q83 0 125 -33t42 -92z" />
    <glyph glyph-name="j" unicode="j" horiz-adv-x="370" 
d="M42 493h244v-409q0 -72 -15 -125.5t-47.5 -91.5t-83.5 -63.5t-122 -40.5l-46 113q42 24 66.5 44t37.5 42t16.5 50.5t3.5 69.5v292h-54v119zM296 653q0 -22 -8.5 -41.5t-23.5 -34.5t-34.5 -23.5t-41.5 -8.5q-23 0 -42.5 8.5t-34 23.5t-23 34.5t-8.5 41.5t8.5 42t23 34.5
t34 23t42.5 8.5q22 0 41.5 -8.5t34.5 -23t23.5 -34.5t8.5 -42z" />
    <glyph glyph-name="Dcroat" unicode="&#x110;" horiz-adv-x="784" 
d="M44 0v122h75v197h-70v78h70v172h-70v122h358q97 0 160.5 -27.5t100.5 -74.5t51.5 -109.5t14.5 -132.5q0 -69 -16.5 -131.5t-55.5 -110.5t-102 -76.5t-156 -28.5h-360zM313 569v-172h94v-78h-94v-197h71q31 0 57.5 13.5t46 41t30.5 69.5t11 98q0 116 -40 170.5t-108 54.5
h-68z" />
    <glyph glyph-name="partialdiff" unicode="&#x2202;" horiz-adv-x="532" 
d="M240 -10q-47 0 -86.5 15t-69 44.5t-46 73.5t-16.5 102q0 54 16.5 97t45.5 73t68 46.5t84 16.5q29 0 60.5 -8.5t60.5 -31.5q-6 53 -22.5 90.5t-42.5 61.5t-60 35.5t-73 11.5q-23 0 -51 -3v99q21 4 40 5t37 1q79 0 136 -28t94 -77.5t55 -117t18 -146.5q0 -90 -18.5 -157.5
t-51.5 -112.5t-78.5 -67.5t-99.5 -22.5zM243 99q30 0 53 17.5t38 45t22.5 62.5t7.5 70q-32 36 -63 48.5t-59 12.5q-23 0 -41 -11.5t-30 -29.5t-18.5 -41t-6.5 -46q0 -69 28.5 -98.5t68.5 -29.5z" />
    <glyph glyph-name="Eth" unicode="&#xd0;" horiz-adv-x="784" 
d="M44 0v122h75v197h-70v78h70v172h-70v122h358q97 0 160.5 -27.5t100.5 -74.5t51.5 -109.5t14.5 -132.5q0 -69 -16.5 -131.5t-55.5 -110.5t-102 -76.5t-156 -28.5h-360zM313 569v-172h94v-78h-94v-197h71q31 0 57.5 13.5t46 41t30.5 69.5t11 98q0 116 -40 170.5t-108 54.5
h-68z" />
    <glyph glyph-name="afii10088" unicode="&#x446;" horiz-adv-x="724" 
d="M544 0h-506v117h59v261h-58v114h246v-375h149v261h-48v114h289v-114h-52v-260l63 -1v-275h-142v158z" />
    </font>
</defs>
</svg>
