<?xml version="1.0" standalone="no"?>
<!DOCTYPE svg PUBLIC "-//W3C//DTD SVG 1.1//EN" "http://www.w3.org/Graphics/SVG/1.1/DTD/svg11.dtd" >
<svg>
<metadata>
Created by FontForge 20110222 at Thu Sep 25 09:16:33 2014
 By deploy user
Copyright (c) 2006 Parachute :, www.parachute.gr.  All rights reserved.
</metadata>
<defs>
<font id="PFAgoraSerifPro-Bold" horiz-adv-x="1818" >
  <font-face 
    font-family="PF Agora Serif Pro"
    font-weight="700"
    font-stretch="normal"
    units-per-em="1000"
    panose-1="2 0 8 0 0 0 0 2 0 4"
    ascent="750"
    descent="-250"
    x-height="490"
    cap-height="688"
    bbox="-439 -342 1760 965"
    underline-thickness="50"
    underline-position="-50"
    unicode-range="U+0020-FB05"
  />
<missing-glyph horiz-adv-x="447" 
d="M0 689h447v-689h-447v689zM323 608h-199l100 -181zM323 83l-99 181l-100 -181h199zM83 180l92 165l-92 166v-331zM364 180v331l-90 -166z" />
    <glyph glyph-name="fj" unicode="fj" horiz-adv-x="630" 
d="M569 497q1 -110 1.5 -219t0.5 -219q0 -72 -18 -124t-49.5 -88t-75 -59t-95.5 -37l-23 60q60 37 90.5 86.5t30.5 120.5v400h-193v-44.5v-60.5t-0.5 -68.5t-0.5 -68v-59.5v-42l78 -25l-2 -50h-288q-2 11 -2 23.5t-2 24.5q20 8 38.5 15.5t37.5 15.5q0 85 0.5 169.5
t0.5 169.5h-76v45q20 8 38 15.5t38 15.5v12q0 48 15 91t45.5 75.5t77.5 51t111 18.5q49 0 84 -8.5t57.5 -22t33.5 -30.5t11 -35q0 -12 -5.5 -25.5t-14 -25t-20 -21t-23.5 -13.5l-179 103q-34 -5 -44 -32t-10 -64v-81h120q54 0 104 5.5t96 9.5q8 -4 12 -5z" />
    <glyph glyph-name="ffj" unicode="ffj" horiz-adv-x="964" 
d="M347 740q54 0 96 -13t64 -33q30 26 74 42t103 16q48 0 82.5 -8.5t57 -22t33 -30.5t10.5 -34q0 -13 -5.5 -26t-14 -25t-20 -21.5t-23.5 -13.5l-179 103q-34 -5 -44 -31.5t-10 -64.5v-91h105q59 0 112 5.5t103 9.5q8 -4 12 -5q1 -110 1.5 -219.5t0.5 -220.5
q0 -71 -17.5 -122t-49 -87t-75.5 -59t-96 -38l-23 60q60 37 90.5 87t30.5 120v400h-194v-343l78 -25l-2 -50h-289q-1 11 -1 23.5t-2 24.5q19 8 38 15.5t38 15.5q0 85 0.5 169.5t0.5 169.5h-194v-44.5v-60.5t-0.5 -68.5t-0.5 -68v-59.5v-42l78 -25l-2 -50h-288q-2 11 -2 23.5
t-2 24.5q20 8 38.5 15.5t37.5 15.5q0 85 0.5 169.5t0.5 169.5h-76v45q20 8 38 15.5t38 15.5v10q0 49 15 92.5t46 75t78 50t110 18.5zM237 487q49 0 97.5 0.5t97.5 0.5v40q0 29 6 58l-144 78q-17 -3 -28 -11.5t-17.5 -21.5t-9 -30t-2.5 -35v-79z" />
    <glyph glyph-name="ff" unicode="ff" horiz-adv-x="754" 
d="M238 418v-44.5v-60.5t-0.5 -68.5t-0.5 -68v-59.5v-42q20 -6 39 -12t39 -13q0 -13 -0.5 -25t-1.5 -25h-288q-2 12 -2 24t-2 24l76 31q0 85 0.5 169.5t0.5 169.5h-76v45q20 8 38 15.5t38 15.5v10q0 49 15 92.5t46 75t78 50t110 18.5q54 0 91.5 -11t60.5 -29q29 26 68 40
t88 14q60 0 96.5 -19t36.5 -54q0 -26 -20 -45.5t-45 -29.5l-52 36t-52 35q-14 -3 -23 -9t-14.5 -17.5t-8 -30t-2.5 -46.5v-87h133v-69h-133v-343q20 -6 39 -12t39 -13q-1 -13 -1.5 -25t-0.5 -25h-289l-3 48q19 8 38 15.5t38 15.5q0 85 0.5 169.5t0.5 169.5h-194zM432 532
q0 14 1 27.5t4 27.5l-72 38t-71 39q-17 -3 -28 -11.5t-17.5 -21.5t-9 -30t-2.5 -35v-79h106q23 0 44.5 0.5t44.5 0.5v44z" />
    <glyph glyph-name="fi" unicode="fi" horiz-adv-x="674" 
d="M292 664q-34 -5 -44 -31.5t-10 -64.5v-81h120q54 0 103.5 5.5t97.5 9.5l12 -5v-422l72 -25l-2 -50h-282l-3 50l76 31v337h-194v-43.5v-60v-67.5v-67.5v-60v-43.5l78 -25l-2 -51h-289l-3 48l75 32l1 338h-76v45l76 31v12q0 50 15.5 93t46 75t77.5 50.5t110 18.5
q47 0 82 -8t58.5 -21.5t35 -31t11.5 -35.5q0 -13 -5.5 -26t-14 -25t-20 -21.5t-23.5 -13.5z" />
    <glyph glyph-name="fl" unicode="fl" horiz-adv-x="674" 
d="M572 77l71 -25l-2 -52h-282l-3 50l76 31v41.5v83.5v106.5v111.5t-0.5 97.5t-0.5 64.5l-139 76q-34 -5 -44 -31.5t-10 -64.5v-79h140v-69h-140v-43.5v-60v-67.5v-67.5v-60v-43.5l78 -25l-2 -51h-289l-3 48l75 32l1 338h-76v45l76 31v9q0 50 15.5 93.5t46 75.5t77.5 50.5
t110 18.5q42 0 75 -7t56 -19l79 13l12 -6z" />
    <glyph glyph-name="ffi" unicode="ffi" horiz-adv-x="1009" 
d="M572 418v-43.5v-60v-67.5v-67.5v-60v-43.5l78 -25l-2 -51h-289l-3 48l76 32v338h-194v-43.5v-60v-67.5v-67.5v-60v-43.5l78 -25l-2 -51h-289l-3 48l75 32l1 338h-76v45l76 31v10q0 50 15.5 93t46 75t77.5 50.5t110 18.5q55 0 97 -13t64 -33q29 26 72 42t101 16
q47 0 82 -8t58.5 -21.5t35 -30.5t11.5 -36q0 -25 -19.5 -50.5t-44.5 -35.5l-178 103q-35 -5 -44.5 -31t-9.5 -64v-92h120q53 0 103.5 5.5t97.5 9.5l12 -5l1 -422l71 -25l-2 -50h-281l-3 50l75 31v337h-194zM238 487l194 1v41q0 30 7 57l-145 78q-34 -5 -45 -32.5t-11 -65.5
v-79z" />
    <glyph glyph-name="ffl" unicode="ffl" horiz-adv-x="1007" 
d="M502 698q29 26 69.5 40t91.5 14q42 0 83 -10t65 -21q4 0 15.5 2t24 4t23.5 3.5t16 2.5q1 -1 5.5 -3t6.5 -2v-79t0.5 -114.5t0.5 -132.5t0.5 -132t0.5 -114.5v-78.5l73 -26l-3 -51h-282l-3 49l76 32v41v86v110.5v114t-0.5 97t-0.5 58.5q-9 4 -28.5 16.5t-41 26t-41 26
t-28.5 16.5q-26 0 -40 -25t-14 -57v-104h138v-69h-137v-67.5t-0.5 -103.5t-0.5 -103.5v-67.5l78 -25l-2 -51h-288l-3 48q5 2 15.5 6.5t22 9.5t22.5 9.5t16 6.5v338h-194v-44.5v-60.5v-68.5v-68v-59v-41.5q5 -2 16 -5.5t23 -7.5t23 -7.5t16 -4.5l-2 -51h-289l-3 48
q5 2 15.5 6.5t22.5 9.5t22 9.5t15 6.5l1 338h-76v45q5 1 15.5 5.5t22.5 10t22.5 9.5t15.5 6v10q0 50 15.5 93t46 75t77.5 50.5t110 18.5q56 0 94 -12.5t61 -30.5zM238 487h126l68 1v41q0 30 7 57q-9 5 -29.5 16t-43 23.5t-43 23t-29.5 15.5q-34 -5 -45 -32.5t-11 -65.5v-79z
" />
    <glyph glyph-name="ft" unicode="ft" horiz-adv-x="755" 
d="M576 157q0 -35 16 -51t55 -16q18 0 38 2.5t52 7.5q4 -20 8 -39t9 -39q-79 -34 -160 -34q-78 0 -118.5 31t-40.5 100v299h-197v-44.5v-60.5t-0.5 -68.5t-0.5 -68v-59.5v-42l78 -25l-2 -50h-288q-2 11 -2 23.5t-2 24.5q20 8 38.5 15.5t37.5 15.5q0 85 0.5 169.5t0.5 169.5
h-76v45q20 8 38 15.5t38 15.5v31q0 50 15 91t44 70.5t70 45.5t94 16q58 0 96 -18.5t38 -55.5q0 -25 -20.5 -45t-45.5 -29l-104 70q-13 -3 -22 -8.5t-15 -16.5t-8.5 -30t-2.5 -47v-81h203l48 118l75 27l12 -8v-137h142v-69h-141v-261z" />
    <glyph glyph-name=".notdef" horiz-adv-x="447" 
d="M0 689h447v-689h-447v689zM323 608h-199l100 -181zM323 83l-99 181l-100 -181h199zM83 180l92 165l-92 166v-331zM364 180v331l-90 -166z" />
    <glyph glyph-name="exclam" unicode="!" horiz-adv-x="332" 
d="M140 206l-53 422q-2 13 2 27.5t13.5 26.5t25 19.5t38.5 7.5q24 0 40 -7.5t25.5 -19.5t13 -27t1.5 -30l-51 -419h-55zM252 72q0 -35 -24 -60.5t-62 -25.5q-44 0 -65 25.5t-21 60.5t25 59t61 24q38 0 62 -24t24 -59z" />
    <glyph glyph-name="quotedbl" unicode="&#x22;" horiz-adv-x="340" 
d="M69 413l-38 216q-2 9 0.5 19t9.5 18.5t19 14.5t30 6t30.5 -5.5t19.5 -14.5t9.5 -19.5t1.5 -20.5l-39 -214h-43zM227 413l-38 216q-2 9 0.5 19t9.5 18.5t19 14.5t30 6t30.5 -5.5t19.5 -14.5t9.5 -19.5t1.5 -20.5l-39 -214h-43z" />
    <glyph glyph-name="numbersign" unicode="#" horiz-adv-x="588" 
d="M64 257h87l28 134h-88l15 71h88l39 179h72l-38 -179h125l38 179h73l-38 -179h77l-15 -71h-77l-29 -134h79l-15 -70h-78l-40 -187h-73l40 187h-126l-40 -187h-73l40 187h-86zM224 257h125l28 134h-126z" />
    <glyph glyph-name="dollar" unicode="$" horiz-adv-x="606" 
d="M326 761h50v-87q76 -10 138 -46l-4 -149l-56 -6l-29 80q-12 6 -24.5 10t-24.5 8v-167q42 -18 75.5 -38.5t56.5 -44.5t35 -53t12 -66q0 -34 -10 -65t-32 -56t-55.5 -43.5t-81.5 -26.5v-112h-50v862zM288 -101h-49v110q-42 5 -84 20t-84 42l-1 159l56 7l31 -94
q14 -8 35 -16t47 -13v213q-35 16 -66 32t-54 36t-36.5 46.5t-13.5 62.5q0 69 44.5 113.5t125.5 56.5v87h49v-862zM422 187q0 24 -10.5 41t-35.5 34v-142q22 8 34 27.5t12 39.5zM203 514q0 -31 36 -49v105q-18 -7 -27 -22t-9 -34z" />
    <glyph glyph-name="quotesingle" unicode="'" horiz-adv-x="222" 
d="M89 413l-38 216q-2 9 0.5 19t9.5 18.5t19 14.5t30 6t30.5 -5.5t19.5 -14.5t9.5 -19.5t1.5 -20.5l-39 -214h-43z" />
    <glyph glyph-name="parenleft" unicode="(" horiz-adv-x="366" 
d="M195 260q0 -127 36.5 -238.5t114.5 -205.5l-27 -29q-57 43 -105 94.5t-82 111t-53 126t-19 138.5q0 141 66 261t194 208l25 -28q-45 -51 -74 -105t-46 -109t-23.5 -111.5t-6.5 -112.5z" />
    <glyph glyph-name="parenright" unicode=")" horiz-adv-x="366" 
d="M171 260q0 56 -6.5 112.5t-23.5 111.5t-46 109t-73 105l25 28q128 -88 193.5 -208t65.5 -261q0 -72 -19 -138.5t-53 -126t-82 -111t-105 -94.5l-27 29q78 94 114.5 205.5t36.5 238.5z" />
    <glyph glyph-name="asterisk" unicode="*" horiz-adv-x="479" 
d="M217 541l-42 142q33 11 66 11t63 -11l-40 -142l127 83q38 -53 38 -123l-150 -11l120 -90q-20 -27 -46.5 -46t-57.5 -30l-55 140l-57 -140q-29 11 -56.5 30.5t-46.5 45.5l119 91l-149 10q0 32 9.5 63.5t30.5 59.5z" />
    <glyph glyph-name="plus" unicode="+" horiz-adv-x="606" 
d="M352 329h180v-93h-180v-181h-98v181h-181v93h181v181h98v-181z" />
    <glyph glyph-name="comma" unicode="," horiz-adv-x="294" 
d="M61 72q0 32 24 56.5t63 24.5q23 0 39.5 -8.5t27.5 -22.5t16 -31.5t5 -36.5q0 -31 -11.5 -63t-32 -61t-48 -54.5t-60.5 -43.5l-28 36q32 33 48 64.5t20 63.5q-31 5 -47 26t-16 50z" />
    <glyph glyph-name="hyphen" unicode="-" horiz-adv-x="395" 
d="M350 304v-91h-304v91h304z" />
    <glyph glyph-name="period" unicode="." horiz-adv-x="288" 
d="M230 72q0 -35 -24 -60.5t-63 -25.5q-43 0 -64 25.5t-21 60.5t24.5 59t60.5 24q39 0 63 -24t24 -59z" />
    <glyph glyph-name="slash" unicode="/" horiz-adv-x="354" 
d="M84 -42h-83l270 763h82z" />
    <glyph glyph-name="zero" unicode="0" horiz-adv-x="606" 
d="M575 347q0 -70 -12 -135t-42.5 -115.5t-83 -81t-134.5 -30.5q-81 0 -134 30.5t-83.5 81t-43 116t-12.5 134.5q0 67 12 131.5t43 114.5t84 80.5t134 30.5q82 0 134.5 -30.5t83 -80.5t42.5 -114.5t12 -131.5zM299 611q-38 0 -61 -21t-36 -55t-17 -76.5t-4 -85.5
q0 -53 3 -105t15.5 -93t37 -66.5t68.5 -25.5q37 0 60.5 20t37 53.5t18 76.5t4.5 89q0 54 -3.5 106t-16.5 92.5t-38 65.5t-68 25z" />
    <glyph glyph-name="one" unicode="1" horiz-adv-x="606" 
d="M500 0q-42 1 -88 2t-103 1q-55 0 -107.5 -1t-96.5 -2l-2 60l129 33v486l-126 16v60l250 47l24 -25v-588l122 -26z" />
    <glyph glyph-name="two" unicode="2" horiz-adv-x="606" 
d="M290 704q111 0 172.5 -53t61.5 -155q0 -55 -23 -109t-64 -104.5t-97 -96t-122 -82.5v-4l243 9l63 109l45 -9l-27 -200l-11 -10q-37 0 -98 1.5t-141 1.5h-32.5h-40.5t-63.5 -0.5t-100.5 -1.5l-17 68q67 47 127 95.5t105.5 98t72 101t26.5 105.5q0 60 -28.5 89t-95.5 29
q-42 0 -86 -12.5t-82 -32.5l-39 74q52 38 114 63.5t138 25.5z" />
    <glyph glyph-name="three" unicode="3" horiz-adv-x="606" 
d="M535 603q-54 -44 -108 -86t-108 -86q0 -2 1 -3q54 -2 97 -18t73 -44t45.5 -66t15.5 -82q0 -59 -21 -103.5t-57.5 -73.5t-86 -43.5t-107.5 -14.5q-70 0 -125 12t-103 34q8 21 15 42.5t14 42.5q53 -17 97 -23t74 -6q77 0 113 36.5t36 99.5q0 30 -11 51t-30.5 35t-46 20.5
t-56.5 6.5t-60 -6q-7 15 -13 30t-13 29q48 48 96.5 95.5t97.5 95.5q-1 1 -1 3l-189 -7l-52 -88q-13 2 -25 5t-25 6l33 193q78 -2 144.5 -2.5t129.5 -0.5h67t63 1l26 -85v0z" />
    <glyph glyph-name="four" unicode="4" horiz-adv-x="606" 
d="M470 79q4 -1 14.5 -5t22 -8.5t22 -8t14.5 -4.5l-2 -53h-288l-4 50l79 33v109h-303l-25 42l370 457l78 22l20 -12l1 -428h116v-81h-114zM328 271v262l-4 1q-7 -10 -22.5 -30.5t-35 -46.5t-41.5 -54.5t-41.5 -54.5t-34.5 -46.5t-22 -30.5h201z" />
    <glyph glyph-name="five" unicode="5" horiz-adv-x="606" 
d="M186 421q15 5 33 8t35 5t32 3t24 1q55 0 100.5 -14t77.5 -41.5t50 -67t18 -90.5q0 -61 -20.5 -106.5t-57 -76t-86.5 -45.5t-108 -15q-71 0 -126.5 12.5t-103.5 34.5l32 86q52 -17 96 -22.5t74 -5.5q148 0 148 139q0 31 -11 53t-29.5 36t-43.5 20.5t-52 6.5
q-26 0 -57 -4.5t-56 -12.5l-62 35l66 297l10 8q70 2 145 2t146 1l38 65l45 -9l-20 -160l-9 -9q-73 2 -142.5 4t-141.5 4z" />
    <glyph glyph-name="six" unicode="6" horiz-adv-x="606" 
d="M290 444q15 3 29.5 4t29.5 1q46 0 85.5 -14t68 -41t45 -67.5t16.5 -93.5q0 -48 -16 -92.5t-48.5 -79.5t-81 -56t-113.5 -21q-71 0 -121 21.5t-82 59t-47 88t-15 109.5q0 99 35.5 174.5t92.5 131.5t127 94t139 62l33 -75q-99 -51 -154 -103.5t-82 -103.5t-33 -98.5
t-6 -87.5q0 -86 26.5 -133t86.5 -47q30 0 51.5 12t35 33t19.5 49t6 60q0 43 -8 71.5t-23.5 46.5t-40 27t-57.5 14z" />
    <glyph glyph-name="seven" unicode="7" horiz-adv-x="606" 
d="M102 -1l339 572q0 1 -1 2l-2 2l-279 -8l-59 -101l-46 11l29 204l10 8q64 -1 115 -1.5t99 -0.5h105t117 2l36 -49l-320 -650l-130 -10z" />
    <glyph glyph-name="eight" unicode="8" horiz-adv-x="606" 
d="M224 525q0 -23 10 -41t26.5 -33t38.5 -27.5t47 -24.5q32 31 44.5 63t12.5 58q0 37 -22.5 64.5t-70.5 27.5q-43 0 -64.5 -26.5t-21.5 -60.5zM307 83q47 0 77.5 29.5t30.5 78.5q0 23 -11.5 42t-32 35.5t-48 30.5t-59.5 28q-39 -34 -53 -71t-14 -68q0 -53 30.5 -79t79.5 -26
zM540 523q0 -18 -4.5 -39t-16 -43.5t-31 -44.5t-50.5 -42q54 -28 86 -68t32 -102q0 -43 -18 -79.5t-51 -63.5t-79.5 -42t-103.5 -15q-119 0 -186 52t-67 143q0 23 6.5 49.5t21.5 53t39 50.5t59 42q-41 26 -67.5 61t-26.5 83q0 42 17 76.5t48 59t72.5 38.5t91.5 14
q38 0 78.5 -9.5t73.5 -31t54.5 -56.5t21.5 -86z" />
    <glyph glyph-name="nine" unicode="9" horiz-adv-x="606" 
d="M319 244q-15 -3 -29.5 -4t-29.5 -1q-46 0 -85.5 14t-68.5 41t-45.5 67.5t-16.5 93.5q0 45 16.5 89.5t49 80t81 58t113.5 22.5q71 0 121.5 -22t82 -60.5t46 -89t14.5 -107.5q0 -99 -35.5 -174.5t-92 -131.5t-126.5 -94t-139 -62l-33 74q98 51 153.5 104t82.5 104t33 98.5
t6 87.5q0 86 -27 133t-87 47q-30 0 -51.5 -12.5t-34.5 -33.5t-19 -49t-6 -59q0 -43 8 -71.5t23.5 -46.5t40 -27t57.5 -13z" />
    <glyph glyph-name="colon" unicode=":" horiz-adv-x="288" 
d="M230 72q0 -35 -24 -60.5t-63 -25.5q-43 0 -64 25.5t-21 60.5t24.5 59t60.5 24q39 0 63 -24t24 -59zM230 355q0 -35 -24 -60t-63 -25q-43 0 -64 25t-21 60t24.5 59.5t60.5 24.5q39 0 63 -24.5t24 -59.5z" />
    <glyph glyph-name="semicolon" unicode=";" horiz-adv-x="288" 
d="M230 355q0 -35 -24 -60t-63 -25q-43 0 -64 25t-21 60t24.5 59.5t60.5 24.5q39 0 63 -24.5t24 -59.5zM57 72q0 32 24 56.5t63 24.5q23 0 39.5 -8.5t27.5 -22.5t16 -31.5t5 -36.5q0 -31 -11.5 -63t-32 -61t-48 -54.5t-60.5 -43.5l-28 36q32 33 48 64.5t20 63.5
q-31 5 -47 26t-16 50z" />
    <glyph glyph-name="less" unicode="&#x3c;" horiz-adv-x="606" 
d="M202 276q26 -10 69.5 -28t90 -38.5t90 -38.5t69.5 -28v-97l-437 188v84l437 196v-98z" />
    <glyph glyph-name="equal" unicode="=" horiz-adv-x="606" 
d="M523 319h-441v94h441v-94zM523 147h-441v93h441v-93z" />
    <glyph glyph-name="greater" unicode="&#x3e;" horiz-adv-x="606" 
d="M84 143l319 133q-27 10 -70 29.5t-89.5 40.5t-90 40t-69.5 30v98l437 -196v-84l-437 -188v97z" />
    <glyph glyph-name="question" unicode="?" horiz-adv-x="484" 
d="M269 200q-30 8 -54.5 24t-42 36t-27 42.5t-9.5 43.5q0 22 12 41.5t30.5 37t39.5 34t39.5 33.5t30.5 35.5t12 39.5q0 26 -13.5 48.5t-48.5 36.5l-122 -100q-24 8 -45 29t-21 54q0 21 17.5 35.5t45 24t61 14t65.5 4.5q58 0 99 -10t67.5 -28.5t38.5 -43.5t12 -55
q0 -32 -14.5 -57t-36.5 -46t-48 -40t-48 -38.5t-36.5 -41.5t-14.5 -48q0 -15 10 -32.5t27 -30.5zM320 72q0 -35 -23.5 -60.5t-62.5 -25.5q-44 0 -65 25.5t-21 60.5t25 59t61 24q39 0 62.5 -24t23.5 -59z" />
    <glyph glyph-name="at" unicode="@" horiz-adv-x="1105" 
d="M725 226q0 -22 15 -40.5t55 -18.5q24 0 46.5 11t39.5 32t27 52t10 72q0 73 -24 132.5t-68.5 102t-107.5 66t-141 23.5q-84 0 -155.5 -27.5t-124 -75.5t-82 -113t-29.5 -140q0 -78 27 -144t75.5 -114t115.5 -75t146 -27q29 0 72 6t91 24l29 -83q-54 -24 -103 -31.5
t-91 -7.5q-98 0 -181.5 34.5t-145 95t-96.5 142.5t-35 178q0 95 36.5 176.5t101.5 141.5t154.5 94.5t194.5 34.5q100 0 181 -28t138 -80.5t88 -126.5t31 -166q0 -64 -18.5 -113.5t-50.5 -84t-76.5 -52.5t-95.5 -18q-24 0 -47.5 4t-43.5 14t-36 25.5t-25 38.5l-73 -61
q-17 -5 -35 -8t-33 -3q-35 0 -58.5 12.5t-38 31t-20.5 41t-6 43.5q0 9 1.5 21t6 24.5t13.5 24t23 20.5q7 4 20 10t36 12t58.5 11.5t88.5 7.5v29q0 34 -15.5 46.5t-53.5 12.5q-23 0 -59 -5.5t-67 -14.5l-21 75q38 20 86.5 32.5t97.5 12.5q72 0 112 -32t40 -109v-168zM528 183
q16 0 37 7t40 21v81q-42 -4 -65.5 -11.5t-35 -17t-14.5 -19t-3 -16.5q0 -20 9.5 -32.5t31.5 -12.5z" />
    <glyph glyph-name="A" unicode="A" horiz-adv-x="745" 
d="M455 214h-223l-44 -132l87 -19l-2 -63h-263l-4 61l82 23l181 468q13 32 24.5 65t21.5 67l116 23l7 -3l245 -621l57 -19l-6 -64h-305l-5 61l76 24zM295 404l-38 -113h172l-38 116l-46 136h-4z" />
    <glyph glyph-name="B" unicode="B" horiz-adv-x="704" 
d="M44 629l7 60q42 -2 75 -2h67q48 0 106.5 1.5t103.5 1.5q66 0 107 -17t63.5 -41t30.5 -51t8 -47q0 -29 -11.5 -53.5t-29 -42.5t-37.5 -29.5t-36 -15.5v-4q33 -8 61.5 -24t49.5 -39t33 -54t12 -69q0 -46 -17.5 -83.5t-47.5 -64t-70 -41t-86 -14.5q-49 0 -103 1.5t-109 1.5
q-45 0 -87.5 -0.5t-93.5 -2.5l-5 58l89 27v520zM340 410q39 2 63.5 13.5t37.5 26.5t17.5 30.5t4.5 25.5q0 48 -34.5 69.5t-87.5 21.5q-10 0 -31 -1t-35 -3v-490q16 -5 38 -8t37 -3q75 0 113.5 35t38.5 87q0 26 -7.5 49t-26.5 40t-50 27.5t-78 12.5l-7 59z" />
    <glyph glyph-name="C" unicode="C" horiz-adv-x="648" 
d="M60 337q0 67 17.5 133t55 118t97.5 84t145 32q39 0 77.5 -7t83.5 -31l23 38h51l1 -224l-50 -7l-45 97q-29 20 -60 26t-63 6q-47 0 -80 -20t-53.5 -55t-30 -81.5t-9.5 -99.5q0 -51 7.5 -96t28.5 -79.5t59 -54.5t98 -20q32 0 81.5 5t104.5 22l23 -86q-26 -14 -58 -24
t-64 -16t-62.5 -9t-54.5 -3q-160 0 -241.5 85.5t-81.5 266.5z" />
    <glyph glyph-name="D" unicode="D" horiz-adv-x="764" 
d="M223 3h-47t-41.5 -0.5t-43 -1t-50.5 -1.5l-6 57l89 27v520l-80 24l7 61q26 -1 44.5 -1.5t35 -1t32.5 -0.5h36q28 0 50.5 0.5t41 1.5t36 1.5t35.5 0.5q97 0 163 -30t105.5 -78.5t56.5 -109.5t17 -123q0 -31 -5 -68.5t-17.5 -76t-35.5 -75.5t-59 -65.5t-87 -46t-120 -17.5
q-6 0 -28.5 0.5t-48 1t-48.5 1t-32 0.5zM275 98q17 -4 38.5 -5.5t39.5 -1.5q54 0 91.5 21.5t60 58t32.5 84t10 98.5q0 73 -18 120t-48 74t-69.5 37.5t-83.5 10.5q-14 0 -28 -0.5t-25 -1.5v-495z" />
    <glyph glyph-name="E" unicode="E" horiz-adv-x="656" 
d="M621 202l-26 -192l-11 -10q-36 0 -68 0.5l-64 1t-66.5 1t-75.5 0.5h-60t-70.5 -0.5t-72.5 -1t-65 -1.5l-7 57l91 27v520l-81 24l7 61q25 -1 61 -1.5t73 -1t69.5 -0.5h52.5q34 0 65 0.5t61.5 1t61.5 1t66 1.5l11 -6l2 -191l-49 -10l-48 113h-41.5t-58 -0.5t-58.5 -0.5h-43
v-200l221 8v-94l-221 8v-223h49.5t65.5 0.5t65.5 1t49.5 0.5l68 117z" />
    <glyph glyph-name="F" unicode="F" horiz-adv-x="606" 
d="M45 628l6 61q25 -1 61 -1.5t73 -1t69.5 -0.5h52.5q69 0 130 1t131 3l11 -6l2 -191l-50 -10l-47 113h-42.5t-60.5 -0.5t-61 -0.5h-44v-213l221 8v-93l-222 8v-220l101 -23l-3 -62h-333l-5 57l89 27v520z" />
    <glyph glyph-name="G" unicode="G" horiz-adv-x="752" 
d="M584 467l-42 104q-29 17 -62 24.5t-68 7.5q-51 0 -88 -19.5t-60 -54.5t-34 -82.5t-11 -103.5q0 -121 42.5 -185t145.5 -64q8 0 20.5 0.5t27.5 2.5t30.5 5t30.5 8v162l-89 28l4 58h286l3 -66l-69 -17v-279l-47 -13l-44 38q-39 -17 -88 -27t-91 -10q-86 0 -147 25.5
t-100 72t-57 111t-18 142.5q0 69 19 135.5t59.5 118t102.5 83.5t148 32q39 0 82.5 -7t91.5 -31l22 38h52l2 -229z" />
    <glyph glyph-name="H" unicode="H" horiz-adv-x="851" 
d="M46 688h327l4 -62l-93 -23v-203h279v202l-85 27l4 59h325l4 -62l-96 -23v-516l96 -23l-3 -64h-328l-6 58l89 28v233h-279v-232l93 -23l-4 -64h-329l-4 57l92 29v516l-90 28z" />
    <glyph glyph-name="I" unicode="I" horiz-adv-x="463" 
d="M400 0h-336l-4 57l93 28v518l-92 28l4 57h335l3 -61l-98 -23v-519l98 -23z" />
    <glyph glyph-name="J" unicode="J" horiz-adv-x="439" 
d="M306 106q0 -82 -22.5 -139.5t-61.5 -96t-91.5 -61.5t-112.5 -35l-23 78q85 36 122.5 93t37.5 135v523l-99 29l4 56h341l2 -61l-97 -23v-498v0z" />
    <glyph glyph-name="K" unicode="K" horiz-adv-x="777" 
d="M375 0h-336l-4 57l93 28v518l-92 28l4 57h335l3 -61l-98 -23v-519l98 -23zM745 44l-14 -45l-127 -28l-302 365v21l207 248l-77 24l4 59h264v-62q-29 -14 -53 -28t-45 -30t-40.5 -33.5t-38.5 -37.5l-102 -109z" />
    <glyph glyph-name="L" unicode="L" horiz-adv-x="648" 
d="M638 214l-26 -204l-11 -10q-36 0 -69.5 0.5t-68 1t-71 1t-77.5 0.5h-60.5t-71.5 -0.5t-73.5 -1t-65.5 -1.5l-5 56l89 29v518l-93 28l5 57h335l2 -61l-98 -23v-510h51.5t70.5 0.5t70.5 1t51.5 0.5l74 128z" />
    <glyph glyph-name="M" unicode="M" horiz-adv-x="1071" 
d="M250 518l-4 -1l-17 -433l101 -21l-5 -63h-288l-4 61l102 26l38 516l-99 29l6 58q37 0 69.5 -0.5t64 -0.5t64 0.5t69.5 0.5q5 -17 8.5 -30.5t9.5 -27.5l97 -222l77 -183h7l87 204l115 259q21 -1 51.5 -1h64t68 0.5t64.5 0.5l3 -62l-100 -24l39 -518l98 -23l-4 -63h-339
l-4 57l91 30l-19 426h-5l-211 -483h-76z" />
    <glyph glyph-name="N" unicode="N" horiz-adv-x="855" 
d="M633 237l-9 367l-96 26l4 58h288l4 -62l-103 -24q-1 -17 -1.5 -63t-2 -107.5t-2.5 -130t-2 -129.5t-2 -107.5t-1 -63.5l-77 -16l-259 337l-144 190l-4 -1l6 -427l99 -21l-4 -63h-291l-4 59l103 28l13 514l-103 29l7 58q88 -2 151.5 -0.5t92.5 2.5q9 -20 19 -36t19 -28
l172 -227l123 -163z" />
    <glyph glyph-name="O" unicode="O" horiz-adv-x="763" 
d="M703 352q0 -71 -17 -137t-55.5 -117t-100 -82t-150.5 -31q-164 0 -242 91.5t-78 258.5q0 70 17 136.5t55.5 118t101 83t154.5 31.5q78 0 137 -25t98.5 -71t59.5 -111t20 -145zM382 609q-51 0 -83 -24t-49.5 -61.5t-24 -83.5t-6.5 -89q0 -60 8 -109t26.5 -84t50 -54
t78.5 -19q49 0 80.5 22.5t50.5 59t26.5 82t7.5 91.5q0 51 -8 99.5t-27 86t-50.5 60.5t-79.5 23z" />
    <glyph glyph-name="Q" unicode="Q" horiz-adv-x="763" 
d="M703 352q0 -59 -12 -115.5t-38.5 -104t-68 -82.5t-101.5 -51q32 -30 58.5 -51.5t50.5 -36.5t47 -25t49 -17l-5 -54q-20 -3 -38.5 -5t-37.5 -2q-37 0 -69.5 7.5t-66.5 27.5t-73 55.5t-89 91.5q-128 20 -188.5 109.5t-60.5 235.5q0 70 17 136.5t55.5 118t101 83t154.5 31.5
q78 0 137 -25.5t98.5 -71.5t59.5 -111t20 -144zM382 609q-51 0 -83 -24t-49.5 -61.5t-24 -83.5t-6.5 -89q0 -53 8 -101t26.5 -85t50 -58.5t78.5 -21.5q49 0 80.5 22.5t50.5 59t26.5 82t7.5 91.5q0 47 -8 95t-27 86.5t-50.5 63t-79.5 24.5z" />
    <glyph glyph-name="S" unicode="S" horiz-adv-x="620" 
d="M303 704q13 0 32.5 -1.5t41 -5t45 -9.5t45.5 -15l19 31h43l2 -226l-51 -7l-40 106q-26 14 -61 21.5t-67 7.5q-42 0 -68 -16t-26 -51q0 -17 14.5 -33t39.5 -31.5t59 -32t72 -34.5q36 -16 67 -34.5t54.5 -42.5t36.5 -55t13 -73q0 -41 -14.5 -80.5t-47 -70.5t-85.5 -50
t-130 -19q-18 0 -41.5 2t-47.5 5.5t-47.5 9t-41.5 13.5l-21 -29h-47l-3 254l50 7l40 -117q16 -12 36 -20t41 -13.5t41 -8t36 -2.5q35 0 58.5 7.5t37.5 19.5t20 27.5t6 32.5q0 43 -42.5 72.5t-109.5 58.5q-44 19 -81 39.5t-64.5 45t-43 54.5t-15.5 69q0 37 14 72t43.5 62
t76 43.5t111.5 16.5z" />
    <glyph glyph-name="T" unicode="T" horiz-adv-x="665" 
d="M332 686q72 0 153.5 1t153.5 3l14 -8l2 -207l-50 -7l-56 141h-141v-523l99 -25l-3 -61h-337l-5 55l94 30v524h-140l-56 -141l-50 7l1 207l16 8q71 -2 150.5 -3t154.5 -1z" />
    <glyph glyph-name="U" unicode="U" horiz-adv-x="811" 
d="M585 602l-87 28l5 58h279l4 -62l-95 -23l-2 -370q-1 -77 -28 -125.5t-69.5 -76t-94.5 -37.5t-101 -10q-43 0 -91.5 10t-89.5 36t-68 71.5t-27 116.5v383l-90 28l5 57h326l3 -61l-93 -23v-343q0 -35 5.5 -66t22.5 -54.5t48 -37.5t82 -14q46 0 76.5 14.5t48 40t24.5 60.5
t7 75v325z" />
    <glyph glyph-name="V" unicode="V" horiz-adv-x="754" 
d="M13 687l222 2q3 -54 21 -104l85 -228l74 -203h4l75 208l81 234l-106 32l5 59l272 1l3 -61q-43 -21 -70 -62.5t-51 -99.5l-190 -466l-109 -17l-256 623l-68 22z" />
    <glyph glyph-name="W" unicode="W" horiz-adv-x="1090" 
d="M554 377l-72 -198l-66 -180l-108 -17l-237 623l-65 22l8 60l218 2q2 -28 8.5 -56.5t14.5 -53.5l62 -192l76 -233h4l73 222l38 115l-44 114l-67 22l8 60l224 2q2 -28 8 -56.5t15 -53.5l71 -210l66 -207h4l60 205l62 229l-106 32l4 59l269 1l5 -61q-26 -14 -45 -34
t-32.5 -42.5t-23.5 -47t-17 -46.5l-149 -458l-109 -17l-77 200l-74 195h-6z" />
    <glyph glyph-name="X" unicode="X" horiz-adv-x="712" 
d="M104 602l-75 25l7 59h51h61h60h50q3 -32 17 -64.5t28 -52.5l79 -117l100 153l-80 24l5 59h60.5h75.5h75h60l3 -62q-32 -12 -55.5 -26.5t-43 -31.5t-36 -36.5t-34.5 -41.5l-82 -107l190 -288l82 -29l-6 -66h-308l-5 63l57 18l-109 172l-106 -172l70 -21l-5 -59h-62h-77
t-76.5 -0.5t-60.5 -0.5l-4 62q33 9 58 21t45.5 27.5t38 34.5t35.5 43l97 135z" />
    <glyph glyph-name="Y" unicode="Y" horiz-adv-x="677" 
d="M377 384l109 218l-87 25l4 60l266 1l3 -62q-29 -12 -50.5 -26.5t-39 -31.5t-33 -38t-31.5 -48l-104 -175v-221l98 -23l-3 -63h-338l-4 57l93 29v204l-170 311l-85 27l6 59l230 2q2 -28 9 -52t19 -48l103 -205h5z" />
    <glyph glyph-name="Z" unicode="Z" horiz-adv-x="667" 
d="M602 0q-60 0 -132 0.5t-146 0.5t-146 -0.5t-133 -0.5l-15 52q16 21 46 63.5t67.5 96t78.5 112.5t78.5 112.5t66.5 96t44 63.5l-224 -2l-63 -126l-46 10l18 206l9 6q55 -1 120.5 -1.5t132.5 -0.5t132.5 0.5t120.5 0.5l14 -52q-15 -19 -45 -61t-68 -95.5t-79.5 -113
t-79.5 -113.5t-68 -97t-45 -64l283 4l73 131l45 -9l-29 -211z" />
    <glyph glyph-name="bracketleft" unicode="[" horiz-adv-x="337" 
d="M70 699h227v-52h-98v-776h98v-52h-227v880z" />
    <glyph glyph-name="backslash" unicode="\" horiz-adv-x="354" 
d="M2 721h82l270 -763h-83z" />
    <glyph glyph-name="bracketright" unicode="]" horiz-adv-x="337" 
d="M267 -181h-227v64h98v751h-98v65h227v-880z" />
    <glyph glyph-name="asciicircum" unicode="^" horiz-adv-x="560" 
d="M275 591l-136 -276h-96l190 373h85l199 -373h-97z" />
    <glyph glyph-name="underscore" unicode="_" horiz-adv-x="500" 
d="M0 -159v81h500v-81h-500z" />
    <glyph glyph-name="grave" unicode="`" horiz-adv-x="514" 
d="M350 575l-62 -48l-166 168l98 76z" />
    <glyph glyph-name="b" unicode="b" horiz-adv-x="596" 
d="M73 624l-69 20v53l195 28l12 -9v-28v-50t-0.5 -62t-0.5 -62.5v-52.5v-32l3 -1l67 62q21 6 42.5 8.5t35.5 2.5q58 0 96.5 -22.5t61 -58t31.5 -80t9 -89.5q0 -51 -11 -99t-36.5 -85t-68 -59t-105.5 -22q-35 0 -73.5 11.5t-77.5 37.5l-43 -52l-68 17v624zM407 239
q0 29 -4.5 57t-16 49.5t-31 34.5t-49.5 13q-23 0 -49 -9t-44 -19v-263q17 -8 38.5 -11.5t40.5 -3.5q55 0 85 39.5t30 112.5z" />
    <glyph glyph-name="c" unicode="c" horiz-adv-x="496" 
d="M40 236q0 64 19.5 113.5t53 82.5t80.5 50t103 17q34 0 65 -6.5t54.5 -19t37 -30.5t13.5 -41q0 -26 -18.5 -47.5t-44.5 -31.5l-112 89q-27 -4 -46 -18t-31 -35.5t-17.5 -49t-5.5 -57.5q0 -38 5.5 -67t20.5 -49t42 -30.5t69 -10.5q20 0 52 5t63 13l22 -79
q-19 -12 -42.5 -21t-48.5 -15t-49 -9t-43 -3q-129 0 -185.5 64t-56.5 186z" />
    <glyph glyph-name="d" unicode="d" horiz-adv-x="592" 
d="M515 716v-629l72 -20v-52l-170 -28l-13 5l-17 76l-3 1l-76 -71q-45 -12 -80 -12q-56 0 -93 20t-59 53.5t-31.5 78t-9.5 93.5q0 57 12 106.5t38.5 86t68.5 57t102 20.5q29 0 58.5 -5t62.5 -19v147l-69 20v53l195 28zM184 248q0 -30 5 -57.5t17 -48.5t31.5 -33.5
t48.5 -12.5q24 0 49 8.5t43 19.5v263q-17 8 -38 11.5t-40 3.5q-31 0 -53 -12t-36 -33t-20.5 -49t-6.5 -60z" />
    <glyph glyph-name="e" unicode="e" horiz-adv-x="548" 
d="M287 499q72 0 116 -20t68 -51.5t32.5 -71t9.5 -77.5l-8 -13l-314 -18q2 -84 36 -120.5t112 -36.5q23 0 61 6.5t73 19.5l24 -76q-40 -25 -96 -40t-114 -15q-68 0 -115 17t-76.5 49.5t-42.5 79t-13 105.5q0 47 10.5 94t38 84.5t75.5 60.5t123 23zM351 322q0 20 -3 38.5
t-11 32.5t-22.5 22.5t-36.5 8.5q-25 0 -41.5 -10.5t-26.5 -28t-14 -39t-4 -43.5z" />
    <glyph glyph-name="f" unicode="f" horiz-adv-x="420" 
d="M286 643q-21 -7 -34.5 -24t-13.5 -51v-81h133v-69h-133v-43.5v-60v-67.5v-67.5v-60v-43.5l78 -25l-2 -51h-289l-3 48l75 32l1 338h-76v45l76 31v12q0 50 15.5 91t44 70.5t70 45.5t94.5 16q58 0 95.5 -18t37.5 -56q0 -25 -20 -49t-45 -34z" />
    <glyph glyph-name="i" unicode="i" horiz-adv-x="367" 
d="M268 644q0 -37 -24 -62t-64 -25q-44 0 -65.5 25t-21.5 62q0 17 7 32.5t18.5 27t27.5 18t34 6.5q40 0 64 -24.5t24 -59.5zM256 75l71 -26l-2 -49h-281l-4 49l76 32v29.5v55t-0.5 68.5t-0.5 70.5v59.5v37l-69 20v52l195 29q1 0 5.5 -2.5t6.5 -2.5z" />
    <glyph glyph-name="j" unicode="j" horiz-adv-x="349" 
d="M259 497q-1 -111 0.5 -220.5t1.5 -219.5q0 -68 -17 -119.5t-48.5 -88.5t-75.5 -61.5t-97 -37.5l-14 36t-13 36q39 24 63.5 48.5t38 51.5t18.5 58t5 67v354l-69 20v52q49 7 97.5 14t97.5 15q8 -4 12 -5zM99 643q0 18 6.5 33.5t18.5 27t28 18t34 6.5q39 0 63.5 -25
t24.5 -60q0 -36 -24.5 -61t-63.5 -25q-44 0 -65.5 25t-21.5 61z" />
    <glyph glyph-name="k" unicode="k" horiz-adv-x="597" 
d="M231 248v21l145 150l-57 24l1 45q57 2 117 4t117 4v-49q-48 -18 -90.5 -45t-76.5 -60l-47 -45l247 -253l-10 -40l-114 -30zM221 77l64 -24l-2 -53h-274l-4 50l76 31v48v96v120.5v122t-0.5 101t-0.5 57.5l-68 20v53l195 29l12 -5z" />
    <glyph glyph-name="l" unicode="l" horiz-adv-x="367" 
d="M259 77l64 -24l-2 -53h-274l-4 50l76 31v48v96v120.5v122t-0.5 101t-0.5 57.5l-68 20v53l194 29l12 -5z" />
    <glyph glyph-name="m" unicode="m" horiz-adv-x="942" 
d="M232 420q1 0 1 -0.5t1 -0.5l69 69q24 6 46.5 9t39.5 3q57 0 94 -19.5t48 -67.5l74 75q23 6 47.5 9t42.5 3q72 0 108 -32t36 -104v-293l68 -22l-3 -49h-255l-2 49l66 25q1 60 0 120t-1 120q0 44 -15.5 64.5t-58.5 20.5q-17 0 -46 -9t-55 -26v-71.5v-70t0.5 -72.5t0.5 -80
l67 -21l-4 -49h-253l-2 49l66 25q-1 60 -1 120v120q0 44 -16 64.5t-58 20.5q-20 0 -47.5 -9t-56.5 -26q0 -74 0.5 -147t0.5 -147l67 -20l-3 -50h-258l-3 48l72 27v331l-68 20v48l163 26l10 -5z" />
    <glyph glyph-name="n" unicode="n" horiz-adv-x="667" 
d="M209 499q8 -4 12 -5l22 -75q1 0 1 -0.5t1 -0.5l76 70q23 6 50 9t49 3q75 0 109.5 -30.5t34.5 -105.5v-62.5v-64.5t0.5 -73.5t0.5 -88.5l63 -22v-53h-263l-2 53q38 15 48.5 19t12.5 4q0 59 -0.5 117t-0.5 116q0 41 -15 60.5t-60 19.5q-8 0 -21 -2t-27 -6t-28.5 -10
t-26.5 -13l1 -284q15 -5 30.5 -10t30.5 -10l-3 -54h-262q-2 13 -2.5 25.5t-1.5 25.5l69 27v322l-68 19v52q43 8 85 14t85 14z" />
    <glyph glyph-name="o" unicode="o" horiz-adv-x="583" 
d="M543 247q0 -51 -15 -98t-46.5 -83.5t-79.5 -58t-113 -21.5q-66 0 -113 17.5t-77 50t-44.5 79t-14.5 105.5q0 52 16 99t48.5 83t81 57.5t114.5 21.5q61 0 106.5 -17.5t76 -50.5t45.5 -79.5t15 -104.5zM191 254q0 -37 4 -70t15 -58t30.5 -40t51.5 -15q31 0 50.5 13.5
t30.5 36t15.5 51.5t4.5 61q0 34 -4.5 67t-16 59.5t-31 42.5t-50.5 16q-32 0 -51.5 -15t-30.5 -38.5t-14.5 -52.5t-3.5 -58z" />
    <glyph glyph-name="p" unicode="p" horiz-adv-x="598" 
d="M216 -142l83 -25l-4 -54h-286l-4 51l72 28v543l-71 20v52l170 28l12 -5l18 -76l3 -1l76 71q45 12 80 12q54 0 91 -20.5t59.5 -55t32.5 -79t10 -93.5q0 -57 -12 -106t-38.5 -85t-69 -56t-102.5 -20q-28 0 -57.5 4.5t-63.5 18.5zM413 240q0 30 -5 57.5t-17 48.5t-32.5 33.5
t-51.5 12.5q-24 0 -49 -8.5t-43 -19.5v-263q17 -7 38 -11t40 -4q33 0 55.5 12t37 33t21 49t6.5 60z" />
    <glyph glyph-name="q" unicode="q" horiz-adv-x="599" 
d="M524 -143l73 -27l-4 -51h-284l-4 54l79 27q0 17 0.5 42.5t1 54t0.5 56.5v50l-3 1l-67 -66q-21 -6 -42 -8t-35 -2q-59 0 -97 21.5t-61 57t-32 79.5t-9 89q0 51 11.5 99.5t37.5 85.5t69.5 59.5t108.5 22.5q36 0 72.5 -11.5t75.5 -37.5l46 52l62 -17zM189 248
q0 -29 4.5 -56.5t16.5 -49t31.5 -34.5t49.5 -13q23 0 48.5 9t42.5 19l1 263q-17 8 -38.5 11.5t-39.5 3.5q-55 0 -85.5 -40t-30.5 -113z" />
    <glyph glyph-name="s" unicode="s" horiz-adv-x="488" 
d="M250 498q44 0 87.5 -9t78.5 -27q0 -34 -0.5 -66.5t-0.5 -66.5l-49 -6q-8 19 -17 37t-17 36q-21 12 -41.5 15.5t-31.5 3.5q-32 0 -46.5 -12.5t-14.5 -31.5q0 -10 4.5 -18t15.5 -15.5t29 -16t45 -19.5q39 -15 68 -31t48.5 -34.5t29 -42.5t9.5 -55q0 -32 -12 -60t-39 -49
t-70 -33t-105 -12q-52 0 -99.5 10t-73.5 26l-8 145l48 9l36 -80q18 -13 43 -19t46 -6q16 0 31 3.5t27 10t19 16t7 22.5q0 15 -7 26t-19 19.5t-28 16t-35 15.5q-27 12 -55.5 24.5t-51.5 29.5t-37.5 41t-14.5 58q0 65 48.5 105.5t152.5 40.5z" />
    <glyph glyph-name="t" unicode="t" horiz-adv-x="411" 
d="M233 190q0 -29 3.5 -48.5t11.5 -31t21.5 -16t33.5 -4.5t39 2.5t51 7.5l18 -78q-39 -17 -79 -25.5t-82 -8.5q-86 0 -122 35.5t-36 111.5v283h-72v47q20 10 40.5 18.5t41.5 18.5q11 28 22 55.5t22 55.5l74 21l12 -8v-139h142v-69h-142z" />
    <glyph glyph-name="u" unicode="u" horiz-adv-x="658" 
d="M441 -7l-21 74q-1 0 -1.5 0.5t-1.5 0.5l-76 -69q-23 -6 -52.5 -9t-49.5 -3q-72 0 -106.5 31.5t-34.5 103.5v279l-68 20v52l195 27q4 -1 12 -5q0 -80 0.5 -159t0.5 -160q0 -41 18 -60.5t58 -19.5q18 0 47.5 8t55.5 24v274l-68 20v52l194 28l12 -6v-410q18 -5 36 -9.5
t37 -9.5v-53l-175 -26z" />
    <glyph glyph-name="w" unicode="w" horiz-adv-x="841" 
d="M408 292l-93 -291l-89 -15q-9 22 -22 56t-28.5 74t-32 82.5t-32 82.5t-29 74t-22.5 57l-48 18v54l201 8q1 -29 6.5 -58.5t12.5 -52.5l65 -200h3l88 310h102q10 -25 27 -70t36 -94t36 -94t27 -69h3q6 17 15.5 51t20 72t20.5 72l15 51l-70 25v52q19 1 45.5 1.5t54 1.5
t54 1.5t45.5 0.5l6 -51q-34 -29 -53.5 -65.5t-36.5 -84.5l-102 -290l-87 -14l-132 305h-6z" />
    <glyph glyph-name="y" unicode="y" horiz-adv-x="598" 
d="M369 487q52 2 104 3l104 2q0 -3 1 -10t2 -15t2 -15t1 -10q-29 -23 -53 -62t-44 -84q-6 -16 -19.5 -47t-30.5 -69t-35.5 -80t-35.5 -80t-30.5 -68.5t-19.5 -46.5q-26 -60 -67.5 -98.5t-103.5 -38.5q-44 0 -75.5 18t-31.5 52q0 24 15.5 42.5t38.5 28.5q5 -3 17.5 -11
t26 -17t26 -16.5t18.5 -10.5q32 4 48.5 26.5t24.5 43.5l28 70l-41 4q-7 18 -20.5 50.5t-30.5 72.5t-35.5 84t-35.5 84t-30.5 72.5t-20.5 50.5l-48 19v53l201 8q2 -26 7.5 -52t17.5 -61q6 -18 18.5 -52t26.5 -71t26.5 -71t18.5 -52h3q7 21 21 59t30 80t30 80.5t21 58.5
l-71 25v10t0.5 15.5t0.5 15.5v10z" />
    <glyph glyph-name="r" unicode="r" horiz-adv-x="471" 
d="M254 418l2 -1q16 17 35.5 33.5t41 29.5t46 21t51.5 8q13 0 22 -11.5t9 -33.5q0 -21 -8.5 -52t-26.5 -54l-170 13q0 -9 -0.5 -41.5t-0.5 -76t0.5 -91.5t0.5 -87l72 -25l-2 -50h-282l-4 50l77 30v31.5v54.5v66.5v68.5v59.5v40.5l-69 20v52l175 28l12 -5z" />
    <glyph glyph-name="z" unicode="z" horiz-adv-x="524" 
d="M475 0q-57 0 -110.5 0.5t-107 0.5t-107.5 -0.5t-111 -0.5l-14 46q33 43 68 91t71 97t70.5 96.5t66.5 90.5l-146 -4l-51 -87l-44 7l10 148l6 5q104 -2 198.5 -1.5t198.5 1.5l15 -45q-32 -42 -66 -89t-69 -95.5t-69.5 -97t-67.5 -93.5l181 3l60 100l42 -7l-19 -161z" />
    <glyph glyph-name="a" unicode="a" horiz-adv-x="561" 
d="M320 63l-67 -64q-20 -5 -41 -9t-39 -4q-41 0 -68 12.5t-44 32.5t-24 44.5t-7 49.5q0 11 2 26t7.5 30t15.5 29t27 25q8 5 23 12t42 13.5t69 12.5t104 9v38q0 42 -18 56.5t-64 14.5q-28 0 -70 -5.5t-78 -16.5l-22 77q44 23 99.5 38.5t113.5 15.5q85 0 132.5 -37t47.5 -126
v-240l77 -18v-54q-24 -15 -61 -26t-73 -11q-13 0 -26.5 2t-24.5 9.5t-19 22.5t-11 41h-3zM231 83q19 0 43 8.5t46 25.5v100q-50 -5 -78 -15t-42 -21t-17.5 -22.5t-3.5 -20.5q0 -25 12.5 -40t39.5 -15z" />
    <glyph glyph-name="x" unicode="x" horiz-adv-x="583" 
d="M389 -8q-23 38 -53 81.5t-57 80.5q-5 -6 -13 -17t-17 -22.5t-16.5 -21.5t-10.5 -15l59 -23l-3 -55h-266l-2 58q58 17 94.5 42.5t67.5 56.5l62 63q-35 47 -67.5 92.5t-69.5 97.5l-72 22v53l210 8q4 -32 20.5 -62.5t30.5 -50.5l33 -49q4 6 13 17.5t18.5 24t18.5 23.5t12 16
l-59 22l1 53l232 6l7 -57q-34 -19 -67.5 -45t-62.5 -57l-69 -69q32 -48 70.5 -97.5t72.5 -94.5l67 -19l-3 -54z" />
    <glyph glyph-name="v" unicode="v" horiz-adv-x="592" 
d="M334 157h4q7 18 20.5 53t27.5 74t27 74t21 53l-70 24v54l207 5l6 -51q-32 -27 -55 -65t-44 -83l-131 -292l-86 -17q-11 23 -26.5 57t-33.5 74t-36.5 82.5t-36.5 82.5t-33.5 74t-26.5 57l-48 19v53l198 8q2 -26 10 -55.5t19 -56.5z" />
    <glyph glyph-name="g" unicode="g" horiz-adv-x="624" 
d="M159 166q-54 18 -78 56t-24 86q0 39 14 73.5t42 60.5t71 41t101 15q54 0 96.5 -12.5t76.5 -37.5q26 27 61.5 47t70.5 20q11 0 22.5 -6.5t11.5 -22.5q0 -14 -5 -34t-22 -43l-105 -6v-4q12 -16 17.5 -39t5.5 -41q0 -33 -12 -65t-38.5 -56.5t-70 -40t-106.5 -15.5
q-21 0 -40.5 2t-39.5 6q-25 -18 -25 -30q0 -8 11 -14t29.5 -9.5t41.5 -5.5t47 -2q86 -2 138.5 -10.5t81 -24.5t38 -39t9.5 -53q0 -37 -22 -72.5t-66.5 -63.5t-111 -45.5t-155.5 -17.5q-43 0 -79 6.5t-62.5 20t-41 34t-14.5 49.5q0 21 9 37.5t25 30t38 25t48 22.5v1
q-57 8 -80 25.5t-23 46.5q0 9 3 20t10 18l102 65v2zM161 -93q0 -14 4 -26.5t14.5 -21.5t30 -14t51.5 -5q34 0 63 5.5t50.5 16t34 26t12.5 35.5q0 25 -20 35t-51.5 13t-70.5 3t-77 4q-23 -17 -32 -36t-9 -35zM287 425q-24 0 -39.5 -9t-24.5 -23.5t-12.5 -32.5t-3.5 -36
q0 -26 3.5 -46t12.5 -34t25 -21.5t41 -7.5q24 0 39.5 8.5t24.5 22.5t12.5 31.5t3.5 35.5q0 24 -3.5 44.5t-12.5 35.5t-25 23.5t-41 8.5z" />
    <glyph glyph-name="h" unicode="h" horiz-adv-x="644" 
d="M225 419l2 -1l76 70q24 6 52.5 9t48.5 3q74 0 108 -32t34 -104l1 -289l66 -22l-3 -53h-263q0 13 -1 26.5t-1 26.5q14 7 29.5 12.5t30.5 11.5v232q0 41 -15 60.5t-60 19.5q-21 0 -50 -8.5t-53 -22.5q-1 -36 -1 -69.5v-67.5t0.5 -70t0.5 -77q16 -5 31.5 -10t30.5 -10
l-3 -54h-262q-2 13 -2.5 25.5t-1.5 25.5l69 27v67v92.5t-0.5 106t-0.5 107.5t-0.5 97.5t-0.5 76.5l-68 20v52l194 28q8 -4 12 -5v-301v0z" />
    <glyph glyph-name="P" unicode="P" horiz-adv-x="663" 
d="M51 687q21 0 39 -0.5t35.5 -1t36 -0.5h40.5q52 0 100 1.5t95 1.5q108 0 172 -50.5t64 -151.5q0 -45 -16 -85.5t-48 -71t-81.5 -49t-115.5 -18.5q-18 0 -43 2t-54 7v-186l99 -22l-3 -63h-332l-4 57l90 28v520l-82 24zM475 474q0 64 -37.5 94t-102.5 30q-30 0 -60 -6v-235
q13 -2 26 -2.5t21 -0.5q46 0 75.5 10.5t47 28t24 39t6.5 42.5z" />
    <glyph glyph-name="R" unicode="R" horiz-adv-x="727" 
d="M366 281h-14q-15 1 -35 2t-43 6v-204l98 -22l-4 -63h-329l-4 56l89 29v520l-81 24l7 58q42 -1 75 -1.5t77 -0.5q52 0 100 1.5t95 1.5q49 0 92 -10.5t75 -33t50 -58.5t18 -87q0 -30 -7.5 -58.5t-24 -54t-42.5 -46.5t-62 -34l217 -267l-13 -43l-125 -28zM475 488
q0 31 -10.5 52t-29.5 34t-44.5 18.5t-55.5 5.5t-61 -6v-216q13 -2 27.5 -2.5t22.5 -0.5q46 0 75.5 10t46.5 26.5t23 37t6 41.5z" />
    <glyph glyph-name="endash" unicode="&#x2013;" horiz-adv-x="500" 
d="M30 209v77h440v-77h-440z" />
    <glyph glyph-name="emdash" unicode="&#x2014;" horiz-adv-x="1000" 
d="M30 209v77h940v-77h-940z" />
    <glyph glyph-name="braceleft" unicode="{" horiz-adv-x="384" 
d="M121 121q0 22 -1 40t-7 32t-18.5 25.5t-34.5 21.5v46q40 14 50.5 44.5t10.5 75.5v141q0 81 42.5 116.5t114.5 35.5h66v-52h-33q-35 0 -47.5 -22t-12.5 -61v-163q0 -53 -18 -85.5t-60 -47.5v-5q44 -17 61 -48.5t17 -84.5v-176q0 -39 12.5 -61t47.5 -22h33v-52h-66
q-72 0 -114.5 35.5t-42.5 116.5v150z" />
    <glyph glyph-name="braceright" unicode="}" horiz-adv-x="462" 
d="M305 -29q0 -81 -42 -116.5t-114 -35.5h-66v52h33q35 0 47.5 22t12.5 61v173q0 54 16.5 85.5t61.5 48.5v5q-42 15 -60 47t-18 85v166q0 39 -12.5 61t-47.5 22h-33v52h66q72 0 114 -35.5t42 -116.5v-141q0 -45 10.5 -75.5t50.5 -44.5v-46q-22 -10 -34.5 -21.5t-18.5 -25.5
t-7 -32t-1 -40v-150z" />
    <glyph glyph-name="agrave" unicode="&#xe0;" horiz-adv-x="561" 
d="M320 63l-67 -64q-20 -5 -41 -9t-39 -4q-41 0 -68 12.5t-44 32.5t-24 44.5t-7 49.5q0 11 2 26t7.5 30t15.5 29t27 25q8 5 23 12t42 13.5t69 12.5t104 9v38q0 42 -18 56.5t-64 14.5q-28 0 -70 -5.5t-78 -16.5l-22 77q44 23 99.5 38.5t113.5 15.5q85 0 132.5 -37t47.5 -126
v-240l77 -18v-54q-24 -15 -61 -26t-73 -11q-13 0 -26.5 2t-24.5 9.5t-19 22.5t-11 41h-3zM231 83q19 0 43 8.5t46 25.5v100q-50 -5 -78 -15t-42 -21t-17.5 -22.5t-3.5 -20.5q0 -25 12.5 -40t39.5 -15zM350 575l-62 -48l-166 168l98 76z" />
    <glyph glyph-name="multiply" unicode="&#xd7;" horiz-adv-x="606" 
d="M304 350l128 128l67 -66l-128 -128l127 -128l-68 -69l-128 128l-128 -128l-67 67l128 128l-127 127l68 69z" />
    <glyph glyph-name="bar" unicode="|" horiz-adv-x="306" 
d="M197 -189h-89v895h89v-895z" />
    <glyph glyph-name="logicalnot" unicode="&#xac;" horiz-adv-x="651" 
d="M555 329v-274h-98v181h-361v93h459z" />
    <glyph glyph-name="OE" unicode="&#x152;" horiz-adv-x="924" 
d="M889 202l-25 -192l-11 -10q-36 0 -65.5 0.5l-59 1t-62 1t-73.5 0.5q-72 0 -124.5 -5t-89.5 -5q-164 0 -240.5 89t-76.5 253q0 70 16 135t54 115.5t101 80.5t156 30q26 0 73 -4.5t129 -5.5h63t56.5 1t56.5 1.5t64 1.5l11 -6l2 -191l-50 -10l-47 113h-39.5t-53.5 -0.5
t-53.5 -0.5h-40.5v-200l207 8v-94l-207 8v-223h47t60.5 0.5t61 1t47.5 0.5l67 117zM383 94h13.5t12.5 1v503q-6 1 -12.5 1.5t-13.5 0.5q-50 0 -82 -22t-50.5 -57.5t-25.5 -80t-7 -89.5q0 -55 8 -102t27 -81.5t50.5 -54t79.5 -19.5z" />
    <glyph glyph-name="fraction" unicode="&#x2044;" horiz-adv-x="153" 
d="M-72 -39h-63l355 759h62z" />
    <glyph glyph-name="fraction" unicode="&#x2215;" horiz-adv-x="153" 
d="M-72 -39h-63l355 759h62z" />
    <glyph glyph-name="zero.numerator" unicode="&#xe2d0;" horiz-adv-x="394" 
d="M379 489q0 -41 -8.5 -80t-29 -69.5t-55.5 -49.5t-88 -19q-54 0 -89.5 18.5t-56.5 49.5t-29.5 70t-8.5 80q0 40 8.5 78.5t29.5 68.5t56.5 48.5t89.5 18.5q53 0 88 -18.5t55.5 -48.5t29 -68.5t8.5 -78.5zM195 631q-21 0 -34 -11.5t-20.5 -29.5t-10 -40.5t-2.5 -45.5
q0 -29 2 -57t9 -50.5t21.5 -36.5t38.5 -14q21 0 34 10.5t20.5 28.5t10 41.5t2.5 48.5q0 29 -2 57t-9.5 50t-21.5 35.5t-38 13.5z" />
    <glyph glyph-name="one.numerator" unicode="&#xe2d1;" horiz-adv-x="394" 
d="M331 280q-30 1 -63.5 1.5t-66.5 0.5q-35 0 -72 -0.5t-66 -1.5l-2 51l83 19v264l-80 10v50l169 28l21 -20v-334l78 -15z" />
    <glyph glyph-name="two.numerator" unicode="&#xe2d2;" horiz-adv-x="394" 
d="M187 702q74 0 115.5 -33t41.5 -96q0 -31 -13 -60.5t-36 -57.5t-55 -53t-70 -47q25 1 58.5 2.5t65.5 2.5q2 4 8 13t12 19t12 19t8 13l40 -7l-19 -128l-6 -6t-6 -5q-20 1 -37 1.5t-34.5 0.5h-36h-42.5h-50h-38.5t-34.5 -0.5t-39 -0.5l-14 50l35 23q36 24 68 48.5t56 50
t38 52t14 54.5q0 30 -17 46.5t-54 16.5q-26 0 -55.5 -7.5t-55.5 -21.5l-30 54q38 25 80 41t91 16z" />
    <glyph glyph-name="three.numerator" unicode="&#xe2d3;" horiz-adv-x="394" 
d="M352 631q-32 -23 -63.5 -45.5t-63.5 -45.5q69 -5 103.5 -39.5t34.5 -86.5q0 -37 -15.5 -64.5t-41 -45.5t-58.5 -26.5t-67 -8.5q-46 0 -84 8t-71 22q5 15 11 31t12 31q38 -11 67 -15t47 -4q46 0 68.5 20.5t22.5 52.5q0 29 -19.5 46t-65.5 17q-7 0 -19 -1t-26 -4l-23 39
q29 25 57.5 50.5t57.5 51.5l-102 -4l-34 -52l-40 7q4 30 8 60.5t9 60.5q4 2 12 8q48 -2 85 -2h78h100l20 -61v0z" />
    <glyph glyph-name="four.numerator" unicode="&#xe2d4;" horiz-adv-x="394" 
d="M313 340q3 -1 9.5 -3.5t13.5 -4.5t13.5 -4.5t9.5 -3.5l-2 -44h-200l-4 42l51 19v49h-182l-20 32l241 268l49 15l20 -9v-240h73v-66h-72v-50zM203 454v124l-96 -124h96z" />
    <glyph glyph-name="five.numerator" unicode="&#xe2d5;" horiz-adv-x="394" 
d="M133 542q18 3 36 4t29 1q35 0 65.5 -8.5t53 -25t35.5 -40.5t13 -56q0 -39 -15 -67t-40 -46t-58 -26.5t-69 -8.5q-47 0 -85 8t-72 22l24 63q38 -11 67 -15.5t47 -4.5q46 0 68.5 20.5t22.5 55.5q0 31 -22.5 47.5t-59.5 16.5q-16 0 -35 -2.5t-36 -8.5l-45 25l47 175l11 9h98
h40t40 1q8 12 14.5 24t13.5 24q11 -2 20.5 -3.5t20.5 -3.5l-17 -117l-9 -7q-43 2 -91.5 2.5t-89.5 1.5z" />
    <glyph glyph-name="six.numerator" unicode="&#xe2d6;" horiz-adv-x="394" 
d="M187 552q20 4 38 4q31 0 58 -8.5t46.5 -25.5t30.5 -41.5t11 -57.5q0 -29 -11 -56.5t-32.5 -48.5t-54 -34t-75.5 -13q-48 0 -81.5 13.5t-54 36t-30 53t-9.5 65.5q0 60 24 104.5t62 77.5t84 56t90 39l28 -52q-63 -30 -99 -61t-53.5 -60.5t-21.5 -57t-4 -49.5
q0 -45 16 -70.5t49 -25.5t47 24.5t14 56.5q0 45 -21 62t-57 21z" />
    <glyph glyph-name="seven.numerator" unicode="&#xe2d7;" horiz-adv-x="394" 
d="M74 288l207 325q-42 -2 -86 -3t-86 -2l-39 -63l-40 10l20 131l13 9q38 -1 72.5 -1h66.5h69.5t74.5 1l28 -34l-210 -387l-78 -6z" />
    <glyph glyph-name="eight.numerator" unicode="&#xe2d8;" horiz-adv-x="394" 
d="M157 590q0 -23 19.5 -37.5t46.5 -26.5q17 15 23.5 31.5t6.5 28.5q0 19 -12 32.5t-38 13.5q-23 0 -34.5 -12.5t-11.5 -29.5zM201 341q26 0 43 15t17 41q0 22 -25 38.5t-60 31.5q-22 -18 -29.5 -36.5t-7.5 -35.5q0 -27 17.5 -40.5t44.5 -13.5zM356 589q0 -22 -10.5 -47.5
t-45.5 -49.5q32 -17 49 -40.5t17 -58.5q0 -27 -12 -49.5t-33.5 -39t-52.5 -25.5t-69 -9q-79 0 -123.5 32.5t-44.5 87.5q0 26 16 58t57 55q-24 16 -38.5 35t-14.5 48q0 26 11.5 47.5t32.5 36.5t49 23.5t61 8.5q25 0 52 -5.5t49 -19t36 -35t14 -53.5z" />
    <glyph glyph-name="nine.numerator" unicode="&#xe2d9;" horiz-adv-x="394" 
d="M207 421q-11 -2 -20 -2.5t-18 -0.5q-31 0 -58 8.5t-46.5 25.5t-30.5 41.5t-11 57.5q0 29 11 56.5t32.5 48.5t54 34t76.5 13q48 0 81 -13.5t53.5 -36.5t30 -53.5t9.5 -64.5q0 -60 -24 -105t-62 -78t-84 -56t-89 -39l-30 52q64 31 100 62t53.5 60.5t21.5 56.5t4 50
q0 45 -16 70t-48 25q-34 0 -48 -24t-14 -56q0 -45 21 -62t57 -21z" />
    <glyph glyph-name="parenleft.numerator" unicode="&#xe2da;" horiz-adv-x="238" 
d="M137 438q0 -71 23.5 -135t74.5 -121l-29 -28q-39 26 -71 57t-55 67t-36 75.5t-13 83.5q0 83 45 155.5t131 126.5l29 -28q-59 -62 -79 -125.5t-20 -127.5z" />
    <glyph glyph-name="parenright.numerator" unicode="&#xe2db;" horiz-adv-x="238" 
d="M102 438q0 64 -20.5 127.5t-79.5 125.5l29 28q86 -54 130.5 -126.5t44.5 -155.5q0 -87 -48 -159t-126 -124l-30 28q52 57 76 121t24 135z" />
    <glyph glyph-name="comma.numerator" unicode="&#xe2dc;" horiz-adv-x="191" 
d="M32 331q0 23 17.5 39.5t47.5 16.5q34 0 48.5 -21t14.5 -46q0 -19 -8 -39t-22 -39t-33.5 -35t-42.5 -27l-25 31q20 17 31.5 36.5t15.5 33.5q-20 6 -32 19t-12 31z" />
    <glyph glyph-name="period.numerator" unicode="&#xe2dd;" horiz-adv-x="187" 
d="M157 331q0 -25 -17 -42t-47 -17q-33 0 -48 17.5t-15 41.5t18 41t45 17q30 0 47 -17t17 -41z" />
    <glyph glyph-name="zero.denominator" unicode="&#xe2f4;" horiz-adv-x="394" 
d="M379 209q0 -41 -8.5 -79.5t-29 -69.5t-55.5 -49.5t-88 -18.5q-54 0 -89.5 18.5t-56.5 49t-29.5 69.5t-8.5 80q0 40 8.5 78.5t29.5 68.5t56.5 48.5t89.5 18.5q53 0 88 -18.5t55.5 -48.5t29 -68.5t8.5 -78.5zM195 351q-21 0 -34 -11.5t-20.5 -29.5t-10 -40.5t-2.5 -44.5
q0 -29 2 -57.5t9 -51t21.5 -36.5t38.5 -14q21 0 34 11t20.5 29t10 41t2.5 48q0 29 -2 57t-9.5 50t-21.5 35.5t-38 13.5z" />
    <glyph glyph-name="one.denominator" unicode="&#xe2f5;" horiz-adv-x="394" 
d="M331 0q-30 1 -63.5 1.5t-66.5 0.5q-35 0 -72 -0.5t-66 -1.5l-2 51l83 19v265l-80 9v50l169 29l21 -21v-334q18 -4 39 -8t39 -7z" />
    <glyph glyph-name="two.denominator" unicode="&#xe2f6;" horiz-adv-x="394" 
d="M187 422q74 0 115.5 -33t41.5 -96q0 -31 -13 -60.5t-36 -57t-55 -52.5t-70 -47l124 5q2 4 8 13t12 19t12 19t8 13q2 0 7.5 -1t12.5 -2.5t12.5 -2.5t7.5 -2l-19 -128l-6 -6t-6 -5q-20 1 -37 1.5t-34.5 0.5h-36h-42.5h-50h-38.5t-34.5 -0.5t-39 -0.5l-14 51l35 22
q36 24 68 48.5t56 50t38 52t14 54.5q0 64 -71 64q-26 0 -55.5 -8t-55.5 -21q-2 3 -6 10.5t-9 16.5t-9.5 16.5t-5.5 9.5q38 25 80 41t91 16z" />
    <glyph glyph-name="three.denominator" unicode="&#xe2f7;" horiz-adv-x="394" 
d="M225 260q68 -5 103 -39.5t35 -86.5q0 -37 -15.5 -64t-41 -45t-58.5 -26.5t-67 -8.5q-46 0 -84 7.5t-71 21.5q5 16 11 31.5t12 31.5q38 -11 67 -15.5t47 -4.5q46 0 68.5 20.5t22.5 52.5q0 29 -19.5 46.5t-65.5 17.5q-7 0 -19 -1.5t-26 -3.5l-23 38l115 102q-17 0 -42 -1
t-60 -3q-8 -14 -17 -26.5t-17 -25.5l-40 8q4 29 8 59.5t9 60.5l12 8q48 -1 85 -1.5t78 -0.5h53.5t46.5 1l20 -61z" />
    <glyph glyph-name="four.denominator" unicode="&#xe2f8;" horiz-adv-x="394" 
d="M313 61l46 -17l-2 -44h-200l-4 43l51 18v49h-182l-20 33l241 267l49 15l20 -9v-240h73v-66h-72v-49zM203 175v124l-96 -124h96z" />
    <glyph glyph-name="five.denominator" unicode="&#xe2f9;" horiz-adv-x="394" 
d="M133 262q18 4 36 4.5t29 0.5q35 0 65.5 -8.5t53 -24.5t35.5 -40.5t13 -55.5q0 -39 -15 -67t-40 -46t-58 -26.5t-69 -8.5q-47 0 -85 8t-72 22l24 62q38 -11 67 -15t47 -4q46 0 68.5 20t22.5 55q0 31 -23.5 47.5t-58.5 16.5q-16 0 -35 -2.5t-36 -8.5l-45 25l47 176q2 2 5 4
l6 4q12 0 26.5 0.5t34.5 0.5h48.5h68.5q8 12 14.5 24.5t13.5 23.5l41 -6l-17 -117l-9 -8q-43 2 -91.5 2.5t-89.5 2.5z" />
    <glyph glyph-name="six.denominator" unicode="&#xe2fa;" horiz-adv-x="394" 
d="M187 273q11 2 20.5 2.5t17.5 0.5q31 0 58 -8.5t46.5 -25.5t30.5 -41.5t11 -57.5q0 -29 -11 -56.5t-32.5 -48.5t-54 -34t-75.5 -13q-48 0 -81.5 13.5t-54 36.5t-30 53.5t-9.5 65.5q0 59 24 104t62 78t84 56t90 39l28 -52q-63 -31 -99 -62t-53.5 -60.5t-21.5 -57t-4 -49.5
q0 -45 16 -70.5t49 -25.5t47 25t14 57q0 44 -21 61t-57 21z" />
    <glyph glyph-name="seven.denominator" unicode="&#xe2fb;" horiz-adv-x="394" 
d="M74 8l207 325q-42 -1 -86 -2t-86 -3l-39 -62l-40 9l20 132l13 9q38 -1 72.5 -1h66.5h69.5t74.5 1l28 -35l-210 -386l-78 -6z" />
    <glyph glyph-name="eight.denominator" unicode="&#xe2fc;" horiz-adv-x="394" 
d="M155 312q0 -23 20 -37t47 -26q17 14 23.5 31t6.5 28q0 19 -12 32.5t-38 13.5q-23 0 -35 -12.5t-12 -29.5zM200 64q26 0 43 15t17 40q0 23 -25 39t-60 31q-22 -18 -29.5 -36.5t-7.5 -34.5q0 -28 17 -41t45 -13zM355 311q0 -21 -11 -47t-45 -50q32 -17 49 -40.5t17 -58.5
q0 -27 -12 -49.5t-33.5 -39t-52.5 -25.5t-69 -9q-79 0 -123.5 32.5t-44.5 87.5q0 26 16 58t57 55q-25 16 -39 35.5t-14 47.5q0 26 11.5 47.5t32 36.5t48.5 23.5t61 8.5q25 0 52 -5.5t49 -19t36.5 -35t14.5 -53.5z" />
    <glyph glyph-name="nine.denominator" unicode="&#xe2fd;" horiz-adv-x="394" 
d="M207 141q-11 -2 -20 -2.5t-18 -0.5q-31 0 -58 8.5t-46.5 25.5t-30.5 42t-11 57q0 29 11 56.5t32.5 48.5t54 34t76.5 13q48 0 81 -13.5t53.5 -36.5t30 -53.5t9.5 -64.5q0 -60 -24 -105t-62 -78t-84 -56t-89 -39l-30 52q64 31 100 62t53.5 60.5t21.5 56.5t4 50
q0 45 -16 70.5t-48 25.5q-34 0 -48 -24.5t-14 -56.5q0 -45 21 -62t57 -21z" />
    <glyph glyph-name="parenleft.denominator" unicode="&#xe2fe;" horiz-adv-x="238" 
d="M137 158q0 -70 23.5 -134.5t74.5 -121.5l-29 -27q-39 25 -71 56.5t-55 67t-36 75.5t-13 83q0 84 45 156t131 126l29 -28q-59 -62 -79 -125.5t-20 -127.5z" />
    <glyph glyph-name="parenright.denominator" unicode="&#xe2ff;" horiz-adv-x="238" 
d="M102 158q0 64 -20.5 127.5t-79.5 125.5l29 28q86 -54 130.5 -126.5t44.5 -155.5q0 -87 -48 -159t-126 -123l-30 27q52 57 76 121.5t24 134.5z" />
    <glyph glyph-name="comma.denominator" unicode="&#xe300;" horiz-adv-x="191" 
d="M32 51q0 23 17.5 39.5t47.5 16.5q34 0 48.5 -20.5t14.5 -45.5q0 -20 -8 -40t-22 -39t-33.5 -35t-42.5 -27l-25 31q20 17 31.5 37t15.5 34q-20 5 -32 18.5t-12 30.5z" />
    <glyph glyph-name="period.denominator" unicode="&#xe301;" horiz-adv-x="187" 
d="M157 51q0 -24 -17 -41.5t-47 -17.5q-33 0 -48 17.5t-15 41.5t18 41t45 17q30 0 47 -17t17 -41z" />
    <glyph glyph-name="percent" unicode="%" horiz-adv-x="394" 
d="M379 489q0 -41 -8.5 -80t-29 -69.5t-55.5 -49.5t-88 -19q-54 0 -89.5 18.5t-56.5 49.5t-29.5 70t-8.5 80q0 40 8.5 78.5t29.5 68.5t56.5 48.5t89.5 18.5q53 0 88 -18.5t55.5 -48.5t29 -68.5t8.5 -78.5zM195 631q-21 0 -34 -11.5t-20.5 -29.5t-10 -40.5t-2.5 -45.5
q0 -29 2 -57t9 -50.5t21.5 -36.5t38.5 -14q21 0 34 10.5t20.5 28.5t10 41.5t2.5 48.5q0 29 -2 57t-9.5 50t-21.5 35.5t-38 13.5zM280 -39h-63l355 759h62zM838 209q0 -41 -8.5 -79.5t-29 -69.5t-55.5 -49.5t-88 -18.5q-54 0 -89.5 18.5t-56.5 49t-29.5 69.5t-8.5 80
q0 40 8.5 78.5t29.5 68.5t56.5 48.5t89.5 18.5q53 0 88 -18.5t55.5 -48.5t29 -68.5t8.5 -78.5zM654 351q-21 0 -34 -11.5t-20.5 -29.5t-10 -40.5t-2.5 -44.5q0 -29 2 -57.5t9 -51t21.5 -36.5t38.5 -14q21 0 34 11t20.5 29t10 41t2.5 48q0 29 -2 57t-9.5 50t-21.5 35.5
t-38 13.5z" />
    <glyph glyph-name="perthousand" unicode="&#x2030;" horiz-adv-x="394" 
d="M379 489q0 -41 -8.5 -80t-29 -69.5t-55.5 -49.5t-88 -19q-54 0 -89.5 18.5t-56.5 49.5t-29.5 70t-8.5 80q0 40 8.5 78.5t29.5 68.5t56.5 48.5t89.5 18.5q53 0 88 -18.5t55.5 -48.5t29 -68.5t8.5 -78.5zM195 631q-21 0 -34 -11.5t-20.5 -29.5t-10 -40.5t-2.5 -45.5
q0 -29 2 -57t9 -50.5t21.5 -36.5t38.5 -14q21 0 34 10.5t20.5 28.5t10 41.5t2.5 48.5q0 29 -2 57t-9.5 50t-21.5 35.5t-38 13.5zM280 -39h-63l355 759h62zM839 209q0 -41 -8.5 -79.5t-29 -69.5t-55.5 -49.5t-88 -18.5q-54 0 -89.5 18.5t-56.5 49t-29.5 69.5t-8.5 80
q0 40 8.5 78.5t29.5 68.5t56.5 48.5t89.5 18.5q53 0 88 -18.5t55.5 -48.5t29 -68.5t8.5 -78.5zM655 351q-21 0 -34 -11.5t-20.5 -29.5t-10 -40.5t-2.5 -44.5q0 -29 2 -57.5t9 -51t21.5 -36.5t38.5 -14q21 0 34 11t20.5 29t10 41t2.5 48q0 29 -2 57t-9.5 50t-21.5 35.5
t-38 13.5zM1241 209q0 -41 -8.5 -79.5t-29 -69.5t-55.5 -49.5t-88 -18.5q-54 0 -89.5 18.5t-56.5 49t-29.5 69.5t-8.5 80q0 40 8.5 78.5t29.5 68.5t56.5 48.5t89.5 18.5q53 0 88 -18.5t55.5 -48.5t29 -68.5t8.5 -78.5zM1057 351q-21 0 -34 -11.5t-20.5 -29.5t-10 -40.5
t-2.5 -44.5q0 -29 2 -57.5t9 -51t21.5 -36.5t38.5 -14q21 0 34 11t20.5 29t10 41t2.5 48q0 29 -2 57t-9.5 50t-21.5 35.5t-38 13.5z" />
    <glyph glyph-name="twosuperior" unicode="&#xb2;" horiz-adv-x="394" 
d="M187 791q74 0 115.5 -33t41.5 -96q0 -31 -13 -60.5t-36 -57.5t-55 -53t-70 -47q25 1 58.5 2.5t65.5 2.5q2 4 8 13t12 19t12 19t8 13l40 -7l-19 -128l-6 -6t-6 -5q-20 1 -37 1.5t-34.5 0.5h-36h-42.5h-50h-38.5t-34.5 -0.5t-39 -0.5l-14 50l35 23q36 24 68 48.5t56 50
t38 52t14 54.5q0 30 -17 46.5t-54 16.5q-26 0 -55.5 -7.5t-55.5 -21.5l-30 54q38 25 80 41t91 16z" />
    <glyph glyph-name="threesuperior" unicode="&#xb3;" horiz-adv-x="394" 
d="M352 720q-32 -23 -63.5 -45.5t-63.5 -45.5q69 -5 103.5 -39.5t34.5 -86.5q0 -37 -15.5 -64.5t-41 -45.5t-58.5 -26.5t-67 -8.5q-46 0 -84 8t-71 22q5 15 11 31t12 31q38 -11 67 -15t47 -4q46 0 68.5 20.5t22.5 52.5q0 29 -19.5 46t-65.5 17q-7 0 -19 -1t-26 -4l-23 39
q29 25 57.5 50.5t57.5 51.5l-102 -4l-34 -52l-40 7q4 30 8 60.5t9 60.5q4 2 12 8q48 -2 85 -2h78h100l20 -61v0z" />
    <glyph glyph-name="onesuperior" unicode="&#xb9;" horiz-adv-x="394" 
d="M331 369q-30 1 -63.5 1.5t-66.5 0.5q-35 0 -72 -0.5t-66 -1.5l-2 51l83 19v264l-80 10v50l169 28l21 -20v-334l78 -15z" />
    <glyph glyph-name="onequarter" unicode="&#xbc;" horiz-adv-x="910" 
d="M732 61l46 -17l-2 -44h-200l-4 43l51 18v49h-182l-20 33l241 267l49 15l20 -9v-240h73v-66h-72v-49zM331 280q-30 1 -63.5 1.5t-66.5 0.5q-35 0 -72 -0.5t-66 -1.5l-2 51l83 19v264l-80 10v50l169 28l21 -20v-334l78 -15zM287 -39h-63l355 759h62zM622 175v124l-96 -124
h96z" />
    <glyph glyph-name="onehalf" unicode="&#xbd;" horiz-adv-x="910" 
d="M661 422q74 0 115.5 -33t41.5 -96q0 -31 -13 -60.5t-36 -57t-55 -52.5t-70 -47l124 5q2 4 8 13t12 19t12 19t8 13q2 0 7.5 -1t12.5 -2.5t12.5 -2.5t7.5 -2l-19 -128l-6 -6t-6 -5q-20 1 -37 1.5t-34.5 0.5h-36h-42.5h-50h-38.5t-34.5 -0.5t-39 -0.5l-14 51l35 22
q36 24 68 48.5t56 50t38 52t14 54.5q0 64 -71 64q-26 0 -55.5 -8t-55.5 -21q-2 3 -6 10.5t-9 16.5t-9.5 16.5t-5.5 9.5q38 25 80 41t91 16zM331 280q-30 1 -63.5 1.5t-66.5 0.5q-35 0 -72 -0.5t-66 -1.5l-2 51l83 19v264l-80 10v50l169 28l21 -20v-334l78 -15zM276 -39h-63
l355 759h62z" />
    <glyph glyph-name="threequarters" unicode="&#xbe;" horiz-adv-x="910" 
d="M749 61l46 -17l-2 -44h-200l-4 43l51 18v49h-182l-20 33l241 267l49 15l20 -9v-240h73v-66h-72v-49zM352 631q-32 -23 -63.5 -45.5t-63.5 -45.5q69 -5 103.5 -39.5t34.5 -86.5q0 -37 -15.5 -64.5t-41 -45.5t-58.5 -26.5t-67 -8.5q-46 0 -84 8t-71 22q5 15 11 31t12 31
q38 -11 67 -15t47 -4q46 0 68.5 20.5t22.5 52.5q0 29 -19.5 46t-65.5 17q-7 0 -19 -1t-26 -4l-23 39q29 25 57.5 50.5t57.5 51.5l-102 -4l-34 -52l-40 7q4 30 8 60.5t9 60.5q4 2 12 8q48 -2 85 -2h78h100zM288 -39h-63l355 759h62zM639 175v124l-96 -124h96z" />
    <glyph glyph-name="quotesinglbase" unicode="&#x201a;" horiz-adv-x="294" 
d="M61 72q0 32 24 56.5t63 24.5q23 0 39.5 -8.5t27.5 -22.5t16 -31.5t5 -36.5q0 -31 -11.5 -63t-32 -61t-48 -54.5t-60.5 -43.5l-28 36q32 33 48 64.5t20 63.5q-31 5 -47 26t-16 50z" />
    <glyph glyph-name="quotedblbase" unicode="&#x201e;" horiz-adv-x="502" 
d="M61 72q0 32 24 56.5t63 24.5q23 0 39.5 -8.5t27.5 -22.5t16 -31.5t5 -36.5q0 -31 -11.5 -63t-32 -61t-48 -54.5t-60.5 -43.5l-28 36q32 33 48 64.5t20 63.5q-31 5 -47 26t-16 50zM269 72q0 32 24.5 56.5t62.5 24.5q23 0 39.5 -8.5t27.5 -22.5t16 -31.5t5 -36.5
q0 -31 -11.5 -63t-32 -61t-48 -54.5t-60.5 -43.5l-28 36q32 33 48 64.5t20 63.5q-30 5 -46.5 26t-16.5 50z" />
    <glyph glyph-name="ellipsis" unicode="&#x2026;" horiz-adv-x="818" 
d="M230 72q0 -35 -24 -60.5t-63 -25.5q-43 0 -64 25.5t-21 60.5t24.5 59t60.5 24q39 0 63 -24t24 -59zM501 72q0 -35 -23.5 -60.5t-62.5 -25.5q-44 0 -64.5 25.5t-20.5 60.5t24.5 59t60.5 24q39 0 62.5 -24t23.5 -59zM764 72q0 -35 -23.5 -60.5t-62.5 -25.5
q-44 0 -64.5 25.5t-20.5 60.5t24.5 59t60.5 24q39 0 62.5 -24t23.5 -59z" />
    <glyph glyph-name="periodcentered" unicode="&#xb7;" horiz-adv-x="288" 
d="M230 246q0 -36 -24 -61t-63 -25q-43 0 -64 25t-21 61q0 35 24.5 59t60.5 24q39 0 63 -24t24 -59z" />
    <glyph glyph-name="exclamdown" unicode="&#xa1;" horiz-adv-x="332" 
d="M195 287l51 -419q2 -15 -1.5 -30t-13 -27t-25.5 -19.5t-40 -7.5q-23 0 -38.5 7.5t-25 19.5t-13.5 26t-2 27l53 423h55zM252 421q0 -35 -24 -59t-62 -24q-36 0 -61 24t-25 59t21 60.5t65 25.5q38 0 62 -25.5t24 -60.5z" />
    <glyph glyph-name="questiondown" unicode="&#xbf;" horiz-adv-x="484" 
d="M234 291q30 -9 54.5 -25t42 -36t27 -42t9.5 -43q0 -34 -25.5 -61t-56.5 -52.5t-56.5 -51t-25.5 -56.5q0 -26 13.5 -49t49.5 -37l121 100q25 -8 45.5 -29t20.5 -53q0 -21 -17.5 -36t-45 -24t-61 -13.5t-64.5 -4.5q-59 0 -100 10t-67.5 28t-38.5 43t-12 55q0 32 14.5 57
t36.5 46t48 40t48 38.5t36.5 41t14.5 48.5q0 15 -10 33t-27 31zM183 418q0 36 24 61t63 25q43 0 64 -25t21 -61q0 -35 -24.5 -59t-60.5 -24q-39 0 -63 24t-24 59z" />
    <glyph glyph-name="oe" unicode="&#x153;" horiz-adv-x="904" 
d="M642 499q70 0 114 -20t69 -51.5t34 -71t10 -77.5l-8 -13l-314 -18q1 -45 11 -75.5t28.5 -48.5t45.5 -25.5t64 -7.5q23 0 61.5 6.5t72.5 19.5l23 -76q-39 -26 -95.5 -40.5t-114.5 -14.5q-63 0 -109.5 18.5t-72.5 53.5q-28 -33 -71.5 -52.5t-100.5 -19.5q-66 0 -113 17.5
t-77 50t-44.5 79t-14.5 105.5q0 52 16 99t48.5 83t81 57.5t114.5 21.5q56 0 98 -19t73 -52q29 32 70.5 51.5t100.5 19.5zM191 254q0 -34 4 -66.5t15 -58.5t30.5 -42t51.5 -16q31 0 50.5 13.5t30.5 36t15.5 51.5t4.5 61t-4.5 65t-16 59.5t-31 43.5t-50.5 17
q-32 0 -51.5 -15.5t-30.5 -39.5t-14.5 -53t-3.5 -56zM707 322q0 20 -3.5 38.5t-11.5 32.5t-22.5 22.5t-36.5 8.5q-25 0 -41.5 -10.5t-26 -28t-14 -39t-4.5 -43.5z" />
    <glyph glyph-name="bullet" unicode="&#x2022;" horiz-adv-x="466" 
d="M366 261q0 -28 -10.5 -52t-28.5 -42t-42 -28.5t-52 -10.5t-52 10.5t-42 28.5t-28.5 42t-10.5 52t10.5 52.5t28.5 42.5t42 28.5t52 10.5t52 -10.5t42 -28.5t28.5 -42.5t10.5 -52.5z" />
    <glyph glyph-name="brokenbar" unicode="&#xa6;" horiz-adv-x="307" 
d="M208 218v-407h-89v407h89zM119 324v382h89v-382h-89z" />
    <glyph glyph-name="Euro" unicode="&#x20ac;" horiz-adv-x="606" 
d="M460 309v-60h-236q4 -33 15 -62.5t32 -51.5t52 -34.5t74 -12.5q23 0 71 5.5t102 20.5l22 -78q-26 -14 -57 -23.5t-61.5 -15.5t-58.5 -9t-48 -3q-136 0 -207.5 65.5t-85.5 198.5h-50v60h436zM25 359v61h54q7 52 27.5 101t56 86.5t87 60t122.5 22.5q24 0 50 -3t53.5 -11
t54.5 -23t52 -40l-18 -139h-57l-19 92q-27 17 -53 23t-54 6q-36 0 -63.5 -14.5t-47 -39t-31.5 -56t-15 -65.5h235v-61h-434z" />
    <glyph glyph-name="guilsinglleft" unicode="&#x2039;" horiz-adv-x="345" 
d="M177 220l108 -180l-39 -29l-186 181v56l184 182l41 -28z" />
    <glyph glyph-name="tilde" unicode="&#x2dc;" horiz-adv-x="514" 
d="M453 691q-3 -25 -11 -49t-22 -42.5t-35 -30t-50 -11.5q-26 0 -45.5 7t-36.5 15.5t-34 15.5t-37 7t-36.5 -9t-28.5 -40l-46 8q1 13 6 36t17.5 45t35 38t59.5 16q19 0 40.5 -7.5t42 -16.5t39 -16.5t33.5 -7.5q22 0 37 10t28 39z" />
    <glyph glyph-name="plusminus" unicode="&#xb1;" horiz-adv-x="606" 
d="M69 0v93h460v-93h-460zM348 378h180v-94h-180v-159h-98v159h-181v94h181v166h98v-166z" />
    <glyph glyph-name="guilsinglright" unicode="&#x203a;" horiz-adv-x="345" 
d="M61 402l41 28l184 -182v-56l-186 -181l-39 29l107 180z" />
    <glyph glyph-name="guillemotleft" unicode="&#xab;" horiz-adv-x="518" 
d="M178 220l108 -180l-39 -29l-185 181v56l184 182l40 -28zM357 220l109 -180l-41 -29l-184 181v56l184 182l41 -28z" />
    <glyph glyph-name="guillemotright" unicode="&#xbb;" horiz-adv-x="518" 
d="M239 402l40 28l184 -182v-56l-185 -181l-39 29l108 180zM59 402l41 28l184 -182v-56l-184 -181l-41 29l108 180z" />
    <glyph glyph-name="asciitilde" unicode="~" horiz-adv-x="606" 
d="M563 319q-5 -28 -14.5 -55.5t-26.5 -49t-42.5 -35t-61.5 -13.5q-32 0 -64 9t-62 19.5t-57.5 19.5t-52.5 9q-26 0 -48.5 -12t-38.5 -47l-53 11q1 15 7.5 41t22 52t44 45t74.5 19q25 0 58.5 -9t67 -20t64 -20t48.5 -9q27 0 47 11.5t37 45.5z" />
    <glyph glyph-name="quoteleft" unicode="&#x2018;" horiz-adv-x="314" 
d="M239 512q0 -31 -23 -54t-61 -23q-22 0 -38 8t-26.5 21t-15.5 30t-5 35q0 29 11 59.5t30.5 58t46.5 51.5t59 41l27 -34q-32 -32 -47 -61t-19 -60q29 -5 45 -24.5t16 -47.5z" />
    <glyph glyph-name="quoteright" unicode="&#x2019;" horiz-adv-x="314" 
d="M75 662q0 32 23.5 54.5t61.5 22.5q43 0 63.5 -29t20.5 -65q0 -29 -11 -59t-30.5 -58t-46.5 -52t-58 -41l-28 34q32 31 47.5 60.5t18.5 60.5q-29 5 -45 24.5t-16 47.5z" />
    <glyph glyph-name="quotedblleft" unicode="&#x201c;" horiz-adv-x="513" 
d="M243 512q0 -31 -23 -54t-61 -23q-22 0 -38 8t-26.5 21t-15.5 30t-5 35q0 29 11 59.5t30.5 58t46 51.5t58.5 41l28 -34q-32 -32 -47 -61t-19 -60q29 -5 45 -24.5t16 -47.5zM434 512q0 -31 -23 -54t-61 -23q-22 0 -38 8t-26.5 21t-15.5 30t-5 35q0 29 11 59.5t31 58
t46.5 51.5t58.5 41l27 -34q-31 -32 -46 -61t-19 -60q29 -5 44.5 -24.5t15.5 -47.5z" />
    <glyph glyph-name="quotedblright" unicode="&#x201d;" horiz-adv-x="513" 
d="M272 662q0 32 23 54.5t61 22.5q43 0 63.5 -29t20.5 -65q0 -29 -11 -59t-30.5 -58t-46.5 -52t-58 -41l-28 34q32 31 47.5 60.5t19.5 60.5q-30 5 -45.5 24.5t-15.5 47.5zM80 662q0 32 23 54.5t61 22.5q43 0 64 -29t21 -65q0 -29 -11 -59t-31 -58t-47 -52t-58 -41l-27 34
q32 31 47 60.5t19 60.5q-29 5 -45 24.5t-16 47.5z" />
    <glyph glyph-name="currency" unicode="&#xa4;" horiz-adv-x="606" 
d="M191 302q0 -23 9 -43.5t24 -35.5t35.5 -24t43.5 -9t43.5 9t35.5 24t24 35.5t9 43.5q0 24 -9 44t-24 35t-35.5 23.5t-43.5 8.5t-43.5 -8.5t-35.5 -23.5t-24 -35t-9 -44zM71 471l61 61l63 -64q27 16 53.5 24.5t54.5 8.5q30 0 56 -7.5t52 -22.5l12.5 12.5l18 18t18 17.5
t13.5 13l60 -60l-63 -63q16 -26 24.5 -53t8.5 -54q0 -30 -7.5 -56t-24.5 -52q4 -4 13 -12.5t18.5 -18t18 -18.5t12.5 -13l-59 -60l-63 63q-53 -33 -108 -33q-29 0 -56 9t-53 24l-63 -64l-60 59l64 63q-32 51 -32 109q0 53 32 106z" />
    <glyph glyph-name="dagger" unicode="&#x2020;" horiz-adv-x="482" 
d="M41 537h158v175h85v-175h157v-83h-157l-1 -523h-85l1 523h-158v83z" />
    <glyph glyph-name="daggerdbl" unicode="&#x2021;" horiz-adv-x="482" 
d="M198 188v266h-158v83h158v175h86l-1 -175h157v-83h-157v-266h159v-82h-159v-175h-86l1 175h-157v82h157z" />
    <glyph glyph-name="space" unicode=" " horiz-adv-x="326" 
 />
    <glyph glyph-name="sfthyphen" unicode="&#xad;" horiz-adv-x="395" 
d="M350 304v-91h-304v91h304z" />
    <glyph glyph-name="florin" unicode="&#x192;" horiz-adv-x="606" 
d="M385 317q-17 -127 -41.5 -218t-58.5 -149t-80 -85.5t-107 -27.5q-26 0 -48.5 6.5t-38.5 18t-24.5 27t-5.5 33.5q3 23 21 39.5t39 23.5l99 -85q14 15 25 35.5t22.5 64.5t24.5 119t30 198h-100v51h109q13 76 33 135.5t51 100.5t73.5 62t99.5 21q25 0 47.5 -6.5t39 -18.5
t25 -27.5t5.5 -33.5q-4 -23 -21.5 -40t-39.5 -24l-98 83q-17 -11 -29 -37.5t-20.5 -61.5t-14 -75t-10.5 -78h124v-51h-131z" />
    <glyph glyph-name="circumflex" unicode="&#x2c6;" horiz-adv-x="537" 
d="M275 638q-5 -3 -18 -11t-31 -19t-37.5 -23.5t-37.5 -23.5t-31 -19.5t-18 -11.5l-37 44l175 172h73l174 -172l-38 -44z" />
    <glyph glyph-name="trademark" unicode="&#x2122;" horiz-adv-x="892" 
d="M610 479q22 51 45.5 104.5t46.5 104.5q14 -1 29.5 -1h35.5l56 1v-7t0.5 -11t1 -11t0.5 -7l-47 -10q5 -60 9.5 -119.5t8.5 -119.5l45 -11l-1 -36h-167l-2 34l41 13q-3 48 -4.5 91.5t-4.5 91.5h-3q-22 -51 -44.5 -109t-43.5 -107h-41l-93 216h-2l-8 -184l46 -10l-2 -36
h-143l-1 35l47 13q5 58 9.5 117.5t8.5 118.5q-11 4 -23 7.5t-23 6.5q0 4 1.5 17.5t2.5 16.5h13t19 -0.5t18.5 -0.5h11.5h34t34 1q2 -10 3.5 -16.5t5.5 -13.5l78 -179h2zM207 686q33 0 74.5 0.5t75.5 1.5q1 0 3 -2l3 -3q0 -6 0.5 -21.5t0.5 -32v-32v-21.5l-30 -4
q-1 4 -5 13.5t-8.5 20t-8.5 20t-5 13.5h-60v-238l47 -12l-1 -36h-170l-2 33l45 15v238h-60q-7 -16 -14 -33.5t-12 -33.5q-3 0 -15 2t-15 2v108q1 1 4.5 2.5t4.5 1.5q33 -1 73 -1.5t75 -0.5z" />
    <glyph glyph-name="dieresis" unicode="&#xa8;" horiz-adv-x="537" 
d="M94 618q0 29 20.5 48.5t49.5 19.5t48.5 -19.5t19.5 -48.5t-19.5 -49.5t-48.5 -20.5t-49.5 20.5t-20.5 49.5zM308 618q0 29 19.5 48.5t48.5 19.5t49.5 -19.5t20.5 -48.5t-20.5 -49.5t-49.5 -20.5t-48.5 20.5t-19.5 49.5z" />
    <glyph glyph-name="macron" unicode="&#xaf;" horiz-adv-x="548" 
d="M459 675v-91h-360v91h360z" />
    <glyph glyph-name="degree" unicode="&#xb0;" horiz-adv-x="435" 
d="M373 569q0 -31 -12 -58t-33.5 -47t-50 -31.5t-61.5 -11.5q-32 0 -60.5 11.5t-49.5 31.5t-33 47t-12 58t12 58t33 47t49 31.5t61 11.5q34 0 63 -11.5t50 -31.5t32.5 -47t11.5 -58zM301 569q0 33 -23.5 57t-61.5 24t-60.5 -23.5t-22.5 -57.5q0 -33 23 -57t60 -24
q38 0 61.5 24t23.5 57z" />
    <glyph glyph-name="cedilla" unicode="&#xb8;" horiz-adv-x="511" 
d="M266 -61q24 -3 44.5 -8t35.5 -15t24 -24.5t9 -36.5q0 -25 -15 -45.5t-41 -35t-61.5 -22.5t-76.5 -8h-13t-12 1v44q21 1 42 4.5t37.5 10t27 15.5t10.5 23q0 13 -8 21.5t-20.5 13.5t-26.5 7t-26 3l-14 21q6 8 20.5 26t30 38.5t29.5 38.5t20 26l40 -25z" />
    <glyph glyph-name="Ccedilla" unicode="&#xc7;" horiz-adv-x="648" 
d="M60 337q0 67 17.5 133t55 118t97.5 84t145 32q39 0 77.5 -7t83.5 -31l23 38h51l1 -224l-50 -7l-45 97q-29 20 -60 26t-63 6q-47 0 -80 -20t-53.5 -55t-30 -81.5t-9.5 -99.5q0 -51 7.5 -96t28.5 -79.5t59 -54.5t98 -20q32 0 81.5 5t104.5 22l23 -86q-25 -14 -54.5 -23.5
t-60 -15.5t-60 -9t-53.5 -4l-35 -46q24 -3 44.5 -8t35.5 -15t24 -24.5t9 -36.5q0 -25 -15 -45.5t-41 -35t-61.5 -22.5t-76.5 -8h-13t-12 1v44q21 1 42 4.5t37.5 10t27 15.5t10.5 23q0 13 -8 21.5t-20.5 13.5t-26.5 7t-26 3l-14 21l62 79q-138 11 -207.5 96.5t-69.5 253.5z
" />
    <glyph glyph-name="Ntilde" unicode="&#xd1;" horiz-adv-x="855" 
d="M633 237l-9 367l-96 26l4 58h288l4 -62l-103 -24q-1 -17 -1.5 -63t-2 -107.5t-2.5 -130t-2 -129.5t-2 -107.5t-1 -63.5l-77 -16l-259 337l-144 190l-4 -1l6 -427l99 -21l-4 -63h-291l-4 59l103 28l13 514l-103 29l7 58q88 -2 151.5 -0.5t92.5 2.5q9 -20 19 -36t19 -28
l172 -227l123 -163zM622 874q-3 -25 -11 -49t-22 -42.5t-35 -30t-50 -11.5q-26 0 -45.5 7t-36.5 15.5t-34 15.5t-37 7t-36.5 -9t-28.5 -40l-46 8q1 13 6 36t17.5 45t35 38t59.5 16q19 0 40.5 -7.5t42 -16.5t39 -16.5t33.5 -7.5q22 0 37 10t28 39z" />
    <glyph glyph-name="ccedilla" unicode="&#xe7;" horiz-adv-x="496" 
d="M40 236q0 64 19.5 113.5t53 82.5t80.5 50t103 17q34 0 65 -6.5t54.5 -19t37 -30.5t13.5 -41q0 -26 -18.5 -47.5t-44.5 -31.5l-112 89q-27 -4 -46 -18t-31 -35.5t-17.5 -49t-5.5 -57.5q0 -38 5.5 -67t20.5 -49t42 -30.5t69 -10.5q20 0 52 5t63 13l22 -79
q-18 -12 -41.5 -21t-47.5 -15t-47.5 -9t-42.5 -3l-36 -47q24 -3 44.5 -8t35.5 -15t24 -24.5t9 -36.5q0 -25 -15 -45.5t-41 -35t-61.5 -22.5t-76.5 -8h-13t-12 1v44q21 1 42 4.5t37.5 10t27 15.5t10.5 23q0 13 -8 21.5t-20.5 13.5t-26.5 7t-26 3l-14 21q4 5 11 14t15.5 20
t18 23t18.5 24q-101 12 -145 74.5t-44 172.5z" />
    <glyph glyph-name="ae" unicode="&#xe6;" horiz-adv-x="831" 
d="M787 266l-314 -24q2 -80 36.5 -116t112.5 -36q23 0 61 7t72 20l22 -76q-40 -26 -95 -40t-113 -14q-73 0 -123 21t-79 62q-23 -18 -45 -35.5t-45 -34.5q-10 -3 -23 -5.5t-26.5 -4t-26.5 -2.5t-22 -1q-41 0 -69.5 12t-46.5 31.5t-26 43.5t-8 49q0 24 9 52.5t43 51.5
q7 6 23.5 13.5t45 15.5t70.5 15.5t101 13.5v28q0 42 -20.5 57t-63.5 15q-27 0 -69 -6t-78 -17q-6 21 -12 42.5t-11 42.5q43 23 99.5 37.5t113.5 14.5q45 0 79.5 -10.5t56.5 -35.5q28 20 65.5 32t86.5 12q70 0 114 -19.5t69 -50.5t34 -70.5t10 -78.5zM229 83q9 0 22.5 2
t29 6.5t31 11.5t28.5 18q-8 21 -13 47.5t-5 54.5q-51 -6 -80 -17t-44 -23t-18.5 -24.5t-3.5 -21.5q0 -24 13 -39t40 -15zM560 424q-25 0 -41.5 -11t-26.5 -28t-14 -38.5t-4 -43.5q40 5 80 9.5t80 9.5q0 19 -3.5 37.5t-11.5 33t-22.5 23t-36.5 8.5z" />
    <glyph glyph-name="cent" unicode="&#xa2;" horiz-adv-x="606" 
d="M343 471l12 97l43 -5l-12 -96q28 -4 54.5 -13t49.5 -20l-1 -123l-48 -7l-33 68q-16 5 -33 7l-34 -270q8 -2 16.5 -2h18.5q19 0 49 4t59 12l18 -67q-17 -11 -39 -19t-45.5 -13t-45.5 -7.5t-39 -2.5h-4l-14 -114l-43 6l14 111q-92 11 -136 67t-44 153q0 51 16 94t46 74
t73.5 48.5t98.5 17.5h3zM241 245q0 -42 11.5 -74.5t46.5 -49.5l32 254q-27 -6 -44.5 -20t-27.5 -32.5t-14 -39t-4 -38.5z" />
    <glyph glyph-name="sterling" unicode="&#xa3;" horiz-adv-x="606" 
d="M60 374h102q8 55 18 104q24 109 84.5 160t142.5 51q15 -1 35 -3.5t42.5 -9.5t47 -19.5t47.5 -32.5l-19 -142h-56q-5 23 -8.5 47t-7.5 48q-18 11 -38.5 16t-39.5 5q-34 0 -55.5 -17.5t-36 -48t-22.5 -71.5t-15 -87h170v-64h-180q-6 -54 -18.5 -114t-41.5 -105
q29 0 61.5 0.5t65.5 1t64 1t57 1.5l62 108l45 -11q-6 -46 -11 -91t-11 -91l-11 -10q-35 0 -66 0.5t-62.5 1t-65 1t-73.5 0.5h-55.5t-63 -0.5l-65 -1t-61.5 -1.5q-2 16 -4 31.5t-4 31.5q20 5 40.5 11.5t40.5 12.5q23 48 36.5 105t21.5 118h-92v64z" />
    <glyph glyph-name="yen" unicode="&#xa5;" horiz-adv-x="606" 
d="M559 281v-57h-181v-141l87 -21l-2 -62h-310l-4 56l82 27v141h-183v57h511zM48 326v57h134l-106 209l-62 23l6 56l200 2q2 -27 9 -50.5t18 -47.5l94 -198h5l90 211l-83 26l3 57l235 1l3 -60q-47 -21 -75 -54t-55 -87l-46 -88h142v-57h-512z" />
    <glyph glyph-name="copyright" unicode="&#xa9;" horiz-adv-x="899" 
d="M450 -24q-87 0 -157 29t-118.5 79t-75 117.5t-26.5 144.5q0 76 28 143.5t78.5 118t119.5 79.5t151 29q81 0 150.5 -29t119.5 -79.5t78.5 -118t28.5 -143.5q0 -77 -28.5 -144.5t-78.5 -117.5t-119.5 -79t-150.5 -29zM450 39q66 0 121.5 24t95.5 65.5t62.5 97.5t22.5 120
t-22.5 120t-63 97.5t-96 65.5t-120.5 24q-66 0 -121.5 -24t-95.5 -65.5t-62.5 -97.5t-22.5 -120t22.5 -120t62.5 -97.5t95.5 -65.5t121.5 -24zM238 337q0 39 11.5 79.5t36.5 73.5t64 54t95 21q26 0 51.5 -5t54.5 -19q2 2 7.5 12t6.5 12h37l1 -142l-39 -6l-27 62
q-20 11 -38.5 15t-41.5 4q-31 0 -52 -13.5t-34 -35.5t-18.5 -50t-5.5 -57q0 -27 5 -55t18.5 -50.5t38.5 -37t64 -14.5q15 0 48.5 3.5t71.5 14.5l15 -57q-18 -9 -39.5 -15.5t-43 -10t-40.5 -5.5t-32 -2q-106 0 -160.5 56t-54.5 168z" />
    <glyph glyph-name="registered" unicode="&#xae;" horiz-adv-x="592" 
d="M296 233q-56 0 -100.5 18.5t-76 51t-48.5 75.5t-17 92q0 50 18 93.5t50.5 76t76.5 51t97 18.5t97.5 -18.5t77 -51t51 -76t18.5 -93.5q0 -49 -18.5 -92t-51 -75.5t-77 -51t-97.5 -18.5zM296 276q43 0 78 15t60.5 41.5t39.5 61.5t14 76t-14 76.5t-39.5 62t-61 41.5
t-77.5 15t-77.5 -15t-61 -41.5t-40 -62t-14.5 -76.5t14 -76t39.5 -61.5t61 -41.5t78.5 -15zM183 606q15 -1 30 -1.5t33 -0.5q14 0 34.5 1t31.5 1q38 2 63.5 -15.5t25.5 -56.5q0 -21 -12.5 -40t-35.5 -30l40 -78l36 -7v-24l-70 -11l-7 5l-49 105q-8 0 -17 0.5t-18 2.5v-73
l37 -8l-2 -25h-124l-2 23l33 9v191l-30 9zM341 530q0 23 -14.5 32t-37.5 9h-10t-11 -1v-79q5 -1 9 -1h8q32 0 44 12.5t12 27.5z" />
    <glyph glyph-name="germandbls" unicode="&#xdf;" horiz-adv-x="651" 
d="M467 116q0 32 -22 59t-49 56q-17 17 -34.5 35.5t-32 39t-24 43.5t-9.5 48q0 31 15.5 51.5t34 38.5t34 37t15.5 49q0 4 -2 16t-9.5 24.5t-24 22.5t-44.5 10q-40 0 -59.5 -27.5t-19.5 -65.5v-530l-22 -23h-188l-3 47l76 32v310h-76v47q20 8 38 16t38 16v39q0 39 12.5 78.5
t40 71t72 51.5t108.5 20q57 0 94 -13t59.5 -33t31.5 -43.5t9 -44.5q0 -35 -16 -57.5t-35.5 -39t-35.5 -30.5t-16 -31q0 -26 14.5 -46t36 -38.5t47 -38t47 -43.5t36 -55t14.5 -73q0 -48 -18.5 -79t-47.5 -49t-65 -25t-70 -7q-37 0 -69 6t-60 14l-7 135l50 8l27 -67
q10 -6 24 -9t25 -3q27 0 43.5 13.5t16.5 36.5z" />
    <glyph glyph-name="eth" unicode="&#xf0;" horiz-adv-x="583" 
d="M261 453q21 0 51 -5t53 -17q-10 32 -31 65.5t-51 65.5q-20 -14 -40 -27l-40 -26l-27 40q18 11 36 23t35 24q-52 44 -117 73l24 65q47 -12 92.5 -31.5t88.5 -48.5l96 64l27 -41l-82 -54q72 -59 119 -146.5t47 -203.5q0 -59 -14 -111t-45.5 -91t-81 -61.5t-121.5 -22.5
q-63 0 -108 18t-74.5 49.5t-43 74t-13.5 90.5q0 49 16 92t45.5 74.5t70 49.5t88.5 18zM291 69q33 0 53 16t31 40.5t15 53.5t4 55q0 23 -3.5 54t-12.5 55q-14 8 -33.5 14.5t-39.5 6.5q-28 0 -49.5 -10.5t-35.5 -29t-21.5 -43.5t-7.5 -54t5 -57t16.5 -50.5t30.5 -36.5t48 -14z
" />
    <glyph glyph-name="divide" unicode="&#xf7;" horiz-adv-x="606" 
d="M228 88q0 31 22 53.5t53 22.5t53 -22.5t22 -53.5t-22 -53t-53 -22t-53 22t-22 53zM228 459q0 31 22 53t53 22t53 -22t22 -53t-22 -53t-53 -22t-53 22t-22 53zM532 321v-94h-459v94h459z" />
    <glyph glyph-name="paragraph" unicode="&#xb6;" horiz-adv-x="613" 
d="M336 -197h-160v54l79 22v428h-26q-41 0 -76 15t-60.5 40.5t-40 60t-14.5 73.5q0 40 14.5 75.5t40.5 62t60.5 42t75.5 15.5h345v-56l-74 -20v-812h-92v807h-61v-793z" />
    <glyph glyph-name="ampersand" unicode="&#x26;" horiz-adv-x="816" 
d="M203 506q0 42 15 74t42.5 53.5t65 32.5t82.5 11q33 0 65 -7t57.5 -19.5t41.5 -31.5t16 -43t-19 -44t-45 -31l-122 93q-33 -4 -48.5 -28.5t-15.5 -53.5q0 -37 16.5 -80.5t42 -85.5t56.5 -80t60 -63q8 10 17.5 24t19 29.5t18 31t14.5 28.5q-19 6 -40.5 12t-42.5 12
q0 13 0.5 25.5t0.5 24.5q56 2 113.5 3.5t112.5 2.5l6 -57q-24 -14 -47.5 -34t-46 -44t-44 -50t-40.5 -51q43 -42 97.5 -73.5t134.5 -57.5l-3 -42q-14 -4 -30.5 -5t-30.5 -1q-69 0 -134 23t-118 61q-31 -28 -61.5 -44t-58 -24.5t-50.5 -10.5t-38 -2q-52 0 -89 14.5
t-60.5 39.5t-34.5 58.5t-11 71.5q0 29 6.5 62.5t24 66.5t46.5 62t74 49q-15 49 -15 98zM334 76q17 0 38.5 6.5t41.5 23.5q-49 43 -91 99.5t-73 120.5q-19 -16 -28.5 -44t-9.5 -59q0 -29 7.5 -56t22.5 -47t38 -32t54 -12z" />
    <glyph glyph-name="trianglebullet" unicode="&#x2023;" horiz-adv-x="557" 
d="M520 284l-439 -257v502z" />
    <glyph glyph-name="arrowleft" unicode="&#x2190;" horiz-adv-x="829" 
d="M769 372v-99h-532l120 -116l-71 -71l-236 237l236 238l71 -71l-120 -118h532z" />
    <glyph glyph-name="arrowup" unicode="&#x2191;" horiz-adv-x="518" 
d="M310 0h-99v516l-116 -119l-71 71l237 236l238 -236l-71 -71l-118 119v-516z" />
    <glyph glyph-name="arrowright" unicode="&#x2192;" horiz-adv-x="829" 
d="M584 372l-120 118l70 71l236 -238l-236 -237l-70 71l120 116h-533v99h533z" />
    <glyph glyph-name="arrowdown" unicode="&#x2193;" horiz-adv-x="518" 
d="M310 187l118 120l71 -71l-238 -236l-237 236l71 71l117 -120v517h98v-517z" />
    <glyph glyph-name="arrowupleft" unicode="&#x2196;" horiz-adv-x="840" 
d="M775 65l-69 -71l-486 484v-168h-99v334h336v-98h-168z" />
    <glyph glyph-name="arrowdownright" unicode="&#x2198;" horiz-adv-x="840" 
d="M121 575l69 70l486 -483v167h99v-333h-336v98h168z" />
    <glyph glyph-name="arrowhookleft" unicode="&#x21a9;" horiz-adv-x="867" 
d="M210 371h443q42 0 58.5 24.5t16.5 59.5v76q0 33 -18 51.5t-57 18.5h-103v96h107q46 0 78.5 -13t52.5 -35.5t29 -54t9 -67.5v-72q0 -83 -44.5 -132.5t-136.5 -49.5h-435l120 -117l-69 -69l-235 236l235 236l69 -69z" />
    <glyph glyph-name="arrowhookright" unicode="&#x21aa;" horiz-adv-x="863" 
d="M522 490l70 69l234 -236l-234 -236l-70 69l121 117h-434q-93 0 -137.5 49.5t-44.5 132.5v72q0 36 9 67.5t29 54t52 35.5t79 13h107v-96h-102q-41 0 -58.5 -18.5t-17.5 -51.5v-76q0 -35 17 -59.5t59 -24.5h442z" />
    <glyph glyph-name="carriagereturnright" unicode="&#x21b3;" horiz-adv-x="854" 
d="M187 371h454l-120 119l70 69l234 -236l-234 -236l-70 69l120 118h-553v419h99v-322z" />
    <glyph glyph-name="carriagereturn" unicode="&#x21b5;" horiz-adv-x="854" 
d="M717 693h98v-419h-552l119 -118l-69 -69l-235 236l235 236l69 -69l-119 -119h454v322z" />
    <glyph glyph-name="pageup" unicode="&#x21de;" horiz-adv-x="510" 
d="M99 366h103v151l-110 -103l-71 72l229 218l234 -218l-71 -72l-114 103v-151h101v-92h-101v-54h101v-90h-101v-130h-97v130h-103v90h103v54h-103v92z" />
    <glyph glyph-name="pagedown" unicode="&#x21df;" horiz-adv-x="510" 
d="M99 429h102v55h-102v89h102v131h98v-131h101v-89h-101v-55h101v-91h-101v-153l114 104l71 -71l-234 -218l-229 218l71 71l109 -104v153h-102v91z" />
    <glyph glyph-name="arrowdashleft" unicode="&#x21e0;" horiz-adv-x="836" 
d="M391 370h99v-97h-99v97zM529 370h99v-97h-99v97zM669 370h99v-97h-99v97zM353 370v-97h-117l121 -118l-71 -70l-235 236l235 238l71 -70l-121 -119h117z" />
    <glyph glyph-name="arrowdashup" unicode="&#x21e1;" horiz-adv-x="522" 
d="M309 395h-98v116l-117 -120l-71 70l237 236l238 -236l-70 -70l-119 120v-116zM309 357v-99h-98v99h98zM309 219v-99h-98v99h98zM309 79v-99h-98v99h98z" />
    <glyph glyph-name="arrowdashright" unicode="&#x21e2;" horiz-adv-x="836" 
d="M584 371l-121 118l70 71l236 -238l-236 -237l-70 71l121 117h-117v98h117zM429 273h-99v98h99v-98zM291 273h-99v98h99v-98zM152 273h-100v98h100v-98z" />
    <glyph glyph-name="arrowdashdown" unicode="&#x21e3;" horiz-adv-x="522" 
d="M308 166l119 120q17 -17 34.5 -35t35.5 -35q-60 -59 -119 -117.5t-119 -116.5l-236 234l70 70l118 -120v116h97v-116zM211 320v99h97v-99h-97zM211 598v99h97v-99h-97zM211 459v98h97v-98h-97z" />
    <glyph glyph-name="arrowtableft" unicode="&#x21e4;" horiz-adv-x="871" 
d="M66 104v435h106v-435h-106zM829 372v-99h-431l120 -116l-71 -71l-235 237l235 238l71 -71l-120 -118h431z" />
    <glyph glyph-name="arrowtabright" unicode="&#x21e5;" horiz-adv-x="871" 
d="M724 104v435h106v-435h-106zM498 372l-120 118l71 71l235 -238l-235 -237l-71 71l120 116h-431v99h431z" />
    <glyph glyph-name="shift" unicode="&#x21e7;" horiz-adv-x="840" 
d="M423 593l-207 -215h94v-301h227v301h93zM37 306l386 397l386 -397h-195v-306h-382v306h-195z" />
    <glyph glyph-name="capslock" unicode="&#x21ea;" horiz-adv-x="840" 
d="M303 -45v-67h228v67h-228zM225 26h382v-207h-382v207zM417 593l-208 -215h94v-200h228v200h93zM30 306l387 397l386 -397h-195v-206h-383v206h-195z" />
    <glyph glyph-name="control" unicode="&#x2303;" horiz-adv-x="745" 
d="M73 412l296 296l297 -296l-66 -68l-231 226l-229 -226z" />
    <glyph glyph-name="command" unicode="&#x2318;" horiz-adv-x="824" 
d="M267 498v56q0 24 -16.5 40.5t-39.5 16.5q-24 0 -41 -16t-17 -41q0 -24 16.5 -40t41.5 -16h56zM566 498h56q24 0 40.5 16.5t16.5 39.5q0 24 -16.5 40.5t-40.5 16.5q-23 0 -39.5 -16t-16.5 -41v-56zM267 199h-56q-25 0 -41.5 -16.5t-16.5 -39.5q0 -25 16.5 -41.5
t41.5 -16.5q24 0 40 16.5t16 41.5v56zM566 199v-56q0 -25 16.5 -41.5t39.5 -16.5q24 0 40.5 16.5t16.5 41.5q0 23 -16.5 39.5t-40.5 16.5h-56zM473 292v113h-113v-113h113zM566 292h56q37 0 65.5 -12t47 -32.5t28 -47.5t9.5 -57t-9.5 -57t-28 -48t-47 -33t-65.5 -12
q-36 0 -63.5 12t-46.5 32.5t-29 48t-10 57.5v56h-113v-56q0 -29 -9.5 -56t-28 -48t-46.5 -33.5t-65 -12.5q-35 0 -62.5 12t-47 32t-30 47.5t-10.5 58.5q0 30 10 57t29.5 47.5t47 32.5t63.5 12h56v113h-56q-30 0 -57.5 12t-48 32.5t-32.5 47.5t-12 57q0 31 11 58t30.5 47.5
t47.5 32.5t61 12q37 0 65 -12t46.5 -32.5t28 -47.5t9.5 -58v-56h113v56q0 31 11 58t30.5 47.5t47 32.5t60.5 12q36 0 64 -12t47 -32.5t29 -48t10 -57.5q0 -29 -12 -56t-32 -47.5t-47.5 -33t-58.5 -12.5h-56v-113z" />
    <glyph glyph-name="enter" unicode="&#x2324;" horiz-adv-x="775" 
d="M676 696v-96h-585v96h585zM86 274l297 312l296 -312l-67 -68l-229 245q-18 -20 -49.5 -53.5t-65 -70t-65 -69.5t-49.5 -52z" />
    <glyph glyph-name="option" unicode="&#x2325;" horiz-adv-x="1188" 
d="M570 681h564v-97h-564v97zM57 681h293l324 -586h460v-95h-532l-324 584h-221v97z" />
    <glyph glyph-name="deleteright" unicode="&#x2326;" horiz-adv-x="1168" 
d="M491 279l-141 -142l-61 61l142 141l-142 142l61 61l141 -141l142 141l61 -61l-142 -142l142 -141l-61 -61zM954 347l-251 255h-511v-510h511zM750 0h-650v695h650l337 -348z" />
    <glyph glyph-name="deleteleft" unicode="&#x232b;" horiz-adv-x="1168" 
d="M556 137l-61 61l141 141l-141 142l61 61l142 -141l140 141l61 -61l-141 -142l141 -141l-61 -61l-140 142zM486 92h511v510h-511l-252 -255zM101 347l338 348h649v-695h-649z" />
    <glyph glyph-name="circlestar" unicode="&#x235f;" horiz-adv-x="804" 
d="M752 346q0 -73 -28 -137.5t-76 -112.5t-112.5 -75.5t-137.5 -27.5t-137 27.5t-112 75.5t-75.5 112.5t-27.5 138.5q0 73 27.5 137.5t75.5 112.5t112.5 75.5t138.5 27.5q73 0 137.5 -28t112.5 -76t75.5 -112.5t27.5 -137.5h-1zM693 346q0 61 -23 115t-63 94t-94 63t-115 23
t-115 -23t-94 -63t-63 -94t-23 -115t23 -114.5t63 -93.5t94 -63t115 -23t115 23t94 63t63 93.5t23 114.5zM521 301l26 -169l-157 76l-141 -76l21 165l-118 117l163 32l75 148l80 -146l164 -34z" />
    <glyph glyph-name="eject" unicode="&#x23cf;" horiz-adv-x="854" 
d="M768 227v-136h-702v136h702zM768 314h-702l351 351z" />
    <glyph glyph-name="blacksquare" unicode="&#x25a0;" horiz-adv-x="875" 
d="M756 40h-633v633h633v-633z" />
    <glyph glyph-name="whitesquare" unicode="&#x25a1;" horiz-adv-x="841" 
d="M164 83h522v527h-522v-527zM81 0v693h687v-693h-687z" />
    <glyph glyph-name="blackuppointing.trangle" unicode="&#x25b2;" horiz-adv-x="820" 
d="M781 176h-702l351 351z" />
    <glyph glyph-name="blackrightpointing.trangle" unicode="&#x25b6;" horiz-adv-x="595" 
d="M138 701l351 -350l-351 -351v701z" />
    <glyph glyph-name="blackdownpointing.trangle" unicode="&#x25bc;" horiz-adv-x="820" 
d="M430 176l-351 351h702z" />
    <glyph glyph-name="blackleftpointing.trangle" unicode="&#x25c0;" horiz-adv-x="595" 
d="M452 0l-351 351l351 350v-701z" />
    <glyph glyph-name="lozenge" unicode="&#x25ca;" horiz-adv-x="530" 
d="M294 -18h-82q-4 8 -17.5 34t-31.5 60.5t-38 73t-38 73t-31.5 60.5t-17.5 35l175 337h82l172 -337zM253 520q-5 -10 -19 -39t-30.5 -61.5t-31 -61.5t-18.5 -39q4 -10 19 -39t32 -62t31.5 -62.5t18.5 -38.5q5 10 19.5 38.5t30.5 61.5t30 62t19 39z" />
    <glyph glyph-name="blackcircle" unicode="&#x25cf;" horiz-adv-x="843" 
d="M744 357q0 -64 -25 -121.5t-68.5 -101t-101 -69t-121.5 -25.5q-65 0 -122.5 25t-101 68.5t-68.5 101t-25 122.5q0 66 26 123.5t69.5 100t101 67.5t120.5 25t120 -25t100.5 -68.5t69.5 -101t26 -121.5z" />
    <glyph glyph-name="umbrella" unicode="&#x2602;" horiz-adv-x="780" 
d="M405 695q55 0 112.5 -27.5t104.5 -73.5t77 -106t30 -124q-16 18 -40 28.5t-50 10.5q-23 0 -45 -9.5t-41 -29.5h-2q-23 39 -75 39q-28 0 -62 -14v-304q0 -42 -25.5 -67.5t-73.5 -25.5q-42 0 -69.5 23.5t-27.5 74.5v13h47v-13q0 -28 13.5 -41t34.5 -13q16 0 26 5t15.5 13
t7.5 18t2 20v296q-14 7 -27 9.5t-25 2.5q-26 0 -46.5 -10t-38.5 -27q-17 20 -40 29.5t-47 9.5q-25 0 -48.5 -9.5t-40.5 -29.5l-1 1q0 64 30.5 123.5t77.5 106t105 74.5t113 28v31h29v-32zM730 363q-1 0 -1 1z" />
    <glyph glyph-name="blackstar" unicode="&#x2605;" horiz-adv-x="814" 
d="M605 254l39 -258l-239 117l-214 -117l32 251l-181 180l249 48l114 226l123 -223l250 -51z" />
    <glyph glyph-name="whitestar" unicode="&#x2606;" horiz-adv-x="838" 
d="M608 257l39 -259l-240 117l-218 -119l33 255l-183 182l254 49l113 225l124 -223l254 -51zM727 415l-213 43l-107 193l-98 -196l-212 -40l153 -153l-27 -216l184 99l206 -99l-35 221z" />
    <glyph glyph-name="ballotbox" unicode="&#x2610;" horiz-adv-x="841" 
d="M164 83h522v527h-522v-527zM81 0v693h687v-693h-687z" />
    <glyph glyph-name="ballotbox.withcheck" unicode="&#x2611;" horiz-adv-x="850" 
d="M81 0v693h687v-693h-687zM163 82h523v479q-43 -42 -87.5 -97.5t-85 -115.5t-74.5 -118.5t-56 -105.5q-56 -11 -84 -27q-8 31 -22 73t-30.5 82.5t-34 73t-32.5 43.5q25 20 49 27.5t38 7.5q9 0 22 -14t25.5 -37t23.5 -52.5t17 -60.5q23 37 56.5 80.5t72 88t79 85t77.5 71.5
q11 12 21 23.5t21 21.5h-519v-528z" />
    <glyph glyph-name="ballotbox.withx" unicode="&#x2612;" horiz-adv-x="850" 
d="M590 571l59 -58l-165 -166l168 -168l-61 -57l-166 166l-168 -169l-58 61l166 165l-166 167l59 59l167 -166zM165 83h522v527h-522v-527zM82 0v693h687v-693h-687z" />
    <glyph glyph-name="radioactive" unicode="&#x2622;" horiz-adv-x="837" 
d="M418 432q16 0 30.5 -7t25 -18t16.5 -25.5t6 -30.5t-6 -30t-16.5 -24.5t-25 -17t-30.5 -6.5q-31 0 -55.5 22t-24.5 56t23.5 57.5t56.5 23.5zM569 89q-79 -41 -154 -41q-81 0 -148 42l98 170q30 -14 54 -14q20 0 50 14zM364 442q-23 -14 -36 -37.5t-16 -53.5h-197
q0 86 35.5 149t114.5 114zM569 615q72 -40 112 -108t40 -156h-197q-6 62 -55 93zM416 684q-68 0 -128 -26.5t-105 -72t-71 -106t-26 -128.5q0 -70 26.5 -130.5t72 -105.5t106.5 -70.5t129 -25.5q66 0 125.5 26.5t105 71.5t72 103.5t26.5 122.5q0 79 -28.5 142t-75 107
t-106.5 68t-123 24zM418 -17q-77 0 -144 28.5t-117 78t-78.5 117t-28.5 144.5q0 67 26 132t74 117t115.5 84t150.5 32q78 0 146 -28t118 -76.5t78.5 -114t28.5 -141.5q0 -77 -28.5 -145t-78 -118.5t-117 -80t-145.5 -29.5z" />
    <glyph glyph-name="biohazard" unicode="&#x2623;" horiz-adv-x="856" 
d="M553 462q-13 -27 -37 -43q-44 30 -86 30q-41 0 -89 -30q-14 8 -22 18.5t-15 24.5q32 21 62 32t62 11q64 0 125 -43zM502 120q-7 12 -11.5 25t-6.5 27q88 44 88 124v12t-1 14q11 7 27 8.5t27 1.5q4 -16 4 -37q0 -54 -33.5 -101t-93.5 -74zM351 120q-28 12 -51 30
t-39.5 41.5t-25.5 50t-9 54.5q0 21 4 38h12q22 -2 42 -12v-30q0 -76 88 -120q-2 -14 -7.5 -27.5t-13.5 -24.5zM272 531q0 -68 38 -107.5t111 -48.5v-22q-23 -5 -32.5 -18.5t-9.5 -27.5q0 -5 1 -9.5t3 -9.5l-19 -10q-60 72 -133 72q-29 0 -56.5 -12t-48.5 -32.5t-34 -47.5
t-13 -57q0 -22 6 -56l-11 -5q-8 25 -13.5 50.5t-5.5 50.5q0 29 8 57t26.5 52.5t48 45t73.5 34.5q0 63 11.5 109.5t35 78t59.5 51t86 28.5l5 -15q-136 -39 -136 -151zM583 533q0 109 -118 148l5 16q91 -20 134 -77t43 -155v-16t-1 -17q78 -31 116 -83.5t38 -119.5
q0 -45 -18 -96l-13 4q8 43 8 65q0 30 -12.5 56.5t-33.5 46t-49.5 30.5t-60.5 11q-40 0 -71.5 -19t-55.5 -52l-23 13q3 10 3 20q0 16 -9 27.5t-30 17.5v22q72 9 110 49.5t38 108.5zM428 53q-42 -32 -81 -42.5t-74 -10.5q-26 0 -49 4t-43.5 14t-40 27t-39.5 43l11 8
q68 -60 117 -60q33 0 62 12.5t50.5 33.5t34 49.5t12.5 60.5q0 12 -2.5 30t-15.5 41l22 13q7 -11 17.5 -14.5t20.5 -3.5q18 0 33 17l23 -12q-17 -41 -17 -72t12 -58.5t33 -48.5t48 -33t57 -12q66 0 122 54l12 -8q-19 -26 -38 -42.5t-39.5 -26t-43.5 -13t-50 -3.5
q-38 0 -77.5 10.5t-76.5 42.5z" />
    <glyph glyph-name="peace" unicode="&#x262e;" horiz-adv-x="834" 
d="M410 713q78 0 145.5 -28t117.5 -76.5t78.5 -113.5t28.5 -139q0 -77 -29 -144t-79.5 -116.5t-118.5 -78t-145 -28.5q-73 0 -138.5 29t-115 78.5t-78.5 116t-29 140.5q0 75 28.5 141t78 114.5t115.5 76.5t141 28zM675 204q18 32 28.5 69t10.5 83q0 58 -19 108t-54.5 88.5
t-86 64.5t-113.5 35v-239zM384 413v239q-60 -8 -110 -33t-86 -64.5t-56 -91.5t-20 -112q0 -27 2.5 -47t7.5 -36t12.5 -31.5t18.5 -33.5zM441 338v-289q59 7 107 34t93 75zM384 338l-197 -180q23 -22 45 -40t45 -32.5t49 -24t58 -14.5v291z" />
    <glyph glyph-name="yingyang" unicode="&#x262f;" horiz-adv-x="828" 
d="M525 174q-21 0 -34.5 15.5t-13.5 33.5q0 23 15.5 37.5t32.5 14.5q22 0 36.5 -16t14.5 -36q0 -22 -15.5 -35.5t-35.5 -13.5zM253 488q0 -20 13 -35t36 -15q22 0 36.5 15t14.5 35q0 18 -14 33.5t-38 15.5q-17 0 -32.5 -13.5t-15.5 -35.5zM50 356q0 82 31.5 148.5t82.5 114
t116 73.5t133 26q82 0 149.5 -29.5t115.5 -79.5t74 -116.5t26 -140.5q0 -82 -29.5 -148.5t-79.5 -114t-115.5 -73t-138.5 -25.5q-81 0 -148.5 30.5t-115.5 81t-74.5 116.5t-26.5 137zM249 649q21 6 42 6q41 0 74.5 -15.5t57 -39t36.5 -51t13 -52.5q0 -51 -19.5 -94.5
t-67.5 -91.5q-21 -21 -29 -51.5t-8 -51.5q0 -74 45.5 -115.5t128.5 -41.5q43 0 85 23.5t75 64.5t53.5 96t20.5 118q0 66 -24.5 128.5t-69.5 110.5t-108 77.5t-141 29.5q-45 0 -87.5 -11.5t-81.5 -34.5z" />
    <glyph glyph-name="recyclable.outline" unicode="&#x2672;" horiz-adv-x="919" 
d="M668 448l-211 21l60 38l-46 81l-124 -185l-169 98l103 166q11 18 27 28t42 10h243q20 0 27.5 -2.5t14.5 -13.5l53 -87l64 38zM50 421h211l85 -183l-60 35l-31 -28q-16 -15 -16 -29q0 -25 31 -25h192v-211h-185q-32 0 -45 10.5t-23 28.5l-113 208q-7 12 -9.5 25t-2.5 27
q0 26 7 50t25 43zM593 372l172 102l95 -176q9 -18 9 -30q0 -11 -3.5 -20.5t-8.5 -18.5l-108 -194q-9 -16 -15.5 -26.5t-13 -17t-15 -9t-21.5 -2.5h-84v-77l-111 175l110 169v-70h109zM199 504l144 -83l120 181q-19 37 -47.5 61t-71.5 24q-29 0 -48 -28zM311 275l-61 131
h-158l47 -32q-19 -18 -29.5 -42.5t-10.5 -50.5q0 -29 9.5 -46.5t25 -27t34.5 -13t37 -3.5h28q-11 8 -11 24q0 20 19 39l42 38zM448 178h-237q-17 0 -28.5 1t-20 2.5t-16 4t-15.5 5.5l88 -163q9 -16 19.5 -25.5t33.5 -9.5h176v185zM686 582l-59 93q-6 10 -13 13.5t-19 3.5
h-204q31 -7 51.5 -33t38.5 -58l56 -100l-37 -23l159 -15l67 145zM611 368l115 -191q19 2 41 10t41 20.5t31.5 28.5t12.5 34q0 7 -2 13t-4 11l-89 159zM587 206l-81 -128l81 -130v45h96q9 0 20.5 5t20.5 21l103 188q-32 -30 -67.5 -37.5t-88.5 -7.5h-84v44z" />
    <glyph glyph-name="recycled.plastics.type1" unicode="&#x2673;" horiz-adv-x="869" 
d="M536 0v-59h-16l-74 95l78 98l13 -2v-59h128q36 0 52.5 12t16.5 32q0 19 -16 46l-100 170l67 39l111 -194q23 -39 23 -73q0 -48 -40.5 -76.5t-102.5 -28.5h-140zM393 73v-73h-213q-60 0 -95 28.5t-35 75.5q0 36 24 78l73 131l-46 25l7 13l118 22l42 -112l-8 -15l-47 29
l-64 -116q-13 -24 -13 -43q0 -18 13.5 -30.5t45.5 -12.5h198zM624 400l-121 21l-6 12l49 27l-71 120q-8 14 -19.5 22t-25.5 8t-27 -10t-21 -25l-99 -174l-64 37l106 185q22 38 49.5 54.5t57.5 16.5q31 0 59.5 -18t46.5 -50l73 -129l51 29l6 -14zM452 120h-55v228l-36 -25v57
l42 30h49v-290z" />
    <glyph glyph-name="recycled.plastics.type2" unicode="&#x2674;" horiz-adv-x="869" 
d="M329 124v46l107 134q14 15 14 33q0 11 -8 20t-23 9q-14 0 -23.5 -11.5t-12.5 -31.5l-52 6q6 42 31 64.5t57 22.5q36 0 60 -20t24 -58q0 -14 -5 -29.5t-16 -29.5l-83 -104h99v-51h-169zM536 0v-59h-16l-74 95l78 98l13 -2v-59h128q36 0 52.5 12t16.5 32q0 19 -16 46
l-100 170l67 39l111 -194q23 -39 23 -73q0 -48 -40.5 -76.5t-102.5 -28.5h-140zM393 73v-73h-213q-60 0 -95 28.5t-35 75.5q0 36 24 78l73 131l-46 25l7 13l118 22l42 -112l-8 -15l-47 29l-64 -116q-13 -24 -13 -43q0 -18 13.5 -30.5t45.5 -12.5h198zM624 400l-121 21l-6 12
l49 27l-71 120q-8 14 -19.5 22t-25.5 8t-27 -10t-21 -25l-99 -174l-64 37l106 185q22 38 49.5 54.5t57.5 16.5q31 0 59.5 -18t46.5 -50l73 -129l51 29l6 -14z" />
    <glyph glyph-name="recycled.plastics.type3" unicode="&#x2675;" horiz-adv-x="869" 
d="M536 0v-59h-16l-74 95l78 98l13 -2v-59h128q36 0 52.5 12t16.5 32q0 19 -16 46l-100 170l67 39l111 -194q23 -39 23 -73q0 -48 -40.5 -76.5t-102.5 -28.5h-140zM393 73v-73h-213q-60 0 -95 28.5t-35 75.5q0 36 24 78l73 131l-46 25l7 13l118 22l42 -112l-8 -15l-47 29
l-64 -116q-13 -24 -13 -43q0 -18 13.5 -30.5t45.5 -12.5h198zM624 400l-121 21l-6 12l49 27l-71 120q-8 14 -19.5 22t-25.5 8t-27 -10t-21 -25l-99 -174l-64 37l106 185q22 38 49.5 54.5t57.5 16.5q31 0 59.5 -18t46.5 -50l73 -129l51 29l6 -14zM505 214q0 -42 -24.5 -67.5
t-66.5 -25.5q-14 0 -27.5 3.5t-25 12.5t-20 24t-12.5 37l51 7q4 -19 13.5 -27t21.5 -8q18 0 28.5 12.5t10.5 30.5q0 19 -10.5 28.5t-26.5 9.5h-29v48h26q16 0 26.5 9.5t10.5 23.5t-10 24t-24 10q-11 0 -20 -9.5t-14 -26.5l-52 6q7 35 31 57.5t55 22.5q45 0 65.5 -25
t20.5 -58q0 -15 -5 -29t-22 -27q17 -14 23 -30t6 -33z" />
    <glyph glyph-name="recycled.plastics.type4" unicode="&#x2676;" horiz-adv-x="869" 
d="M536 0v-59h-16l-74 95l78 98l13 -2v-59h128q36 0 52.5 12t16.5 32q0 19 -16 46l-100 170l67 39l111 -194q23 -39 23 -73q0 -48 -40.5 -76.5t-102.5 -28.5h-140zM393 73v-73h-213q-60 0 -95 28.5t-35 75.5q0 36 24 78l73 131l-46 25l7 13l118 22l42 -112l-8 -15l-47 29
l-64 -116q-13 -24 -13 -43q0 -18 13.5 -30.5t45.5 -12.5h198zM624 400l-121 21l-6 12l49 27l-71 120q-8 14 -19.5 22t-25.5 8t-27 -10t-21 -25l-99 -174l-64 37l106 185q22 38 49.5 54.5t57.5 16.5q31 0 59.5 -18t46.5 -50l73 -129l51 29l6 -14zM477 167v-41h-51v41h-117v43
l96 206h56l-93 -200h58v70h51v-70h22v-49h-22z" />
    <glyph glyph-name="recycled.plastics.type5" unicode="&#x2677;" horiz-adv-x="869" 
d="M536 0v-59h-16l-74 95l78 98l13 -2v-59h128q36 0 52.5 12t16.5 32q0 19 -16 46l-100 170l67 39l111 -194q23 -39 23 -73q0 -48 -40.5 -76.5t-102.5 -28.5h-140zM393 73v-73h-213q-60 0 -95 28.5t-35 75.5q0 36 24 78l73 131l-46 25l7 13l118 22l42 -112l-8 -15l-47 29
l-64 -116q-13 -24 -13 -43q0 -18 13.5 -30.5t45.5 -12.5h198zM624 400l-121 21l-6 12l49 27l-71 120q-8 14 -19.5 22t-25.5 8t-27 -10t-21 -25l-99 -174l-64 37l106 185q22 38 49.5 54.5t57.5 16.5q31 0 59.5 -18t46.5 -50l73 -129l51 29l6 -14zM510 215q0 -41 -22 -69
t-67 -28q-31 0 -54.5 16t-32.5 60l51 10q8 -38 36 -38q13 0 20.5 5.5t11.5 14t5.5 18.5t1.5 19q0 19 -6.5 34.5t-28.5 15.5q-10 0 -18 -7t-15 -18h-47v162h151v-50h-102v-47q10 5 19.5 7t19.5 2q38 0 57.5 -25t19.5 -64v-18z" />
    <glyph glyph-name="recycled.plastics.type6" unicode="&#x2678;" horiz-adv-x="869" 
d="M536 0v-59h-16l-74 95l78 98l13 -2v-59h128q36 0 52.5 12t16.5 32q0 19 -16 46l-100 170l67 39l111 -194q23 -39 23 -73q0 -48 -40.5 -76.5t-102.5 -28.5h-140zM393 73v-73h-213q-60 0 -95 28.5t-35 75.5q0 36 24 78l73 131l-46 25l7 13l118 22l42 -112l-8 -15l-47 29
l-64 -116q-13 -24 -13 -43q0 -18 13.5 -30.5t45.5 -12.5h198zM624 400l-121 21l-6 12l49 27l-71 120q-8 14 -19.5 22t-25.5 8t-27 -10t-21 -25l-99 -174l-64 37l106 185q22 38 49.5 54.5t57.5 16.5q31 0 59.5 -18t46.5 -50l73 -129l51 29l6 -14zM514 211q0 -24 -7.5 -42
t-20 -29t-28.5 -16.5t-33 -5.5q-38 0 -62 22.5t-24 67.5q0 14 3.5 30t12.5 33q17 33 36.5 69t36.5 70h56l-55 -113h6q35 0 57 -25.5t22 -60.5zM460 209q0 20 -10 30t-24 10t-24.5 -10t-10.5 -30t9.5 -31t25.5 -11q14 0 24 11t10 31z" />
    <glyph glyph-name="recycled.plastics.type7" unicode="&#x2679;" horiz-adv-x="869" 
d="M536 0v-59h-16l-74 95l78 98l13 -2v-59h128q36 0 52.5 12t16.5 32q0 19 -16 46l-100 170l67 39l111 -194q23 -39 23 -73q0 -48 -40.5 -76.5t-102.5 -28.5h-140zM393 73v-73h-213q-60 0 -95 28.5t-35 75.5q0 36 24 78l73 131l-46 25l7 13l118 22l42 -112l-8 -15l-47 29
l-64 -116q-13 -24 -13 -43q0 -18 13.5 -30.5t45.5 -12.5h198zM624 400l-121 21l-6 12l49 27l-71 120q-8 14 -19.5 22t-25.5 8t-27 -10t-21 -25l-99 -174l-64 37l106 185q22 38 49.5 54.5t57.5 16.5q31 0 59.5 -18t46.5 -50l73 -129l51 29l6 -14zM412 115h-56l95 239h-61v-41
h-52v92h172v-44z" />
    <glyph glyph-name="recycled.plastics" unicode="&#x267a;" horiz-adv-x="869" 
d="M536 0v-59h-16l-74 95l78 98l13 -2v-59h128q36 0 52.5 12t16.5 32q0 19 -16 46l-100 170l67 39l111 -194q23 -39 23 -73q0 -48 -40.5 -76.5t-102.5 -28.5h-140zM393 73v-73h-213q-60 0 -95 28.5t-35 75.5q0 36 24 78l73 131l-46 25l7 13l118 22l42 -112l-8 -15l-47 29
l-64 -116q-13 -24 -13 -43q0 -18 13.5 -30.5t45.5 -12.5h198zM624 400l-121 21l-6 12l49 27l-71 120q-8 14 -19.5 22t-25.5 8t-27 -10t-21 -25l-99 -174l-64 37l106 185q22 38 49.5 54.5t57.5 16.5q31 0 59.5 -18t46.5 -50l73 -129l51 29l6 -14z" />
    <glyph glyph-name="recyclable" unicode="&#x267b;" horiz-adv-x="889" 
d="M730 616l-82 -144h-167l52 33l-74 133q-12 21 -27.5 34.5t-29.5 21.5h181q28 0 37.5 -6t15.5 -17l46 -82zM321 695q36 0 63.5 -19t42.5 -39l-121 -220l-147 87l83 146q13 17 33 31t46 14zM738 495l86 -148q15 -25 15 -52q0 -24 -11 -44t-28 -34.5t-39 -22.5t-43 -8h-8
l-123 222zM303 290l-46 27l-72 -131q-17 -27 -25 -47.5t-8 -33.5l-88 152q-14 24 -14 39q0 8 5 23l50 86l-41 20h161zM469 80l86 137v-60h149q16 0 44 7.5t51 22.5l-100 -152q-15 -23 -32 -29t-31 -6h-81v-58zM448 0h-189q-11 0 -25.5 4.5t-27.5 14t-22 25.5t-9 40
q0 18 6.5 35.5t17.5 37.5h249v-157z" />
    <glyph glyph-name="recycled" unicode="&#x267c;" horiz-adv-x="836" 
d="M786 352q0 -76 -29 -143t-79 -117t-117 -79t-143 -29t-143 29t-117 79t-79 117t-29 143t29 143t79 117t117 79t143 29t143 -29t117 -79t79 -117t29 -143zM593 538l-34 61q-5 9 -12 13t-27 4h-137q11 -5 22.5 -15t20.5 -26l55 -100l-39 -25h125l62 108zM323 617
q-20 0 -35.5 -9.5t-23.5 -24.5l-62 -109l111 -65l90 165q-12 15 -32.5 29t-47.5 14zM522 403l92 -166h6q16 0 32 6t29 16.5t21 25.5t8 33q0 9 -2 19t-9 20l-64 111zM251 415h-120l30 -14l-38 -64q-5 -8 -5 -19q0 -13 10 -30l69 -111q0 20 23 60l55 97l34 -19zM498 54v43h61
q9 0 22.5 5t24.5 22l75 113q-17 -10 -38.5 -16.5t-32.5 -6.5h-112v46l-64 -102zM418 214h-186q-18 -27 -18 -53q0 -18 6.5 -30.5t16.5 -20t20.5 -10.5t18.5 -3h142v117z" />
    <glyph glyph-name="recycled.partially" unicode="&#x267d;" horiz-adv-x="836" 
d="M786 353q0 -76 -29 -143t-79 -117t-117 -79t-143 -29t-143 29t-117 79t-79 117t-29 143t29 143t79 117t117 79t143 29t143 -29t117 -79t79 -117t29 -143zM767 353q0 72 -27.5 135.5t-74.5 111t-111 75t-136 27.5t-135.5 -27.5t-111 -75t-75 -111t-27.5 -135.5t27.5 -136
t75 -111t111 -74.5t135.5 -27.5t136 27.5t111 74.5t74.5 111t27.5 136zM631 558l-62 -108h-125l39 25l-55 100q-9 16 -20.5 26t-22.5 15h137q20 0 27 -4t12 -13l34 -61zM325 617q27 0 47.5 -14t32.5 -29l-90 -165l-111 65l62 109q8 15 23.5 24.5t35.5 9.5zM637 468l64 -111
q7 -10 9 -20t2 -19q0 -18 -8 -33t-21 -25.5t-29 -16.5t-32 -6h-6l-92 166zM311 315l-34 19l-55 -97q-23 -40 -23 -60l-69 111q-10 17 -10 30q0 11 5 19l38 64l-30 14h120zM436 158l64 102v-46h112q11 0 32.5 6.5t38.5 16.5l-75 -113q-11 -17 -24.5 -22t-22.5 -5h-61v-43z
M420 97h-142q-8 0 -18.5 3t-20.5 10.5t-16.5 20t-6.5 30.5q0 26 18 53h186v-117z" />
    <glyph glyph-name="uni2693" unicode="&#x2693;" horiz-adv-x="698" 
d="M381 68q33 3 70 14.5t81 52.5l-40 35l142 41l-21 -152l-38 41q-54 -55 -111 -79t-115 -29q-58 5 -115 29t-110 79l-38 -41l-22 152l142 -41l-40 -35q22 -21 42 -33.5t39 -19.5t36.5 -10t34.5 -4v397h-128v48h128v12q-27 8 -44 32t-17 53q0 38 26.5 64t63.5 26q18 0 34 -7
t28 -19t19 -28.5t7 -35.5q0 -29 -15.5 -50.5t-40.5 -31.5v-15h130v-48h-130v-397h2z" />
    <glyph glyph-name="warning" unicode="&#x26a0;" horiz-adv-x="884" 
d="M437 525q24 0 36 -13.5t12 -32.5l-29 -281q-2 -8 -8.5 -13t-11.5 -5q-6 0 -12.5 5t-7.5 13l-23 281q0 16 12 31t32 15zM437 75q-6 0 -14 2t-14.5 6.5t-11.5 13t-5 21.5q0 4 2 11t7.5 14t14 11.5t21.5 4.5q17 0 29.5 -11.5t12.5 -31.5q0 -19 -12.5 -30t-29.5 -11zM391 669
q11 19 24 27.5t27 8.5q13 0 25.5 -8.5t22.5 -25.5l331 -588q10 -17 10 -37t-12.5 -33t-40.5 -13h-675q-29 0 -41.5 13.5t-12.5 32.5q0 18 11 37zM125 90q-5 -8 -8.5 -14t-3.5 -11t6 -7t23 -2h597q17 0 23 2t6 7t-4 11.5t-9 14.5l-297 526q-9 17 -19 17q-5 0 -10 -5t-9 -12z
" />
    <glyph glyph-name="telephonelocation" unicode="&#x2706;" horiz-adv-x="432" 
d="M268 501q-26 0 -36 -38t-10 -125q0 -12 2 -36t7 -48.5t14 -43.5t23 -21v-201q-9 0 -24 6t-33 21t-37 41t-34.5 66t-25 95.5t-9.5 130.5q0 113 20.5 183t48 109t54.5 53.5t40 15.5v-208zM281 -12v201h60q8 0 14 -4.5t6 -15.5v-160q0 -8 -4.5 -14.5t-15.5 -6.5h-60z
M281 501v208h60q8 0 14 -6t6 -14v-163q0 -25 -20 -25h-60z" />
    <glyph glyph-name="airplane" unicode="&#x2708;" horiz-adv-x="890" 
d="M566 246l-208 -351h-96l115 351h-191l-61 -80h-75l38 127l-41 126h75l64 -84h192l-112 359h95l207 -359h247q25 0 38 -14.5t13 -31.5q0 -16 -12.5 -29.5t-37.5 -13.5h-250z" />
    <glyph glyph-name="envelope" unicode="&#x2709;" horiz-adv-x="1070" 
d="M353 330l-229 228v-454zM712 337l227 -227v456zM169 64h726l-222 224l-143 -144l-137 136zM162 610l368 -371l366 371h-734zM1005 671v-671h-941v671h941z" />
    <glyph glyph-name="checkmark" unicode="&#x2713;" horiz-adv-x="764" 
d="M756 656q-35 -27 -75.5 -72.5t-82 -102.5t-82.5 -121.5t-78 -127t-67.5 -120t-50.5 -100.5q-36 -8 -62 -16t-39 -16q-7 29 -17.5 66.5t-23.5 77.5t-28 79t-30 71.5t-29.5 54t-26.5 27.5q23 20 52 28.5t49 8.5q13 0 31 -23.5t35.5 -61t31.5 -83.5t19 -91q37 65 91 142.5
t115.5 152.5t126.5 139.5t126 104.5z" />
    <glyph glyph-name="heavymultiplicationx" unicode="&#x2716;" horiz-adv-x="742" 
d="M717 172l-173 -174l-173 175l-173 -175l-173 174l175 172l-175 172l173 174l173 -174l173 174l173 -174l-174 -172z" />
    <glyph glyph-name="heavygreekcross" unicode="&#x271a;" horiz-adv-x="748" 
d="M264 666h230v-218h218v-230h-213v-218h-231v218h-217v230h213v218z" />
    <glyph glyph-name="circledwhitestar" unicode="&#x272a;" horiz-adv-x="796" 
d="M752 346q0 -74 -28 -138.5t-76 -112.5t-112.5 -75.5t-138.5 -27.5t-138.5 27.5t-112.5 75.5t-76 112.5t-28 138.5q0 73 28 138t76 113t112.5 76t138.5 28t138.5 -28t112.5 -76t76 -113t28 -138zM484 468l-96 177l-91 -179l-196 -39l141 -140l-24 -199l170 92l189 -92
l-32 204l137 135z" />
    <glyph glyph-name="rightwards.wideheaded.arrow" unicode="&#x2794;" horiz-adv-x="754" 
d="M250 53l224 224h-440v139h439l-224 223h194l291 -292l-292 -293z" />
    <glyph glyph-name="dotlessi" unicode="&#x131;" horiz-adv-x="367" 
d="M256 75l71 -25l-2 -50h-281l-4 50l76 31v31v54v66.5v68.5t-0.5 59.5t-0.5 40.5l-68 20v52l195 29l12 -5z" />
    <glyph glyph-name="primemod" unicode="&#x2b9;" horiz-adv-x="292" 
d="M26 412l126 303l112 -50l-169 -287z" />
    <glyph glyph-name="caron" unicode="&#x2c7;" horiz-adv-x="548" 
d="M449 753l38 -44l-174 -172h-73l-175 173l37 43q5 -3 18 -11.5t31 -20t37.5 -24t37.5 -24t31 -20.5t18 -12z" />
    <glyph glyph-name="breve" unicode="&#x2d8;" horiz-adv-x="548" 
d="M81 673q4 3 17.5 8.5t28.5 12t28 12.5t18 8q23 -42 52 -65t52 -23q10 0 25 4t33.5 14.5t41 28.5t47.5 47q2 -2 9 -7.5t14.5 -11.5t14.5 -12t9 -8q-48 -73 -101 -106.5t-104 -33.5q-35 0 -64 11.5t-52.5 29.5t-41 41t-28.5 47z" />
    <glyph glyph-name="dotaccent" unicode="&#x2d9;" horiz-adv-x="541" 
d="M363 646q0 -35 -24 -60t-62 -25q-43 0 -64 25t-21 60q0 17 6.5 32t18 26t27 17.5t33.5 6.5q38 0 62 -23.5t24 -58.5z" />
    <glyph glyph-name="ring" unicode="&#x2da;" horiz-adv-x="541" 
d="M281 541q-27 0 -50 9.5t-40.5 26.5t-27 39.5t-9.5 48.5q0 25 9.5 47.5t27 39.5t40.5 27t50 10q26 0 48.5 -10t39.5 -27t26.5 -39.5t9.5 -47.5q0 -26 -10 -49t-26.5 -39.5t-39.5 -26t-48 -9.5zM281 718q-23 0 -38.5 -16t-15.5 -37t15.5 -37.5t38.5 -16.5q20 0 35 16.5
t15 37.5q0 20 -15 36.5t-35 16.5z" />
    <glyph glyph-name="ogonek" unicode="&#x2db;" horiz-adv-x="548" 
d="M380 38q8 -5 14.5 -10t14.5 -10q-32 -31 -45 -62t-13 -58q0 -29 21 -38.5t47 -9.5q17 1 34 3.5t31 6.5l14 -45q-28 -14 -62 -23t-64 -9q-65 0 -92.5 22.5t-27.5 58.5q0 18 5.5 39t19.5 44t39 46t64 45z" />
    <glyph glyph-name="hungarumlaut" unicode="&#x2dd;" horiz-adv-x="541" 
d="M240 772l105 -58l-141 -187l-65 34zM398 772l104 -58l-141 -187l-64 34z" />
    <glyph glyph-name="tonos" unicode="&#x384;" horiz-adv-x="514" 
d="M335 770l94 -75l-166 -166l-59 45z" />
    <glyph glyph-name="dieresistonos" unicode="&#x385;" horiz-adv-x="537" 
d="M55 618q0 29 20 48.5t49 19.5t48.5 -19.5t19.5 -48.5t-19.5 -49.5t-48.5 -20.5t-49 20.5t-20 49.5zM357 618q0 29 20 48.5t49 19.5t49 -19.5t20 -48.5t-20 -49.5t-49 -20.5t-49 20.5t-20 49.5zM282 772l107 -57l-132 -194l-66 33z" />
    <glyph glyph-name="afii00208" unicode="&#x2015;" horiz-adv-x="1000" 
d="M30 209v77h940v-77h-940z" />
    <glyph glyph-name="Dieresis" unicode="&#xf6cb;" horiz-adv-x="741" 
d="M203 804q0 29 20.5 49t49.5 20t48.5 -20t19.5 -49t-19.5 -49t-48.5 -20t-49.5 20t-20.5 49zM417 804q0 29 19.5 49t48.5 20t49.5 -20t20.5 -49t-20.5 -49t-49.5 -20t-48.5 20t-19.5 49z" />
    <glyph glyph-name="lessequal" unicode="&#x2264;" horiz-adv-x="606" 
d="M533 0h-460v85h460v-85zM204 299q14 -5 40 -12.5t57.5 -16.5t66.5 -18.5t67 -18.5t58 -17t40 -12v-93q-19 6 -55 18t-81 26t-94 30t-94 30t-81 25.5t-55 18.5v83q19 7 55 19.5t81 27.5t94 31.5t94 31.5l81 27t55 19v-94l-329 -102v-3z" />
    <glyph glyph-name="greaterequal" unicode="&#x2265;" horiz-adv-x="606" 
d="M73 85h460v-85h-460v85zM402 302q-14 5 -40 13t-58 17.5t-66.5 20.5t-66.5 20.5t-58 17.5t-40 13v94q19 -7 55 -19l81 -27t94 -31.5t94 -31.5t81 -27.5t55 -19.5v-83q-19 -6 -55 -18t-81 -26t-94 -30t-94 -30t-81 -26t-55 -18v93q14 5 40 12.5t58 16.5t66.5 18.5
t66.5 18.5t58 16.5t40 12.5v3z" />
    <glyph glyph-name="Acute" unicode="&#xf6c9;" horiz-adv-x="741" 
d="M483 919l55 -108l-218 -83l-36 64z" />
    <glyph glyph-name="acute" unicode="&#xb4;" horiz-adv-x="610" 
d="M354 770l95 -75l-166 -166l-59 45z" />
    <glyph glyph-name="mu" unicode="&#xb5;" horiz-adv-x="658" 
d="M240 177q0 -41 17.5 -61t57.5 -20q22 0 49.5 9t53.5 24v64.5t0.5 86t0.5 79v43.5l-69 20v52l195 29l11 -6v-410l73 -20v-52l-178 -28l-12 5l-18 73l-4 2l-76 -71q-24 -5 -51 -6t-53 10v-142l83 -25l-3 -54h-286l-4 51l72 28v543l-68 20v52l195 28l12 -5z" />
    <glyph glyph-name="mu" unicode="&#x3bc;" horiz-adv-x="658" 
d="M240 177q0 -41 17.5 -61t57.5 -20q22 0 49.5 9t53.5 24v64.5t0.5 86t0.5 79v43.5l-69 20v52l195 29l11 -6v-410l73 -20v-52l-178 -28l-12 5l-18 73l-4 2l-76 -71q-24 -5 -51 -6t-53 10v-142l83 -25l-3 -54h-286l-4 51l72 28v543l-68 20v52l195 28l12 -5z" />
    <glyph glyph-name="Alphatonos" unicode="&#x386;" horiz-adv-x="745" 
d="M455 214h-223l-44 -132l87 -19l-2 -63h-263l-4 61l82 23l181 468q13 32 24.5 65t21.5 67l116 23l7 -3l245 -621l57 -19l-6 -64h-305l-5 61l76 24zM295 404l-38 -113h172l-38 116l-46 136h-4zM104 744l94 -75l-166 -166l-59 45z" />
    <glyph glyph-name="anoteleia" unicode="&#x387;" horiz-adv-x="288" 
d="M230 355q0 -35 -24 -60t-63 -25q-43 0 -64 25t-21 60t24.5 59.5t60.5 24.5q39 0 63 -24.5t24 -59.5z" />
    <glyph glyph-name="Epsilontonos" unicode="&#x388;" horiz-adv-x="656" 
d="M621 202l-26 -192l-11 -10q-36 0 -68 0.5l-64 1t-66.5 1t-75.5 0.5h-60t-70.5 -0.5t-72.5 -1t-65 -1.5l-7 57l91 27v520l-81 24l7 61q25 -1 61 -1.5t73 -1t69.5 -0.5h52.5q34 0 65 0.5t61.5 1t61.5 1t66 1.5l11 -6l2 -191l-49 -10l-48 113h-41.5t-58 -0.5t-58.5 -0.5h-43
v-200l221 8v-94l-221 8v-223h49.5t65.5 0.5t65.5 1t49.5 0.5l68 117zM-76 744l94 -75l-166 -166l-59 45z" />
    <glyph glyph-name="Etatonos" unicode="&#x389;" horiz-adv-x="851" 
d="M46 688h327l4 -62l-93 -23v-203h279v202l-85 27l4 59h325l4 -62l-96 -23v-516l96 -23l-3 -64h-328l-6 58l89 28v233h-279v-232l93 -23l-4 -64h-329l-4 57l92 29v516l-90 28zM-82 744l94 -75l-166 -166l-59 45z" />
    <glyph glyph-name="Iotatonos" unicode="&#x38a;" horiz-adv-x="463" 
d="M400 0h-336l-4 57l93 28v518l-92 28l4 57h335l3 -61l-98 -23v-519l98 -23zM-65 744l94 -75l-166 -166l-59 45z" />
    <glyph glyph-name="Omicrontonos" unicode="&#x38c;" horiz-adv-x="763" 
d="M703 352q0 -71 -17 -137t-55.5 -117t-100 -82t-150.5 -31q-164 0 -242 91.5t-78 258.5q0 70 17 136.5t55.5 118t101 83t154.5 31.5q78 0 137 -25t98.5 -71t59.5 -111t20 -145zM382 609q-51 0 -83 -24t-49.5 -61.5t-24 -83.5t-6.5 -89q0 -60 8 -109t26.5 -84t50 -54
t78.5 -19q49 0 80.5 22.5t50.5 59t26.5 82t7.5 91.5q0 51 -8 99.5t-27 86t-50.5 60.5t-79.5 23zM-13 744l94 -75l-166 -166l-59 45z" />
    <glyph glyph-name="Upsilontonos" unicode="&#x38e;" horiz-adv-x="677" 
d="M377 384l109 218l-87 25l4 60l266 1l3 -62q-29 -12 -50.5 -26.5t-39 -31.5t-33 -38t-31.5 -48l-104 -175v-221l98 -23l-3 -63h-338l-4 57l93 29v204l-170 311l-85 27l6 59l230 2q2 -28 9 -52t19 -48l103 -205h5zM-106 744l94 -75l-166 -166l-59 45z" />
    <glyph glyph-name="Omegatonos" unicode="&#x38f;" horiz-adv-x="817" 
d="M85 359q0 70 21 132.5t62 110t103 75.5t143 28q80 0 139.5 -27t99.5 -73.5t59.5 -109.5t19.5 -135q0 -43 -9.5 -83t-25.5 -74.5t-37 -62t-44 -46.5l73 4q3 5 9 17.5t13 26t13 26t8 17.5q3 0 9.5 -1.5t14.5 -3t14.5 -3t9.5 -2.5l-18 -161l-14 -14q-41 0 -69 1t-53 1
q-30 0 -61 -0.5t-81 -1.5q-1 4 -3.5 16t-5.5 25.5t-5 25.5t-3 16q35 27 56.5 59t33 68.5t15.5 76t4 81.5q0 50 -11 94t-32.5 77t-53 52t-72.5 19q-81 0 -122 -63t-41 -179q0 -45 4.5 -86.5t16 -78t32.5 -67t54 -53.5l-23 -83q-33 0 -61.5 1t-60.5 1h-64.5t-72.5 -2l-14 14
l-18 161q2 1 9 2t14.5 2.5t14.5 3t10 2.5l44 -88q10 0 32.5 -1t39.5 -2q-26 19 -47 48t-36.5 63.5t-24 73.5t-8.5 80zM26 744l94 -75l-166 -166l-59 45z" />
    <glyph glyph-name="iotadieresistonos" unicode="&#x390;" horiz-adv-x="371" 
d="M254 96l77 -17v-54q-25 -16 -62 -26.5t-73 -10.5q-14 0 -28.5 3t-26 11.5t-19.5 23t-8 38.5l-2 337l-68 20v52l195 29l12 -5zM-44 618q0 29 20 48.5t49 19.5t48.5 -19.5t19.5 -48.5t-19.5 -49.5t-48.5 -20.5t-49 20.5t-20 49.5zM258 618q0 29 20 48.5t49 19.5t49 -19.5
t20 -48.5t-20 -49.5t-49 -20.5t-49 20.5t-20 49.5zM183 772l107 -57l-132 -194l-66 33z" />
    <glyph glyph-name="Alpha" unicode="&#x391;" horiz-adv-x="745" 
d="M455 214h-223l-44 -132l87 -19l-2 -63h-263l-4 61l82 23l181 468q13 32 24.5 65t21.5 67l116 23l7 -3l245 -621l57 -19l-6 -64h-305l-5 61l76 24zM295 404l-38 -113h172l-38 116l-46 136h-4z" />
    <glyph glyph-name="Beta" unicode="&#x392;" horiz-adv-x="704" 
d="M44 629l7 60q42 -2 75 -2h67q48 0 106.5 1.5t103.5 1.5q66 0 107 -17t63.5 -41t30.5 -51t8 -47q0 -29 -11.5 -53.5t-29 -42.5t-37.5 -29.5t-36 -15.5v-4q33 -8 61.5 -24t49.5 -39t33 -54t12 -69q0 -46 -17.5 -83.5t-47.5 -64t-70 -41t-86 -14.5q-49 0 -103 1.5t-109 1.5
q-45 0 -87.5 -0.5t-93.5 -2.5l-5 58l89 27v520zM340 410q39 2 63.5 13.5t37.5 26.5t17.5 30.5t4.5 25.5q0 48 -34.5 69.5t-87.5 21.5q-10 0 -31 -1t-35 -3v-490q16 -5 38 -8t37 -3q75 0 113.5 35t38.5 87q0 26 -7.5 49t-26.5 40t-50 27.5t-78 12.5l-7 59z" />
    <glyph glyph-name="Gamma" unicode="&#x393;" horiz-adv-x="606" 
d="M45 628l6 61q25 -1 61 -1.5t73 -1t69.5 -0.5h52.5q69 0 130 1t131 3l11 -6l2 -191l-50 -10l-47 112h-42.5t-60.5 0.5t-61 0.5h-44l-1 -511l101 -23l-3 -62h-333l-5 57l89 27v520z" />
    <glyph glyph-name="Epsilon" unicode="&#x395;" horiz-adv-x="656" 
d="M621 202l-26 -192l-11 -10q-36 0 -68 0.5l-64 1t-66.5 1t-75.5 0.5h-60t-70.5 -0.5t-72.5 -1t-65 -1.5l-7 57l91 27v520l-81 24l7 61q25 -1 61 -1.5t73 -1t69.5 -0.5h52.5q34 0 65 0.5t61.5 1t61.5 1t66 1.5l11 -6l2 -191l-49 -10l-48 113h-41.5t-58 -0.5t-58.5 -0.5h-43
v-200l221 8v-94l-221 8v-223h49.5t65.5 0.5t65.5 1t49.5 0.5l68 117z" />
    <glyph glyph-name="Zeta" unicode="&#x396;" horiz-adv-x="667" 
d="M602 0q-60 0 -132 0.5t-146 0.5t-146 -0.5t-133 -0.5l-15 52q16 21 46 63.5t67.5 96t78.5 112.5t78.5 112.5t66.5 96t44 63.5l-224 -2l-63 -126l-46 10l18 206l9 6q55 -1 120.5 -1.5t132.5 -0.5t132.5 0.5t120.5 0.5l14 -52q-15 -19 -45 -61t-68 -95.5t-79.5 -113
t-79.5 -113.5t-68 -97t-45 -64l283 4l73 131l45 -9l-29 -211z" />
    <glyph glyph-name="Eta" unicode="&#x397;" horiz-adv-x="851" 
d="M46 688h327l4 -62l-93 -23v-203h279v202l-85 27l4 59h325l4 -62l-96 -23v-516l96 -23l-3 -64h-328l-6 58l89 28v233h-279v-232l93 -23l-4 -64h-329l-4 57l92 29v516l-90 28z" />
    <glyph glyph-name="Theta" unicode="&#x398;" horiz-adv-x="763" 
d="M268 396l231 3v-91l-231 5v83zM703 352q0 -71 -17 -137t-55.5 -117t-100 -82t-150.5 -31q-82 0 -142.5 24t-100 69t-58.5 110t-19 147q0 70 17 136.5t55.5 118t101 83t154.5 31.5q78 0 137 -25.5t98.5 -71.5t59.5 -111t20 -144zM382 609q-51 0 -83 -24t-49.5 -61.5
t-24 -83.5t-6.5 -89q0 -53 8 -101t26.5 -85t50 -58.5t78.5 -21.5q49 0 80.5 22.5t50.5 59t26.5 82t7.5 91.5q0 47 -8 95t-27 86.5t-50.5 63t-79.5 24.5z" />
    <glyph glyph-name="Iota" unicode="&#x399;" horiz-adv-x="463" 
d="M400 0h-336l-4 57l93 28v518l-92 28l4 57h335l3 -61l-98 -23v-519l98 -23z" />
    <glyph glyph-name="Kappa" unicode="&#x39a;" horiz-adv-x="751" 
d="M375 0h-336l-4 57l93 28v518l-92 28l4 57h335l3 -61l-98 -23v-519l98 -23zM745 44l-14 -45l-127 -28l-302 365v21l207 248l-77 24l4 59h264v-62q-29 -14 -53 -28t-45 -30t-40.5 -33.5t-38.5 -37.5l-102 -109z" />
    <glyph glyph-name="Lambda" unicode="&#x39b;" horiz-adv-x="741" 
d="M433 701l245 -620l57 -18l-6 -63h-304l-5 60l77 24l-115 335q-3 10 -8.5 26.5l-11.5 34.5t-12 35t-9 27q-2 0 -2.5 -0.5t-2.5 -0.5q-12 -36 -24 -73t-25 -73l-104 -314l88 -19l-3 -62h-260l-3 60q20 5 40.5 11t41.5 12q43 110 85.5 219t84.5 220q16 39 30.5 80t28.5 82
l108 21z" />
    <glyph glyph-name="Mu" unicode="&#x39c;" horiz-adv-x="1071" 
d="M250 518l-4 -1l-17 -433l101 -21l-5 -63h-288l-4 61l102 26l38 516l-99 29l6 58q37 0 69.5 -0.5t64 -0.5t64 0.5t69.5 0.5q5 -17 8.5 -30.5t9.5 -27.5l97 -222l77 -183h7l87 204l115 259q21 -1 51.5 -1h64t68 0.5t64.5 0.5l3 -62l-100 -24l39 -518l98 -23l-4 -63h-339
l-4 57l91 30l-19 426h-5l-211 -483h-76z" />
    <glyph glyph-name="Nu" unicode="&#x39d;" horiz-adv-x="855" 
d="M633 237l-9 367l-96 26l4 58h288l4 -62l-103 -24q-1 -17 -1.5 -63t-2 -107.5t-2.5 -130t-2 -129.5t-2 -107.5t-1 -63.5l-77 -16l-259 337l-144 190l-4 -1l6 -427l99 -21l-4 -63h-291l-4 59l103 28l13 514l-103 29l7 58q88 -2 151.5 -0.5t92.5 2.5q9 -20 19 -36t19 -28
l172 -227l123 -163z" />
    <glyph glyph-name="Xi" unicode="&#x39e;" horiz-adv-x="673" 
d="M83 219l49 -99l408 8l50 91l48 -11l-26 -198l-11 -10q-36 0 -59.5 0.5t-48.5 1t-58.5 1t-90.5 0.5t-93.5 -0.5t-64 -1t-53 -1t-61.5 -0.5l-11 10l-26 198zM519 570l-365 7l-37 -98l-51 8l1 197l11 6q35 -1 65.5 -1.5l61 -1t64 -1t74.5 -0.5q30 0 64 0.5l68 1t65 1t54 1.5
l11 -6l2 -197l-52 -8zM147 407l377 4v-106l-376 7z" />
    <glyph glyph-name="Omicron" unicode="&#x39f;" horiz-adv-x="763" 
d="M703 352q0 -71 -17 -137t-55.5 -117t-100 -82t-150.5 -31q-164 0 -242 91.5t-78 258.5q0 70 17 136.5t55.5 118t101 83t154.5 31.5q78 0 137 -25t98.5 -71t59.5 -111t20 -145zM382 609q-51 0 -83 -24t-49.5 -61.5t-24 -83.5t-6.5 -89q0 -60 8 -109t26.5 -84t50 -54
t78.5 -19q49 0 80.5 22.5t50.5 59t26.5 82t7.5 91.5q0 51 -8 99.5t-27 86t-50.5 60.5t-79.5 23z" />
    <glyph glyph-name="Pi" unicode="&#x3a0;" horiz-adv-x="849" 
d="M46 688q97 -1 193.5 -2t193.5 -1q94 0 186 1t186 2l4 -61l-96 -23v-518l96 -23l-3 -63h-327l-5 57l88 28v514h-279v-513l93 -23l-4 -63h-328l-4 57l92 28v518l-90 27z" />
    <glyph glyph-name="Rho" unicode="&#x3a1;" horiz-adv-x="663" 
d="M51 687q21 0 39 -0.5t35.5 -1t36 -0.5h40.5q52 0 100 1.5t95 1.5q108 0 172 -50.5t64 -151.5q0 -45 -16 -85.5t-48 -71t-81.5 -49t-115.5 -18.5q-18 0 -43 2t-54 7v-186l99 -22l-3 -63h-332l-4 57l90 28v520l-82 24zM475 474q0 64 -37.5 94t-102.5 30q-30 0 -60 -6v-235
q13 -2 26 -2.5t21 -0.5q46 0 75.5 10.5t47 28t24 39t6.5 42.5z" />
    <glyph glyph-name="Sigma" unicode="&#x3a3;" horiz-adv-x="659" 
d="M393 365l-200 -271q34 0 75.5 0.5t84 1t83.5 1.5t76 2l69 129l45 -9l-25 -211l-10 -8q-60 0 -130.5 0.5t-142.5 0.5t-142 -0.5t-131 -0.5l-15 58q18 21 48 58t63 77t63 77t47 58l-217 293l14 67q55 0 122.5 -0.5t137.5 -0.5t137.5 0.5t122.5 1.5l9 -6l13 -206l-46 -9
l-58 124l-239 3l146 -203v-27z" />
    <glyph glyph-name="Tau" unicode="&#x3a4;" horiz-adv-x="665" 
d="M332 686q72 0 153.5 1t153.5 3l14 -8l2 -207l-50 -7l-56 141h-141v-523l99 -25l-3 -61h-337l-5 55l94 30v524h-140l-56 -141l-50 7l1 207l16 8q71 -2 150.5 -3t154.5 -1z" />
    <glyph glyph-name="Upsilon" unicode="&#x3a5;" horiz-adv-x="677" 
d="M377 384l109 218l-87 25l4 60l266 1l3 -62q-29 -12 -50.5 -26.5t-39 -31.5t-33 -38t-31.5 -48l-104 -175v-221l98 -23l-3 -63h-338l-4 57l93 29v204l-170 311l-85 27l6 59l230 2q2 -28 9 -52t19 -48l103 -205h5z" />
    <glyph glyph-name="Phi" unicode="&#x3a6;" horiz-adv-x="864" 
d="M601 0h-332l-4 57l93 28v32q-79 4 -137 22.5t-95.5 48.5t-56 69.5t-18.5 86.5q0 40 16.5 80.5t53 74t95 56t142.5 27.5v21l-93 28l5 57h332l2 -61l-98 -23v-22q81 -4 138.5 -23t95 -49t55 -69.5t17.5 -84.5q0 -39 -16 -79t-52 -73.5t-94.5 -57t-143.5 -28.5v-33l98 -23z
M667 353q0 26 -9 50.5t-28.5 43.5t-50 31.5t-74.5 15.5v-284q43 3 74 16.5t50.5 33t28.5 44t9 49.5zM201 355q0 -64 40 -102.5t117 -44.5v285q-43 -4 -73 -17t-48.5 -32.5t-27 -42.5t-8.5 -46z" />
    <glyph glyph-name="Chi" unicode="&#x3a7;" horiz-adv-x="712" 
d="M104 602l-75 25l7 59h51h61h60h50q3 -32 17 -64.5t28 -52.5l79 -117l100 153l-80 24l5 59h60.5h75.5h75h60l3 -62q-32 -12 -55.5 -26.5t-43 -31.5t-36 -36.5t-34.5 -41.5l-82 -107l190 -288l82 -29l-6 -66h-308l-5 63l57 18l-109 172l-106 -172l70 -21l-5 -59h-62h-77
t-76.5 -0.5t-60.5 -0.5l-4 62q33 9 58 21t45.5 27.5t38 34.5t35.5 43l97 135z" />
    <glyph glyph-name="Psi" unicode="&#x3a8;" horiz-adv-x="980" 
d="M660 0h-336l-3 57l92 28v104q-54 3 -108 18.5t-97 47t-70 80.5t-27 120v146l-83 29l4 56h209l13 -15v-205q0 -33 6 -64.5t23 -56t48.5 -40.5t81.5 -19v319l-85 26l4 57h322l3 -61l-92 -21v-320q48 3 79 18.5t48.5 39.5t24 55.5t6.5 66.5v201l14 19h205l4 -56l-83 -29
v-146q0 -70 -26.5 -120t-69 -82t-96 -47.5t-106.5 -16.5v-104l98 -23z" />
    <glyph glyph-name="Omega" unicode="&#x3a9;" horiz-adv-x="817" 
d="M85 359q0 70 21 132.5t62 110t103 75.5t143 28q80 0 139.5 -27t99.5 -73.5t59.5 -109.5t19.5 -135q0 -43 -9.5 -83t-25.5 -74.5t-37 -62t-44 -46.5l73 4q3 5 9 17.5t13 26t13 26t8 17.5q3 0 9.5 -1.5t14.5 -3t14.5 -3t9.5 -2.5l-18 -161l-14 -14q-41 0 -69 1t-53 1
q-30 0 -61 -0.5t-81 -1.5q-1 4 -3.5 16t-5.5 25.5t-5 25.5t-3 16q35 27 56.5 59t33 68.5t15.5 76t4 81.5q0 50 -11 94t-32.5 77t-53 52t-72.5 19q-81 0 -122 -63t-41 -179q0 -45 4.5 -86.5t16 -78t32.5 -67t54 -53.5l-23 -83q-33 0 -61.5 1t-60.5 1h-64.5t-72.5 -2l-14 14
l-18 161q2 1 9 2t14.5 2.5t14.5 3t10 2.5l44 -88q10 0 32.5 -1t39.5 -2q-26 19 -47 48t-36.5 63.5t-24 73.5t-8.5 80z" />
    <glyph glyph-name="Iotadieresis" unicode="&#x3aa;" horiz-adv-x="463" 
d="M400 0h-336l-4 57l93 28v518l-92 28l4 57h335l3 -61l-98 -23v-519l98 -23zM56 804q0 29 20.5 49t49.5 20t48.5 -20t19.5 -49t-19.5 -49t-48.5 -20t-49.5 20t-20.5 49zM270 804q0 29 19.5 49t48.5 20t49.5 -20t20.5 -49t-20.5 -49t-49.5 -20t-48.5 20t-19.5 49z" />
    <glyph glyph-name="Upsilondieresis" unicode="&#x3ab;" horiz-adv-x="677" 
d="M377 384l109 218l-87 25l4 60l266 1l3 -62q-29 -12 -50.5 -26.5t-39 -31.5t-33 -38t-31.5 -48l-104 -175v-221l98 -23l-3 -63h-338l-4 57l93 29v204l-170 311l-85 27l6 59l230 2q2 -28 9 -52t19 -48l103 -205h5zM163 804q0 29 20.5 49t49.5 20t48.5 -20t19.5 -49
t-19.5 -49t-48.5 -20t-49.5 20t-20.5 49zM377 804q0 29 19.5 49t48.5 20t49.5 -20t20.5 -49t-20.5 -49t-49.5 -20t-48.5 20t-19.5 49z" />
    <glyph glyph-name="alphatonos" unicode="&#x3ac;" horiz-adv-x="636" 
d="M357 770l94 -75l-166 -166l-59 45zM530 489q-3 -31 -4 -58.5t-1 -55.5l1 -279l77 -17v-54q-25 -16 -61.5 -26.5t-72.5 -10.5q-13 0 -26.5 1.5t-24.5 9t-19 22t-11 41.5h-3l-67 -65q-42 -11 -79 -11q-57 0 -95 20t-61.5 54t-33 78.5t-9.5 93.5q0 51 12.5 99.5t40.5 86
t72.5 60t108.5 22.5q37 0 70.5 -8.5t74.5 -29.5l41 43zM189 250q0 -33 4.5 -61.5t16.5 -49.5t31.5 -33t49.5 -12q23 0 48.5 9t42.5 20l1 271q-17 8 -38.5 11.5t-39.5 3.5q-55 0 -85.5 -39.5t-30.5 -119.5z" />
    <glyph glyph-name="epsilontonos" unicode="&#x3ad;" horiz-adv-x="488" 
d="M262 500q38 0 71.5 -6t59 -17.5t40 -29t14.5 -40.5q0 -26 -18.5 -44.5t-44.5 -29.5q-29 22 -57 43.5t-57 44.5q-35 -2 -56.5 -23t-21.5 -49q0 -21 9.5 -33t26.5 -18t40.5 -7t52.5 -1l10 -10l-19 -72q-8 1 -14.5 1h-12.5q-28 0 -46.5 -5t-29 -13t-14.5 -18t-4 -20
q0 -13 5.5 -24.5t19 -20.5t36 -14t56.5 -5q26 0 60 6t75 17l24 -71q-18 -12 -43 -22t-54 -17.5t-60.5 -11.5t-62.5 -4q-57 0 -97 11.5t-65 31t-36 45t-11 54.5q0 15 5 32.5t14.5 34t25 30t36.5 20.5v2q-41 12 -58.5 41t-17.5 59q0 31 13.5 59t41 49t68.5 33t96 12zM307 770
l94 -75l-166 -166l-59 45z" />
    <glyph glyph-name="etatonos" unicode="&#x3ae;" horiz-adv-x="670" 
d="M243 420q1 0 1.5 -0.5t1.5 -0.5q19 17 37.5 34.5t37.5 34.5q24 6 53.5 9t49.5 3q65 0 103 -32.5t38 -103.5v-268l76 -18v-54q-25 -15 -61.5 -25.5t-72.5 -10.5q-14 0 -28.5 3t-26 11t-19.5 23t-8 38l-2 246q0 41 -15 60.5t-60 19.5q-21 0 -50 -8.5t-53 -22.5l1 -284
q15 -5 30.5 -10t30.5 -10l-3 -54h-262q-2 13 -2.5 25.5t-1.5 25.5l69 27v322l-68 19v52q44 8 87 14.5t87 13.5q4 -1 12 -5zM358 770l94 -75l-166 -166l-59 45z" />
    <glyph glyph-name="iotatonos" unicode="&#x3af;" horiz-adv-x="371" 
d="M254 96l77 -17v-54q-25 -16 -62 -26.5t-73 -10.5q-14 0 -28.5 3t-26 11.5t-19.5 23t-8 38.5l-2 337l-68 20v52l195 29l12 -5zM229 770l94 -75l-166 -166l-59 45z" />
    <glyph glyph-name="upsilondieresistonos" unicode="&#x3b0;" horiz-adv-x="615" 
d="M317 71q32 0 54 15t35 40t18.5 57.5t5.5 68.5q0 42 -7.5 71.5t-20.5 50t-30.5 34.5t-37.5 25q4 14 13.5 28t22 25t27.5 18t31 7q30 0 57 -18t47 -49t31.5 -72t11.5 -87q0 -57 -15 -111t-46.5 -95.5t-81.5 -66.5t-119 -25q-47 0 -88.5 11t-72 36.5t-48 68t-17.5 106.5v191
l-62 19v55l184 25l19 -16v-288q0 -124 89 -124zM82 618q0 29 20 48.5t49 19.5t48.5 -19.5t19.5 -48.5t-19.5 -49.5t-48.5 -20.5t-49 20.5t-20 49.5zM384 618q0 29 20 48.5t49 19.5t49 -19.5t20 -48.5t-20 -49.5t-49 -20.5t-49 20.5t-20 49.5zM309 772l107 -57l-132 -194
l-66 33z" />
    <glyph glyph-name="alpha" unicode="&#x3b1;" horiz-adv-x="636" 
d="M530 489q-3 -31 -4 -58.5t-1 -55.5l1 -279l77 -17v-54q-25 -16 -61.5 -26.5t-72.5 -10.5q-13 0 -26.5 1.5t-24.5 9t-19 22t-11 41.5h-3l-67 -65q-42 -11 -79 -11q-57 0 -95 20t-61.5 54t-33 78.5t-9.5 93.5q0 51 12.5 99.5t40.5 86t72.5 60t108.5 22.5q37 0 70.5 -8.5
t74.5 -29.5l41 43zM189 250q0 -33 4.5 -61.5t16.5 -49.5t31.5 -33t49.5 -12q23 0 48.5 9t42.5 20l1 271q-17 8 -38.5 11.5t-39.5 3.5q-55 0 -85.5 -39.5t-30.5 -119.5z" />
    <glyph glyph-name="beta" unicode="&#x3b2;" horiz-adv-x="589" 
d="M63 461q0 45 12 91.5t39.5 84.5t72 62.5t110.5 24.5q64 0 104 -19t62 -47t30 -61t8 -60q0 -48 -25.5 -85t-63.5 -53q40 -9 65.5 -29t40.5 -46t20.5 -56t5.5 -58q0 -45 -12.5 -85t-38 -71t-65 -49t-93.5 -18q-79 0 -134 23q2 -46 4 -82.5t2 -71.5v-25.5t-1 -25.5
q-27 -13 -58.5 -20t-71.5 -11l-19 14q2 95 4 184.5t2 183.5v305zM264 434q43 5 66 32.5t23 77.5q0 51 -20 74.5t-52 23.5q-38 0 -59.5 -26.5t-21.5 -79.5v-435q40 -17 78 -17q58 0 86.5 36t28.5 103q0 56 -27.5 88.5t-96.5 33.5l-13 73z" />
    <glyph glyph-name="gamma" unicode="&#x3b3;" horiz-adv-x="562" 
d="M312 205l16 56q15 52 31 97t34 77.5t39.5 51t47.5 18.5q30 0 48.5 -24.5t15.5 -66.5q-25 -20 -53 -55.5t-54 -86.5t-48.5 -117t-37.5 -145q4 -28 8.5 -57.5t7.5 -58.5t5 -56.5t2 -49.5l-20 -22q-45 5 -83 15.5t-64 28.5q1 20 5.5 45t9.5 51.5t11 53t12 50.5
q-15 54 -34 106.5t-38.5 100.5t-39.5 90.5t-37 77.5l-82 7l-9 54q35 26 75 43t70 17q37 0 61 -21t41 -74q14 -44 27 -95t26 -111h7z" />
    <glyph glyph-name="delta" unicode="&#x3b4;" horiz-adv-x="581" 
d="M287 -13q-72 0 -119.5 20.5t-76 54.5t-40 76t-11.5 86q0 76 34.5 135t109.5 99q-39 27 -60 54.5t-21 69.5q0 23 9.5 48.5t33.5 46.5t65.5 35t104.5 14q39 0 72.5 -6t58 -18t39 -29t14.5 -38q0 -23 -22 -42.5t-53 -31.5l-117 92q-20 -2 -33 -9t-21.5 -16t-12 -18.5
t-3.5 -18.5q0 -25 22.5 -43t56 -36t73 -38.5t73 -51t56 -74t22.5 -106.5q0 -55 -17 -102t-50 -81t-80 -53t-107 -19zM392 231q0 21 -2.5 45.5t-14 48.5t-34 46t-61.5 38q-48 -17 -70 -66.5t-22 -118.5q0 -75 25 -114.5t76 -39.5q53 0 78 45.5t25 115.5z" />
    <glyph glyph-name="epsilon" unicode="&#x3b5;" horiz-adv-x="488" 
d="M262 500q38 0 71.5 -6t59 -17.5t40 -29t14.5 -40.5q0 -26 -18.5 -44.5t-44.5 -29.5q-29 22 -57 43.5t-57 44.5q-35 -2 -56.5 -23t-21.5 -49q0 -21 9.5 -33t26.5 -18t40.5 -7t52.5 -1l10 -10l-19 -72q-8 1 -14.5 1h-12.5q-28 0 -46.5 -5t-29 -13t-14.5 -18t-4 -20
q0 -13 5.5 -24.5t19 -20.5t36 -14t56.5 -5q26 0 60 6t75 17l24 -71q-18 -12 -43 -22t-54 -17.5t-60.5 -11.5t-62.5 -4q-57 0 -97 11.5t-65 31t-36 45t-11 54.5q0 15 5 32.5t14.5 34t25 30t36.5 20.5v2q-41 12 -58.5 41t-17.5 59q0 31 13.5 59t41 49t68.5 33t96 12z" />
    <glyph glyph-name="zeta" unicode="&#x3b6;" horiz-adv-x="473" 
d="M191 226q0 -19 3.5 -35t14.5 -29.5t30.5 -25t52.5 -21.5q41 -13 76 -22.5t61 -21t40.5 -28t14.5 -43.5q0 -23 -14 -49.5t-42.5 -51.5t-72 -46.5t-102.5 -36.5l-30 74q45 24 75.5 45.5t30.5 34.5q0 6 -9.5 11.5t-23 10t-29.5 8t-28 6.5q-105 26 -151.5 74t-46.5 124
q0 45 19.5 97t54 104t81 100t99.5 85l-2 3q-17 -2 -36.5 -3.5t-39.5 -1.5q-32 0 -60 3t-49 10t-33 18.5t-12 27.5q0 22 18.5 46t59.5 39q38 -23 88.5 -34t122.5 -11q12 0 32 1t41 2t40 2t31 2l18 -14l-9 -53q-66 -37 -123.5 -87.5t-100 -105.5t-66.5 -109.5t-24 -98.5z" />
    <glyph glyph-name="eta" unicode="&#x3b7;" horiz-adv-x="670" 
d="M243 420q1 0 1.5 -0.5t1.5 -0.5q19 17 37.5 34.5t37.5 34.5q24 6 53.5 9t49.5 3q65 0 103 -32.5t38 -103.5v-268l76 -18v-54q-25 -15 -61.5 -25.5t-72.5 -10.5q-14 0 -28.5 3t-26 11t-19.5 23t-8 38l-2 246q0 41 -15 60.5t-60 19.5q-21 0 -50 -8.5t-53 -22.5l1 -284
q15 -5 30.5 -10t30.5 -10l-3 -54h-262q-2 13 -2.5 25.5t-1.5 25.5l69 27v322l-68 19v52q44 8 87 14.5t87 13.5q4 -1 12 -5z" />
    <glyph glyph-name="theta" unicode="&#x3b8;" horiz-adv-x="574" 
d="M534 360q0 -76 -11.5 -144t-40 -119t-76.5 -81t-121 -30q-76 0 -124 31t-75 82t-36.5 117t-9.5 137q0 79 12 147t40.5 117.5t76.5 77.5t120 28q73 0 120.5 -31.5t75.5 -82.5t38.5 -116t10.5 -133zM188 326q1 -64 6 -112.5t16 -81.5t30.5 -49.5t49.5 -16.5t49 17.5
t30.5 51.5t15.5 82t4 110zM387 406q-2 49 -6.5 92t-15.5 75t-30.5 50t-49.5 18q-32 0 -51.5 -19t-30 -51.5t-14 -75.5t-3.5 -91z" />
    <glyph glyph-name="iota" unicode="&#x3b9;" horiz-adv-x="371" 
d="M254 96l77 -17v-54q-25 -16 -62 -26.5t-73 -10.5q-14 0 -28.5 3t-26 11.5t-19.5 23t-8 38.5l-2 337l-68 20v52l195 29l12 -5z" />
    <glyph glyph-name="kappa" unicode="&#x3ba;" horiz-adv-x="597" 
d="M231 248v21l145 150l-57 24l1 45q57 2 117 4t117 4v-49q-48 -18 -90.5 -45t-76.5 -60l-47 -45l247 -253l-10 -40l-114 -30zM221 77l64 -24l-2 -53h-274l-4 50l76 31v32v56v68.5v70.5t-0.5 61.5t-0.5 41.5l-68 20v52l195 29l12 -5z" />
    <glyph glyph-name="lambda" unicode="&#x3bb;" horiz-adv-x="527" 
d="M313 644q35 -130 70.5 -258t71.5 -258q8 -27 20 -33t33 -5l12 -74q-16 -11 -41.5 -18t-57.5 -7q-27 0 -44.5 7.5t-29 21t-18 32t-12.5 40.5l-67 255h-4l-108 -349l-111 -11l-17 15l177 431h37l-43 163l-46 4t-46 5q-2 18 -4.5 36t-5.5 37q41 26 78 36.5t57 10.5
q47 0 68 -22t31 -59z" />
    <glyph glyph-name="nu" unicode="&#x3bd;" horiz-adv-x="592" 
d="M334 157h4q7 18 20.5 53t27.5 74t27 74t21 53l-70 24v54l207 5l6 -51q-32 -27 -55 -65t-44 -83l-131 -292l-86 -17q-11 23 -26.5 57t-33.5 74t-36.5 82.5t-36.5 82.5t-33.5 74t-26.5 57l-48 19v53l198 8q2 -26 10 -55.5t19 -56.5z" />
    <glyph glyph-name="xi" unicode="&#x3be;" horiz-adv-x="452" 
d="M283 723q39 0 73 -6.5t59 -18.5t39 -29.5t14 -39.5q0 -23 -16.5 -46.5t-45.5 -34.5l-125 96q-23 -1 -38.5 -11t-25 -25t-14 -33.5t-4.5 -37.5q0 -28 10.5 -48t33.5 -32.5t60.5 -18.5t90.5 -6l9 -12l-19 -75q-9 1 -18 1h-17q-86 0 -125 -33.5t-39 -83.5q0 -35 21 -56
t71 -44q41 -19 75 -33.5t58 -28.5t37.5 -31t13.5 -41q0 -20 -11.5 -42.5t-31.5 -44.5t-48 -43t-61 -38l-53 61q31 29 45 48t14 30q0 5 -7 10t-17.5 9.5t-22.5 9t-23 7.5q-50 19 -89 38.5t-65.5 44.5t-40.5 57t-14 76q0 21 5 46t18.5 49t38.5 44.5t65 32.5v1
q-49 16 -80.5 53.5t-31.5 95.5q0 41 16 74.5t46 57.5t73 37.5t97 13.5z" />
    <glyph glyph-name="omicron" unicode="&#x3bf;" horiz-adv-x="583" 
d="M543 247q0 -51 -15 -98t-46.5 -83.5t-79.5 -58t-113 -21.5q-66 0 -113 17.5t-77 50t-44.5 79t-14.5 105.5q0 52 16 99t48.5 83t81 57.5t114.5 21.5q60 0 105.5 -17.5t76 -50.5t46 -79.5t15.5 -104.5zM191 254q0 -34 4 -66.5t15 -58.5t30.5 -42t51.5 -16q31 0 50.5 13.5
t30.5 36t15.5 51.5t4.5 61t-4.5 65t-16 59.5t-31 43.5t-50.5 17q-32 0 -51.5 -15.5t-30.5 -39.5t-14.5 -53t-3.5 -56z" />
    <glyph glyph-name="pi" unicode="&#x3c0;" horiz-adv-x="685" 
d="M564 96l76 -17v-54q-24 -16 -61 -26.5t-73 -10.5q-14 0 -28.5 3t-26.5 11.5t-19.5 23t-7.5 38.5l-1 331q-13 0 -38 0.5t-52 1t-52 1t-37 0.5v-42.5v-60t0.5 -67.5t0.5 -65.5t0.5 -54t0.5 -33.5l61 -20l-4 -55h-261l-4 52l69 27v322q-6 0 -17.5 0.5t-24 0.5t-23.5 0.5
t-17 0.5v79l10 7l609 4l9 -10q-2 -23 -9.5 -51t-13.5 -39h-65z" />
    <glyph glyph-name="rho" unicode="&#x3c1;" horiz-adv-x="568" 
d="M294 500q64 0 108 -22.5t71.5 -58t39.5 -80.5t12 -90q0 -55 -13 -103t-40.5 -83t-69.5 -55.5t-100 -20.5q-30 0 -55.5 4.5t-59.5 17.5q4 -59 5 -108t1 -103q-20 -11 -55 -20t-80 -11l-22 15q1 25 2 67t2 87t2 86.5t1 67.5v149q0 57 17 105t49.5 82.5t79 54t105.5 19.5z
M375 237q0 28 -4 58.5t-15 56t-30.5 42.5t-50.5 17q-29 0 -46.5 -12.5t-27 -30t-12.5 -37.5t-3 -35v-196q17 -6 39.5 -10t39.5 -4q55 0 82.5 38.5t27.5 112.5z" />
    <glyph glyph-name="sigma1" unicode="&#x3c2;" horiz-adv-x="487" 
d="M192 260q0 -26 4 -45t16.5 -34.5t35.5 -30t61 -30.5q31 -14 57 -26t45 -25.5t29 -29.5t10 -37q0 -20 -11.5 -42t-32 -44t-48 -42.5t-60.5 -37.5l-54 62q32 29 46 48t14 30q0 4 -9 10.5t-22.5 13.5t-28.5 13t-26 10q-46 19 -79 40t-54.5 47.5t-31.5 60.5t-10 78
q0 47 13.5 92t43 80t76.5 56.5t114 21.5q36 0 68 -6.5t56 -19t38 -30.5t14 -40q0 -26 -18 -47.5t-44 -32.5l-113 88q-48 -5 -73.5 -44.5t-25.5 -106.5z" />
    <glyph glyph-name="sigma" unicode="&#x3c3;" horiz-adv-x="626" 
d="M485 394q31 -30 43 -68t14 -80q2 -47 -11.5 -93t-44 -82.5t-79.5 -59t-118 -22.5q-66 0 -113 17.5t-77 49.5t-44.5 77.5t-14.5 102.5q0 49 16 95.5t48.5 81.5t81 56.5t114.5 21.5l300 2l10 -13q-3 -21 -9 -43t-17 -44q-16 0 -43.5 1.5t-53.5 3.5zM191 252q0 -33 4 -65.5
t15 -57.5t30.5 -40.5t50.5 -15.5t50.5 13t30.5 35t15.5 50.5t4.5 60.5t-4.5 64t-16 57.5t-31 41.5t-50.5 16q-32 0 -51.5 -14.5t-30 -37.5t-14 -51t-3.5 -56z" />
    <glyph glyph-name="tau" unicode="&#x3c4;" horiz-adv-x="464" 
d="M16 489l386 4l9 -10q-2 -12 -5 -25t-6 -25t-6 -22t-6 -16h-128v-232q0 -38 15 -55.5t56 -17.5q19 0 39 2.5t51 7.5l18 -78q-40 -17 -80.5 -26t-82.5 -9q-38 0 -64.5 6.5t-46.5 21.5q-21 16 -33 42t-12 62q0 64 -0.5 137t-0.5 142q-36 1 -66.5 2t-46.5 2v80z" />
    <glyph glyph-name="upsilon" unicode="&#x3c5;" horiz-adv-x="615" 
d="M317 71q32 0 54 15t35 40t18.5 57.5t5.5 68.5q0 42 -7.5 71.5t-20.5 50t-30.5 34.5t-37.5 25q4 14 13.5 28t22 25t27.5 18t31 7q30 0 57 -18t47 -49t31.5 -72t11.5 -87q0 -57 -15 -111t-46.5 -95.5t-81.5 -66.5t-119 -25q-47 0 -88.5 11t-72 36.5t-48 68t-17.5 106.5v191
l-62 19v55l184 25l19 -16v-288q0 -124 89 -124z" />
    <glyph glyph-name="phi" unicode="&#x3c6;" horiz-adv-x="783" 
d="M455 -19q1 -33 1.5 -55.5t0.5 -41v-37v-42.5q-27 -11 -55.5 -18.5t-69.5 -10.5l-20 14l5 191q-87 4 -141 27.5t-84.5 59.5t-41 81t-10.5 93q0 37 9.5 75t31 71t56 59.5t84.5 40.5l36 -70q-38 -24 -52 -67.5t-14 -108.5q0 -35 5 -65.5t18.5 -54t38 -38t62.5 -16.5v165
q0 22 0.5 45.5t3 46.5t8 43t15.5 34q12 18 30.5 35.5t41.5 31.5t50.5 22.5t59.5 8.5q58 0 99.5 -18.5t68 -51.5t39 -77t12.5 -95q0 -56 -19.5 -104t-57 -85t-91 -60t-120.5 -28zM455 65q42 4 68.5 21.5t42.5 43.5t22 57.5t6 63.5q0 34 -4.5 64.5t-14 53.5t-24.5 36t-36 13
q-30 0 -45 -22.5t-15 -48.5v-282z" />
    <glyph glyph-name="chi" unicode="&#x3c7;" horiz-adv-x="583" 
d="M389 -8q-23 38 -53 81.5t-57 80.5q-5 -6 -13 -17t-17 -22.5t-16.5 -21.5t-10.5 -15l59 -23l-3 -55h-266l-2 58q58 17 94.5 42.5t67.5 56.5l62 63q-35 47 -67.5 92.5t-69.5 97.5l-72 22v53l210 8q4 -32 20.5 -62.5t30.5 -50.5l33 -49q4 6 13 17.5t18.5 24t18.5 23.5t12 16
l-59 22l1 53l232 6l7 -57q-34 -19 -67.5 -45t-62.5 -57l-69 -69q32 -48 70.5 -97.5t72.5 -94.5l67 -19l-3 -54z" />
    <glyph glyph-name="psi" unicode="&#x3c8;" horiz-adv-x="799" 
d="M473 72q68 8 104 59t36 129q0 66 -21.5 109t-62.5 67q4 14 13.5 27.5t22 24.5t27 18t30.5 7q33 0 58 -17.5t42 -47.5t25.5 -70.5t8.5 -86.5q0 -56 -17.5 -108t-53 -94t-88.5 -69.5t-124 -33.5v-27.5t0.5 -38.5t0.5 -38.5v-27.5l71 -26q0 -3 -0.5 -10t-0.5 -14.5
t-0.5 -14.5t-0.5 -10h-277q0 2 -0.5 9t-1 15.5t-1 15.5t-0.5 9l76 32v128q-55 4 -101.5 21.5t-80.5 48t-53 74.5t-19 100v169q-4 1 -12.5 3.5t-17.5 5.5t-17 5.5t-12 3.5v54l180 26l19 -16v-254q0 -30 6 -56.5t19.5 -47t35 -34t53.5 -17.5q0 72 -0.5 149.5t-0.5 149.5v133
v99q-8 2 -25 7.5t-24 7.5v52l171 29l11 -5z" />
    <glyph glyph-name="omega" unicode="&#x3c9;" horiz-adv-x="827" 
d="M466 365l15 -16q0 -23 -0.5 -41t-0.5 -37q0 -45 1.5 -81t8.5 -61.5t20.5 -39t36.5 -13.5q47 0 69 44t22 120q0 70 -17.5 117t-72.5 72l18 68q61 -6 103.5 -27.5t68.5 -54.5t37.5 -76.5t11.5 -92.5q0 -58 -18 -106t-51.5 -82.5t-81.5 -53.5t-107 -19q-48 0 -86 23t-55 58
q-9 -12 -24.5 -25.5t-35.5 -25.5t-43 -20t-47 -8q-44 0 -80.5 15t-62.5 46t-40.5 77.5t-14.5 108.5q0 106 54.5 176t163.5 87l18 -68q-26 -12 -43 -30t-26.5 -41.5t-13 -53t-3.5 -64.5q0 -78 20 -114t67 -36q19 0 33 7.5t23.5 27t14.5 53.5t5 87v69l8 10z" />
    <glyph glyph-name="iotadieresis" unicode="&#x3ca;" horiz-adv-x="371" 
d="M254 96l77 -17v-54q-25 -16 -62 -26.5t-73 -10.5q-14 0 -28.5 3t-26 11.5t-19.5 23t-8 38.5l-2 337l-68 20v52l195 29l12 -5zM-8 618q0 29 20.5 48.5t49.5 19.5t48.5 -19.5t19.5 -48.5t-19.5 -49.5t-48.5 -20.5t-49.5 20.5t-20.5 49.5zM206 618q0 29 19.5 48.5t48.5 19.5
t49.5 -19.5t20.5 -48.5t-20.5 -49.5t-49.5 -20.5t-48.5 20.5t-19.5 49.5z" />
    <glyph glyph-name="upsilondieresis" unicode="&#x3cb;" horiz-adv-x="615" 
d="M317 71q32 0 54 15t35 40t18.5 57.5t5.5 68.5q0 42 -7.5 71.5t-20.5 50t-30.5 34.5t-37.5 25q4 14 13.5 28t22 25t27.5 18t31 7q30 0 57 -18t47 -49t31.5 -72t11.5 -87q0 -57 -15 -111t-46.5 -95.5t-81.5 -66.5t-119 -25q-47 0 -88.5 11t-72 36.5t-48 68t-17.5 106.5v191
l-62 19v55l184 25l19 -16v-288q0 -124 89 -124zM111 618q0 29 20.5 48.5t49.5 19.5t48.5 -19.5t19.5 -48.5t-19.5 -49.5t-48.5 -20.5t-49.5 20.5t-20.5 49.5zM325 618q0 29 19.5 48.5t48.5 19.5t49.5 -19.5t20.5 -48.5t-20.5 -49.5t-49.5 -20.5t-48.5 20.5t-19.5 49.5z" />
    <glyph glyph-name="omicrontonos" unicode="&#x3cc;" horiz-adv-x="583" 
d="M543 247q0 -51 -15 -98t-46.5 -83.5t-79.5 -58t-113 -21.5q-66 0 -113 17.5t-77 50t-44.5 79t-14.5 105.5q0 52 16 99t48.5 83t81 57.5t114.5 21.5q61 0 106.5 -17.5t76 -50.5t45.5 -79.5t15 -104.5zM191 254q0 -37 4 -70t15 -58t30.5 -40t51.5 -15q31 0 50.5 13.5
t30.5 36t15.5 51.5t4.5 61q0 34 -4.5 67t-16 59.5t-31 42.5t-50.5 16q-32 0 -51.5 -15t-30.5 -38.5t-14.5 -52.5t-3.5 -58zM363 770l94 -75l-166 -166l-59 45z" />
    <glyph glyph-name="upsilontonos" unicode="&#x3cd;" horiz-adv-x="615" 
d="M317 71q32 0 54 15t35 40t18.5 57.5t5.5 68.5q0 42 -7.5 71.5t-20.5 50t-30.5 34.5t-37.5 25q4 14 13.5 28t22 25t27.5 18t31 7q30 0 57 -18t47 -49t31.5 -72t11.5 -87q0 -57 -15 -111t-46.5 -95.5t-81.5 -66.5t-119 -25q-47 0 -88.5 11t-72 36.5t-48 68t-17.5 106.5v191
l-62 19v55l184 25l19 -16v-288q0 -124 89 -124zM355 770l94 -75l-166 -166l-59 45z" />
    <glyph glyph-name="omegatonos" unicode="&#x3ce;" horiz-adv-x="827" 
d="M466 365l15 -16q0 -23 -0.5 -41t-0.5 -37q0 -45 1.5 -81t8.5 -61.5t20.5 -39t36.5 -13.5q47 0 69 44t22 120q0 70 -17.5 117t-72.5 72l18 68q61 -6 103.5 -27.5t68.5 -54.5t37.5 -76.5t11.5 -92.5q0 -58 -18 -106t-51.5 -82.5t-81.5 -53.5t-107 -19q-48 0 -86 23t-55 58
q-9 -12 -24.5 -25.5t-35.5 -25.5t-43 -20t-47 -8q-44 0 -80.5 15t-62.5 46t-40.5 77.5t-14.5 108.5q0 106 54.5 176t163.5 87l18 -68q-26 -12 -43 -30t-26.5 -41.5t-13 -53t-3.5 -64.5q0 -78 20 -114t67 -36q19 0 33 7.5t23.5 27t14.5 53.5t5 87v69l8 10zM475 770l94 -75
l-166 -166l-59 45z" />
    <glyph glyph-name="Delta" unicode="&#x394;" horiz-adv-x="741" 
d="M424 706q72 -162 141.5 -322t141.5 -321l-10 -63h-654l-9 60q51 116 100 231t99 232q9 19 16.5 36.5t15 36.5t16 41t18.5 49q28 5 57.5 12t57.5 13zM146 91q92 1 181 2t183 3l-96 236l-83 215q-2 0 -2.5 -0.5t-2.5 -0.5z" />
    <glyph glyph-name="Delta" unicode="&#x2206;" horiz-adv-x="741" 
d="M424 706q72 -162 141.5 -322t141.5 -321l-10 -63h-654l-9 60q51 116 100 231t99 232q9 19 16.5 36.5t15 36.5t16 41t18.5 49q28 5 57.5 12t57.5 13zM146 91q92 1 181 2t183 3l-96 236l-83 215q-2 0 -2.5 -0.5t-2.5 -0.5z" />
    <glyph glyph-name="integral" unicode="&#x222b;" horiz-adv-x="438" 
d="M306 750q19 0 37 -6t32 -16.5t22 -24t8 -29.5q0 -20 -12.5 -37t-32.5 -25l-95 48q-6 -8 -8.5 -26t-2.5 -44q0 -13 1.5 -42t3.5 -67t4.5 -81.5t5.5 -85.5t5 -79t4 -62q4 -65 -2 -126.5t-24.5 -109t-50 -76t-78.5 -28.5q-19 0 -36.5 6t-31.5 16t-22.5 23.5t-8.5 29.5
q0 20 12 37.5t32 26.5q25 -12 49.5 -24.5t49.5 -25.5q5 5 8 19t3 43q0 20 -3 53q-3 51 -8 112.5t-9 121t-7 110.5t-3 83q0 142 40 214t118 72z" />
    <glyph glyph-name="AE" unicode="&#xc6;" horiz-adv-x="1034" 
d="M349 690q80 -2 157 -3.5t148 -1.5q69 0 142.5 1.5t143.5 3.5l11 -6l2 -191l-50 -10l-48 112h-41.5t-58 -0.5t-58 -0.5h-42.5v-207l220 8v-94l-220 8v-214h49.5t65 0.5t65 1t49.5 0.5l68 116l47 -11l-26 -192l-11 -10q-36 0 -68 0.5t-64.5 1t-67.5 1t-76 0.5h-60
t-70.5 -0.5t-72.5 -1t-65 -1.5l-6 60l90 28v137h-222l-86 -145l82 -20l-4 -60h-264l-4 58l83 23l338 525l-83 22zM321 301h181v292l-5 -1z" />
    <glyph glyph-name="section" unicode="&#xa7;" horiz-adv-x="556" 
d="M276 606q0 -17 8 -34.5t20 -35t26.5 -34t27.5 -31.5q23 -26 47.5 -56t44.5 -64.5t32.5 -74.5t12.5 -85q0 -51 -15.5 -105t-48.5 -98.5t-84 -73t-123 -28.5q-25 0 -47.5 6.5t-40 18.5t-27.5 28t-10 36q0 23 17 41.5t42 27.5l124 -90q11 10 16 22.5t5 24.5q0 19 -8 38.5
t-21 38t-28 36.5t-28 33q-25 26 -50 56t-45 64.5t-32.5 74.5t-12.5 86q0 52 18.5 105t52.5 96t82.5 70t108.5 27q30 0 55.5 -6.5t44 -18t29 -27.5t10.5 -35q0 -23 -17 -42t-42 -29l-122 87q-11 -8 -16.5 -21.5t-5.5 -27.5zM194 574q-1 0 -1.5 0.5t-1.5 0.5
q-14 -19 -21 -44.5t-7 -48.5q0 -33 10 -63t25.5 -57t36 -52t41.5 -49q21 -23 40.5 -46t34.5 -47t24.5 -48.5t10.5 -51.5v-12.5t-1 -12.5q1 0 1.5 -0.5t1.5 -0.5q22 41 22 85q0 28 -6.5 53.5t-20.5 52t-37 57t-57 70.5q-43 54 -65 96.5t-27 87.5z" />
    <glyph glyph-name="Circumflex" unicode="&#xf6c0;" horiz-adv-x="741" 
d="M378 820l-172 -95l-38 43l176 159h73l174 -159l-39 -43z" />
    <glyph glyph-name="commaaccent" unicode="&#xf6c3;" horiz-adv-x="752" 
d="M315 -136q0 32 24.5 56.5t63.5 24.5q22 0 39 -8.5t27.5 -22.5t16 -31.5t5.5 -36.5q0 -55 -39 -103.5t-105 -84.5l-28 36q29 25 43 46t20 48q-32 5 -49.5 26t-17.5 50z" />
    <glyph glyph-name="Caron" unicode="&#xf6ca;" horiz-adv-x="741" 
d="M544 931l38 -43l-174 -159h-73l-175 159l37 43q7 -5 32 -18.5t54 -29t54.5 -29.5t32.5 -18z" />
    <glyph glyph-name="DieresisAcute" unicode="&#xf6cc;" horiz-adv-x="741" 
d="M149 804q0 29 20 49t49 20t49 -20t20 -49t-20 -49t-49 -20t-49 20t-20 49zM489 804q0 29 19.5 49t48.5 20t49 -20t20 -49t-20 -49t-49 -20t-48.5 20t-19.5 49zM428 965l93 -76l-167 -162l-59 44z" />
    <glyph glyph-name="DieresisGrave" unicode="&#xf6cd;" horiz-adv-x="741" 
d="M626 804q0 -29 -20 -49t-49 -20t-48.5 20t-19.5 49t19.5 49t48.5 20t49 -20t20 -49zM287 804q0 -29 -20 -49t-49 -20t-49 20t-20 49t20 49t49 20t49 -20t20 -49zM480 771l-58 -44l-168 162l94 76z" />
    <glyph glyph-name="Grave" unicode="&#xf6ce;" horiz-adv-x="741" 
d="M448 792l-35 -64l-218 83l55 108z" />
    <glyph glyph-name="Hungarumlaut" unicode="&#xf6cf;" horiz-adv-x="741" 
d="M591 943l73 -96l-199 -121l-47 57zM389 943l74 -96l-199 -121l-48 57z" />
    <glyph glyph-name="Macron" unicode="&#xf6d0;" horiz-adv-x="741" 
d="M569 848v-90h-360v90h360z" />
    <glyph glyph-name="cyrBreve" unicode="&#xf6d1;" horiz-adv-x="741" 
d="M361 742q-34 0 -63 11.5t-52.5 29.5t-41 41t-28.5 46q0 2 0.5 2t0.5 2l92 40q23 -42 52 -65t52 -23q19 0 58 18.5t88 75.5l48 -38q-49 -74 -101.5 -107t-104.5 -33z" />
    <glyph glyph-name="cyrbreve" unicode="&#xf6d4;" horiz-adv-x="561" 
d="M260 540q-34 0 -63 11.5t-52.5 29.5t-41 41t-28.5 47q0 1 0.5 1t0.5 2q23 11 46 20.5t46 20.5q23 -42 52 -65.5t52 -23.5q9 0 24 4t34 14.5t41.5 29t46.5 47.5q12 -11 24 -20t24 -19q-48 -74 -101 -107t-105 -33z" />
    <glyph glyph-name="uniF6D9" unicode="&#xf6d9;" horiz-adv-x="1042" 
d="M793 482l120 20l12 -5v-401l77 -17v-54q-25 -16 -61.5 -26.5t-72.5 -10.5q-14 0 -28.5 3t-26.5 11.5t-19.5 23t-7.5 38.5v411z" />
    <glyph glyph-name="uniF6DA" unicode="&#xf6da;" horiz-adv-x="636" 
d="M368 574l-59 -45l-204 205l97 77z" />
    <glyph glyph-name="uniF6DB" unicode="&#xf6db;" horiz-adv-x="636" 
d="M417 811l97 -77l-205 -205l-58 45z" />
    <glyph glyph-name="uniF6DC" unicode="&#xf6dc;" horiz-adv-x="630" 
d="M523 684q-5 -24 -14 -47.5t-24 -41.5t-36 -29.5t-50 -11.5q-27 0 -50 6.5t-45 15t-42.5 15t-41.5 6.5t-41 -9.5t-34 -41.5l-43 9q2 13 8 36t20 45t37.5 38t61.5 16q20 0 44.5 -7t49 -15t47 -15t37.5 -7q23 0 41 10t32 39z" />
    <glyph glyph-name="Scaron" unicode="&#x160;" horiz-adv-x="620" 
d="M303 704q13 0 32.5 -1.5t41 -5t45 -9.5t45.5 -15l19 31h43l2 -226l-51 -7l-40 106q-26 14 -61 21.5t-67 7.5q-42 0 -68 -16t-26 -51q0 -17 14.5 -33t39.5 -31.5t59 -32t72 -34.5q36 -16 67 -34.5t54.5 -42.5t36.5 -55t13 -73q0 -41 -14.5 -80.5t-47 -70.5t-85.5 -50
t-130 -19q-18 0 -41.5 2t-47.5 5.5t-47.5 9t-41.5 13.5l-21 -29h-47l-3 254l50 7l40 -117q16 -12 36 -20t41 -13.5t41 -8t36 -2.5q35 0 58.5 7.5t37.5 19.5t20 27.5t6 32.5q0 43 -42.5 72.5t-109.5 58.5q-44 19 -81 39.5t-64.5 45t-43 54.5t-15.5 69q0 37 14 72t43.5 62
t76 43.5t111.5 16.5zM478 931l38 -43l-174 -159h-73l-175 159l37 43q7 -5 32 -18.5t54 -29t54.5 -29.5t32.5 -18z" />
    <glyph glyph-name="Zcaron" unicode="&#x17d;" horiz-adv-x="667" 
d="M602 0q-60 0 -132 0.5t-146 0.5t-146 -0.5t-133 -0.5l-15 52q16 21 46 63.5t67.5 96t78.5 112.5t78.5 112.5t66.5 96t44 63.5l-224 -2l-63 -126l-46 10l18 206l9 6q55 -1 120.5 -1.5t132.5 -0.5t132.5 0.5t120.5 0.5l14 -52q-15 -19 -45 -61t-68 -95.5t-79.5 -113
t-79.5 -113.5t-68 -97t-45 -64l283 4l73 131l45 -9l-29 -211zM532 931l38 -43l-174 -159h-73l-175 159l37 43q7 -5 32 -18.5t54 -29t54.5 -29.5t32.5 -18z" />
    <glyph glyph-name="scaron" unicode="&#x161;" horiz-adv-x="488" 
d="M250 498q44 0 87.5 -9t78.5 -27q0 -34 -0.5 -66.5t-0.5 -66.5l-49 -6q-8 19 -17 37t-17 36q-21 12 -41.5 15.5t-31.5 3.5q-32 0 -46.5 -12.5t-14.5 -31.5q0 -10 4.5 -18t15.5 -15.5t29 -16t45 -19.5q39 -15 68 -31t48.5 -34.5t29 -42.5t9.5 -55q0 -32 -12 -60t-39 -49
t-70 -33t-105 -12q-52 0 -99.5 10t-73.5 26l-8 145l48 9l36 -80q18 -13 43 -19t46 -6q16 0 31 3.5t27 10t19 16t7 22.5q0 15 -7 26t-19 19.5t-28 16t-35 15.5q-27 12 -55.5 24.5t-51.5 29.5t-37.5 41t-14.5 58q0 65 48.5 105.5t152.5 40.5zM418 753l38 -44l-174 -172h-73
l-175 173l37 43q5 -3 18 -11.5t31 -20t37.5 -24t37.5 -24t31 -20.5t18 -12z" />
    <glyph glyph-name="zcaron" unicode="&#x17e;" horiz-adv-x="524" 
d="M475 0q-57 0 -110.5 0.5t-107 0.5t-107.5 -0.5t-111 -0.5l-14 46q33 43 68 91t71 97t70.5 96.5t66.5 90.5l-146 -4l-51 -87l-44 7l10 148l6 5q104 -2 198.5 -1.5t198.5 1.5l15 -45q-32 -42 -66 -89t-69 -95.5t-69.5 -97t-67.5 -93.5l181 3l60 100l42 -7l-19 -161z
M449 753l38 -44l-174 -172h-73l-175 173l37 43q5 -3 18 -11.5t31 -20t37.5 -24t37.5 -24t31 -20.5t18 -12z" />
    <glyph glyph-name="Ydieresis" unicode="&#x178;" horiz-adv-x="677" 
d="M377 384l109 218l-87 25l4 60l266 1l3 -62q-29 -12 -50.5 -26.5t-39 -31.5t-33 -38t-31.5 -48l-104 -175v-221l98 -23l-3 -63h-338l-4 57l93 29v204l-170 311l-85 27l6 59l230 2q2 -28 9 -52t19 -48l103 -205h5zM167 804q0 29 20.5 49t49.5 20t48.5 -20t19.5 -49
t-19.5 -49t-48.5 -20t-49.5 20t-20.5 49zM381 804q0 29 19.5 49t48.5 20t49.5 -20t20.5 -49t-20.5 -49t-49.5 -20t-48.5 20t-19.5 49z" />
    <glyph glyph-name="Agrave" unicode="&#xc0;" horiz-adv-x="745" 
d="M455 214h-223l-44 -132l87 -19l-2 -63h-263l-4 61l82 23l181 468q13 32 24.5 65t21.5 67l116 23l7 -3l245 -621l57 -19l-6 -64h-305l-5 61l76 24zM295 404l-38 -113h172l-38 116l-46 136h-4zM426 792l-35 -64l-218 83l55 108z" />
    <glyph glyph-name="Aacute" unicode="&#xc1;" horiz-adv-x="745" 
d="M455 214h-223l-44 -132l87 -19l-2 -63h-263l-4 61l82 23l181 468q13 32 24.5 65t21.5 67l116 23l7 -3l245 -621l57 -19l-6 -64h-305l-5 61l76 24zM295 404l-38 -113h172l-38 116l-46 136h-4zM483 919l55 -108l-218 -83l-36 64z" />
    <glyph glyph-name="Acircumflex" unicode="&#xc2;" horiz-adv-x="745" 
d="M455 214h-223l-44 -132l87 -19l-2 -63h-263l-4 61l82 23l181 468q13 32 24.5 65t21.5 67l116 23l7 -3l245 -621l57 -19l-6 -64h-305l-5 61l76 24zM295 404l-38 -113h172l-38 116l-46 136h-4zM375 820l-172 -95l-38 43l176 159h73l174 -159l-39 -43z" />
    <glyph glyph-name="Atilde" unicode="&#xc3;" horiz-adv-x="745" 
d="M455 214h-223l-44 -132l87 -19l-2 -63h-263l-4 61l82 23l181 468q13 32 24.5 65t21.5 67l116 23l7 -3l245 -621l57 -19l-6 -64h-305l-5 61l76 24zM295 404l-38 -113h172l-38 116l-46 136h-4zM558 874q-3 -25 -11 -49t-22 -42.5t-35 -30t-50 -11.5q-26 0 -45.5 7
t-36.5 15.5t-34 15.5t-37 7t-36.5 -9t-28.5 -40l-46 8q1 13 6 36t17.5 45t35 38t59.5 16q19 0 40.5 -7.5t42 -16.5t39 -16.5t33.5 -7.5q22 0 37 10t28 39z" />
    <glyph glyph-name="Adieresis" unicode="&#xc4;" horiz-adv-x="745" 
d="M455 214h-223l-44 -132l87 -19l-2 -63h-263l-4 61l82 23l181 468q13 32 24.5 65t21.5 67l116 23l7 -3l245 -621l57 -19l-6 -64h-305l-5 61l76 24zM295 404l-38 -113h172l-38 116l-46 136h-4zM202 804q0 29 20.5 49t49.5 20t48.5 -20t19.5 -49t-19.5 -49t-48.5 -20
t-49.5 20t-20.5 49zM416 804q0 29 19.5 49t48.5 20t49.5 -20t20.5 -49t-20.5 -49t-49.5 -20t-48.5 20t-19.5 49z" />
    <glyph glyph-name="Aring" unicode="&#xc5;" horiz-adv-x="745" 
d="M455 214h-223l-44 -132l87 -19l-2 -63h-263l-4 61l82 23l181 468q13 32 24.5 65t21.5 67l116 23l7 -3l245 -621l57 -19l-6 -64h-305l-5 61l76 24zM295 404l-38 -113h172l-38 116l-46 136h-4zM368 713q-27 0 -50 9.5t-40.5 26.5t-27 39.5t-9.5 48.5q0 25 9.5 47.5t27 39.5
t40.5 27t50 10q26 0 48.5 -10t39.5 -27t26.5 -39.5t9.5 -47.5q0 -26 -10 -49t-26.5 -39.5t-39.5 -26t-48 -9.5zM368 890q-23 0 -38.5 -16t-15.5 -37t15.5 -37.5t38.5 -16.5q20 0 35 16.5t15 37.5q0 20 -15 36.5t-35 16.5z" />
    <glyph glyph-name="Egrave" unicode="&#xc8;" horiz-adv-x="656" 
d="M621 202l-26 -192l-11 -10q-36 0 -68 0.5l-64 1t-66.5 1t-75.5 0.5h-60t-70.5 -0.5t-72.5 -1t-65 -1.5l-7 57l91 27v520l-81 24l7 61q25 -1 61 -1.5t73 -1t69.5 -0.5h52.5q34 0 65 0.5t61.5 1t61.5 1t66 1.5l11 -6l2 -191l-49 -10l-48 113h-41.5t-58 -0.5t-58.5 -0.5h-43
v-200l221 8v-94l-221 8v-223h49.5t65.5 0.5t65.5 1t49.5 0.5l68 117zM423 792l-35 -64l-218 83l55 108z" />
    <glyph glyph-name="Eacute" unicode="&#xc9;" horiz-adv-x="656" 
d="M621 202l-26 -192l-11 -10q-36 0 -68 0.5l-64 1t-66.5 1t-75.5 0.5h-60t-70.5 -0.5t-72.5 -1t-65 -1.5l-7 57l91 27v520l-81 24l7 61q25 -1 61 -1.5t73 -1t69.5 -0.5h52.5q34 0 65 0.5t61.5 1t61.5 1t66 1.5l11 -6l2 -191l-49 -10l-48 113h-41.5t-58 -0.5t-58.5 -0.5h-43
v-200l221 8v-94l-221 8v-223h49.5t65.5 0.5t65.5 1t49.5 0.5l68 117zM406 919l55 -108l-218 -83l-36 64z" />
    <glyph glyph-name="Ecircumflex" unicode="&#xca;" horiz-adv-x="656" 
d="M621 202l-26 -192l-11 -10q-36 0 -68 0.5l-64 1t-66.5 1t-75.5 0.5h-60t-70.5 -0.5t-72.5 -1t-65 -1.5l-7 57l91 27v520l-81 24l7 61q25 -1 61 -1.5t73 -1t69.5 -0.5h52.5q34 0 65 0.5t61.5 1t61.5 1t66 1.5l11 -6l2 -191l-49 -10l-48 113h-41.5t-58 -0.5t-58.5 -0.5h-43
v-200l221 8v-94l-221 8v-223h49.5t65.5 0.5t65.5 1t49.5 0.5l68 117zM321 820l-172 -95l-38 43l176 159h73l174 -159l-39 -43z" />
    <glyph glyph-name="Edieresis" unicode="&#xcb;" horiz-adv-x="656" 
d="M621 202l-26 -192l-11 -10q-36 0 -68 0.5l-64 1t-66.5 1t-75.5 0.5h-60t-70.5 -0.5t-72.5 -1t-65 -1.5l-7 57l91 27v520l-81 24l7 61q25 -1 61 -1.5t73 -1t69.5 -0.5h52.5q34 0 65 0.5t61.5 1t61.5 1t66 1.5l11 -6l2 -191l-49 -10l-48 113h-41.5t-58 -0.5t-58.5 -0.5h-43
v-200l221 8v-94l-221 8v-223h49.5t65.5 0.5t65.5 1t49.5 0.5l68 117zM163 804q0 29 20.5 49t49.5 20t48.5 -20t19.5 -49t-19.5 -49t-48.5 -20t-49.5 20t-20.5 49zM377 804q0 29 19.5 49t48.5 20t49.5 -20t20.5 -49t-20.5 -49t-49.5 -20t-48.5 20t-19.5 49z" />
    <glyph glyph-name="Igrave" unicode="&#xcc;" horiz-adv-x="463" 
d="M400 0h-336l-4 57l93 28v518l-92 28l4 57h335l3 -61l-98 -23v-519l98 -23zM300 792l-35 -64l-218 83l55 108z" />
    <glyph glyph-name="Iacute" unicode="&#xcd;" horiz-adv-x="463" 
d="M400 0h-336l-4 57l93 28v518l-92 28l4 57h335l3 -61l-98 -23v-519l98 -23zM347 919l55 -108l-218 -83l-36 64z" />
    <glyph glyph-name="Icircumflex" unicode="&#xce;" horiz-adv-x="463" 
d="M400 0h-336l-4 57l93 28v518l-92 28l4 57h335l3 -61l-98 -23v-519l98 -23zM232 820l-172 -95l-38 43l176 159h73l174 -159l-39 -43z" />
    <glyph glyph-name="Idieresis" unicode="&#xcf;" horiz-adv-x="463" 
d="M400 0h-336l-4 57l93 28v518l-92 28l4 57h335l3 -61l-98 -23v-519l98 -23zM54 804q0 29 20.5 49t49.5 20t48.5 -20t19.5 -49t-19.5 -49t-48.5 -20t-49.5 20t-20.5 49zM268 804q0 29 19.5 49t48.5 20t49.5 -20t20.5 -49t-20.5 -49t-49.5 -20t-48.5 20t-19.5 49z" />
    <glyph glyph-name="Eth" unicode="&#xd0;" horiz-adv-x="764" 
d="M56 382h68v222l-80 24l7 61q26 -1 44.5 -1.5t35 -1t32.5 -0.5h36q28 0 50.5 0.5t41 1.5t36 1.5t35.5 0.5q97 0 163 -30t105.5 -78.5t56.5 -109.5t17 -123q0 -31 -5 -68.5t-17.5 -76t-35.5 -75.5t-59 -65.5t-87 -46t-120 -17.5q-6 0 -28.5 0.5t-48 1t-48.5 1t-32 0.5h-47
t-41.5 -0.5t-43 -1t-50.5 -1.5l-6 57l89 27v232h-68v66zM275 382h133v-66h-133v-218q17 -4 38.5 -5.5t39.5 -1.5q54 0 91.5 21.5t60 58t32.5 84t10 98.5q0 73 -18 120t-48 74t-69.5 37.5t-83.5 10.5q-14 0 -28 -0.5t-25 -1.5v-211z" />
    <glyph glyph-name="Ograve" unicode="&#xd2;" horiz-adv-x="763" 
d="M703 352q0 -71 -17 -137t-55.5 -117t-100 -82t-150.5 -31q-164 0 -242 91.5t-78 258.5q0 70 17 136.5t55.5 118t101 83t154.5 31.5q78 0 137 -25t98.5 -71t59.5 -111t20 -145zM382 609q-51 0 -83 -24t-49.5 -61.5t-24 -83.5t-6.5 -89q0 -60 8 -109t26.5 -84t50 -54
t78.5 -19q49 0 80.5 22.5t50.5 59t26.5 82t7.5 91.5q0 51 -8 99.5t-27 86t-50.5 60.5t-79.5 23zM466 792l-35 -64l-218 83l55 108z" />
    <glyph glyph-name="Oacute" unicode="&#xd3;" horiz-adv-x="763" 
d="M703 352q0 -71 -17 -137t-55.5 -117t-100 -82t-150.5 -31q-164 0 -242 91.5t-78 258.5q0 70 17 136.5t55.5 118t101 83t154.5 31.5q78 0 137 -25t98.5 -71t59.5 -111t20 -145zM382 609q-51 0 -83 -24t-49.5 -61.5t-24 -83.5t-6.5 -89q0 -60 8 -109t26.5 -84t50 -54
t78.5 -19q49 0 80.5 22.5t50.5 59t26.5 82t7.5 91.5q0 51 -8 99.5t-27 86t-50.5 60.5t-79.5 23zM471 919l55 -108l-218 -83l-36 64z" />
    <glyph glyph-name="Ocircumflex" unicode="&#xd4;" horiz-adv-x="763" 
d="M703 352q0 -71 -17 -137t-55.5 -117t-100 -82t-150.5 -31q-164 0 -242 91.5t-78 258.5q0 70 17 136.5t55.5 118t101 83t154.5 31.5q78 0 137 -25t98.5 -71t59.5 -111t20 -145zM382 609q-51 0 -83 -24t-49.5 -61.5t-24 -83.5t-6.5 -89q0 -60 8 -109t26.5 -84t50 -54
t78.5 -19q49 0 80.5 22.5t50.5 59t26.5 82t7.5 91.5q0 51 -8 99.5t-27 86t-50.5 60.5t-79.5 23zM382 820l-172 -95l-38 43l176 159h73l174 -159l-39 -43z" />
    <glyph glyph-name="Otilde" unicode="&#xd5;" horiz-adv-x="763" 
d="M703 352q0 -71 -17 -137t-55.5 -117t-100 -82t-150.5 -31q-164 0 -242 91.5t-78 258.5q0 70 17 136.5t55.5 118t101 83t154.5 31.5q78 0 137 -25t98.5 -71t59.5 -111t20 -145zM382 609q-51 0 -83 -24t-49.5 -61.5t-24 -83.5t-6.5 -89q0 -60 8 -109t26.5 -84t50 -54
t78.5 -19q49 0 80.5 22.5t50.5 59t26.5 82t7.5 91.5q0 51 -8 99.5t-27 86t-50.5 60.5t-79.5 23zM571 874q-3 -25 -11 -49t-22 -42.5t-35 -30t-50 -11.5q-26 0 -45.5 7t-36.5 15.5t-34 15.5t-37 7t-36.5 -9t-28.5 -40l-46 8q1 13 6 36t17.5 45t35 38t59.5 16q19 0 40.5 -7.5
t42 -16.5t39 -16.5t33.5 -7.5q22 0 37 10t28 39z" />
    <glyph glyph-name="Odieresis" unicode="&#xd6;" horiz-adv-x="763" 
d="M703 352q0 -71 -17 -137t-55.5 -117t-100 -82t-150.5 -31q-164 0 -242 91.5t-78 258.5q0 70 17 136.5t55.5 118t101 83t154.5 31.5q78 0 137 -25t98.5 -71t59.5 -111t20 -145zM382 609q-51 0 -83 -24t-49.5 -61.5t-24 -83.5t-6.5 -89q0 -60 8 -109t26.5 -84t50 -54
t78.5 -19q49 0 80.5 22.5t50.5 59t26.5 82t7.5 91.5q0 51 -8 99.5t-27 86t-50.5 60.5t-79.5 23zM210 804q0 29 20.5 49t49.5 20t48.5 -20t19.5 -49t-19.5 -49t-48.5 -20t-49.5 20t-20.5 49zM424 804q0 29 19.5 49t48.5 20t49.5 -20t20.5 -49t-20.5 -49t-49.5 -20t-48.5 20
t-19.5 49z" />
    <glyph glyph-name="Oslash" unicode="&#xd8;" horiz-adv-x="763" 
d="M703 352q0 -71 -17 -137t-55.5 -117t-100 -82t-150.5 -31q-72 0 -127 19t-94 54l-54 -60l-39 38l55 62q-32 45 -46.5 104.5t-14.5 132.5q0 70 17 136.5t55.5 118t101 83t154.5 31.5q67 0 119.5 -18.5t90.5 -53.5l61 68l39 -40l-62 -69q67 -91 67 -239zM547 340
q0 33 -4.5 67t-13.5 64l-275 -306q19 -37 50 -58.5t78 -21.5q49 0 80.5 22.5t50.5 59t26.5 82t7.5 91.5zM382 609q-51 0 -83 -24t-49.5 -61.5t-24 -83.5t-6.5 -89q0 -34 3.5 -66t11.5 -60l273 305q-20 35 -50 57t-75 22z" />
    <glyph glyph-name="Ugrave" unicode="&#xd9;" horiz-adv-x="811" 
d="M585 602l-87 28l5 58h279l4 -62l-95 -23l-2 -370q-1 -77 -28 -125.5t-69.5 -76t-94.5 -37.5t-101 -10q-43 0 -91.5 10t-89.5 36t-68 71.5t-27 116.5v383l-90 28l5 57h326l3 -61l-93 -23v-343q0 -35 5.5 -66t22.5 -54.5t48 -37.5t82 -14q46 0 76.5 14.5t48 40t24.5 60.5
t7 75v325zM487 792l-35 -64l-218 83l55 108z" />
    <glyph glyph-name="Uacute" unicode="&#xda;" horiz-adv-x="811" 
d="M585 602l-87 28l5 58h279l4 -62l-95 -23l-2 -370q-1 -77 -28 -125.5t-69.5 -76t-94.5 -37.5t-101 -10q-43 0 -91.5 10t-89.5 36t-68 71.5t-27 116.5v383l-90 28l5 57h326l3 -61l-93 -23v-343q0 -35 5.5 -66t22.5 -54.5t48 -37.5t82 -14q46 0 76.5 14.5t48 40t24.5 60.5
t7 75v325zM541 919l55 -108l-218 -83l-36 64z" />
    <glyph glyph-name="Ucircumflex" unicode="&#xdb;" horiz-adv-x="811" 
d="M585 602l-87 28l5 58h279l4 -62l-95 -23l-2 -370q-1 -77 -28 -125.5t-69.5 -76t-94.5 -37.5t-101 -10q-43 0 -91.5 10t-89.5 36t-68 71.5t-27 116.5v383l-90 28l5 57h326l3 -61l-93 -23v-343q0 -35 5.5 -66t22.5 -54.5t48 -37.5t82 -14q46 0 76.5 14.5t48 40t24.5 60.5
t7 75v325zM422 820l-172 -95l-38 43l176 159h73l174 -159l-39 -43z" />
    <glyph glyph-name="Udieresis" unicode="&#xdc;" horiz-adv-x="811" 
d="M585 602l-87 28l5 58h279l4 -62l-95 -23l-2 -370q-1 -77 -28 -125.5t-69.5 -76t-94.5 -37.5t-101 -10q-43 0 -91.5 10t-89.5 36t-68 71.5t-27 116.5v383l-90 28l5 57h326l3 -61l-93 -23v-343q0 -35 5.5 -66t22.5 -54.5t48 -37.5t82 -14q46 0 76.5 14.5t48 40t24.5 60.5
t7 75v325zM252 804q0 29 20.5 49t49.5 20t48.5 -20t19.5 -49t-19.5 -49t-48.5 -20t-49.5 20t-20.5 49zM466 804q0 29 19.5 49t48.5 20t49.5 -20t20.5 -49t-20.5 -49t-49.5 -20t-48.5 20t-19.5 49z" />
    <glyph glyph-name="Yacute" unicode="&#xdd;" horiz-adv-x="677" 
d="M377 384l109 218l-87 25l4 60l266 1l3 -62q-29 -12 -50.5 -26.5t-39 -31.5t-33 -38t-31.5 -48l-104 -175v-221l98 -23l-3 -63h-338l-4 57l93 29v204l-170 311l-85 27l6 59l230 2q2 -28 9 -52t19 -48l103 -205h5zM450 919l55 -108l-218 -83l-36 64z" />
    <glyph glyph-name="Thorn" unicode="&#xde;" horiz-adv-x="668" 
d="M44 688h326l3 -62l-92 -22v-51q10 0 26.5 0.5t34 0.5h33.5h25q109 0 171.5 -49t62.5 -144q0 -43 -15 -81t-46.5 -67t-80 -46t-114.5 -17q-18 0 -43.5 1.5t-53.5 6.5v-72l93 -23l-4 -63h-328l-4 57l92 28v518l-90 27zM478 349q0 59 -36 87.5t-101 28.5q-15 0 -30 -1
t-30 -5v-216q13 -2 26 -2.5t21 -0.5q46 0 75 9.5t45.5 25.5t23 35t6.5 39z" />
    <glyph glyph-name="aacute" unicode="&#xe1;" horiz-adv-x="561" 
d="M320 63l-67 -64q-20 -5 -41 -9t-39 -4q-41 0 -68 12.5t-44 32.5t-24 44.5t-7 49.5q0 11 2 26t7.5 30t15.5 29t27 25q8 5 23 12t42 13.5t69 12.5t104 9v38q0 42 -18 56.5t-64 14.5q-28 0 -70 -5.5t-78 -16.5l-22 77q44 23 99.5 38.5t113.5 15.5q85 0 132.5 -37t47.5 -126
v-240l77 -18v-54q-24 -15 -61 -26t-73 -11q-13 0 -26.5 2t-24.5 9.5t-19 22.5t-11 41h-3zM231 83q19 0 43 8.5t46 25.5v100q-50 -5 -78 -15t-42 -21t-17.5 -22.5t-3.5 -20.5q0 -25 12.5 -40t39.5 -15zM344 770l95 -75l-166 -166l-59 45z" />
    <glyph glyph-name="acircumflex" unicode="&#xe2;" horiz-adv-x="561" 
d="M320 63l-67 -64q-20 -5 -41 -9t-39 -4q-41 0 -68 12.5t-44 32.5t-24 44.5t-7 49.5q0 11 2 26t7.5 30t15.5 29t27 25q8 5 23 12t42 13.5t69 12.5t104 9v38q0 42 -18 56.5t-64 14.5q-28 0 -70 -5.5t-78 -16.5l-22 77q44 23 99.5 38.5t113.5 15.5q85 0 132.5 -37t47.5 -126
v-240l77 -18v-54q-24 -15 -61 -26t-73 -11q-13 0 -26.5 2t-24.5 9.5t-19 22.5t-11 41h-3zM231 83q19 0 43 8.5t46 25.5v100q-50 -5 -78 -15t-42 -21t-17.5 -22.5t-3.5 -20.5q0 -25 12.5 -40t39.5 -15zM269 638q-5 -3 -18 -11t-31 -19t-37.5 -23.5t-37.5 -23.5t-31 -19.5
t-18 -11.5l-37 44l175 172h73l174 -172l-38 -44z" />
    <glyph glyph-name="atilde" unicode="&#xe3;" horiz-adv-x="561" 
d="M320 63l-67 -64q-20 -5 -41 -9t-39 -4q-41 0 -68 12.5t-44 32.5t-24 44.5t-7 49.5q0 11 2 26t7.5 30t15.5 29t27 25q8 5 23 12t42 13.5t69 12.5t104 9v38q0 42 -18 56.5t-64 14.5q-28 0 -70 -5.5t-78 -16.5l-22 77q44 23 99.5 38.5t113.5 15.5q85 0 132.5 -37t47.5 -126
v-240l77 -18v-54q-24 -15 -61 -26t-73 -11q-13 0 -26.5 2t-24.5 9.5t-19 22.5t-11 41h-3zM231 83q19 0 43 8.5t46 25.5v100q-50 -5 -78 -15t-42 -21t-17.5 -22.5t-3.5 -20.5q0 -25 12.5 -40t39.5 -15zM452 691q-3 -25 -11 -49t-22 -42.5t-35 -30t-50 -11.5q-26 0 -45.5 7
t-36.5 15.5t-34 15.5t-37 7t-36.5 -9t-28.5 -40l-46 8q1 13 6 36t17.5 45t35 38t59.5 16q19 0 40.5 -7.5t42 -16.5t39 -16.5t33.5 -7.5q22 0 37 10t28 39z" />
    <glyph glyph-name="adieresis" unicode="&#xe4;" horiz-adv-x="561" 
d="M320 63l-67 -64q-20 -5 -41 -9t-39 -4q-41 0 -68 12.5t-44 32.5t-24 44.5t-7 49.5q0 11 2 26t7.5 30t15.5 29t27 25q8 5 23 12t42 13.5t69 12.5t104 9v38q0 42 -18 56.5t-64 14.5q-28 0 -70 -5.5t-78 -16.5l-22 77q44 23 99.5 38.5t113.5 15.5q85 0 132.5 -37t47.5 -126
v-240l77 -18v-54q-24 -15 -61 -26t-73 -11q-13 0 -26.5 2t-24.5 9.5t-19 22.5t-11 41h-3zM231 83q19 0 43 8.5t46 25.5v100q-50 -5 -78 -15t-42 -21t-17.5 -22.5t-3.5 -20.5q0 -25 12.5 -40t39.5 -15zM98 618q0 29 20.5 48.5t49.5 19.5t48.5 -19.5t19.5 -48.5t-19.5 -49.5
t-48.5 -20.5t-49.5 20.5t-20.5 49.5zM312 618q0 29 19.5 48.5t48.5 19.5t49.5 -19.5t20.5 -48.5t-20.5 -49.5t-49.5 -20.5t-48.5 20.5t-19.5 49.5z" />
    <glyph glyph-name="aring" unicode="&#xe5;" horiz-adv-x="561" 
d="M320 63l-67 -64q-20 -5 -41 -9t-39 -4q-41 0 -68 12.5t-44 32.5t-24 44.5t-7 49.5q0 11 2 26t7.5 30t15.5 29t27 25q8 5 23 12t42 13.5t69 12.5t104 9v38q0 42 -18 56.5t-64 14.5q-28 0 -70 -5.5t-78 -16.5l-22 77q44 23 99.5 38.5t113.5 15.5q85 0 132.5 -37t47.5 -126
v-240l77 -18v-54q-24 -15 -61 -26t-73 -11q-13 0 -26.5 2t-24.5 9.5t-19 22.5t-11 41h-3zM231 83q19 0 43 8.5t46 25.5v100q-50 -5 -78 -15t-42 -21t-17.5 -22.5t-3.5 -20.5q0 -25 12.5 -40t39.5 -15zM280 541q-27 0 -50 9.5t-40.5 26.5t-27 39.5t-9.5 48.5q0 25 9.5 47.5
t27 39.5t40.5 27t50 10q26 0 48.5 -10t39.5 -27t26.5 -39.5t9.5 -47.5q0 -26 -10 -49t-26.5 -39.5t-39.5 -26t-48 -9.5zM280 718q-23 0 -38.5 -16t-15.5 -37t15.5 -37.5t38.5 -16.5q20 0 35 16.5t15 37.5q0 20 -15 36.5t-35 16.5z" />
    <glyph glyph-name="egrave" unicode="&#xe8;" horiz-adv-x="548" 
d="M287 499q72 0 116 -20t68 -51.5t32.5 -71t9.5 -77.5l-8 -13l-314 -18q2 -84 36 -120.5t112 -36.5q23 0 61 6.5t73 19.5l24 -76q-40 -25 -96 -40t-114 -15q-68 0 -115 17t-76.5 49.5t-42.5 79t-13 105.5q0 47 10.5 94t38 84.5t75.5 60.5t123 23zM351 322q0 20 -3 38.5
t-11 32.5t-22.5 22.5t-36.5 8.5q-25 0 -41.5 -10.5t-26.5 -28t-14 -39t-4 -43.5zM354 575l-62 -48l-166 168l98 76z" />
    <glyph glyph-name="eacute" unicode="&#xe9;" horiz-adv-x="548" 
d="M287 499q72 0 116 -20t68 -51.5t32.5 -71t9.5 -77.5l-8 -13l-314 -18q2 -84 36 -120.5t112 -36.5q23 0 61 6.5t73 19.5l24 -76q-40 -25 -96 -40t-114 -15q-68 0 -115 17t-76.5 49.5t-42.5 79t-13 105.5q0 47 10.5 94t38 84.5t75.5 60.5t123 23zM351 322q0 20 -3 38.5
t-11 32.5t-22.5 22.5t-36.5 8.5q-25 0 -41.5 -10.5t-26.5 -28t-14 -39t-4 -43.5zM363 770l95 -75l-166 -166l-59 45z" />
    <glyph glyph-name="ecircumflex" unicode="&#xea;" horiz-adv-x="548" 
d="M287 499q72 0 116 -20t68 -51.5t32.5 -71t9.5 -77.5l-8 -13l-314 -18q2 -84 36 -120.5t112 -36.5q23 0 61 6.5t73 19.5l24 -76q-40 -25 -96 -40t-114 -15q-68 0 -115 17t-76.5 49.5t-42.5 79t-13 105.5q0 47 10.5 94t38 84.5t75.5 60.5t123 23zM351 322q0 20 -3 38.5
t-11 32.5t-22.5 22.5t-36.5 8.5q-25 0 -41.5 -10.5t-26.5 -28t-14 -39t-4 -43.5zM287 638q-5 -3 -18 -11t-31 -19t-37.5 -23.5t-37.5 -23.5t-31 -19.5t-18 -11.5l-37 44l175 172h73l174 -172l-38 -44z" />
    <glyph glyph-name="edieresis" unicode="&#xeb;" horiz-adv-x="548" 
d="M287 499q72 0 116 -20t68 -51.5t32.5 -71t9.5 -77.5l-8 -13l-314 -18q2 -84 36 -120.5t112 -36.5q23 0 61 6.5t73 19.5l24 -76q-40 -25 -96 -40t-114 -15q-68 0 -115 17t-76.5 49.5t-42.5 79t-13 105.5q0 47 10.5 94t38 84.5t75.5 60.5t123 23zM351 322q0 20 -3 38.5
t-11 32.5t-22.5 22.5t-36.5 8.5q-25 0 -41.5 -10.5t-26.5 -28t-14 -39t-4 -43.5zM108 618q0 29 20.5 48.5t49.5 19.5t48.5 -19.5t19.5 -48.5t-19.5 -49.5t-48.5 -20.5t-49.5 20.5t-20.5 49.5zM322 618q0 29 19.5 48.5t48.5 19.5t49.5 -19.5t20.5 -48.5t-20.5 -49.5
t-49.5 -20.5t-48.5 20.5t-19.5 49.5z" />
    <glyph glyph-name="igrave" unicode="&#xec;" horiz-adv-x="367" 
d="M256 75l71 -25l-2 -50h-281l-4 50l76 31v31v54v66.5v68.5t-0.5 59.5t-0.5 40.5l-68 20v52l195 29l12 -5zM216 575l-62 -48l-166 168l98 76z" />
    <glyph glyph-name="iacute" unicode="&#xed;" horiz-adv-x="367" 
d="M256 75l71 -25l-2 -50h-281l-4 50l76 31v31v54v66.5v68.5t-0.5 59.5t-0.5 40.5l-68 20v52l195 29l12 -5zM238 770l95 -75l-166 -166l-59 45z" />
    <glyph glyph-name="icircumflex" unicode="&#xee;" horiz-adv-x="367" 
d="M256 75l71 -25l-2 -50h-281l-4 50l76 31v31v54v66.5v68.5t-0.5 59.5t-0.5 40.5l-68 20v52l195 29l12 -5zM176 638q-5 -3 -18 -11t-31 -19t-37.5 -23.5t-37.5 -23.5t-31 -19.5t-18 -11.5l-37 44l175 172h73l174 -172l-38 -44z" />
    <glyph glyph-name="idieresis" unicode="&#xef;" horiz-adv-x="367" 
d="M256 75l71 -25l-2 -50h-281l-4 50l76 31v31v54v66.5v68.5t-0.5 59.5t-0.5 40.5l-68 20v52l195 29l12 -5zM-7 618q0 29 20.5 48.5t49.5 19.5t48.5 -19.5t19.5 -48.5t-19.5 -49.5t-48.5 -20.5t-49.5 20.5t-20.5 49.5zM207 618q0 29 19.5 48.5t48.5 19.5t49.5 -19.5
t20.5 -48.5t-20.5 -49.5t-49.5 -20.5t-48.5 20.5t-19.5 49.5z" />
    <glyph glyph-name="ntilde" unicode="&#xf1;" horiz-adv-x="667" 
d="M209 499q8 -4 12 -5l22 -75q1 0 1 -0.5t1 -0.5l76 70q23 6 50 9t49 3q75 0 109.5 -30.5t34.5 -105.5v-62.5v-64.5t0.5 -73.5t0.5 -88.5l63 -22v-53h-263l-2 53q38 15 48.5 19t12.5 4q0 59 -0.5 117t-0.5 116q0 41 -15 60.5t-60 19.5q-8 0 -21 -2t-27 -6t-28.5 -10
t-26.5 -13l1 -284q15 -5 30.5 -10t30.5 -10l-3 -54h-262q-2 13 -2.5 25.5t-1.5 25.5l69 27v322l-68 19v52q43 8 85 14t85 14zM512 691q-3 -25 -11 -49t-22 -42.5t-35 -30t-50 -11.5q-26 0 -45.5 7t-36.5 15.5t-34 15.5t-37 7t-36.5 -9t-28.5 -40l-46 8q1 13 6 36t17.5 45
t35 38t59.5 16q19 0 40.5 -7.5t42 -16.5t39 -16.5t33.5 -7.5q22 0 37 10t28 39z" />
    <glyph glyph-name="ograve" unicode="&#xf2;" horiz-adv-x="583" 
d="M543 247q0 -51 -15 -98t-46.5 -83.5t-79.5 -58t-113 -21.5q-66 0 -113 17.5t-77 50t-44.5 79t-14.5 105.5q0 52 16 99t48.5 83t81 57.5t114.5 21.5q61 0 106.5 -17.5t76 -50.5t45.5 -79.5t15 -104.5zM191 254q0 -37 4 -70t15 -58t30.5 -40t51.5 -15q31 0 50.5 13.5
t30.5 36t15.5 51.5t4.5 61q0 34 -4.5 67t-16 59.5t-31 42.5t-50.5 16q-32 0 -51.5 -15t-30.5 -38.5t-14.5 -52.5t-3.5 -58zM364 575l-62 -48l-166 168l98 76z" />
    <glyph glyph-name="oacute" unicode="&#xf3;" horiz-adv-x="583" 
d="M543 247q0 -51 -15 -98t-46.5 -83.5t-79.5 -58t-113 -21.5q-66 0 -113 17.5t-77 50t-44.5 79t-14.5 105.5q0 52 16 99t48.5 83t81 57.5t114.5 21.5q61 0 106.5 -17.5t76 -50.5t45.5 -79.5t15 -104.5zM191 254q0 -37 4 -70t15 -58t30.5 -40t51.5 -15q31 0 50.5 13.5
t30.5 36t15.5 51.5t4.5 61q0 34 -4.5 67t-16 59.5t-31 42.5t-50.5 16q-32 0 -51.5 -15t-30.5 -38.5t-14.5 -52.5t-3.5 -58zM356 770l95 -75l-166 -166l-59 45z" />
    <glyph glyph-name="ocircumflex" unicode="&#xf4;" horiz-adv-x="583" 
d="M543 247q0 -51 -15 -98t-46.5 -83.5t-79.5 -58t-113 -21.5q-66 0 -113 17.5t-77 50t-44.5 79t-14.5 105.5q0 52 16 99t48.5 83t81 57.5t114.5 21.5q61 0 106.5 -17.5t76 -50.5t45.5 -79.5t15 -104.5zM191 254q0 -37 4 -70t15 -58t30.5 -40t51.5 -15q31 0 50.5 13.5
t30.5 36t15.5 51.5t4.5 61q0 34 -4.5 67t-16 59.5t-31 42.5t-50.5 16q-32 0 -51.5 -15t-30.5 -38.5t-14.5 -52.5t-3.5 -58zM296 638q-5 -3 -18 -11t-31 -19t-37.5 -23.5t-37.5 -23.5t-31 -19.5t-18 -11.5l-37 44l175 172h73l174 -172l-38 -44z" />
    <glyph glyph-name="otilde" unicode="&#xf5;" horiz-adv-x="583" 
d="M543 247q0 -51 -15 -98t-46.5 -83.5t-79.5 -58t-113 -21.5q-66 0 -113 17.5t-77 50t-44.5 79t-14.5 105.5q0 52 16 99t48.5 83t81 57.5t114.5 21.5q61 0 106.5 -17.5t76 -50.5t45.5 -79.5t15 -104.5zM191 254q0 -37 4 -70t15 -58t30.5 -40t51.5 -15q31 0 50.5 13.5
t30.5 36t15.5 51.5t4.5 61q0 34 -4.5 67t-16 59.5t-31 42.5t-50.5 16q-32 0 -51.5 -15t-30.5 -38.5t-14.5 -52.5t-3.5 -58zM479 691q-3 -25 -11 -49t-22 -42.5t-35 -30t-50 -11.5q-26 0 -45.5 7t-36.5 15.5t-34 15.5t-37 7t-36.5 -9t-28.5 -40l-46 8q1 13 6 36t17.5 45
t35 38t59.5 16q19 0 40.5 -7.5t42 -16.5t39 -16.5t33.5 -7.5q22 0 37 10t28 39z" />
    <glyph glyph-name="odieresis" unicode="&#xf6;" horiz-adv-x="583" 
d="M543 247q0 -51 -15 -98t-46.5 -83.5t-79.5 -58t-113 -21.5q-66 0 -113 17.5t-77 50t-44.5 79t-14.5 105.5q0 52 16 99t48.5 83t81 57.5t114.5 21.5q61 0 106.5 -17.5t76 -50.5t45.5 -79.5t15 -104.5zM191 254q0 -37 4 -70t15 -58t30.5 -40t51.5 -15q31 0 50.5 13.5
t30.5 36t15.5 51.5t4.5 61q0 34 -4.5 67t-16 59.5t-31 42.5t-50.5 16q-32 0 -51.5 -15t-30.5 -38.5t-14.5 -52.5t-3.5 -58zM114 618q0 29 20.5 48.5t49.5 19.5t48.5 -19.5t19.5 -48.5t-19.5 -49.5t-48.5 -20.5t-49.5 20.5t-20.5 49.5zM328 618q0 29 19.5 48.5t48.5 19.5
t49.5 -19.5t20.5 -48.5t-20.5 -49.5t-49.5 -20.5t-48.5 20.5t-19.5 49.5z" />
    <glyph glyph-name="oslash" unicode="&#xf8;" horiz-adv-x="583" 
d="M543 247q0 -51 -15 -98t-46.5 -83.5t-79.5 -58t-113 -21.5q-110 0 -171 49l-48 -47l-32 32l47 48q-23 32 -34 75t-11 95t16 99t48.5 83t81 57.5t114.5 21.5q52 0 92.5 -13t70.5 -37l50 50l31 -34l-49 -50q48 -65 48 -168zM191 254q0 -17 1.5 -36.5t6.5 -37.5l171 178
q-11 26 -30.5 43t-48.5 17q-32 0 -51.5 -15.5t-30.5 -39.5t-14.5 -53t-3.5 -56zM393 233q0 19 -2.5 38t-7.5 36l-171 -179q11 -26 30 -41.5t50 -15.5t50.5 13.5t30.5 36t15.5 51.5t4.5 61z" />
    <glyph glyph-name="ugrave" unicode="&#xf9;" horiz-adv-x="658" 
d="M441 -7l-21 74q-1 0 -1.5 0.5t-1.5 0.5l-76 -69q-23 -6 -52.5 -9t-49.5 -3q-72 0 -106.5 31.5t-34.5 103.5v279l-68 20v52l195 27q4 -1 12 -5q0 -80 0.5 -159t0.5 -160q0 -41 18 -60.5t58 -19.5q18 0 47.5 8t55.5 24v274l-68 20v52l194 28l12 -6v-410q18 -5 36 -9.5
t37 -9.5v-53l-175 -26zM374 575l-62 -48l-166 168l98 76z" />
    <glyph glyph-name="uacute" unicode="&#xfa;" horiz-adv-x="658" 
d="M441 -7l-21 74q-1 0 -1.5 0.5t-1.5 0.5l-76 -69q-23 -6 -52.5 -9t-49.5 -3q-72 0 -106.5 31.5t-34.5 103.5v279l-68 20v52l195 27q4 -1 12 -5q0 -80 0.5 -159t0.5 -160q0 -41 18 -60.5t58 -19.5q18 0 47.5 8t55.5 24v274l-68 20v52l194 28l12 -6v-410q18 -5 36 -9.5
t37 -9.5v-53l-175 -26zM377 770l95 -75l-166 -166l-59 45z" />
    <glyph glyph-name="ucircumflex" unicode="&#xfb;" horiz-adv-x="658" 
d="M441 -7l-21 74q-1 0 -1.5 0.5t-1.5 0.5l-76 -69q-23 -6 -52.5 -9t-49.5 -3q-72 0 -106.5 31.5t-34.5 103.5v279l-68 20v52l195 27q4 -1 12 -5q0 -80 0.5 -159t0.5 -160q0 -41 18 -60.5t58 -19.5q18 0 47.5 8t55.5 24v274l-68 20v52l194 28l12 -6v-410q18 -5 36 -9.5
t37 -9.5v-53l-175 -26zM310 638q-5 -3 -18 -11t-31 -19t-37.5 -23.5t-37.5 -23.5t-31 -19.5t-18 -11.5l-37 44l175 172h73l174 -172l-38 -44z" />
    <glyph glyph-name="udieresis" unicode="&#xfc;" horiz-adv-x="658" 
d="M441 -7l-21 74q-1 0 -1.5 0.5t-1.5 0.5l-76 -69q-23 -6 -52.5 -9t-49.5 -3q-72 0 -106.5 31.5t-34.5 103.5v279l-68 20v52l195 27q4 -1 12 -5q0 -80 0.5 -159t0.5 -160q0 -41 18 -60.5t58 -19.5q18 0 47.5 8t55.5 24v274l-68 20v52l194 28l12 -6v-410q18 -5 36 -9.5
t37 -9.5v-53l-175 -26zM138 618q0 29 20.5 48.5t49.5 19.5t48.5 -19.5t19.5 -48.5t-19.5 -49.5t-48.5 -20.5t-49.5 20.5t-20.5 49.5zM352 618q0 29 19.5 48.5t48.5 19.5t49.5 -19.5t20.5 -48.5t-20.5 -49.5t-49.5 -20.5t-48.5 20.5t-19.5 49.5z" />
    <glyph glyph-name="yacute" unicode="&#xfd;" horiz-adv-x="598" 
d="M369 487q52 2 104 3l104 2q0 -3 1 -10t2 -15t2 -15t1 -10q-29 -23 -53 -62t-44 -84q-6 -16 -19.5 -47t-30.5 -69t-35.5 -80t-35.5 -80t-30.5 -68.5t-19.5 -46.5q-26 -60 -67.5 -98.5t-103.5 -38.5q-44 0 -75.5 18t-31.5 52q0 24 15.5 42.5t38.5 28.5q5 -3 17.5 -11
t26 -17t26 -16.5t18.5 -10.5q32 4 48.5 26.5t24.5 43.5l28 70l-41 4q-7 18 -20.5 50.5t-30.5 72.5t-35.5 84t-35.5 84t-30.5 72.5t-20.5 50.5l-48 19v53l201 8q2 -26 7.5 -52t17.5 -61q6 -18 18.5 -52t26.5 -71t26.5 -71t18.5 -52h3q7 21 21 59t30 80t30 80.5t21 58.5
l-71 25v10t0.5 15.5t0.5 15.5v10zM360 770l95 -75l-166 -166l-59 45z" />
    <glyph glyph-name="thorn" unicode="&#xfe;" horiz-adv-x="598" 
d="M216 -142l83 -25l-4 -54h-286l-4 51l72 28v767l-72 20v53l197 26l12 -7l1 -290h2l71 63q22 6 42 9t37 3q54 0 91 -20.5t60 -55t33 -79t10 -93.5q0 -57 -12.5 -106t-39.5 -85t-70 -56t-103 -20q-28 0 -57.5 4.5t-63.5 18.5zM411 240q0 30 -4.5 57.5t-16 48.5t-31 33.5
t-49.5 12.5q-25 0 -49.5 -8.5t-42.5 -19.5v-263q16 -7 37.5 -11t40.5 -4q31 0 52.5 12t35.5 33t20.5 49t6.5 60z" />
    <glyph glyph-name="ydieresis" unicode="&#xff;" horiz-adv-x="598" 
d="M369 487q52 2 104 3l104 2q0 -3 1 -10t2 -15t2 -15t1 -10q-29 -23 -53 -62t-44 -84q-6 -16 -19.5 -47t-30.5 -69t-35.5 -80t-35.5 -80t-30.5 -68.5t-19.5 -46.5q-26 -60 -67.5 -98.5t-103.5 -38.5q-44 0 -75.5 18t-31.5 52q0 24 15.5 42.5t38.5 28.5q5 -3 17.5 -11
t26 -17t26 -16.5t18.5 -10.5q32 4 48.5 26.5t24.5 43.5l28 70l-41 4q-7 18 -20.5 50.5t-30.5 72.5t-35.5 84t-35.5 84t-30.5 72.5t-20.5 50.5l-48 19v53l201 8q2 -26 7.5 -52t17.5 -61q6 -18 18.5 -52t26.5 -71t26.5 -71t18.5 -52h3q7 21 21 59t30 80t30 80.5t21 58.5
l-71 25v10t0.5 15.5t0.5 15.5v10zM127 618q0 29 20.5 48.5t49.5 19.5t48.5 -19.5t19.5 -48.5t-19.5 -49.5t-48.5 -20.5t-49.5 20.5t-20.5 49.5zM341 618q0 29 19.5 48.5t48.5 19.5t49.5 -19.5t20.5 -48.5t-20.5 -49.5t-49.5 -20.5t-48.5 20.5t-19.5 49.5z" />
    <glyph glyph-name="Amacron" unicode="&#x100;" horiz-adv-x="745" 
d="M455 214h-223l-44 -132l87 -19l-2 -63h-263l-4 61l82 23l181 468q13 32 24.5 65t21.5 67l116 23l7 -3l245 -621l57 -19l-6 -64h-305l-5 61l76 24zM295 404l-38 -113h172l-38 116l-46 136h-4zM568 848v-90h-360v90h360z" />
    <glyph glyph-name="amacron" unicode="&#x101;" horiz-adv-x="561" 
d="M320 63l-67 -64q-20 -5 -41 -9t-39 -4q-41 0 -68 12.5t-44 32.5t-24 44.5t-7 49.5q0 11 2 26t7.5 30t15.5 29t27 25q8 5 23 12t42 13.5t69 12.5t104 9v38q0 42 -18 56.5t-64 14.5q-28 0 -70 -5.5t-78 -16.5l-22 77q44 23 99.5 38.5t113.5 15.5q85 0 132.5 -37t47.5 -126
v-240l77 -18v-54q-24 -15 -61 -26t-73 -11q-13 0 -26.5 2t-24.5 9.5t-19 22.5t-11 41h-3zM231 83q19 0 43 8.5t46 25.5v100q-50 -5 -78 -15t-42 -21t-17.5 -22.5t-3.5 -20.5q0 -25 12.5 -40t39.5 -15zM453 675v-91h-360v91h360z" />
    <glyph glyph-name="Abreve" unicode="&#x102;" horiz-adv-x="745" 
d="M455 214h-223l-44 -132l87 -19l-2 -63h-263l-4 61l82 23l181 468q13 32 24.5 65t21.5 67l116 23l7 -3l245 -621l57 -19l-6 -64h-305l-5 61l76 24zM359 742q-34 0 -63 11.5t-52.5 29.5t-41 41t-28.5 46q0 2 0.5 2t0.5 2l92 40q23 -42 52 -65t52 -23q19 0 58 18.5t88 75.5
l48 -38q-49 -74 -101.5 -107t-104.5 -33zM295 404l-38 -113h172l-38 116l-46 136h-4z" />
    <glyph glyph-name="abreve" unicode="&#x103;" horiz-adv-x="561" 
d="M320 63l-67 -64q-20 -5 -41 -9t-39 -4q-41 0 -68 12.5t-44 32.5t-24 44.5t-7 49.5q0 11 2 26t7.5 30t15.5 29t27 25q8 5 23 12t42 13.5t69 12.5t104 9v38q0 42 -18 56.5t-64 14.5q-28 0 -70 -5.5t-78 -16.5l-22 77q44 23 99.5 38.5t113.5 15.5q85 0 132.5 -37t47.5 -126
v-240l77 -18v-54q-24 -15 -61 -26t-73 -11q-13 0 -26.5 2t-24.5 9.5t-19 22.5t-11 41h-3zM231 83q19 0 43 8.5t46 25.5v100q-50 -5 -78 -15t-42 -21t-17.5 -22.5t-3.5 -20.5q0 -25 12.5 -40t39.5 -15zM89 673q4 3 17.5 8.5t28.5 12t28 12.5t18 8q23 -42 52 -65t52 -23
q10 0 25 4t33.5 14.5t41 28.5t47.5 47q2 -2 9 -7.5t14.5 -11.5t14.5 -12t9 -8q-48 -73 -101 -106.5t-104 -33.5q-35 0 -64 11.5t-52.5 29.5t-41 41t-28.5 47z" />
    <glyph glyph-name="Aogonek" unicode="&#x104;" horiz-adv-x="745" 
d="M455 214h-223l-44 -132l87 -19l-2 -63h-263l-4 61l82 23l181 468q13 32 24.5 65t21.5 67l116 23l7 -3l245 -621l57 -19l-6 -64h-122q-23 -26 -32 -52.5t-9 -49.5q0 -29 21 -38.5t47 -9.5q17 1 34 3.5t31 6.5l14 -45q-28 -14 -62 -23t-64 -9q-65 0 -92.5 22.5t-27.5 58.5
q0 28 14.5 64t57.5 72h-115l-5 61l76 24zM295 404l-38 -113h172l-38 116l-46 136h-4z" />
    <glyph glyph-name="aogonek" unicode="&#x105;" horiz-adv-x="561" 
d="M320 63l-67 -64q-20 -5 -41 -9t-39 -4q-41 0 -68 12.5t-44 32.5t-24 44.5t-7 49.5q0 11 2 26t7.5 30t15.5 29t27 25q8 5 23 12t42 13.5t69 12.5t104 9v38q0 42 -18 56.5t-64 14.5q-28 0 -70 -5.5t-78 -16.5l-22 77q44 23 99.5 38.5t113.5 15.5q85 0 132.5 -37t47.5 -126
v-240l77 -18v-54q-17 -11 -41.5 -19.5t-50.5 -13.5q-19 -25 -26.5 -48.5t-7.5 -45.5q0 -29 21 -38.5t47 -9.5q17 1 34 3.5t31 6.5l14 -45q-28 -14 -62 -23t-64 -9q-65 0 -92.5 22.5t-27.5 58.5q0 26 12.5 59t48.5 68q-19 4 -33 19t-18 53h-3zM231 83q19 0 43 8.5t46 25.5
v100q-50 -5 -78 -15t-42 -21t-17.5 -22.5t-3.5 -20.5q0 -25 12.5 -40t39.5 -15z" />
    <glyph glyph-name="Cacute" unicode="&#x106;" horiz-adv-x="648" 
d="M60 337q0 67 17.5 133t55 118t97.5 84t145 32q39 0 77.5 -7t83.5 -31l23 38h51l1 -224l-50 -7l-45 97q-29 20 -60 26t-63 6q-47 0 -80 -20t-53.5 -55t-30 -81.5t-9.5 -99.5q0 -51 7.5 -96t28.5 -79.5t59 -54.5t98 -20q32 0 81.5 5t104.5 22l23 -86q-26 -14 -58 -24
t-64 -16t-62.5 -9t-54.5 -3q-160 0 -241.5 85.5t-81.5 266.5zM463 919l55 -108l-218 -83l-36 64z" />
    <glyph glyph-name="cacute" unicode="&#x107;" horiz-adv-x="496" 
d="M40 236q0 64 19.5 113.5t53 82.5t80.5 50t103 17q34 0 65 -6.5t54.5 -19t37 -30.5t13.5 -41q0 -26 -18.5 -47.5t-44.5 -31.5l-112 89q-27 -4 -46 -18t-31 -35.5t-17.5 -49t-5.5 -57.5q0 -38 5.5 -67t20.5 -49t42 -30.5t69 -10.5q20 0 52 5t63 13l22 -79
q-19 -12 -42.5 -21t-48.5 -15t-49 -9t-43 -3q-129 0 -185.5 64t-56.5 186zM348 770l95 -75l-166 -166l-59 45z" />
    <glyph glyph-name="Ccircumflex" unicode="&#x108;" horiz-adv-x="648" 
d="M60 337q0 67 17.5 133t55 118t97.5 84t145 32q39 0 77.5 -7t83.5 -31l23 38h51l1 -224l-50 -7l-45 97q-29 20 -60 26t-63 6q-47 0 -80 -20t-53.5 -55t-30 -81.5t-9.5 -99.5q0 -51 7.5 -96t28.5 -79.5t59 -54.5t98 -20q32 0 81.5 5t104.5 22l23 -86q-26 -14 -58 -24
t-64 -16t-62.5 -9t-54.5 -3q-160 0 -241.5 85.5t-81.5 266.5zM350 820l-172 -95l-38 43l176 159h73l174 -159l-39 -43z" />
    <glyph glyph-name="ccircumflex" unicode="&#x109;" horiz-adv-x="496" 
d="M40 236q0 64 19.5 113.5t53 82.5t80.5 50t103 17q34 0 65 -6.5t54.5 -19t37 -30.5t13.5 -41q0 -26 -18.5 -47.5t-44.5 -31.5l-112 89q-27 -4 -46 -18t-31 -35.5t-17.5 -49t-5.5 -57.5q0 -38 5.5 -67t20.5 -49t42 -30.5t69 -10.5q20 0 52 5t63 13l22 -79
q-19 -12 -42.5 -21t-48.5 -15t-49 -9t-43 -3q-129 0 -185.5 64t-56.5 186zM272 638q-5 -3 -18 -11t-31 -19t-37.5 -23.5t-37.5 -23.5t-31 -19.5t-18 -11.5l-37 44l175 172h73l174 -172l-38 -44z" />
    <glyph glyph-name="Cdotaccent" unicode="&#x10a;" horiz-adv-x="648" 
d="M60 337q0 67 17.5 133t55 118t97.5 84t145 32q39 0 77.5 -7t83.5 -31l23 38h51l1 -224l-50 -7l-45 97q-29 20 -60 26t-63 6q-47 0 -80 -20t-53.5 -55t-30 -81.5t-9.5 -99.5q0 -51 7.5 -96t28.5 -79.5t59 -54.5t98 -20q32 0 81.5 5t104.5 22l23 -86q-26 -14 -58 -24
t-64 -16t-62.5 -9t-54.5 -3q-160 0 -241.5 85.5t-81.5 266.5zM457 825q0 -35 -24 -60t-62 -25q-43 0 -64 25t-21 60q0 17 6.5 32t18 26t27 17.5t33.5 6.5q38 0 62 -23.5t24 -58.5z" />
    <glyph glyph-name="cdotaccent" unicode="&#x10b;" horiz-adv-x="496" 
d="M40 236q0 64 19.5 113.5t53 82.5t80.5 50t103 17q34 0 65 -6.5t54.5 -19t37 -30.5t13.5 -41q0 -26 -18.5 -47.5t-44.5 -31.5l-112 89q-27 -4 -46 -18t-31 -35.5t-17.5 -49t-5.5 -57.5q0 -38 5.5 -67t20.5 -49t42 -30.5t69 -10.5q20 0 52 5t63 13l22 -79
q-19 -12 -42.5 -21t-48.5 -15t-49 -9t-43 -3q-129 0 -185.5 64t-56.5 186zM360 646q0 -35 -24 -60t-62 -25q-43 0 -64 25t-21 60q0 17 6.5 32t18 26t27 17.5t33.5 6.5q38 0 62 -23.5t24 -58.5z" />
    <glyph glyph-name="Ccaron" unicode="&#x10c;" horiz-adv-x="648" 
d="M60 337q0 67 17.5 133t55 118t97.5 84t145 32q39 0 77.5 -7t83.5 -31l23 38h51l1 -224l-50 -7l-45 97q-29 20 -60 26t-63 6q-47 0 -80 -20t-53.5 -55t-30 -81.5t-9.5 -99.5q0 -51 7.5 -96t28.5 -79.5t59 -54.5t98 -20q32 0 81.5 5t104.5 22l23 -86q-26 -14 -58 -24
t-64 -16t-62.5 -9t-54.5 -3q-160 0 -241.5 85.5t-81.5 266.5zM551 931l38 -43l-174 -159h-73l-175 159l37 43q7 -5 32 -18.5t54 -29t54.5 -29.5t32.5 -18z" />
    <glyph glyph-name="ccaron" unicode="&#x10d;" horiz-adv-x="496" 
d="M40 236q0 64 19.5 113.5t53 82.5t80.5 50t103 17q34 0 65 -6.5t54.5 -19t37 -30.5t13.5 -41q0 -26 -18.5 -47.5t-44.5 -31.5l-112 89q-27 -4 -46 -18t-31 -35.5t-17.5 -49t-5.5 -57.5q0 -38 5.5 -67t20.5 -49t42 -30.5t69 -10.5q20 0 52 5t63 13l22 -79
q-19 -12 -42.5 -21t-48.5 -15t-49 -9t-43 -3q-129 0 -185.5 64t-56.5 186zM451 753l38 -44l-174 -172h-73l-175 173l37 43q5 -3 18 -11.5t31 -20t37.5 -24t37.5 -24t31 -20.5t18 -12z" />
    <glyph glyph-name="Dcaron" unicode="&#x10e;" horiz-adv-x="764" 
d="M223 3h-47t-41.5 -0.5t-43 -1t-50.5 -1.5l-6 57l89 27v520l-80 24l7 61q26 -1 44.5 -1.5t35 -1t32.5 -0.5h36q28 0 50.5 0.5t41 1.5t36 1.5t35.5 0.5q97 0 163 -30t105.5 -78.5t56.5 -109.5t17 -123q0 -31 -5 -68.5t-17.5 -76t-35.5 -75.5t-59 -65.5t-87 -46t-120 -17.5
q-6 0 -28.5 0.5t-48 1t-48.5 1t-32 0.5zM275 98q17 -4 38.5 -5.5t39.5 -1.5q54 0 91.5 21.5t60 58t32.5 84t10 98.5q0 73 -18 120t-48 74t-69.5 37.5t-83.5 10.5q-14 0 -28 -0.5t-25 -1.5v-495zM505 931l38 -43l-174 -159h-73l-175 159l37 43q7 -5 32 -18.5t54 -29
t54.5 -29.5t32.5 -18z" />
    <glyph glyph-name="dcaron" unicode="&#x10f;" horiz-adv-x="759" 
d="M576 650q0 32 24.5 56.5t63.5 24.5q22 0 39 -8.5t27.5 -22.5t16 -31.5t5.5 -36.5q0 -55 -39 -103.5t-105 -84.5l-28 36q29 25 43 46t20 48q-32 5 -49.5 26t-17.5 50zM515 716v-629l72 -20v-52l-170 -28l-13 5l-17 76l-3 1l-76 -71q-45 -12 -80 -12q-56 0 -93 20t-59 53.5
t-31.5 78t-9.5 93.5q0 57 12 106.5t38.5 86t68.5 57t102 20.5q29 0 58.5 -5t62.5 -19v147l-69 20v53l195 28zM184 248q0 -30 5 -57.5t17 -48.5t31.5 -33.5t48.5 -12.5q24 0 49 8.5t43 19.5v263q-17 8 -38 11.5t-40 3.5q-31 0 -53 -12t-36 -33t-20.5 -49t-6.5 -60z" />
    <glyph glyph-name="Dcroat" unicode="&#x110;" horiz-adv-x="764" 
d="M56 380h68v224l-80 24l7 61q26 -1 44.5 -1.5t35 -1t32.5 -0.5h36q28 0 50.5 0.5t41 1.5t36 1.5t35.5 0.5q97 0 163 -30t105.5 -78.5t56.5 -109.5t17 -123q0 -31 -5 -68.5t-17.5 -76t-35.5 -75.5t-59 -65.5t-87 -46t-120 -17.5q-6 0 -28.5 0.5t-48 1t-48.5 1t-32 0.5h-47
t-41.5 -0.5t-43 -1t-50.5 -1.5l-6 57l89 27v231h-68v65zM275 380h133v-65h-133v-217q17 -4 38.5 -5.5t39.5 -1.5q54 0 91.5 21.5t60 58t32.5 84t10 98.5q0 73 -18 120t-48 74t-69.5 37.5t-83.5 10.5q-14 0 -28 -0.5t-25 -1.5v-213z" />
    <glyph glyph-name="dcroat" unicode="&#x111;" horiz-adv-x="592" 
d="M515 716v-146h65v-62h-65v-421l72 -20v-52l-170 -28l-13 5l-17 76l-3 1l-76 -71q-45 -12 -80 -12q-54 0 -91 18t-59.5 49.5t-32.5 73t-10 89.5q0 56 12.5 102t39 79t68.5 51t101 18q29 0 58.5 -5.5t62.5 -19.5v67h-160v62h160v54l-69 20v53l195 28zM184 232
q0 -29 5 -54.5t17 -45t31.5 -31t48.5 -11.5q24 0 49 8.5t43 19.5v235q-38 16 -78 16q-62 0 -89 -37t-27 -100z" />
    <glyph glyph-name="Emacron" unicode="&#x112;" horiz-adv-x="656" 
d="M621 202l-26 -192l-11 -10q-36 0 -68 0.5l-64 1t-66.5 1t-75.5 0.5h-60t-70.5 -0.5t-72.5 -1t-65 -1.5l-7 57l91 27v520l-81 24l7 61q25 -1 61 -1.5t73 -1t69.5 -0.5h52.5q34 0 65 0.5t61.5 1t61.5 1t66 1.5l11 -6l2 -191l-49 -10l-48 113h-41.5t-58 -0.5t-58.5 -0.5h-43
v-200l221 8v-94l-221 8v-223h49.5t65.5 0.5t65.5 1t49.5 0.5l68 117zM522 848v-90h-360v90h360z" />
    <glyph glyph-name="emacron" unicode="&#x113;" horiz-adv-x="548" 
d="M287 499q72 0 116 -20t68 -51.5t32.5 -71t9.5 -77.5l-8 -13l-314 -18q2 -84 36 -120.5t112 -36.5q23 0 61 6.5t73 19.5l24 -76q-40 -25 -96 -40t-114 -15q-68 0 -115 17t-76.5 49.5t-42.5 79t-13 105.5q0 47 10.5 94t38 84.5t75.5 60.5t123 23zM351 322q0 20 -3 38.5
t-11 32.5t-22.5 22.5t-36.5 8.5q-25 0 -41.5 -10.5t-26.5 -28t-14 -39t-4 -43.5zM458 675v-91h-360v91h360z" />
    <glyph glyph-name="Ebreve" unicode="&#x114;" horiz-adv-x="656" 
d="M621 202l-26 -192l-11 -10q-36 0 -68 0.5l-64 1t-66.5 1t-75.5 0.5h-60t-70.5 -0.5t-72.5 -1t-65 -1.5l-7 57l91 27v520l-81 24l7 61q25 -1 61 -1.5t73 -1t69.5 -0.5h52.5q34 0 65 0.5t61.5 1t61.5 1t66 1.5l11 -6l2 -191l-49 -10l-48 113h-41.5t-58 -0.5t-58.5 -0.5h-43
v-200l221 8v-94l-221 8v-223h49.5t65.5 0.5t65.5 1t49.5 0.5l68 117zM316 742q-34 0 -63 11.5t-52.5 29.5t-41 41t-28.5 46q0 2 0.5 2t0.5 2l92 40q23 -42 52 -65t52 -23q19 0 58 18.5t88 75.5l48 -38q-49 -74 -101.5 -107t-104.5 -33z" />
    <glyph glyph-name="ebreve" unicode="&#x115;" horiz-adv-x="548" 
d="M287 499q72 0 116 -20t68 -51.5t32.5 -71t9.5 -77.5l-8 -13l-314 -18q2 -84 36 -120.5t112 -36.5q23 0 61 6.5t73 19.5l24 -76q-40 -25 -96 -40t-114 -15q-68 0 -115 17t-76.5 49.5t-42.5 79t-13 105.5q0 47 10.5 94t38 84.5t75.5 60.5t123 23zM351 322q0 20 -3 38.5
t-11 32.5t-22.5 22.5t-36.5 8.5q-25 0 -41.5 -10.5t-26.5 -28t-14 -39t-4 -43.5zM91 673q4 3 17.5 8.5t28.5 12t28 12.5t18 8q23 -42 52 -65t52 -23q10 0 25 4t33.5 14.5t41 28.5t47.5 47q2 -2 9 -7.5t14.5 -11.5t14.5 -12t9 -8q-48 -73 -101 -106.5t-104 -33.5
q-35 0 -64 11.5t-52.5 29.5t-41 41t-28.5 47z" />
    <glyph glyph-name="Edotaccent" unicode="&#x116;" horiz-adv-x="656" 
d="M621 202l-26 -192l-11 -10q-36 0 -68 0.5l-64 1t-66.5 1t-75.5 0.5h-60t-70.5 -0.5t-72.5 -1t-65 -1.5l-7 57l91 27v520l-81 24l7 61q25 -1 61 -1.5t73 -1t69.5 -0.5h52.5q34 0 65 0.5t61.5 1t61.5 1t66 1.5l11 -6l2 -191l-49 -10l-48 113h-41.5t-58 -0.5t-58.5 -0.5h-43
v-200l221 8v-94l-221 8v-223h49.5t65.5 0.5t65.5 1t49.5 0.5l68 117zM416 829q0 -35 -24 -60t-62 -25q-43 0 -64 25t-21 60q0 17 6.5 32t18 26t27 17.5t33.5 6.5q38 0 62 -23.5t24 -58.5z" />
    <glyph glyph-name="edotaccent" unicode="&#x117;" horiz-adv-x="548" 
d="M287 499q72 0 116 -20t68 -51.5t32.5 -71t9.5 -77.5l-8 -13l-314 -18q2 -84 36 -120.5t112 -36.5q23 0 61 6.5t73 19.5l24 -76q-40 -25 -96 -40t-114 -15q-68 0 -115 17t-76.5 49.5t-42.5 79t-13 105.5q0 47 10.5 94t38 84.5t75.5 60.5t123 23zM351 322q0 20 -3 38.5
t-11 32.5t-22.5 22.5t-36.5 8.5q-25 0 -41.5 -10.5t-26.5 -28t-14 -39t-4 -43.5zM369 646q0 -35 -24 -60t-62 -25q-43 0 -64 25t-21 60q0 17 6.5 32t18 26t27 17.5t33.5 6.5q38 0 62 -23.5t24 -58.5z" />
    <glyph glyph-name="Eogonek" unicode="&#x118;" horiz-adv-x="656" 
d="M621 202l-26 -192l-11 -10h-22q-23 -26 -32 -52.5t-9 -49.5q0 -29 21 -38.5t47 -9.5q17 1 34 3.5t31 6.5l14 -45q-28 -14 -62 -23t-64 -9q-65 0 -92.5 22.5t-27.5 58.5q0 28 15 64.5t59 72.5q-43 1 -86.5 1.5t-99.5 0.5h-60t-70.5 -0.5t-72.5 -1t-65 -1.5l-7 57l91 27
v520l-81 24l7 61q25 -1 61 -1.5t73 -1t69.5 -0.5h52.5q34 0 65 0.5t61.5 1t61.5 1t66 1.5l11 -6l2 -191l-49 -10l-48 113h-41.5t-58 -0.5t-58.5 -0.5h-43v-200l221 8v-94l-221 8v-223h49.5t65.5 0.5t65.5 1t49.5 0.5l68 117z" />
    <glyph glyph-name="eogonek" unicode="&#x119;" horiz-adv-x="548" 
d="M287 499q72 0 116 -20t68 -51.5t32.5 -71t9.5 -77.5l-8 -13l-314 -18q2 -84 36 -120.5t112 -36.5q23 0 61 6.5t73 19.5l24 -76l-33 -18q-22 -26 -31 -52t-9 -49q0 -29 21 -38.5t47 -9.5q17 1 34 3.5t31 6.5l14 -45q-28 -14 -62 -23t-64 -9q-65 0 -92.5 22.5t-27.5 58.5
q0 22 8.5 49t32.5 56q-20 -4 -39.5 -5.5t-39.5 -1.5q-68 0 -115 17t-76.5 49.5t-42.5 79t-13 105.5q0 47 10.5 94t38 84.5t75.5 60.5t123 23zM351 322q0 20 -3 38.5t-11 32.5t-22.5 22.5t-36.5 8.5q-25 0 -41.5 -10.5t-26.5 -28t-14 -39t-4 -43.5z" />
    <glyph glyph-name="Ecaron" unicode="&#x11a;" horiz-adv-x="656" 
d="M621 202l-26 -192l-11 -10q-36 0 -68 0.5l-64 1t-66.5 1t-75.5 0.5h-60t-70.5 -0.5t-72.5 -1t-65 -1.5l-7 57l91 27v520l-81 24l7 61q25 -1 61 -1.5t73 -1t69.5 -0.5h52.5q34 0 65 0.5t61.5 1t61.5 1t66 1.5l11 -6l2 -191l-49 -10l-48 113h-41.5t-58 -0.5t-58.5 -0.5h-43
v-200l221 8v-94l-221 8v-223h49.5t65.5 0.5t65.5 1t49.5 0.5l68 117zM512 931l38 -43l-174 -159h-73l-175 159l37 43q7 -5 32 -18.5t54 -29t54.5 -29.5t32.5 -18z" />
    <glyph glyph-name="ecaron" unicode="&#x11b;" horiz-adv-x="548" 
d="M287 499q72 0 116 -20t68 -51.5t32.5 -71t9.5 -77.5l-8 -13l-314 -18q2 -84 36 -120.5t112 -36.5q23 0 61 6.5t73 19.5l24 -76q-40 -25 -96 -40t-114 -15q-68 0 -115 17t-76.5 49.5t-42.5 79t-13 105.5q0 47 10.5 94t38 84.5t75.5 60.5t123 23zM351 322q0 20 -3 38.5
t-11 32.5t-22.5 22.5t-36.5 8.5q-25 0 -41.5 -10.5t-26.5 -28t-14 -39t-4 -43.5zM455 753l38 -44l-174 -172h-73l-175 173l37 43q5 -3 18 -11.5t31 -20t37.5 -24t37.5 -24t31 -20.5t18 -12z" />
    <glyph glyph-name="Gcircumflex" unicode="&#x11c;" horiz-adv-x="752" 
d="M584 467l-42 104q-29 17 -62 24.5t-68 7.5q-51 0 -88 -19.5t-60 -54.5t-34 -82.5t-11 -103.5q0 -121 42.5 -185t145.5 -64q8 0 20.5 0.5t27.5 2.5t30.5 5t30.5 8v162l-89 28l4 58h286l3 -66l-69 -17v-279l-47 -13l-44 38q-39 -17 -88 -27t-91 -10q-86 0 -147 25.5
t-100 72t-57 111t-18 142.5q0 69 19 135.5t59.5 118t102.5 83.5t148 32q39 0 82.5 -7t91.5 -31l22 38h52l2 -229zM382 820l-172 -95l-38 43l176 159h73l174 -159l-39 -43z" />
    <glyph glyph-name="gcircumflex" unicode="&#x11d;" horiz-adv-x="624" 
d="M159 166q-54 18 -78 56t-24 86q0 39 14 73.5t42 60.5t71 41t101 15q54 0 96.5 -12.5t76.5 -37.5q26 27 61.5 47t70.5 20q11 0 22.5 -6.5t11.5 -22.5q0 -14 -5 -34t-22 -43l-105 -6v-4q12 -16 17.5 -39t5.5 -41q0 -33 -12 -65t-38.5 -56.5t-70 -40t-106.5 -15.5
q-21 0 -40.5 2t-39.5 6q-25 -18 -25 -30q0 -8 11 -14t29.5 -9.5t41.5 -5.5t47 -2q86 -2 138.5 -10.5t81 -24.5t38 -39t9.5 -53q0 -37 -22 -72.5t-66.5 -63.5t-111 -45.5t-155.5 -17.5q-43 0 -79 6.5t-62.5 20t-41 34t-14.5 49.5q0 21 9 37.5t25 30t38 25t48 22.5v1
q-57 8 -80 25.5t-23 46.5q0 9 3 20t10 18l102 65v2zM300 638q-5 -3 -18 -11t-31 -19t-37.5 -23.5t-37.5 -23.5t-31 -19.5t-18 -11.5l-37 44l175 172h73l174 -172l-38 -44zM161 -93q0 -14 4 -26.5t14.5 -21.5t30 -14t51.5 -5q34 0 63 5.5t50.5 16t34 26t12.5 35.5
q0 25 -20 35t-51.5 13t-70.5 3t-77 4q-23 -17 -32 -36t-9 -35zM287 425q-24 0 -39.5 -9t-24.5 -23.5t-12.5 -32.5t-3.5 -36q0 -26 3.5 -46t12.5 -34t25 -21.5t41 -7.5q24 0 39.5 8.5t24.5 22.5t12.5 31.5t3.5 35.5q0 24 -3.5 44.5t-12.5 35.5t-25 23.5t-41 8.5z" />
    <glyph glyph-name="Gbreve" unicode="&#x11e;" horiz-adv-x="752" 
d="M584 467l-42 104q-29 17 -62 24.5t-68 7.5q-51 0 -88 -19.5t-60 -54.5t-34 -82.5t-11 -103.5q0 -121 42.5 -185t145.5 -64q8 0 20.5 0.5t27.5 2.5t30.5 5t30.5 8v162l-89 28l4 58h286l3 -66l-69 -17v-279l-47 -13l-44 38q-39 -17 -88 -27t-91 -10q-86 0 -147 25.5
t-100 72t-57 111t-18 142.5q0 69 19 135.5t59.5 118t102.5 83.5t148 32q39 0 82.5 -7t91.5 -31l22 38h52l2 -229zM382 742q-34 0 -63 11.5t-52.5 29.5t-41 41t-28.5 46q0 2 0.5 2t0.5 2l92 40q23 -42 52 -65t52 -23q19 0 58 18.5t88 75.5l48 -38q-49 -74 -101.5 -107
t-104.5 -33z" />
    <glyph glyph-name="gbreve" unicode="&#x11f;" horiz-adv-x="624" 
d="M159 166q-54 18 -78 56t-24 86q0 39 14 73.5t42 60.5t71 41t101 15q54 0 96.5 -12.5t76.5 -37.5q26 27 61.5 47t70.5 20q11 0 22.5 -6.5t11.5 -22.5q0 -14 -5 -34t-22 -43l-105 -6v-4q12 -16 17.5 -39t5.5 -41q0 -33 -12 -65t-38.5 -56.5t-70 -40t-106.5 -15.5
q-21 0 -40.5 2t-39.5 6q-25 -18 -25 -30q0 -8 11 -14t29.5 -9.5t41.5 -5.5t47 -2q86 -2 138.5 -10.5t81 -24.5t38 -39t9.5 -53q0 -37 -22 -72.5t-66.5 -63.5t-111 -45.5t-155.5 -17.5q-43 0 -79 6.5t-62.5 20t-41 34t-14.5 49.5q0 21 9 37.5t25 30t38 25t48 22.5v1
q-57 8 -80 25.5t-23 46.5q0 9 3 20t10 18l102 65v2zM113 673q4 3 17.5 8.5t28.5 12t28 12.5t18 8q23 -42 52 -65t52 -23q10 0 25 4t33.5 14.5t41 28.5t47.5 47q2 -2 9 -7.5t14.5 -11.5t14.5 -12t9 -8q-48 -73 -101 -106.5t-104 -33.5q-35 0 -64 11.5t-52.5 29.5t-41 41
t-28.5 47zM161 -93q0 -14 4 -26.5t14.5 -21.5t30 -14t51.5 -5q34 0 63 5.5t50.5 16t34 26t12.5 35.5q0 25 -20 35t-51.5 13t-70.5 3t-77 4q-23 -17 -32 -36t-9 -35zM287 425q-24 0 -39.5 -9t-24.5 -23.5t-12.5 -32.5t-3.5 -36q0 -26 3.5 -46t12.5 -34t25 -21.5t41 -7.5
q24 0 39.5 8.5t24.5 22.5t12.5 31.5t3.5 35.5q0 24 -3.5 44.5t-12.5 35.5t-25 23.5t-41 8.5z" />
    <glyph glyph-name="Gdotaccent" unicode="&#x120;" horiz-adv-x="752" 
d="M584 467l-42 104q-29 17 -62 24.5t-68 7.5q-51 0 -88 -19.5t-60 -54.5t-34 -82.5t-11 -103.5q0 -121 42.5 -185t145.5 -64q8 0 20.5 0.5t27.5 2.5t30.5 5t30.5 8v162l-89 28l4 58h286l3 -66l-69 -17v-279l-47 -13l-44 38q-39 -17 -88 -27t-91 -10q-86 0 -147 25.5
t-100 72t-57 111t-18 142.5q0 69 19 135.5t59.5 118t102.5 83.5t148 32q39 0 82.5 -7t91.5 -31l22 38h52l2 -229zM479 829q0 -35 -24 -60t-62 -25q-43 0 -64 25t-21 60q0 17 6.5 32t18 26t27 17.5t33.5 6.5q38 0 62 -23.5t24 -58.5z" />
    <glyph glyph-name="gdotaccent" unicode="&#x121;" horiz-adv-x="624" 
d="M159 166q-54 18 -78 56t-24 86q0 39 14 73.5t42 60.5t71 41t101 15q54 0 96.5 -12.5t76.5 -37.5q26 27 61.5 47t70.5 20q11 0 22.5 -6.5t11.5 -22.5q0 -14 -5 -34t-22 -43l-105 -6v-4q12 -16 17.5 -39t5.5 -41q0 -33 -12 -65t-38.5 -56.5t-70 -40t-106.5 -15.5
q-21 0 -40.5 2t-39.5 6q-25 -18 -25 -30q0 -8 11 -14t29.5 -9.5t41.5 -5.5t47 -2q86 -2 138.5 -10.5t81 -24.5t38 -39t9.5 -53q0 -37 -22 -72.5t-66.5 -63.5t-111 -45.5t-155.5 -17.5q-43 0 -79 6.5t-62.5 20t-41 34t-14.5 49.5q0 21 9 37.5t25 30t38 25t48 22.5v1
q-57 8 -80 25.5t-23 46.5q0 9 3 20t10 18l102 65v2zM161 -93q0 -14 4 -26.5t14.5 -21.5t30 -14t51.5 -5q34 0 63 5.5t50.5 16t34 26t12.5 35.5q0 25 -20 35t-51.5 13t-70.5 3t-77 4q-23 -17 -32 -36t-9 -35zM287 425q-24 0 -39.5 -9t-24.5 -23.5t-12.5 -32.5t-3.5 -36
q0 -26 3.5 -46t12.5 -34t25 -21.5t41 -7.5q24 0 39.5 8.5t24.5 22.5t12.5 31.5t3.5 35.5q0 24 -3.5 44.5t-12.5 35.5t-25 23.5t-41 8.5zM386 646q0 -35 -24 -60t-62 -25q-43 0 -64 25t-21 60q0 17 6.5 32t18 26t27 17.5t33.5 6.5q38 0 62 -23.5t24 -58.5z" />
    <glyph glyph-name="Gcommaaccent" unicode="&#x122;" horiz-adv-x="752" 
d="M584 467l-42 104q-29 17 -62 24.5t-68 7.5q-51 0 -88 -19.5t-60 -54.5t-34 -82.5t-11 -103.5q0 -121 42.5 -185t145.5 -64q8 0 20.5 0.5t27.5 2.5t30.5 5t30.5 8v162l-89 28l4 58h286l3 -66l-69 -17v-279l-47 -13l-44 38q-39 -17 -88 -27t-91 -10q-86 0 -147 25.5
t-100 72t-57 111t-18 142.5q0 69 19 135.5t59.5 118t102.5 83.5t148 32q39 0 82.5 -7t91.5 -31l22 38h52l2 -229zM295 -136q0 32 24.5 56.5t63.5 24.5q22 0 39 -8.5t27.5 -22.5t16 -31.5t5.5 -36.5q0 -55 -39 -103.5t-105 -84.5l-28 36q29 25 43 46t20 48q-32 5 -49.5 26
t-17.5 50z" />
    <glyph glyph-name="gcommaaccent" unicode="&#x123;" horiz-adv-x="624" 
d="M159 166q-54 18 -78 56t-24 86q0 39 14 73.5t42 60.5t71 41t101 15q54 0 96.5 -12.5t76.5 -37.5q26 27 61.5 47t70.5 20q11 0 22.5 -6.5t11.5 -22.5q0 -14 -5 -34t-22 -43l-105 -6v-4q12 -16 17.5 -39t5.5 -41q0 -33 -12 -65t-38.5 -56.5t-70 -40t-106.5 -15.5
q-21 0 -40.5 2t-39.5 6q-25 -18 -25 -30q0 -8 11 -14t29.5 -9.5t41.5 -5.5t47 -2q86 -2 138.5 -10.5t81 -24.5t38 -39t9.5 -53q0 -37 -22 -72.5t-66.5 -63.5t-111 -45.5t-155.5 -17.5q-43 0 -79 6.5t-62.5 20t-41 34t-14.5 49.5q0 21 9 37.5t25 30t38 25t48 22.5v1
q-57 8 -80 25.5t-23 46.5q0 9 3 20t10 18l102 65v2zM396 636q0 -32 -24.5 -56.5t-62.5 -24.5q-23 0 -39.5 8.5t-27.5 22.5t-16 31.5t-5 36.5q0 54 38.5 102.5t104.5 84.5q8 -9 14 -18t14 -18q-29 -24 -42.5 -45t-19.5 -48q31 -5 48.5 -26t17.5 -50zM161 -93q0 -14 4 -26.5
t14.5 -21.5t30 -14t51.5 -5q34 0 63 5.5t50.5 16t34 26t12.5 35.5q0 25 -20 35t-51.5 13t-70.5 3t-77 4q-23 -17 -32 -36t-9 -35zM287 425q-24 0 -39.5 -9t-24.5 -23.5t-12.5 -32.5t-3.5 -36q0 -26 3.5 -46t12.5 -34t25 -21.5t41 -7.5q24 0 39.5 8.5t24.5 22.5t12.5 31.5
t3.5 35.5q0 24 -3.5 44.5t-12.5 35.5t-25 23.5t-41 8.5z" />
    <glyph glyph-name="Hcircumflex" unicode="&#x124;" horiz-adv-x="851" 
d="M46 688h327l4 -62l-93 -23v-203h279v202l-85 27l4 59h325l4 -62l-96 -23v-516l96 -23l-3 -64h-328l-6 58l89 28v233h-279v-232l93 -23l-4 -64h-329l-4 57l92 29v516l-90 28zM421 820l-172 -95l-38 43l176 159h73l174 -159l-39 -43z" />
    <glyph glyph-name="hcircumflex" unicode="&#x125;" horiz-adv-x="644" 
d="M225 419l2 -1l76 70q24 6 52.5 9t48.5 3q74 0 108 -32t34 -104l1 -289l66 -22l-3 -53h-263q0 13 -1 26.5t-1 26.5q14 7 29.5 12.5t30.5 11.5v232q0 41 -15 60.5t-60 19.5q-21 0 -50 -8.5t-53 -22.5q-1 -36 -1 -69.5v-67.5t0.5 -70t0.5 -77q16 -5 31.5 -10t30.5 -10
l-3 -54h-262q-2 13 -2.5 25.5t-1.5 25.5l69 27v67v92.5t-0.5 106t-0.5 107.5t-0.5 97.5t-0.5 76.5l-68 20v52l194 28q8 -4 12 -5v-301zM151 820l-172 -95l-38 43l176 159h73l174 -159l-39 -43z" />
    <glyph glyph-name="Hbar" unicode="&#x126;" horiz-adv-x="849" 
d="M46 688h326l3 -62l-92 -22v-71h279v70l-85 27l4 58h324l4 -61l-96 -23v-71h62v-53h-62v-394l96 -23l-3 -63h-327l-5 57l88 28v235h-279v-234l93 -23l-4 -63h-328l-4 57l92 28v395h-63v53h63v70l-90 27zM562 399v81h-279v-81h279z" />
    <glyph glyph-name="hbar" unicode="&#x127;" horiz-adv-x="644" 
d="M24 568h63v57l-68 20v52l194 28q8 -4 12 -5q-1 -42 -1 -79v-73h182v-53h-181v-133h2l76 70q23 5 49 8.5t47 3.5q78 0 113 -31.5t35 -104.5v-253l66 -22l-3 -53h-263q0 13 -1 26.5t-1 26.5l60 24v196q0 42 -15 61t-60 19q-21 0 -49 -8t-54 -23v-248l62 -20l-3 -54h-262
l-4 51l69 27v80.5t-0.5 110.5t-0.5 124.5v121.5h-64v53z" />
    <glyph glyph-name="Itilde" unicode="&#x128;" horiz-adv-x="463" 
d="M400 0h-336l-4 57l93 28v518l-92 28l4 57h335l3 -61l-98 -23v-519l98 -23zM419 874q-3 -25 -11 -49t-22 -42.5t-35 -30t-50 -11.5q-26 0 -45.5 7t-36.5 15.5t-34 15.5t-37 7t-36.5 -9t-28.5 -40l-46 8q1 13 6 36t17.5 45t35 38t59.5 16q19 0 40.5 -7.5t42 -16.5t39 -16.5
t33.5 -7.5q22 0 37 10t28 39z" />
    <glyph glyph-name="itilde" unicode="&#x129;" horiz-adv-x="367" 
d="M256 75l71 -25l-2 -50h-281l-4 50l76 31v31v54v66.5v68.5t-0.5 59.5t-0.5 40.5l-68 20v52l195 29l12 -5zM372 691q-3 -25 -11 -49t-22 -42.5t-35 -30t-50 -11.5q-26 0 -45.5 7t-36.5 15.5t-34 15.5t-37 7t-36.5 -9t-28.5 -40l-46 8q1 13 6 36t17.5 45t35 38t59.5 16
q19 0 40.5 -7.5t42 -16.5t39 -16.5t33.5 -7.5q22 0 37 10t28 39z" />
    <glyph glyph-name="Imacron" unicode="&#x12a;" horiz-adv-x="463" 
d="M400 0h-336l-4 57l93 28v518l-92 28l4 57h335l3 -61l-98 -23v-519l98 -23zM410 848v-90h-360v90h360z" />
    <glyph glyph-name="imacron" unicode="&#x12b;" horiz-adv-x="367" 
d="M256 75l71 -25l-2 -50h-281l-4 50l76 31v31v54v66.5v68.5t-0.5 59.5t-0.5 40.5l-68 20v52l195 29l12 -5zM359 675v-91h-360v91h360z" />
    <glyph glyph-name="Ibreve" unicode="&#x12c;" horiz-adv-x="463" 
d="M400 0h-336l-4 57l93 28v518l-92 28l4 57h335l3 -61l-98 -23v-519l98 -23zM218 742q-34 0 -63 11.5t-52.5 29.5t-41 41t-28.5 46q0 2 0.5 2t0.5 2l92 40q23 -42 52 -65t52 -23q19 0 58 18.5t88 75.5l48 -38q-49 -74 -101.5 -107t-104.5 -33z" />
    <glyph glyph-name="ibreve" unicode="&#x12d;" horiz-adv-x="367" 
d="M256 75l71 -25l-2 -50h-281l-4 50l76 31v31v54v66.5v68.5t-0.5 59.5t-0.5 40.5l-68 20v52l195 29l12 -5zM-11 679q4 3 17.5 8.5t28.5 12t28 12.5t18 8q23 -42 52 -65t52 -23q10 0 25 4t33.5 14.5t41 28.5t47.5 47q2 -2 9 -7.5t14.5 -11.5t14.5 -12t9 -8
q-48 -73 -101 -106.5t-104 -33.5q-35 0 -64 11.5t-52.5 29.5t-41 41t-28.5 47z" />
    <glyph glyph-name="Iogonek" unicode="&#x12e;" horiz-adv-x="463" 
d="M400 0h-148q-23 -26 -32 -52.5t-9 -49.5q0 -29 21 -38.5t47 -9.5q17 1 34 3.5t31 6.5l14 -45q-28 -14 -62 -23t-64 -9q-65 0 -92.5 22.5t-27.5 58.5q0 28 14.5 64t57.5 72h-120l-4 57l93 28v518l-92 28l4 57h335l3 -61l-98 -23v-519l98 -23z" />
    <glyph glyph-name="iogonek" unicode="&#x12f;" horiz-adv-x="367" 
d="M256 75l71 -26l-2 -49h-116q-23 -26 -31.5 -52t-8.5 -49q0 -29 21 -38.5t47 -9.5q17 1 34 3.5t31 6.5l14 -45q-28 -14 -62 -23t-64 -9q-65 0 -92.5 22.5t-27.5 58.5q0 28 14.5 63.5t56.5 71.5h-97l-4 49l76 32v29.5v55t-0.5 68.5t-0.5 70.5v59.5v37l-69 20v52l195 29
q1 0 5.5 -2.5t6.5 -2.5zM268 644q0 -37 -24 -62t-64 -25q-44 0 -65.5 25t-21.5 62q0 17 7 32.5t18.5 27t27.5 18t34 6.5q40 0 64 -24.5t24 -59.5z" />
    <glyph glyph-name="Idotaccent" unicode="&#x130;" horiz-adv-x="463" 
d="M400 0h-336l-4 57l93 28v518l-92 28l4 57h335l3 -61l-98 -23v-519l98 -23zM318 822q0 -35 -24 -60t-62 -25q-43 0 -64 25t-21 60q0 17 6.5 32t18 26t27 17.5t33.5 6.5q38 0 62 -23.5t24 -58.5z" />
    <glyph glyph-name="IJ" unicode="&#x132;" horiz-adv-x="851" 
d="M400 0h-336l-4 57l93 28v518l-92 28l4 57h335l3 -61l-98 -23v-519l98 -23zM718 106q0 -82 -22.5 -139.5t-61.5 -96t-91.5 -61.5t-112.5 -35l-23 78q85 36 122.5 93t37.5 135v523l-99 29l4 56h341l2 -61l-97 -23v-498z" />
    <glyph glyph-name="ij" unicode="&#x133;" horiz-adv-x="643" 
d="M553 497q-1 -111 0.5 -220.5t1.5 -219.5q0 -68 -17 -119.5t-48.5 -88.5t-75.5 -61.5t-97 -37.5l-14 36t-13 36q39 24 63.5 48.5t38 51.5t18.5 58t5 67v354l-69 20v52q49 7 97.5 14t97.5 15q8 -4 12 -5zM256 75l71 -26l-2 -49h-281l-4 49l76 32v29.5v55t-0.5 68.5
t-0.5 70.5v59.5v37l-69 20v52l195 29q1 0 5.5 -2.5t6.5 -2.5zM268 644q0 -37 -24 -62t-64 -25q-44 0 -65.5 25t-21.5 62q0 17 7 32.5t18.5 27t27.5 18t34 6.5q40 0 64 -24.5t24 -59.5zM393 643q0 18 6.5 33.5t18.5 27t28 18t34 6.5q39 0 63.5 -25t24.5 -60q0 -36 -24.5 -61
t-63.5 -25q-44 0 -65.5 25t-21.5 61z" />
    <glyph glyph-name="Jcircumflex" unicode="&#x134;" horiz-adv-x="439" 
d="M306 107q0 -82 -22.5 -139.5t-61.5 -96t-91.5 -61.5t-112.5 -35l-23 78q85 36 122.5 93t37.5 135v523l-99 29l4 56h341l2 -61l-97 -23v-498zM230 822l-172 -95l-38 43l176 159h73l174 -159l-39 -43z" />
    <glyph glyph-name="jcircumflex" unicode="&#x135;" horiz-adv-x="356" 
d="M259 497q0 -106 1 -212t1 -218q0 -72 -16 -125t-46.5 -91t-74.5 -62t-101 -39l-14 36t-13 36q40 24 64.5 48t38 51t18 58t4.5 68v354l-69 20v52q49 7 97.5 14t97.5 15q8 -4 12 -5zM185 638q-43 -26 -86 -53.5t-86 -54.5q-10 11 -18.5 21.5t-18.5 21.5q43 44 86.5 86.5
t87.5 86.5h73q44 -44 87.5 -86.5t86.5 -86.5l-38 -43z" />
    <glyph glyph-name="Kcommaaccent" unicode="&#x136;" horiz-adv-x="751" 
d="M375 0h-336l-4 57l93 28v518l-92 28l4 57h335l3 -61l-98 -23v-519l98 -23zM745 44l-14 -45l-127 -28l-302 365v21l207 248l-77 24l4 59h264v-62q-29 -14 -53 -28t-45 -30t-40.5 -33.5t-38.5 -37.5l-102 -109zM323 -116q0 32 24.5 56.5t63.5 24.5q22 0 39 -8.5t27.5 -22.5
t16 -31.5t5.5 -36.5q0 -55 -39 -103.5t-105 -84.5l-28 36q29 25 43 46t20 48q-32 5 -49.5 26t-17.5 50z" />
    <glyph glyph-name="kcommaaccent" unicode="&#x137;" horiz-adv-x="583" 
d="M231 248v21l145 150l-57 24l1 45q57 2 117 4t117 4v-49q-48 -18 -90.5 -45t-76.5 -60l-47 -45l247 -253l-10 -40l-114 -30zM221 77l64 -24l-2 -53h-274l-4 50l76 31v48v96v120.5v122t-0.5 101t-0.5 57.5l-68 20v53l195 29l12 -5zM229 -136q0 32 24.5 56.5t63.5 24.5
q22 0 39 -8.5t27.5 -22.5t16 -31.5t5.5 -36.5q0 -55 -39 -103.5t-105 -84.5l-28 36q29 25 43 46t20 48q-32 5 -49.5 26t-17.5 50z" />
    <glyph glyph-name="kgreenlandic" unicode="&#x138;" horiz-adv-x="595" 
d="M231 248v21l145 150l-57 24l1 45q57 2 117 4t117 4v-49q-48 -18 -90.5 -45t-76.5 -60l-47 -45l247 -253l-10 -40l-114 -30zM221 77l64 -24l-2 -53h-274l-4 50l76 31v32v56v68.5v70.5t-0.5 61.5t-0.5 41.5l-68 20v52l195 29l12 -5z" />
    <glyph glyph-name="Lacute" unicode="&#x139;" horiz-adv-x="648" 
d="M638 214l-26 -204l-11 -10q-36 0 -69.5 0.5t-68 1t-71 1t-77.5 0.5h-60.5t-71.5 -0.5t-73.5 -1t-65.5 -1.5l-5 56l89 29v518l-93 28l5 57h335l2 -61l-98 -23v-510h51.5t70.5 0.5t70.5 1t51.5 0.5l74 128zM328 919l55 -108l-218 -83l-36 64z" />
    <glyph glyph-name="lacute" unicode="&#x13a;" horiz-adv-x="367" 
d="M259 77l64 -24l-2 -53h-274l-4 50l76 31v48v96v120.5v122t-0.5 101t-0.5 57.5l-68 20v53l194 29l12 -5zM292 929l55 -108l-218 -83l-36 64z" />
    <glyph glyph-name="Lcommaaccent" unicode="&#x13b;" horiz-adv-x="648" 
d="M638 214l-26 -204l-11 -10q-36 0 -69.5 0.5t-68 1t-71 1t-77.5 0.5h-60.5t-71.5 -0.5t-73.5 -1t-65.5 -1.5l-5 56l89 29v518l-93 28l5 57h335l2 -61l-98 -23v-510h51.5t70.5 0.5t70.5 1t51.5 0.5l74 128zM272 -136q0 32 24.5 56.5t63.5 24.5q22 0 39 -8.5t27.5 -22.5
t16 -31.5t5.5 -36.5q0 -55 -39 -103.5t-105 -84.5l-28 36q29 25 43 46t20 48q-32 5 -49.5 26t-17.5 50z" />
    <glyph glyph-name="lcommaaccent" unicode="&#x13c;" horiz-adv-x="367" 
d="M259 77l64 -24l-2 -53h-274l-4 50l76 31v48v96v120.5v122t-0.5 101t-0.5 57.5l-68 20v53l194 29l12 -5zM101 -136q0 32 24.5 56.5t63.5 24.5q22 0 39 -8.5t27.5 -22.5t16 -31.5t5.5 -36.5q0 -55 -39 -103.5t-105 -84.5l-28 36q29 25 43 46t20 48q-32 5 -49.5 26t-17.5 50
z" />
    <glyph glyph-name="Lcaron" unicode="&#x13d;" horiz-adv-x="648" 
d="M638 214l-26 -204l-11 -10q-36 0 -69.5 0.5t-68 1t-71 1t-77.5 0.5h-60.5t-71.5 -0.5t-73.5 -1t-65.5 -1.5l-5 56l89 29v518l-93 28l5 57h335l2 -61l-98 -23v-510h51.5t70.5 0.5t70.5 1t51.5 0.5l74 128zM433 618q0 32 24.5 56.5t63.5 24.5q22 0 39 -8.5t27.5 -22.5
t16 -31.5t5.5 -36.5q0 -55 -39 -103.5t-105 -84.5l-28 36q29 25 43 46t20 48q-32 5 -49.5 26t-17.5 50z" />
    <glyph glyph-name="lcaron" unicode="&#x13e;" horiz-adv-x="492" 
d="M315 652q0 32 24.5 56.5t63.5 24.5q22 0 39 -8.5t27.5 -22.5t16 -31.5t5.5 -36.5q0 -55 -39 -103.5t-105 -84.5l-28 36q29 25 43 46t20 48q-32 5 -49.5 26t-17.5 50zM259 77l64 -24l-2 -53h-274l-4 50l76 31v48v96v120.5v122t-0.5 101t-0.5 57.5l-68 20v53l194 29l12 -5z
" />
    <glyph glyph-name="Ldot" unicode="&#x13f;" horiz-adv-x="648" 
d="M638 214l-26 -204l-11 -10q-36 0 -69.5 0.5t-68 1t-71 1t-77.5 0.5h-60.5t-71.5 -0.5t-73.5 -1t-65.5 -1.5l-5 56l89 29v518l-93 28l5 57h335l2 -61l-98 -23v-510h51.5t70.5 0.5t70.5 1t51.5 0.5l74 128zM534 383q0 -35 -24 -60t-62 -25q-43 0 -64 25t-21 60q0 17 6.5 32
t18 26t27 17.5t33.5 6.5q38 0 62 -23.5t24 -58.5z" />
    <glyph glyph-name="ldot" unicode="&#x140;" horiz-adv-x="485" 
d="M481 387q0 -35 -24 -60t-62 -25q-43 0 -64 25t-21 60q0 17 6.5 32t18 26t27 17.5t33.5 6.5q38 0 62 -23.5t24 -58.5zM259 77l64 -24l-2 -53h-274l-4 50l76 31v48v96v120.5v122t-0.5 101t-0.5 57.5l-68 20v53l194 29l12 -5z" />
    <glyph glyph-name="Lslash" unicode="&#x141;" horiz-adv-x="648" 
d="M5 226l123 71v306l-93 28l5 57h335l2 -61l-98 -23v-219l134 79l32 -53l-166 -97v-220h51.5t70.5 0.5t70.5 1t51.5 0.5l74 128l41 -10l-26 -204l-11 -10q-36 0 -69.5 0.5t-68 1t-71 1t-77.5 0.5h-60.5t-71.5 -0.5t-73.5 -1t-65.5 -1.5l-5 56l89 29v140l-94 -54z" />
    <glyph glyph-name="lslash" unicode="&#x142;" horiz-adv-x="367" 
d="M254 408l89 51l30 -55l-60 -34t-59 -34v-130.5t1 -129.5l72 -25q-1 -13 -1.5 -25.5t-0.5 -25.5h-282q-2 12 -2 24t-1 25q19 8 37.5 15.5t38.5 15.5v175l-91 -52l-28 55l118 69v299l-69 20v52q49 8 97.5 15t97.5 14q6 -1 11 -5z" />
    <glyph glyph-name="Nacute" unicode="&#x143;" horiz-adv-x="855" 
d="M633 237l-9 367l-96 26l4 58h288l4 -62l-103 -24q-1 -17 -1.5 -63t-2 -107.5t-2.5 -130t-2 -129.5t-2 -107.5t-1 -63.5l-77 -16l-259 337l-144 190l-4 -1l6 -427l99 -21l-4 -63h-291l-4 59l103 28l13 514l-103 29l7 58q88 -2 151.5 -0.5t92.5 2.5q9 -20 19 -36t19 -28
l172 -227l123 -163zM533 919l55 -108l-218 -83l-36 64z" />
    <glyph glyph-name="nacute" unicode="&#x144;" horiz-adv-x="667" 
d="M209 499q8 -4 12 -5l22 -75q1 0 1 -0.5t1 -0.5l76 70q23 6 50 9t49 3q75 0 109.5 -30.5t34.5 -105.5v-62.5v-64.5t0.5 -73.5t0.5 -88.5l63 -22v-53h-263l-2 53q38 15 48.5 19t12.5 4q0 59 -0.5 117t-0.5 116q0 41 -15 60.5t-60 19.5q-8 0 -21 -2t-27 -6t-28.5 -10
t-26.5 -13l1 -284q15 -5 30.5 -10t30.5 -10l-3 -54h-262q-2 13 -2.5 25.5t-1.5 25.5l69 27v322l-68 19v52q43 8 85 14t85 14zM374 770l95 -75l-166 -166l-59 45z" />
    <glyph glyph-name="Ncommaaccent" unicode="&#x145;" horiz-adv-x="855" 
d="M633 237l-9 367l-96 26l4 58h288l4 -62l-103 -24q-1 -17 -1.5 -63t-2 -107.5t-2.5 -130t-2 -129.5t-2 -107.5t-1 -63.5l-77 -16l-259 337l-144 190l-4 -1l6 -427l99 -21l-4 -63h-291l-4 59l103 28l13 514l-103 29l7 58q88 -2 151.5 -0.5t92.5 2.5q9 -20 19 -36t19 -28
l172 -227l123 -163zM355 -116q0 32 24.5 56.5t63.5 24.5q22 0 39 -8.5t27.5 -22.5t16 -31.5t5.5 -36.5q0 -55 -39 -103.5t-105 -84.5l-28 36q29 25 43 46t20 48q-32 5 -49.5 26t-17.5 50z" />
    <glyph glyph-name="ncommaaccent" unicode="&#x146;" horiz-adv-x="667" 
d="M209 499q8 -4 12 -5l22 -75q1 0 1 -0.5t1 -0.5l76 70q23 6 50 9t49 3q75 0 109.5 -30.5t34.5 -105.5v-62.5v-64.5t0.5 -73.5t0.5 -88.5l63 -22v-53h-263l-2 53q38 15 48.5 19t12.5 4q0 59 -0.5 117t-0.5 116q0 41 -15 60.5t-60 19.5q-8 0 -21 -2t-27 -6t-28.5 -10
t-26.5 -13l1 -284q15 -5 30.5 -10t30.5 -10l-3 -54h-262q-2 13 -2.5 25.5t-1.5 25.5l69 27v322l-68 19v52q43 8 85 14t85 14zM248 -136q0 32 24.5 56.5t63.5 24.5q22 0 39 -8.5t27.5 -22.5t16 -31.5t5.5 -36.5q0 -55 -39 -103.5t-105 -84.5l-28 36q29 25 43 46t20 48
q-32 5 -49.5 26t-17.5 50z" />
    <glyph glyph-name="Ncaron" unicode="&#x147;" horiz-adv-x="855" 
d="M633 237l-9 367l-96 26l4 58h288l4 -62l-103 -24q-1 -17 -1.5 -63t-2 -107.5t-2.5 -130t-2 -129.5t-2 -107.5t-1 -63.5l-77 -16l-259 337l-144 190l-4 -1l6 -427l99 -21l-4 -63h-291l-4 59l103 28l13 514l-103 29l7 58q88 -2 151.5 -0.5t92.5 2.5q9 -20 19 -36t19 -28
l172 -227l123 -163zM588 931l38 -43l-174 -159h-73l-175 159l37 43q7 -5 32 -18.5t54 -29t54.5 -29.5t32.5 -18z" />
    <glyph glyph-name="ncaron" unicode="&#x148;" horiz-adv-x="667" 
d="M209 499q8 -4 12 -5l22 -75q1 0 1 -0.5t1 -0.5l76 70q23 6 50 9t49 3q75 0 109.5 -30.5t34.5 -105.5v-62.5v-64.5t0.5 -73.5t0.5 -88.5l63 -22v-53h-263l-2 53q38 15 48.5 19t12.5 4q0 59 -0.5 117t-0.5 116q0 41 -15 60.5t-60 19.5q-8 0 -21 -2t-27 -6t-28.5 -10
t-26.5 -13l1 -284q15 -5 30.5 -10t30.5 -10l-3 -54h-262q-2 13 -2.5 25.5t-1.5 25.5l69 27v322l-68 19v52q43 8 85 14t85 14zM476 753l38 -44l-174 -172h-73l-175 173l37 43q5 -3 18 -11.5t31 -20t37.5 -24t37.5 -24t31 -20.5t18 -12z" />
    <glyph glyph-name="napostrophe" unicode="&#x149;" horiz-adv-x="819" 
d="M361 499q8 -4 12 -5l22 -75q1 0 1 -0.5t1 -0.5l76 70q23 6 50 9t49 3q75 0 109.5 -30.5t34.5 -105.5v-62.5v-64.5t0.5 -73.5t0.5 -88.5l63 -22v-53h-263l-2 53q38 15 48.5 19t12.5 4q0 59 -0.5 117t-0.5 116q0 41 -15 60.5t-60 19.5q-8 0 -21 -2t-27 -6t-28.5 -10
t-26.5 -13l1 -284q15 -5 30.5 -10t30.5 -10l-3 -54h-262q-2 13 -2.5 25.5t-1.5 25.5l69 27v322l-68 19v52q43 8 85 14t85 14zM1 591q0 32 24.5 56.5t63.5 24.5q22 0 39 -8.5t27.5 -22.5t16 -31.5t5.5 -36.5q0 -55 -39 -103.5t-105 -84.5l-28 36q29 25 43 46t20 48
q-32 5 -49.5 26t-17.5 50z" />
    <glyph glyph-name="Eng" unicode="&#x14a;" horiz-adv-x="854" 
d="M706 -34q0 -36 -7 -66.5t-25 -52t-48 -34t-75 -12.5q-13 0 -29.5 2.5t-33.5 7t-33 11t-28 14.5q5 14 9.5 28.5t9.5 28.5q28 -9 52.5 -11.5t38.5 -2.5q24 0 38.5 8.5t22.5 22.5t11 31.5t3 34.5v36q-63 80 -123.5 159t-122.5 159l-138 182q-1 0 -2 -0.5t-2 -0.5l6 -428
l99 -21l-4 -62h-287l-3 58l102 28l13 516l-103 28l7 58q22 0 41.5 -0.5t37.5 -0.5q57 0 97.5 0.5t63.5 1.5q9 -19 19 -35t19 -28q59 -78 116.5 -154t117.5 -154q4 -6 13 -17.5t18 -24t17.5 -24t13.5 -17.5q2 0 3 1l-4 184t-5 184l-96 27l4 56h285q2 -15 2 -30t2 -31
l-103 -24z" />
    <glyph glyph-name="eng" unicode="&#x14b;" horiz-adv-x="642" 
d="M570 364q1 -99 -0.5 -196t-1.5 -195q0 -36 -9 -66.5t-29 -52t-52 -34t-77 -12.5q-25 0 -60.5 6.5t-64.5 22.5l24 82q20 -5 33 -7t26 -2q22 0 35.5 7t21 20t10.5 29.5t3 36.5v306q0 41 -17.5 60.5t-62.5 19.5q-23 0 -50 -8.5t-54 -22.5v-118t1 -166q15 -5 30.5 -10
t31.5 -10q-2 -14 -2 -27t-2 -27h-262l-4 51l69 27v322l-68 19v52q44 8 87 14.5t87 13.5q4 -1 12 -5l19 -76h2q19 17 37.5 35t38.5 35q23 6 52.5 9t49.5 3q66 0 106 -32t40 -104z" />
    <glyph glyph-name="Omacron" unicode="&#x14c;" horiz-adv-x="763" 
d="M703 352q0 -71 -17 -137t-55.5 -117t-100 -82t-150.5 -31q-164 0 -242 91.5t-78 258.5q0 70 17 136.5t55.5 118t101 83t154.5 31.5q78 0 137 -25t98.5 -71t59.5 -111t20 -145zM382 609q-51 0 -83 -24t-49.5 -61.5t-24 -83.5t-6.5 -89q0 -60 8 -109t26.5 -84t50 -54
t78.5 -19q49 0 80.5 22.5t50.5 59t26.5 82t7.5 91.5q0 51 -8 99.5t-27 86t-50.5 60.5t-79.5 23zM566 848v-90h-360v90h360z" />
    <glyph glyph-name="omacron" unicode="&#x14d;" horiz-adv-x="583" 
d="M543 247q0 -51 -15 -98t-46.5 -83.5t-79.5 -58t-113 -21.5q-66 0 -113 17.5t-77 50t-44.5 79t-14.5 105.5q0 52 16 99t48.5 83t81 57.5t114.5 21.5q61 0 106.5 -17.5t76 -50.5t45.5 -79.5t15 -104.5zM191 254q0 -37 4 -70t15 -58t30.5 -40t51.5 -15q31 0 50.5 13.5
t30.5 36t15.5 51.5t4.5 61q0 34 -4.5 67t-16 59.5t-31 42.5t-50.5 16q-32 0 -51.5 -15t-30.5 -38.5t-14.5 -52.5t-3.5 -58zM473 675v-91h-360v91h360z" />
    <glyph glyph-name="Obreve" unicode="&#x14e;" horiz-adv-x="763" 
d="M703 352q0 -71 -17 -137t-55.5 -117t-100 -82t-150.5 -31q-164 0 -242 91.5t-78 258.5q0 70 17 136.5t55.5 118t101 83t154.5 31.5q78 0 137 -25t98.5 -71t59.5 -111t20 -145zM382 609q-51 0 -83 -24t-49.5 -61.5t-24 -83.5t-6.5 -89q0 -60 8 -109t26.5 -84t50 -54
t78.5 -19q49 0 80.5 22.5t50.5 59t26.5 82t7.5 91.5q0 51 -8 99.5t-27 86t-50.5 60.5t-79.5 23zM376 742q-34 0 -63 11.5t-52.5 29.5t-41 41t-28.5 46q0 2 0.5 2t0.5 2l92 40q23 -42 52 -65t52 -23q19 0 58 18.5t88 75.5l48 -38q-49 -74 -101.5 -107t-104.5 -33z" />
    <glyph glyph-name="obreve" unicode="&#x14f;" horiz-adv-x="583" 
d="M543 247q0 -51 -15 -98t-46.5 -83.5t-79.5 -58t-113 -21.5q-66 0 -113 17.5t-77 50t-44.5 79t-14.5 105.5q0 52 16 99t48.5 83t81 57.5t114.5 21.5q61 0 106.5 -17.5t76 -50.5t45.5 -79.5t15 -104.5zM191 254q0 -37 4 -70t15 -58t30.5 -40t51.5 -15q31 0 50.5 13.5
t30.5 36t15.5 51.5t4.5 61q0 34 -4.5 67t-16 59.5t-31 42.5t-50.5 16q-32 0 -51.5 -15t-30.5 -38.5t-14.5 -52.5t-3.5 -58zM104 673q4 3 17.5 8.5t28.5 12t28 12.5t18 8q23 -42 52 -65t52 -23q10 0 25 4t33.5 14.5t41 28.5t47.5 47q2 -2 9 -7.5t14.5 -11.5t14.5 -12t9 -8
q-48 -73 -101 -106.5t-104 -33.5q-35 0 -64 11.5t-52.5 29.5t-41 41t-28.5 47z" />
    <glyph glyph-name="Ohungarumlaut" unicode="&#x150;" horiz-adv-x="763" 
d="M703 352q0 -71 -17 -137t-55.5 -117t-100 -82t-150.5 -31q-164 0 -242 91.5t-78 258.5q0 70 17 136.5t55.5 118t101 83t154.5 31.5q78 0 137 -25t98.5 -71t59.5 -111t20 -145zM382 609q-51 0 -83 -24t-49.5 -61.5t-24 -83.5t-6.5 -89q0 -60 8 -109t26.5 -84t50 -54
t78.5 -19q49 0 80.5 22.5t50.5 59t26.5 82t7.5 91.5q0 51 -8 99.5t-27 86t-50.5 60.5t-79.5 23zM609 943l73 -96l-199 -121l-47 57zM407 943l74 -96l-199 -121l-48 57z" />
    <glyph glyph-name="ohungarumlaut" unicode="&#x151;" horiz-adv-x="583" 
d="M543 247q0 -51 -15 -98t-46.5 -83.5t-79.5 -58t-113 -21.5q-66 0 -113 17.5t-77 50t-44.5 79t-14.5 105.5q0 52 16 99t48.5 83t81 57.5t114.5 21.5q61 0 106.5 -17.5t76 -50.5t45.5 -79.5t15 -104.5zM191 254q0 -37 4 -70t15 -58t30.5 -40t51.5 -15q31 0 50.5 13.5
t30.5 36t15.5 51.5t4.5 61q0 34 -4.5 67t-16 59.5t-31 42.5t-50.5 16q-32 0 -51.5 -15t-30.5 -38.5t-14.5 -52.5t-3.5 -58zM248 772l105 -58l-141 -187l-65 34zM406 772l104 -58l-141 -187l-64 34z" />
    <glyph glyph-name="Racute" unicode="&#x154;" horiz-adv-x="712" 
d="M366 281h-14q-15 1 -35 2t-43 6v-204l98 -22l-4 -63h-329l-4 56l89 29v520l-81 24l7 58q42 -1 75 -1.5t77 -0.5q52 0 100 1.5t95 1.5q49 0 92 -10.5t75 -33t50 -58.5t18 -87q0 -30 -7.5 -58.5t-24 -54t-42.5 -46.5t-62 -34l217 -267l-13 -43l-125 -28zM475 488
q0 31 -10.5 52t-29.5 34t-44.5 18.5t-55.5 5.5t-61 -6v-216q13 -2 27.5 -2.5t22.5 -0.5q46 0 75.5 10t46.5 26.5t23 37t6 41.5zM463 919l55 -108l-218 -83l-36 64z" />
    <glyph glyph-name="racute" unicode="&#x155;" horiz-adv-x="471" 
d="M254 418l2 -1q16 17 35.5 33.5t41 29.5t46 21t51.5 8q13 0 22 -11.5t9 -33.5q0 -21 -8.5 -52t-26.5 -54l-170 13q0 -9 -0.5 -41.5t-0.5 -76t0.5 -91.5t0.5 -87l72 -25l-2 -50h-282l-4 50l77 30v31.5v54.5v66.5v68.5v59.5v40.5l-69 20v52l175 28l12 -5zM305 770l95 -75
l-166 -166l-59 45z" />
    <glyph glyph-name="Rcommaaccent" unicode="&#x156;" horiz-adv-x="712" 
d="M366 281h-14q-15 1 -35 2t-43 6v-204l98 -22l-4 -63h-329l-4 56l89 29v520l-81 24l7 58q42 -1 75 -1.5t77 -0.5q52 0 100 1.5t95 1.5q49 0 92 -10.5t75 -33t50 -58.5t18 -87q0 -30 -7.5 -58.5t-24 -54t-42.5 -46.5t-62 -34l217 -267l-13 -43l-125 -28zM475 488
q0 31 -10.5 52t-29.5 34t-44.5 18.5t-55.5 5.5t-61 -6v-216q13 -2 27.5 -2.5t22.5 -0.5q46 0 75.5 10t46.5 26.5t23 37t6 41.5zM302 -116q0 32 24.5 56.5t63.5 24.5q22 0 39 -8.5t27.5 -22.5t16 -31.5t5.5 -36.5q0 -55 -39 -103.5t-105 -84.5l-28 36q29 25 43 46t20 48
q-32 5 -49.5 26t-17.5 50z" />
    <glyph glyph-name="rcommaaccent" unicode="&#x157;" horiz-adv-x="471" 
d="M254 418l2 -1q16 17 35.5 33.5t41 29.5t46 21t51.5 8q13 0 22 -11.5t9 -33.5q0 -21 -8.5 -52t-26.5 -54l-170 13q0 -9 -0.5 -41.5t-0.5 -76t0.5 -91.5t0.5 -87l72 -25l-2 -50h-282l-4 50l77 30v31.5v54.5v66.5v68.5v59.5v40.5l-69 20v52l175 28l12 -5zM100 -136
q0 32 24.5 56.5t63.5 24.5q22 0 39 -8.5t27.5 -22.5t16 -31.5t5.5 -36.5q0 -55 -39 -103.5t-105 -84.5l-28 36q29 25 43 46t20 48q-32 5 -49.5 26t-17.5 50z" />
    <glyph glyph-name="Rcaron" unicode="&#x158;" horiz-adv-x="712" 
d="M366 281h-14q-15 1 -35 2t-43 6v-204l98 -22l-4 -63h-329l-4 56l89 29v520l-81 24l7 58q42 -1 75 -1.5t77 -0.5q52 0 100 1.5t95 1.5q49 0 92 -10.5t75 -33t50 -58.5t18 -87q0 -30 -7.5 -58.5t-24 -54t-42.5 -46.5t-62 -34l217 -267l-13 -43l-125 -28zM475 488
q0 31 -10.5 52t-29.5 34t-44.5 18.5t-55.5 5.5t-61 -6v-216q13 -2 27.5 -2.5t22.5 -0.5q46 0 75.5 10t46.5 26.5t23 37t6 41.5zM504 931l38 -43l-174 -159h-73l-175 159l37 43q7 -5 32 -18.5t54 -29t54.5 -29.5t32.5 -18z" />
    <glyph glyph-name="rcaron" unicode="&#x159;" horiz-adv-x="471" 
d="M254 418l2 -1q16 17 35.5 33.5t41 29.5t46 21t51.5 8q13 0 22 -11.5t9 -33.5q0 -21 -8.5 -52t-26.5 -54l-170 13q0 -9 -0.5 -41.5t-0.5 -76t0.5 -91.5t0.5 -87l72 -25l-2 -50h-282l-4 50l77 30v31.5v54.5v66.5v68.5v59.5v40.5l-69 20v52l175 28l12 -5zM391 753l38 -44
l-174 -172h-73l-175 173l37 43q5 -3 18 -11.5t31 -20t37.5 -24t37.5 -24t31 -20.5t18 -12z" />
    </font>
</defs>
</svg>
