<?xml version="1.0" standalone="no"?>
<!DOCTYPE svg PUBLIC "-//W3C//DTD SVG 1.1//EN" "http://www.w3.org/Graphics/SVG/1.1/DTD/svg11.dtd" >
<svg xmlns="http://www.w3.org/2000/svg">
<metadata>
This is a custom SVG webfont generated by Font Squirrel.
Copyright   : Copyright c 2007 by ALS All rights reserved
</metadata>
<defs>
<font id="ALSRublRegular" horiz-adv-x="1024" >
<font-face units-per-em="2048" ascent="1536" descent="-512" />
<missing-glyph horiz-adv-x="500" />
<glyph unicode=" " />
<glyph unicode="a" horiz-adv-x="1556" d="M164 291v166h153v127h-153v164h153v686h541q143 0 217 -13q154 -23 246 -134t92 -267q0 -184 -117 -311q-117 -125 -422 -125h-366v-127h829v-166h-829v-291h-191v291h-153zM508 752h369q180 0 258.5 66.5t78.5 195.5q0 90 -44 153.5t-119 83.5q-47 12 -179 13h-364v-512 z" />
<glyph unicode="b" horiz-adv-x="1169" d="M61 293l27 164h127l21 123h-125l26 163h127l119 689h473q238 0 315 -146q39 -72 39 -207q0 -150 -69.5 -276.5t-182.5 -173.5q-111 -49 -270 -49h-295l-20 -123h682l-29 -164h-682l-49 -293h-158l51 293h-127zM422 743h258q137 0 209 35t119 115q49 82 49 182 q0 143 -90 180q-41 20 -154 21h-299z" />
<glyph unicode="c" horiz-adv-x="1542" d="M143 176v242h166v123h-166v241h166v654h465q260 0 346 -23q129 -33 209 -143.5t80 -276.5q0 -182 -95 -292.5t-224 -139.5q-100 -20 -302 -20h-188v-123h748v-242h-748v-176h-291v176h-166zM600 784h158q168 0 229 23q55 20 89 69.5t34 112.5q0 76 -45 128t-117 65 q-57 10 -209 10h-139v-408z" />
<glyph unicode="d" horiz-adv-x="1462" d="M61 176l56 236h190l29 135h-189l56 237h182l135 650h592q432 0 432 -359q0 -106 -41 -209.5t-104 -167.5q-61 -61 -132 -93t-188 -50q-63 -8 -260 -8h-190l-29 -135h746l-52 -236h-743l-37 -176h-293l37 176h-197zM678 784h92q231 0 311 29q74 29 121 92.5t47 145.5 q0 102 -88 131q-43 16 -184 16h-211z" />
<glyph unicode="e" horiz-adv-x="1452" d="M184 442v86h201v103h-201v86h201v512q0 88 -57 106q-45 16 -144 27v72h658q197 0 321 -97q125 -98 125 -258q0 -221 -166 -342q-145 -106 -360 -106h-162v-103h633v-86h-633v-247q0 -80 59 -103q10 -6 64 -12l86 -8v-72h-616v72l69 6q43 2 66 14q57 25 57 103v247h-201z M600 717h102q199 0 279 119q57 84 57 192q0 139 -61 223q-74 98 -234 99h-143v-633z" />
<glyph unicode="f" horiz-adv-x="1359" d="M61 0l15 68q104 6 141 18q61 23 80 104l57 252h-198l20 82h199l24 109h-198l20 84h197l121 518q6 31 6 41q0 49 -39 65q-53 20 -135 25l14 68h637q174 0 281.5 -78t107.5 -211q0 -238 -192 -379q-176 -133 -431 -133h-172l-26 -109h643l-19 -82h-643l-59 -252 q-4 -29 -4 -36q0 -49 41 -68q51 -18 143 -18l-14 -68h-617zM635 717h115q233 0 337 153q76 106 76 252q0 106 -55 164q-66 70 -197 70h-131z" />
<glyph unicode="g" horiz-adv-x="1650" d="M164 0v78q12 2 47 6t61.5 8t36.5 8q37 16 50.5 39t13.5 66v209h-209v96h209v106h-209v97h209v504q0 76 -64 104q-53 23 -145 35v78h790q553 0 553 -361q0 -236 -186 -350q-170 -104 -471 -105h-117v-108h719v-96h-719v-201q0 -74 66 -104q41 -16 141 -31v-78h-776z M733 713h43q336 0 336 309q0 168 -66.5 243.5t-228.5 75.5h-84v-628z" />
<glyph unicode="h" horiz-adv-x="1611" d="M61 0l17 74q43 0 78 6q47 6 71 16q74 25 90 101l54 235h-211l20 88h211l23 96h-211l18 91h215l113 491q8 39 8 57q0 41 -43 66t-139 39l16 74h778q494 0 494 -301q0 -256 -219 -390q-209 -127 -526 -127h-146l-22 -96h735l-21 -88h-737l-45 -203q-8 -31 -8 -57 q0 -45 39 -66.5t145 -31.5l-18 -74h-779zM795 707h65q211 0 311 122q92 113 93 299q0 113 -59.5 165.5t-190.5 52.5h-72z" />
<glyph unicode="i" horiz-adv-x="1398" d="M184 246v164h146v125h-146v163h146v736h360q246 0 373 -91q172 -119 172 -342q0 -193 -127 -319q-147 -147 -426 -147h-162v-125h643v-164h-643v-246h-190v246h-146zM520 696h129q119 0 188.5 18.5t116.5 67.5q82 82 82 213q0 154 -102 219q-82 55 -256 56h-158v-574z " />
<glyph unicode="j" horiz-adv-x="1523" d="M143 100v269h148v100h-148v268h148v695h557q236 0 375 -95q168 -115 168 -358q0 -215 -121 -340q-82 -82 -178 -123q-111 -47 -252 -47h-191v-100h682v-269h-682v-100h-358v100h-148zM649 735h27q131 0 174 6q72 10 111 50q37 35 49 73.5t12 106.5q0 59 -27.5 102 t-70.5 64q-61 29 -224 28h-51v-430z" />
<glyph unicode="k" horiz-adv-x="1327" d="M123 481v70h207v90h-207v70h207v467q0 135 -29 170q-39 45 -123 45h-53v41h524q190 0 302 -40t187.5 -134.5t75.5 -221.5q0 -180 -116.5 -288.5t-325.5 -108.5h-242v-90h621v-70h-621v-227q0 -135 31 -168q41 -47 121 -47h55v-39h-612v39h53q90 0 131 59q20 33 21 156 v227h-207zM530 711h175q111 0 190 84q80 86 80 221q0 166 -81 249t-224 83q-57 0 -140 -21v-616z" />
<glyph unicode="l" horiz-adv-x="1386" d="M51 0l12 39q113 0 154 39q45 39 96 213l56 192h-144l19 74h147l31 107h-158l19 71h159l109 373q41 141 41 197q0 41 -33 63.5t-129 26.5l12 39h564q223 0 331 -97q111 -96 111 -231q0 -113 -71.5 -215.5t-205.5 -163.5q-135 -63 -297 -63h-264l-30 -107h690l-17 -74h-696 l-49 -176q-41 -141 -41 -184q0 -37 32.5 -57.5t133.5 -26.5l-12 -39h-570zM631 735h200q250 0 359 191q53 96 53 198q0 109 -66.5 170.5t-197.5 61.5q-74 0 -174 -19z" />
<glyph unicode="m" horiz-adv-x="1437" d="M123 475v82h201v92h-201v82h201v451q0 119 -15 145q-16 31 -51 49q-33 18 -133 19v39h625q307 0 440 -111q135 -111 135 -274q0 -139 -86 -237.5t-240 -135.5q-111 -27 -344 -27v-92h627v-82h-627v-223q0 -123 13 -148q12 -27 51 -47q37 -18 133 -18v-39h-727v39 q154 0 184 65q14 29 15 148v223h-201zM655 731h52q268 0 268 311q0 309 -277 310h-43v-621z" />
<glyph unicode="n" horiz-adv-x="1447" d="M41 0l12 39q84 2 122 17.5t65 52.5q18 25 55 149l49 172h-201l23 90h205l35 121h-203l26 90h203l127 438q27 86 27 131q0 86 -160 95l10 39h568q238 0 337 -60q158 -90 158 -278q0 -178 -158 -318q-156 -137 -426 -137h-200l-35 -121h629l-25 -90h-631l-49 -172 q-27 -90 -26 -119q0 -51 34.5 -73.5t143.5 -26.5l-15 -39h-700zM741 731h113q145 0 229 133t84 279q0 98 -54 151.5t-148 53.5h-50z" />
<glyph unicode="o" horiz-adv-x="1298" d="M154 281v145h135v143h-135v146h135v721h465q172 0 286.5 -91.5t114.5 -281.5q0 -492 -653 -492h-23v-145h635v-145h-635v-281h-190v281h-135zM479 715h66q408 0 407 332q0 125 -74.5 185t-175.5 60h-223v-577z" />
<glyph unicode="p" horiz-adv-x="1515" d="M143 260v225h136v84h-136v226h136v686h661q217 0 329.5 -92.5t112.5 -303.5q0 -227 -137 -369.5t-379 -142.5h-217v-88h598v-225h-598v-260h-370v260h-136zM649 795q51 0 89 3t88.5 18t82 42t55 77t23.5 120q0 180 -221 180q-49 0 -117 -14v-426z" />
<glyph unicode="q" horiz-adv-x="1308" d="M123 236v161h135v135h-135v164h135v738h387q248 0 379 -91q172 -117 172 -342q0 -197 -127 -319q-147 -147 -430 -147h-190v-138h688v-161h-688v-236h-191v236h-135zM449 696h159q213 0 307 88q82 82 82 211q0 147 -104 217q-88 57 -256 58h-188v-574z" />
<glyph unicode="r" horiz-adv-x="1259" d="M41 233l35 156h151l35 150h-151l34 153h152l172 744h379q240 0 356 -90q117 -88 117 -256q0 -246 -195 -406q-172 -145 -462 -145h-209l-35 -150h727l-33 -156h-731l-53 -233h-193l53 233h-149zM489 692h173q221 0 325 90q129 109 129 275q0 113 -67 162q-76 59 -244 59 h-178z" />
<glyph unicode="s" horiz-adv-x="1697" d="M123 117v291h194v92h-194v288h194v748h654q268 0 424 -100q190 -121 190 -385q0 -227 -139 -367q-96 -94 -210 -139t-275 -45h-246v-92h790v-291h-790v-117h-398v117h-194zM715 788h112q203 0 277 64q72 59 72 190q0 59 -34 107.5t-83 69.5q-70 31 -277 30h-67v-461z" />
<glyph unicode="t" horiz-adv-x="1632" d="M72 109l61 270h209l20 88h-208l63 272h209l162 697h516q291 0 426 -86q154 -96 153 -312q0 -256 -213 -413.5t-593 -157.5h-142l-20 -88h774l-59 -270h-777l-24 -109h-373l25 109h-209zM799 737h133q168 0 262 68.5t94 198.5q0 164 -241 163h-150z" />
<glyph unicode="u" horiz-adv-x="1452" d="M102 217v205h246v164h-246v205h246v643h547q104 0 184 -25q82 -25 146 -80q135 -117 135 -319.5t-135 -319.5q-63 -55 -146 -80q-80 -25 -184 -24h-203v-164h590v-205h-590v-217h-344v217h-246zM692 791h115q78 0 117 22q80 43 80 162t-80 162q-31 16 -60 18q-29 4 -57 4 h-115v-368z" />
<glyph unicode="v" horiz-adv-x="1296" d="M143 0v76l197 37v321h-197v78h197v123h-197v78h197v596l-197 37v75h562q190 0 301 -55q168 -88 168 -301q0 -193 -136 -309q-139 -121 -401 -121h-107v-123h615v-78h-615v-321l215 -37v-76h-602zM530 713h97q190 0 274 90q68 74 68 211q0 174 -109 258q-90 72 -260 71 h-70v-630z" />
<glyph unicode="w" horiz-adv-x="1589" d="M123 367q0 37 34 56q14 8 34 8q27 0 65 -15q139 -18 258 -21l51 144q-78 4 -121 8q-88 8 -129 10q-113 6 -112 66q0 37 34 56q14 8 34 8q27 0 65 -15q137 -25 258 -33l29 78q104 283 208 510q39 86 109 86q20 0 36.5 -12.5t13.5 -51.5t-44 -96q-20 -29 -39.5 -61.5 t-34 -58t-32 -63.5t-25.5 -56.5t-24.5 -58.5t-20.5 -50q-45 -104 -65 -180q82 -10 157 -11q182 0 313.5 61.5t195 166t63.5 205.5q0 131 -109 227q-135 121 -403 121q-297 0 -521 -140q-117 -72 -116 -147q0 -90 157 -98q66 -4 66 -43q0 -43 -70 -43q-121 0 -192 49 q-72 51 -72 127q0 143 184 250q242 139 574 139q338 0 506 -172q111 -113 110 -262q0 -139 -83 -268.5t-242.5 -199t-391.5 -69.5q-88 0 -161 6l-47 -135q162 -13 372 -13q53 0 109 1q86 0 127 4q45 4 67 4q63 0 64 -53q0 -23 -14.5 -37t-46 -18.5t-57.5 -5.5h-20 q-23 0 -56 1q-50 2 -72 2q-168 0 -504 21l-45 -137q-14 -45 -15.5 -70t6 -41t7.5 -31q0 -70 -70 -69q-27 0 -47 22.5t-20 61.5q0 72 32 153l41 115q-197 6 -248 6q-110 1 -110 62z" />
<glyph unicode="&#xa0;" />
<glyph unicode="&#xaa;" horiz-adv-x="1556" d="M164 291v166h153v127h-153v164h153v686h541q143 0 217 -13q154 -23 246 -134t92 -267q0 -184 -117 -311q-117 -125 -422 -125h-366v-127h829v-166h-829v-291h-191v291h-153zM508 752h369q180 0 258.5 66.5t78.5 195.5q0 90 -44 153.5t-119 83.5q-47 12 -179 13h-364v-512 z" />
<glyph unicode="&#xba;" horiz-adv-x="1298" d="M154 281v145h135v143h-135v146h135v721h465q172 0 286.5 -91.5t114.5 -281.5q0 -492 -653 -492h-23v-145h635v-145h-635v-281h-190v281h-135zM479 715h66q408 0 407 332q0 125 -74.5 185t-175.5 60h-223v-577z" />
<glyph unicode="&#xff;" horiz-adv-x="1705" />
<glyph unicode="&#x153;" horiz-adv-x="2750" d="M1482 442v86h201v103h-201v86h201v512q0 88 -57 106q-45 16 -144 27v72h658q197 0 321 -97q125 -98 125 -258q0 -221 -166 -342q-145 -106 -360 -106h-162v-103h633v-86h-633v-247q0 -80 59 -103q10 -6 64 -12l86 -8v-72h-616v72l69 6q43 2 66 14q57 25 57 103v247h-201z M1898 717h102q199 0 279 119q57 84 57 192q0 139 -61 223q-74 98 -234 99h-143v-633zM154 281v145h135v143h-135v146h135v721h465q172 0 286.5 -91.5t114.5 -281.5q0 -492 -653 -492h-23v-145h635v-145h-635v-281h-190v281h-135zM479 715h66q408 0 407 332q0 125 -74.5 185 t-175.5 60h-223v-577z" />
<glyph unicode="&#x2000;" horiz-adv-x="768" />
<glyph unicode="&#x2001;" horiz-adv-x="1536" />
<glyph unicode="&#x2002;" horiz-adv-x="768" />
<glyph unicode="&#x2003;" horiz-adv-x="1536" />
<glyph unicode="&#x2004;" horiz-adv-x="512" />
<glyph unicode="&#x2005;" horiz-adv-x="382" />
<glyph unicode="&#x2006;" horiz-adv-x="256" />
<glyph unicode="&#x2007;" horiz-adv-x="256" />
<glyph unicode="&#x2008;" horiz-adv-x="190" />
<glyph unicode="&#x2009;" horiz-adv-x="307" />
<glyph unicode="&#x200a;" horiz-adv-x="83" />
<glyph unicode="&#x2013;" d="M205 512v205h614v-205h-614z" />
<glyph unicode="&#x2014;" horiz-adv-x="2048" d="M205 512v205h1638v-205h-1638z" />
<glyph unicode="&#x202f;" horiz-adv-x="307" />
<glyph unicode="&#x205f;" horiz-adv-x="382" />
<glyph unicode="&#xe000;" horiz-adv-x="500" d="M0 0v0v0v0v0z" />
<glyph unicode="&#xfb01;" horiz-adv-x="2758" d="M1544 246v164h146v125h-146v163h146v736h360q246 0 373 -91q172 -119 172 -342q0 -193 -127 -319q-147 -147 -426 -147h-162v-125h643v-164h-643v-246h-190v246h-146zM1880 696h129q119 0 188.5 18.5t116.5 67.5q82 82 82 213q0 154 -102 219q-82 55 -256 56h-158v-574z M61 0l15 68q104 6 141 18q61 23 80 104l57 252h-198l20 82h199l24 109h-198l20 84h197l121 518q6 31 6 41q0 49 -39 65q-53 20 -135 25l14 68h637q174 0 281.5 -78t107.5 -211q0 -238 -192 -379q-176 -133 -431 -133h-172l-26 -109h643l-19 -82h-643l-59 -252q-4 -29 -4 -36 q0 -49 41 -68q51 -18 143 -18l-14 -68h-617zM635 717h115q233 0 337 153q76 106 76 252q0 106 -55 164q-66 70 -197 70h-131z" />
<glyph unicode="&#xfb02;" horiz-adv-x="2746" d="M1411 0l12 39q113 0 154 39q45 39 96 213l56 192h-144l19 74h147l31 107h-158l19 71h159l109 373q41 141 41 197q0 41 -33 63.5t-129 26.5l12 39h564q223 0 331 -97q111 -96 111 -231q0 -113 -71.5 -215.5t-205.5 -163.5q-135 -63 -297 -63h-264l-30 -107h690l-17 -74 h-696l-49 -176q-41 -141 -41 -184q0 -37 32.5 -57.5t133.5 -26.5l-12 -39h-570zM1991 735h200q250 0 359 191q53 96 53 198q0 109 -66.5 170.5t-197.5 61.5q-74 0 -174 -19zM61 0l15 68q104 6 141 18q61 23 80 104l57 252h-198l20 82h199l24 109h-198l20 84h197l121 518 q6 31 6 41q0 49 -39 65q-53 20 -135 25l14 68h637q174 0 281.5 -78t107.5 -211q0 -238 -192 -379q-176 -133 -431 -133h-172l-26 -109h643l-19 -82h-643l-59 -252q-4 -29 -4 -36q0 -49 41 -68q51 -18 143 -18l-14 -68h-617zM635 717h115q233 0 337 153q76 106 76 252 q0 106 -55 164q-66 70 -197 70h-131z" />
<glyph unicode="&#xfb03;" horiz-adv-x="4118" d="M2904 246v164h146v125h-146v163h146v736h360q246 0 373 -91q172 -119 172 -342q0 -193 -127 -319q-147 -147 -426 -147h-162v-125h643v-164h-643v-246h-190v246h-146zM3240 696h129q119 0 188.5 18.5t116.5 67.5q82 82 82 213q0 154 -102 219q-82 55 -256 56h-158v-574z M1421 0l15 68q104 6 141 18q61 23 80 104l57 252h-198l20 82h199l24 109h-198l20 84h197l121 518q6 31 6 41q0 49 -39 65q-53 20 -135 25l14 68h637q174 0 281.5 -78t107.5 -211q0 -238 -192 -379q-176 -133 -431 -133h-172l-26 -109h643l-19 -82h-643l-59 -252 q-4 -29 -4 -36q0 -49 41 -68q51 -18 143 -18l-14 -68h-617zM1995 717h115q233 0 337 153q76 106 76 252q0 106 -55 164q-66 70 -197 70h-131zM61 0l15 68q104 6 141 18q61 23 80 104l57 252h-198l20 82h199l24 109h-198l20 84h197l121 518q6 31 6 41q0 49 -39 65 q-53 20 -135 25l14 68h637q174 0 281.5 -78t107.5 -211q0 -238 -192 -379q-176 -133 -431 -133h-172l-26 -109h643l-19 -82h-643l-59 -252q-4 -29 -4 -36q0 -49 41 -68q51 -18 143 -18l-14 -68h-617zM635 717h115q233 0 337 153q76 106 76 252q0 106 -55 164q-66 70 -197 70 h-131z" />
<glyph unicode="&#xfb04;" horiz-adv-x="4106" d="M2771 0l12 39q113 0 154 39q45 39 96 213l56 192h-144l19 74h147l31 107h-158l19 71h159l109 373q41 141 41 197q0 41 -33 63.5t-129 26.5l12 39h564q223 0 331 -97q111 -96 111 -231q0 -113 -71.5 -215.5t-205.5 -163.5q-135 -63 -297 -63h-264l-30 -107h690l-17 -74 h-696l-49 -176q-41 -141 -41 -184q0 -37 32.5 -57.5t133.5 -26.5l-12 -39h-570zM3351 735h200q250 0 359 191q53 96 53 198q0 109 -66.5 170.5t-197.5 61.5q-74 0 -174 -19zM1421 0l15 68q104 6 141 18q61 23 80 104l57 252h-198l20 82h199l24 109h-198l20 84h197l121 518 q6 31 6 41q0 49 -39 65q-53 20 -135 25l14 68h637q174 0 281.5 -78t107.5 -211q0 -238 -192 -379q-176 -133 -431 -133h-172l-26 -109h643l-19 -82h-643l-59 -252q-4 -29 -4 -36q0 -49 41 -68q51 -18 143 -18l-14 -68h-617zM1995 717h115q233 0 337 153q76 106 76 252 q0 106 -55 164q-66 70 -197 70h-131zM61 0l15 68q104 6 141 18q61 23 80 104l57 252h-198l20 82h199l24 109h-198l20 84h197l121 518q6 31 6 41q0 49 -39 65q-53 20 -135 25l14 68h637q174 0 281.5 -78t107.5 -211q0 -238 -192 -379q-176 -133 -431 -133h-172l-26 -109h643 l-19 -82h-643l-59 -252q-4 -29 -4 -36q0 -49 41 -68q51 -18 143 -18l-14 -68h-617zM635 717h115q233 0 337 153q76 106 76 252q0 106 -55 164q-66 70 -197 70h-131z" />
</font>
</defs>
</svg>
